%TF.GenerationSoftware,KiCad,Pcbnew,8.0.2*%
%TF.CreationDate,2024-06-06T14:24:50+10:00*%
%TF.ProjectId,design,64657369-676e-42e6-9b69-6361645f7063,rev?*%
%TF.SameCoordinates,Original*%
%TF.FileFunction,Soldermask,Top*%
%TF.FilePolarity,Negative*%
%FSLAX46Y46*%
G04 Gerber Fmt 4.6, Leading zero omitted, Abs format (unit mm)*
G04 Created by KiCad (PCBNEW 8.0.2) date 2024-06-06 14:24:50*
%MOMM*%
%LPD*%
G01*
G04 APERTURE LIST*
G04 Aperture macros list*
%AMRoundRect*
0 Rectangle with rounded corners*
0 $1 Rounding radius*
0 $2 $3 $4 $5 $6 $7 $8 $9 X,Y pos of 4 corners*
0 Add a 4 corners polygon primitive as box body*
4,1,4,$2,$3,$4,$5,$6,$7,$8,$9,$2,$3,0*
0 Add four circle primitives for the rounded corners*
1,1,$1+$1,$2,$3*
1,1,$1+$1,$4,$5*
1,1,$1+$1,$6,$7*
1,1,$1+$1,$8,$9*
0 Add four rect primitives between the rounded corners*
20,1,$1+$1,$2,$3,$4,$5,0*
20,1,$1+$1,$4,$5,$6,$7,0*
20,1,$1+$1,$6,$7,$8,$9,0*
20,1,$1+$1,$8,$9,$2,$3,0*%
G04 Aperture macros list end*
%ADD10R,1.500000X0.900000*%
%ADD11R,0.800000X0.800000*%
%ADD12C,0.650000*%
%ADD13RoundRect,0.150000X-0.150000X-0.500000X0.150000X-0.500000X0.150000X0.500000X-0.150000X0.500000X0*%
%ADD14RoundRect,0.075000X-0.075000X-0.575000X0.075000X-0.575000X0.075000X0.575000X-0.075000X0.575000X0*%
%ADD15O,1.000000X2.100000*%
%ADD16O,1.000000X1.600000*%
%ADD17RoundRect,0.225000X-0.225000X-0.375000X0.225000X-0.375000X0.225000X0.375000X-0.225000X0.375000X0*%
%ADD18RoundRect,0.100000X-0.225000X-0.100000X0.225000X-0.100000X0.225000X0.100000X-0.225000X0.100000X0*%
%ADD19C,3.200000*%
%ADD20RoundRect,0.375000X0.375000X-0.625000X0.375000X0.625000X-0.375000X0.625000X-0.375000X-0.625000X0*%
%ADD21RoundRect,0.500000X1.400000X-0.500000X1.400000X0.500000X-1.400000X0.500000X-1.400000X-0.500000X0*%
%ADD22R,0.900000X1.000000*%
%ADD23RoundRect,0.225000X0.225000X0.250000X-0.225000X0.250000X-0.225000X-0.250000X0.225000X-0.250000X0*%
%ADD24RoundRect,0.140000X0.170000X-0.140000X0.170000X0.140000X-0.170000X0.140000X-0.170000X-0.140000X0*%
%ADD25R,1.700000X1.700000*%
%ADD26O,1.700000X1.700000*%
%ADD27RoundRect,0.093750X-0.093750X0.156250X-0.093750X-0.156250X0.093750X-0.156250X0.093750X0.156250X0*%
%ADD28RoundRect,0.075000X-0.075000X0.250000X-0.075000X-0.250000X0.075000X-0.250000X0.075000X0.250000X0*%
%ADD29RoundRect,0.135000X0.185000X-0.135000X0.185000X0.135000X-0.185000X0.135000X-0.185000X-0.135000X0*%
%ADD30RoundRect,0.225000X-0.375000X0.225000X-0.375000X-0.225000X0.375000X-0.225000X0.375000X0.225000X0*%
%ADD31RoundRect,0.135000X-0.135000X-0.185000X0.135000X-0.185000X0.135000X0.185000X-0.135000X0.185000X0*%
%ADD32RoundRect,0.225000X0.250000X-0.225000X0.250000X0.225000X-0.250000X0.225000X-0.250000X-0.225000X0*%
%ADD33RoundRect,0.135000X-0.185000X0.135000X-0.185000X-0.135000X0.185000X-0.135000X0.185000X0.135000X0*%
%ADD34RoundRect,0.135000X0.135000X0.185000X-0.135000X0.185000X-0.135000X-0.185000X0.135000X-0.185000X0*%
G04 APERTURE END LIST*
D10*
%TO.C,IC1*%
X63750000Y-63240000D03*
X63750000Y-64510000D03*
X63750000Y-65780000D03*
X63750000Y-67050000D03*
X63750000Y-68320000D03*
X63750000Y-69590000D03*
X63750000Y-70860000D03*
X63750000Y-72130000D03*
X63750000Y-73400000D03*
X63750000Y-74670000D03*
X63750000Y-75940000D03*
X63750000Y-77210000D03*
X63750000Y-78480000D03*
X63750000Y-79750000D03*
X81250000Y-79750000D03*
X81250000Y-78480000D03*
X81250000Y-77210000D03*
X81250000Y-75940000D03*
X81250000Y-74670000D03*
X81250000Y-73400000D03*
X81250000Y-72130000D03*
X81250000Y-70860000D03*
X81250000Y-69590000D03*
X81250000Y-68320000D03*
X81250000Y-67050000D03*
X81250000Y-65780000D03*
X81250000Y-64510000D03*
X81250000Y-63240000D03*
D11*
X70995000Y-68960000D03*
X69745000Y-67710000D03*
X69745000Y-68960000D03*
X69745000Y-70210000D03*
X70995000Y-70210000D03*
X72245000Y-70210000D03*
X72245000Y-68960000D03*
X72245000Y-67710000D03*
X70995000Y-67710000D03*
%TD*%
D12*
%TO.C,J1*%
X69610000Y-106395000D03*
X75390000Y-106395000D03*
D13*
X69300000Y-105255000D03*
X70100000Y-105255000D03*
D14*
X71250000Y-105255000D03*
X72250000Y-105255000D03*
X72750000Y-105255000D03*
X73750000Y-105255000D03*
D13*
X74900000Y-105255000D03*
X75700000Y-105255000D03*
X75700000Y-105255000D03*
X74900000Y-105255000D03*
D14*
X74250000Y-105255000D03*
X73250000Y-105255000D03*
X71750000Y-105255000D03*
X70750000Y-105255000D03*
D13*
X70100000Y-105255000D03*
X69300000Y-105255000D03*
D15*
X68180000Y-105895000D03*
D16*
X68180000Y-110075000D03*
D15*
X76820000Y-105895000D03*
D16*
X76820000Y-110075000D03*
%TD*%
D17*
%TO.C,D2*%
X83850000Y-103500000D03*
X87150000Y-103500000D03*
%TD*%
D18*
%TO.C,Q1*%
X73400000Y-86700000D03*
X73400000Y-87350000D03*
X73400000Y-88000000D03*
X75300000Y-88000000D03*
X75300000Y-87350000D03*
X75300000Y-86700000D03*
%TD*%
D19*
%TO.C,H2*%
X91000000Y-108000000D03*
%TD*%
D20*
%TO.C,U2*%
X60400000Y-92200000D03*
X62700000Y-92200000D03*
D21*
X62700000Y-85900000D03*
D20*
X65000000Y-92200000D03*
%TD*%
D22*
%TO.C,SW1*%
X80450000Y-108200000D03*
X84550000Y-108200000D03*
X80450000Y-109800000D03*
X84550000Y-109800000D03*
%TD*%
D19*
%TO.C,H1*%
X54000000Y-108000000D03*
%TD*%
%TO.C,H4*%
X54000000Y-59000000D03*
%TD*%
D23*
%TO.C,C7*%
X64775000Y-94650000D03*
X63225000Y-94650000D03*
%TD*%
D24*
%TO.C,C6*%
X61300000Y-66780000D03*
X61300000Y-65820000D03*
%TD*%
D25*
%TO.C,J2*%
X93000000Y-64000000D03*
D26*
X93000000Y-66540000D03*
X93000000Y-69080000D03*
X93000000Y-71620000D03*
X93000000Y-74160000D03*
X93000000Y-76700000D03*
X93000000Y-79240000D03*
X93000000Y-81780000D03*
X93000000Y-84320000D03*
X93000000Y-86860000D03*
X93000000Y-89400000D03*
X93000000Y-91940000D03*
X93000000Y-94480000D03*
X93000000Y-97020000D03*
X93000000Y-99560000D03*
X93000000Y-102100000D03*
%TD*%
D25*
%TO.C,J6*%
X52000000Y-64000000D03*
D26*
X52000000Y-66540000D03*
X52000000Y-69080000D03*
X52000000Y-71620000D03*
X52000000Y-74160000D03*
X52000000Y-76700000D03*
X52000000Y-79240000D03*
X52000000Y-81780000D03*
X52000000Y-84320000D03*
X52000000Y-86860000D03*
X52000000Y-89400000D03*
X52000000Y-91940000D03*
X52000000Y-94480000D03*
X52000000Y-97020000D03*
X52000000Y-99560000D03*
X52000000Y-102100000D03*
%TD*%
D24*
%TO.C,C2*%
X61300000Y-64600000D03*
X61300000Y-63640000D03*
%TD*%
D27*
%TO.C,U1*%
X70237500Y-96650000D03*
D28*
X69700000Y-96575000D03*
D27*
X69162500Y-96650000D03*
X69162500Y-98350000D03*
D28*
X69700000Y-98425000D03*
D27*
X70237500Y-98350000D03*
%TD*%
D29*
%TO.C,R2*%
X70800000Y-103310000D03*
X70800000Y-102290000D03*
%TD*%
D30*
%TO.C,D1*%
X64800000Y-97750000D03*
X64800000Y-101050000D03*
%TD*%
D31*
%TO.C,R4*%
X78490000Y-103000000D03*
X79510000Y-103000000D03*
%TD*%
D32*
%TO.C,C5*%
X59900000Y-64395000D03*
X59900000Y-62845000D03*
%TD*%
D33*
%TO.C,R5*%
X59900000Y-65890000D03*
X59900000Y-66910000D03*
%TD*%
D25*
%TO.C,J5*%
X78400000Y-99260000D03*
D26*
X78400000Y-96720000D03*
X78400000Y-94180000D03*
X78400000Y-91640000D03*
X78400000Y-89100000D03*
X78400000Y-86560000D03*
%TD*%
D23*
%TO.C,C8*%
X61575000Y-94650000D03*
X60025000Y-94650000D03*
%TD*%
D19*
%TO.C,H3*%
X91000000Y-59000000D03*
%TD*%
D22*
%TO.C,SW2*%
X64550000Y-109800000D03*
X60450000Y-109800000D03*
X64550000Y-108200000D03*
X60450000Y-108200000D03*
%TD*%
D34*
%TO.C,R7*%
X62620000Y-83800000D03*
X61600000Y-83800000D03*
%TD*%
D29*
%TO.C,R3*%
X74200000Y-103310000D03*
X74200000Y-102290000D03*
%TD*%
M02*
