%TF.GenerationSoftware,KiCad,Pcbnew,8.0.2*%
%TF.CreationDate,2024-06-06T14:24:50+10:00*%
%TF.ProjectId,design,64657369-676e-42e6-9b69-6361645f7063,rev?*%
%TF.SameCoordinates,Original*%
%TF.FileFunction,Legend,Bot*%
%TF.FilePolarity,Positive*%
%FSLAX46Y46*%
G04 Gerber Fmt 4.6, Leading zero omitted, Abs format (unit mm)*
G04 Created by KiCad (PCBNEW 8.0.2) date 2024-06-06 14:24:50*
%MOMM*%
%LPD*%
G01*
G04 APERTURE LIST*
%ADD10C,0.000000*%
G04 APERTURE END LIST*
D10*
%TO.C,G\u002A\u002A\u002A*%
G36*
X68130547Y-67463451D02*
G01*
X68130547Y-67558735D01*
X67817471Y-67558735D01*
X67504395Y-67558735D01*
X67504395Y-67463451D01*
X67504395Y-67368167D01*
X67817471Y-67368167D01*
X68130547Y-67368167D01*
X68130547Y-67463451D01*
G37*
G36*
X70294855Y-65081351D02*
G01*
X70294855Y-65394427D01*
X70199571Y-65394427D01*
X70104287Y-65394427D01*
X70104287Y-65081351D01*
X70104287Y-64768275D01*
X70199571Y-64768275D01*
X70294855Y-64768275D01*
X70294855Y-65081351D01*
G37*
G36*
X70294855Y-69845552D02*
G01*
X70294855Y-70158628D01*
X70199571Y-70158628D01*
X70104287Y-70158628D01*
X70104287Y-69845552D01*
X70104287Y-69532476D01*
X70199571Y-69532476D01*
X70294855Y-69532476D01*
X70294855Y-69845552D01*
G37*
G36*
X71914684Y-67456645D02*
G01*
X71914684Y-67558735D01*
X71152412Y-67558735D01*
X70390139Y-67558735D01*
X70390139Y-67456645D01*
X70390139Y-67354555D01*
X71152412Y-67354555D01*
X71914684Y-67354555D01*
X71914684Y-67456645D01*
G37*
G36*
X74010933Y-79911629D02*
G01*
X74010933Y-80054555D01*
X73350750Y-80054555D01*
X72690568Y-80054555D01*
X72690568Y-79911629D01*
X72690568Y-79768703D01*
X73350750Y-79768703D01*
X74010933Y-79768703D01*
X74010933Y-79911629D01*
G37*
G36*
X74010933Y-95048178D02*
G01*
X74010933Y-95191104D01*
X73350750Y-95191104D01*
X72690568Y-95191104D01*
X72690568Y-95048178D01*
X72690568Y-94905252D01*
X73350750Y-94905252D01*
X74010933Y-94905252D01*
X74010933Y-95048178D01*
G37*
G36*
X74010933Y-75445377D02*
G01*
X74010933Y-75899864D01*
X73966694Y-75907710D01*
X73949711Y-75910547D01*
X73902087Y-75917689D01*
X73850991Y-75924591D01*
X73779528Y-75933625D01*
X73779528Y-75605184D01*
X73779528Y-75276742D01*
X73235048Y-75276742D01*
X72690568Y-75276742D01*
X72690568Y-75133816D01*
X72690568Y-74990890D01*
X73350750Y-74990890D01*
X74010933Y-74990890D01*
X74010933Y-75445377D01*
G37*
G36*
X68760901Y-95387425D02*
G01*
X68804960Y-95415083D01*
X68838371Y-95448495D01*
X68838371Y-96661201D01*
X68838371Y-97873906D01*
X68804960Y-97907318D01*
X68801877Y-97910298D01*
X68756415Y-97936229D01*
X68706054Y-97937035D01*
X68656445Y-97912517D01*
X68620579Y-97884305D01*
X68620579Y-96664493D01*
X68620579Y-95444681D01*
X68650176Y-95413176D01*
X68666243Y-95399336D01*
X68711891Y-95382141D01*
X68760901Y-95387425D01*
G37*
G36*
X72309432Y-67524705D02*
G01*
X72309432Y-68103216D01*
X72384298Y-68103216D01*
X72459164Y-68103216D01*
X72459164Y-67524705D01*
X72459164Y-66946195D01*
X72574866Y-66946195D01*
X72690568Y-66946195D01*
X72690568Y-67647213D01*
X72690568Y-68348232D01*
X72370686Y-68348232D01*
X72050804Y-68348232D01*
X72050804Y-67647213D01*
X72050804Y-66946195D01*
X72180118Y-66946195D01*
X72309432Y-66946195D01*
X72309432Y-67524705D01*
G37*
G36*
X72921972Y-78325831D02*
G01*
X72921972Y-78530011D01*
X73466452Y-78530011D01*
X74010933Y-78530011D01*
X74010933Y-78672937D01*
X74010933Y-78815863D01*
X73466452Y-78815863D01*
X72921972Y-78815863D01*
X72921972Y-79013237D01*
X72921972Y-79210611D01*
X72806270Y-79210611D01*
X72690568Y-79210611D01*
X72690568Y-78666131D01*
X72690568Y-78121651D01*
X72806270Y-78121651D01*
X72921972Y-78121651D01*
X72921972Y-78325831D01*
G37*
G36*
X74029476Y-67935319D02*
G01*
X74060310Y-67946425D01*
X74086977Y-67971258D01*
X74119829Y-68009450D01*
X74119829Y-68462837D01*
X74119829Y-68916223D01*
X74083942Y-68952110D01*
X74055687Y-68973770D01*
X74003753Y-68989451D01*
X73950079Y-68980884D01*
X73900989Y-68948207D01*
X73861201Y-68908418D01*
X73861201Y-68458934D01*
X73861201Y-68009450D01*
X73894052Y-67971258D01*
X73916926Y-67949029D01*
X73946414Y-67936252D01*
X73990515Y-67933065D01*
X74029476Y-67935319D01*
G37*
G36*
X72921972Y-67215708D02*
G01*
X72954025Y-67222342D01*
X73002884Y-67238616D01*
X73053922Y-67260422D01*
X73058557Y-67262687D01*
X73142929Y-67318049D01*
X73206641Y-67390843D01*
X73251015Y-67482557D01*
X73258947Y-67508158D01*
X73273259Y-67607217D01*
X73263203Y-67703506D01*
X73231001Y-67793389D01*
X73178875Y-67873228D01*
X73109047Y-67939383D01*
X73023738Y-67988218D01*
X72925170Y-68016094D01*
X72867114Y-68025089D01*
X72870722Y-67618359D01*
X72874330Y-67211629D01*
X72921972Y-67215708D01*
G37*
G36*
X74010933Y-93530440D02*
G01*
X74010933Y-93666560D01*
X73745498Y-93666560D01*
X73480064Y-93666560D01*
X73480064Y-93966024D01*
X73480064Y-94265488D01*
X73364362Y-94265488D01*
X73248660Y-94265488D01*
X73248660Y-93965592D01*
X73248660Y-93665696D01*
X73088719Y-93669531D01*
X72928778Y-93673366D01*
X72925124Y-93989845D01*
X72921470Y-94306324D01*
X72806019Y-94306324D01*
X72690568Y-94306324D01*
X72690568Y-93850322D01*
X72690568Y-93394320D01*
X73350750Y-93394320D01*
X74010933Y-93394320D01*
X74010933Y-93530440D01*
G37*
G36*
X76810772Y-76312299D02*
G01*
X76869237Y-76330023D01*
X76919165Y-76365251D01*
X76951549Y-76412234D01*
X76955536Y-76423125D01*
X76962410Y-76484679D01*
X76943147Y-76550013D01*
X76912198Y-76595568D01*
X76860358Y-76630537D01*
X76794587Y-76642480D01*
X76751881Y-76637560D01*
X76696743Y-76612989D01*
X76656532Y-76572446D01*
X76633250Y-76521178D01*
X76628902Y-76464432D01*
X76645491Y-76407454D01*
X76685020Y-76355493D01*
X76713157Y-76332191D01*
X76748600Y-76315518D01*
X76793343Y-76311254D01*
X76810772Y-76312299D01*
G37*
G36*
X76810772Y-90291827D02*
G01*
X76869237Y-90309551D01*
X76919165Y-90344780D01*
X76951549Y-90391762D01*
X76955536Y-90402653D01*
X76962410Y-90464207D01*
X76943147Y-90529541D01*
X76912198Y-90575097D01*
X76860358Y-90610065D01*
X76794587Y-90622008D01*
X76751881Y-90617088D01*
X76696743Y-90592518D01*
X76656532Y-90551975D01*
X76633250Y-90500706D01*
X76628902Y-90443960D01*
X76645491Y-90386983D01*
X76685020Y-90335022D01*
X76713157Y-90311720D01*
X76748600Y-90295046D01*
X76793343Y-90290783D01*
X76810772Y-90291827D01*
G37*
G36*
X75787858Y-82410445D02*
G01*
X75842312Y-82428138D01*
X75891101Y-82463107D01*
X75923656Y-82508387D01*
X75924141Y-82509513D01*
X75937477Y-82549267D01*
X75943304Y-82583661D01*
X75941020Y-82608094D01*
X75919257Y-82660493D01*
X75879788Y-82705781D01*
X75829102Y-82737610D01*
X75773687Y-82749630D01*
X75749237Y-82747150D01*
X75695507Y-82725723D01*
X75648863Y-82687563D01*
X75615981Y-82639066D01*
X75603537Y-82586627D01*
X75605786Y-82561418D01*
X75627121Y-82504237D01*
X75666174Y-82455743D01*
X75717008Y-82422116D01*
X75773687Y-82409534D01*
X75787858Y-82410445D01*
G37*
G36*
X69979751Y-66578125D02*
G01*
X70036021Y-66602948D01*
X70095429Y-66647341D01*
X70145391Y-66702349D01*
X70177275Y-66760023D01*
X70188458Y-66809861D01*
X70195630Y-66886860D01*
X70198497Y-66990434D01*
X70199571Y-67163987D01*
X70027598Y-67163987D01*
X69955950Y-67163163D01*
X69876519Y-67158635D01*
X69815227Y-67148943D01*
X69766888Y-67132733D01*
X69726312Y-67108649D01*
X69688314Y-67075335D01*
X69637584Y-67009029D01*
X69608974Y-66935677D01*
X69601908Y-66860357D01*
X69614291Y-66786642D01*
X69644030Y-66718104D01*
X69689029Y-66658316D01*
X69747195Y-66610851D01*
X69816433Y-66579282D01*
X69894650Y-66567183D01*
X69979751Y-66578125D01*
G37*
G36*
X69084344Y-69237030D02*
G01*
X69116378Y-69250392D01*
X69157951Y-69269878D01*
X69192529Y-69288217D01*
X69221849Y-69307031D01*
X69233119Y-69318988D01*
X69230452Y-69326821D01*
X69217142Y-69355879D01*
X69194562Y-69401792D01*
X69164853Y-69460237D01*
X69130155Y-69526893D01*
X69027190Y-69722553D01*
X68942990Y-69680349D01*
X68941315Y-69679510D01*
X68899074Y-69658105D01*
X68867952Y-69641926D01*
X68854581Y-69634417D01*
X68857570Y-69623307D01*
X68871387Y-69592812D01*
X68893724Y-69547852D01*
X68921985Y-69493246D01*
X68953577Y-69433815D01*
X68985904Y-69374381D01*
X69016372Y-69319763D01*
X69042384Y-69274782D01*
X69061346Y-69244258D01*
X69070664Y-69233012D01*
X69084344Y-69237030D01*
G37*
G36*
X69077812Y-71521811D02*
G01*
X69119571Y-71552349D01*
X69151447Y-71589407D01*
X69151447Y-72024851D01*
X69151447Y-72460294D01*
X69184858Y-72493706D01*
X69218270Y-72527117D01*
X70260825Y-72527117D01*
X71303381Y-72527117D01*
X71336792Y-72560528D01*
X71350993Y-72577678D01*
X71369411Y-72624892D01*
X71365227Y-72673616D01*
X71338360Y-72715631D01*
X71306516Y-72745547D01*
X70223340Y-72741825D01*
X69140165Y-72738103D01*
X69081529Y-72696887D01*
X69065387Y-72684577D01*
X69019517Y-72641887D01*
X68981677Y-72597053D01*
X68940461Y-72538435D01*
X68936422Y-72059327D01*
X68932382Y-71580218D01*
X68966938Y-71547755D01*
X68982626Y-71535024D01*
X69030181Y-71515977D01*
X69077812Y-71521811D01*
G37*
G36*
X74007708Y-92308578D02*
G01*
X74004127Y-92774606D01*
X73929261Y-92784683D01*
X73900532Y-92788662D01*
X73852115Y-92795810D01*
X73816961Y-92801542D01*
X73779528Y-92808323D01*
X73779528Y-92461557D01*
X73779528Y-92114791D01*
X73609378Y-92114791D01*
X73439228Y-92114791D01*
X73439228Y-92427867D01*
X73439228Y-92740943D01*
X73323526Y-92740943D01*
X73207824Y-92740943D01*
X73207824Y-92427867D01*
X73207824Y-92114791D01*
X73064898Y-92114791D01*
X72921972Y-92114791D01*
X72921972Y-92441479D01*
X72921972Y-92768167D01*
X72806270Y-92768167D01*
X72690568Y-92768167D01*
X72690568Y-92305359D01*
X72690568Y-91842551D01*
X73350929Y-91842551D01*
X74011290Y-91842551D01*
X74007708Y-92308578D01*
G37*
G36*
X68041361Y-66078629D02*
G01*
X68068540Y-66095218D01*
X68111513Y-66122794D01*
X68166364Y-66158835D01*
X68229177Y-66200817D01*
X68274769Y-66231743D01*
X68331088Y-66270622D01*
X68375947Y-66302403D01*
X68405611Y-66324425D01*
X68416342Y-66334029D01*
X68415807Y-66336636D01*
X68403792Y-66359104D01*
X68377658Y-66398561D01*
X68339651Y-66451566D01*
X68307939Y-66494611D01*
X68117153Y-66365933D01*
X68068157Y-66332670D01*
X68011665Y-66293701D01*
X67966739Y-66261988D01*
X67937075Y-66240148D01*
X67926367Y-66230797D01*
X67926478Y-66229949D01*
X67935147Y-66212676D01*
X67954129Y-66182359D01*
X67978453Y-66146212D01*
X68003151Y-66111446D01*
X68023252Y-66085273D01*
X68033787Y-66074906D01*
X68041361Y-66078629D01*
G37*
G36*
X71442861Y-65288603D02*
G01*
X71445678Y-65290534D01*
X71483261Y-65319175D01*
X71508350Y-65343616D01*
X71515646Y-65358748D01*
X71512732Y-65364468D01*
X71497017Y-65390023D01*
X71471006Y-65429880D01*
X71437870Y-65479417D01*
X71400780Y-65534013D01*
X71362906Y-65589045D01*
X71327421Y-65639893D01*
X71297495Y-65681935D01*
X71276300Y-65710550D01*
X71267006Y-65721115D01*
X71266233Y-65721026D01*
X71248948Y-65712451D01*
X71218676Y-65693402D01*
X71182609Y-65668894D01*
X71147942Y-65643942D01*
X71121866Y-65623559D01*
X71111576Y-65612761D01*
X71115113Y-65605424D01*
X71131606Y-65578508D01*
X71159247Y-65535862D01*
X71195467Y-65481431D01*
X71237697Y-65419156D01*
X71363818Y-65234768D01*
X71442861Y-65288603D01*
G37*
G36*
X70199571Y-67917029D02*
G01*
X70196700Y-68013888D01*
X70184895Y-68108100D01*
X70162481Y-68182609D01*
X70127881Y-68240901D01*
X70079516Y-68286458D01*
X70015809Y-68322764D01*
X69996961Y-68330332D01*
X69919536Y-68344782D01*
X69837197Y-68338505D01*
X69758210Y-68312862D01*
X69690840Y-68269214D01*
X69686181Y-68264791D01*
X69655407Y-68222450D01*
X69628034Y-68165216D01*
X69608416Y-68103764D01*
X69600909Y-68048768D01*
X69601093Y-68041319D01*
X69610703Y-67984668D01*
X69631767Y-67923168D01*
X69659931Y-67867494D01*
X69690840Y-67828321D01*
X69694420Y-67825185D01*
X69736569Y-67794811D01*
X69784944Y-67773308D01*
X69844723Y-67759433D01*
X69921086Y-67751945D01*
X70019212Y-67749602D01*
X70199571Y-67749303D01*
X70199571Y-67917029D01*
G37*
G36*
X69033337Y-65191621D02*
G01*
X69048108Y-65217221D01*
X69071784Y-65260259D01*
X69101929Y-65316277D01*
X69136106Y-65380815D01*
X69153953Y-65414917D01*
X69185131Y-65475270D01*
X69210152Y-65524741D01*
X69226812Y-65558942D01*
X69232907Y-65573486D01*
X69223043Y-65583481D01*
X69196166Y-65601704D01*
X69159883Y-65623530D01*
X69121834Y-65644564D01*
X69089658Y-65660408D01*
X69070995Y-65666667D01*
X69062720Y-65656754D01*
X69044458Y-65627352D01*
X69018981Y-65583215D01*
X68988868Y-65529147D01*
X68956700Y-65469949D01*
X68925056Y-65410425D01*
X68896514Y-65355376D01*
X68873656Y-65309606D01*
X68859060Y-65277916D01*
X68855306Y-65265110D01*
X68867064Y-65257474D01*
X68902722Y-65237607D01*
X68944326Y-65217246D01*
X68984397Y-65199745D01*
X69015460Y-65188457D01*
X69030037Y-65186736D01*
X69033337Y-65191621D01*
G37*
G36*
X74010933Y-98177284D02*
G01*
X74010933Y-98645244D01*
X73908286Y-98660510D01*
X73899575Y-98661799D01*
X73849792Y-98668890D01*
X73811570Y-98673887D01*
X73792584Y-98675777D01*
X73790674Y-98673079D01*
X73786873Y-98648316D01*
X73783779Y-98599386D01*
X73781470Y-98528397D01*
X73780027Y-98437456D01*
X73779528Y-98328671D01*
X73779528Y-97981565D01*
X73609378Y-97981565D01*
X73439228Y-97981565D01*
X73439228Y-98294641D01*
X73439228Y-98607717D01*
X73323526Y-98607717D01*
X73207824Y-98607717D01*
X73207824Y-98294165D01*
X73207824Y-97980613D01*
X73068301Y-97984492D01*
X72928778Y-97988371D01*
X72925133Y-98318462D01*
X72921488Y-98648553D01*
X72806028Y-98648553D01*
X72690568Y-98648553D01*
X72690568Y-98178939D01*
X72690568Y-97709325D01*
X73350750Y-97709325D01*
X74010933Y-97709325D01*
X74010933Y-98177284D01*
G37*
G36*
X71271565Y-69183002D02*
G01*
X71289326Y-69206057D01*
X71317912Y-69245445D01*
X71354599Y-69297391D01*
X71396662Y-69358120D01*
X71423432Y-69397367D01*
X71461732Y-69454514D01*
X71492325Y-69501411D01*
X71512598Y-69534026D01*
X71519936Y-69548326D01*
X71510809Y-69559217D01*
X71485449Y-69579956D01*
X71451147Y-69605053D01*
X71415242Y-69629358D01*
X71385073Y-69647719D01*
X71367981Y-69654984D01*
X71366141Y-69653775D01*
X71351695Y-69636765D01*
X71326408Y-69603280D01*
X71293509Y-69557939D01*
X71256228Y-69505367D01*
X71217793Y-69450186D01*
X71181433Y-69397018D01*
X71150377Y-69350485D01*
X71127854Y-69315210D01*
X71117093Y-69295816D01*
X71117078Y-69295776D01*
X71124765Y-69282127D01*
X71148458Y-69259030D01*
X71181350Y-69231806D01*
X71216632Y-69205773D01*
X71247497Y-69186253D01*
X71267138Y-69178564D01*
X71271565Y-69183002D01*
G37*
G36*
X68321658Y-68416867D02*
G01*
X68340914Y-68445463D01*
X68366743Y-68484170D01*
X68391119Y-68521844D01*
X68409175Y-68551796D01*
X68415886Y-68565842D01*
X68407738Y-68573285D01*
X68380937Y-68593209D01*
X68339839Y-68622323D01*
X68288991Y-68657547D01*
X68232940Y-68695800D01*
X68176233Y-68734002D01*
X68123418Y-68769073D01*
X68079040Y-68797932D01*
X68047648Y-68817499D01*
X68033787Y-68824694D01*
X68033195Y-68824524D01*
X68021298Y-68811911D01*
X68000399Y-68784387D01*
X67975478Y-68749158D01*
X67951513Y-68713425D01*
X67933483Y-68684394D01*
X67926367Y-68669268D01*
X67926475Y-68668944D01*
X67938965Y-68658149D01*
X67969092Y-68635813D01*
X68012426Y-68604962D01*
X68064536Y-68568625D01*
X68120991Y-68529828D01*
X68177360Y-68491597D01*
X68229212Y-68456960D01*
X68272118Y-68428944D01*
X68301645Y-68410576D01*
X68313363Y-68404883D01*
X68321658Y-68416867D01*
G37*
G36*
X74010933Y-88961617D02*
G01*
X74010933Y-89429237D01*
X73916429Y-89444843D01*
X73916094Y-89444899D01*
X73865718Y-89452734D01*
X73824283Y-89458320D01*
X73800727Y-89460450D01*
X73796512Y-89459509D01*
X73790905Y-89452667D01*
X73786664Y-89436629D01*
X73783606Y-89408391D01*
X73781547Y-89364948D01*
X73780303Y-89303295D01*
X73779692Y-89220429D01*
X73779528Y-89113344D01*
X73779528Y-88766238D01*
X73609378Y-88766238D01*
X73439228Y-88766238D01*
X73439228Y-89086120D01*
X73439228Y-89406002D01*
X73323526Y-89406002D01*
X73207824Y-89406002D01*
X73207824Y-89085644D01*
X73207824Y-88765286D01*
X73068301Y-88769165D01*
X72928778Y-88773044D01*
X72925133Y-89103135D01*
X72921488Y-89433226D01*
X72806028Y-89433226D01*
X72690568Y-89433226D01*
X72690568Y-88963612D01*
X72690568Y-88493998D01*
X73350750Y-88493998D01*
X74010933Y-88493998D01*
X74010933Y-88961617D01*
G37*
G36*
X74010933Y-82716181D02*
G01*
X74010933Y-82845974D01*
X73507281Y-82842092D01*
X73499332Y-82842031D01*
X73385794Y-82841225D01*
X73281505Y-82840603D01*
X73189460Y-82840173D01*
X73112655Y-82839944D01*
X73054086Y-82839926D01*
X73016748Y-82840128D01*
X73003637Y-82840559D01*
X73007447Y-82843006D01*
X73030814Y-82855873D01*
X73071909Y-82877789D01*
X73126613Y-82906567D01*
X73190809Y-82940019D01*
X73226504Y-82958655D01*
X73303788Y-82999459D01*
X73395324Y-83048214D01*
X73495013Y-83101655D01*
X73596756Y-83156519D01*
X73694453Y-83209542D01*
X74010933Y-83381952D01*
X74010933Y-83549068D01*
X74010933Y-83716184D01*
X73350750Y-83716184D01*
X72690568Y-83716184D01*
X72690568Y-83585450D01*
X72690568Y-83454716D01*
X73171621Y-83459539D01*
X73652675Y-83464362D01*
X73454071Y-83360366D01*
X73442459Y-83354269D01*
X73365096Y-83313072D01*
X73272584Y-83263054D01*
X73172150Y-83208161D01*
X73071020Y-83152340D01*
X72976420Y-83099537D01*
X72697374Y-82942703D01*
X72693576Y-82764546D01*
X72689778Y-82586388D01*
X73350355Y-82586388D01*
X74010933Y-82586388D01*
X74010933Y-82716181D01*
G37*
G36*
X74010933Y-96015785D02*
G01*
X74010933Y-96146253D01*
X73508579Y-96141696D01*
X73500545Y-96141624D01*
X73387507Y-96140898D01*
X73283995Y-96140743D01*
X73192958Y-96141124D01*
X73117345Y-96142009D01*
X73060106Y-96143364D01*
X73024189Y-96145154D01*
X73012545Y-96147347D01*
X73013121Y-96148207D01*
X73031244Y-96157556D01*
X73031897Y-96157626D01*
X73051074Y-96165422D01*
X73092582Y-96185626D01*
X73155078Y-96217532D01*
X73237216Y-96260431D01*
X73337651Y-96313618D01*
X73455038Y-96376384D01*
X73588033Y-96448022D01*
X73735289Y-96527825D01*
X74010933Y-96677607D01*
X74010933Y-96846360D01*
X74010933Y-97015113D01*
X73350750Y-97015113D01*
X72690568Y-97015113D01*
X72690568Y-96884865D01*
X72690568Y-96754618D01*
X73173430Y-96758954D01*
X73656291Y-96763291D01*
X73578387Y-96724377D01*
X73561464Y-96715654D01*
X73517495Y-96692243D01*
X73455420Y-96658676D01*
X73378713Y-96616851D01*
X73290847Y-96568663D01*
X73195293Y-96516008D01*
X73095525Y-96460781D01*
X72690568Y-96236099D01*
X72690568Y-96060708D01*
X72690568Y-95885316D01*
X73350750Y-95885316D01*
X74010933Y-95885316D01*
X74010933Y-96015785D01*
G37*
G36*
X76779894Y-82082881D02*
G01*
X76838033Y-82097826D01*
X76884197Y-82136705D01*
X76917055Y-82198446D01*
X76921345Y-82213571D01*
X76929492Y-82265193D01*
X76934651Y-82332243D01*
X76936699Y-82406517D01*
X76935512Y-82479815D01*
X76930967Y-82543935D01*
X76922942Y-82590675D01*
X76902449Y-82639601D01*
X76863101Y-82683721D01*
X76812068Y-82705653D01*
X76752854Y-82703081D01*
X76729557Y-82691425D01*
X76701875Y-82653551D01*
X76684750Y-82593123D01*
X76678885Y-82511959D01*
X76677612Y-82467973D01*
X76674134Y-82435464D01*
X76669225Y-82423044D01*
X76668780Y-82423096D01*
X76651370Y-82428859D01*
X76613149Y-82443077D01*
X76558155Y-82464200D01*
X76490426Y-82490679D01*
X76413999Y-82520965D01*
X76327064Y-82554963D01*
X76243397Y-82585413D01*
X76178436Y-82605490D01*
X76128947Y-82615834D01*
X76091698Y-82617086D01*
X76063453Y-82609887D01*
X76040980Y-82594876D01*
X76026322Y-82578385D01*
X76006022Y-82529968D01*
X76004924Y-82474010D01*
X76022449Y-82418149D01*
X76058018Y-82370025D01*
X76064782Y-82364750D01*
X76098309Y-82345452D01*
X76151295Y-82319550D01*
X76219310Y-82288823D01*
X76297928Y-82255049D01*
X76382721Y-82220008D01*
X76469260Y-82185477D01*
X76553117Y-82153237D01*
X76629865Y-82125064D01*
X76695076Y-82102739D01*
X76744321Y-82088039D01*
X76773174Y-82082744D01*
X76779894Y-82082881D01*
G37*
G36*
X72918686Y-90045766D02*
G01*
X73350750Y-90045766D01*
X74010933Y-90045766D01*
X74010731Y-90341828D01*
X74010139Y-90443341D01*
X74007984Y-90542045D01*
X74004091Y-90619456D01*
X73998290Y-90678780D01*
X73990411Y-90723224D01*
X73986062Y-90740700D01*
X73941266Y-90862595D01*
X73876082Y-90967403D01*
X73791995Y-91054102D01*
X73690494Y-91121671D01*
X73573067Y-91169090D01*
X73441203Y-91195338D01*
X73296389Y-91199393D01*
X73188797Y-91187689D01*
X73062296Y-91153735D01*
X72953194Y-91099176D01*
X72862106Y-91024543D01*
X72789648Y-90930369D01*
X72736434Y-90817187D01*
X72703079Y-90685531D01*
X72702548Y-90682049D01*
X72698798Y-90642063D01*
X72695540Y-90581143D01*
X72692967Y-90504834D01*
X72691272Y-90418677D01*
X72690671Y-90331619D01*
X72918686Y-90331619D01*
X72924260Y-90499071D01*
X72925357Y-90530223D01*
X72928477Y-90593671D01*
X72933007Y-90638900D01*
X72940145Y-90672384D01*
X72951090Y-90700597D01*
X72967043Y-90730014D01*
X72996927Y-90774395D01*
X73057469Y-90834398D01*
X73132463Y-90875684D01*
X73224741Y-90899610D01*
X73337138Y-90907537D01*
X73356308Y-90907415D01*
X73419073Y-90904805D01*
X73475160Y-90899487D01*
X73514304Y-90892342D01*
X73529497Y-90887645D01*
X73611432Y-90849433D01*
X73682257Y-90795230D01*
X73734097Y-90730826D01*
X73742875Y-90715521D01*
X73756661Y-90687356D01*
X73765798Y-90658088D01*
X73771508Y-90621187D01*
X73775010Y-90570123D01*
X73777525Y-90498366D01*
X73782328Y-90331619D01*
X73350507Y-90331619D01*
X72918686Y-90331619D01*
X72690671Y-90331619D01*
X72690647Y-90328216D01*
X72690568Y-90045766D01*
X72918686Y-90045766D01*
G37*
G36*
X72921972Y-99261093D02*
G01*
X73349373Y-99261093D01*
X74010933Y-99261093D01*
X74010696Y-99550348D01*
X74010670Y-99565312D01*
X74008591Y-99703615D01*
X74002520Y-99818906D01*
X73991464Y-99914882D01*
X73974427Y-99995236D01*
X73950415Y-100063666D01*
X73918433Y-100123864D01*
X73877486Y-100179528D01*
X73826581Y-100234352D01*
X73762163Y-100289027D01*
X73660551Y-100348843D01*
X73548549Y-100389997D01*
X73430134Y-100412720D01*
X73309280Y-100417244D01*
X73189964Y-100403801D01*
X73076160Y-100372623D01*
X72971845Y-100323940D01*
X72880993Y-100257985D01*
X72807581Y-100174989D01*
X72785418Y-100138056D01*
X72758082Y-100083448D01*
X72734256Y-100027259D01*
X72732380Y-100022283D01*
X72721872Y-99992861D01*
X72713757Y-99964882D01*
X72707645Y-99934251D01*
X72703149Y-99896873D01*
X72699880Y-99848653D01*
X72697451Y-99785496D01*
X72695471Y-99703307D01*
X72695063Y-99680902D01*
X72921972Y-99680902D01*
X72923707Y-99751019D01*
X72934909Y-99847717D01*
X72958177Y-99924971D01*
X72995443Y-99986675D01*
X73048641Y-100036722D01*
X73119707Y-100079007D01*
X73157164Y-100096743D01*
X73194156Y-100110724D01*
X73231026Y-100118380D01*
X73276882Y-100121472D01*
X73340834Y-100121762D01*
X73415341Y-100118507D01*
X73523020Y-100100562D01*
X73610906Y-100066270D01*
X73680808Y-100014820D01*
X73734537Y-99945401D01*
X73742857Y-99930901D01*
X73756617Y-99902821D01*
X73765755Y-99873574D01*
X73771480Y-99836646D01*
X73775000Y-99785524D01*
X73777525Y-99713693D01*
X73782328Y-99546945D01*
X73352150Y-99546945D01*
X72921972Y-99546945D01*
X72921972Y-99680902D01*
X72695063Y-99680902D01*
X72693555Y-99597990D01*
X72687814Y-99261093D01*
X72921972Y-99261093D01*
G37*
G36*
X70802568Y-98484641D02*
G01*
X70838598Y-98494074D01*
X70920945Y-98533998D01*
X70987260Y-98595698D01*
X71036454Y-98678277D01*
X71040678Y-98689462D01*
X71051853Y-98736844D01*
X71056595Y-98787088D01*
X71054665Y-98826702D01*
X71044354Y-98855614D01*
X71021262Y-98878969D01*
X70984939Y-98898651D01*
X70945777Y-98907181D01*
X70921475Y-98903129D01*
X70881632Y-98880883D01*
X70851357Y-98846312D01*
X70839336Y-98807546D01*
X70837123Y-98785783D01*
X70817714Y-98744101D01*
X70783851Y-98715920D01*
X70742317Y-98703890D01*
X70699895Y-98710656D01*
X70663367Y-98738867D01*
X70660445Y-98742665D01*
X70653770Y-98752964D01*
X70648385Y-98765957D01*
X70644153Y-98784369D01*
X70640935Y-98810925D01*
X70638592Y-98848351D01*
X70636985Y-98899372D01*
X70635977Y-98966716D01*
X70635428Y-99053106D01*
X70635201Y-99161269D01*
X70635155Y-99293930D01*
X70635151Y-99324523D01*
X70634983Y-99453820D01*
X70634495Y-99559082D01*
X70633583Y-99642945D01*
X70632142Y-99708043D01*
X70630069Y-99757009D01*
X70627259Y-99792478D01*
X70623608Y-99817083D01*
X70619011Y-99833459D01*
X70613364Y-99844240D01*
X70585715Y-99872768D01*
X70539637Y-99891967D01*
X70489936Y-99886374D01*
X70480432Y-99882756D01*
X70464752Y-99875834D01*
X70451955Y-99866745D01*
X70441745Y-99852983D01*
X70433828Y-99832041D01*
X70427908Y-99801416D01*
X70423689Y-99758600D01*
X70420878Y-99701089D01*
X70419178Y-99626377D01*
X70418294Y-99531957D01*
X70417932Y-99415325D01*
X70417796Y-99273975D01*
X70417363Y-98721958D01*
X70452389Y-98651671D01*
X70484016Y-98600531D01*
X70546903Y-98538140D01*
X70623676Y-98496731D01*
X70710258Y-98478250D01*
X70802568Y-98484641D01*
G37*
G36*
X68777977Y-71528260D02*
G01*
X68816579Y-71562834D01*
X68818390Y-71565811D01*
X68821989Y-71575112D01*
X68825135Y-71589648D01*
X68827855Y-71611111D01*
X68830182Y-71641193D01*
X68832144Y-71681585D01*
X68833772Y-71733978D01*
X68835095Y-71800063D01*
X68836145Y-71881532D01*
X68836950Y-71980077D01*
X68837542Y-72097389D01*
X68837950Y-72235159D01*
X68838204Y-72395079D01*
X68838334Y-72578840D01*
X68838371Y-72788133D01*
X68838324Y-72937028D01*
X68838055Y-73148845D01*
X68837537Y-73335010D01*
X68836758Y-73496485D01*
X68835707Y-73634228D01*
X68834370Y-73749199D01*
X68832737Y-73842358D01*
X68830794Y-73914665D01*
X68828531Y-73967079D01*
X68825935Y-74000561D01*
X68822993Y-74016071D01*
X68821819Y-74018529D01*
X68791100Y-74052771D01*
X68746130Y-74071873D01*
X68697220Y-74071309D01*
X68690821Y-74069813D01*
X68678571Y-74067101D01*
X68667831Y-74063600D01*
X68658504Y-74057658D01*
X68650490Y-74047623D01*
X68643690Y-74031842D01*
X68638008Y-74008663D01*
X68633343Y-73976434D01*
X68629597Y-73933504D01*
X68626673Y-73878219D01*
X68624471Y-73808928D01*
X68622892Y-73723978D01*
X68621840Y-73621717D01*
X68621214Y-73500494D01*
X68620917Y-73358655D01*
X68620850Y-73194549D01*
X68620914Y-73006523D01*
X68621012Y-72792925D01*
X68621096Y-72643827D01*
X68621336Y-72444481D01*
X68621733Y-72269872D01*
X68622308Y-72118518D01*
X68623085Y-71988933D01*
X68624084Y-71879632D01*
X68625327Y-71789132D01*
X68626836Y-71715947D01*
X68628634Y-71658593D01*
X68630740Y-71615586D01*
X68633178Y-71585440D01*
X68635970Y-71566672D01*
X68639136Y-71557797D01*
X68642245Y-71553887D01*
X68682889Y-71523561D01*
X68730773Y-71515094D01*
X68777977Y-71528260D01*
G37*
G36*
X73102331Y-76447477D02*
G01*
X73198329Y-76447687D01*
X73322826Y-76448845D01*
X73425516Y-76451287D01*
X73509654Y-76455321D01*
X73578492Y-76461254D01*
X73635284Y-76469392D01*
X73683283Y-76480043D01*
X73725743Y-76493514D01*
X73765916Y-76510112D01*
X73838731Y-76550997D01*
X73910389Y-76615337D01*
X73964531Y-76697910D01*
X74003525Y-76801616D01*
X74005917Y-76810644D01*
X74015931Y-76867761D01*
X74020365Y-76939795D01*
X74019631Y-77032690D01*
X74012848Y-77138695D01*
X73998251Y-77224285D01*
X73973866Y-77294736D01*
X73937704Y-77355787D01*
X73887776Y-77413178D01*
X73850785Y-77447112D01*
X73809780Y-77476910D01*
X73763757Y-77501304D01*
X73709946Y-77520803D01*
X73645575Y-77535914D01*
X73567872Y-77547147D01*
X73474065Y-77555009D01*
X73361382Y-77560009D01*
X73227051Y-77562655D01*
X73068301Y-77563455D01*
X72690568Y-77563559D01*
X72690568Y-77421610D01*
X72690568Y-77279661D01*
X73143167Y-77275158D01*
X73174721Y-77274839D01*
X73300978Y-77273340D01*
X73403712Y-77271401D01*
X73485953Y-77268571D01*
X73550727Y-77264397D01*
X73601064Y-77258429D01*
X73639992Y-77250215D01*
X73670539Y-77239305D01*
X73695735Y-77225246D01*
X73718606Y-77207587D01*
X73742182Y-77185877D01*
X73752271Y-77175230D01*
X73786284Y-77117699D01*
X73804037Y-77047257D01*
X73804292Y-76972002D01*
X73785815Y-76900034D01*
X73758256Y-76847077D01*
X73720030Y-76805345D01*
X73663826Y-76769211D01*
X73654503Y-76764381D01*
X73638389Y-76757399D01*
X73619387Y-76751830D01*
X73594454Y-76747476D01*
X73560549Y-76744141D01*
X73514630Y-76741625D01*
X73453654Y-76739731D01*
X73374581Y-76738262D01*
X73274368Y-76737020D01*
X73149973Y-76735806D01*
X72690568Y-76731580D01*
X72690568Y-76589477D01*
X72690568Y-76447374D01*
X73102331Y-76447477D01*
G37*
G36*
X76613348Y-79776109D02*
G01*
X76658472Y-79779002D01*
X76692619Y-79785821D01*
X76723933Y-79798196D01*
X76760557Y-79817758D01*
X76767976Y-79822045D01*
X76843037Y-79880205D01*
X76895512Y-79951812D01*
X76923959Y-80034949D01*
X76924115Y-80035817D01*
X76929875Y-80089542D01*
X76931896Y-80157710D01*
X76930505Y-80232004D01*
X76926034Y-80304106D01*
X76918811Y-80365700D01*
X76909166Y-80408467D01*
X76886621Y-80459271D01*
X76829611Y-80539794D01*
X76753676Y-80609158D01*
X76663342Y-80665261D01*
X76563139Y-80706003D01*
X76457592Y-80729281D01*
X76351230Y-80732995D01*
X76248580Y-80715044D01*
X76208240Y-80700117D01*
X76130983Y-80651882D01*
X76068607Y-80584845D01*
X76022915Y-80502777D01*
X75995713Y-80409447D01*
X75988804Y-80308624D01*
X75992364Y-80284122D01*
X76243637Y-80284122D01*
X76250068Y-80343067D01*
X76281851Y-80396734D01*
X76285376Y-80400627D01*
X76313759Y-80425882D01*
X76346160Y-80439189D01*
X76394150Y-80445579D01*
X76402601Y-80446179D01*
X76450319Y-80445851D01*
X76492411Y-80435763D01*
X76542751Y-80412859D01*
X76568481Y-80398189D01*
X76615857Y-80363199D01*
X76648244Y-80328185D01*
X76660658Y-80305020D01*
X76676597Y-80243315D01*
X76675926Y-80177649D01*
X76658066Y-80120315D01*
X76623804Y-80083079D01*
X76573828Y-80062909D01*
X76513408Y-80059732D01*
X76447632Y-80073131D01*
X76381585Y-80102689D01*
X76320355Y-80147990D01*
X76304825Y-80163380D01*
X76262057Y-80223144D01*
X76243637Y-80284122D01*
X75992364Y-80284122D01*
X76003993Y-80204078D01*
X76008701Y-80186647D01*
X76055416Y-80070014D01*
X76124226Y-79969037D01*
X76214342Y-79884664D01*
X76324973Y-79817847D01*
X76361235Y-79801201D01*
X76398907Y-79787424D01*
X76436873Y-79779677D01*
X76484104Y-79776269D01*
X76513408Y-79775929D01*
X76549571Y-79775509D01*
X76613348Y-79776109D01*
G37*
G36*
X76613348Y-91809120D02*
G01*
X76658472Y-91812014D01*
X76692619Y-91818833D01*
X76723933Y-91831208D01*
X76760557Y-91850770D01*
X76767976Y-91855056D01*
X76843037Y-91913217D01*
X76895512Y-91984824D01*
X76923959Y-92067961D01*
X76924115Y-92068829D01*
X76929875Y-92122554D01*
X76931896Y-92190722D01*
X76930505Y-92265016D01*
X76926034Y-92337118D01*
X76918811Y-92398712D01*
X76909166Y-92441479D01*
X76886621Y-92492283D01*
X76829611Y-92572806D01*
X76753676Y-92642170D01*
X76663342Y-92698273D01*
X76563139Y-92739015D01*
X76457592Y-92762293D01*
X76351230Y-92766007D01*
X76248580Y-92748056D01*
X76208240Y-92733129D01*
X76130983Y-92684894D01*
X76068607Y-92617857D01*
X76022915Y-92535789D01*
X75995713Y-92442459D01*
X75988804Y-92341636D01*
X75992364Y-92317134D01*
X76243637Y-92317134D01*
X76250068Y-92376079D01*
X76281851Y-92429746D01*
X76285376Y-92433639D01*
X76313759Y-92458894D01*
X76346160Y-92472200D01*
X76394150Y-92478591D01*
X76402601Y-92479191D01*
X76450319Y-92478863D01*
X76492411Y-92468774D01*
X76542751Y-92445871D01*
X76568481Y-92431200D01*
X76615857Y-92396211D01*
X76648244Y-92361197D01*
X76660658Y-92338032D01*
X76676597Y-92276327D01*
X76675926Y-92210661D01*
X76658066Y-92153327D01*
X76623804Y-92116091D01*
X76573828Y-92095921D01*
X76513408Y-92092744D01*
X76447632Y-92106143D01*
X76381585Y-92135701D01*
X76320355Y-92181002D01*
X76304825Y-92196392D01*
X76262057Y-92256156D01*
X76243637Y-92317134D01*
X75992364Y-92317134D01*
X76003993Y-92237090D01*
X76008701Y-92219658D01*
X76055416Y-92103026D01*
X76124226Y-92002048D01*
X76214342Y-91917676D01*
X76324973Y-91850859D01*
X76361235Y-91834213D01*
X76398907Y-91820436D01*
X76436873Y-91812689D01*
X76484104Y-91809281D01*
X76513408Y-91808941D01*
X76549571Y-91808521D01*
X76613348Y-91809120D01*
G37*
G36*
X74024780Y-66284152D02*
G01*
X74077948Y-66314447D01*
X74119829Y-66349687D01*
X74119829Y-66511821D01*
X74119829Y-66673955D01*
X74274531Y-66673955D01*
X74279169Y-66673956D01*
X74346681Y-66674558D01*
X74393231Y-66676872D01*
X74424732Y-66681795D01*
X74447095Y-66690225D01*
X74466233Y-66703059D01*
X74466839Y-66703538D01*
X74496192Y-66732370D01*
X74515363Y-66760910D01*
X74522866Y-66806817D01*
X74510603Y-66859428D01*
X74479945Y-66905359D01*
X74470716Y-66914164D01*
X74454173Y-66925952D01*
X74432690Y-66933732D01*
X74400698Y-66938595D01*
X74352625Y-66941632D01*
X74282901Y-66943932D01*
X74119829Y-66948475D01*
X74119829Y-67104920D01*
X74119693Y-67164387D01*
X74118486Y-67212926D01*
X74114977Y-67245173D01*
X74107936Y-67266998D01*
X74096132Y-67284270D01*
X74078335Y-67302859D01*
X74077187Y-67304005D01*
X74047106Y-67329845D01*
X74019269Y-67339137D01*
X73979670Y-67336683D01*
X73936647Y-67325533D01*
X73891849Y-67293384D01*
X73888045Y-67288857D01*
X73875893Y-67270947D01*
X73868065Y-67249132D01*
X73863629Y-67217584D01*
X73861652Y-67170474D01*
X73861201Y-67101974D01*
X73861201Y-66946195D01*
X73719161Y-66946195D01*
X73703408Y-66946158D01*
X73627173Y-66944209D01*
X73572201Y-66938336D01*
X73533498Y-66927210D01*
X73506073Y-66909505D01*
X73484931Y-66883892D01*
X73476529Y-66869358D01*
X73461884Y-66813545D01*
X73472060Y-66758816D01*
X73506242Y-66711761D01*
X73519592Y-66700214D01*
X73537968Y-66687735D01*
X73559724Y-66680005D01*
X73590820Y-66675887D01*
X73637217Y-66674249D01*
X73704877Y-66673955D01*
X73861201Y-66673955D01*
X73861201Y-66516370D01*
X73861335Y-66458693D01*
X73862507Y-66409142D01*
X73865888Y-66376203D01*
X73872648Y-66354071D01*
X73883958Y-66336938D01*
X73900989Y-66318996D01*
X73919834Y-66302766D01*
X73970970Y-66280287D01*
X74024780Y-66284152D01*
G37*
G36*
X76863181Y-83693057D02*
G01*
X76904185Y-83718028D01*
X76928411Y-83763826D01*
X76929692Y-83772301D01*
X76931696Y-83806718D01*
X76932936Y-83860118D01*
X76933314Y-83927043D01*
X76932729Y-84002037D01*
X76931872Y-84052524D01*
X76929710Y-84124042D01*
X76926209Y-84176696D01*
X76920756Y-84215835D01*
X76912742Y-84246809D01*
X76901555Y-84274968D01*
X76874066Y-84327005D01*
X76813484Y-84402807D01*
X76739047Y-84455230D01*
X76651133Y-84484045D01*
X76550119Y-84489021D01*
X76505931Y-84484588D01*
X76447141Y-84471759D01*
X76389174Y-84448797D01*
X76325201Y-84412803D01*
X76248396Y-84360878D01*
X76196159Y-84325123D01*
X76138423Y-84291677D01*
X76088595Y-84272688D01*
X76039840Y-84265756D01*
X75985324Y-84268479D01*
X75957826Y-84271256D01*
X75921323Y-84271870D01*
X75897657Y-84264995D01*
X75877703Y-84248978D01*
X75847819Y-84206983D01*
X75838791Y-84154654D01*
X75856637Y-84098137D01*
X75859531Y-84092963D01*
X75872800Y-84074470D01*
X75892378Y-84056168D01*
X75921937Y-84035708D01*
X75965144Y-84010745D01*
X76025669Y-83978933D01*
X76107181Y-83937925D01*
X76188608Y-83897866D01*
X76264773Y-83861978D01*
X76323188Y-83837026D01*
X76367180Y-83821894D01*
X76400078Y-83815463D01*
X76425211Y-83816617D01*
X76445907Y-83824238D01*
X76455122Y-83829999D01*
X76488091Y-83867117D01*
X76507961Y-83916684D01*
X76509732Y-83967483D01*
X76491318Y-84013201D01*
X76451380Y-84054763D01*
X76387195Y-84093892D01*
X76333714Y-84120829D01*
X76423171Y-84163523D01*
X76427610Y-84165629D01*
X76496968Y-84193809D01*
X76551099Y-84204354D01*
X76595018Y-84197502D01*
X76633742Y-84173490D01*
X76648092Y-84160321D01*
X76659611Y-84144921D01*
X76667269Y-84123842D01*
X76672287Y-84091702D01*
X76675885Y-84043119D01*
X76679284Y-83972713D01*
X76679990Y-83957851D01*
X76687416Y-83863516D01*
X76699931Y-83792885D01*
X76719112Y-83743035D01*
X76746536Y-83711046D01*
X76783779Y-83693995D01*
X76832419Y-83688960D01*
X76863181Y-83693057D01*
G37*
G36*
X76643559Y-82773435D02*
G01*
X76740357Y-82801540D01*
X76818948Y-82848750D01*
X76878332Y-82914386D01*
X76917508Y-82997767D01*
X76923191Y-83022761D01*
X76930232Y-83084770D01*
X76934613Y-83173138D01*
X76936304Y-83287406D01*
X76936206Y-83368428D01*
X76935052Y-83436107D01*
X76932393Y-83485814D01*
X76927804Y-83522395D01*
X76920864Y-83550696D01*
X76911148Y-83575563D01*
X76908400Y-83581475D01*
X76877658Y-83629040D01*
X76838381Y-83654306D01*
X76783980Y-83661736D01*
X76779511Y-83661711D01*
X76748117Y-83658938D01*
X76724473Y-83649199D01*
X76707328Y-83629119D01*
X76695428Y-83595322D01*
X76687522Y-83544431D01*
X76682357Y-83473070D01*
X76678680Y-83377862D01*
X76676355Y-83313509D01*
X76670921Y-83224860D01*
X76662239Y-83158433D01*
X76648750Y-83111092D01*
X76628894Y-83079705D01*
X76601114Y-83061138D01*
X76563849Y-83052257D01*
X76515541Y-83049928D01*
X76444440Y-83057541D01*
X76371585Y-83082977D01*
X76311434Y-83123164D01*
X76268672Y-83174865D01*
X76247979Y-83234842D01*
X76247040Y-83242993D01*
X76248469Y-83287507D01*
X76265898Y-83317369D01*
X76302969Y-83336133D01*
X76363327Y-83347353D01*
X76403402Y-83353684D01*
X76442986Y-83363710D01*
X76464750Y-83374097D01*
X76468937Y-83380201D01*
X76477928Y-83410424D01*
X76481511Y-83451169D01*
X76479648Y-83484048D01*
X76467386Y-83519732D01*
X76438208Y-83554784D01*
X76438018Y-83554974D01*
X76405288Y-83582391D01*
X76369943Y-83597133D01*
X76319734Y-83604321D01*
X76282621Y-83606498D01*
X76208723Y-83602494D01*
X76149832Y-83584227D01*
X76099282Y-83550055D01*
X76055983Y-83506022D01*
X76018950Y-83446364D01*
X75999016Y-83375778D01*
X75993415Y-83287406D01*
X75994650Y-83248093D01*
X76002667Y-83174657D01*
X76016922Y-83118094D01*
X76055125Y-83042072D01*
X76120181Y-82957360D01*
X76201604Y-82882269D01*
X76293537Y-82822073D01*
X76390125Y-82782043D01*
X76400984Y-82779055D01*
X76480179Y-82766310D01*
X76575720Y-82765947D01*
X76643559Y-82773435D01*
G37*
G36*
X76643559Y-90858965D02*
G01*
X76740357Y-90887071D01*
X76818948Y-90934281D01*
X76878332Y-90999916D01*
X76917508Y-91083298D01*
X76923191Y-91108291D01*
X76930232Y-91170301D01*
X76934613Y-91258668D01*
X76936304Y-91372937D01*
X76936206Y-91453958D01*
X76935052Y-91521637D01*
X76932393Y-91571344D01*
X76927804Y-91607926D01*
X76920864Y-91636227D01*
X76911148Y-91661094D01*
X76908400Y-91667006D01*
X76877658Y-91714571D01*
X76838381Y-91739837D01*
X76783980Y-91747267D01*
X76779511Y-91747242D01*
X76748117Y-91744468D01*
X76724473Y-91734730D01*
X76707328Y-91714650D01*
X76695428Y-91680853D01*
X76687522Y-91629962D01*
X76682357Y-91558600D01*
X76678680Y-91463393D01*
X76676355Y-91399040D01*
X76670921Y-91310391D01*
X76662239Y-91243963D01*
X76648750Y-91196623D01*
X76628894Y-91165236D01*
X76601114Y-91146669D01*
X76563849Y-91137787D01*
X76515541Y-91135459D01*
X76444440Y-91143071D01*
X76371585Y-91168508D01*
X76311434Y-91208695D01*
X76268672Y-91260395D01*
X76247979Y-91320373D01*
X76247040Y-91328524D01*
X76248469Y-91373038D01*
X76265898Y-91402900D01*
X76302969Y-91421664D01*
X76363327Y-91432884D01*
X76403402Y-91439215D01*
X76442986Y-91449241D01*
X76464750Y-91459627D01*
X76468937Y-91465731D01*
X76477928Y-91495955D01*
X76481511Y-91536700D01*
X76479648Y-91569579D01*
X76467386Y-91605262D01*
X76438208Y-91640315D01*
X76438018Y-91640505D01*
X76405288Y-91667922D01*
X76369943Y-91682664D01*
X76319734Y-91689852D01*
X76282621Y-91692029D01*
X76208723Y-91688025D01*
X76149832Y-91669757D01*
X76099282Y-91635585D01*
X76055983Y-91591553D01*
X76018950Y-91531895D01*
X75999016Y-91461309D01*
X75993415Y-91372937D01*
X75994650Y-91333623D01*
X76002667Y-91260188D01*
X76016922Y-91203625D01*
X76055125Y-91127603D01*
X76120181Y-91042890D01*
X76201604Y-90967799D01*
X76293537Y-90907603D01*
X76390125Y-90867574D01*
X76400984Y-90864585D01*
X76480179Y-90851841D01*
X76575720Y-90851477D01*
X76643559Y-90858965D01*
G37*
G36*
X71336792Y-72873604D02*
G01*
X71346490Y-72884597D01*
X71367917Y-72931492D01*
X71366025Y-72981534D01*
X71340607Y-73026481D01*
X71311010Y-73057985D01*
X70277976Y-73057985D01*
X70221127Y-73057993D01*
X70019416Y-73058181D01*
X69843404Y-73058631D01*
X69691879Y-73059360D01*
X69563631Y-73060388D01*
X69457451Y-73061732D01*
X69372129Y-73063409D01*
X69306453Y-73065439D01*
X69259215Y-73067839D01*
X69229204Y-73070626D01*
X69215209Y-73073821D01*
X69214631Y-73074128D01*
X69197852Y-73083657D01*
X69184390Y-73094383D01*
X69173877Y-73109198D01*
X69165945Y-73130995D01*
X69160224Y-73162666D01*
X69156345Y-73207101D01*
X69153941Y-73267194D01*
X69152641Y-73345835D01*
X69152077Y-73445917D01*
X69151880Y-73570330D01*
X69151863Y-73586656D01*
X69151631Y-73704762D01*
X69151118Y-73798985D01*
X69150156Y-73872298D01*
X69148580Y-73927676D01*
X69146224Y-73968092D01*
X69142922Y-73996523D01*
X69138507Y-74015940D01*
X69132814Y-74029320D01*
X69125676Y-74039635D01*
X69089471Y-74064938D01*
X69042565Y-74073381D01*
X68995656Y-74064947D01*
X68959426Y-74039635D01*
X68956670Y-74036075D01*
X68950214Y-74025251D01*
X68945090Y-74010393D01*
X68941147Y-73988600D01*
X68938233Y-73956975D01*
X68936196Y-73912619D01*
X68934885Y-73852633D01*
X68934148Y-73774119D01*
X68933833Y-73674178D01*
X68933788Y-73549912D01*
X68933857Y-73432149D01*
X68934122Y-73331277D01*
X68934772Y-73251540D01*
X68936001Y-73189810D01*
X68938003Y-73142957D01*
X68940970Y-73107853D01*
X68945095Y-73081370D01*
X68950572Y-73060380D01*
X68957594Y-73041753D01*
X68966353Y-73022362D01*
X69001821Y-72964331D01*
X69066525Y-72902186D01*
X69148016Y-72859614D01*
X69157841Y-72857010D01*
X69179187Y-72853835D01*
X69211166Y-72851084D01*
X69255439Y-72848731D01*
X69313663Y-72846746D01*
X69387497Y-72845101D01*
X69478602Y-72843768D01*
X69588635Y-72842719D01*
X69719256Y-72841924D01*
X69872124Y-72841357D01*
X70048897Y-72840989D01*
X70251235Y-72840791D01*
X71303381Y-72840193D01*
X71336792Y-72873604D01*
G37*
G36*
X70011217Y-81933131D02*
G01*
X70035266Y-81960154D01*
X70046645Y-81986606D01*
X70044295Y-82018585D01*
X70030796Y-82056084D01*
X70008310Y-82089503D01*
X70002895Y-82094465D01*
X69993719Y-82100323D01*
X69980278Y-82105137D01*
X69960021Y-82109052D01*
X69930398Y-82112216D01*
X69888858Y-82114773D01*
X69832849Y-82116870D01*
X69759822Y-82118653D01*
X69667224Y-82120269D01*
X69552506Y-82121862D01*
X69413116Y-82123580D01*
X68845177Y-82130386D01*
X68845177Y-82164416D01*
X68845177Y-82198446D01*
X69670686Y-82205252D01*
X69793015Y-82206277D01*
X69946052Y-82207647D01*
X70075404Y-82208978D01*
X70183151Y-82210347D01*
X70271375Y-82211833D01*
X70342157Y-82213514D01*
X70397579Y-82215468D01*
X70439720Y-82217773D01*
X70470664Y-82220507D01*
X70492490Y-82223749D01*
X70507281Y-82227576D01*
X70517117Y-82232067D01*
X70524079Y-82237300D01*
X70543100Y-82260492D01*
X70556385Y-82291749D01*
X70557881Y-82304325D01*
X70551853Y-82361736D01*
X70523394Y-82405215D01*
X70518293Y-82409205D01*
X70509362Y-82413684D01*
X70495875Y-82417467D01*
X70475771Y-82420611D01*
X70446990Y-82423175D01*
X70407470Y-82425218D01*
X70355151Y-82426798D01*
X70287973Y-82427975D01*
X70203874Y-82428806D01*
X70100794Y-82429351D01*
X69976672Y-82429667D01*
X69829448Y-82429814D01*
X69657060Y-82429850D01*
X68817953Y-82429850D01*
X68760289Y-82396822D01*
X68747176Y-82388563D01*
X68701746Y-82351212D01*
X68665043Y-82309562D01*
X68652382Y-82290196D01*
X68636649Y-82256733D01*
X68629272Y-82218148D01*
X68627423Y-82163456D01*
X68628094Y-82124801D01*
X68633031Y-82083108D01*
X68645393Y-82049804D01*
X68668221Y-82013718D01*
X68681564Y-81996698D01*
X68722097Y-81956568D01*
X68763505Y-81927418D01*
X68774898Y-81921763D01*
X68789917Y-81915793D01*
X68808272Y-81910920D01*
X68832615Y-81907010D01*
X68865603Y-81903925D01*
X68909888Y-81901531D01*
X68968125Y-81899690D01*
X69042969Y-81898268D01*
X69137073Y-81897129D01*
X69253092Y-81896136D01*
X69393681Y-81895153D01*
X69969410Y-81891324D01*
X70011217Y-81933131D01*
G37*
G36*
X70843187Y-96704118D02*
G01*
X70965097Y-96704439D01*
X71070618Y-96704945D01*
X71157583Y-96705629D01*
X71223826Y-96706484D01*
X71267179Y-96707502D01*
X71285475Y-96708676D01*
X71311461Y-96719789D01*
X71343326Y-96743219D01*
X71362106Y-96774479D01*
X71370214Y-96822639D01*
X71361748Y-96871577D01*
X71359301Y-96877833D01*
X71354288Y-96888230D01*
X71347106Y-96897243D01*
X71335966Y-96904971D01*
X71319077Y-96911512D01*
X71294650Y-96916966D01*
X71260895Y-96921431D01*
X71216024Y-96925006D01*
X71158245Y-96927791D01*
X71085770Y-96929883D01*
X70996808Y-96931382D01*
X70889571Y-96932387D01*
X70762268Y-96932996D01*
X70613111Y-96933309D01*
X70440308Y-96933424D01*
X70242071Y-96933441D01*
X69207871Y-96933441D01*
X69179659Y-96969306D01*
X69176230Y-96973788D01*
X69169096Y-96985096D01*
X69163480Y-96999468D01*
X69159200Y-97019924D01*
X69156076Y-97049484D01*
X69153927Y-97091167D01*
X69152570Y-97147994D01*
X69151825Y-97222985D01*
X69151511Y-97319160D01*
X69151447Y-97439539D01*
X69151447Y-97873906D01*
X69118036Y-97907318D01*
X69090326Y-97928004D01*
X69042551Y-97940729D01*
X69010924Y-97935152D01*
X68967066Y-97907318D01*
X68933655Y-97873906D01*
X68933954Y-97413883D01*
X68934022Y-97342441D01*
X68934445Y-97222311D01*
X68935640Y-97124860D01*
X68938072Y-97047086D01*
X68942208Y-96985986D01*
X68948511Y-96938556D01*
X68957447Y-96901793D01*
X68969481Y-96872694D01*
X68985078Y-96848257D01*
X69004703Y-96825478D01*
X69028822Y-96801355D01*
X69037121Y-96793148D01*
X69052696Y-96777447D01*
X69067190Y-96763821D01*
X69082488Y-96752116D01*
X69100477Y-96742180D01*
X69123046Y-96733858D01*
X69152080Y-96726997D01*
X69189467Y-96721443D01*
X69237094Y-96717042D01*
X69296847Y-96713641D01*
X69370614Y-96711087D01*
X69460283Y-96709225D01*
X69567739Y-96707902D01*
X69694870Y-96706964D01*
X69843563Y-96706258D01*
X70015705Y-96705630D01*
X70213183Y-96704927D01*
X70234998Y-96704846D01*
X70400794Y-96704348D01*
X70558869Y-96704065D01*
X70707055Y-96703991D01*
X70843187Y-96704118D01*
G37*
G36*
X73344231Y-73090388D02*
G01*
X73461304Y-73094255D01*
X73589351Y-73120934D01*
X73705670Y-73168224D01*
X73807817Y-73234594D01*
X73893349Y-73318512D01*
X73959823Y-73418447D01*
X74004795Y-73532866D01*
X74006677Y-73540202D01*
X74016233Y-73599830D01*
X74021507Y-73674534D01*
X74022347Y-73754082D01*
X74018598Y-73828246D01*
X74010108Y-73886796D01*
X73994777Y-73941481D01*
X73944327Y-74052845D01*
X73873017Y-74149493D01*
X73783111Y-74229951D01*
X73676871Y-74292744D01*
X73556561Y-74336400D01*
X73424444Y-74359444D01*
X73282783Y-74360402D01*
X73198959Y-74350308D01*
X73068353Y-74316062D01*
X72954234Y-74261505D01*
X72857918Y-74188000D01*
X72780718Y-74096912D01*
X72723949Y-73989604D01*
X72688923Y-73867438D01*
X72676956Y-73731779D01*
X72679617Y-73686493D01*
X72910659Y-73686493D01*
X72911744Y-73755329D01*
X72915282Y-73787882D01*
X72940253Y-73876127D01*
X72986508Y-73947454D01*
X73053981Y-74001817D01*
X73142605Y-74039173D01*
X73252314Y-74059479D01*
X73383039Y-74062691D01*
X73486595Y-74053514D01*
X73585005Y-74030177D01*
X73663216Y-73992163D01*
X73723302Y-73938421D01*
X73767334Y-73867899D01*
X73777833Y-73837801D01*
X73788511Y-73777599D01*
X73791809Y-73711064D01*
X73787416Y-73648946D01*
X73775020Y-73601999D01*
X73773436Y-73598600D01*
X73733331Y-73532339D01*
X73679726Y-73480485D01*
X73605770Y-73436329D01*
X73570264Y-73419289D01*
X73537614Y-73406090D01*
X73505668Y-73397917D01*
X73467443Y-73393577D01*
X73415957Y-73391876D01*
X73344231Y-73391621D01*
X73331598Y-73391641D01*
X73260325Y-73392499D01*
X73208518Y-73395251D01*
X73169432Y-73400798D01*
X73136323Y-73410040D01*
X73102445Y-73423875D01*
X73080191Y-73434908D01*
X73011218Y-73483216D01*
X72956268Y-73543641D01*
X72921924Y-73609418D01*
X72917011Y-73628542D01*
X72910659Y-73686493D01*
X72679617Y-73686493D01*
X72682439Y-73638452D01*
X72710164Y-73511024D01*
X72760172Y-73397852D01*
X72831199Y-73300233D01*
X72921983Y-73219464D01*
X73031263Y-73156843D01*
X73157775Y-73113666D01*
X73300257Y-73091231D01*
X73323972Y-73089719D01*
X73344231Y-73090388D01*
G37*
G36*
X73350750Y-80684718D02*
G01*
X73460191Y-80689880D01*
X73586635Y-80716072D01*
X73708469Y-80763343D01*
X73728436Y-80773688D01*
X73825749Y-80841366D01*
X73907560Y-80928010D01*
X73970107Y-81028923D01*
X74009632Y-81139411D01*
X74010649Y-81143934D01*
X74018928Y-81204876D01*
X74022395Y-81280820D01*
X74021178Y-81361293D01*
X74015409Y-81435825D01*
X74005218Y-81493944D01*
X73986837Y-81552612D01*
X73931883Y-81666502D01*
X73856469Y-81762661D01*
X73761139Y-81840597D01*
X73646435Y-81899817D01*
X73512903Y-81939830D01*
X73380726Y-81956839D01*
X73249465Y-81952429D01*
X73124353Y-81927544D01*
X73008846Y-81883506D01*
X72906399Y-81821636D01*
X72820470Y-81743257D01*
X72754514Y-81649691D01*
X72743687Y-81628784D01*
X72700104Y-81511055D01*
X72679214Y-81384559D01*
X72680518Y-81291277D01*
X72908751Y-81291277D01*
X72912983Y-81367925D01*
X72928755Y-81440471D01*
X72954858Y-81498141D01*
X72994501Y-81546959D01*
X73066332Y-81601051D01*
X73157028Y-81637359D01*
X73267418Y-81656181D01*
X73398332Y-81657818D01*
X73467572Y-81651866D01*
X73572422Y-81629336D01*
X73656481Y-81590863D01*
X73721026Y-81535775D01*
X73767334Y-81463398D01*
X73775794Y-81440844D01*
X73788175Y-81379369D01*
X73792232Y-81309760D01*
X73787681Y-81243271D01*
X73774235Y-81191158D01*
X73749673Y-81146236D01*
X73688659Y-81078708D01*
X73605347Y-81025216D01*
X73579224Y-81012862D01*
X73548803Y-81001023D01*
X73517273Y-80993504D01*
X73478106Y-80989328D01*
X73424775Y-80987516D01*
X73350750Y-80987092D01*
X73322217Y-80987123D01*
X73254249Y-80988052D01*
X73204785Y-80990887D01*
X73167327Y-80996468D01*
X73135380Y-81005636D01*
X73102445Y-81019232D01*
X73080194Y-81030304D01*
X73011195Y-81078716D01*
X72956250Y-81139172D01*
X72921924Y-81204916D01*
X72917269Y-81221302D01*
X72908751Y-81291277D01*
X72680518Y-81291277D01*
X72681031Y-81254587D01*
X72705568Y-81126433D01*
X72752840Y-81005388D01*
X72804239Y-80924891D01*
X72883522Y-80843550D01*
X72979572Y-80777874D01*
X73088827Y-80728767D01*
X73207724Y-80697130D01*
X73332699Y-80683867D01*
X73350750Y-80684718D01*
G37*
G36*
X69074178Y-95387250D02*
G01*
X69118036Y-95415083D01*
X69151447Y-95448495D01*
X69151447Y-95882862D01*
X69151455Y-95935670D01*
X69151600Y-96045694D01*
X69152070Y-96132760D01*
X69153045Y-96199889D01*
X69154707Y-96250100D01*
X69157237Y-96286414D01*
X69160816Y-96311850D01*
X69165625Y-96329429D01*
X69171846Y-96342171D01*
X69179659Y-96353095D01*
X69207871Y-96388960D01*
X70242071Y-96388960D01*
X70383052Y-96388989D01*
X70560831Y-96389144D01*
X70714441Y-96389464D01*
X70845673Y-96389981D01*
X70956317Y-96390730D01*
X71048164Y-96391744D01*
X71123004Y-96393057D01*
X71182630Y-96394703D01*
X71228830Y-96396714D01*
X71263397Y-96399125D01*
X71288121Y-96401970D01*
X71304792Y-96405281D01*
X71315202Y-96409092D01*
X71315553Y-96409274D01*
X71344878Y-96428504D01*
X71361093Y-96446525D01*
X71361103Y-96446548D01*
X71366329Y-96471766D01*
X71369129Y-96508065D01*
X71358391Y-96556771D01*
X71325125Y-96593115D01*
X71272276Y-96613442D01*
X71271902Y-96613504D01*
X71250054Y-96614765D01*
X71203309Y-96615859D01*
X71133886Y-96616779D01*
X71044008Y-96617516D01*
X70935895Y-96618060D01*
X70811770Y-96618404D01*
X70673853Y-96618539D01*
X70524367Y-96618457D01*
X70365533Y-96618148D01*
X70199571Y-96617604D01*
X70009573Y-96616846D01*
X69843088Y-96616127D01*
X69700034Y-96615395D01*
X69578504Y-96614590D01*
X69476594Y-96613655D01*
X69392398Y-96612530D01*
X69324012Y-96611155D01*
X69269529Y-96609473D01*
X69227045Y-96607424D01*
X69194655Y-96604949D01*
X69170452Y-96601989D01*
X69152532Y-96598486D01*
X69138990Y-96594380D01*
X69127920Y-96589612D01*
X69117417Y-96584124D01*
X69107847Y-96578651D01*
X69060763Y-96545807D01*
X69019420Y-96509258D01*
X69009801Y-96499145D01*
X68989548Y-96476321D01*
X68973246Y-96453423D01*
X68960467Y-96427433D01*
X68950782Y-96395335D01*
X68943763Y-96354112D01*
X68938982Y-96300749D01*
X68936008Y-96232228D01*
X68934415Y-96145532D01*
X68933774Y-96037646D01*
X68933655Y-95905553D01*
X68933655Y-95448495D01*
X68967066Y-95415083D01*
X68994776Y-95394397D01*
X69042551Y-95381672D01*
X69074178Y-95387250D01*
G37*
G36*
X72921972Y-86846945D02*
G01*
X73349566Y-86846945D01*
X74010933Y-86846945D01*
X74010933Y-86983065D01*
X74010933Y-87119186D01*
X73745498Y-87119186D01*
X73480064Y-87119186D01*
X73481110Y-87251903D01*
X73482061Y-87297954D01*
X73488452Y-87381124D01*
X73501593Y-87443147D01*
X73522502Y-87487840D01*
X73552192Y-87519022D01*
X73557476Y-87522790D01*
X73577754Y-87533683D01*
X73604678Y-87541623D01*
X73643391Y-87547461D01*
X73699037Y-87552051D01*
X73776760Y-87556245D01*
X73794163Y-87557106D01*
X73862941Y-87561261D01*
X73921886Y-87565970D01*
X73965206Y-87570718D01*
X73987112Y-87574987D01*
X73993401Y-87578451D01*
X74002391Y-87590593D01*
X74007723Y-87614219D01*
X74010277Y-87654569D01*
X74010933Y-87716884D01*
X74010933Y-87848862D01*
X73932664Y-87839085D01*
X73913421Y-87837029D01*
X73855601Y-87832842D01*
X73786541Y-87829698D01*
X73717296Y-87828158D01*
X73656023Y-87826434D01*
X73570048Y-87817497D01*
X73503284Y-87799782D01*
X73451183Y-87771874D01*
X73409198Y-87732360D01*
X73366412Y-87681397D01*
X73324551Y-87735990D01*
X73298573Y-87766172D01*
X73239300Y-87812002D01*
X73166448Y-87839866D01*
X73074904Y-87852144D01*
X73030613Y-87853608D01*
X72985432Y-87850824D01*
X72946316Y-87840564D01*
X72901238Y-87820645D01*
X72875762Y-87807122D01*
X72815089Y-87761834D01*
X72767445Y-87701556D01*
X72727582Y-87620231D01*
X72719615Y-87598954D01*
X72712344Y-87573853D01*
X72706759Y-87544335D01*
X72702554Y-87506599D01*
X72699420Y-87456845D01*
X72697049Y-87391270D01*
X72695135Y-87306073D01*
X72694649Y-87276161D01*
X72921972Y-87276161D01*
X72922121Y-87301489D01*
X72926563Y-87394785D01*
X72938378Y-87464823D01*
X72959185Y-87514388D01*
X72990603Y-87546264D01*
X73034251Y-87563233D01*
X73091748Y-87568079D01*
X73154734Y-87559978D01*
X73201273Y-87533909D01*
X73235669Y-87486871D01*
X73241993Y-87466146D01*
X73249312Y-87420564D01*
X73255390Y-87358554D01*
X73259518Y-87286094D01*
X73265948Y-87119186D01*
X73093960Y-87119186D01*
X72921972Y-87119186D01*
X72921972Y-87276161D01*
X72694649Y-87276161D01*
X72693369Y-87197455D01*
X72688199Y-86846945D01*
X72921972Y-86846945D01*
G37*
G36*
X76839257Y-88488106D02*
G01*
X76887878Y-88523300D01*
X76919730Y-88576945D01*
X76920388Y-88578921D01*
X76927682Y-88617379D01*
X76932797Y-88674914D01*
X76935666Y-88744041D01*
X76936222Y-88817278D01*
X76934400Y-88887141D01*
X76930134Y-88946148D01*
X76923357Y-88986814D01*
X76921970Y-88991544D01*
X76892772Y-89045549D01*
X76846656Y-89080502D01*
X76788055Y-89092926D01*
X76752999Y-89089751D01*
X76721517Y-89075023D01*
X76700703Y-89044769D01*
X76688168Y-88995166D01*
X76681524Y-88922388D01*
X76680378Y-88901314D01*
X76677418Y-88853126D01*
X76674852Y-88819629D01*
X76673138Y-88807074D01*
X76668536Y-88808733D01*
X76643131Y-88818651D01*
X76599351Y-88836016D01*
X76541547Y-88859099D01*
X76474068Y-88886172D01*
X76277331Y-88965269D01*
X76268692Y-89061089D01*
X76265103Y-89093597D01*
X76249459Y-89165973D01*
X76223605Y-89216504D01*
X76185396Y-89248404D01*
X76132686Y-89264888D01*
X76098930Y-89265948D01*
X76053524Y-89248240D01*
X76021187Y-89207937D01*
X76003715Y-89146683D01*
X76000291Y-89122561D01*
X75994952Y-89091476D01*
X75991419Y-89079314D01*
X75980968Y-89083245D01*
X75951823Y-89095561D01*
X75911113Y-89113344D01*
X75889458Y-89122456D01*
X75815742Y-89144320D01*
X75757763Y-89144628D01*
X75714647Y-89123251D01*
X75685519Y-89080061D01*
X75684300Y-89077016D01*
X75675000Y-89017559D01*
X75689598Y-88957394D01*
X75726319Y-88904178D01*
X75733634Y-88897641D01*
X75771481Y-88872186D01*
X75823905Y-88844254D01*
X75882291Y-88818573D01*
X75893689Y-88814092D01*
X75944236Y-88793617D01*
X75975119Y-88778407D01*
X75991191Y-88764566D01*
X75997305Y-88748197D01*
X75998312Y-88725402D01*
X76001831Y-88678034D01*
X76021039Y-88609436D01*
X76054491Y-88555516D01*
X76099364Y-88520249D01*
X76152839Y-88507610D01*
X76154065Y-88507614D01*
X76208660Y-88518828D01*
X76246084Y-88551098D01*
X76265417Y-88603636D01*
X76267424Y-88615481D01*
X76273799Y-88645370D01*
X76278594Y-88657342D01*
X76288533Y-88653787D01*
X76320076Y-88641392D01*
X76369137Y-88621698D01*
X76431574Y-88596370D01*
X76503246Y-88567072D01*
X76544582Y-88550407D01*
X76623491Y-88520318D01*
X76691297Y-88496766D01*
X76743424Y-88481293D01*
X76775296Y-88475439D01*
X76779598Y-88475387D01*
X76839257Y-88488106D01*
G37*
G36*
X76657099Y-87288502D02*
G01*
X76750234Y-87309857D01*
X76823851Y-87349071D01*
X76879500Y-87407162D01*
X76918734Y-87485145D01*
X76929353Y-87523406D01*
X76938266Y-87598208D01*
X76936304Y-87678114D01*
X76924372Y-87755289D01*
X76903376Y-87821895D01*
X76874222Y-87870097D01*
X76872588Y-87871919D01*
X76861841Y-87888605D01*
X76867326Y-87904100D01*
X76891756Y-87927247D01*
X76897318Y-87932089D01*
X76913163Y-87948269D01*
X76923327Y-87966903D01*
X76929379Y-87994182D01*
X76932890Y-88036297D01*
X76935429Y-88099439D01*
X76936176Y-88147243D01*
X76930238Y-88241364D01*
X76913006Y-88312225D01*
X76883812Y-88361172D01*
X76841987Y-88389553D01*
X76786862Y-88398714D01*
X76754531Y-88395887D01*
X76722956Y-88381567D01*
X76701660Y-88351678D01*
X76688224Y-88302390D01*
X76680230Y-88229876D01*
X76672079Y-88115374D01*
X76420617Y-88216208D01*
X76337172Y-88249039D01*
X76246715Y-88282086D01*
X76175732Y-88303757D01*
X76121346Y-88314288D01*
X76080678Y-88313914D01*
X76050851Y-88302872D01*
X76028986Y-88281398D01*
X76012207Y-88249729D01*
X76012069Y-88249396D01*
X76001499Y-88190103D01*
X76015523Y-88130951D01*
X76052454Y-88079099D01*
X76092672Y-88040568D01*
X76052857Y-87995222D01*
X76043379Y-87983728D01*
X76005227Y-87913532D01*
X75991768Y-87848123D01*
X76232829Y-87848123D01*
X76248167Y-87892733D01*
X76276776Y-87924073D01*
X76316446Y-87935906D01*
X76317218Y-87935899D01*
X76351018Y-87929558D01*
X76401001Y-87913425D01*
X76460155Y-87890537D01*
X76521470Y-87863932D01*
X76577933Y-87836645D01*
X76622533Y-87811715D01*
X76648258Y-87792178D01*
X76654620Y-87784097D01*
X76674736Y-87738245D01*
X76680549Y-87684822D01*
X76672017Y-87634046D01*
X76649095Y-87596136D01*
X76645261Y-87592855D01*
X76604001Y-87574523D01*
X76548061Y-87568571D01*
X76485949Y-87575075D01*
X76426173Y-87594114D01*
X76390163Y-87613274D01*
X76332289Y-87654364D01*
X76282444Y-87701361D01*
X76249412Y-87746682D01*
X76232972Y-87796482D01*
X76232829Y-87848123D01*
X75991768Y-87848123D01*
X75988594Y-87832698D01*
X75992874Y-87745497D01*
X76017456Y-87656201D01*
X76061732Y-87569079D01*
X76125094Y-87488403D01*
X76147989Y-87465435D01*
X76252153Y-87382347D01*
X76365444Y-87324045D01*
X76486153Y-87291243D01*
X76548061Y-87288017D01*
X76612570Y-87284655D01*
X76657099Y-87288502D01*
G37*
G36*
X76566074Y-89215591D02*
G01*
X76673182Y-89226348D01*
X76760753Y-89255636D01*
X76829743Y-89304109D01*
X76881107Y-89372418D01*
X76915804Y-89461216D01*
X76921236Y-89489025D01*
X76927613Y-89546549D01*
X76932401Y-89619896D01*
X76935523Y-89702928D01*
X76936898Y-89789507D01*
X76936448Y-89873496D01*
X76934093Y-89948758D01*
X76929756Y-90009155D01*
X76923357Y-90048550D01*
X76921970Y-90053280D01*
X76892772Y-90107286D01*
X76846656Y-90142239D01*
X76788055Y-90154662D01*
X76757259Y-90153328D01*
X76732582Y-90147081D01*
X76714173Y-90132735D01*
X76700968Y-90107102D01*
X76691902Y-90066994D01*
X76685909Y-90009224D01*
X76681925Y-89930605D01*
X76678885Y-89827949D01*
X76676885Y-89753902D01*
X76674251Y-89678666D01*
X76671192Y-89623775D01*
X76667279Y-89585341D01*
X76662086Y-89559474D01*
X76655185Y-89542286D01*
X76646149Y-89529887D01*
X76636424Y-89519539D01*
X76617637Y-89503948D01*
X76604017Y-89502936D01*
X76594575Y-89519033D01*
X76588320Y-89554766D01*
X76584264Y-89612664D01*
X76581415Y-89695257D01*
X76576890Y-89793467D01*
X76567766Y-89874702D01*
X76552709Y-89937328D01*
X76530229Y-89985676D01*
X76498834Y-90024080D01*
X76457035Y-90056874D01*
X76452335Y-90059954D01*
X76421289Y-90077557D01*
X76390036Y-90087682D01*
X76349584Y-90092306D01*
X76290943Y-90093408D01*
X76248084Y-90092179D01*
X76173578Y-90080357D01*
X76116106Y-90053360D01*
X76070166Y-90007969D01*
X76030253Y-89940968D01*
X76029261Y-89938943D01*
X76009595Y-89894590D01*
X75998194Y-89854730D01*
X75992980Y-89808817D01*
X75992143Y-89761537D01*
X76231582Y-89761537D01*
X76250384Y-89801056D01*
X76280300Y-89823176D01*
X76314270Y-89823652D01*
X76344619Y-89797722D01*
X76350541Y-89785328D01*
X76358834Y-89750405D01*
X76364227Y-89705109D01*
X76366482Y-89656898D01*
X76365355Y-89613230D01*
X76360607Y-89581560D01*
X76351997Y-89569346D01*
X76345103Y-89571646D01*
X76320989Y-89587548D01*
X76289903Y-89613594D01*
X76288492Y-89614901D01*
X76252166Y-89661199D01*
X76232686Y-89712498D01*
X76231582Y-89761537D01*
X75992143Y-89761537D01*
X75991873Y-89746302D01*
X75998451Y-89655312D01*
X76022605Y-89565437D01*
X76067276Y-89482483D01*
X76135354Y-89399466D01*
X76219693Y-89323494D01*
X76321364Y-89262847D01*
X76351997Y-89253016D01*
X76432616Y-89227144D01*
X76555445Y-89215510D01*
X76566074Y-89215591D01*
G37*
G36*
X71344160Y-74403679D02*
G01*
X71359215Y-74429499D01*
X71370050Y-74481744D01*
X71361796Y-74534152D01*
X71356964Y-74544774D01*
X71347479Y-74557046D01*
X71332252Y-74566933D01*
X71308598Y-74574755D01*
X71273832Y-74580829D01*
X71225269Y-74585474D01*
X71160222Y-74589010D01*
X71076008Y-74591754D01*
X70969941Y-74594025D01*
X70839336Y-74596142D01*
X70383333Y-74602948D01*
X70303934Y-74641904D01*
X70223143Y-74691004D01*
X70137749Y-74762671D01*
X70063385Y-74845461D01*
X70007970Y-74931621D01*
X69961361Y-75023395D01*
X69952814Y-75459742D01*
X69951784Y-75511062D01*
X69948743Y-75639610D01*
X69945027Y-75745219D01*
X69939994Y-75831059D01*
X69933001Y-75900298D01*
X69923405Y-75956105D01*
X69910563Y-76001649D01*
X69893832Y-76040099D01*
X69872570Y-76074624D01*
X69846132Y-76108392D01*
X69813878Y-76144573D01*
X69727267Y-76221993D01*
X69630053Y-76275639D01*
X69522591Y-76304239D01*
X69403605Y-76308304D01*
X69355997Y-76302983D01*
X69248151Y-76273122D01*
X69151492Y-76221468D01*
X69069037Y-76150951D01*
X69003800Y-76064496D01*
X68958799Y-75965032D01*
X68937048Y-75855484D01*
X68934233Y-75810181D01*
X68935886Y-75776557D01*
X68944350Y-75753490D01*
X68961348Y-75732245D01*
X68990186Y-75710249D01*
X69037546Y-75697280D01*
X69084790Y-75705432D01*
X69123235Y-75734580D01*
X69143061Y-75770061D01*
X69151523Y-75806043D01*
X69156053Y-75854050D01*
X69184401Y-75932916D01*
X69237543Y-76003234D01*
X69243364Y-76008909D01*
X69314531Y-76060105D01*
X69392427Y-76087300D01*
X69472616Y-76090270D01*
X69550662Y-76068791D01*
X69622129Y-76022639D01*
X69628721Y-76016846D01*
X69652325Y-75995340D01*
X69671274Y-75974732D01*
X69686141Y-75951898D01*
X69697499Y-75923714D01*
X69705923Y-75887057D01*
X69711986Y-75838801D01*
X69716262Y-75775822D01*
X69719324Y-75694997D01*
X69721746Y-75593201D01*
X69724103Y-75467310D01*
X69726179Y-75357460D01*
X69728405Y-75257970D01*
X69730790Y-75179083D01*
X69733593Y-75117315D01*
X69737071Y-75069179D01*
X69741484Y-75031190D01*
X69747088Y-74999863D01*
X69754142Y-74971710D01*
X69762904Y-74943248D01*
X69773207Y-74913467D01*
X69836778Y-74778237D01*
X69921992Y-74658480D01*
X70027140Y-74555925D01*
X70150510Y-74472304D01*
X70290393Y-74409348D01*
X70396945Y-74371768D01*
X70857530Y-74371656D01*
X71318115Y-74371544D01*
X71344160Y-74403679D01*
G37*
G36*
X76444065Y-78744314D02*
G01*
X76481652Y-78777677D01*
X76489559Y-78787783D01*
X76511990Y-78837505D01*
X76508434Y-78886698D01*
X76479878Y-78933577D01*
X76427307Y-78976352D01*
X76351707Y-79013237D01*
X76345165Y-79015765D01*
X76302298Y-79034626D01*
X76279519Y-79053448D01*
X76271528Y-79079402D01*
X76273021Y-79119660D01*
X76277331Y-79167691D01*
X76359003Y-79105515D01*
X76385980Y-79085408D01*
X76453508Y-79040746D01*
X76512966Y-79012463D01*
X76571725Y-78997579D01*
X76637155Y-78993118D01*
X76674576Y-78994746D01*
X76760987Y-79013706D01*
X76833543Y-79052203D01*
X76888889Y-79108060D01*
X76923672Y-79179099D01*
X76926103Y-79189632D01*
X76931115Y-79232538D01*
X76934361Y-79292478D01*
X76935835Y-79362160D01*
X76935532Y-79434293D01*
X76933449Y-79501585D01*
X76929581Y-79556744D01*
X76923923Y-79592478D01*
X76901836Y-79644173D01*
X76861922Y-79688215D01*
X76810961Y-79710520D01*
X76752854Y-79708440D01*
X76739065Y-79703393D01*
X76711659Y-79678414D01*
X76692973Y-79633770D01*
X76682287Y-79567211D01*
X76678885Y-79476482D01*
X76678754Y-79445459D01*
X76677132Y-79392879D01*
X76672794Y-79358504D01*
X76664663Y-79336119D01*
X76651661Y-79319507D01*
X76613479Y-79295211D01*
X76566631Y-79291699D01*
X76509776Y-79309667D01*
X76441367Y-79349603D01*
X76359859Y-79411999D01*
X76338813Y-79429712D01*
X76303336Y-79462116D01*
X76282495Y-79488184D01*
X76271398Y-79515035D01*
X76265154Y-79549785D01*
X76261765Y-79568923D01*
X76247408Y-79615953D01*
X76228828Y-79651004D01*
X76194933Y-79679447D01*
X76147556Y-79696394D01*
X76097509Y-79698317D01*
X76053104Y-79685004D01*
X76022656Y-79656243D01*
X76014964Y-79629166D01*
X76008149Y-79576427D01*
X76002580Y-79500271D01*
X75998442Y-79402616D01*
X75997082Y-79358132D01*
X75994569Y-79286378D01*
X75991125Y-79235414D01*
X75985254Y-79200956D01*
X75975460Y-79178721D01*
X75960246Y-79164423D01*
X75938116Y-79153780D01*
X75907572Y-79142507D01*
X75876009Y-79124609D01*
X75847400Y-79086593D01*
X75838675Y-79039685D01*
X75850607Y-78990358D01*
X75883970Y-78945083D01*
X75893305Y-78938108D01*
X75928975Y-78918150D01*
X75982310Y-78892521D01*
X76048014Y-78863362D01*
X76120792Y-78832815D01*
X76195351Y-78803020D01*
X76266393Y-78776119D01*
X76328626Y-78754253D01*
X76376753Y-78739563D01*
X76405480Y-78734191D01*
X76444065Y-78744314D01*
G37*
G36*
X73694546Y-71488719D02*
G01*
X73743957Y-71506809D01*
X73828947Y-71552043D01*
X73903379Y-71620989D01*
X73962883Y-71710712D01*
X74005854Y-71819293D01*
X74014730Y-71867720D01*
X74019637Y-71944494D01*
X74019358Y-72043891D01*
X74015348Y-72124735D01*
X74003496Y-72216588D01*
X73982700Y-72291933D01*
X73951208Y-72356587D01*
X73907271Y-72416367D01*
X73869113Y-72455826D01*
X73806528Y-72499343D01*
X73732488Y-72525687D01*
X73640282Y-72537911D01*
X73637407Y-72538081D01*
X73580603Y-72540115D01*
X73539538Y-72536998D01*
X73503376Y-72526927D01*
X73461283Y-72508096D01*
X73453523Y-72504228D01*
X73409956Y-72478804D01*
X73372424Y-72448383D01*
X73339259Y-72409872D01*
X73308792Y-72360183D01*
X73279358Y-72296223D01*
X73249287Y-72214903D01*
X73216912Y-72113130D01*
X73180567Y-71987815D01*
X73156991Y-71917020D01*
X73128226Y-71862160D01*
X73094151Y-71828187D01*
X73052350Y-71811788D01*
X73005509Y-71810259D01*
X72956059Y-71829608D01*
X72919066Y-71870760D01*
X72896255Y-71931617D01*
X72889349Y-72010080D01*
X72891953Y-72050606D01*
X72909147Y-72118089D01*
X72943814Y-72167548D01*
X72997805Y-72202259D01*
X73058092Y-72228927D01*
X73058092Y-72371475D01*
X73058092Y-72514024D01*
X73020659Y-72505316D01*
X72980294Y-72494227D01*
X72883202Y-72450233D01*
X72804249Y-72386495D01*
X72743966Y-72303881D01*
X72702885Y-72203255D01*
X72681538Y-72085486D01*
X72680458Y-71951440D01*
X72683379Y-71916904D01*
X72705959Y-71798341D01*
X72746694Y-71699991D01*
X72805563Y-71621910D01*
X72823904Y-71604919D01*
X72898532Y-71556319D01*
X72982009Y-71527964D01*
X73068972Y-71519899D01*
X73154063Y-71532168D01*
X73231921Y-71564815D01*
X73297185Y-71617883D01*
X73319574Y-71644942D01*
X73355716Y-71701149D01*
X73388811Y-71771430D01*
X73420777Y-71860124D01*
X73453532Y-71971569D01*
X73468102Y-72023195D01*
X73486342Y-72083024D01*
X73502441Y-72130879D01*
X73514080Y-72159565D01*
X73547422Y-72205941D01*
X73598111Y-72241958D01*
X73655827Y-72254877D01*
X73688912Y-72251932D01*
X73742341Y-72229136D01*
X73780504Y-72183969D01*
X73803260Y-72116633D01*
X73810472Y-72027334D01*
X73806382Y-71966712D01*
X73784559Y-71885836D01*
X73743981Y-71824571D01*
X73684711Y-71783036D01*
X73630499Y-71758039D01*
X73630148Y-71618516D01*
X73630257Y-71552703D01*
X73633275Y-71509435D01*
X73642679Y-71486622D01*
X73661945Y-71480853D01*
X73694546Y-71488719D01*
G37*
G36*
X73694546Y-84324839D02*
G01*
X73743957Y-84342929D01*
X73828947Y-84388163D01*
X73903379Y-84457109D01*
X73962883Y-84546832D01*
X74005854Y-84655413D01*
X74014730Y-84703840D01*
X74019637Y-84780614D01*
X74019358Y-84880011D01*
X74015348Y-84960855D01*
X74003496Y-85052708D01*
X73982700Y-85128053D01*
X73951208Y-85192707D01*
X73907271Y-85252488D01*
X73869113Y-85291946D01*
X73806528Y-85335463D01*
X73732488Y-85361807D01*
X73640282Y-85374031D01*
X73637407Y-85374201D01*
X73580603Y-85376235D01*
X73539538Y-85373118D01*
X73503376Y-85363047D01*
X73461283Y-85344216D01*
X73453523Y-85340348D01*
X73409956Y-85314924D01*
X73372424Y-85284503D01*
X73339259Y-85245993D01*
X73308792Y-85196303D01*
X73279358Y-85132343D01*
X73249287Y-85051023D01*
X73216912Y-84949250D01*
X73180567Y-84823935D01*
X73156991Y-84753140D01*
X73128226Y-84698280D01*
X73094151Y-84664307D01*
X73052350Y-84647908D01*
X73005509Y-84646379D01*
X72956059Y-84665728D01*
X72919066Y-84706880D01*
X72896255Y-84767737D01*
X72889349Y-84846200D01*
X72891953Y-84886726D01*
X72909147Y-84954209D01*
X72943814Y-85003668D01*
X72997805Y-85038379D01*
X73058092Y-85065047D01*
X73058092Y-85207595D01*
X73058092Y-85350144D01*
X73020659Y-85341436D01*
X72980294Y-85330347D01*
X72883202Y-85286353D01*
X72804249Y-85222615D01*
X72743966Y-85140001D01*
X72702885Y-85039375D01*
X72681538Y-84921606D01*
X72680458Y-84787560D01*
X72683379Y-84753024D01*
X72705959Y-84634461D01*
X72746694Y-84536111D01*
X72805563Y-84458030D01*
X72823904Y-84441039D01*
X72898532Y-84392439D01*
X72982009Y-84364084D01*
X73068972Y-84356019D01*
X73154063Y-84368288D01*
X73231921Y-84400935D01*
X73297185Y-84454003D01*
X73319574Y-84481062D01*
X73355716Y-84537269D01*
X73388811Y-84607550D01*
X73420777Y-84696244D01*
X73453532Y-84807689D01*
X73468102Y-84859315D01*
X73486342Y-84919144D01*
X73502441Y-84966999D01*
X73514080Y-84995685D01*
X73547422Y-85042061D01*
X73598111Y-85078078D01*
X73655827Y-85090997D01*
X73688912Y-85088052D01*
X73742341Y-85065256D01*
X73780504Y-85020089D01*
X73803260Y-84952753D01*
X73810472Y-84863454D01*
X73806382Y-84802832D01*
X73784559Y-84721956D01*
X73743981Y-84660691D01*
X73684711Y-84619156D01*
X73630499Y-84594159D01*
X73630148Y-84454636D01*
X73630257Y-84388823D01*
X73633275Y-84345555D01*
X73642679Y-84322742D01*
X73661945Y-84316973D01*
X73694546Y-84324839D01*
G37*
G36*
X76854181Y-80790443D02*
G01*
X76900200Y-80808372D01*
X76936156Y-80850858D01*
X76942643Y-80866922D01*
X76946650Y-80913642D01*
X76937479Y-80966230D01*
X76916525Y-81013162D01*
X76906300Y-81026628D01*
X76885962Y-81045597D01*
X76856057Y-81065680D01*
X76813392Y-81088542D01*
X76754773Y-81115851D01*
X76677009Y-81149274D01*
X76576905Y-81190478D01*
X76549385Y-81201759D01*
X76479827Y-81231124D01*
X76417935Y-81258399D01*
X76369596Y-81280952D01*
X76340696Y-81296149D01*
X76329683Y-81303424D01*
X76282292Y-81348956D01*
X76252829Y-81403077D01*
X76243719Y-81459500D01*
X76257392Y-81511935D01*
X76258088Y-81513200D01*
X76272793Y-81529092D01*
X76296195Y-81536034D01*
X76331473Y-81533481D01*
X76381806Y-81520887D01*
X76450374Y-81497708D01*
X76540356Y-81463398D01*
X76628464Y-81429812D01*
X76696480Y-81406988D01*
X76748691Y-81394204D01*
X76789516Y-81390685D01*
X76823374Y-81395659D01*
X76854682Y-81408350D01*
X76867849Y-81415935D01*
X76896116Y-81441124D01*
X76916017Y-81477074D01*
X76928743Y-81527842D01*
X76935486Y-81597483D01*
X76937438Y-81690053D01*
X76937279Y-81723255D01*
X76934720Y-81809633D01*
X76928345Y-81874736D01*
X76917261Y-81922963D01*
X76900578Y-81958713D01*
X76877406Y-81986383D01*
X76856425Y-82001927D01*
X76807863Y-82018013D01*
X76758098Y-82014321D01*
X76716810Y-81990598D01*
X76714735Y-81988475D01*
X76700523Y-81968984D01*
X76691286Y-81942160D01*
X76685469Y-81901372D01*
X76681521Y-81839992D01*
X76675731Y-81718884D01*
X76491319Y-81793841D01*
X76428177Y-81818915D01*
X76345883Y-81848653D01*
X76280621Y-81867302D01*
X76228040Y-81875761D01*
X76183786Y-81874931D01*
X76143506Y-81865709D01*
X76125546Y-81858542D01*
X76070174Y-81819366D01*
X76025535Y-81761798D01*
X75995702Y-81692219D01*
X75984749Y-81617009D01*
X75990499Y-81573386D01*
X76007005Y-81515442D01*
X76030195Y-81457486D01*
X76055961Y-81411383D01*
X76083192Y-81372980D01*
X76046453Y-81334633D01*
X76016794Y-81290865D01*
X76003162Y-81233110D01*
X76011514Y-81174999D01*
X76040706Y-81123185D01*
X76089590Y-81084319D01*
X76115619Y-81071752D01*
X76166669Y-81049068D01*
X76232712Y-81021060D01*
X76309734Y-80989305D01*
X76393723Y-80955379D01*
X76480664Y-80920860D01*
X76566546Y-80887325D01*
X76647354Y-80856351D01*
X76719075Y-80829515D01*
X76777696Y-80808393D01*
X76819203Y-80794564D01*
X76839584Y-80789604D01*
X76854181Y-80790443D01*
G37*
G36*
X72371872Y-68699673D02*
G01*
X72415756Y-68727596D01*
X72444076Y-68771821D01*
X72447705Y-68790480D01*
X72451799Y-68838946D01*
X72455004Y-68913921D01*
X72457307Y-69015001D01*
X72458698Y-69141786D01*
X72459164Y-69293872D01*
X72459230Y-69397701D01*
X72459752Y-69517652D01*
X72461169Y-69615537D01*
X72463919Y-69694330D01*
X72468439Y-69757006D01*
X72475166Y-69806538D01*
X72484537Y-69845901D01*
X72496988Y-69878068D01*
X72512956Y-69906015D01*
X72532880Y-69932716D01*
X72557194Y-69961143D01*
X72581258Y-69985719D01*
X72632090Y-70028113D01*
X72682083Y-70060585D01*
X72751822Y-70097374D01*
X73146570Y-70097374D01*
X73541318Y-70097374D01*
X73618656Y-70059396D01*
X73678588Y-70023944D01*
X73751088Y-69957222D01*
X73809834Y-69868995D01*
X73817810Y-69852954D01*
X73826677Y-69829742D01*
X73833258Y-69801751D01*
X73838084Y-69764490D01*
X73841687Y-69713473D01*
X73844599Y-69644210D01*
X73847350Y-69552214D01*
X73847476Y-69547597D01*
X73850402Y-69454634D01*
X73853649Y-69384757D01*
X73857631Y-69334000D01*
X73862760Y-69298397D01*
X73869449Y-69273982D01*
X73878112Y-69256789D01*
X73881002Y-69252643D01*
X73918504Y-69222153D01*
X73967169Y-69209443D01*
X74018924Y-69213946D01*
X74065697Y-69235095D01*
X74099415Y-69272324D01*
X74106368Y-69294932D01*
X74112954Y-69342878D01*
X74117395Y-69407850D01*
X74119692Y-69484276D01*
X74119849Y-69566583D01*
X74117868Y-69649199D01*
X74113753Y-69726550D01*
X74107506Y-69793065D01*
X74099129Y-69843169D01*
X74094805Y-69860523D01*
X74048654Y-69985891D01*
X73980937Y-70097930D01*
X73894339Y-70194111D01*
X73791547Y-70271902D01*
X73675247Y-70328775D01*
X73548124Y-70362198D01*
X73543210Y-70362938D01*
X73488246Y-70368418D01*
X73413476Y-70372448D01*
X73324122Y-70375063D01*
X73225408Y-70376298D01*
X73122556Y-70376188D01*
X73020790Y-70374768D01*
X72925332Y-70372074D01*
X72841406Y-70368140D01*
X72774234Y-70363002D01*
X72729040Y-70356694D01*
X72708631Y-70352111D01*
X72591229Y-70313359D01*
X72487231Y-70254705D01*
X72389897Y-70172488D01*
X72388592Y-70171193D01*
X72300955Y-70066390D01*
X72238416Y-69951083D01*
X72200900Y-69825134D01*
X72197830Y-69803372D01*
X72193623Y-69745571D01*
X72190693Y-69661430D01*
X72189038Y-69550737D01*
X72188652Y-69413277D01*
X72189531Y-69248836D01*
X72193730Y-68754209D01*
X72231922Y-68721370D01*
X72267259Y-68699830D01*
X72319886Y-68689826D01*
X72371872Y-68699673D01*
G37*
G36*
X70070876Y-82755919D02*
G01*
X70073784Y-82758925D01*
X70099761Y-82804380D01*
X70100630Y-82854738D01*
X70076187Y-82904292D01*
X70048087Y-82940015D01*
X69454919Y-82943561D01*
X69439757Y-82943652D01*
X69298431Y-82944599D01*
X69181713Y-82945634D01*
X69087221Y-82946856D01*
X69012571Y-82948366D01*
X68955380Y-82950264D01*
X68913265Y-82952650D01*
X68883842Y-82955624D01*
X68864728Y-82959286D01*
X68853540Y-82963737D01*
X68847894Y-82969077D01*
X68842000Y-82983539D01*
X68842583Y-83013316D01*
X68845621Y-83017089D01*
X68852880Y-83020473D01*
X68865976Y-83023420D01*
X68886554Y-83025962D01*
X68916260Y-83028126D01*
X68956738Y-83029944D01*
X69009634Y-83031444D01*
X69076593Y-83032657D01*
X69159259Y-83033611D01*
X69259279Y-83034338D01*
X69378297Y-83034866D01*
X69517959Y-83035225D01*
X69679909Y-83035444D01*
X69865792Y-83035554D01*
X70077255Y-83035584D01*
X71303381Y-83035584D01*
X71336792Y-83068996D01*
X71353161Y-83089742D01*
X71369745Y-83136996D01*
X71365566Y-83185317D01*
X71340413Y-83225622D01*
X71338160Y-83227682D01*
X71332358Y-83232167D01*
X71324575Y-83236097D01*
X71313128Y-83239509D01*
X71296334Y-83242440D01*
X71272510Y-83244925D01*
X71239973Y-83247002D01*
X71197041Y-83248708D01*
X71142031Y-83250078D01*
X71073259Y-83251150D01*
X70989043Y-83251961D01*
X70887700Y-83252546D01*
X70767547Y-83252942D01*
X70626902Y-83253187D01*
X70464081Y-83253317D01*
X70277402Y-83253368D01*
X70065182Y-83253376D01*
X69953325Y-83253375D01*
X69754373Y-83253352D01*
X69580042Y-83253269D01*
X69428609Y-83253088D01*
X69298353Y-83252772D01*
X69187550Y-83252281D01*
X69094478Y-83251579D01*
X69017416Y-83250626D01*
X68954641Y-83249384D01*
X68904431Y-83247817D01*
X68865063Y-83245885D01*
X68834815Y-83243550D01*
X68811965Y-83240774D01*
X68794791Y-83237520D01*
X68781570Y-83233749D01*
X68770580Y-83229423D01*
X68760098Y-83224503D01*
X68746394Y-83217276D01*
X68687950Y-83169624D01*
X68646817Y-83106893D01*
X68624175Y-83034932D01*
X68621202Y-82959592D01*
X68639079Y-82886722D01*
X68678985Y-82822170D01*
X68684735Y-82815618D01*
X68704120Y-82794162D01*
X68722911Y-82776309D01*
X68743638Y-82761728D01*
X68768828Y-82750084D01*
X68801011Y-82741047D01*
X68842715Y-82734282D01*
X68896470Y-82729458D01*
X68964805Y-82726243D01*
X69050247Y-82724302D01*
X69155327Y-82723304D01*
X69282574Y-82722917D01*
X69434515Y-82722807D01*
X70037465Y-82722508D01*
X70070876Y-82755919D01*
G37*
G36*
X73271107Y-64864611D02*
G01*
X73379335Y-64866700D01*
X73464826Y-64870414D01*
X73529934Y-64875858D01*
X73577009Y-64883137D01*
X73678211Y-64912855D01*
X73796493Y-64971476D01*
X73900230Y-65051020D01*
X73986896Y-65149031D01*
X74053964Y-65263052D01*
X74098907Y-65390628D01*
X74102817Y-65408703D01*
X74109694Y-65459307D01*
X74114013Y-65526395D01*
X74115954Y-65613521D01*
X74115697Y-65724241D01*
X74113023Y-65979190D01*
X74075590Y-66016590D01*
X74047502Y-66038315D01*
X73994687Y-66055245D01*
X73940474Y-66048008D01*
X73891828Y-66016603D01*
X73854395Y-65979216D01*
X73847588Y-65703836D01*
X73845791Y-65632674D01*
X73843490Y-65556668D01*
X73840802Y-65500195D01*
X73837130Y-65458833D01*
X73831878Y-65428160D01*
X73824449Y-65403754D01*
X73814247Y-65381194D01*
X73800676Y-65356056D01*
X73769332Y-65306501D01*
X73700976Y-65232592D01*
X73612403Y-65173315D01*
X73610027Y-65172050D01*
X73592829Y-65163497D01*
X73575003Y-65156784D01*
X73553225Y-65151688D01*
X73524169Y-65147986D01*
X73484512Y-65145455D01*
X73430928Y-65143875D01*
X73360094Y-65143021D01*
X73268685Y-65142672D01*
X73153376Y-65142605D01*
X72751822Y-65142605D01*
X72682083Y-65179393D01*
X72653804Y-65196496D01*
X72601478Y-65236241D01*
X72557194Y-65278835D01*
X72536366Y-65303010D01*
X72515948Y-65329520D01*
X72499487Y-65356797D01*
X72486557Y-65387781D01*
X72476734Y-65425411D01*
X72469591Y-65472627D01*
X72464701Y-65532368D01*
X72461640Y-65607574D01*
X72459980Y-65701186D01*
X72459297Y-65816141D01*
X72459164Y-65955381D01*
X72459110Y-66050504D01*
X72458664Y-66172496D01*
X72457472Y-66271580D01*
X72455187Y-66350350D01*
X72451461Y-66411397D01*
X72445946Y-66457313D01*
X72438296Y-66490691D01*
X72428163Y-66514122D01*
X72415200Y-66530200D01*
X72399059Y-66541515D01*
X72379393Y-66550660D01*
X72369922Y-66554155D01*
X72314806Y-66561360D01*
X72261029Y-66550188D01*
X72219420Y-66522543D01*
X72213132Y-66514369D01*
X72207660Y-66502756D01*
X72203251Y-66485444D01*
X72199758Y-66459744D01*
X72197036Y-66422964D01*
X72194938Y-66372413D01*
X72193317Y-66305401D01*
X72192028Y-66219238D01*
X72190925Y-66111232D01*
X72189860Y-65978693D01*
X72189182Y-65878696D01*
X72188753Y-65750544D01*
X72189288Y-65644502D01*
X72191090Y-65557515D01*
X72194463Y-65486524D01*
X72199711Y-65428473D01*
X72207138Y-65380306D01*
X72217047Y-65338965D01*
X72229742Y-65301393D01*
X72245526Y-65264535D01*
X72264704Y-65225332D01*
X72266684Y-65221507D01*
X72306531Y-65161142D01*
X72362582Y-65095696D01*
X72427510Y-65032361D01*
X72493987Y-64978327D01*
X72554686Y-64940785D01*
X72588198Y-64925375D01*
X72638845Y-64906054D01*
X72692922Y-64891098D01*
X72754390Y-64880000D01*
X72827210Y-64872252D01*
X72915340Y-64867347D01*
X73022742Y-64864775D01*
X73153376Y-64864031D01*
X73271107Y-64864611D01*
G37*
G36*
X71162440Y-86323837D02*
G01*
X71235313Y-86352180D01*
X71298907Y-86402289D01*
X71348798Y-86472615D01*
X71349175Y-86473353D01*
X71354138Y-86486269D01*
X71358266Y-86505085D01*
X71361632Y-86532171D01*
X71364312Y-86569896D01*
X71366378Y-86620629D01*
X71367906Y-86686739D01*
X71368970Y-86770596D01*
X71369644Y-86874569D01*
X71370002Y-87001026D01*
X71370120Y-87152338D01*
X71370125Y-87278046D01*
X71370038Y-87405467D01*
X71369750Y-87510083D01*
X71369155Y-87594303D01*
X71368146Y-87660535D01*
X71366618Y-87711185D01*
X71364464Y-87748663D01*
X71361579Y-87775375D01*
X71357857Y-87793730D01*
X71353192Y-87806136D01*
X71347477Y-87815000D01*
X71340607Y-87822729D01*
X71313102Y-87843418D01*
X71266113Y-87855615D01*
X71218852Y-87847180D01*
X71180624Y-87818368D01*
X71178360Y-87815446D01*
X71172040Y-87806009D01*
X71166840Y-87794260D01*
X71162649Y-87777710D01*
X71159360Y-87753865D01*
X71156862Y-87720236D01*
X71155048Y-87674330D01*
X71153809Y-87613657D01*
X71153034Y-87535726D01*
X71152616Y-87438044D01*
X71152444Y-87318121D01*
X71152412Y-87173465D01*
X71152410Y-87150468D01*
X71152296Y-87008069D01*
X71151946Y-86890187D01*
X71151276Y-86794464D01*
X71150207Y-86718537D01*
X71148657Y-86660048D01*
X71146545Y-86616635D01*
X71143790Y-86585937D01*
X71140310Y-86565595D01*
X71136025Y-86553248D01*
X71130853Y-86546534D01*
X71113380Y-86536705D01*
X71086614Y-86542938D01*
X71081987Y-86547339D01*
X71077469Y-86556790D01*
X71073664Y-86573134D01*
X71070473Y-86598628D01*
X71067800Y-86635531D01*
X71065545Y-86686104D01*
X71063611Y-86752604D01*
X71061901Y-86837292D01*
X71060315Y-86942425D01*
X71058757Y-87070264D01*
X71057128Y-87223068D01*
X71050322Y-87888902D01*
X71005497Y-87979920D01*
X70950680Y-88069262D01*
X70873679Y-88149206D01*
X70781235Y-88206959D01*
X70674214Y-88241996D01*
X70553483Y-88253792D01*
X70549623Y-88253784D01*
X70443343Y-88245999D01*
X70353825Y-88221833D01*
X70274530Y-88178709D01*
X70198921Y-88114051D01*
X70170670Y-88084249D01*
X70112311Y-88006804D01*
X70073835Y-87924053D01*
X70050600Y-87827010D01*
X70047819Y-87801816D01*
X70044625Y-87749270D01*
X70042035Y-87679194D01*
X70040063Y-87596061D01*
X70038721Y-87504346D01*
X70038023Y-87408523D01*
X70037983Y-87313068D01*
X70038615Y-87222454D01*
X70039930Y-87141157D01*
X70041943Y-87073649D01*
X70044668Y-87024407D01*
X70048117Y-86997905D01*
X70064746Y-86967389D01*
X70093179Y-86938309D01*
X70123328Y-86923339D01*
X70169842Y-86918845D01*
X70213305Y-86931488D01*
X70243645Y-86959830D01*
X70245657Y-86964435D01*
X70250826Y-86988897D01*
X70255268Y-87031616D01*
X70259076Y-87094384D01*
X70262344Y-87178994D01*
X70265165Y-87287241D01*
X70267631Y-87420917D01*
X70274437Y-87851962D01*
X70315878Y-87910949D01*
X70319447Y-87915925D01*
X70378841Y-87976801D01*
X70449011Y-88016324D01*
X70525193Y-88034621D01*
X70602621Y-88031821D01*
X70676531Y-88008051D01*
X70742157Y-87963438D01*
X70794735Y-87898111D01*
X70832530Y-87833816D01*
X70839336Y-87157863D01*
X70846142Y-86481911D01*
X70887767Y-86429621D01*
X70898361Y-86417402D01*
X70942394Y-86377615D01*
X70989338Y-86346704D01*
X71006548Y-86338648D01*
X71084710Y-86318810D01*
X71162440Y-86323837D01*
G37*
G36*
X76896298Y-92838520D02*
G01*
X76929818Y-92873833D01*
X76941840Y-92901568D01*
X76947760Y-92961320D01*
X76926912Y-93020625D01*
X76879584Y-93078305D01*
X76864991Y-93088526D01*
X76826377Y-93109612D01*
X76770991Y-93136505D01*
X76703825Y-93166809D01*
X76629872Y-93198131D01*
X76556914Y-93228376D01*
X76468991Y-93266341D01*
X76401343Y-93298113D01*
X76350781Y-93325468D01*
X76314116Y-93350182D01*
X76288159Y-93374033D01*
X76269723Y-93398796D01*
X76251653Y-93437775D01*
X76243895Y-93487759D01*
X76253327Y-93530414D01*
X76278393Y-93560124D01*
X76317536Y-93571276D01*
X76332391Y-93568395D01*
X76370582Y-93556454D01*
X76425313Y-93536865D01*
X76491731Y-93511383D01*
X76564983Y-93481764D01*
X76618267Y-93460226D01*
X76690135Y-93432887D01*
X76753095Y-93410863D01*
X76801795Y-93396001D01*
X76830879Y-93390144D01*
X76880776Y-93398093D01*
X76920027Y-93425868D01*
X76942790Y-93468726D01*
X76946528Y-93521748D01*
X76928708Y-93580014D01*
X76923539Y-93590091D01*
X76908464Y-93614625D01*
X76889360Y-93636119D01*
X76862670Y-93656723D01*
X76824835Y-93678585D01*
X76772296Y-93703855D01*
X76701497Y-93734683D01*
X76608879Y-93773218D01*
X76541625Y-93801193D01*
X76463588Y-93835092D01*
X76404323Y-93863493D01*
X76359843Y-93888734D01*
X76326158Y-93913153D01*
X76299280Y-93939090D01*
X76275221Y-93968884D01*
X76251474Y-94013649D01*
X76243767Y-94061519D01*
X76253494Y-94102903D01*
X76279181Y-94131992D01*
X76319358Y-94142980D01*
X76325235Y-94142345D01*
X76356886Y-94134043D01*
X76406135Y-94117630D01*
X76467465Y-94095016D01*
X76535359Y-94068114D01*
X76598446Y-94043211D01*
X76689392Y-94012432D01*
X76761691Y-93996481D01*
X76818049Y-93995463D01*
X76861171Y-94009485D01*
X76893764Y-94038651D01*
X76918533Y-94083068D01*
X76919834Y-94086482D01*
X76928000Y-94125194D01*
X76933701Y-94182822D01*
X76936865Y-94252147D01*
X76937419Y-94325950D01*
X76935291Y-94397012D01*
X76930411Y-94458112D01*
X76922706Y-94502033D01*
X76917594Y-94518066D01*
X76888694Y-94571247D01*
X76848950Y-94606583D01*
X76803125Y-94619400D01*
X76791963Y-94619230D01*
X76749319Y-94613105D01*
X76719321Y-94595336D01*
X76699394Y-94562055D01*
X76686965Y-94509390D01*
X76679459Y-94433473D01*
X76672079Y-94322413D01*
X76493340Y-94394222D01*
X76476244Y-94401043D01*
X76407736Y-94427485D01*
X76345616Y-94450146D01*
X76296134Y-94466803D01*
X76265541Y-94475234D01*
X76199256Y-94476830D01*
X76131959Y-94455703D01*
X76073184Y-94414226D01*
X76026607Y-94355960D01*
X75995903Y-94284465D01*
X75984749Y-94203301D01*
X75986687Y-94173568D01*
X76003392Y-94100107D01*
X76033731Y-94024946D01*
X76073457Y-93959743D01*
X76120691Y-93897862D01*
X76068080Y-93845251D01*
X76023819Y-93787321D01*
X75994355Y-93710593D01*
X75988266Y-93627556D01*
X76005795Y-93542697D01*
X76047186Y-93460509D01*
X76094469Y-93390247D01*
X76049780Y-93352939D01*
X76049778Y-93352938D01*
X76021037Y-93324738D01*
X76008099Y-93295845D01*
X76005091Y-93253147D01*
X76005128Y-93247603D01*
X76007369Y-93218053D01*
X76014897Y-93192156D01*
X76030229Y-93168238D01*
X76055883Y-93144627D01*
X76094374Y-93119648D01*
X76148221Y-93091628D01*
X76219940Y-93058893D01*
X76312048Y-93019770D01*
X76427063Y-92972586D01*
X76516213Y-92936590D01*
X76601817Y-92902541D01*
X76677154Y-92873098D01*
X76738497Y-92849700D01*
X76782120Y-92833788D01*
X76804296Y-92826802D01*
X76847364Y-92823749D01*
X76896298Y-92838520D01*
G37*
G36*
X76986238Y-76738844D02*
G01*
X77077127Y-76750667D01*
X77151483Y-76770911D01*
X77187309Y-76786228D01*
X77289292Y-76848420D01*
X77374892Y-76930138D01*
X77441056Y-77028012D01*
X77484729Y-77138671D01*
X77496834Y-77192062D01*
X77504265Y-77262807D01*
X77502926Y-77345941D01*
X77494416Y-77430930D01*
X77467674Y-77544726D01*
X77421838Y-77647679D01*
X77354351Y-77745068D01*
X77262658Y-77842171D01*
X77237422Y-77864920D01*
X77199250Y-77895500D01*
X77155255Y-77926072D01*
X77103255Y-77957706D01*
X77041067Y-77991474D01*
X76966509Y-78028445D01*
X76877398Y-78069691D01*
X76771552Y-78116282D01*
X76646789Y-78169288D01*
X76500925Y-78229781D01*
X76331779Y-78298831D01*
X76229013Y-78340560D01*
X76116163Y-78386408D01*
X76008732Y-78430078D01*
X75910682Y-78469961D01*
X75825975Y-78504443D01*
X75758571Y-78531914D01*
X75712433Y-78550761D01*
X75569507Y-78609292D01*
X75562033Y-78770428D01*
X75560777Y-78795016D01*
X75553730Y-78879015D01*
X75542412Y-78941247D01*
X75525327Y-78986000D01*
X75500976Y-79017564D01*
X75467863Y-79040231D01*
X75447992Y-79048930D01*
X75393817Y-79060060D01*
X75342979Y-79055186D01*
X75305054Y-79034636D01*
X75297472Y-79026096D01*
X75287666Y-79010004D01*
X75279840Y-78987874D01*
X75273819Y-78957060D01*
X75269427Y-78914914D01*
X75266489Y-78858788D01*
X75264830Y-78786034D01*
X75264274Y-78694006D01*
X75264646Y-78580054D01*
X75265771Y-78441533D01*
X75266681Y-78352127D01*
X75268061Y-78244935D01*
X75269683Y-78159908D01*
X75271719Y-78094068D01*
X75274340Y-78044432D01*
X75277717Y-78008020D01*
X75282021Y-77981853D01*
X75287423Y-77962949D01*
X75294094Y-77948328D01*
X75313338Y-77920349D01*
X75359161Y-77883148D01*
X75412918Y-77865584D01*
X75467919Y-77869234D01*
X75517473Y-77895676D01*
X75532422Y-77909461D01*
X75543631Y-77924836D01*
X75551056Y-77946082D01*
X75555882Y-77978532D01*
X75559292Y-78027521D01*
X75562471Y-78098383D01*
X75569507Y-78268436D01*
X76148017Y-78033844D01*
X76221939Y-78003863D01*
X76361667Y-77947132D01*
X76479567Y-77899106D01*
X76577959Y-77858766D01*
X76659165Y-77825092D01*
X76725503Y-77797065D01*
X76779296Y-77773666D01*
X76822862Y-77753875D01*
X76858522Y-77736672D01*
X76888597Y-77721039D01*
X76915407Y-77705955D01*
X76941273Y-77690401D01*
X76968513Y-77673359D01*
X77011701Y-77644410D01*
X77094405Y-77574682D01*
X77151819Y-77500963D01*
X77185284Y-77421249D01*
X77196142Y-77333541D01*
X77190735Y-77277792D01*
X77162831Y-77206894D01*
X77109870Y-77145350D01*
X77094624Y-77132841D01*
X77028072Y-77095794D01*
X76948547Y-77077881D01*
X76851888Y-77078018D01*
X76744099Y-77098524D01*
X76639051Y-77144974D01*
X76543760Y-77216840D01*
X76510510Y-77249870D01*
X76440884Y-77337392D01*
X76388254Y-77436198D01*
X76350480Y-77550889D01*
X76325421Y-77686067D01*
X76324000Y-77696699D01*
X76311962Y-77775038D01*
X76299196Y-77831561D01*
X76283899Y-77871093D01*
X76264266Y-77898456D01*
X76238495Y-77918473D01*
X76229752Y-77923534D01*
X76170500Y-77943511D01*
X76115088Y-77937600D01*
X76066402Y-77906010D01*
X76060937Y-77900364D01*
X76027308Y-77852438D01*
X76008153Y-77793565D01*
X76002554Y-77719204D01*
X76009595Y-77624813D01*
X76038278Y-77474172D01*
X76089587Y-77321963D01*
X76160252Y-77182350D01*
X76248415Y-77057560D01*
X76352216Y-76949821D01*
X76469797Y-76861359D01*
X76599298Y-76794402D01*
X76738860Y-76751177D01*
X76792866Y-76742284D01*
X76888318Y-76735898D01*
X76986238Y-76738844D01*
G37*
G36*
X70866560Y-65923185D02*
G01*
X70866560Y-66129475D01*
X71390622Y-66129475D01*
X71914684Y-66129475D01*
X71914684Y-66646731D01*
X71914684Y-67163987D01*
X71152412Y-67163987D01*
X70390139Y-67163987D01*
X70390139Y-67009307D01*
X70388068Y-66910806D01*
X70378719Y-66806292D01*
X70360467Y-66719728D01*
X70331823Y-66646337D01*
X70291295Y-66581346D01*
X70237393Y-66519978D01*
X70184706Y-66472921D01*
X70100994Y-66421272D01*
X70008078Y-66391843D01*
X69900107Y-66382244D01*
X69845360Y-66383027D01*
X69795329Y-66387847D01*
X69752831Y-66398764D01*
X69707155Y-66417747D01*
X69608378Y-66477751D01*
X69524785Y-66559111D01*
X69461119Y-66658388D01*
X69455068Y-66670802D01*
X69434812Y-66716929D01*
X69423273Y-66757204D01*
X69418085Y-66802637D01*
X69416881Y-66864237D01*
X69418052Y-66922714D01*
X69423378Y-66971764D01*
X69434985Y-67014502D01*
X69454988Y-67061897D01*
X69464732Y-67081570D01*
X69527229Y-67174211D01*
X69607973Y-67252001D01*
X69701231Y-67309183D01*
X69708279Y-67312410D01*
X69741232Y-67326410D01*
X69772103Y-67336309D01*
X69806754Y-67342974D01*
X69851044Y-67347273D01*
X69910835Y-67350075D01*
X69991988Y-67352247D01*
X70199571Y-67356999D01*
X70199571Y-67456413D01*
X70199571Y-67555826D01*
X69991988Y-67561027D01*
X69989153Y-67561098D01*
X69908196Y-67563509D01*
X69848517Y-67566579D01*
X69804345Y-67571140D01*
X69769908Y-67578026D01*
X69739435Y-67588068D01*
X69707155Y-67602098D01*
X69608295Y-67662075D01*
X69524768Y-67743373D01*
X69461119Y-67842633D01*
X69455068Y-67855046D01*
X69434812Y-67901173D01*
X69423273Y-67941448D01*
X69418085Y-67986881D01*
X69416881Y-68048481D01*
X69417867Y-68102705D01*
X69422874Y-68153153D01*
X69433947Y-68195921D01*
X69453095Y-68241720D01*
X69513193Y-68340360D01*
X69594677Y-68424071D01*
X69693972Y-68487756D01*
X69706924Y-68494066D01*
X69752848Y-68514191D01*
X69793041Y-68525651D01*
X69838470Y-68530800D01*
X69900107Y-68531994D01*
X69917868Y-68531937D01*
X69974270Y-68529976D01*
X70017297Y-68523460D01*
X70057958Y-68510012D01*
X70107260Y-68487254D01*
X70109717Y-68486037D01*
X70207145Y-68422963D01*
X70285099Y-68341471D01*
X70342014Y-68243630D01*
X70376325Y-68131509D01*
X70380486Y-68102354D01*
X70385469Y-68044308D01*
X70388877Y-67975057D01*
X70390139Y-67903984D01*
X70390139Y-67749303D01*
X71152412Y-67749303D01*
X71914684Y-67749303D01*
X71914684Y-68047222D01*
X71914684Y-68345141D01*
X71850968Y-68354695D01*
X71779000Y-68368123D01*
X71650997Y-68405328D01*
X71520158Y-68460837D01*
X71383854Y-68536006D01*
X71239461Y-68632192D01*
X71084352Y-68750752D01*
X71011465Y-68801284D01*
X70899724Y-68858930D01*
X70768631Y-68909245D01*
X70622339Y-68950679D01*
X70465005Y-68981684D01*
X70417002Y-68988256D01*
X70285273Y-68998638D01*
X70145432Y-69000351D01*
X70006054Y-68993700D01*
X69875713Y-68978994D01*
X69762985Y-68956540D01*
X69626537Y-68915970D01*
X69454483Y-68846672D01*
X69299777Y-68760525D01*
X69160658Y-68655944D01*
X69035364Y-68531341D01*
X68922135Y-68385131D01*
X68819208Y-68215727D01*
X68724823Y-68021544D01*
X68682463Y-67911688D01*
X68634920Y-67728322D01*
X68612460Y-67537929D01*
X68615144Y-67342846D01*
X68643034Y-67145409D01*
X68696194Y-66947954D01*
X68770712Y-66761279D01*
X68870705Y-66578924D01*
X68991697Y-66413292D01*
X69133216Y-66264676D01*
X69294790Y-66133371D01*
X69475947Y-66019670D01*
X69676217Y-65923866D01*
X69895126Y-65846255D01*
X70132204Y-65787129D01*
X70386978Y-65746783D01*
X70658976Y-65725510D01*
X70866560Y-65716895D01*
X70866560Y-65923185D01*
G37*
G36*
X69475080Y-86209097D02*
G01*
X69516090Y-86228800D01*
X69539044Y-86263286D01*
X69546195Y-86313674D01*
X69544758Y-86336931D01*
X69532186Y-86372846D01*
X69503613Y-86398036D01*
X69455356Y-86415057D01*
X69383730Y-86426468D01*
X69330288Y-86434296D01*
X69213497Y-86467499D01*
X69110438Y-86522504D01*
X69017105Y-86601221D01*
X68947096Y-86685232D01*
X68887665Y-86789069D01*
X68851783Y-86896988D01*
X68849174Y-86916948D01*
X68846105Y-86966838D01*
X68843713Y-87040814D01*
X68842028Y-87137055D01*
X68841078Y-87253740D01*
X68840893Y-87389048D01*
X68841502Y-87541158D01*
X68845177Y-88119668D01*
X68882135Y-88123929D01*
X68889531Y-88124610D01*
X68914787Y-88119718D01*
X68926389Y-88096705D01*
X68927380Y-88087412D01*
X68929018Y-88052135D01*
X68930656Y-87994427D01*
X68932244Y-87917249D01*
X68933730Y-87823566D01*
X68935065Y-87716337D01*
X68936196Y-87598527D01*
X68937073Y-87473098D01*
X68940461Y-86880975D01*
X68978413Y-86803692D01*
X68984951Y-86791057D01*
X69036223Y-86716231D01*
X69103649Y-86645939D01*
X69179396Y-86587408D01*
X69255633Y-86547866D01*
X69301214Y-86534264D01*
X69388158Y-86520427D01*
X69479105Y-86517746D01*
X69560764Y-86527122D01*
X69647438Y-86556454D01*
X69738556Y-86611660D01*
X69818888Y-86686647D01*
X69884407Y-86777571D01*
X69931086Y-86880588D01*
X69934318Y-86901928D01*
X69937849Y-86947670D01*
X69941402Y-87014063D01*
X69944840Y-87097749D01*
X69948026Y-87195371D01*
X69950822Y-87303572D01*
X69953092Y-87418993D01*
X69961361Y-87916175D01*
X70005846Y-88006478D01*
X70057532Y-88093358D01*
X70140842Y-88188122D01*
X70241358Y-88262886D01*
X70356934Y-88316129D01*
X70485423Y-88346329D01*
X70530393Y-88352911D01*
X70581844Y-88363379D01*
X70615159Y-88376206D01*
X70635849Y-88393822D01*
X70649427Y-88418659D01*
X70660079Y-88457728D01*
X70652991Y-88496490D01*
X70622591Y-88535881D01*
X70602044Y-88553151D01*
X70565664Y-88569945D01*
X70518677Y-88575713D01*
X70456157Y-88570847D01*
X70373183Y-88555739D01*
X70355338Y-88551744D01*
X70217961Y-88505808D01*
X70092432Y-88436663D01*
X69980970Y-88346407D01*
X69885794Y-88237135D01*
X69809124Y-88110946D01*
X69753180Y-87969936D01*
X69750002Y-87957950D01*
X69744561Y-87927660D01*
X69739941Y-87885814D01*
X69736006Y-87829800D01*
X69732622Y-87757007D01*
X69729655Y-87664825D01*
X69726970Y-87550640D01*
X69724433Y-87411844D01*
X69716345Y-86921811D01*
X69679095Y-86867363D01*
X69666831Y-86850301D01*
X69609213Y-86791317D01*
X69541413Y-86755701D01*
X69458384Y-86740554D01*
X69453295Y-86740260D01*
X69368358Y-86746233D01*
X69295717Y-86775072D01*
X69230438Y-86828684D01*
X69214381Y-86845911D01*
X69198816Y-86864762D01*
X69186055Y-86885081D01*
X69175820Y-86909444D01*
X69167833Y-86940426D01*
X69161814Y-86980604D01*
X69157486Y-87032552D01*
X69154569Y-87098846D01*
X69152785Y-87182063D01*
X69151856Y-87284776D01*
X69151503Y-87409563D01*
X69151447Y-87558998D01*
X69151447Y-88149416D01*
X69119763Y-88209408D01*
X69111980Y-88223077D01*
X69060453Y-88283296D01*
X68994087Y-88324930D01*
X68918625Y-88346190D01*
X68839806Y-88345288D01*
X68763371Y-88320435D01*
X68711760Y-88289015D01*
X68671744Y-88247899D01*
X68641516Y-88191070D01*
X68638524Y-88180039D01*
X68633371Y-88139959D01*
X68628981Y-88077861D01*
X68625357Y-87997163D01*
X68622497Y-87901280D01*
X68620401Y-87793626D01*
X68619070Y-87677617D01*
X68618504Y-87556670D01*
X68618703Y-87434198D01*
X68619666Y-87313618D01*
X68621394Y-87198345D01*
X68623887Y-87091795D01*
X68627145Y-86997382D01*
X68631167Y-86918523D01*
X68635954Y-86858632D01*
X68641506Y-86821125D01*
X68684828Y-86691849D01*
X68752148Y-86569641D01*
X68839735Y-86460745D01*
X68944724Y-86367691D01*
X69064250Y-86293005D01*
X69195448Y-86239216D01*
X69335453Y-86208851D01*
X69413762Y-86203057D01*
X69475080Y-86209097D01*
G37*
G36*
X70031038Y-76832770D02*
G01*
X70100742Y-76848526D01*
X70156439Y-76878060D01*
X70204142Y-76923620D01*
X70243116Y-76985173D01*
X70263701Y-77058114D01*
X70262434Y-77131786D01*
X70241344Y-77201868D01*
X70202460Y-77264038D01*
X70147812Y-77313973D01*
X70079427Y-77347352D01*
X69999337Y-77359853D01*
X69992287Y-77359940D01*
X69860414Y-77373051D01*
X69726073Y-77406130D01*
X69600826Y-77456378D01*
X69496315Y-77519056D01*
X69388650Y-77608653D01*
X69294068Y-77714412D01*
X69216080Y-77831720D01*
X69158197Y-77955968D01*
X69123931Y-78082546D01*
X69111991Y-78189988D01*
X69116267Y-78342800D01*
X69144877Y-78489814D01*
X69196486Y-78628366D01*
X69269758Y-78755788D01*
X69363355Y-78869416D01*
X69475943Y-78966584D01*
X69606185Y-79044626D01*
X69679430Y-79077197D01*
X69752072Y-79101117D01*
X69830987Y-79117384D01*
X69926606Y-79128736D01*
X69945950Y-79130563D01*
X69997686Y-79136905D01*
X70031367Y-79145022D01*
X70054085Y-79157188D01*
X70072935Y-79175680D01*
X70098663Y-79218695D01*
X70100135Y-79264749D01*
X70074635Y-79312696D01*
X70044983Y-79350393D01*
X69907888Y-79343381D01*
X69819506Y-79334789D01*
X69662492Y-79299421D01*
X69512316Y-79240414D01*
X69372028Y-79159968D01*
X69244679Y-79060283D01*
X69133319Y-78943557D01*
X69041000Y-78811991D01*
X68970772Y-78667784D01*
X68965180Y-78653170D01*
X68923660Y-78522070D01*
X68900432Y-78393278D01*
X68893055Y-78253794D01*
X68893300Y-78226441D01*
X68909480Y-78051149D01*
X68950468Y-77885943D01*
X69015580Y-77732174D01*
X69104132Y-77591193D01*
X69215440Y-77464351D01*
X69348821Y-77353001D01*
X69353719Y-77349512D01*
X69477480Y-77272180D01*
X69604603Y-77214892D01*
X69742063Y-77175065D01*
X69896836Y-77150117D01*
X69938969Y-77145225D01*
X69991390Y-77137715D01*
X70023904Y-77130134D01*
X70041072Y-77121263D01*
X70047455Y-77109885D01*
X70048591Y-77092643D01*
X70036203Y-77067055D01*
X70003447Y-77051913D01*
X69949050Y-77047019D01*
X69871744Y-77052178D01*
X69770257Y-77067195D01*
X69615634Y-77106004D01*
X69458560Y-77171009D01*
X69312246Y-77258058D01*
X69179210Y-77364809D01*
X69061969Y-77488918D01*
X68963039Y-77628044D01*
X68884940Y-77779844D01*
X68830187Y-77941976D01*
X68826902Y-77955336D01*
X68802561Y-78102463D01*
X68795796Y-78258998D01*
X68806131Y-78417024D01*
X68833089Y-78568622D01*
X68876193Y-78705875D01*
X68914254Y-78788878D01*
X68997347Y-78924653D01*
X69101084Y-79052619D01*
X69221358Y-79168521D01*
X69354062Y-79268102D01*
X69495087Y-79347105D01*
X69585640Y-79385614D01*
X69676626Y-79414542D01*
X69771278Y-79433312D01*
X69877250Y-79443420D01*
X70002197Y-79446367D01*
X70061282Y-79446098D01*
X70130561Y-79444576D01*
X70184571Y-79440997D01*
X70230440Y-79434558D01*
X70275295Y-79424458D01*
X70326265Y-79409893D01*
X70343094Y-79404670D01*
X70408241Y-79382455D01*
X70469961Y-79358751D01*
X70516833Y-79337874D01*
X70544817Y-79323243D01*
X70690092Y-79231039D01*
X70822355Y-79119614D01*
X70938779Y-78992405D01*
X71036536Y-78852848D01*
X71112801Y-78704379D01*
X71164744Y-78550433D01*
X71169369Y-78528813D01*
X71178174Y-78474388D01*
X71186545Y-78408089D01*
X71193157Y-78339726D01*
X71193425Y-78336387D01*
X71199128Y-78272524D01*
X71205048Y-78229578D01*
X71212826Y-78201541D01*
X71224099Y-78182407D01*
X71240506Y-78166170D01*
X71241951Y-78164948D01*
X71275998Y-78143941D01*
X71307873Y-78135263D01*
X71322808Y-78137077D01*
X71362648Y-78155168D01*
X71396877Y-78185838D01*
X71414866Y-78220609D01*
X71414971Y-78221182D01*
X71417628Y-78256523D01*
X71416307Y-78298607D01*
X71413568Y-78330112D01*
X71409119Y-78382138D01*
X71404418Y-78437798D01*
X71395899Y-78508991D01*
X71357981Y-78672110D01*
X71296056Y-78833373D01*
X71212221Y-78989185D01*
X71108572Y-79135953D01*
X70987204Y-79270082D01*
X70850215Y-79387980D01*
X70726246Y-79472816D01*
X70572580Y-79554105D01*
X70411541Y-79612873D01*
X70238753Y-79650656D01*
X70049839Y-79668993D01*
X69931859Y-79669716D01*
X69739022Y-79650051D01*
X69553751Y-79605022D01*
X69377812Y-79535532D01*
X69212971Y-79442486D01*
X69060996Y-79326785D01*
X68923652Y-79189335D01*
X68802707Y-79031039D01*
X68756836Y-78957137D01*
X68673260Y-78785953D01*
X68613949Y-78605328D01*
X68579308Y-78418015D01*
X68569744Y-78226767D01*
X68585662Y-78034337D01*
X68627468Y-77843476D01*
X68671497Y-77714171D01*
X68745367Y-77558759D01*
X68840614Y-77413492D01*
X68960159Y-77273360D01*
X69088841Y-77152218D01*
X69244860Y-77037360D01*
X69410364Y-76946932D01*
X69583954Y-76881561D01*
X69764231Y-76841878D01*
X69949795Y-76828510D01*
X70031038Y-76832770D01*
G37*
G36*
X69520174Y-74403679D02*
G01*
X69537519Y-74434889D01*
X69546195Y-74474028D01*
X69545440Y-74500006D01*
X69540468Y-74529655D01*
X69528334Y-74552522D01*
X69506175Y-74569481D01*
X69471124Y-74581403D01*
X69420319Y-74589158D01*
X69350892Y-74593619D01*
X69259980Y-74595656D01*
X69144717Y-74596142D01*
X68837171Y-74596142D01*
X68841174Y-75266533D01*
X68841231Y-75276140D01*
X68842158Y-75426970D01*
X68843058Y-75553226D01*
X68844050Y-75657414D01*
X68845253Y-75742037D01*
X68846788Y-75809600D01*
X68848772Y-75862607D01*
X68851325Y-75903563D01*
X68854565Y-75934972D01*
X68858614Y-75959337D01*
X68863588Y-75979165D01*
X68869608Y-75996958D01*
X68876793Y-76015221D01*
X68891273Y-76047788D01*
X68953023Y-76148348D01*
X69033843Y-76238965D01*
X69127982Y-76313899D01*
X69229688Y-76367409D01*
X69267482Y-76380695D01*
X69314618Y-76391454D01*
X69370417Y-76397046D01*
X69444105Y-76398821D01*
X69448205Y-76398836D01*
X69511390Y-76398343D01*
X69557208Y-76395118D01*
X69595001Y-76387257D01*
X69634110Y-76372861D01*
X69683877Y-76350029D01*
X69720280Y-76331309D01*
X69826844Y-76257681D01*
X69915597Y-76165705D01*
X69983178Y-76058654D01*
X69986404Y-76052082D01*
X70003369Y-76015685D01*
X70015324Y-75983519D01*
X70023434Y-75949293D01*
X70028861Y-75906720D01*
X70032768Y-75849512D01*
X70036319Y-75771380D01*
X70038714Y-75719168D01*
X70043891Y-75646146D01*
X70051709Y-75594007D01*
X70063838Y-75558707D01*
X70081949Y-75536199D01*
X70107709Y-75522438D01*
X70142791Y-75513377D01*
X70150570Y-75512023D01*
X70161393Y-75511780D01*
X70173633Y-75514923D01*
X70189073Y-75523038D01*
X70209496Y-75537712D01*
X70236685Y-75560532D01*
X70272424Y-75593084D01*
X70318496Y-75636954D01*
X70376683Y-75693730D01*
X70448770Y-75764998D01*
X70536539Y-75852345D01*
X70641773Y-75957357D01*
X70752710Y-76067738D01*
X70850411Y-76164059D01*
X70931228Y-76242612D01*
X70996174Y-76304343D01*
X71046260Y-76350198D01*
X71082499Y-76381122D01*
X71105901Y-76398062D01*
X71117479Y-76401962D01*
X71124040Y-76399260D01*
X71139079Y-76389795D01*
X71145241Y-76376853D01*
X71141000Y-76358229D01*
X71124828Y-76331714D01*
X71095197Y-76295102D01*
X71050580Y-76246185D01*
X70989448Y-76182756D01*
X70910275Y-76102609D01*
X70875480Y-76067392D01*
X70803902Y-75993408D01*
X70744137Y-75929409D01*
X70698161Y-75877590D01*
X70667951Y-75840150D01*
X70655481Y-75819285D01*
X70653627Y-75796961D01*
X70662952Y-75754465D01*
X70683635Y-75716164D01*
X70710631Y-75693557D01*
X70720066Y-75690137D01*
X70741531Y-75685027D01*
X70763086Y-75685979D01*
X70787478Y-75694869D01*
X70817452Y-75713572D01*
X70855754Y-75743963D01*
X70905131Y-75787917D01*
X70968327Y-75847309D01*
X71048089Y-75924014D01*
X71098470Y-75973111D01*
X71165602Y-76039793D01*
X71225799Y-76101013D01*
X71275856Y-76153453D01*
X71312568Y-76193795D01*
X71332732Y-76218721D01*
X71348152Y-76245654D01*
X71369932Y-76318670D01*
X71369515Y-76395852D01*
X71347549Y-76469938D01*
X71304681Y-76533664D01*
X71266767Y-76567679D01*
X71194244Y-76606010D01*
X71113502Y-76618587D01*
X71025771Y-76605096D01*
X71015556Y-76601911D01*
X70995941Y-76594171D01*
X70975148Y-76582844D01*
X70950936Y-76565953D01*
X70921064Y-76541524D01*
X70883291Y-76507580D01*
X70835376Y-76462147D01*
X70775077Y-76403248D01*
X70700153Y-76328907D01*
X70608363Y-76237150D01*
X70261689Y-75889946D01*
X70245568Y-75967883D01*
X70213621Y-76081891D01*
X70154334Y-76211160D01*
X70075864Y-76325108D01*
X69980820Y-76422475D01*
X69871814Y-76502005D01*
X69751457Y-76562437D01*
X69622360Y-76602515D01*
X69487134Y-76620979D01*
X69348389Y-76616571D01*
X69208737Y-76588032D01*
X69070789Y-76534105D01*
X69032258Y-76513143D01*
X68938716Y-76447264D01*
X68849299Y-76365075D01*
X68771308Y-76273768D01*
X68712038Y-76180537D01*
X68705105Y-76167097D01*
X68687363Y-76131679D01*
X68672309Y-76098382D01*
X68659721Y-76064763D01*
X68649378Y-76028374D01*
X68641059Y-75986770D01*
X68634541Y-75937506D01*
X68629605Y-75878137D01*
X68626028Y-75806217D01*
X68623588Y-75719300D01*
X68622065Y-75614941D01*
X68621237Y-75490694D01*
X68620883Y-75344115D01*
X68620780Y-75172757D01*
X68620773Y-75142664D01*
X68620781Y-74986627D01*
X68620929Y-74855194D01*
X68621293Y-74746136D01*
X68621947Y-74657224D01*
X68622966Y-74586227D01*
X68624424Y-74530919D01*
X68626397Y-74489069D01*
X68628960Y-74458448D01*
X68632186Y-74436828D01*
X68636152Y-74421979D01*
X68640932Y-74411672D01*
X68646600Y-74403679D01*
X68672622Y-74371544D01*
X69083387Y-74371544D01*
X69494152Y-74371544D01*
X69520174Y-74403679D01*
G37*
G36*
X71336792Y-79924623D02*
G01*
X71351125Y-79942017D01*
X71369338Y-79989032D01*
X71365408Y-80037489D01*
X71339201Y-80078936D01*
X71308198Y-80108061D01*
X70226419Y-80111935D01*
X69144641Y-80115809D01*
X69076581Y-80152066D01*
X69016396Y-80190797D01*
X68937662Y-80265342D01*
X68877483Y-80354019D01*
X68868326Y-80373904D01*
X68847739Y-80452286D01*
X68843240Y-80540367D01*
X68854711Y-80628766D01*
X68882029Y-80708102D01*
X68899493Y-80739987D01*
X68932159Y-80788973D01*
X68963701Y-80826092D01*
X68964301Y-80826644D01*
X68983915Y-80841285D01*
X69024654Y-80869364D01*
X69084823Y-80909774D01*
X69162724Y-80961406D01*
X69256662Y-81023152D01*
X69364942Y-81093902D01*
X69485865Y-81172549D01*
X69617738Y-81257984D01*
X69758862Y-81349098D01*
X69907543Y-81444784D01*
X70062085Y-81543932D01*
X70196372Y-81629940D01*
X70363960Y-81737183D01*
X70510929Y-81831020D01*
X70638611Y-81912207D01*
X70748339Y-81981497D01*
X70841445Y-82039645D01*
X70919261Y-82087406D01*
X70983121Y-82125533D01*
X71034356Y-82154781D01*
X71074300Y-82175905D01*
X71104284Y-82189659D01*
X71125642Y-82196796D01*
X71139705Y-82198073D01*
X71147806Y-82194243D01*
X71151279Y-82186060D01*
X71151454Y-82174279D01*
X71149666Y-82159654D01*
X71149651Y-82159566D01*
X71141431Y-82149634D01*
X71118283Y-82130623D01*
X71079395Y-82101990D01*
X71023956Y-82063194D01*
X70951154Y-82013693D01*
X70860178Y-81952945D01*
X70750216Y-81880408D01*
X70620458Y-81795540D01*
X70470091Y-81697800D01*
X70298305Y-81586646D01*
X70104287Y-81461535D01*
X70079663Y-81445674D01*
X69899073Y-81329076D01*
X69732334Y-81220926D01*
X69580464Y-81121900D01*
X69444482Y-81032675D01*
X69325407Y-80953927D01*
X69224257Y-80886333D01*
X69142051Y-80830569D01*
X69079807Y-80787311D01*
X69038545Y-80757236D01*
X69019283Y-80741021D01*
X68983905Y-80692235D01*
X68950289Y-80613025D01*
X68938634Y-80530213D01*
X68947691Y-80448242D01*
X68976216Y-80371554D01*
X69022962Y-80304591D01*
X69086682Y-80251796D01*
X69166130Y-80217611D01*
X69185569Y-80215176D01*
X69233114Y-80212705D01*
X69306845Y-80210654D01*
X69406201Y-80209027D01*
X69530625Y-80207830D01*
X69679556Y-80207067D01*
X69852437Y-80206745D01*
X70048708Y-80206869D01*
X70267810Y-80207442D01*
X71318168Y-80211093D01*
X71344186Y-80243228D01*
X71347638Y-80247728D01*
X71367578Y-80295435D01*
X71365156Y-80346269D01*
X71340607Y-80390575D01*
X71311010Y-80422079D01*
X70273109Y-80422079D01*
X69235208Y-80422079D01*
X69193327Y-80457319D01*
X69161403Y-80494592D01*
X69153026Y-80536581D01*
X69171640Y-80580971D01*
X69185751Y-80592372D01*
X69221152Y-80617377D01*
X69276169Y-80654873D01*
X69349141Y-80703766D01*
X69438407Y-80762963D01*
X69542307Y-80831371D01*
X69659179Y-80907895D01*
X69787362Y-80991442D01*
X69925195Y-81080919D01*
X70071017Y-81175232D01*
X70223167Y-81273288D01*
X70371123Y-81368609D01*
X70518285Y-81463698D01*
X70657937Y-81554214D01*
X70788367Y-81639032D01*
X70907860Y-81717030D01*
X71014705Y-81787084D01*
X71107189Y-81848072D01*
X71183598Y-81898870D01*
X71242220Y-81938356D01*
X71281342Y-81965405D01*
X71299252Y-81978896D01*
X71308850Y-81988847D01*
X71340979Y-82033959D01*
X71363563Y-82082507D01*
X71373476Y-82124875D01*
X71373119Y-82205585D01*
X71348460Y-82280288D01*
X71301415Y-82344388D01*
X71233902Y-82393289D01*
X71192598Y-82411289D01*
X71147650Y-82420245D01*
X71090288Y-82420029D01*
X71007747Y-82415271D01*
X69946880Y-81735154D01*
X69783751Y-81630531D01*
X69612167Y-81520306D01*
X69460948Y-81422834D01*
X69328697Y-81337098D01*
X69214013Y-81262080D01*
X69115499Y-81196764D01*
X69031755Y-81140131D01*
X68961383Y-81091166D01*
X68902984Y-81048850D01*
X68855158Y-81012167D01*
X68816508Y-80980099D01*
X68785635Y-80951629D01*
X68761139Y-80925739D01*
X68741622Y-80901413D01*
X68725685Y-80877634D01*
X68711929Y-80853383D01*
X68698955Y-80827644D01*
X68663350Y-80743869D01*
X68629544Y-80614634D01*
X68622712Y-80487367D01*
X68642841Y-80361133D01*
X68689916Y-80234995D01*
X68701816Y-80213383D01*
X68741616Y-80158105D01*
X68794231Y-80098517D01*
X68852853Y-80041467D01*
X68910672Y-79993806D01*
X68960879Y-79962386D01*
X68985038Y-79950950D01*
X69010163Y-79939722D01*
X69035249Y-79929997D01*
X69062244Y-79921666D01*
X69093094Y-79914623D01*
X69129748Y-79908760D01*
X69174153Y-79903967D01*
X69228256Y-79900138D01*
X69294004Y-79897163D01*
X69373344Y-79894936D01*
X69468225Y-79893348D01*
X69580593Y-79892291D01*
X69712396Y-79891656D01*
X69865581Y-79891337D01*
X70042095Y-79891225D01*
X70243886Y-79891211D01*
X71303381Y-79891211D01*
X71336792Y-79924623D01*
G37*
G36*
X76984964Y-84467155D02*
G01*
X77101116Y-84488898D01*
X77207530Y-84530109D01*
X77301633Y-84589933D01*
X77380854Y-84667513D01*
X77442623Y-84761991D01*
X77484367Y-84872512D01*
X77491600Y-84903057D01*
X77506334Y-85035457D01*
X77494878Y-85166717D01*
X77457987Y-85293993D01*
X77396417Y-85414440D01*
X77310924Y-85525215D01*
X77290344Y-85546930D01*
X77257659Y-85578817D01*
X77222720Y-85608887D01*
X77183426Y-85638204D01*
X77137677Y-85667832D01*
X77083372Y-85698836D01*
X77018409Y-85732280D01*
X76940687Y-85769228D01*
X76848106Y-85810745D01*
X76738565Y-85857894D01*
X76609962Y-85911739D01*
X76460197Y-85973346D01*
X76287169Y-86043777D01*
X76222358Y-86070175D01*
X76128920Y-86108626D01*
X76046227Y-86143131D01*
X75977183Y-86172452D01*
X75924691Y-86195350D01*
X75891657Y-86210588D01*
X75880985Y-86216927D01*
X75881912Y-86217559D01*
X75900939Y-86224479D01*
X75938237Y-86235474D01*
X75986849Y-86248473D01*
X76031515Y-86261330D01*
X76084376Y-86283558D01*
X76117390Y-86309444D01*
X76129131Y-86324493D01*
X76145361Y-86359207D01*
X76145870Y-86396588D01*
X76129382Y-86439285D01*
X76094625Y-86489945D01*
X76040322Y-86551218D01*
X75965202Y-86625750D01*
X75939349Y-86650597D01*
X75893196Y-86695934D01*
X75857534Y-86732307D01*
X75835485Y-86756495D01*
X75830165Y-86765273D01*
X75833393Y-86764389D01*
X75857560Y-86755203D01*
X75902306Y-86737099D01*
X75964487Y-86711380D01*
X76040961Y-86679354D01*
X76128583Y-86642325D01*
X76224209Y-86601599D01*
X76254027Y-86588902D01*
X76352378Y-86547691D01*
X76445004Y-86509852D01*
X76528061Y-86476891D01*
X76597705Y-86450315D01*
X76650093Y-86431632D01*
X76681381Y-86422349D01*
X76702692Y-86418105D01*
X76742383Y-86413482D01*
X76773431Y-86418066D01*
X76808267Y-86432888D01*
X76816488Y-86437092D01*
X76859065Y-86465005D01*
X76890773Y-86500201D01*
X76913022Y-86546614D01*
X76927222Y-86608178D01*
X76934783Y-86688827D01*
X76937113Y-86792497D01*
X76937116Y-86799937D01*
X76935044Y-86893276D01*
X76928278Y-86964667D01*
X76915759Y-87018824D01*
X76896426Y-87060461D01*
X76869217Y-87094292D01*
X76857789Y-87105020D01*
X76821135Y-87126885D01*
X76774322Y-87132798D01*
X76731056Y-87129771D01*
X76684383Y-87113420D01*
X76658057Y-87082131D01*
X76654511Y-87067981D01*
X76649077Y-87029617D01*
X76643799Y-86975889D01*
X76639441Y-86913712D01*
X76631243Y-86769492D01*
X76045927Y-87007249D01*
X75943040Y-87048840D01*
X75827418Y-87095081D01*
X75720447Y-87137335D01*
X75624884Y-87174541D01*
X75543482Y-87205637D01*
X75478994Y-87229562D01*
X75434176Y-87245254D01*
X75411781Y-87251651D01*
X75409313Y-87251967D01*
X75347871Y-87246747D01*
X75295493Y-87217920D01*
X75258266Y-87168773D01*
X75253655Y-87158685D01*
X75239373Y-87117040D01*
X75235343Y-87076512D01*
X75243028Y-87034385D01*
X75263895Y-86987940D01*
X75299407Y-86934460D01*
X75351031Y-86871226D01*
X75420230Y-86795522D01*
X75508471Y-86704629D01*
X75726098Y-86484468D01*
X75553126Y-86440012D01*
X75496849Y-86425196D01*
X75410914Y-86400179D01*
X75346720Y-86376933D01*
X75300957Y-86353593D01*
X75270316Y-86328298D01*
X75251487Y-86299185D01*
X75241162Y-86264390D01*
X75238918Y-86246308D01*
X75248448Y-86188640D01*
X75283474Y-86137348D01*
X75342890Y-86094281D01*
X75348778Y-86091325D01*
X75381697Y-86076477D01*
X75436351Y-86053020D01*
X75510105Y-86022043D01*
X75600324Y-85984635D01*
X75704373Y-85941885D01*
X75819617Y-85894882D01*
X75943422Y-85844716D01*
X76073151Y-85792475D01*
X76245090Y-85723166D01*
X76400620Y-85659753D01*
X76534565Y-85604190D01*
X76648898Y-85555564D01*
X76745595Y-85512959D01*
X76826627Y-85475461D01*
X76893970Y-85442157D01*
X76949595Y-85412133D01*
X76995478Y-85384472D01*
X77033592Y-85358262D01*
X77065911Y-85332589D01*
X77110263Y-85287711D01*
X77159318Y-85212967D01*
X77188795Y-85131771D01*
X77196864Y-85049811D01*
X77181695Y-84972778D01*
X77163228Y-84934729D01*
X77114726Y-84878070D01*
X77050269Y-84837797D01*
X76973702Y-84814056D01*
X76888870Y-84806993D01*
X76799615Y-84816755D01*
X76709782Y-84843489D01*
X76623216Y-84887341D01*
X76543760Y-84948458D01*
X76510510Y-84981488D01*
X76440884Y-85069010D01*
X76388254Y-85167816D01*
X76350480Y-85282508D01*
X76325421Y-85417685D01*
X76324000Y-85428317D01*
X76311962Y-85506656D01*
X76299196Y-85563180D01*
X76283899Y-85602711D01*
X76264266Y-85630074D01*
X76238495Y-85650092D01*
X76186992Y-85672319D01*
X76132328Y-85674524D01*
X76084501Y-85653979D01*
X76045601Y-85612993D01*
X76017719Y-85553872D01*
X76002944Y-85478926D01*
X76003366Y-85390461D01*
X76016260Y-85295330D01*
X76056453Y-85137681D01*
X76117833Y-84990010D01*
X76198537Y-84855220D01*
X76296702Y-84736217D01*
X76410464Y-84635904D01*
X76537960Y-84557187D01*
X76603780Y-84527307D01*
X76733724Y-84485503D01*
X76861642Y-84465738D01*
X76984964Y-84467155D01*
G37*
G36*
X70087184Y-83547159D02*
G01*
X70159453Y-83548342D01*
X70215137Y-83550811D01*
X70259801Y-83555122D01*
X70299011Y-83561826D01*
X70338333Y-83571478D01*
X70383333Y-83584631D01*
X70384091Y-83584861D01*
X70568152Y-83654102D01*
X70738401Y-83744699D01*
X70893247Y-83854745D01*
X71031100Y-83982330D01*
X71150371Y-84125547D01*
X71249468Y-84282486D01*
X71326802Y-84451239D01*
X71380782Y-84629897D01*
X71409817Y-84816553D01*
X71416073Y-84960307D01*
X71403696Y-85156965D01*
X71365964Y-85344197D01*
X71302577Y-85523009D01*
X71213233Y-85694406D01*
X71097632Y-85859394D01*
X71052884Y-85912506D01*
X70986086Y-85977526D01*
X70921958Y-86020652D01*
X70857211Y-86044413D01*
X70843948Y-86046967D01*
X70769928Y-86046225D01*
X70699198Y-86022817D01*
X70636294Y-85980542D01*
X70585749Y-85923200D01*
X70552096Y-85854589D01*
X70539871Y-85778508D01*
X70541194Y-85746781D01*
X70550611Y-85698501D01*
X70571662Y-85650929D01*
X70607368Y-85597933D01*
X70660754Y-85533387D01*
X70710830Y-85470900D01*
X70790196Y-85340489D01*
X70844539Y-85200729D01*
X70873202Y-85053552D01*
X70875531Y-84900888D01*
X70874854Y-84892057D01*
X70867453Y-84825658D01*
X70856873Y-84760618D01*
X70845166Y-84709861D01*
X70796459Y-84584951D01*
X70721304Y-84458859D01*
X70625784Y-84344725D01*
X70513155Y-84245845D01*
X70386670Y-84165511D01*
X70249585Y-84107018D01*
X70241296Y-84104357D01*
X70194526Y-84092192D01*
X70142908Y-84084455D01*
X70079009Y-84080327D01*
X69995391Y-84078988D01*
X69985484Y-84078972D01*
X69912000Y-84079664D01*
X69856642Y-84082607D01*
X69811262Y-84088879D01*
X69767711Y-84099561D01*
X69717840Y-84115729D01*
X69665367Y-84134929D01*
X69575904Y-84175158D01*
X69499182Y-84222347D01*
X69425565Y-84281979D01*
X69389068Y-84312971D01*
X69337149Y-84347676D01*
X69294098Y-84361840D01*
X69256381Y-84357030D01*
X69234581Y-84346576D01*
X69202011Y-84313932D01*
X69183675Y-84261866D01*
X69181604Y-84249558D01*
X69182304Y-84228344D01*
X69192495Y-84206975D01*
X69215730Y-84179402D01*
X69255568Y-84139579D01*
X69365687Y-84048839D01*
X69493653Y-83971828D01*
X69630254Y-83914349D01*
X69707234Y-83891593D01*
X69875496Y-83861207D01*
X70042641Y-83856276D01*
X70206211Y-83875819D01*
X70363750Y-83918852D01*
X70512801Y-83984394D01*
X70650907Y-84071463D01*
X70775612Y-84179075D01*
X70884457Y-84306249D01*
X70974988Y-84452003D01*
X71009831Y-84523446D01*
X71048005Y-84621866D01*
X71072841Y-84720897D01*
X71086293Y-84829059D01*
X71090316Y-84954877D01*
X71089448Y-85008384D01*
X71074789Y-85167523D01*
X71040640Y-85312973D01*
X70985200Y-85449496D01*
X70906670Y-85581859D01*
X70803250Y-85714825D01*
X70798004Y-85720949D01*
X70771508Y-85755480D01*
X70761959Y-85778620D01*
X70766610Y-85796497D01*
X70781168Y-85814521D01*
X70804512Y-85823957D01*
X70833511Y-85813501D01*
X70870856Y-85781945D01*
X70919237Y-85728084D01*
X70968784Y-85663536D01*
X71042137Y-85547884D01*
X71105537Y-85423596D01*
X71152783Y-85301983D01*
X71159899Y-85276773D01*
X71175491Y-85194977D01*
X71186243Y-85097298D01*
X71191859Y-84991696D01*
X71192044Y-84886129D01*
X71186499Y-84788557D01*
X71174930Y-84706941D01*
X71172814Y-84696913D01*
X71126390Y-84537422D01*
X71057661Y-84389488D01*
X70965044Y-84250262D01*
X70846954Y-84116895D01*
X70822694Y-84093039D01*
X70692362Y-83979634D01*
X70560667Y-83891458D01*
X70423745Y-83826989D01*
X70277734Y-83784703D01*
X70118770Y-83763079D01*
X69942991Y-83760593D01*
X69935700Y-83760859D01*
X69826933Y-83767197D01*
X69736659Y-83778358D01*
X69656795Y-83796114D01*
X69579254Y-83822234D01*
X69495952Y-83858489D01*
X69463918Y-83874154D01*
X69309312Y-83966883D01*
X69170594Y-84079395D01*
X69049828Y-84209202D01*
X68949081Y-84353815D01*
X68870418Y-84510749D01*
X68815904Y-84677514D01*
X68803975Y-84742557D01*
X68794925Y-84841241D01*
X68792451Y-84950106D01*
X68796435Y-85060127D01*
X68806759Y-85162279D01*
X68823308Y-85247535D01*
X68867069Y-85379627D01*
X68936858Y-85528979D01*
X69023286Y-85667888D01*
X69122058Y-85788571D01*
X69142390Y-85813215D01*
X69167228Y-85864538D01*
X69169832Y-85912355D01*
X69151635Y-85952127D01*
X69114073Y-85979317D01*
X69058580Y-85989389D01*
X69030645Y-85986639D01*
X69005349Y-85975516D01*
X68976188Y-85951762D01*
X68936520Y-85911120D01*
X68836077Y-85789330D01*
X68738315Y-85633328D01*
X68662528Y-85465972D01*
X68609003Y-85290184D01*
X68578025Y-85108888D01*
X68569881Y-84925008D01*
X68584856Y-84741465D01*
X68623236Y-84561185D01*
X68685306Y-84387090D01*
X68771354Y-84222104D01*
X68771871Y-84221266D01*
X68829335Y-84138649D01*
X68902791Y-84048657D01*
X68985473Y-83958661D01*
X69070614Y-83876030D01*
X69151447Y-83808134D01*
X69212724Y-83765848D01*
X69310701Y-83708968D01*
X69418876Y-83655511D01*
X69527761Y-83610075D01*
X69627867Y-83577257D01*
X69645446Y-83572609D01*
X69688346Y-83562553D01*
X69730381Y-83555404D01*
X69777167Y-83550706D01*
X69834321Y-83548001D01*
X69907459Y-83546830D01*
X70002197Y-83546735D01*
X70087184Y-83547159D01*
G37*
G36*
X69392816Y-98178697D02*
G01*
X69508986Y-98217456D01*
X69616228Y-98277391D01*
X69710911Y-98356422D01*
X69789403Y-98452468D01*
X69848074Y-98563450D01*
X69849302Y-98566499D01*
X69856727Y-98585846D01*
X69862875Y-98605275D01*
X69867903Y-98627501D01*
X69871966Y-98655237D01*
X69875219Y-98691198D01*
X69877820Y-98738097D01*
X69879925Y-98798649D01*
X69881688Y-98875567D01*
X69883267Y-98971566D01*
X69884817Y-99089359D01*
X69886495Y-99231661D01*
X69893301Y-99821574D01*
X69931493Y-99854410D01*
X69937837Y-99859701D01*
X69978952Y-99883162D01*
X70017262Y-99881399D01*
X70059289Y-99854411D01*
X70097481Y-99821577D01*
X70104287Y-99224856D01*
X70111093Y-98628135D01*
X70154857Y-98535742D01*
X70191262Y-98469323D01*
X70268462Y-98369338D01*
X70362072Y-98286853D01*
X70468515Y-98223805D01*
X70584215Y-98182129D01*
X70705593Y-98163764D01*
X70829074Y-98170646D01*
X70881587Y-98181246D01*
X71005858Y-98224176D01*
X71116049Y-98288673D01*
X71209813Y-98372794D01*
X71284804Y-98474599D01*
X71338675Y-98592148D01*
X71342226Y-98602635D01*
X71348026Y-98620941D01*
X71352941Y-98639850D01*
X71357045Y-98661582D01*
X71360413Y-98688353D01*
X71363118Y-98722383D01*
X71365236Y-98765890D01*
X71366840Y-98821092D01*
X71368006Y-98890208D01*
X71368807Y-98975456D01*
X71369318Y-99079055D01*
X71369613Y-99203222D01*
X71369766Y-99350176D01*
X71369852Y-99522136D01*
X71370204Y-100361690D01*
X71334338Y-100389902D01*
X71290782Y-100412568D01*
X71239109Y-100414860D01*
X71191353Y-100392102D01*
X71159218Y-100366090D01*
X71152412Y-99524336D01*
X71145606Y-98682583D01*
X71105203Y-98609639D01*
X71067222Y-98552403D01*
X70994406Y-98477383D01*
X70909366Y-98421837D01*
X70860387Y-98405060D01*
X70788057Y-98393600D01*
X70709627Y-98391218D01*
X70635602Y-98398144D01*
X70576485Y-98414604D01*
X70553151Y-98426097D01*
X70478295Y-98477629D01*
X70411542Y-98544259D01*
X70362379Y-98617017D01*
X70328885Y-98682583D01*
X70321955Y-99274705D01*
X70320943Y-99356026D01*
X70318738Y-99501477D01*
X70316277Y-99622016D01*
X70313505Y-99719189D01*
X70310361Y-99794546D01*
X70306787Y-99849633D01*
X70302726Y-99885999D01*
X70298117Y-99905191D01*
X70275934Y-99947641D01*
X70219624Y-100017046D01*
X70150275Y-100066793D01*
X70072206Y-100096158D01*
X69989734Y-100104421D01*
X69907176Y-100090858D01*
X69828849Y-100054748D01*
X69759071Y-99995368D01*
X69754399Y-99990088D01*
X69709460Y-99927695D01*
X69684045Y-99868058D01*
X69683675Y-99866503D01*
X69679136Y-99831095D01*
X69675403Y-99768849D01*
X69672483Y-99680115D01*
X69670385Y-99565241D01*
X69669119Y-99424576D01*
X69668692Y-99258469D01*
X69668682Y-98709807D01*
X69629982Y-98628135D01*
X69628224Y-98624474D01*
X69572676Y-98538191D01*
X69499008Y-98466035D01*
X69413572Y-98414283D01*
X69363396Y-98399557D01*
X69291214Y-98391576D01*
X69213185Y-98392788D01*
X69139767Y-98402954D01*
X69081416Y-98421837D01*
X69023703Y-98456370D01*
X68945965Y-98525726D01*
X68885579Y-98609639D01*
X68845177Y-98682583D01*
X68841336Y-99433590D01*
X68840629Y-99573426D01*
X68839989Y-99713743D01*
X68839618Y-99830806D01*
X68839583Y-99926756D01*
X68839954Y-100003736D01*
X68840800Y-100063886D01*
X68842189Y-100109347D01*
X68844192Y-100142262D01*
X68846876Y-100164772D01*
X68850311Y-100179018D01*
X68854566Y-100187141D01*
X68859709Y-100191282D01*
X68865810Y-100193584D01*
X68867783Y-100194212D01*
X68881986Y-100198401D01*
X68893986Y-100199816D01*
X68903967Y-100196419D01*
X68912116Y-100186172D01*
X68918618Y-100167040D01*
X68923660Y-100136982D01*
X68927426Y-100093964D01*
X68930104Y-100035946D01*
X68931878Y-99960891D01*
X68932934Y-99866763D01*
X68933458Y-99751522D01*
X68933637Y-99613133D01*
X68933655Y-99449558D01*
X68933653Y-99383540D01*
X68933696Y-99228612D01*
X68933994Y-99097712D01*
X68934773Y-98988527D01*
X68936264Y-98898745D01*
X68938695Y-98826052D01*
X68942295Y-98768137D01*
X68947292Y-98722687D01*
X68953914Y-98687388D01*
X68962391Y-98659929D01*
X68972952Y-98637997D01*
X68985824Y-98619278D01*
X69001237Y-98601462D01*
X69019420Y-98582234D01*
X69077689Y-98534392D01*
X69154879Y-98499052D01*
X69237829Y-98484577D01*
X69321416Y-98490521D01*
X69400518Y-98516435D01*
X69470011Y-98561874D01*
X69524775Y-98626388D01*
X69543470Y-98661485D01*
X69565256Y-98725034D01*
X69573650Y-98787035D01*
X69568017Y-98840497D01*
X69547721Y-98878432D01*
X69517452Y-98898813D01*
X69469425Y-98908654D01*
X69421551Y-98899344D01*
X69383839Y-98871316D01*
X69364006Y-98836016D01*
X69355627Y-98800730D01*
X69354043Y-98783387D01*
X69335305Y-98742898D01*
X69301213Y-98715640D01*
X69259051Y-98704175D01*
X69216105Y-98711063D01*
X69179659Y-98738867D01*
X69177277Y-98741944D01*
X69171438Y-98750681D01*
X69166552Y-98761640D01*
X69162535Y-98777093D01*
X69159301Y-98799312D01*
X69156766Y-98830572D01*
X69154845Y-98873146D01*
X69153453Y-98929305D01*
X69152504Y-99001323D01*
X69151914Y-99091474D01*
X69151598Y-99202029D01*
X69151471Y-99335262D01*
X69151447Y-99493447D01*
X69151441Y-99522421D01*
X69151068Y-99705092D01*
X69150124Y-99861925D01*
X69148611Y-99992692D01*
X69146535Y-100097161D01*
X69143900Y-100175102D01*
X69140709Y-100226285D01*
X69136969Y-100250481D01*
X69121579Y-100282352D01*
X69074119Y-100339426D01*
X69010642Y-100382910D01*
X68937558Y-100409988D01*
X68861278Y-100417846D01*
X68788212Y-100403667D01*
X68763092Y-100391253D01*
X68713873Y-100354119D01*
X68669345Y-100306699D01*
X68639374Y-100258610D01*
X68638817Y-100257246D01*
X68634717Y-100241976D01*
X68631249Y-100217602D01*
X68628364Y-100182113D01*
X68626017Y-100133494D01*
X68624159Y-100069732D01*
X68622745Y-99988814D01*
X68621727Y-99888726D01*
X68621058Y-99767456D01*
X68620691Y-99622988D01*
X68620579Y-99453311D01*
X68620626Y-99292134D01*
X68620816Y-99152145D01*
X68621223Y-99034750D01*
X68621916Y-98937610D01*
X68622968Y-98858386D01*
X68624449Y-98794738D01*
X68626432Y-98744328D01*
X68628988Y-98704815D01*
X68632188Y-98673861D01*
X68636103Y-98649126D01*
X68640806Y-98628270D01*
X68646368Y-98608955D01*
X68672151Y-98540555D01*
X68735184Y-98430875D01*
X68818430Y-98336719D01*
X68919164Y-98260404D01*
X69034661Y-98204248D01*
X69162194Y-98170566D01*
X69271349Y-98163194D01*
X69392816Y-98178697D01*
G37*
G36*
X71182733Y-92933045D02*
G01*
X71252781Y-92965955D01*
X71311425Y-93014396D01*
X71351234Y-93074184D01*
X71367845Y-93139563D01*
X71367017Y-93212600D01*
X71350316Y-93284543D01*
X71319622Y-93347348D01*
X71276812Y-93392972D01*
X71273094Y-93395145D01*
X71246466Y-93407990D01*
X71197403Y-93430190D01*
X71127877Y-93460895D01*
X71039857Y-93499257D01*
X70935313Y-93544426D01*
X70816214Y-93595553D01*
X70684531Y-93651788D01*
X70542233Y-93712284D01*
X70391289Y-93776190D01*
X70233671Y-93842657D01*
X70175021Y-93867354D01*
X70019861Y-93932809D01*
X69872215Y-93995265D01*
X69734037Y-94053887D01*
X69607281Y-94107838D01*
X69493903Y-94156282D01*
X69395858Y-94198382D01*
X69315100Y-94233301D01*
X69253584Y-94260204D01*
X69213265Y-94278254D01*
X69196098Y-94286614D01*
X69173490Y-94314652D01*
X69164075Y-94356365D01*
X69169710Y-94399890D01*
X69190789Y-94434286D01*
X69195214Y-94437146D01*
X69221782Y-94450545D01*
X69268331Y-94472233D01*
X69331289Y-94500666D01*
X69407083Y-94534304D01*
X69492140Y-94571605D01*
X69582888Y-94611027D01*
X69675753Y-94651029D01*
X69767164Y-94690068D01*
X69853547Y-94726602D01*
X69931329Y-94759091D01*
X69996938Y-94785992D01*
X70046801Y-94805763D01*
X70077346Y-94816864D01*
X70085198Y-94818592D01*
X70091378Y-94816281D01*
X70096057Y-94807023D01*
X70099442Y-94787920D01*
X70101744Y-94756077D01*
X70103170Y-94708596D01*
X70103930Y-94642581D01*
X70104233Y-94555135D01*
X70104287Y-94443361D01*
X70104326Y-94360745D01*
X70104615Y-94265999D01*
X70105368Y-94193023D01*
X70106799Y-94138634D01*
X70109117Y-94099650D01*
X70112536Y-94072886D01*
X70117267Y-94055159D01*
X70123521Y-94043286D01*
X70131511Y-94034084D01*
X70145181Y-94023297D01*
X70189566Y-94008475D01*
X70239205Y-94011640D01*
X70283138Y-94032881D01*
X70315273Y-94058902D01*
X70315273Y-94555514D01*
X70315227Y-94667559D01*
X70314978Y-94776308D01*
X70314390Y-94862927D01*
X70313325Y-94930169D01*
X70311649Y-94980783D01*
X70309226Y-95017524D01*
X70305920Y-95043142D01*
X70301594Y-95060389D01*
X70296114Y-95072018D01*
X70289343Y-95080779D01*
X70264027Y-95099610D01*
X70230034Y-95109432D01*
X70219740Y-95107095D01*
X70185235Y-95095413D01*
X70130238Y-95074879D01*
X70057478Y-95046572D01*
X69969687Y-95011576D01*
X69869594Y-94970968D01*
X69759929Y-94925832D01*
X69643424Y-94877246D01*
X69530746Y-94829772D01*
X69402750Y-94775209D01*
X69297088Y-94729272D01*
X69212061Y-94691179D01*
X69145968Y-94660148D01*
X69097109Y-94635397D01*
X69063784Y-94616142D01*
X69044292Y-94601603D01*
X69000632Y-94549566D01*
X68962957Y-94471182D01*
X68946656Y-94385510D01*
X68951929Y-94298199D01*
X68978976Y-94214896D01*
X69027997Y-94141248D01*
X69032508Y-94136408D01*
X69043672Y-94126020D01*
X69058304Y-94114928D01*
X69078070Y-94102382D01*
X69104637Y-94087631D01*
X69139673Y-94069927D01*
X69184843Y-94048518D01*
X69241816Y-94022654D01*
X69312258Y-93991587D01*
X69397835Y-93954565D01*
X69500214Y-93910839D01*
X69621063Y-93859658D01*
X69762048Y-93800273D01*
X69924836Y-93731934D01*
X70111093Y-93653890D01*
X70198743Y-93617177D01*
X70373744Y-93543799D01*
X70525920Y-93479838D01*
X70656859Y-93424577D01*
X70768149Y-93377305D01*
X70861378Y-93337305D01*
X70938135Y-93303863D01*
X71000007Y-93276266D01*
X71048582Y-93253799D01*
X71085449Y-93235747D01*
X71112196Y-93221397D01*
X71130411Y-93210034D01*
X71141682Y-93200944D01*
X71147597Y-93193412D01*
X71149745Y-93186724D01*
X71148622Y-93164050D01*
X71131412Y-93144158D01*
X71129273Y-93144287D01*
X71106732Y-93151307D01*
X71062099Y-93167695D01*
X70997656Y-93192509D01*
X70915683Y-93224805D01*
X70818462Y-93263641D01*
X70708274Y-93308072D01*
X70587398Y-93357156D01*
X70458118Y-93409949D01*
X70322713Y-93465509D01*
X70183464Y-93522892D01*
X70042653Y-93581155D01*
X69902560Y-93639354D01*
X69765466Y-93696547D01*
X69633653Y-93751790D01*
X69509401Y-93804140D01*
X69394992Y-93852654D01*
X69292705Y-93896389D01*
X69204823Y-93934401D01*
X69133626Y-93965747D01*
X69081396Y-93989485D01*
X69050413Y-94004670D01*
X68986803Y-94048668D01*
X68921071Y-94120995D01*
X68873107Y-94207584D01*
X68845789Y-94302952D01*
X68841996Y-94401615D01*
X68844108Y-94419653D01*
X68870160Y-94513893D01*
X68918146Y-94601495D01*
X68983828Y-94676134D01*
X69062969Y-94731485D01*
X69077994Y-94738424D01*
X69117670Y-94755785D01*
X69178987Y-94782152D01*
X69260029Y-94816716D01*
X69358878Y-94858664D01*
X69473618Y-94907188D01*
X69602332Y-94961476D01*
X69743103Y-95020718D01*
X69894014Y-95084104D01*
X70053148Y-95150823D01*
X70218588Y-95220065D01*
X70358547Y-95278691D01*
X70517499Y-95345520D01*
X70667990Y-95409056D01*
X70808169Y-95468503D01*
X70936181Y-95523067D01*
X71050174Y-95571952D01*
X71148293Y-95614363D01*
X71228687Y-95649505D01*
X71289502Y-95676583D01*
X71328884Y-95694802D01*
X71344981Y-95703366D01*
X71363959Y-95731227D01*
X71371423Y-95775769D01*
X71361309Y-95821205D01*
X71334338Y-95857104D01*
X71334095Y-95857295D01*
X71300165Y-95877092D01*
X71268868Y-95885316D01*
X71268456Y-95885290D01*
X71249678Y-95879401D01*
X71208152Y-95863842D01*
X71146040Y-95839513D01*
X71065499Y-95807317D01*
X70968690Y-95768153D01*
X70857773Y-95722925D01*
X70734908Y-95672533D01*
X70602254Y-95617877D01*
X70461971Y-95559861D01*
X70316218Y-95499384D01*
X70167156Y-95437349D01*
X70016945Y-95374656D01*
X69867743Y-95312207D01*
X69721712Y-95250903D01*
X69581010Y-95191646D01*
X69447797Y-95135336D01*
X69324234Y-95082876D01*
X69212479Y-95035166D01*
X69114693Y-94993108D01*
X69033036Y-94957603D01*
X68969666Y-94929552D01*
X68926745Y-94909857D01*
X68906431Y-94899419D01*
X68848511Y-94856024D01*
X68762728Y-94768063D01*
X68697178Y-94667949D01*
X68651873Y-94559042D01*
X68626825Y-94444704D01*
X68622046Y-94328294D01*
X68637547Y-94213175D01*
X68673342Y-94102706D01*
X68729442Y-94000248D01*
X68805858Y-93909163D01*
X68902605Y-93832810D01*
X68915344Y-93825771D01*
X68954519Y-93806819D01*
X69014633Y-93779359D01*
X69093390Y-93744353D01*
X69188491Y-93702763D01*
X69297639Y-93655552D01*
X69418535Y-93603682D01*
X69548882Y-93548116D01*
X69686383Y-93489817D01*
X69828738Y-93429746D01*
X69973652Y-93368867D01*
X70118825Y-93308141D01*
X70261960Y-93248531D01*
X70400759Y-93190999D01*
X70532925Y-93136509D01*
X70656160Y-93086022D01*
X70768165Y-93040500D01*
X70866644Y-93000907D01*
X70949298Y-92968205D01*
X71013830Y-92943356D01*
X71057941Y-92927322D01*
X71079335Y-92921067D01*
X71108713Y-92919851D01*
X71182733Y-92933045D01*
G37*
G36*
X76763848Y-71958938D02*
G01*
X76809880Y-71964890D01*
X76839502Y-71974537D01*
X76880974Y-72003336D01*
X76918677Y-72041285D01*
X76942199Y-72077921D01*
X76946396Y-72095260D01*
X76945831Y-72141135D01*
X76935181Y-72191454D01*
X76916565Y-72233358D01*
X76903192Y-72247954D01*
X76869406Y-72277402D01*
X76820638Y-72316119D01*
X76761105Y-72360781D01*
X76695025Y-72408061D01*
X76637792Y-72448721D01*
X76584011Y-72488411D01*
X76542984Y-72520370D01*
X76517957Y-72542062D01*
X76512175Y-72550950D01*
X76515764Y-72551449D01*
X76542074Y-72549764D01*
X76585464Y-72543841D01*
X76638648Y-72534619D01*
X76658811Y-72530984D01*
X76738070Y-72522208D01*
X76800098Y-72527143D01*
X76850641Y-72546859D01*
X76895445Y-72582427D01*
X76921171Y-72613607D01*
X76945683Y-72672683D01*
X76944466Y-72735566D01*
X76917777Y-72799826D01*
X76865873Y-72863028D01*
X76863196Y-72865554D01*
X76834566Y-72890761D01*
X76788420Y-72929661D01*
X76728091Y-72979517D01*
X76656915Y-73037588D01*
X76578225Y-73101134D01*
X76495357Y-73167417D01*
X76182514Y-73416428D01*
X76291177Y-73407179D01*
X76297921Y-73406619D01*
X76356521Y-73402406D01*
X76431978Y-73397767D01*
X76515288Y-73393228D01*
X76597448Y-73389313D01*
X76639904Y-73387592D01*
X76717296Y-73385922D01*
X76774951Y-73388180D01*
X76817973Y-73395509D01*
X76851468Y-73409050D01*
X76880539Y-73429947D01*
X76910289Y-73459343D01*
X76931968Y-73493909D01*
X76944595Y-73549472D01*
X76940146Y-73608597D01*
X76918221Y-73661099D01*
X76904518Y-73675993D01*
X76870274Y-73705878D01*
X76821102Y-73744971D01*
X76761265Y-73789907D01*
X76695025Y-73837321D01*
X76637792Y-73877982D01*
X76584011Y-73917672D01*
X76542984Y-73949631D01*
X76517957Y-73971323D01*
X76512175Y-73980211D01*
X76515764Y-73980710D01*
X76542074Y-73979025D01*
X76585464Y-73973101D01*
X76638648Y-73963880D01*
X76658811Y-73960245D01*
X76738070Y-73951468D01*
X76800098Y-73956403D01*
X76850641Y-73976120D01*
X76895445Y-74011687D01*
X76921171Y-74042868D01*
X76945683Y-74101943D01*
X76944466Y-74164827D01*
X76917777Y-74229086D01*
X76865873Y-74292289D01*
X76863196Y-74294815D01*
X76834566Y-74320021D01*
X76788420Y-74358922D01*
X76728091Y-74408777D01*
X76656915Y-74466848D01*
X76578225Y-74530395D01*
X76495357Y-74596678D01*
X76182514Y-74845688D01*
X76291177Y-74836439D01*
X76297921Y-74835879D01*
X76356521Y-74831666D01*
X76431978Y-74827027D01*
X76515288Y-74822488D01*
X76597448Y-74818574D01*
X76639904Y-74816853D01*
X76717296Y-74815183D01*
X76774951Y-74817441D01*
X76817973Y-74824769D01*
X76851468Y-74838311D01*
X76880539Y-74859208D01*
X76910289Y-74888603D01*
X76931968Y-74923169D01*
X76944595Y-74978733D01*
X76940146Y-75037857D01*
X76918221Y-75090359D01*
X76904518Y-75105254D01*
X76870274Y-75135138D01*
X76821102Y-75174231D01*
X76761265Y-75219168D01*
X76695025Y-75266582D01*
X76637792Y-75307242D01*
X76584011Y-75346932D01*
X76542984Y-75378891D01*
X76517957Y-75400583D01*
X76512175Y-75409471D01*
X76515764Y-75409970D01*
X76542074Y-75408285D01*
X76585464Y-75402362D01*
X76638648Y-75393140D01*
X76658811Y-75389505D01*
X76738070Y-75380729D01*
X76800098Y-75385664D01*
X76850641Y-75405380D01*
X76895445Y-75440948D01*
X76921222Y-75472208D01*
X76945696Y-75531291D01*
X76944456Y-75594155D01*
X76917761Y-75658338D01*
X76865873Y-75721373D01*
X76860562Y-75726322D01*
X76828447Y-75754362D01*
X76779638Y-75795352D01*
X76717877Y-75846285D01*
X76646910Y-75904153D01*
X76570479Y-75965948D01*
X76492331Y-76028663D01*
X76416208Y-76089289D01*
X76345854Y-76144820D01*
X76285014Y-76192248D01*
X76237433Y-76228564D01*
X76206853Y-76250762D01*
X76175059Y-76269002D01*
X76116730Y-76284732D01*
X76063935Y-76275731D01*
X76019913Y-76242150D01*
X75994978Y-76203337D01*
X75986204Y-76151851D01*
X76003930Y-76096189D01*
X76012056Y-76082184D01*
X76029740Y-76058428D01*
X76055511Y-76031032D01*
X76092145Y-75997507D01*
X76142419Y-75955365D01*
X76209107Y-75902117D01*
X76294986Y-75835276D01*
X76341145Y-75799398D01*
X76394267Y-75757473D01*
X76436064Y-75723736D01*
X76463100Y-75700968D01*
X76471943Y-75691951D01*
X76471907Y-75691925D01*
X76457193Y-75692177D01*
X76420960Y-75695331D01*
X76368594Y-75700862D01*
X76305483Y-75708242D01*
X76252085Y-75714356D01*
X76177257Y-75720448D01*
X76121741Y-75720275D01*
X76080860Y-75713317D01*
X76049934Y-75699053D01*
X76024283Y-75676963D01*
X76005176Y-75651645D01*
X75994582Y-75618540D01*
X75992172Y-75569711D01*
X75993016Y-75547978D01*
X75998713Y-75512597D01*
X76011958Y-75479494D01*
X76035303Y-75445827D01*
X76071304Y-75408757D01*
X76122515Y-75365442D01*
X76191489Y-75313042D01*
X76280781Y-75248716D01*
X76495123Y-75096489D01*
X76386227Y-75105452D01*
X76290014Y-75113379D01*
X76209479Y-75119796D01*
X76149323Y-75123931D01*
X76106039Y-75125691D01*
X76076123Y-75124980D01*
X76056068Y-75121703D01*
X76042368Y-75115766D01*
X76031519Y-75107072D01*
X76020014Y-75095528D01*
X76004473Y-75076033D01*
X75987359Y-75026845D01*
X75991289Y-74973461D01*
X76015005Y-74923068D01*
X76057247Y-74882856D01*
X76066997Y-74876346D01*
X76084412Y-74860604D01*
X76077764Y-74854999D01*
X76071679Y-74854127D01*
X76044139Y-74837541D01*
X76015780Y-74806637D01*
X75993619Y-74770283D01*
X75984673Y-74737347D01*
X75986399Y-74712314D01*
X75994083Y-74684282D01*
X76010065Y-74655104D01*
X76036645Y-74622322D01*
X76076127Y-74583480D01*
X76130810Y-74536119D01*
X76202996Y-74477784D01*
X76294986Y-74406016D01*
X76341145Y-74370138D01*
X76394267Y-74328213D01*
X76436064Y-74294475D01*
X76463100Y-74271707D01*
X76471943Y-74262691D01*
X76471907Y-74262665D01*
X76457193Y-74262916D01*
X76420960Y-74266071D01*
X76368594Y-74271602D01*
X76305483Y-74278982D01*
X76252085Y-74285096D01*
X76177257Y-74291188D01*
X76121741Y-74291015D01*
X76080860Y-74284057D01*
X76049934Y-74269793D01*
X76024283Y-74247703D01*
X76005176Y-74222384D01*
X75994582Y-74189279D01*
X75992172Y-74140450D01*
X75993016Y-74118718D01*
X75998713Y-74083337D01*
X76011958Y-74050233D01*
X76035303Y-74016567D01*
X76071304Y-73979496D01*
X76122515Y-73936181D01*
X76191489Y-73883781D01*
X76280781Y-73819456D01*
X76495123Y-73667228D01*
X76386227Y-73676192D01*
X76290014Y-73684119D01*
X76209479Y-73690535D01*
X76149323Y-73694671D01*
X76106039Y-73696431D01*
X76076123Y-73695720D01*
X76056068Y-73692443D01*
X76042368Y-73686505D01*
X76031519Y-73677812D01*
X76020014Y-73666267D01*
X76004473Y-73646772D01*
X75987359Y-73597584D01*
X75991289Y-73544200D01*
X76015005Y-73493808D01*
X76057247Y-73453596D01*
X76066997Y-73447086D01*
X76084412Y-73431344D01*
X76077764Y-73425739D01*
X76071679Y-73424866D01*
X76044139Y-73408280D01*
X76015780Y-73377376D01*
X75993619Y-73341023D01*
X75984673Y-73308087D01*
X75986399Y-73283053D01*
X75994083Y-73255021D01*
X76010065Y-73225843D01*
X76036645Y-73193062D01*
X76076127Y-73154219D01*
X76130810Y-73106859D01*
X76202996Y-73048523D01*
X76294986Y-72976755D01*
X76341145Y-72940878D01*
X76394267Y-72898952D01*
X76436064Y-72865215D01*
X76463100Y-72842447D01*
X76471943Y-72833430D01*
X76471907Y-72833404D01*
X76457193Y-72833656D01*
X76420960Y-72836810D01*
X76368594Y-72842341D01*
X76305483Y-72849721D01*
X76252085Y-72855835D01*
X76177257Y-72861927D01*
X76121741Y-72861754D01*
X76080860Y-72854796D01*
X76049934Y-72840532D01*
X76024283Y-72818442D01*
X76005176Y-72793124D01*
X75994582Y-72760019D01*
X75992172Y-72711190D01*
X75993016Y-72689457D01*
X75998713Y-72654076D01*
X76011958Y-72620973D01*
X76035303Y-72587306D01*
X76071304Y-72550236D01*
X76122515Y-72506921D01*
X76191489Y-72454521D01*
X76280781Y-72390196D01*
X76495123Y-72237968D01*
X76386227Y-72246931D01*
X76290014Y-72254858D01*
X76209479Y-72261275D01*
X76149323Y-72265410D01*
X76106039Y-72267170D01*
X76076123Y-72266459D01*
X76056068Y-72263182D01*
X76042368Y-72257245D01*
X76031519Y-72248551D01*
X76020014Y-72237007D01*
X76002680Y-72214800D01*
X75986626Y-72165213D01*
X75992072Y-72112059D01*
X76017705Y-72062030D01*
X76062212Y-72021821D01*
X76079181Y-72012602D01*
X76105045Y-72003017D01*
X76139839Y-71995178D01*
X76188129Y-71988317D01*
X76254480Y-71981663D01*
X76343457Y-71974449D01*
X76375115Y-71972077D01*
X76507041Y-71963251D01*
X76614455Y-71958119D01*
X76699382Y-71956681D01*
X76763848Y-71958938D01*
G37*
G36*
X71165731Y-88655619D02*
G01*
X71235919Y-88684030D01*
X71297173Y-88730429D01*
X71342898Y-88791707D01*
X71361615Y-88845246D01*
X71369378Y-88915970D01*
X71369778Y-88938957D01*
X71369855Y-88959548D01*
X71368286Y-88978655D01*
X71363747Y-88997299D01*
X71354915Y-89016500D01*
X71340466Y-89037279D01*
X71319077Y-89060656D01*
X71289424Y-89087651D01*
X71250184Y-89119284D01*
X71200033Y-89156577D01*
X71137648Y-89200548D01*
X71061705Y-89252219D01*
X70970880Y-89312611D01*
X70863851Y-89382742D01*
X70739293Y-89463634D01*
X70595883Y-89556306D01*
X70432298Y-89661780D01*
X70247213Y-89781076D01*
X70223282Y-89796510D01*
X70069590Y-89895849D01*
X69922346Y-89991389D01*
X69783197Y-90082042D01*
X69653789Y-90166718D01*
X69535771Y-90244327D01*
X69430789Y-90313781D01*
X69340491Y-90373991D01*
X69266524Y-90423866D01*
X69210536Y-90462319D01*
X69174172Y-90488259D01*
X69159082Y-90500598D01*
X69154758Y-90506385D01*
X69141213Y-90529335D01*
X69141588Y-90550567D01*
X69155288Y-90582972D01*
X69156252Y-90584952D01*
X69180942Y-90619737D01*
X69208907Y-90637522D01*
X69227781Y-90638858D01*
X69271421Y-90640225D01*
X69337361Y-90641592D01*
X69423140Y-90642929D01*
X69526297Y-90644204D01*
X69644368Y-90645388D01*
X69774892Y-90646451D01*
X69915407Y-90647361D01*
X70063451Y-90648088D01*
X70886978Y-90651501D01*
X70964903Y-90682977D01*
X71032478Y-90714844D01*
X71137908Y-90785409D01*
X71227564Y-90873012D01*
X71297821Y-90973828D01*
X71345054Y-91084034D01*
X71350355Y-91103093D01*
X71366136Y-91200962D01*
X71368020Y-91307460D01*
X71356361Y-91411707D01*
X71331509Y-91502827D01*
X71317030Y-91536419D01*
X71256075Y-91636022D01*
X71174119Y-91725822D01*
X71075636Y-91801478D01*
X70965100Y-91858643D01*
X70886978Y-91890193D01*
X70048892Y-91894084D01*
X69953716Y-91894523D01*
X69795676Y-91895213D01*
X69661651Y-91895682D01*
X69549549Y-91895870D01*
X69457279Y-91895718D01*
X69382750Y-91895167D01*
X69323872Y-91894158D01*
X69278554Y-91892631D01*
X69244705Y-91890527D01*
X69220235Y-91887786D01*
X69203052Y-91884350D01*
X69191066Y-91880159D01*
X69182186Y-91875154D01*
X69174320Y-91869275D01*
X69160824Y-91856282D01*
X69139962Y-91813422D01*
X69140777Y-91764599D01*
X69163847Y-91718148D01*
X69189859Y-91686013D01*
X70024806Y-91679207D01*
X70859754Y-91672401D01*
X70929493Y-91635612D01*
X70961125Y-91617244D01*
X71041762Y-91550828D01*
X71101878Y-91468737D01*
X71139439Y-91374301D01*
X71152412Y-91270847D01*
X71150895Y-91234973D01*
X71129359Y-91134203D01*
X71083924Y-91043579D01*
X71016624Y-90966429D01*
X70929493Y-90906081D01*
X70859754Y-90869293D01*
X70002197Y-90862487D01*
X69144641Y-90855681D01*
X69083387Y-90819578D01*
X69064122Y-90807187D01*
X69022118Y-90774003D01*
X68991461Y-90741799D01*
X68991022Y-90741201D01*
X68961254Y-90686138D01*
X68939776Y-90619017D01*
X68929270Y-90551115D01*
X68932421Y-90493711D01*
X68946644Y-90449742D01*
X68973644Y-90392553D01*
X69006023Y-90339801D01*
X69037737Y-90302458D01*
X69037933Y-90302291D01*
X69053890Y-90291148D01*
X69091030Y-90266440D01*
X69147691Y-90229246D01*
X69222211Y-90180641D01*
X69312928Y-90121704D01*
X69418179Y-90053510D01*
X69536303Y-89977136D01*
X69665638Y-89893660D01*
X69804522Y-89804159D01*
X69951292Y-89709709D01*
X70104287Y-89611388D01*
X70113257Y-89605627D01*
X70265623Y-89507646D01*
X70411431Y-89413656D01*
X70549044Y-89324727D01*
X70676823Y-89241926D01*
X70793132Y-89166322D01*
X70896334Y-89098982D01*
X70984791Y-89040975D01*
X71056867Y-88993369D01*
X71110923Y-88957232D01*
X71145322Y-88933633D01*
X71158428Y-88923639D01*
X71162273Y-88914501D01*
X71157443Y-88889368D01*
X71138170Y-88869563D01*
X71112527Y-88865339D01*
X71096221Y-88873953D01*
X71059085Y-88896180D01*
X71003102Y-88930742D01*
X70930250Y-88976364D01*
X70842505Y-89031770D01*
X70741843Y-89095684D01*
X70630241Y-89166833D01*
X70509675Y-89243940D01*
X70382122Y-89325729D01*
X70249557Y-89410926D01*
X70113958Y-89498255D01*
X69977300Y-89586440D01*
X69841561Y-89674207D01*
X69708716Y-89760280D01*
X69580742Y-89843383D01*
X69459616Y-89922242D01*
X69347313Y-89995580D01*
X69245810Y-90062122D01*
X69157084Y-90120594D01*
X69083111Y-90169719D01*
X69025867Y-90208222D01*
X68987329Y-90234828D01*
X68969473Y-90248262D01*
X68943848Y-90276405D01*
X68907515Y-90326763D01*
X68877603Y-90379261D01*
X68865824Y-90406286D01*
X68841346Y-90503009D01*
X68841608Y-90600404D01*
X68865195Y-90694356D01*
X68910690Y-90780750D01*
X68976679Y-90855472D01*
X69061744Y-90914406D01*
X69131029Y-90950965D01*
X69988585Y-90957771D01*
X70846142Y-90964577D01*
X70908351Y-91001149D01*
X70961230Y-91040095D01*
X71015072Y-91105126D01*
X71048448Y-91180044D01*
X71061360Y-91260210D01*
X71053806Y-91340983D01*
X71025786Y-91417723D01*
X70977301Y-91485790D01*
X70908351Y-91540545D01*
X70846142Y-91577117D01*
X69995391Y-91583923D01*
X69923996Y-91584501D01*
X69759442Y-91585914D01*
X69619190Y-91587290D01*
X69501140Y-91588702D01*
X69403192Y-91590220D01*
X69323246Y-91591918D01*
X69259201Y-91593866D01*
X69208957Y-91596136D01*
X69170413Y-91598801D01*
X69141471Y-91601932D01*
X69120028Y-91605600D01*
X69103985Y-91609879D01*
X69091243Y-91614839D01*
X69016363Y-91657883D01*
X68937761Y-91730575D01*
X68878123Y-91822271D01*
X68870385Y-91838145D01*
X68851285Y-91881728D01*
X68841488Y-91918304D01*
X68838823Y-91959236D01*
X68841117Y-92015887D01*
X68845831Y-92065659D01*
X68856782Y-92125417D01*
X68871257Y-92167393D01*
X68903824Y-92217586D01*
X68953716Y-92275748D01*
X69009523Y-92327725D01*
X69062357Y-92364357D01*
X69067645Y-92367161D01*
X69077999Y-92372136D01*
X69089871Y-92376469D01*
X69105098Y-92380219D01*
X69125515Y-92383442D01*
X69152959Y-92386196D01*
X69189265Y-92388539D01*
X69236270Y-92390529D01*
X69295810Y-92392223D01*
X69369721Y-92393679D01*
X69459838Y-92394955D01*
X69567999Y-92396107D01*
X69696039Y-92397195D01*
X69845794Y-92398275D01*
X70019101Y-92399405D01*
X70217795Y-92400643D01*
X71318172Y-92407449D01*
X71344188Y-92439584D01*
X71354737Y-92455548D01*
X71368828Y-92503045D01*
X71364880Y-92551919D01*
X71342980Y-92591211D01*
X71341898Y-92592281D01*
X71336243Y-92597094D01*
X71328629Y-92601277D01*
X71317250Y-92604873D01*
X71300301Y-92607928D01*
X71275979Y-92610483D01*
X71242479Y-92612584D01*
X71197996Y-92614274D01*
X71140725Y-92615597D01*
X71068863Y-92616598D01*
X70980603Y-92617319D01*
X70874143Y-92617805D01*
X70747677Y-92618099D01*
X70599400Y-92618246D01*
X70427509Y-92618290D01*
X70230198Y-92618274D01*
X70040653Y-92618233D01*
X69860739Y-92618105D01*
X69704393Y-92617796D01*
X69569718Y-92617210D01*
X69454816Y-92616250D01*
X69357791Y-92614821D01*
X69276744Y-92612826D01*
X69209780Y-92610169D01*
X69155001Y-92606754D01*
X69110509Y-92602486D01*
X69074408Y-92597266D01*
X69044800Y-92591000D01*
X69019789Y-92583592D01*
X68997477Y-92574944D01*
X68975967Y-92564962D01*
X68953362Y-92553548D01*
X68921285Y-92534276D01*
X68874022Y-92500316D01*
X68828557Y-92462727D01*
X68779744Y-92414869D01*
X68704622Y-92316576D01*
X68654176Y-92208871D01*
X68627511Y-92089541D01*
X68623732Y-91956375D01*
X68624986Y-91934095D01*
X68630303Y-91873696D01*
X68639368Y-91826596D01*
X68654802Y-91782083D01*
X68679225Y-91729442D01*
X68729821Y-91642769D01*
X68814358Y-91542623D01*
X68916598Y-91462977D01*
X69035762Y-91404542D01*
X69043735Y-91401586D01*
X69060597Y-91395756D01*
X69078306Y-91390792D01*
X69099059Y-91386609D01*
X69125056Y-91383123D01*
X69158493Y-91380251D01*
X69201569Y-91377907D01*
X69256482Y-91376008D01*
X69325431Y-91374470D01*
X69410612Y-91373207D01*
X69514225Y-91372137D01*
X69638468Y-91371175D01*
X69785537Y-91370237D01*
X69957633Y-91369238D01*
X70797848Y-91364447D01*
X70825398Y-91329423D01*
X70848877Y-91287393D01*
X70847333Y-91248324D01*
X70819536Y-91208974D01*
X70786125Y-91175563D01*
X69992607Y-91175362D01*
X69857309Y-91175302D01*
X69698310Y-91175052D01*
X69562517Y-91174437D01*
X69447632Y-91173272D01*
X69351354Y-91171371D01*
X69271385Y-91168547D01*
X69205424Y-91164614D01*
X69151173Y-91159386D01*
X69106332Y-91152677D01*
X69068600Y-91144301D01*
X69035680Y-91134072D01*
X69005271Y-91121804D01*
X68975074Y-91107311D01*
X68942789Y-91090406D01*
X68934628Y-91085968D01*
X68833607Y-91014706D01*
X68747359Y-90922160D01*
X68678820Y-90811433D01*
X68675911Y-90805524D01*
X68651088Y-90751040D01*
X68635997Y-90704847D01*
X68627658Y-90655109D01*
X68623094Y-90589993D01*
X68621964Y-90561125D01*
X68622691Y-90494006D01*
X68630164Y-90436575D01*
X68645714Y-90376257D01*
X68670274Y-90309746D01*
X68718243Y-90217053D01*
X68776608Y-90134307D01*
X68839891Y-90070144D01*
X68863291Y-90052975D01*
X68907400Y-90022698D01*
X68969866Y-89980888D01*
X69048727Y-89928801D01*
X69142019Y-89867690D01*
X69247783Y-89798810D01*
X69364056Y-89723415D01*
X69488876Y-89642761D01*
X69620282Y-89558102D01*
X69756312Y-89470693D01*
X69895003Y-89381787D01*
X70034395Y-89292640D01*
X70172526Y-89204506D01*
X70307433Y-89118640D01*
X70437156Y-89036296D01*
X70559731Y-88958730D01*
X70673198Y-88887195D01*
X70775595Y-88822946D01*
X70864960Y-88767237D01*
X70939331Y-88721324D01*
X70996747Y-88686461D01*
X71035245Y-88663903D01*
X71052864Y-88654903D01*
X71093203Y-88648307D01*
X71165731Y-88655619D01*
G37*
%TD*%
M02*
