%TF.GenerationSoftware,KiCad,Pcbnew,8.0.2*%
%TF.CreationDate,2024-06-06T14:24:50+10:00*%
%TF.ProjectId,design,64657369-676e-42e6-9b69-6361645f7063,rev?*%
%TF.SameCoordinates,Original*%
%TF.FileFunction,Copper,L2,Bot*%
%TF.FilePolarity,Positive*%
%FSLAX46Y46*%
G04 Gerber Fmt 4.6, Leading zero omitted, Abs format (unit mm)*
G04 Created by KiCad (PCBNEW 8.0.2) date 2024-06-06 14:24:50*
%MOMM*%
%LPD*%
G01*
G04 APERTURE LIST*
%TA.AperFunction,ComponentPad*%
%ADD10O,1.000000X2.100000*%
%TD*%
%TA.AperFunction,ComponentPad*%
%ADD11O,1.000000X1.600000*%
%TD*%
%TA.AperFunction,ComponentPad*%
%ADD12R,1.700000X1.700000*%
%TD*%
%TA.AperFunction,ComponentPad*%
%ADD13O,1.700000X1.700000*%
%TD*%
%TA.AperFunction,ViaPad*%
%ADD14C,0.800000*%
%TD*%
%TA.AperFunction,ViaPad*%
%ADD15C,0.600000*%
%TD*%
%TA.AperFunction,Conductor*%
%ADD16C,0.203200*%
%TD*%
%TA.AperFunction,Conductor*%
%ADD17C,0.812800*%
%TD*%
%TA.AperFunction,Conductor*%
%ADD18C,0.304800*%
%TD*%
G04 APERTURE END LIST*
D10*
%TO.P,J1,S1,SHIELD*%
%TO.N,GND*%
X68180000Y-105895000D03*
D11*
X68180000Y-110075000D03*
D10*
X76820000Y-105895000D03*
D11*
X76820000Y-110075000D03*
%TD*%
D12*
%TO.P,J2,1,Pin_1*%
%TO.N,+3.3V*%
X93000000Y-64000000D03*
D13*
%TO.P,J2,2,Pin_2*%
%TO.N,GND*%
X93000000Y-66540000D03*
%TO.P,J2,3,Pin_3*%
%TO.N,/IO2*%
X93000000Y-69080000D03*
%TO.P,J2,4,Pin_4*%
%TO.N,/IO3*%
X93000000Y-71620000D03*
%TO.P,J2,5,Pin_5*%
%TO.N,/TXD0*%
X93000000Y-74160000D03*
%TO.P,J2,6,Pin_6*%
%TO.N,/RXD0*%
X93000000Y-76700000D03*
%TO.P,J2,7,Pin_7*%
%TO.N,/IO15*%
X93000000Y-79240000D03*
%TO.P,J2,8,Pin_8*%
%TO.N,/IO23*%
X93000000Y-81780000D03*
%TO.P,J2,9,Pin_9*%
%TO.N,/IO22*%
X93000000Y-84320000D03*
%TO.P,J2,10,Pin_10*%
%TO.N,/IO21*%
X93000000Y-86860000D03*
%TO.P,J2,11,Pin_11*%
%TO.N,/IO20*%
X93000000Y-89400000D03*
%TO.P,J2,12,Pin_12*%
%TO.N,/IO19*%
X93000000Y-91940000D03*
%TO.P,J2,13,Pin_13*%
%TO.N,/IO18*%
X93000000Y-94480000D03*
%TO.P,J2,14,Pin_14*%
%TO.N,/IO9*%
X93000000Y-97020000D03*
%TO.P,J2,15,Pin_15*%
%TO.N,GND*%
X93000000Y-99560000D03*
%TO.P,J2,16,Pin_16*%
%TO.N,/VIN*%
X93000000Y-102100000D03*
%TD*%
D12*
%TO.P,J6,1,Pin_1*%
%TO.N,+3.3V*%
X52000000Y-64000000D03*
D13*
%TO.P,J6,2,Pin_2*%
%TO.N,GND*%
X52000000Y-66540000D03*
%TO.P,J6,3,Pin_3*%
%TO.N,/RESET*%
X52000000Y-69080000D03*
%TO.P,J6,4,Pin_4*%
%TO.N,/IO4*%
X52000000Y-71620000D03*
%TO.P,J6,5,Pin_5*%
%TO.N,/IO5*%
X52000000Y-74160000D03*
%TO.P,J6,6,Pin_6*%
%TO.N,/IO6*%
X52000000Y-76700000D03*
%TO.P,J6,7,Pin_7*%
%TO.N,/IO7*%
X52000000Y-79240000D03*
%TO.P,J6,8,Pin_8*%
%TO.N,/IO0*%
X52000000Y-81780000D03*
%TO.P,J6,9,Pin_9*%
%TO.N,/IO1*%
X52000000Y-84320000D03*
%TO.P,J6,10,Pin_10*%
%TO.N,/IO8*%
X52000000Y-86860000D03*
%TO.P,J6,11,Pin_11*%
%TO.N,/IO10*%
X52000000Y-89400000D03*
%TO.P,J6,12,Pin_12*%
%TO.N,/IO11*%
X52000000Y-91940000D03*
%TO.P,J6,13,Pin_13*%
%TO.N,/IO12*%
X52000000Y-94480000D03*
%TO.P,J6,14,Pin_14*%
%TO.N,/IO13*%
X52000000Y-97020000D03*
%TO.P,J6,15,Pin_15*%
%TO.N,GND*%
X52000000Y-99560000D03*
%TO.P,J6,16,Pin_16*%
%TO.N,VBUS*%
X52000000Y-102100000D03*
%TD*%
D12*
%TO.P,J5,1,Pin_1*%
%TO.N,+3.3V*%
X78400000Y-99260000D03*
D13*
%TO.P,J5,2,Pin_2*%
%TO.N,/TXD0*%
X78400000Y-96720000D03*
%TO.P,J5,3,Pin_3*%
%TO.N,/RXD0*%
X78400000Y-94180000D03*
%TO.P,J5,4,Pin_4*%
%TO.N,GND*%
X78400000Y-91640000D03*
%TO.P,J5,5,Pin_5*%
%TO.N,/~DTR*%
X78400000Y-89100000D03*
%TO.P,J5,6,Pin_6*%
%TO.N,/~RTS*%
X78400000Y-86560000D03*
%TD*%
D14*
%TO.N,/TXD0*%
X80000000Y-67000000D03*
%TO.N,/RXD0*%
X80000000Y-68500000D03*
%TO.N,GND*%
X67000000Y-69500000D03*
X67000000Y-68000000D03*
X67000000Y-66500000D03*
X67000000Y-65000000D03*
X79000000Y-69500000D03*
X79000000Y-68000000D03*
X79000000Y-66500000D03*
X79000000Y-65000000D03*
X56000000Y-56000000D03*
X89000000Y-56000000D03*
X82000000Y-106500000D03*
X84500000Y-97500000D03*
X84000000Y-101000000D03*
X89500000Y-98000000D03*
X86000000Y-92000000D03*
X85500000Y-89000000D03*
X71500000Y-85500000D03*
X58500000Y-100000000D03*
X58500000Y-98500000D03*
X61500000Y-99000000D03*
X63000000Y-98000000D03*
X74000000Y-100500000D03*
D15*
X69382222Y-100617778D03*
D14*
X60500000Y-88000000D03*
X60500000Y-90000000D03*
X58500000Y-94500000D03*
X58500000Y-96500000D03*
X67500000Y-83500000D03*
X65000000Y-83500000D03*
X79000000Y-75500000D03*
X79000000Y-78000000D03*
X79000000Y-80500000D03*
X79000000Y-71000000D03*
X75000000Y-71000000D03*
X67500000Y-71000000D03*
X87000000Y-63000000D03*
X56000000Y-63000000D03*
X57500000Y-63000000D03*
X79500000Y-63000000D03*
X78000000Y-63000000D03*
X76500000Y-63000000D03*
X75000000Y-63000000D03*
X73500000Y-63000000D03*
X72000000Y-63000000D03*
X70500000Y-63000000D03*
X69000000Y-63000000D03*
X67500000Y-63000000D03*
X66000000Y-63000000D03*
X59600000Y-68400000D03*
%TO.N,+3.3V*%
X58200000Y-64395000D03*
X62700000Y-82400000D03*
D15*
%TO.N,/RESET*%
X60150000Y-106050000D03*
X70800000Y-82800000D03*
D14*
%TO.N,GND*%
X70094273Y-97450933D03*
%TO.N,+3.3V*%
X61600000Y-96400000D03*
%TO.N,/IO9*%
X86000000Y-107900000D03*
%TO.N,Net-(D1-K)*%
X66000000Y-99100000D03*
X82300000Y-103500000D03*
D15*
%TO.N,/IO8*%
X54600000Y-83800000D03*
X60500000Y-83800000D03*
%TO.N,/D+*%
X73488956Y-104099428D03*
X72126956Y-104122821D03*
%TD*%
D16*
%TO.N,/TXD0*%
X80654000Y-67654000D02*
X80000000Y-67000000D01*
X80654000Y-94466000D02*
X80654000Y-67654000D01*
X78400000Y-96720000D02*
X80654000Y-94466000D01*
%TO.N,/RXD0*%
X80000000Y-92580000D02*
X80000000Y-68500000D01*
X78400000Y-94180000D02*
X80000000Y-92580000D01*
D17*
%TO.N,+3.3V*%
X89700000Y-94700000D02*
X85140000Y-99260000D01*
X89700000Y-66100000D02*
X89700000Y-94700000D01*
X89800000Y-66000000D02*
X89700000Y-66100000D01*
X89800000Y-65500000D02*
X89800000Y-66000000D01*
X91300000Y-64000000D02*
X89800000Y-65500000D01*
X93000000Y-64000000D02*
X91300000Y-64000000D01*
X85140000Y-99260000D02*
X78400000Y-99260000D01*
X58200000Y-77900000D02*
X58200000Y-64395000D01*
X62700000Y-82400000D02*
X58200000Y-77900000D01*
D16*
%TO.N,/RESET*%
X60100000Y-93500000D02*
X70800000Y-82800000D01*
X60150000Y-106050000D02*
X60100000Y-106000000D01*
X60100000Y-106000000D02*
X60100000Y-93500000D01*
D17*
%TO.N,+3.3V*%
X68460000Y-99260000D02*
X78400000Y-99260000D01*
X65600000Y-96400000D02*
X68460000Y-99260000D01*
X61600000Y-96400000D02*
X65600000Y-96400000D01*
D16*
%TO.N,/IO9*%
X86000000Y-107900000D02*
X86000000Y-104020000D01*
X86000000Y-104020000D02*
X93000000Y-97020000D01*
D17*
%TO.N,Net-(D1-K)*%
X68800000Y-101900000D02*
X66000000Y-99100000D01*
X80700000Y-101900000D02*
X70200000Y-101900000D01*
X82300000Y-103500000D02*
X80700000Y-101900000D01*
X70200000Y-101900000D02*
X68800000Y-101900000D01*
D16*
%TO.N,/IO8*%
X60500000Y-83800000D02*
X54600000Y-83800000D01*
D18*
%TO.N,/D+*%
X72150349Y-104099428D02*
X72126956Y-104122821D01*
X73488956Y-104099428D02*
X72150349Y-104099428D01*
%TD*%
%TA.AperFunction,Conductor*%
%TO.N,GND*%
G36*
X57742539Y-55220185D02*
G01*
X57788294Y-55272989D01*
X57799500Y-55324500D01*
X57799500Y-61960118D01*
X57799500Y-62039882D01*
X57830024Y-62113574D01*
X57886426Y-62169976D01*
X57960118Y-62200500D01*
X57960120Y-62200500D01*
X87039880Y-62200500D01*
X87039882Y-62200500D01*
X87113574Y-62169976D01*
X87169976Y-62113574D01*
X87200500Y-62039882D01*
X87200500Y-58883306D01*
X89219500Y-58883306D01*
X89219500Y-59116693D01*
X89219501Y-59116709D01*
X89249964Y-59348100D01*
X89310375Y-59573555D01*
X89399690Y-59789181D01*
X89399695Y-59789192D01*
X89516387Y-59991307D01*
X89516398Y-59991323D01*
X89658475Y-60176482D01*
X89658481Y-60176489D01*
X89823510Y-60341518D01*
X89823516Y-60341523D01*
X90008685Y-60483608D01*
X90008692Y-60483612D01*
X90210807Y-60600304D01*
X90210812Y-60600306D01*
X90210815Y-60600308D01*
X90426449Y-60689626D01*
X90651896Y-60750035D01*
X90883300Y-60780500D01*
X90883307Y-60780500D01*
X91116693Y-60780500D01*
X91116700Y-60780500D01*
X91348104Y-60750035D01*
X91573551Y-60689626D01*
X91789185Y-60600308D01*
X91991315Y-60483608D01*
X92176484Y-60341523D01*
X92341523Y-60176484D01*
X92483608Y-59991315D01*
X92600308Y-59789185D01*
X92689626Y-59573551D01*
X92750035Y-59348104D01*
X92780500Y-59116700D01*
X92780500Y-58883300D01*
X92750035Y-58651896D01*
X92689626Y-58426449D01*
X92600308Y-58210815D01*
X92600306Y-58210812D01*
X92600304Y-58210807D01*
X92483612Y-58008692D01*
X92483608Y-58008685D01*
X92341523Y-57823516D01*
X92341518Y-57823510D01*
X92176489Y-57658481D01*
X92176482Y-57658475D01*
X91991323Y-57516398D01*
X91991321Y-57516396D01*
X91991315Y-57516392D01*
X91991310Y-57516389D01*
X91991307Y-57516387D01*
X91789192Y-57399695D01*
X91789181Y-57399690D01*
X91573555Y-57310375D01*
X91460827Y-57280169D01*
X91348104Y-57249965D01*
X91348103Y-57249964D01*
X91348100Y-57249964D01*
X91116709Y-57219501D01*
X91116706Y-57219500D01*
X91116700Y-57219500D01*
X90883300Y-57219500D01*
X90883294Y-57219500D01*
X90883290Y-57219501D01*
X90651899Y-57249964D01*
X90426444Y-57310375D01*
X90210818Y-57399690D01*
X90210807Y-57399695D01*
X90008692Y-57516387D01*
X90008676Y-57516398D01*
X89823517Y-57658475D01*
X89823510Y-57658481D01*
X89658481Y-57823510D01*
X89658475Y-57823517D01*
X89516398Y-58008676D01*
X89516387Y-58008692D01*
X89399695Y-58210807D01*
X89399690Y-58210818D01*
X89310375Y-58426444D01*
X89249964Y-58651899D01*
X89219501Y-58883290D01*
X89219500Y-58883306D01*
X87200500Y-58883306D01*
X87200500Y-55324500D01*
X87220185Y-55257461D01*
X87272989Y-55211706D01*
X87324500Y-55200500D01*
X89960118Y-55200500D01*
X89997294Y-55200500D01*
X90002702Y-55200617D01*
X90412917Y-55218528D01*
X90423654Y-55219468D01*
X90828057Y-55272708D01*
X90838695Y-55274583D01*
X91236925Y-55362869D01*
X91247365Y-55365667D01*
X91636363Y-55488317D01*
X91646524Y-55492015D01*
X92023363Y-55648108D01*
X92033155Y-55652674D01*
X92394965Y-55841020D01*
X92404305Y-55846413D01*
X92689636Y-56028189D01*
X92748309Y-56065568D01*
X92757170Y-56071772D01*
X93080766Y-56320076D01*
X93089053Y-56327030D01*
X93389767Y-56602583D01*
X93397416Y-56610232D01*
X93672969Y-56910946D01*
X93679923Y-56919233D01*
X93928227Y-57242829D01*
X93934431Y-57251690D01*
X94103069Y-57516398D01*
X94153578Y-57595680D01*
X94158987Y-57605048D01*
X94347322Y-57966838D01*
X94351894Y-57976642D01*
X94507983Y-58353473D01*
X94511683Y-58363639D01*
X94634331Y-58752630D01*
X94637131Y-58763078D01*
X94725414Y-59161296D01*
X94727292Y-59171950D01*
X94780529Y-59576326D01*
X94781472Y-59587102D01*
X94799382Y-59997297D01*
X94799500Y-60002706D01*
X94799500Y-106997293D01*
X94799382Y-107002702D01*
X94781472Y-107412897D01*
X94780529Y-107423673D01*
X94727292Y-107828049D01*
X94725414Y-107838703D01*
X94637131Y-108236921D01*
X94634331Y-108247369D01*
X94511683Y-108636360D01*
X94507983Y-108646526D01*
X94351894Y-109023357D01*
X94347322Y-109033161D01*
X94158987Y-109394951D01*
X94153578Y-109404319D01*
X93934431Y-109748309D01*
X93928227Y-109757170D01*
X93679923Y-110080766D01*
X93672969Y-110089053D01*
X93397416Y-110389767D01*
X93389767Y-110397416D01*
X93089053Y-110672969D01*
X93080766Y-110679923D01*
X92757170Y-110928227D01*
X92748309Y-110934431D01*
X92404319Y-111153578D01*
X92394951Y-111158987D01*
X92033161Y-111347322D01*
X92023357Y-111351894D01*
X91646526Y-111507983D01*
X91636360Y-111511683D01*
X91247369Y-111634331D01*
X91236921Y-111637131D01*
X90838703Y-111725414D01*
X90828049Y-111727292D01*
X90423673Y-111780529D01*
X90412897Y-111781472D01*
X90002703Y-111799382D01*
X89997294Y-111799500D01*
X55002706Y-111799500D01*
X54997297Y-111799382D01*
X54587102Y-111781472D01*
X54576326Y-111780529D01*
X54171950Y-111727292D01*
X54161296Y-111725414D01*
X53763078Y-111637131D01*
X53752630Y-111634331D01*
X53363639Y-111511683D01*
X53353473Y-111507983D01*
X52976642Y-111351894D01*
X52966838Y-111347322D01*
X52847126Y-111285004D01*
X52605042Y-111158983D01*
X52595686Y-111153582D01*
X52423685Y-111044004D01*
X52251690Y-110934431D01*
X52242829Y-110928227D01*
X51919233Y-110679923D01*
X51910946Y-110672969D01*
X51610232Y-110397416D01*
X51602583Y-110389767D01*
X51327030Y-110089053D01*
X51320076Y-110080766D01*
X51071772Y-109757170D01*
X51065568Y-109748309D01*
X50971281Y-109600309D01*
X50846413Y-109404305D01*
X50841020Y-109394965D01*
X50652674Y-109033155D01*
X50648105Y-109023357D01*
X50634829Y-108991307D01*
X50492015Y-108646524D01*
X50488316Y-108636360D01*
X50468512Y-108573551D01*
X50365667Y-108247365D01*
X50362868Y-108236921D01*
X50330281Y-108089931D01*
X50284473Y-107883306D01*
X52219500Y-107883306D01*
X52219500Y-108116693D01*
X52219501Y-108116709D01*
X52249964Y-108348100D01*
X52310375Y-108573555D01*
X52399690Y-108789181D01*
X52399695Y-108789192D01*
X52516387Y-108991307D01*
X52516398Y-108991323D01*
X52658475Y-109176482D01*
X52658481Y-109176489D01*
X52823510Y-109341518D01*
X52823516Y-109341523D01*
X53008685Y-109483608D01*
X53008692Y-109483612D01*
X53210807Y-109600304D01*
X53210812Y-109600306D01*
X53210815Y-109600308D01*
X53426449Y-109689626D01*
X53651896Y-109750035D01*
X53883300Y-109780500D01*
X53883307Y-109780500D01*
X54116693Y-109780500D01*
X54116700Y-109780500D01*
X54348104Y-109750035D01*
X54573551Y-109689626D01*
X54789185Y-109600308D01*
X54991315Y-109483608D01*
X55176484Y-109341523D01*
X55341523Y-109176484D01*
X55483608Y-108991315D01*
X55600308Y-108789185D01*
X55689626Y-108573551D01*
X55750035Y-108348104D01*
X55780500Y-108116700D01*
X55780500Y-107900000D01*
X85086496Y-107900000D01*
X85106458Y-108089928D01*
X85106459Y-108089931D01*
X85165470Y-108271549D01*
X85165473Y-108271556D01*
X85260960Y-108436944D01*
X85388747Y-108578866D01*
X85543248Y-108691118D01*
X85717712Y-108768794D01*
X85904513Y-108808500D01*
X86095487Y-108808500D01*
X86282288Y-108768794D01*
X86456752Y-108691118D01*
X86611253Y-108578866D01*
X86739040Y-108436944D01*
X86834527Y-108271556D01*
X86893542Y-108089928D01*
X86913504Y-107900000D01*
X86911749Y-107883306D01*
X89219500Y-107883306D01*
X89219500Y-108116693D01*
X89219501Y-108116709D01*
X89249964Y-108348100D01*
X89310375Y-108573555D01*
X89399690Y-108789181D01*
X89399695Y-108789192D01*
X89516387Y-108991307D01*
X89516398Y-108991323D01*
X89658475Y-109176482D01*
X89658481Y-109176489D01*
X89823510Y-109341518D01*
X89823516Y-109341523D01*
X90008685Y-109483608D01*
X90008692Y-109483612D01*
X90210807Y-109600304D01*
X90210812Y-109600306D01*
X90210815Y-109600308D01*
X90426449Y-109689626D01*
X90651896Y-109750035D01*
X90883300Y-109780500D01*
X90883307Y-109780500D01*
X91116693Y-109780500D01*
X91116700Y-109780500D01*
X91348104Y-109750035D01*
X91573551Y-109689626D01*
X91789185Y-109600308D01*
X91991315Y-109483608D01*
X92176484Y-109341523D01*
X92341523Y-109176484D01*
X92483608Y-108991315D01*
X92600308Y-108789185D01*
X92689626Y-108573551D01*
X92750035Y-108348104D01*
X92780500Y-108116700D01*
X92780500Y-107883300D01*
X92750035Y-107651896D01*
X92689626Y-107426449D01*
X92600308Y-107210815D01*
X92600306Y-107210812D01*
X92600304Y-107210807D01*
X92483612Y-107008692D01*
X92483608Y-107008685D01*
X92374161Y-106866051D01*
X92341524Y-106823517D01*
X92341518Y-106823510D01*
X92176489Y-106658481D01*
X92176482Y-106658475D01*
X91991323Y-106516398D01*
X91991321Y-106516396D01*
X91991315Y-106516392D01*
X91991310Y-106516389D01*
X91991307Y-106516387D01*
X91789192Y-106399695D01*
X91789181Y-106399690D01*
X91573555Y-106310375D01*
X91348100Y-106249964D01*
X91116709Y-106219501D01*
X91116706Y-106219500D01*
X91116700Y-106219500D01*
X90883300Y-106219500D01*
X90883294Y-106219500D01*
X90883290Y-106219501D01*
X90651899Y-106249964D01*
X90426444Y-106310375D01*
X90210818Y-106399690D01*
X90210807Y-106399695D01*
X90008692Y-106516387D01*
X90008676Y-106516398D01*
X89823517Y-106658475D01*
X89823510Y-106658481D01*
X89658481Y-106823510D01*
X89658475Y-106823517D01*
X89516398Y-107008676D01*
X89516387Y-107008692D01*
X89399695Y-107210807D01*
X89399690Y-107210818D01*
X89310375Y-107426444D01*
X89249964Y-107651899D01*
X89219501Y-107883290D01*
X89219500Y-107883306D01*
X86911749Y-107883306D01*
X86893542Y-107710072D01*
X86834527Y-107528444D01*
X86739040Y-107363056D01*
X86641950Y-107255226D01*
X86611720Y-107192234D01*
X86610100Y-107172254D01*
X86610100Y-104324073D01*
X86629785Y-104257034D01*
X86646414Y-104236397D01*
X88782817Y-102099994D01*
X91636844Y-102099994D01*
X91636844Y-102100005D01*
X91655434Y-102324359D01*
X91655436Y-102324371D01*
X91710703Y-102542614D01*
X91801140Y-102748792D01*
X91924276Y-102937265D01*
X91924284Y-102937276D01*
X92076756Y-103102902D01*
X92076760Y-103102906D01*
X92254424Y-103241189D01*
X92254425Y-103241189D01*
X92254427Y-103241191D01*
X92336880Y-103285812D01*
X92452426Y-103348342D01*
X92665365Y-103421444D01*
X92887431Y-103458500D01*
X93112569Y-103458500D01*
X93334635Y-103421444D01*
X93547574Y-103348342D01*
X93745576Y-103241189D01*
X93923240Y-103102906D01*
X94075722Y-102937268D01*
X94198860Y-102748791D01*
X94289296Y-102542616D01*
X94344564Y-102324368D01*
X94363156Y-102100000D01*
X94344564Y-101875632D01*
X94289296Y-101657384D01*
X94198860Y-101451209D01*
X94075722Y-101262732D01*
X94075719Y-101262729D01*
X94075715Y-101262723D01*
X93923243Y-101097097D01*
X93923238Y-101097092D01*
X93779352Y-100985100D01*
X93745576Y-100958811D01*
X93745575Y-100958810D01*
X93745572Y-100958808D01*
X93547580Y-100851661D01*
X93547577Y-100851659D01*
X93547574Y-100851658D01*
X93547571Y-100851657D01*
X93547569Y-100851656D01*
X93334637Y-100778556D01*
X93112569Y-100741500D01*
X92887431Y-100741500D01*
X92665362Y-100778556D01*
X92452430Y-100851656D01*
X92452419Y-100851661D01*
X92254427Y-100958808D01*
X92254422Y-100958812D01*
X92076761Y-101097092D01*
X92076756Y-101097097D01*
X91924284Y-101262723D01*
X91924276Y-101262734D01*
X91801140Y-101451207D01*
X91710703Y-101657385D01*
X91655436Y-101875628D01*
X91655434Y-101875640D01*
X91636844Y-102099994D01*
X88782817Y-102099994D01*
X92518325Y-98364485D01*
X92579646Y-98331002D01*
X92646264Y-98334886D01*
X92665365Y-98341444D01*
X92887431Y-98378500D01*
X93112569Y-98378500D01*
X93334635Y-98341444D01*
X93547574Y-98268342D01*
X93745576Y-98161189D01*
X93923240Y-98022906D01*
X94035239Y-97901244D01*
X94075715Y-97857276D01*
X94075716Y-97857274D01*
X94075722Y-97857268D01*
X94198860Y-97668791D01*
X94289296Y-97462616D01*
X94344564Y-97244368D01*
X94347348Y-97210770D01*
X94363156Y-97020005D01*
X94363156Y-97019994D01*
X94344565Y-96795640D01*
X94344563Y-96795628D01*
X94289296Y-96577385D01*
X94253436Y-96495632D01*
X94198860Y-96371209D01*
X94190593Y-96358556D01*
X94137291Y-96276970D01*
X94075722Y-96182732D01*
X94075719Y-96182729D01*
X94075715Y-96182723D01*
X93923243Y-96017097D01*
X93923238Y-96017092D01*
X93750616Y-95882734D01*
X93745576Y-95878811D01*
X93709070Y-95859055D01*
X93659479Y-95809836D01*
X93644371Y-95741619D01*
X93668541Y-95676064D01*
X93709070Y-95640945D01*
X93709084Y-95640936D01*
X93745576Y-95621189D01*
X93923240Y-95482906D01*
X94072109Y-95321193D01*
X94075715Y-95317276D01*
X94075716Y-95317274D01*
X94075722Y-95317268D01*
X94198860Y-95128791D01*
X94289296Y-94922616D01*
X94344564Y-94704368D01*
X94349570Y-94643960D01*
X94363156Y-94480005D01*
X94363156Y-94479994D01*
X94344565Y-94255640D01*
X94344563Y-94255628D01*
X94289296Y-94037385D01*
X94253436Y-93955632D01*
X94198860Y-93831209D01*
X94190593Y-93818556D01*
X94075723Y-93642734D01*
X94075715Y-93642723D01*
X93923243Y-93477097D01*
X93923238Y-93477092D01*
X93750616Y-93342734D01*
X93745576Y-93338811D01*
X93709070Y-93319055D01*
X93659479Y-93269836D01*
X93644371Y-93201619D01*
X93668541Y-93136064D01*
X93709070Y-93100945D01*
X93709084Y-93100936D01*
X93745576Y-93081189D01*
X93923240Y-92942906D01*
X94075722Y-92777268D01*
X94198860Y-92588791D01*
X94289296Y-92382616D01*
X94344564Y-92164368D01*
X94363156Y-91940000D01*
X94344564Y-91715632D01*
X94289296Y-91497384D01*
X94198860Y-91291209D01*
X94075722Y-91102732D01*
X94075719Y-91102729D01*
X94075715Y-91102723D01*
X93923243Y-90937097D01*
X93923238Y-90937092D01*
X93745577Y-90798812D01*
X93745578Y-90798812D01*
X93745576Y-90798811D01*
X93709070Y-90779055D01*
X93659479Y-90729836D01*
X93644371Y-90661619D01*
X93668541Y-90596064D01*
X93709070Y-90560945D01*
X93709084Y-90560936D01*
X93745576Y-90541189D01*
X93923240Y-90402906D01*
X94072111Y-90241191D01*
X94075715Y-90237276D01*
X94075716Y-90237274D01*
X94075722Y-90237268D01*
X94198860Y-90048791D01*
X94289296Y-89842616D01*
X94344564Y-89624368D01*
X94344565Y-89624359D01*
X94363156Y-89400005D01*
X94363156Y-89399994D01*
X94344565Y-89175640D01*
X94344563Y-89175628D01*
X94289296Y-88957385D01*
X94253436Y-88875632D01*
X94198860Y-88751209D01*
X94075722Y-88562732D01*
X94075719Y-88562729D01*
X94075715Y-88562723D01*
X93923243Y-88397097D01*
X93923238Y-88397092D01*
X93750616Y-88262734D01*
X93745576Y-88258811D01*
X93709070Y-88239055D01*
X93659479Y-88189836D01*
X93644371Y-88121619D01*
X93668541Y-88056064D01*
X93709070Y-88020945D01*
X93709084Y-88020936D01*
X93745576Y-88001189D01*
X93923240Y-87862906D01*
X94072109Y-87701193D01*
X94075715Y-87697276D01*
X94075716Y-87697274D01*
X94075722Y-87697268D01*
X94198860Y-87508791D01*
X94289296Y-87302616D01*
X94344564Y-87084368D01*
X94344565Y-87084359D01*
X94363156Y-86860005D01*
X94363156Y-86859994D01*
X94344565Y-86635640D01*
X94344563Y-86635628D01*
X94289296Y-86417385D01*
X94253436Y-86335632D01*
X94198860Y-86211209D01*
X94075722Y-86022732D01*
X94075719Y-86022729D01*
X94075715Y-86022723D01*
X93923243Y-85857097D01*
X93923238Y-85857092D01*
X93750616Y-85722734D01*
X93745576Y-85718811D01*
X93709070Y-85699055D01*
X93659479Y-85649836D01*
X93644371Y-85581619D01*
X93668541Y-85516064D01*
X93709070Y-85480945D01*
X93714386Y-85478068D01*
X93745576Y-85461189D01*
X93923240Y-85322906D01*
X94075722Y-85157268D01*
X94198860Y-84968791D01*
X94289296Y-84762616D01*
X94344564Y-84544368D01*
X94344565Y-84544359D01*
X94363156Y-84320005D01*
X94363156Y-84319994D01*
X94344565Y-84095640D01*
X94344563Y-84095628D01*
X94315547Y-83981046D01*
X94289296Y-83877384D01*
X94198860Y-83671209D01*
X94164719Y-83618953D01*
X94075723Y-83482734D01*
X94075715Y-83482723D01*
X93923243Y-83317097D01*
X93923238Y-83317092D01*
X93745577Y-83178812D01*
X93745578Y-83178812D01*
X93745576Y-83178811D01*
X93709070Y-83159055D01*
X93659479Y-83109836D01*
X93644371Y-83041619D01*
X93668541Y-82976064D01*
X93709070Y-82940945D01*
X93709084Y-82940936D01*
X93745576Y-82921189D01*
X93923240Y-82782906D01*
X94030071Y-82666858D01*
X94075715Y-82617276D01*
X94075716Y-82617274D01*
X94075722Y-82617268D01*
X94198860Y-82428791D01*
X94289296Y-82222616D01*
X94344564Y-82004368D01*
X94347691Y-81966633D01*
X94363156Y-81780005D01*
X94363156Y-81779994D01*
X94344565Y-81555640D01*
X94344563Y-81555628D01*
X94289296Y-81337385D01*
X94198859Y-81131207D01*
X94075723Y-80942734D01*
X94075715Y-80942723D01*
X93923243Y-80777097D01*
X93923238Y-80777092D01*
X93745577Y-80638812D01*
X93745578Y-80638812D01*
X93745576Y-80638811D01*
X93709070Y-80619055D01*
X93659479Y-80569836D01*
X93644371Y-80501619D01*
X93668541Y-80436064D01*
X93709070Y-80400945D01*
X93709084Y-80400936D01*
X93745576Y-80381189D01*
X93923240Y-80242906D01*
X94075722Y-80077268D01*
X94198860Y-79888791D01*
X94289296Y-79682616D01*
X94344564Y-79464368D01*
X94363156Y-79240000D01*
X94344564Y-79015632D01*
X94289296Y-78797384D01*
X94198860Y-78591209D01*
X94075722Y-78402732D01*
X94075715Y-78402723D01*
X93923243Y-78237097D01*
X93923238Y-78237092D01*
X93745577Y-78098812D01*
X93745578Y-78098812D01*
X93745576Y-78098811D01*
X93709070Y-78079055D01*
X93659479Y-78029836D01*
X93644371Y-77961619D01*
X93668541Y-77896064D01*
X93709070Y-77860945D01*
X93709084Y-77860936D01*
X93745576Y-77841189D01*
X93923240Y-77702906D01*
X94022614Y-77594957D01*
X94075715Y-77537276D01*
X94075716Y-77537274D01*
X94075722Y-77537268D01*
X94198860Y-77348791D01*
X94289296Y-77142616D01*
X94344564Y-76924368D01*
X94363156Y-76700000D01*
X94344564Y-76475632D01*
X94289296Y-76257384D01*
X94198860Y-76051209D01*
X94075722Y-75862732D01*
X94075719Y-75862729D01*
X94075715Y-75862723D01*
X93923243Y-75697097D01*
X93923238Y-75697092D01*
X93745577Y-75558812D01*
X93745578Y-75558812D01*
X93745576Y-75558811D01*
X93709070Y-75539055D01*
X93659479Y-75489836D01*
X93644371Y-75421619D01*
X93668541Y-75356064D01*
X93709070Y-75320945D01*
X93709084Y-75320936D01*
X93745576Y-75301189D01*
X93923240Y-75162906D01*
X94075722Y-74997268D01*
X94198860Y-74808791D01*
X94289296Y-74602616D01*
X94344564Y-74384368D01*
X94363156Y-74160000D01*
X94344564Y-73935632D01*
X94289296Y-73717384D01*
X94198860Y-73511209D01*
X94075722Y-73322732D01*
X94075719Y-73322729D01*
X94075715Y-73322723D01*
X93923243Y-73157097D01*
X93923238Y-73157092D01*
X93745577Y-73018812D01*
X93745578Y-73018812D01*
X93745576Y-73018811D01*
X93709070Y-72999055D01*
X93659479Y-72949836D01*
X93644371Y-72881619D01*
X93668541Y-72816064D01*
X93709070Y-72780945D01*
X93709084Y-72780936D01*
X93745576Y-72761189D01*
X93923240Y-72622906D01*
X94075722Y-72457268D01*
X94198860Y-72268791D01*
X94289296Y-72062616D01*
X94344564Y-71844368D01*
X94363156Y-71620000D01*
X94344564Y-71395632D01*
X94289296Y-71177384D01*
X94198860Y-70971209D01*
X94075722Y-70782732D01*
X94075719Y-70782729D01*
X94075715Y-70782723D01*
X93923243Y-70617097D01*
X93923238Y-70617092D01*
X93745577Y-70478812D01*
X93745578Y-70478812D01*
X93745576Y-70478811D01*
X93709070Y-70459055D01*
X93659479Y-70409836D01*
X93644371Y-70341619D01*
X93668541Y-70276064D01*
X93709070Y-70240945D01*
X93709084Y-70240936D01*
X93745576Y-70221189D01*
X93923240Y-70082906D01*
X94075722Y-69917268D01*
X94198860Y-69728791D01*
X94289296Y-69522616D01*
X94344564Y-69304368D01*
X94344565Y-69304359D01*
X94363156Y-69080005D01*
X94363156Y-69079994D01*
X94344565Y-68855640D01*
X94344563Y-68855628D01*
X94289296Y-68637385D01*
X94198859Y-68431207D01*
X94075723Y-68242734D01*
X94075715Y-68242723D01*
X93923243Y-68077097D01*
X93923238Y-68077092D01*
X93804797Y-67984905D01*
X93745576Y-67938811D01*
X93745575Y-67938810D01*
X93745572Y-67938808D01*
X93547580Y-67831661D01*
X93547577Y-67831659D01*
X93547574Y-67831658D01*
X93547571Y-67831657D01*
X93547569Y-67831656D01*
X93334637Y-67758556D01*
X93112569Y-67721500D01*
X92887431Y-67721500D01*
X92665362Y-67758556D01*
X92452430Y-67831656D01*
X92452419Y-67831661D01*
X92254427Y-67938808D01*
X92254422Y-67938812D01*
X92076761Y-68077092D01*
X92076756Y-68077097D01*
X91924284Y-68242723D01*
X91924276Y-68242734D01*
X91801140Y-68431207D01*
X91710703Y-68637385D01*
X91655436Y-68855628D01*
X91655434Y-68855640D01*
X91636844Y-69079994D01*
X91636844Y-69080005D01*
X91655434Y-69304359D01*
X91655436Y-69304371D01*
X91710703Y-69522614D01*
X91801140Y-69728792D01*
X91924276Y-69917265D01*
X91924284Y-69917276D01*
X92076756Y-70082902D01*
X92076760Y-70082906D01*
X92254424Y-70221189D01*
X92254429Y-70221191D01*
X92254431Y-70221193D01*
X92290930Y-70240946D01*
X92340520Y-70290165D01*
X92355628Y-70358382D01*
X92331457Y-70423937D01*
X92290930Y-70459054D01*
X92254431Y-70478806D01*
X92254422Y-70478812D01*
X92076761Y-70617092D01*
X92076756Y-70617097D01*
X91924284Y-70782723D01*
X91924276Y-70782734D01*
X91801140Y-70971207D01*
X91710703Y-71177385D01*
X91655436Y-71395628D01*
X91655434Y-71395640D01*
X91636844Y-71619994D01*
X91636844Y-71620005D01*
X91655434Y-71844359D01*
X91655436Y-71844371D01*
X91710703Y-72062614D01*
X91801140Y-72268792D01*
X91924276Y-72457265D01*
X91924284Y-72457276D01*
X92076756Y-72622902D01*
X92076760Y-72622906D01*
X92254424Y-72761189D01*
X92254429Y-72761191D01*
X92254431Y-72761193D01*
X92290930Y-72780946D01*
X92340520Y-72830165D01*
X92355628Y-72898382D01*
X92331457Y-72963937D01*
X92290930Y-72999054D01*
X92254431Y-73018806D01*
X92254422Y-73018812D01*
X92076761Y-73157092D01*
X92076756Y-73157097D01*
X91924284Y-73322723D01*
X91924276Y-73322734D01*
X91801140Y-73511207D01*
X91710703Y-73717385D01*
X91655436Y-73935628D01*
X91655434Y-73935640D01*
X91636844Y-74159994D01*
X91636844Y-74160005D01*
X91655434Y-74384359D01*
X91655436Y-74384371D01*
X91710703Y-74602614D01*
X91801140Y-74808792D01*
X91924276Y-74997265D01*
X91924284Y-74997276D01*
X92076756Y-75162902D01*
X92076760Y-75162906D01*
X92254424Y-75301189D01*
X92254429Y-75301191D01*
X92254431Y-75301193D01*
X92290930Y-75320946D01*
X92340520Y-75370165D01*
X92355628Y-75438382D01*
X92331457Y-75503937D01*
X92290930Y-75539054D01*
X92254431Y-75558806D01*
X92254422Y-75558812D01*
X92076761Y-75697092D01*
X92076756Y-75697097D01*
X91924284Y-75862723D01*
X91924276Y-75862734D01*
X91801140Y-76051207D01*
X91710703Y-76257385D01*
X91655436Y-76475628D01*
X91655434Y-76475640D01*
X91636844Y-76699994D01*
X91636844Y-76700005D01*
X91655434Y-76924359D01*
X91655436Y-76924371D01*
X91710703Y-77142614D01*
X91801140Y-77348792D01*
X91924276Y-77537265D01*
X91924284Y-77537276D01*
X92076756Y-77702902D01*
X92076760Y-77702906D01*
X92254424Y-77841189D01*
X92254429Y-77841191D01*
X92254431Y-77841193D01*
X92290930Y-77860946D01*
X92340520Y-77910165D01*
X92355628Y-77978382D01*
X92331457Y-78043937D01*
X92290930Y-78079054D01*
X92254431Y-78098806D01*
X92254422Y-78098812D01*
X92076761Y-78237092D01*
X92076756Y-78237097D01*
X91924284Y-78402723D01*
X91924278Y-78402732D01*
X91801140Y-78591207D01*
X91710703Y-78797385D01*
X91655436Y-79015628D01*
X91655434Y-79015640D01*
X91636844Y-79239994D01*
X91636844Y-79240005D01*
X91655434Y-79464359D01*
X91655436Y-79464371D01*
X91710703Y-79682614D01*
X91801140Y-79888792D01*
X91924276Y-80077265D01*
X91924284Y-80077276D01*
X92076756Y-80242902D01*
X92076760Y-80242906D01*
X92254424Y-80381189D01*
X92254429Y-80381191D01*
X92254431Y-80381193D01*
X92290930Y-80400946D01*
X92340520Y-80450165D01*
X92355628Y-80518382D01*
X92331457Y-80583937D01*
X92290930Y-80619054D01*
X92254431Y-80638806D01*
X92254422Y-80638812D01*
X92076761Y-80777092D01*
X92076756Y-80777097D01*
X91924284Y-80942723D01*
X91924276Y-80942734D01*
X91801140Y-81131207D01*
X91710703Y-81337385D01*
X91655436Y-81555628D01*
X91655434Y-81555640D01*
X91636844Y-81779994D01*
X91636844Y-81780005D01*
X91655434Y-82004359D01*
X91655436Y-82004371D01*
X91710703Y-82222614D01*
X91801140Y-82428792D01*
X91924276Y-82617265D01*
X91924284Y-82617276D01*
X92061062Y-82765854D01*
X92076760Y-82782906D01*
X92254424Y-82921189D01*
X92254429Y-82921191D01*
X92254431Y-82921193D01*
X92290930Y-82940946D01*
X92340520Y-82990165D01*
X92355628Y-83058382D01*
X92331457Y-83123937D01*
X92290930Y-83159054D01*
X92254431Y-83178806D01*
X92254422Y-83178812D01*
X92076761Y-83317092D01*
X92076756Y-83317097D01*
X91924284Y-83482723D01*
X91924276Y-83482734D01*
X91801140Y-83671207D01*
X91710703Y-83877385D01*
X91655436Y-84095628D01*
X91655434Y-84095640D01*
X91636844Y-84319994D01*
X91636844Y-84320005D01*
X91655434Y-84544359D01*
X91655436Y-84544371D01*
X91710703Y-84762614D01*
X91801140Y-84968792D01*
X91924276Y-85157265D01*
X91924284Y-85157276D01*
X92066405Y-85311658D01*
X92076760Y-85322906D01*
X92254424Y-85461189D01*
X92254429Y-85461191D01*
X92254431Y-85461193D01*
X92290930Y-85480946D01*
X92340520Y-85530165D01*
X92355628Y-85598382D01*
X92331457Y-85663937D01*
X92290930Y-85699054D01*
X92254431Y-85718806D01*
X92254422Y-85718812D01*
X92076761Y-85857092D01*
X92076756Y-85857097D01*
X91924284Y-86022723D01*
X91924276Y-86022734D01*
X91801140Y-86211207D01*
X91710703Y-86417385D01*
X91655436Y-86635628D01*
X91655434Y-86635640D01*
X91636844Y-86859994D01*
X91636844Y-86860005D01*
X91655434Y-87084359D01*
X91655436Y-87084371D01*
X91710703Y-87302614D01*
X91801140Y-87508792D01*
X91924276Y-87697265D01*
X91924284Y-87697276D01*
X92066405Y-87851658D01*
X92076760Y-87862906D01*
X92254424Y-88001189D01*
X92254429Y-88001191D01*
X92254431Y-88001193D01*
X92290930Y-88020946D01*
X92340520Y-88070165D01*
X92355628Y-88138382D01*
X92331457Y-88203937D01*
X92290930Y-88239054D01*
X92254431Y-88258806D01*
X92254422Y-88258812D01*
X92076761Y-88397092D01*
X92076756Y-88397097D01*
X91924284Y-88562723D01*
X91924276Y-88562734D01*
X91801140Y-88751207D01*
X91710703Y-88957385D01*
X91655436Y-89175628D01*
X91655434Y-89175640D01*
X91636844Y-89399994D01*
X91636844Y-89400005D01*
X91655434Y-89624359D01*
X91655436Y-89624371D01*
X91710703Y-89842614D01*
X91801140Y-90048792D01*
X91924276Y-90237265D01*
X91924284Y-90237276D01*
X92076756Y-90402902D01*
X92076760Y-90402906D01*
X92254424Y-90541189D01*
X92254429Y-90541191D01*
X92254431Y-90541193D01*
X92290930Y-90560946D01*
X92340520Y-90610165D01*
X92355628Y-90678382D01*
X92331457Y-90743937D01*
X92290930Y-90779054D01*
X92254431Y-90798806D01*
X92254422Y-90798812D01*
X92076761Y-90937092D01*
X92076756Y-90937097D01*
X91924284Y-91102723D01*
X91924276Y-91102734D01*
X91801140Y-91291207D01*
X91710703Y-91497385D01*
X91655436Y-91715628D01*
X91655434Y-91715640D01*
X91636844Y-91939994D01*
X91636844Y-91940005D01*
X91655434Y-92164359D01*
X91655436Y-92164371D01*
X91710703Y-92382614D01*
X91801140Y-92588792D01*
X91924276Y-92777265D01*
X91924284Y-92777276D01*
X92066405Y-92931658D01*
X92076760Y-92942906D01*
X92254424Y-93081189D01*
X92254429Y-93081191D01*
X92254431Y-93081193D01*
X92290930Y-93100946D01*
X92340520Y-93150165D01*
X92355628Y-93218382D01*
X92331457Y-93283937D01*
X92290930Y-93319054D01*
X92254431Y-93338806D01*
X92254422Y-93338812D01*
X92076761Y-93477092D01*
X92076756Y-93477097D01*
X91924284Y-93642723D01*
X91924276Y-93642734D01*
X91801140Y-93831207D01*
X91710703Y-94037385D01*
X91655436Y-94255628D01*
X91655434Y-94255640D01*
X91636844Y-94479994D01*
X91636844Y-94480005D01*
X91655434Y-94704359D01*
X91655436Y-94704371D01*
X91710703Y-94922614D01*
X91801140Y-95128792D01*
X91924276Y-95317265D01*
X91924284Y-95317276D01*
X92066405Y-95471658D01*
X92076760Y-95482906D01*
X92254424Y-95621189D01*
X92254429Y-95621191D01*
X92254431Y-95621193D01*
X92290930Y-95640946D01*
X92340520Y-95690165D01*
X92355628Y-95758382D01*
X92331457Y-95823937D01*
X92290930Y-95859054D01*
X92254431Y-95878806D01*
X92254422Y-95878812D01*
X92076761Y-96017092D01*
X92076756Y-96017097D01*
X91924284Y-96182723D01*
X91924276Y-96182734D01*
X91801140Y-96371207D01*
X91710703Y-96577385D01*
X91655436Y-96795628D01*
X91655434Y-96795640D01*
X91636844Y-97019994D01*
X91636844Y-97020005D01*
X91655435Y-97244364D01*
X91655435Y-97244367D01*
X91655436Y-97244368D01*
X91686944Y-97368792D01*
X91690148Y-97381442D01*
X91687523Y-97451262D01*
X91657623Y-97499563D01*
X87057194Y-102099994D01*
X85611084Y-103546104D01*
X85568593Y-103588595D01*
X85526102Y-103631085D01*
X85458651Y-103732034D01*
X85457005Y-103736634D01*
X85413347Y-103842033D01*
X85413343Y-103842047D01*
X85389900Y-103959905D01*
X85389900Y-107172254D01*
X85370215Y-107239293D01*
X85358050Y-107255226D01*
X85260959Y-107363057D01*
X85165473Y-107528443D01*
X85165470Y-107528450D01*
X85106459Y-107710068D01*
X85106458Y-107710072D01*
X85086496Y-107900000D01*
X55780500Y-107900000D01*
X55780500Y-107883300D01*
X55750035Y-107651896D01*
X55689626Y-107426449D01*
X55600308Y-107210815D01*
X55600306Y-107210812D01*
X55600304Y-107210807D01*
X55483612Y-107008692D01*
X55483608Y-107008685D01*
X55374161Y-106866051D01*
X55341524Y-106823517D01*
X55341518Y-106823510D01*
X55176489Y-106658481D01*
X55176482Y-106658475D01*
X54991323Y-106516398D01*
X54991321Y-106516396D01*
X54991315Y-106516392D01*
X54991310Y-106516389D01*
X54991307Y-106516387D01*
X54789192Y-106399695D01*
X54789181Y-106399690D01*
X54573555Y-106310375D01*
X54348100Y-106249964D01*
X54116709Y-106219501D01*
X54116706Y-106219500D01*
X54116700Y-106219500D01*
X53883300Y-106219500D01*
X53883294Y-106219500D01*
X53883290Y-106219501D01*
X53651899Y-106249964D01*
X53426444Y-106310375D01*
X53210818Y-106399690D01*
X53210807Y-106399695D01*
X53008692Y-106516387D01*
X53008676Y-106516398D01*
X52823517Y-106658475D01*
X52823510Y-106658481D01*
X52658481Y-106823510D01*
X52658475Y-106823517D01*
X52516398Y-107008676D01*
X52516387Y-107008692D01*
X52399695Y-107210807D01*
X52399690Y-107210818D01*
X52310375Y-107426444D01*
X52249964Y-107651899D01*
X52219501Y-107883290D01*
X52219500Y-107883306D01*
X50284473Y-107883306D01*
X50274583Y-107838695D01*
X50272707Y-107828049D01*
X50219468Y-107423654D01*
X50218528Y-107412917D01*
X50200618Y-107002702D01*
X50200500Y-106997293D01*
X50200500Y-106049996D01*
X59336384Y-106049996D01*
X59336384Y-106050003D01*
X59356781Y-106231041D01*
X59356782Y-106231046D01*
X59384541Y-106310375D01*
X59415795Y-106399695D01*
X59416958Y-106403017D01*
X59488197Y-106516392D01*
X59513889Y-106557281D01*
X59642719Y-106686111D01*
X59796985Y-106783043D01*
X59968953Y-106843217D01*
X59968958Y-106843218D01*
X60149996Y-106863616D01*
X60150000Y-106863616D01*
X60150004Y-106863616D01*
X60331041Y-106843218D01*
X60331044Y-106843217D01*
X60331047Y-106843217D01*
X60503015Y-106783043D01*
X60657281Y-106686111D01*
X60786111Y-106557281D01*
X60883043Y-106403015D01*
X60909134Y-106328450D01*
X69104500Y-106328450D01*
X69104500Y-106461550D01*
X69138949Y-106590116D01*
X69205499Y-106705384D01*
X69299616Y-106799501D01*
X69414884Y-106866051D01*
X69543450Y-106900500D01*
X69543452Y-106900500D01*
X69676548Y-106900500D01*
X69676550Y-106900500D01*
X69805116Y-106866051D01*
X69920384Y-106799501D01*
X70014501Y-106705384D01*
X70081051Y-106590116D01*
X70115500Y-106461550D01*
X70115500Y-106328450D01*
X74884500Y-106328450D01*
X74884500Y-106461550D01*
X74918949Y-106590116D01*
X74985499Y-106705384D01*
X75079616Y-106799501D01*
X75194884Y-106866051D01*
X75323450Y-106900500D01*
X75323452Y-106900500D01*
X75456548Y-106900500D01*
X75456550Y-106900500D01*
X75585116Y-106866051D01*
X75700384Y-106799501D01*
X75794501Y-106705384D01*
X75861051Y-106590116D01*
X75895500Y-106461550D01*
X75895500Y-106328450D01*
X75861051Y-106199884D01*
X75794501Y-106084616D01*
X75700384Y-105990499D01*
X75585116Y-105923949D01*
X75456550Y-105889500D01*
X75323450Y-105889500D01*
X75194884Y-105923949D01*
X75194881Y-105923950D01*
X75079619Y-105990497D01*
X75079613Y-105990501D01*
X74985501Y-106084613D01*
X74985497Y-106084619D01*
X74918950Y-106199881D01*
X74918949Y-106199884D01*
X74884500Y-106328450D01*
X70115500Y-106328450D01*
X70081051Y-106199884D01*
X70014501Y-106084616D01*
X69920384Y-105990499D01*
X69805116Y-105923949D01*
X69676550Y-105889500D01*
X69543450Y-105889500D01*
X69414884Y-105923949D01*
X69414881Y-105923950D01*
X69299619Y-105990497D01*
X69299613Y-105990501D01*
X69205501Y-106084613D01*
X69205497Y-106084619D01*
X69138950Y-106199881D01*
X69138949Y-106199884D01*
X69104500Y-106328450D01*
X60909134Y-106328450D01*
X60943217Y-106231047D01*
X60944518Y-106219500D01*
X60963616Y-106050003D01*
X60963616Y-106049996D01*
X60943218Y-105868958D01*
X60943217Y-105868953D01*
X60883043Y-105696985D01*
X60786111Y-105542719D01*
X60746419Y-105503027D01*
X60712934Y-105441704D01*
X60710100Y-105415346D01*
X60710100Y-104122817D01*
X71313340Y-104122817D01*
X71313340Y-104122824D01*
X71333737Y-104303862D01*
X71333738Y-104303867D01*
X71372590Y-104414899D01*
X71393913Y-104475836D01*
X71490845Y-104630102D01*
X71619675Y-104758932D01*
X71773941Y-104855864D01*
X71937353Y-104913044D01*
X71945909Y-104916038D01*
X71945914Y-104916039D01*
X72126952Y-104936437D01*
X72126956Y-104936437D01*
X72126960Y-104936437D01*
X72307997Y-104916039D01*
X72308000Y-104916038D01*
X72308003Y-104916038D01*
X72479971Y-104855864D01*
X72601767Y-104779333D01*
X72667739Y-104760328D01*
X72985402Y-104760328D01*
X73051373Y-104779333D01*
X73135941Y-104832471D01*
X73307909Y-104892645D01*
X73307914Y-104892646D01*
X73488952Y-104913044D01*
X73488956Y-104913044D01*
X73488960Y-104913044D01*
X73669997Y-104892646D01*
X73670000Y-104892645D01*
X73670003Y-104892645D01*
X73841971Y-104832471D01*
X73996237Y-104735539D01*
X74125067Y-104606709D01*
X74221999Y-104452443D01*
X74282173Y-104280475D01*
X74287140Y-104236392D01*
X74302572Y-104099431D01*
X74302572Y-104099424D01*
X74282174Y-103918386D01*
X74282173Y-103918381D01*
X74221999Y-103746413D01*
X74125067Y-103592147D01*
X73996237Y-103463317D01*
X73911202Y-103409886D01*
X73841973Y-103366386D01*
X73841972Y-103366385D01*
X73841971Y-103366385D01*
X73736857Y-103329604D01*
X73670002Y-103306210D01*
X73669997Y-103306209D01*
X73488960Y-103285812D01*
X73488952Y-103285812D01*
X73307914Y-103306209D01*
X73307909Y-103306210D01*
X73135938Y-103366386D01*
X73057239Y-103415836D01*
X73051376Y-103419521D01*
X73051374Y-103419522D01*
X72985402Y-103438528D01*
X72593280Y-103438528D01*
X72527307Y-103419521D01*
X72479973Y-103389779D01*
X72479975Y-103389779D01*
X72308002Y-103329603D01*
X72307997Y-103329602D01*
X72126960Y-103309205D01*
X72126952Y-103309205D01*
X71945914Y-103329602D01*
X71945909Y-103329603D01*
X71773938Y-103389779D01*
X71619674Y-103486710D01*
X71490845Y-103615539D01*
X71393914Y-103769803D01*
X71333738Y-103941774D01*
X71333737Y-103941779D01*
X71313340Y-104122817D01*
X60710100Y-104122817D01*
X60710100Y-97103327D01*
X60729785Y-97036288D01*
X60782589Y-96990533D01*
X60851747Y-96980589D01*
X60915303Y-97009614D01*
X60921781Y-97015646D01*
X61016781Y-97110646D01*
X61016785Y-97110649D01*
X61166625Y-97210770D01*
X61166631Y-97210773D01*
X61166632Y-97210774D01*
X61333133Y-97279741D01*
X61509885Y-97314899D01*
X61509889Y-97314900D01*
X61509890Y-97314900D01*
X65169674Y-97314900D01*
X65236713Y-97334585D01*
X65257355Y-97351219D01*
X65897108Y-97990972D01*
X65930593Y-98052295D01*
X65925609Y-98121987D01*
X65883737Y-98177920D01*
X65833619Y-98200270D01*
X65733139Y-98220257D01*
X65733133Y-98220259D01*
X65566635Y-98289224D01*
X65566626Y-98289229D01*
X65416785Y-98389350D01*
X65416781Y-98389353D01*
X65289353Y-98516781D01*
X65289350Y-98516785D01*
X65189229Y-98666626D01*
X65189224Y-98666635D01*
X65120259Y-98833133D01*
X65120257Y-98833141D01*
X65085100Y-99009886D01*
X65085100Y-99190113D01*
X65120257Y-99366858D01*
X65120259Y-99366866D01*
X65189224Y-99533364D01*
X65189229Y-99533373D01*
X65289350Y-99683214D01*
X65289353Y-99683218D01*
X68089351Y-102483215D01*
X68216785Y-102610649D01*
X68216786Y-102610650D01*
X68366625Y-102710770D01*
X68366631Y-102710773D01*
X68366632Y-102710774D01*
X68533133Y-102779741D01*
X68709885Y-102814899D01*
X68709889Y-102814900D01*
X68709890Y-102814900D01*
X68709891Y-102814900D01*
X68890109Y-102814900D01*
X70109890Y-102814900D01*
X80269674Y-102814900D01*
X80336713Y-102834585D01*
X80357355Y-102851219D01*
X81716782Y-104210647D01*
X81716786Y-104210650D01*
X81866629Y-104310773D01*
X81866631Y-104310773D01*
X81866633Y-104310775D01*
X82033134Y-104379741D01*
X82033136Y-104379741D01*
X82033141Y-104379743D01*
X82209886Y-104414899D01*
X82209890Y-104414900D01*
X82209891Y-104414900D01*
X82390111Y-104414900D01*
X82390112Y-104414899D01*
X82449029Y-104403180D01*
X82566859Y-104379743D01*
X82566862Y-104379741D01*
X82566867Y-104379741D01*
X82733368Y-104310775D01*
X82883215Y-104210650D01*
X83010650Y-104083215D01*
X83110775Y-103933368D01*
X83179741Y-103766867D01*
X83186874Y-103731010D01*
X83214899Y-103590114D01*
X83214900Y-103590111D01*
X83214900Y-103409890D01*
X83214899Y-103409886D01*
X83179743Y-103233141D01*
X83179740Y-103233132D01*
X83110775Y-103066633D01*
X83110773Y-103066631D01*
X83110773Y-103066629D01*
X83010650Y-102916786D01*
X83010647Y-102916782D01*
X81283218Y-101189353D01*
X81283210Y-101189347D01*
X81194774Y-101130256D01*
X81194773Y-101130256D01*
X81133365Y-101089224D01*
X80966867Y-101020259D01*
X80966859Y-101020257D01*
X80790114Y-100985100D01*
X80790110Y-100985100D01*
X70290110Y-100985100D01*
X69230326Y-100985100D01*
X69163287Y-100965415D01*
X69142645Y-100948781D01*
X68580445Y-100386581D01*
X68546960Y-100325258D01*
X68551944Y-100255566D01*
X68593816Y-100199633D01*
X68659280Y-100175216D01*
X68668126Y-100174900D01*
X76945393Y-100174900D01*
X77012432Y-100194585D01*
X77058187Y-100247389D01*
X77061574Y-100255566D01*
X77099110Y-100356203D01*
X77099111Y-100356204D01*
X77186739Y-100473261D01*
X77303796Y-100560889D01*
X77440799Y-100611989D01*
X77468050Y-100614918D01*
X77501345Y-100618499D01*
X77501362Y-100618500D01*
X79298638Y-100618500D01*
X79298654Y-100618499D01*
X79325692Y-100615591D01*
X79359201Y-100611989D01*
X79496204Y-100560889D01*
X79613261Y-100473261D01*
X79700889Y-100356204D01*
X79715541Y-100316920D01*
X79738426Y-100255566D01*
X79780297Y-100199632D01*
X79845762Y-100175216D01*
X79854607Y-100174900D01*
X85230111Y-100174900D01*
X85230112Y-100174899D01*
X85406867Y-100139741D01*
X85573368Y-100070774D01*
X85723215Y-99970649D01*
X85850649Y-99843215D01*
X85850649Y-99843214D01*
X90283212Y-95410650D01*
X90283215Y-95410649D01*
X90410649Y-95283215D01*
X90510774Y-95133368D01*
X90579741Y-94966867D01*
X90614900Y-94790110D01*
X90614900Y-66448071D01*
X90624339Y-66400618D01*
X90657262Y-66321135D01*
X90679741Y-66266867D01*
X90714900Y-66090110D01*
X90714900Y-65930325D01*
X90734585Y-65863286D01*
X90751215Y-65842648D01*
X91511679Y-65082183D01*
X91573000Y-65048700D01*
X91642691Y-65053684D01*
X91698625Y-65095555D01*
X91699111Y-65096204D01*
X91786739Y-65213261D01*
X91903796Y-65300889D01*
X92040799Y-65351989D01*
X92068050Y-65354918D01*
X92101345Y-65358499D01*
X92101362Y-65358500D01*
X93898638Y-65358500D01*
X93898654Y-65358499D01*
X93925692Y-65355591D01*
X93959201Y-65351989D01*
X94096204Y-65300889D01*
X94213261Y-65213261D01*
X94300889Y-65096204D01*
X94351989Y-64959201D01*
X94356549Y-64916785D01*
X94358499Y-64898654D01*
X94358500Y-64898637D01*
X94358500Y-63101362D01*
X94358499Y-63101345D01*
X94354093Y-63060368D01*
X94351989Y-63040799D01*
X94338425Y-63004434D01*
X94329522Y-62980564D01*
X94300889Y-62903796D01*
X94213261Y-62786739D01*
X94096204Y-62699111D01*
X93959203Y-62648011D01*
X93898654Y-62641500D01*
X93898638Y-62641500D01*
X92101362Y-62641500D01*
X92101345Y-62641500D01*
X92040797Y-62648011D01*
X92040795Y-62648011D01*
X91903795Y-62699111D01*
X91786739Y-62786739D01*
X91699110Y-62903796D01*
X91661574Y-63004434D01*
X91619703Y-63060368D01*
X91554238Y-63084784D01*
X91545393Y-63085100D01*
X91209885Y-63085100D01*
X91033140Y-63120257D01*
X91033132Y-63120259D01*
X90866634Y-63189224D01*
X90866625Y-63189229D01*
X90716785Y-63289350D01*
X90716781Y-63289353D01*
X89216785Y-64789351D01*
X89153067Y-64853069D01*
X89089349Y-64916786D01*
X88989229Y-65066625D01*
X88989224Y-65066634D01*
X88920259Y-65233132D01*
X88920257Y-65233140D01*
X88885100Y-65409885D01*
X88885100Y-65651927D01*
X88875661Y-65699379D01*
X88820260Y-65833128D01*
X88820257Y-65833140D01*
X88785100Y-66009885D01*
X88785100Y-94269674D01*
X88765415Y-94336713D01*
X88748781Y-94357355D01*
X84797355Y-98308781D01*
X84736032Y-98342266D01*
X84709674Y-98345100D01*
X79854607Y-98345100D01*
X79787568Y-98325415D01*
X79741813Y-98272611D01*
X79738426Y-98264434D01*
X79700889Y-98163796D01*
X79669591Y-98121987D01*
X79613261Y-98046739D01*
X79496204Y-97959111D01*
X79378404Y-97915172D01*
X79322471Y-97873300D01*
X79298055Y-97807835D01*
X79312908Y-97739562D01*
X79330504Y-97715014D01*
X79475722Y-97557268D01*
X79598860Y-97368791D01*
X79689296Y-97162616D01*
X79744564Y-96944368D01*
X79753762Y-96833368D01*
X79763156Y-96720005D01*
X79763156Y-96719994D01*
X79744565Y-96495640D01*
X79744564Y-96495637D01*
X79744564Y-96495632D01*
X79709851Y-96358555D01*
X79712476Y-96288735D01*
X79742374Y-96240436D01*
X81127896Y-94854916D01*
X81149301Y-94822881D01*
X81194664Y-94754991D01*
X81240654Y-94643960D01*
X81252296Y-94585427D01*
X81264100Y-94526092D01*
X81264100Y-67593909D01*
X81264099Y-67593908D01*
X81252769Y-67536944D01*
X81252769Y-67536943D01*
X81252769Y-67536940D01*
X81240656Y-67476048D01*
X81240655Y-67476041D01*
X81204566Y-67388916D01*
X81194664Y-67365009D01*
X81127896Y-67265084D01*
X81042916Y-67180104D01*
X80949823Y-67087011D01*
X80916338Y-67025688D01*
X80914270Y-67006454D01*
X80914183Y-67006464D01*
X80913504Y-67000000D01*
X80893542Y-66810072D01*
X80834527Y-66628444D01*
X80739040Y-66463056D01*
X80611253Y-66321134D01*
X80456752Y-66208882D01*
X80282288Y-66131206D01*
X80282286Y-66131205D01*
X80095487Y-66091500D01*
X79904513Y-66091500D01*
X79717714Y-66131205D01*
X79543246Y-66208883D01*
X79388745Y-66321135D01*
X79260959Y-66463057D01*
X79165473Y-66628443D01*
X79165470Y-66628450D01*
X79106459Y-66810068D01*
X79106458Y-66810072D01*
X79086496Y-67000000D01*
X79106458Y-67189928D01*
X79106459Y-67189931D01*
X79165470Y-67371549D01*
X79165473Y-67371556D01*
X79260959Y-67536943D01*
X79378087Y-67667028D01*
X79408317Y-67730020D01*
X79399691Y-67799355D01*
X79378087Y-67832972D01*
X79260959Y-67963056D01*
X79165473Y-68128443D01*
X79165470Y-68128450D01*
X79106459Y-68310068D01*
X79106458Y-68310072D01*
X79086496Y-68500000D01*
X79106458Y-68689928D01*
X79106459Y-68689931D01*
X79165470Y-68871549D01*
X79165473Y-68871556D01*
X79260960Y-69036944D01*
X79358050Y-69144773D01*
X79388280Y-69207764D01*
X79389900Y-69227745D01*
X79389900Y-85355330D01*
X79370215Y-85422369D01*
X79317411Y-85468124D01*
X79248253Y-85478068D01*
X79189737Y-85453183D01*
X79145577Y-85418812D01*
X79145572Y-85418808D01*
X78947580Y-85311661D01*
X78947577Y-85311659D01*
X78947574Y-85311658D01*
X78947571Y-85311657D01*
X78947569Y-85311656D01*
X78734637Y-85238556D01*
X78512569Y-85201500D01*
X78287431Y-85201500D01*
X78065362Y-85238556D01*
X77852430Y-85311656D01*
X77852419Y-85311661D01*
X77654427Y-85418808D01*
X77654422Y-85418812D01*
X77476761Y-85557092D01*
X77476756Y-85557097D01*
X77324284Y-85722723D01*
X77324276Y-85722734D01*
X77201140Y-85911207D01*
X77110703Y-86117385D01*
X77055436Y-86335628D01*
X77055434Y-86335640D01*
X77036844Y-86559994D01*
X77036844Y-86560005D01*
X77055434Y-86784359D01*
X77055436Y-86784371D01*
X77110703Y-87002614D01*
X77201140Y-87208792D01*
X77324276Y-87397265D01*
X77324284Y-87397276D01*
X77476756Y-87562902D01*
X77476760Y-87562906D01*
X77654424Y-87701189D01*
X77654429Y-87701191D01*
X77654431Y-87701193D01*
X77690930Y-87720946D01*
X77740520Y-87770165D01*
X77755628Y-87838382D01*
X77731457Y-87903937D01*
X77690930Y-87939054D01*
X77654431Y-87958806D01*
X77654422Y-87958812D01*
X77476761Y-88097092D01*
X77476756Y-88097097D01*
X77324284Y-88262723D01*
X77324276Y-88262734D01*
X77201140Y-88451207D01*
X77110703Y-88657385D01*
X77055436Y-88875628D01*
X77055434Y-88875640D01*
X77036844Y-89099994D01*
X77036844Y-89100005D01*
X77055434Y-89324359D01*
X77055436Y-89324371D01*
X77110703Y-89542614D01*
X77201140Y-89748792D01*
X77324276Y-89937265D01*
X77324284Y-89937276D01*
X77476756Y-90102902D01*
X77476760Y-90102906D01*
X77654424Y-90241189D01*
X77654425Y-90241189D01*
X77654427Y-90241191D01*
X77771725Y-90304669D01*
X77852426Y-90348342D01*
X78065365Y-90421444D01*
X78287431Y-90458500D01*
X78512569Y-90458500D01*
X78734635Y-90421444D01*
X78947574Y-90348342D01*
X79145576Y-90241189D01*
X79189737Y-90206816D01*
X79254730Y-90181173D01*
X79323270Y-90194739D01*
X79373595Y-90243206D01*
X79389900Y-90304669D01*
X79389900Y-92275925D01*
X79370215Y-92342964D01*
X79353581Y-92363606D01*
X78881675Y-92835511D01*
X78820352Y-92868996D01*
X78753731Y-92865111D01*
X78734637Y-92858556D01*
X78512569Y-92821500D01*
X78287431Y-92821500D01*
X78065362Y-92858556D01*
X77852430Y-92931656D01*
X77852419Y-92931661D01*
X77654427Y-93038808D01*
X77654422Y-93038812D01*
X77476761Y-93177092D01*
X77476756Y-93177097D01*
X77324284Y-93342723D01*
X77324276Y-93342734D01*
X77201140Y-93531207D01*
X77110703Y-93737385D01*
X77055436Y-93955628D01*
X77055434Y-93955640D01*
X77036844Y-94179994D01*
X77036844Y-94180005D01*
X77055434Y-94404359D01*
X77055436Y-94404371D01*
X77110703Y-94622614D01*
X77201140Y-94828792D01*
X77324276Y-95017265D01*
X77324284Y-95017276D01*
X77431162Y-95133374D01*
X77476760Y-95182906D01*
X77654424Y-95321189D01*
X77654429Y-95321191D01*
X77654431Y-95321193D01*
X77690930Y-95340946D01*
X77740520Y-95390165D01*
X77755628Y-95458382D01*
X77731457Y-95523937D01*
X77690930Y-95559054D01*
X77654431Y-95578806D01*
X77654422Y-95578812D01*
X77476761Y-95717092D01*
X77476756Y-95717097D01*
X77324284Y-95882723D01*
X77324276Y-95882734D01*
X77201140Y-96071207D01*
X77110703Y-96277385D01*
X77055436Y-96495628D01*
X77055434Y-96495640D01*
X77036844Y-96719994D01*
X77036844Y-96720005D01*
X77055434Y-96944359D01*
X77055436Y-96944371D01*
X77110703Y-97162614D01*
X77201140Y-97368792D01*
X77324276Y-97557265D01*
X77324284Y-97557276D01*
X77469489Y-97715008D01*
X77500412Y-97777662D01*
X77492552Y-97847088D01*
X77448405Y-97901244D01*
X77421596Y-97915172D01*
X77303794Y-97959111D01*
X77186739Y-98046739D01*
X77099110Y-98163796D01*
X77061574Y-98264434D01*
X77019703Y-98320368D01*
X76954238Y-98344784D01*
X76945393Y-98345100D01*
X68890326Y-98345100D01*
X68823287Y-98325415D01*
X68802645Y-98308781D01*
X66183218Y-95689353D01*
X66183217Y-95689352D01*
X66141534Y-95661501D01*
X66141533Y-95661500D01*
X66033365Y-95589224D01*
X65866867Y-95520259D01*
X65866859Y-95520257D01*
X65690114Y-95485100D01*
X65690110Y-95485100D01*
X61509890Y-95485100D01*
X61509885Y-95485100D01*
X61333140Y-95520257D01*
X61333132Y-95520259D01*
X61166634Y-95589224D01*
X61166625Y-95589229D01*
X61016785Y-95689350D01*
X61016781Y-95689353D01*
X60921781Y-95784354D01*
X60860458Y-95817839D01*
X60790766Y-95812855D01*
X60734833Y-95770983D01*
X60710416Y-95705519D01*
X60710100Y-95696673D01*
X60710100Y-93804073D01*
X60729785Y-93737034D01*
X60746414Y-93716397D01*
X70824762Y-83638048D01*
X70886083Y-83604565D01*
X70898559Y-83602511D01*
X70981041Y-83593218D01*
X70981044Y-83593217D01*
X70981047Y-83593217D01*
X71153015Y-83533043D01*
X71307281Y-83436111D01*
X71436111Y-83307281D01*
X71533043Y-83153015D01*
X71593217Y-82981047D01*
X71593218Y-82981041D01*
X71613616Y-82800003D01*
X71613616Y-82799996D01*
X71593218Y-82618958D01*
X71593217Y-82618953D01*
X71592626Y-82617265D01*
X71533043Y-82446985D01*
X71436111Y-82292719D01*
X71307281Y-82163889D01*
X71153015Y-82066957D01*
X71098693Y-82047949D01*
X70981046Y-82006782D01*
X70981041Y-82006781D01*
X70800004Y-81986384D01*
X70799996Y-81986384D01*
X70618958Y-82006781D01*
X70618953Y-82006782D01*
X70446982Y-82066958D01*
X70292718Y-82163889D01*
X70163889Y-82292718D01*
X70066957Y-82446983D01*
X70006781Y-82618958D01*
X69997488Y-82701440D01*
X69970421Y-82765854D01*
X69961949Y-82775237D01*
X62196001Y-90541187D01*
X59711084Y-93026104D01*
X59668593Y-93068595D01*
X59626102Y-93111085D01*
X59558651Y-93212034D01*
X59557005Y-93216634D01*
X59513347Y-93322033D01*
X59513343Y-93322047D01*
X59489900Y-93439905D01*
X59489900Y-105545172D01*
X59470894Y-105611144D01*
X59416958Y-105696982D01*
X59356782Y-105868953D01*
X59356781Y-105868958D01*
X59336384Y-106049996D01*
X50200500Y-106049996D01*
X50200500Y-102099994D01*
X50636844Y-102099994D01*
X50636844Y-102100005D01*
X50655434Y-102324359D01*
X50655436Y-102324371D01*
X50710703Y-102542614D01*
X50801140Y-102748792D01*
X50924276Y-102937265D01*
X50924284Y-102937276D01*
X51076756Y-103102902D01*
X51076760Y-103102906D01*
X51254424Y-103241189D01*
X51254425Y-103241189D01*
X51254427Y-103241191D01*
X51336880Y-103285812D01*
X51452426Y-103348342D01*
X51665365Y-103421444D01*
X51887431Y-103458500D01*
X52112569Y-103458500D01*
X52334635Y-103421444D01*
X52547574Y-103348342D01*
X52745576Y-103241189D01*
X52923240Y-103102906D01*
X53075722Y-102937268D01*
X53198860Y-102748791D01*
X53289296Y-102542616D01*
X53344564Y-102324368D01*
X53363156Y-102100000D01*
X53344564Y-101875632D01*
X53289296Y-101657384D01*
X53198860Y-101451209D01*
X53075722Y-101262732D01*
X53075719Y-101262729D01*
X53075715Y-101262723D01*
X52923243Y-101097097D01*
X52923238Y-101097092D01*
X52779352Y-100985100D01*
X52745576Y-100958811D01*
X52745575Y-100958810D01*
X52745572Y-100958808D01*
X52547580Y-100851661D01*
X52547577Y-100851659D01*
X52547574Y-100851658D01*
X52547571Y-100851657D01*
X52547569Y-100851656D01*
X52334637Y-100778556D01*
X52112569Y-100741500D01*
X51887431Y-100741500D01*
X51665362Y-100778556D01*
X51452430Y-100851656D01*
X51452419Y-100851661D01*
X51254427Y-100958808D01*
X51254422Y-100958812D01*
X51076761Y-101097092D01*
X51076756Y-101097097D01*
X50924284Y-101262723D01*
X50924276Y-101262734D01*
X50801140Y-101451207D01*
X50710703Y-101657385D01*
X50655436Y-101875628D01*
X50655434Y-101875640D01*
X50636844Y-102099994D01*
X50200500Y-102099994D01*
X50200500Y-69079994D01*
X50636844Y-69079994D01*
X50636844Y-69080005D01*
X50655434Y-69304359D01*
X50655436Y-69304371D01*
X50710703Y-69522614D01*
X50801140Y-69728792D01*
X50924276Y-69917265D01*
X50924284Y-69917276D01*
X51076756Y-70082902D01*
X51076760Y-70082906D01*
X51254424Y-70221189D01*
X51254429Y-70221191D01*
X51254431Y-70221193D01*
X51290930Y-70240946D01*
X51340520Y-70290165D01*
X51355628Y-70358382D01*
X51331457Y-70423937D01*
X51290930Y-70459054D01*
X51254431Y-70478806D01*
X51254422Y-70478812D01*
X51076761Y-70617092D01*
X51076756Y-70617097D01*
X50924284Y-70782723D01*
X50924276Y-70782734D01*
X50801140Y-70971207D01*
X50710703Y-71177385D01*
X50655436Y-71395628D01*
X50655434Y-71395640D01*
X50636844Y-71619994D01*
X50636844Y-71620005D01*
X50655434Y-71844359D01*
X50655436Y-71844371D01*
X50710703Y-72062614D01*
X50801140Y-72268792D01*
X50924276Y-72457265D01*
X50924284Y-72457276D01*
X51076756Y-72622902D01*
X51076760Y-72622906D01*
X51254424Y-72761189D01*
X51254429Y-72761191D01*
X51254431Y-72761193D01*
X51290930Y-72780946D01*
X51340520Y-72830165D01*
X51355628Y-72898382D01*
X51331457Y-72963937D01*
X51290930Y-72999054D01*
X51254431Y-73018806D01*
X51254422Y-73018812D01*
X51076761Y-73157092D01*
X51076756Y-73157097D01*
X50924284Y-73322723D01*
X50924276Y-73322734D01*
X50801140Y-73511207D01*
X50710703Y-73717385D01*
X50655436Y-73935628D01*
X50655434Y-73935640D01*
X50636844Y-74159994D01*
X50636844Y-74160005D01*
X50655434Y-74384359D01*
X50655436Y-74384371D01*
X50710703Y-74602614D01*
X50801140Y-74808792D01*
X50924276Y-74997265D01*
X50924284Y-74997276D01*
X51076756Y-75162902D01*
X51076760Y-75162906D01*
X51254424Y-75301189D01*
X51254429Y-75301191D01*
X51254431Y-75301193D01*
X51290930Y-75320946D01*
X51340520Y-75370165D01*
X51355628Y-75438382D01*
X51331457Y-75503937D01*
X51290930Y-75539054D01*
X51254431Y-75558806D01*
X51254422Y-75558812D01*
X51076761Y-75697092D01*
X51076756Y-75697097D01*
X50924284Y-75862723D01*
X50924276Y-75862734D01*
X50801140Y-76051207D01*
X50710703Y-76257385D01*
X50655436Y-76475628D01*
X50655434Y-76475640D01*
X50636844Y-76699994D01*
X50636844Y-76700005D01*
X50655434Y-76924359D01*
X50655436Y-76924371D01*
X50710703Y-77142614D01*
X50801140Y-77348792D01*
X50924276Y-77537265D01*
X50924284Y-77537276D01*
X51076756Y-77702902D01*
X51076760Y-77702906D01*
X51254424Y-77841189D01*
X51254429Y-77841191D01*
X51254431Y-77841193D01*
X51290930Y-77860946D01*
X51340520Y-77910165D01*
X51355628Y-77978382D01*
X51331457Y-78043937D01*
X51290930Y-78079054D01*
X51254431Y-78098806D01*
X51254422Y-78098812D01*
X51076761Y-78237092D01*
X51076756Y-78237097D01*
X50924284Y-78402723D01*
X50924278Y-78402732D01*
X50801140Y-78591207D01*
X50710703Y-78797385D01*
X50655436Y-79015628D01*
X50655434Y-79015640D01*
X50636844Y-79239994D01*
X50636844Y-79240005D01*
X50655434Y-79464359D01*
X50655436Y-79464371D01*
X50710703Y-79682614D01*
X50801140Y-79888792D01*
X50924276Y-80077265D01*
X50924284Y-80077276D01*
X51076756Y-80242902D01*
X51076760Y-80242906D01*
X51254424Y-80381189D01*
X51254429Y-80381191D01*
X51254431Y-80381193D01*
X51290930Y-80400946D01*
X51340520Y-80450165D01*
X51355628Y-80518382D01*
X51331457Y-80583937D01*
X51290930Y-80619054D01*
X51254431Y-80638806D01*
X51254422Y-80638812D01*
X51076761Y-80777092D01*
X51076756Y-80777097D01*
X50924284Y-80942723D01*
X50924276Y-80942734D01*
X50801140Y-81131207D01*
X50710703Y-81337385D01*
X50655436Y-81555628D01*
X50655434Y-81555640D01*
X50636844Y-81779994D01*
X50636844Y-81780005D01*
X50655434Y-82004359D01*
X50655436Y-82004371D01*
X50710703Y-82222614D01*
X50801140Y-82428792D01*
X50924276Y-82617265D01*
X50924284Y-82617276D01*
X51061062Y-82765854D01*
X51076760Y-82782906D01*
X51254424Y-82921189D01*
X51254429Y-82921191D01*
X51254431Y-82921193D01*
X51290930Y-82940946D01*
X51340520Y-82990165D01*
X51355628Y-83058382D01*
X51331457Y-83123937D01*
X51290930Y-83159054D01*
X51254431Y-83178806D01*
X51254422Y-83178812D01*
X51076761Y-83317092D01*
X51076756Y-83317097D01*
X50924284Y-83482723D01*
X50924276Y-83482734D01*
X50801140Y-83671207D01*
X50710703Y-83877385D01*
X50655436Y-84095628D01*
X50655434Y-84095640D01*
X50636844Y-84319994D01*
X50636844Y-84320005D01*
X50655434Y-84544359D01*
X50655436Y-84544371D01*
X50710703Y-84762614D01*
X50801140Y-84968792D01*
X50924276Y-85157265D01*
X50924284Y-85157276D01*
X51066405Y-85311658D01*
X51076760Y-85322906D01*
X51254424Y-85461189D01*
X51254429Y-85461191D01*
X51254431Y-85461193D01*
X51290930Y-85480946D01*
X51340520Y-85530165D01*
X51355628Y-85598382D01*
X51331457Y-85663937D01*
X51290930Y-85699054D01*
X51254431Y-85718806D01*
X51254422Y-85718812D01*
X51076761Y-85857092D01*
X51076756Y-85857097D01*
X50924284Y-86022723D01*
X50924276Y-86022734D01*
X50801140Y-86211207D01*
X50710703Y-86417385D01*
X50655436Y-86635628D01*
X50655434Y-86635640D01*
X50636844Y-86859994D01*
X50636844Y-86860005D01*
X50655434Y-87084359D01*
X50655436Y-87084371D01*
X50710703Y-87302614D01*
X50801140Y-87508792D01*
X50924276Y-87697265D01*
X50924284Y-87697276D01*
X51066405Y-87851658D01*
X51076760Y-87862906D01*
X51254424Y-88001189D01*
X51254429Y-88001191D01*
X51254431Y-88001193D01*
X51290930Y-88020946D01*
X51340520Y-88070165D01*
X51355628Y-88138382D01*
X51331457Y-88203937D01*
X51290930Y-88239054D01*
X51254431Y-88258806D01*
X51254422Y-88258812D01*
X51076761Y-88397092D01*
X51076756Y-88397097D01*
X50924284Y-88562723D01*
X50924276Y-88562734D01*
X50801140Y-88751207D01*
X50710703Y-88957385D01*
X50655436Y-89175628D01*
X50655434Y-89175640D01*
X50636844Y-89399994D01*
X50636844Y-89400005D01*
X50655434Y-89624359D01*
X50655436Y-89624371D01*
X50710703Y-89842614D01*
X50801140Y-90048792D01*
X50924276Y-90237265D01*
X50924284Y-90237276D01*
X51076756Y-90402902D01*
X51076760Y-90402906D01*
X51254424Y-90541189D01*
X51254429Y-90541191D01*
X51254431Y-90541193D01*
X51290930Y-90560946D01*
X51340520Y-90610165D01*
X51355628Y-90678382D01*
X51331457Y-90743937D01*
X51290930Y-90779054D01*
X51254431Y-90798806D01*
X51254422Y-90798812D01*
X51076761Y-90937092D01*
X51076756Y-90937097D01*
X50924284Y-91102723D01*
X50924276Y-91102734D01*
X50801140Y-91291207D01*
X50710703Y-91497385D01*
X50655436Y-91715628D01*
X50655434Y-91715640D01*
X50636844Y-91939994D01*
X50636844Y-91940005D01*
X50655434Y-92164359D01*
X50655436Y-92164371D01*
X50710703Y-92382614D01*
X50801140Y-92588792D01*
X50924276Y-92777265D01*
X50924284Y-92777276D01*
X51066405Y-92931658D01*
X51076760Y-92942906D01*
X51254424Y-93081189D01*
X51254429Y-93081191D01*
X51254431Y-93081193D01*
X51290930Y-93100946D01*
X51340520Y-93150165D01*
X51355628Y-93218382D01*
X51331457Y-93283937D01*
X51290930Y-93319054D01*
X51254431Y-93338806D01*
X51254422Y-93338812D01*
X51076761Y-93477092D01*
X51076756Y-93477097D01*
X50924284Y-93642723D01*
X50924276Y-93642734D01*
X50801140Y-93831207D01*
X50710703Y-94037385D01*
X50655436Y-94255628D01*
X50655434Y-94255640D01*
X50636844Y-94479994D01*
X50636844Y-94480005D01*
X50655434Y-94704359D01*
X50655436Y-94704371D01*
X50710703Y-94922614D01*
X50801140Y-95128792D01*
X50924276Y-95317265D01*
X50924284Y-95317276D01*
X51066405Y-95471658D01*
X51076760Y-95482906D01*
X51254424Y-95621189D01*
X51254429Y-95621191D01*
X51254431Y-95621193D01*
X51290930Y-95640946D01*
X51340520Y-95690165D01*
X51355628Y-95758382D01*
X51331457Y-95823937D01*
X51290930Y-95859054D01*
X51254431Y-95878806D01*
X51254422Y-95878812D01*
X51076761Y-96017092D01*
X51076756Y-96017097D01*
X50924284Y-96182723D01*
X50924276Y-96182734D01*
X50801140Y-96371207D01*
X50710703Y-96577385D01*
X50655436Y-96795628D01*
X50655434Y-96795640D01*
X50636844Y-97019994D01*
X50636844Y-97020005D01*
X50655434Y-97244359D01*
X50655436Y-97244371D01*
X50710703Y-97462614D01*
X50801140Y-97668792D01*
X50924276Y-97857265D01*
X50924284Y-97857276D01*
X51076756Y-98022902D01*
X51076761Y-98022907D01*
X51135981Y-98069000D01*
X51254424Y-98161189D01*
X51254425Y-98161189D01*
X51254427Y-98161191D01*
X51363572Y-98220257D01*
X51452426Y-98268342D01*
X51665365Y-98341444D01*
X51887431Y-98378500D01*
X52112569Y-98378500D01*
X52334635Y-98341444D01*
X52547574Y-98268342D01*
X52745576Y-98161189D01*
X52923240Y-98022906D01*
X53035239Y-97901244D01*
X53075715Y-97857276D01*
X53075716Y-97857274D01*
X53075722Y-97857268D01*
X53198860Y-97668791D01*
X53289296Y-97462616D01*
X53344564Y-97244368D01*
X53347348Y-97210770D01*
X53363156Y-97020005D01*
X53363156Y-97019994D01*
X53344565Y-96795640D01*
X53344563Y-96795628D01*
X53289296Y-96577385D01*
X53253436Y-96495632D01*
X53198860Y-96371209D01*
X53190593Y-96358556D01*
X53137291Y-96276970D01*
X53075722Y-96182732D01*
X53075719Y-96182729D01*
X53075715Y-96182723D01*
X52923243Y-96017097D01*
X52923238Y-96017092D01*
X52750616Y-95882734D01*
X52745576Y-95878811D01*
X52709070Y-95859055D01*
X52659479Y-95809836D01*
X52644371Y-95741619D01*
X52668541Y-95676064D01*
X52709070Y-95640945D01*
X52709084Y-95640936D01*
X52745576Y-95621189D01*
X52923240Y-95482906D01*
X53072109Y-95321193D01*
X53075715Y-95317276D01*
X53075716Y-95317274D01*
X53075722Y-95317268D01*
X53198860Y-95128791D01*
X53289296Y-94922616D01*
X53344564Y-94704368D01*
X53349570Y-94643960D01*
X53363156Y-94480005D01*
X53363156Y-94479994D01*
X53344565Y-94255640D01*
X53344563Y-94255628D01*
X53289296Y-94037385D01*
X53253436Y-93955632D01*
X53198860Y-93831209D01*
X53190593Y-93818556D01*
X53075723Y-93642734D01*
X53075715Y-93642723D01*
X52923243Y-93477097D01*
X52923238Y-93477092D01*
X52750616Y-93342734D01*
X52745576Y-93338811D01*
X52709070Y-93319055D01*
X52659479Y-93269836D01*
X52644371Y-93201619D01*
X52668541Y-93136064D01*
X52709070Y-93100945D01*
X52709084Y-93100936D01*
X52745576Y-93081189D01*
X52923240Y-92942906D01*
X53075722Y-92777268D01*
X53198860Y-92588791D01*
X53289296Y-92382616D01*
X53344564Y-92164368D01*
X53363156Y-91940000D01*
X53344564Y-91715632D01*
X53289296Y-91497384D01*
X53198860Y-91291209D01*
X53075722Y-91102732D01*
X53075719Y-91102729D01*
X53075715Y-91102723D01*
X52923243Y-90937097D01*
X52923238Y-90937092D01*
X52745577Y-90798812D01*
X52745578Y-90798812D01*
X52745576Y-90798811D01*
X52709070Y-90779055D01*
X52659479Y-90729836D01*
X52644371Y-90661619D01*
X52668541Y-90596064D01*
X52709070Y-90560945D01*
X52709084Y-90560936D01*
X52745576Y-90541189D01*
X52923240Y-90402906D01*
X53072111Y-90241191D01*
X53075715Y-90237276D01*
X53075716Y-90237274D01*
X53075722Y-90237268D01*
X53198860Y-90048791D01*
X53289296Y-89842616D01*
X53344564Y-89624368D01*
X53344565Y-89624359D01*
X53363156Y-89400005D01*
X53363156Y-89399994D01*
X53344565Y-89175640D01*
X53344563Y-89175628D01*
X53289296Y-88957385D01*
X53253436Y-88875632D01*
X53198860Y-88751209D01*
X53075722Y-88562732D01*
X53075719Y-88562729D01*
X53075715Y-88562723D01*
X52923243Y-88397097D01*
X52923238Y-88397092D01*
X52750616Y-88262734D01*
X52745576Y-88258811D01*
X52709070Y-88239055D01*
X52659479Y-88189836D01*
X52644371Y-88121619D01*
X52668541Y-88056064D01*
X52709070Y-88020945D01*
X52709084Y-88020936D01*
X52745576Y-88001189D01*
X52923240Y-87862906D01*
X53072109Y-87701193D01*
X53075715Y-87697276D01*
X53075716Y-87697274D01*
X53075722Y-87697268D01*
X53198860Y-87508791D01*
X53289296Y-87302616D01*
X53344564Y-87084368D01*
X53344565Y-87084359D01*
X53363156Y-86860005D01*
X53363156Y-86859994D01*
X53344565Y-86635640D01*
X53344563Y-86635628D01*
X53289296Y-86417385D01*
X53253436Y-86335632D01*
X53198860Y-86211209D01*
X53075722Y-86022732D01*
X53075719Y-86022729D01*
X53075715Y-86022723D01*
X52923243Y-85857097D01*
X52923238Y-85857092D01*
X52750616Y-85722734D01*
X52745576Y-85718811D01*
X52709070Y-85699055D01*
X52659479Y-85649836D01*
X52644371Y-85581619D01*
X52668541Y-85516064D01*
X52709070Y-85480945D01*
X52714386Y-85478068D01*
X52745576Y-85461189D01*
X52923240Y-85322906D01*
X53075722Y-85157268D01*
X53198860Y-84968791D01*
X53289296Y-84762616D01*
X53344564Y-84544368D01*
X53344565Y-84544359D01*
X53363156Y-84320005D01*
X53363156Y-84319994D01*
X53344565Y-84095640D01*
X53344563Y-84095628D01*
X53315547Y-83981046D01*
X53289296Y-83877384D01*
X53255351Y-83799996D01*
X53786384Y-83799996D01*
X53786384Y-83800003D01*
X53806781Y-83981041D01*
X53806782Y-83981046D01*
X53846876Y-84095628D01*
X53866957Y-84153015D01*
X53963889Y-84307281D01*
X54092719Y-84436111D01*
X54246985Y-84533043D01*
X54418953Y-84593217D01*
X54418958Y-84593218D01*
X54599996Y-84613616D01*
X54600000Y-84613616D01*
X54600004Y-84613616D01*
X54781041Y-84593218D01*
X54781044Y-84593217D01*
X54781047Y-84593217D01*
X54953015Y-84533043D01*
X55107281Y-84436111D01*
X55107281Y-84436110D01*
X55113177Y-84432406D01*
X55114080Y-84433844D01*
X55170660Y-84410745D01*
X55183287Y-84410100D01*
X59916713Y-84410100D01*
X59983752Y-84429785D01*
X59991534Y-84435366D01*
X59992717Y-84436109D01*
X59992719Y-84436111D01*
X60146985Y-84533043D01*
X60318953Y-84593217D01*
X60318958Y-84593218D01*
X60499996Y-84613616D01*
X60500000Y-84613616D01*
X60500004Y-84613616D01*
X60681041Y-84593218D01*
X60681044Y-84593217D01*
X60681047Y-84593217D01*
X60853015Y-84533043D01*
X61007281Y-84436111D01*
X61136111Y-84307281D01*
X61233043Y-84153015D01*
X61293217Y-83981047D01*
X61313616Y-83800000D01*
X61293217Y-83618953D01*
X61233043Y-83446985D01*
X61136111Y-83292719D01*
X61007281Y-83163889D01*
X60922550Y-83110649D01*
X60853017Y-83066958D01*
X60853016Y-83066957D01*
X60853015Y-83066957D01*
X60780603Y-83041619D01*
X60681046Y-83006782D01*
X60681041Y-83006781D01*
X60500004Y-82986384D01*
X60499996Y-82986384D01*
X60318958Y-83006781D01*
X60318953Y-83006782D01*
X60146982Y-83066958D01*
X60056302Y-83123937D01*
X60000413Y-83159055D01*
X59986823Y-83167594D01*
X59985919Y-83166155D01*
X59929340Y-83189255D01*
X59916713Y-83189900D01*
X55183287Y-83189900D01*
X55116248Y-83170215D01*
X55108465Y-83164633D01*
X54953017Y-83066958D01*
X54953016Y-83066957D01*
X54953015Y-83066957D01*
X54880603Y-83041619D01*
X54781046Y-83006782D01*
X54781041Y-83006781D01*
X54600004Y-82986384D01*
X54599996Y-82986384D01*
X54418958Y-83006781D01*
X54418953Y-83006782D01*
X54246982Y-83066958D01*
X54092718Y-83163889D01*
X53963889Y-83292718D01*
X53866958Y-83446982D01*
X53806782Y-83618953D01*
X53806781Y-83618958D01*
X53786384Y-83799996D01*
X53255351Y-83799996D01*
X53198860Y-83671209D01*
X53164719Y-83618953D01*
X53075723Y-83482734D01*
X53075715Y-83482723D01*
X52923243Y-83317097D01*
X52923238Y-83317092D01*
X52745577Y-83178812D01*
X52745578Y-83178812D01*
X52745576Y-83178811D01*
X52709070Y-83159055D01*
X52659479Y-83109836D01*
X52644371Y-83041619D01*
X52668541Y-82976064D01*
X52709070Y-82940945D01*
X52709084Y-82940936D01*
X52745576Y-82921189D01*
X52923240Y-82782906D01*
X53030071Y-82666858D01*
X53075715Y-82617276D01*
X53075716Y-82617274D01*
X53075722Y-82617268D01*
X53198860Y-82428791D01*
X53289296Y-82222616D01*
X53344564Y-82004368D01*
X53347691Y-81966633D01*
X53363156Y-81780005D01*
X53363156Y-81779994D01*
X53344565Y-81555640D01*
X53344563Y-81555628D01*
X53289296Y-81337385D01*
X53198859Y-81131207D01*
X53075723Y-80942734D01*
X53075715Y-80942723D01*
X52923243Y-80777097D01*
X52923238Y-80777092D01*
X52745577Y-80638812D01*
X52745578Y-80638812D01*
X52745576Y-80638811D01*
X52709070Y-80619055D01*
X52659479Y-80569836D01*
X52644371Y-80501619D01*
X52668541Y-80436064D01*
X52709070Y-80400945D01*
X52709084Y-80400936D01*
X52745576Y-80381189D01*
X52923240Y-80242906D01*
X53075722Y-80077268D01*
X53198860Y-79888791D01*
X53289296Y-79682616D01*
X53344564Y-79464368D01*
X53363156Y-79240000D01*
X53344564Y-79015632D01*
X53289296Y-78797384D01*
X53198860Y-78591209D01*
X53075722Y-78402732D01*
X53075715Y-78402723D01*
X52923243Y-78237097D01*
X52923238Y-78237092D01*
X52745577Y-78098812D01*
X52745578Y-78098812D01*
X52745576Y-78098811D01*
X52709070Y-78079055D01*
X52659479Y-78029836D01*
X52644371Y-77961619D01*
X52668541Y-77896064D01*
X52709070Y-77860945D01*
X52709084Y-77860936D01*
X52745576Y-77841189D01*
X52923240Y-77702906D01*
X53022614Y-77594957D01*
X53075715Y-77537276D01*
X53075716Y-77537274D01*
X53075722Y-77537268D01*
X53198860Y-77348791D01*
X53289296Y-77142616D01*
X53344564Y-76924368D01*
X53363156Y-76700000D01*
X53344564Y-76475632D01*
X53289296Y-76257384D01*
X53198860Y-76051209D01*
X53075722Y-75862732D01*
X53075719Y-75862729D01*
X53075715Y-75862723D01*
X52923243Y-75697097D01*
X52923238Y-75697092D01*
X52745577Y-75558812D01*
X52745578Y-75558812D01*
X52745576Y-75558811D01*
X52709070Y-75539055D01*
X52659479Y-75489836D01*
X52644371Y-75421619D01*
X52668541Y-75356064D01*
X52709070Y-75320945D01*
X52709084Y-75320936D01*
X52745576Y-75301189D01*
X52923240Y-75162906D01*
X53075722Y-74997268D01*
X53198860Y-74808791D01*
X53289296Y-74602616D01*
X53344564Y-74384368D01*
X53363156Y-74160000D01*
X53344564Y-73935632D01*
X53289296Y-73717384D01*
X53198860Y-73511209D01*
X53075722Y-73322732D01*
X53075719Y-73322729D01*
X53075715Y-73322723D01*
X52923243Y-73157097D01*
X52923238Y-73157092D01*
X52745577Y-73018812D01*
X52745578Y-73018812D01*
X52745576Y-73018811D01*
X52709070Y-72999055D01*
X52659479Y-72949836D01*
X52644371Y-72881619D01*
X52668541Y-72816064D01*
X52709070Y-72780945D01*
X52709084Y-72780936D01*
X52745576Y-72761189D01*
X52923240Y-72622906D01*
X53075722Y-72457268D01*
X53198860Y-72268791D01*
X53289296Y-72062616D01*
X53344564Y-71844368D01*
X53363156Y-71620000D01*
X53344564Y-71395632D01*
X53289296Y-71177384D01*
X53198860Y-70971209D01*
X53075722Y-70782732D01*
X53075719Y-70782729D01*
X53075715Y-70782723D01*
X52923243Y-70617097D01*
X52923238Y-70617092D01*
X52745577Y-70478812D01*
X52745578Y-70478812D01*
X52745576Y-70478811D01*
X52709070Y-70459055D01*
X52659479Y-70409836D01*
X52644371Y-70341619D01*
X52668541Y-70276064D01*
X52709070Y-70240945D01*
X52709084Y-70240936D01*
X52745576Y-70221189D01*
X52923240Y-70082906D01*
X53075722Y-69917268D01*
X53198860Y-69728791D01*
X53289296Y-69522616D01*
X53344564Y-69304368D01*
X53344565Y-69304359D01*
X53363156Y-69080005D01*
X53363156Y-69079994D01*
X53344565Y-68855640D01*
X53344563Y-68855628D01*
X53289296Y-68637385D01*
X53198859Y-68431207D01*
X53075723Y-68242734D01*
X53075715Y-68242723D01*
X52923243Y-68077097D01*
X52923238Y-68077092D01*
X52804797Y-67984905D01*
X52745576Y-67938811D01*
X52745575Y-67938810D01*
X52745572Y-67938808D01*
X52547580Y-67831661D01*
X52547577Y-67831659D01*
X52547574Y-67831658D01*
X52547571Y-67831657D01*
X52547569Y-67831656D01*
X52334637Y-67758556D01*
X52112569Y-67721500D01*
X51887431Y-67721500D01*
X51665362Y-67758556D01*
X51452430Y-67831656D01*
X51452419Y-67831661D01*
X51254427Y-67938808D01*
X51254422Y-67938812D01*
X51076761Y-68077092D01*
X51076756Y-68077097D01*
X50924284Y-68242723D01*
X50924276Y-68242734D01*
X50801140Y-68431207D01*
X50710703Y-68637385D01*
X50655436Y-68855628D01*
X50655434Y-68855640D01*
X50636844Y-69079994D01*
X50200500Y-69079994D01*
X50200500Y-63101345D01*
X50641500Y-63101345D01*
X50641500Y-64898654D01*
X50648011Y-64959202D01*
X50648011Y-64959204D01*
X50688078Y-65066625D01*
X50699111Y-65096204D01*
X50786739Y-65213261D01*
X50903796Y-65300889D01*
X51040799Y-65351989D01*
X51068050Y-65354918D01*
X51101345Y-65358499D01*
X51101362Y-65358500D01*
X52898638Y-65358500D01*
X52898654Y-65358499D01*
X52925692Y-65355591D01*
X52959201Y-65351989D01*
X53096204Y-65300889D01*
X53213261Y-65213261D01*
X53300889Y-65096204D01*
X53351989Y-64959201D01*
X53356549Y-64916785D01*
X53358499Y-64898654D01*
X53358500Y-64898637D01*
X53358500Y-64304885D01*
X57285100Y-64304885D01*
X57285100Y-77990114D01*
X57320257Y-78166859D01*
X57320259Y-78166867D01*
X57389224Y-78333365D01*
X57435574Y-78402732D01*
X57435574Y-78402733D01*
X57489347Y-78483210D01*
X57489353Y-78483218D01*
X62116781Y-83110646D01*
X62116785Y-83110649D01*
X62266626Y-83210770D01*
X62266632Y-83210773D01*
X62266633Y-83210774D01*
X62433134Y-83279741D01*
X62571588Y-83307281D01*
X62609886Y-83314899D01*
X62609890Y-83314900D01*
X62609891Y-83314900D01*
X62790110Y-83314900D01*
X62790111Y-83314899D01*
X62966866Y-83279741D01*
X63133367Y-83210774D01*
X63283215Y-83110649D01*
X63410649Y-82983215D01*
X63510774Y-82833367D01*
X63579741Y-82666866D01*
X63614900Y-82490109D01*
X63614900Y-82309891D01*
X63579741Y-82133134D01*
X63510774Y-81966633D01*
X63510773Y-81966632D01*
X63510770Y-81966626D01*
X63410649Y-81816785D01*
X63410646Y-81816781D01*
X59151219Y-77557354D01*
X59117734Y-77496031D01*
X59114900Y-77469673D01*
X59114900Y-64304889D01*
X59114899Y-64304885D01*
X59079742Y-64128140D01*
X59079741Y-64128133D01*
X59010774Y-63961632D01*
X59010773Y-63961631D01*
X59010770Y-63961625D01*
X58910649Y-63811785D01*
X58910646Y-63811781D01*
X58783218Y-63684353D01*
X58783214Y-63684350D01*
X58633374Y-63584229D01*
X58633365Y-63584224D01*
X58466867Y-63515259D01*
X58466859Y-63515257D01*
X58290114Y-63480100D01*
X58290110Y-63480100D01*
X58109890Y-63480100D01*
X58109885Y-63480100D01*
X57933140Y-63515257D01*
X57933132Y-63515259D01*
X57766634Y-63584224D01*
X57766625Y-63584229D01*
X57616785Y-63684350D01*
X57616781Y-63684353D01*
X57489353Y-63811781D01*
X57489350Y-63811785D01*
X57389229Y-63961625D01*
X57389224Y-63961634D01*
X57320259Y-64128132D01*
X57320257Y-64128140D01*
X57285100Y-64304885D01*
X53358500Y-64304885D01*
X53358500Y-63101362D01*
X53358499Y-63101345D01*
X53354093Y-63060368D01*
X53351989Y-63040799D01*
X53338425Y-63004434D01*
X53329522Y-62980564D01*
X53300889Y-62903796D01*
X53213261Y-62786739D01*
X53096204Y-62699111D01*
X52959203Y-62648011D01*
X52898654Y-62641500D01*
X52898638Y-62641500D01*
X51101362Y-62641500D01*
X51101345Y-62641500D01*
X51040797Y-62648011D01*
X51040795Y-62648011D01*
X50903795Y-62699111D01*
X50786739Y-62786739D01*
X50699111Y-62903795D01*
X50648011Y-63040795D01*
X50648011Y-63040797D01*
X50641500Y-63101345D01*
X50200500Y-63101345D01*
X50200500Y-60002706D01*
X50200618Y-59997297D01*
X50209704Y-59789192D01*
X50218528Y-59587080D01*
X50219468Y-59576347D01*
X50272709Y-59171938D01*
X50274582Y-59161308D01*
X50336214Y-58883306D01*
X52219500Y-58883306D01*
X52219500Y-59116693D01*
X52219501Y-59116709D01*
X52249964Y-59348100D01*
X52310375Y-59573555D01*
X52399690Y-59789181D01*
X52399695Y-59789192D01*
X52516387Y-59991307D01*
X52516398Y-59991323D01*
X52658475Y-60176482D01*
X52658481Y-60176489D01*
X52823510Y-60341518D01*
X52823516Y-60341523D01*
X53008685Y-60483608D01*
X53008692Y-60483612D01*
X53210807Y-60600304D01*
X53210812Y-60600306D01*
X53210815Y-60600308D01*
X53426449Y-60689626D01*
X53651896Y-60750035D01*
X53883300Y-60780500D01*
X53883307Y-60780500D01*
X54116693Y-60780500D01*
X54116700Y-60780500D01*
X54348104Y-60750035D01*
X54573551Y-60689626D01*
X54789185Y-60600308D01*
X54991315Y-60483608D01*
X55176484Y-60341523D01*
X55341523Y-60176484D01*
X55483608Y-59991315D01*
X55600308Y-59789185D01*
X55689626Y-59573551D01*
X55750035Y-59348104D01*
X55780500Y-59116700D01*
X55780500Y-58883300D01*
X55750035Y-58651896D01*
X55689626Y-58426449D01*
X55600308Y-58210815D01*
X55600306Y-58210812D01*
X55600304Y-58210807D01*
X55483612Y-58008692D01*
X55483608Y-58008685D01*
X55341523Y-57823516D01*
X55341518Y-57823510D01*
X55176489Y-57658481D01*
X55176482Y-57658475D01*
X54991323Y-57516398D01*
X54991321Y-57516396D01*
X54991315Y-57516392D01*
X54991310Y-57516389D01*
X54991307Y-57516387D01*
X54789192Y-57399695D01*
X54789181Y-57399690D01*
X54573555Y-57310375D01*
X54460827Y-57280169D01*
X54348104Y-57249965D01*
X54348103Y-57249964D01*
X54348100Y-57249964D01*
X54116709Y-57219501D01*
X54116706Y-57219500D01*
X54116700Y-57219500D01*
X53883300Y-57219500D01*
X53883294Y-57219500D01*
X53883290Y-57219501D01*
X53651899Y-57249964D01*
X53426444Y-57310375D01*
X53210818Y-57399690D01*
X53210807Y-57399695D01*
X53008692Y-57516387D01*
X53008676Y-57516398D01*
X52823517Y-57658475D01*
X52823510Y-57658481D01*
X52658481Y-57823510D01*
X52658475Y-57823517D01*
X52516398Y-58008676D01*
X52516387Y-58008692D01*
X52399695Y-58210807D01*
X52399690Y-58210818D01*
X52310375Y-58426444D01*
X52249964Y-58651899D01*
X52219501Y-58883290D01*
X52219500Y-58883306D01*
X50336214Y-58883306D01*
X50362870Y-58763068D01*
X50365668Y-58752630D01*
X50488319Y-58363629D01*
X50492016Y-58353473D01*
X50551106Y-58210818D01*
X50648111Y-57976627D01*
X50652669Y-57966853D01*
X50841025Y-57605024D01*
X50846407Y-57595703D01*
X51065574Y-57251680D01*
X51071765Y-57242837D01*
X51320083Y-56919224D01*
X51327021Y-56910955D01*
X51602594Y-56610220D01*
X51610220Y-56602594D01*
X51910955Y-56327021D01*
X51919224Y-56320083D01*
X52242837Y-56071765D01*
X52251680Y-56065574D01*
X52595703Y-55846407D01*
X52605024Y-55841025D01*
X52966853Y-55652669D01*
X52976627Y-55648111D01*
X53353482Y-55492012D01*
X53363629Y-55488319D01*
X53752639Y-55365665D01*
X53763068Y-55362870D01*
X54161308Y-55274582D01*
X54171938Y-55272709D01*
X54576347Y-55219468D01*
X54587080Y-55218528D01*
X54997297Y-55200617D01*
X55002706Y-55200500D01*
X55039882Y-55200500D01*
X57675500Y-55200500D01*
X57742539Y-55220185D01*
G37*
%TD.AperFunction*%
%TD*%
M02*
