M48
; DRILL file {KiCad 8.0.2} date 2024-06-06T14:24:52+1000
; FORMAT={-:-/ absolute / inch / decimal}
; #@! TF.CreationDate,2024-06-06T14:24:52+10:00
; #@! TF.GenerationSoftware,Kicad,Pcbnew,8.0.2
; #@! TF.FileFunction,Plated,1,2,PTH
FMAT,2
INCH
; #@! TA.AperFunction,Plated,PTH,ViaDrill
T1C0.0118
; #@! TA.AperFunction,Plated,PTH,ViaDrill
T2C0.0157
; #@! TA.AperFunction,Plated,PTH,ComponentDrill
T3C0.0236
; #@! TA.AperFunction,Plated,PTH,ComponentDrill
T4C0.0394
%
G90
G05
T1
X2.1496Y-3.2992
X2.3681Y-4.1752
X2.3819Y-3.2992
X2.7316Y-3.9613
X2.7874Y-3.2598
X2.8396Y-4.0993
X2.8933Y-4.0984
T2
X2.2047Y-2.2047
X2.2047Y-2.4803
X2.2638Y-2.4803
X2.2913Y-2.5352
X2.3031Y-3.7205
X2.3031Y-3.7992
X2.3031Y-3.878
X2.3031Y-3.937
X2.3465Y-2.6929
X2.3819Y-3.4646
X2.3819Y-3.5433
X2.4213Y-3.8976
X2.4252Y-3.7953
X2.4685Y-3.2441
X2.4803Y-3.8583
X2.5591Y-3.2874
X2.5984Y-2.4803
X2.5984Y-3.9016
X2.6378Y-2.5591
X2.6378Y-2.6181
X2.6378Y-2.6772
X2.6378Y-2.7362
X2.6575Y-2.4803
X2.6575Y-2.7953
X2.6575Y-3.2874
X2.7165Y-2.4803
X2.7596Y-3.8367
X2.7756Y-2.4803
X2.815Y-3.3661
X2.8346Y-2.4803
X2.8937Y-2.4803
X2.9134Y-3.9567
X2.9528Y-2.4803
X2.9528Y-2.7953
X3.0118Y-2.4803
X3.0709Y-2.4803
X3.1102Y-2.5591
X3.1102Y-2.6181
X3.1102Y-2.6772
X3.1102Y-2.7362
X3.1102Y-2.7953
X3.1102Y-2.9724
X3.1102Y-3.0709
X3.1102Y-3.1693
X3.1299Y-2.4803
X3.1496Y-2.6378
X3.1496Y-2.6969
X3.2283Y-4.1929
X3.2402Y-4.0748
X3.3071Y-3.9764
X3.3268Y-3.8386
X3.3661Y-3.5039
X3.3858Y-3.622
X3.3858Y-4.248
X3.4252Y-2.4803
X3.5039Y-2.2047
X3.5236Y-3.8583
T4
X2.0472Y-2.5197
X2.0472Y-2.6197
X2.0472Y-2.7197
X2.0472Y-2.8197
X2.0472Y-2.9197
X2.0472Y-3.0197
X2.0472Y-3.1197
X2.0472Y-3.2197
X2.0472Y-3.3197
X2.0472Y-3.4197
X2.0472Y-3.5197
X2.0472Y-3.6197
X2.0472Y-3.7197
X2.0472Y-3.8197
X2.0472Y-3.9197
X2.0472Y-4.0197
X3.0866Y-3.4079
X3.0866Y-3.5079
X3.0866Y-3.6079
X3.0866Y-3.7079
X3.0866Y-3.8079
X3.0866Y-3.9079
X3.6614Y-2.5197
X3.6614Y-2.6197
X3.6614Y-2.7197
X3.6614Y-2.8197
X3.6614Y-2.9197
X3.6614Y-3.0197
X3.6614Y-3.1197
X3.6614Y-3.2197
X3.6614Y-3.3197
X3.6614Y-3.4197
X3.6614Y-3.5197
X3.6614Y-3.6197
X3.6614Y-3.7197
X3.6614Y-3.8197
X3.6614Y-3.9197
X3.6614Y-4.0197
T3
G00X2.6843Y-4.1474
M15
G01X2.6843Y-4.1907
M16
G05
G00X2.6843Y-4.3219
M15
G01X2.6843Y-4.3455
M16
G05
G00X3.0244Y-4.1474
M15
G01X3.0244Y-4.1907
M16
G05
G00X3.0244Y-4.3219
M15
G01X3.0244Y-4.3455
M16
G05
M30
