%TF.GenerationSoftware,KiCad,Pcbnew,8.0.2*%
%TF.CreationDate,2024-06-06T14:24:53+10:00*%
%TF.ProjectId,design,64657369-676e-42e6-9b69-6361645f7063,rev?*%
%TF.SameCoordinates,Original*%
%TF.FileFunction,Drillmap*%
%TF.FilePolarity,Positive*%
%FSLAX45Y45*%
G04 Gerber Fmt 4.5, Leading zero omitted, Abs format (unit mm)*
G04 Created by KiCad (PCBNEW 8.0.2) date 2024-06-06 14:24:53*
%MOMM*%
%LPD*%
G01*
G04 APERTURE LIST*
%ADD10C,0.100000*%
%ADD11C,0.200000*%
G04 APERTURE END LIST*
D10*
X9000000Y-11200000D02*
X5500000Y-11200000D01*
X5800000Y-6200000D02*
X5800000Y-5500000D01*
X8700000Y-6200000D02*
X5800000Y-6200000D01*
X5500000Y-11200000D02*
G75*
G02*
X5000000Y-10700000I0J500000D01*
G01*
X9000000Y-5500000D02*
G75*
G02*
X9500000Y-6000000I0J-500000D01*
G01*
X5000000Y-10700000D02*
X5000000Y-6000000D01*
X5500000Y-5500000D02*
X5800000Y-5500000D01*
X9500000Y-6000000D02*
X9500000Y-10700000D01*
X9500000Y-10700000D02*
G75*
G02*
X9000000Y-11200000I-500000J0D01*
G01*
X5000000Y-6000000D02*
G75*
G02*
X5500000Y-5500000I500000J0D01*
G01*
X8700000Y-5500000D02*
X9000000Y-5500000D01*
X8700000Y-5500000D02*
X8700000Y-6200000D01*
D11*
D10*
X5445000Y-8365000D02*
X5475000Y-8395000D01*
X5475000Y-8365000D02*
X5445000Y-8395000D01*
X6000000Y-10590000D02*
X6030000Y-10620000D01*
X6030000Y-10590000D02*
X6000000Y-10620000D01*
X6035000Y-8365000D02*
X6065000Y-8395000D01*
X6065000Y-8365000D02*
X6035000Y-8395000D01*
X6923222Y-10046778D02*
X6953222Y-10076778D01*
X6953222Y-10046778D02*
X6923222Y-10076778D01*
X7065000Y-8265000D02*
X7095000Y-8295000D01*
X7095000Y-8265000D02*
X7065000Y-8295000D01*
X7197696Y-10397282D02*
X7227696Y-10427282D01*
X7227696Y-10397282D02*
X7197696Y-10427282D01*
X7333896Y-10394943D02*
X7363896Y-10424943D01*
X7363896Y-10394943D02*
X7333896Y-10424943D01*
X5620000Y-5600000D02*
G75*
G02*
X5580000Y-5600000I-20000J0D01*
G01*
X5580000Y-5600000D02*
G75*
G02*
X5620000Y-5600000I20000J0D01*
G01*
X5620000Y-6300000D02*
G75*
G02*
X5580000Y-6300000I-20000J0D01*
G01*
X5580000Y-6300000D02*
G75*
G02*
X5620000Y-6300000I20000J0D01*
G01*
X5770000Y-6300000D02*
G75*
G02*
X5730000Y-6300000I-20000J0D01*
G01*
X5730000Y-6300000D02*
G75*
G02*
X5770000Y-6300000I20000J0D01*
G01*
X5840000Y-6439500D02*
G75*
G02*
X5800000Y-6439500I-20000J0D01*
G01*
X5800000Y-6439500D02*
G75*
G02*
X5840000Y-6439500I20000J0D01*
G01*
X5870000Y-9450000D02*
G75*
G02*
X5830000Y-9450000I-20000J0D01*
G01*
X5830000Y-9450000D02*
G75*
G02*
X5870000Y-9450000I20000J0D01*
G01*
X5870000Y-9650000D02*
G75*
G02*
X5830000Y-9650000I-20000J0D01*
G01*
X5830000Y-9650000D02*
G75*
G02*
X5870000Y-9650000I20000J0D01*
G01*
X5870000Y-9850000D02*
G75*
G02*
X5830000Y-9850000I-20000J0D01*
G01*
X5830000Y-9850000D02*
G75*
G02*
X5870000Y-9850000I20000J0D01*
G01*
X5870000Y-10000000D02*
G75*
G02*
X5830000Y-10000000I-20000J0D01*
G01*
X5830000Y-10000000D02*
G75*
G02*
X5870000Y-10000000I20000J0D01*
G01*
X5980000Y-6840000D02*
G75*
G02*
X5940000Y-6840000I-20000J0D01*
G01*
X5940000Y-6840000D02*
G75*
G02*
X5980000Y-6840000I20000J0D01*
G01*
X6070000Y-8800000D02*
G75*
G02*
X6030000Y-8800000I-20000J0D01*
G01*
X6030000Y-8800000D02*
G75*
G02*
X6070000Y-8800000I20000J0D01*
G01*
X6070000Y-9000000D02*
G75*
G02*
X6030000Y-9000000I-20000J0D01*
G01*
X6030000Y-9000000D02*
G75*
G02*
X6070000Y-9000000I20000J0D01*
G01*
X6170000Y-9900000D02*
G75*
G02*
X6130000Y-9900000I-20000J0D01*
G01*
X6130000Y-9900000D02*
G75*
G02*
X6170000Y-9900000I20000J0D01*
G01*
X6180000Y-9640000D02*
G75*
G02*
X6140000Y-9640000I-20000J0D01*
G01*
X6140000Y-9640000D02*
G75*
G02*
X6180000Y-9640000I20000J0D01*
G01*
X6290000Y-8240000D02*
G75*
G02*
X6250000Y-8240000I-20000J0D01*
G01*
X6250000Y-8240000D02*
G75*
G02*
X6290000Y-8240000I20000J0D01*
G01*
X6320000Y-9800000D02*
G75*
G02*
X6280000Y-9800000I-20000J0D01*
G01*
X6280000Y-9800000D02*
G75*
G02*
X6320000Y-9800000I20000J0D01*
G01*
X6520000Y-8350000D02*
G75*
G02*
X6480000Y-8350000I-20000J0D01*
G01*
X6480000Y-8350000D02*
G75*
G02*
X6520000Y-8350000I20000J0D01*
G01*
X6620000Y-6300000D02*
G75*
G02*
X6580000Y-6300000I-20000J0D01*
G01*
X6580000Y-6300000D02*
G75*
G02*
X6620000Y-6300000I20000J0D01*
G01*
X6620000Y-9910000D02*
G75*
G02*
X6580000Y-9910000I-20000J0D01*
G01*
X6580000Y-9910000D02*
G75*
G02*
X6620000Y-9910000I20000J0D01*
G01*
X6720000Y-6500000D02*
G75*
G02*
X6680000Y-6500000I-20000J0D01*
G01*
X6680000Y-6500000D02*
G75*
G02*
X6720000Y-6500000I20000J0D01*
G01*
X6720000Y-6650000D02*
G75*
G02*
X6680000Y-6650000I-20000J0D01*
G01*
X6680000Y-6650000D02*
G75*
G02*
X6720000Y-6650000I20000J0D01*
G01*
X6720000Y-6800000D02*
G75*
G02*
X6680000Y-6800000I-20000J0D01*
G01*
X6680000Y-6800000D02*
G75*
G02*
X6720000Y-6800000I20000J0D01*
G01*
X6720000Y-6950000D02*
G75*
G02*
X6680000Y-6950000I-20000J0D01*
G01*
X6680000Y-6950000D02*
G75*
G02*
X6720000Y-6950000I20000J0D01*
G01*
X6770000Y-6300000D02*
G75*
G02*
X6730000Y-6300000I-20000J0D01*
G01*
X6730000Y-6300000D02*
G75*
G02*
X6770000Y-6300000I20000J0D01*
G01*
X6770000Y-7100000D02*
G75*
G02*
X6730000Y-7100000I-20000J0D01*
G01*
X6730000Y-7100000D02*
G75*
G02*
X6770000Y-7100000I20000J0D01*
G01*
X6770000Y-8350000D02*
G75*
G02*
X6730000Y-8350000I-20000J0D01*
G01*
X6730000Y-8350000D02*
G75*
G02*
X6770000Y-8350000I20000J0D01*
G01*
X6920000Y-6300000D02*
G75*
G02*
X6880000Y-6300000I-20000J0D01*
G01*
X6880000Y-6300000D02*
G75*
G02*
X6920000Y-6300000I20000J0D01*
G01*
X7029427Y-9745093D02*
G75*
G02*
X6989427Y-9745093I-20000J0D01*
G01*
X6989427Y-9745093D02*
G75*
G02*
X7029427Y-9745093I20000J0D01*
G01*
X7070000Y-6300000D02*
G75*
G02*
X7030000Y-6300000I-20000J0D01*
G01*
X7030000Y-6300000D02*
G75*
G02*
X7070000Y-6300000I20000J0D01*
G01*
X7170000Y-8550000D02*
G75*
G02*
X7130000Y-8550000I-20000J0D01*
G01*
X7130000Y-8550000D02*
G75*
G02*
X7170000Y-8550000I20000J0D01*
G01*
X7220000Y-6300000D02*
G75*
G02*
X7180000Y-6300000I-20000J0D01*
G01*
X7180000Y-6300000D02*
G75*
G02*
X7220000Y-6300000I20000J0D01*
G01*
X7370000Y-6300000D02*
G75*
G02*
X7330000Y-6300000I-20000J0D01*
G01*
X7330000Y-6300000D02*
G75*
G02*
X7370000Y-6300000I20000J0D01*
G01*
X7420000Y-10050000D02*
G75*
G02*
X7380000Y-10050000I-20000J0D01*
G01*
X7380000Y-10050000D02*
G75*
G02*
X7420000Y-10050000I20000J0D01*
G01*
X7520000Y-6300000D02*
G75*
G02*
X7480000Y-6300000I-20000J0D01*
G01*
X7480000Y-6300000D02*
G75*
G02*
X7520000Y-6300000I20000J0D01*
G01*
X7520000Y-7100000D02*
G75*
G02*
X7480000Y-7100000I-20000J0D01*
G01*
X7480000Y-7100000D02*
G75*
G02*
X7520000Y-7100000I20000J0D01*
G01*
X7670000Y-6300000D02*
G75*
G02*
X7630000Y-6300000I-20000J0D01*
G01*
X7630000Y-6300000D02*
G75*
G02*
X7670000Y-6300000I20000J0D01*
G01*
X7820000Y-6300000D02*
G75*
G02*
X7780000Y-6300000I-20000J0D01*
G01*
X7780000Y-6300000D02*
G75*
G02*
X7820000Y-6300000I20000J0D01*
G01*
X7920000Y-6500000D02*
G75*
G02*
X7880000Y-6500000I-20000J0D01*
G01*
X7880000Y-6500000D02*
G75*
G02*
X7920000Y-6500000I20000J0D01*
G01*
X7920000Y-6650000D02*
G75*
G02*
X7880000Y-6650000I-20000J0D01*
G01*
X7880000Y-6650000D02*
G75*
G02*
X7920000Y-6650000I20000J0D01*
G01*
X7920000Y-6800000D02*
G75*
G02*
X7880000Y-6800000I-20000J0D01*
G01*
X7880000Y-6800000D02*
G75*
G02*
X7920000Y-6800000I20000J0D01*
G01*
X7920000Y-6950000D02*
G75*
G02*
X7880000Y-6950000I-20000J0D01*
G01*
X7880000Y-6950000D02*
G75*
G02*
X7920000Y-6950000I20000J0D01*
G01*
X7920000Y-7100000D02*
G75*
G02*
X7880000Y-7100000I-20000J0D01*
G01*
X7880000Y-7100000D02*
G75*
G02*
X7920000Y-7100000I20000J0D01*
G01*
X7920000Y-7550000D02*
G75*
G02*
X7880000Y-7550000I-20000J0D01*
G01*
X7880000Y-7550000D02*
G75*
G02*
X7920000Y-7550000I20000J0D01*
G01*
X7920000Y-7800000D02*
G75*
G02*
X7880000Y-7800000I-20000J0D01*
G01*
X7880000Y-7800000D02*
G75*
G02*
X7920000Y-7800000I20000J0D01*
G01*
X7920000Y-8050000D02*
G75*
G02*
X7880000Y-8050000I-20000J0D01*
G01*
X7880000Y-8050000D02*
G75*
G02*
X7920000Y-8050000I20000J0D01*
G01*
X7970000Y-6300000D02*
G75*
G02*
X7930000Y-6300000I-20000J0D01*
G01*
X7930000Y-6300000D02*
G75*
G02*
X7970000Y-6300000I20000J0D01*
G01*
X8020000Y-6700000D02*
G75*
G02*
X7980000Y-6700000I-20000J0D01*
G01*
X7980000Y-6700000D02*
G75*
G02*
X8020000Y-6700000I20000J0D01*
G01*
X8020000Y-6850000D02*
G75*
G02*
X7980000Y-6850000I-20000J0D01*
G01*
X7980000Y-6850000D02*
G75*
G02*
X8020000Y-6850000I20000J0D01*
G01*
X8220000Y-10650000D02*
G75*
G02*
X8180000Y-10650000I-20000J0D01*
G01*
X8180000Y-10650000D02*
G75*
G02*
X8220000Y-10650000I20000J0D01*
G01*
X8250000Y-10350000D02*
G75*
G02*
X8210000Y-10350000I-20000J0D01*
G01*
X8210000Y-10350000D02*
G75*
G02*
X8250000Y-10350000I20000J0D01*
G01*
X8420000Y-10100000D02*
G75*
G02*
X8380000Y-10100000I-20000J0D01*
G01*
X8380000Y-10100000D02*
G75*
G02*
X8420000Y-10100000I20000J0D01*
G01*
X8470000Y-9750000D02*
G75*
G02*
X8430000Y-9750000I-20000J0D01*
G01*
X8430000Y-9750000D02*
G75*
G02*
X8470000Y-9750000I20000J0D01*
G01*
X8570000Y-8900000D02*
G75*
G02*
X8530000Y-8900000I-20000J0D01*
G01*
X8530000Y-8900000D02*
G75*
G02*
X8570000Y-8900000I20000J0D01*
G01*
X8620000Y-9200000D02*
G75*
G02*
X8580000Y-9200000I-20000J0D01*
G01*
X8580000Y-9200000D02*
G75*
G02*
X8620000Y-9200000I20000J0D01*
G01*
X8620000Y-10790000D02*
G75*
G02*
X8580000Y-10790000I-20000J0D01*
G01*
X8580000Y-10790000D02*
G75*
G02*
X8620000Y-10790000I20000J0D01*
G01*
X8720000Y-6300000D02*
G75*
G02*
X8680000Y-6300000I-20000J0D01*
G01*
X8680000Y-6300000D02*
G75*
G02*
X8720000Y-6300000I20000J0D01*
G01*
X8920000Y-5600000D02*
G75*
G02*
X8880000Y-5600000I-20000J0D01*
G01*
X8880000Y-5600000D02*
G75*
G02*
X8920000Y-5600000I20000J0D01*
G01*
X8970000Y-9800000D02*
G75*
G02*
X8930000Y-9800000I-20000J0D01*
G01*
X8930000Y-9800000D02*
G75*
G02*
X8970000Y-9800000I20000J0D01*
G01*
X6818000Y-10559500D02*
X6818000Y-10619500D01*
X6788000Y-10589500D02*
X6848000Y-10589500D01*
X6788000Y-10534500D02*
X6788000Y-10644500D01*
X6848000Y-10644500D02*
G75*
G02*
X6788000Y-10644500I-30000J0D01*
G01*
X6848000Y-10644500D02*
X6848000Y-10534500D01*
X6848000Y-10534500D02*
G75*
G03*
X6788000Y-10534500I-30000J0D01*
G01*
X6818000Y-10977500D02*
X6818000Y-11037500D01*
X6788000Y-11007500D02*
X6848000Y-11007500D01*
X6788000Y-10977500D02*
X6788000Y-11037500D01*
X6848000Y-11037500D02*
G75*
G02*
X6788000Y-11037500I-30000J0D01*
G01*
X6848000Y-11037500D02*
X6848000Y-10977500D01*
X6848000Y-10977500D02*
G75*
G03*
X6788000Y-10977500I-30000J0D01*
G01*
X7682000Y-10559500D02*
X7682000Y-10619500D01*
X7652000Y-10589500D02*
X7712000Y-10589500D01*
X7652000Y-10534500D02*
X7652000Y-10644500D01*
X7712000Y-10644500D02*
G75*
G02*
X7652000Y-10644500I-30000J0D01*
G01*
X7712000Y-10644500D02*
X7712000Y-10534500D01*
X7712000Y-10534500D02*
G75*
G03*
X7652000Y-10534500I-30000J0D01*
G01*
X7682000Y-10977500D02*
X7682000Y-11037500D01*
X7652000Y-11007500D02*
X7712000Y-11007500D01*
X7652000Y-10977500D02*
X7652000Y-11037500D01*
X7712000Y-11037500D02*
G75*
G02*
X7652000Y-11037500I-30000J0D01*
G01*
X7712000Y-11037500D02*
X7712000Y-10977500D01*
X7712000Y-10977500D02*
G75*
G03*
X7652000Y-10977500I-30000J0D01*
G01*
X5235356Y-6435356D02*
X5235356Y-6364644D01*
X5164644Y-6364644D01*
X5164644Y-6435356D01*
X5235356Y-6435356D01*
X5235356Y-6689356D02*
X5235356Y-6618644D01*
X5164644Y-6618644D01*
X5164644Y-6689356D01*
X5235356Y-6689356D01*
X5235356Y-6943356D02*
X5235356Y-6872644D01*
X5164644Y-6872644D01*
X5164644Y-6943356D01*
X5235356Y-6943356D01*
X5235356Y-7197356D02*
X5235356Y-7126644D01*
X5164644Y-7126644D01*
X5164644Y-7197356D01*
X5235356Y-7197356D01*
X5235356Y-7451356D02*
X5235356Y-7380644D01*
X5164644Y-7380644D01*
X5164644Y-7451356D01*
X5235356Y-7451356D01*
X5235356Y-7705356D02*
X5235356Y-7634644D01*
X5164644Y-7634644D01*
X5164644Y-7705356D01*
X5235356Y-7705356D01*
X5235356Y-7959356D02*
X5235356Y-7888644D01*
X5164644Y-7888644D01*
X5164644Y-7959356D01*
X5235356Y-7959356D01*
X5235356Y-8213356D02*
X5235356Y-8142644D01*
X5164644Y-8142644D01*
X5164644Y-8213356D01*
X5235356Y-8213356D01*
X5235356Y-8467356D02*
X5235356Y-8396644D01*
X5164644Y-8396644D01*
X5164644Y-8467356D01*
X5235356Y-8467356D01*
X5235356Y-8721356D02*
X5235356Y-8650644D01*
X5164644Y-8650644D01*
X5164644Y-8721356D01*
X5235356Y-8721356D01*
X5235356Y-8975356D02*
X5235356Y-8904644D01*
X5164644Y-8904644D01*
X5164644Y-8975356D01*
X5235356Y-8975356D01*
X5235356Y-9229356D02*
X5235356Y-9158644D01*
X5164644Y-9158644D01*
X5164644Y-9229356D01*
X5235356Y-9229356D01*
X5235356Y-9483356D02*
X5235356Y-9412644D01*
X5164644Y-9412644D01*
X5164644Y-9483356D01*
X5235356Y-9483356D01*
X5235356Y-9737356D02*
X5235356Y-9666644D01*
X5164644Y-9666644D01*
X5164644Y-9737356D01*
X5235356Y-9737356D01*
X5235356Y-9991356D02*
X5235356Y-9920644D01*
X5164644Y-9920644D01*
X5164644Y-9991356D01*
X5235356Y-9991356D01*
X5235356Y-10245356D02*
X5235356Y-10174644D01*
X5164644Y-10174644D01*
X5164644Y-10245356D01*
X5235356Y-10245356D01*
X7875356Y-8691356D02*
X7875356Y-8620644D01*
X7804644Y-8620644D01*
X7804644Y-8691356D01*
X7875356Y-8691356D01*
X7875356Y-8945356D02*
X7875356Y-8874644D01*
X7804644Y-8874644D01*
X7804644Y-8945356D01*
X7875356Y-8945356D01*
X7875356Y-9199356D02*
X7875356Y-9128644D01*
X7804644Y-9128644D01*
X7804644Y-9199356D01*
X7875356Y-9199356D01*
X7875356Y-9453356D02*
X7875356Y-9382644D01*
X7804644Y-9382644D01*
X7804644Y-9453356D01*
X7875356Y-9453356D01*
X7875356Y-9707356D02*
X7875356Y-9636644D01*
X7804644Y-9636644D01*
X7804644Y-9707356D01*
X7875356Y-9707356D01*
X7875356Y-9961356D02*
X7875356Y-9890644D01*
X7804644Y-9890644D01*
X7804644Y-9961356D01*
X7875356Y-9961356D01*
X9335356Y-6435356D02*
X9335356Y-6364644D01*
X9264644Y-6364644D01*
X9264644Y-6435356D01*
X9335356Y-6435356D01*
X9335356Y-6689356D02*
X9335356Y-6618644D01*
X9264644Y-6618644D01*
X9264644Y-6689356D01*
X9335356Y-6689356D01*
X9335356Y-6943356D02*
X9335356Y-6872644D01*
X9264644Y-6872644D01*
X9264644Y-6943356D01*
X9335356Y-6943356D01*
X9335356Y-7197356D02*
X9335356Y-7126644D01*
X9264644Y-7126644D01*
X9264644Y-7197356D01*
X9335356Y-7197356D01*
X9335356Y-7451356D02*
X9335356Y-7380644D01*
X9264644Y-7380644D01*
X9264644Y-7451356D01*
X9335356Y-7451356D01*
X9335356Y-7705356D02*
X9335356Y-7634644D01*
X9264644Y-7634644D01*
X9264644Y-7705356D01*
X9335356Y-7705356D01*
X9335356Y-7959356D02*
X9335356Y-7888644D01*
X9264644Y-7888644D01*
X9264644Y-7959356D01*
X9335356Y-7959356D01*
X9335356Y-8213356D02*
X9335356Y-8142644D01*
X9264644Y-8142644D01*
X9264644Y-8213356D01*
X9335356Y-8213356D01*
X9335356Y-8467356D02*
X9335356Y-8396644D01*
X9264644Y-8396644D01*
X9264644Y-8467356D01*
X9335356Y-8467356D01*
X9335356Y-8721356D02*
X9335356Y-8650644D01*
X9264644Y-8650644D01*
X9264644Y-8721356D01*
X9335356Y-8721356D01*
X9335356Y-8975356D02*
X9335356Y-8904644D01*
X9264644Y-8904644D01*
X9264644Y-8975356D01*
X9335356Y-8975356D01*
X9335356Y-9229356D02*
X9335356Y-9158644D01*
X9264644Y-9158644D01*
X9264644Y-9229356D01*
X9335356Y-9229356D01*
X9335356Y-9483356D02*
X9335356Y-9412644D01*
X9264644Y-9412644D01*
X9264644Y-9483356D01*
X9335356Y-9483356D01*
X9335356Y-9737356D02*
X9335356Y-9666644D01*
X9264644Y-9666644D01*
X9264644Y-9737356D01*
X9335356Y-9737356D01*
X9335356Y-9991356D02*
X9335356Y-9920644D01*
X9264644Y-9920644D01*
X9264644Y-9991356D01*
X9335356Y-9991356D01*
X9335356Y-10245356D02*
X9335356Y-10174644D01*
X9264644Y-10174644D01*
X9264644Y-10245356D01*
X9335356Y-10245356D01*
D11*
X5255777Y-11516484D02*
X5255777Y-11316484D01*
X5255777Y-11316484D02*
X5303396Y-11316484D01*
X5303396Y-11316484D02*
X5331967Y-11326008D01*
X5331967Y-11326008D02*
X5351015Y-11345055D01*
X5351015Y-11345055D02*
X5360539Y-11364103D01*
X5360539Y-11364103D02*
X5370063Y-11402198D01*
X5370063Y-11402198D02*
X5370063Y-11430769D01*
X5370063Y-11430769D02*
X5360539Y-11468865D01*
X5360539Y-11468865D02*
X5351015Y-11487912D01*
X5351015Y-11487912D02*
X5331967Y-11506960D01*
X5331967Y-11506960D02*
X5303396Y-11516484D01*
X5303396Y-11516484D02*
X5255777Y-11516484D01*
X5455777Y-11516484D02*
X5455777Y-11383150D01*
X5455777Y-11421246D02*
X5465301Y-11402198D01*
X5465301Y-11402198D02*
X5474824Y-11392674D01*
X5474824Y-11392674D02*
X5493872Y-11383150D01*
X5493872Y-11383150D02*
X5512920Y-11383150D01*
X5579586Y-11516484D02*
X5579586Y-11383150D01*
X5579586Y-11316484D02*
X5570063Y-11326008D01*
X5570063Y-11326008D02*
X5579586Y-11335531D01*
X5579586Y-11335531D02*
X5589110Y-11326008D01*
X5589110Y-11326008D02*
X5579586Y-11316484D01*
X5579586Y-11316484D02*
X5579586Y-11335531D01*
X5703396Y-11516484D02*
X5684348Y-11506960D01*
X5684348Y-11506960D02*
X5674824Y-11487912D01*
X5674824Y-11487912D02*
X5674824Y-11316484D01*
X5808158Y-11516484D02*
X5789110Y-11506960D01*
X5789110Y-11506960D02*
X5779586Y-11487912D01*
X5779586Y-11487912D02*
X5779586Y-11316484D01*
X6036729Y-11516484D02*
X6036729Y-11316484D01*
X6036729Y-11316484D02*
X6103396Y-11459341D01*
X6103396Y-11459341D02*
X6170062Y-11316484D01*
X6170062Y-11316484D02*
X6170062Y-11516484D01*
X6351015Y-11516484D02*
X6351015Y-11411722D01*
X6351015Y-11411722D02*
X6341491Y-11392674D01*
X6341491Y-11392674D02*
X6322443Y-11383150D01*
X6322443Y-11383150D02*
X6284348Y-11383150D01*
X6284348Y-11383150D02*
X6265301Y-11392674D01*
X6351015Y-11506960D02*
X6331967Y-11516484D01*
X6331967Y-11516484D02*
X6284348Y-11516484D01*
X6284348Y-11516484D02*
X6265301Y-11506960D01*
X6265301Y-11506960D02*
X6255777Y-11487912D01*
X6255777Y-11487912D02*
X6255777Y-11468865D01*
X6255777Y-11468865D02*
X6265301Y-11449817D01*
X6265301Y-11449817D02*
X6284348Y-11440293D01*
X6284348Y-11440293D02*
X6331967Y-11440293D01*
X6331967Y-11440293D02*
X6351015Y-11430769D01*
X6446253Y-11383150D02*
X6446253Y-11583150D01*
X6446253Y-11392674D02*
X6465301Y-11383150D01*
X6465301Y-11383150D02*
X6503396Y-11383150D01*
X6503396Y-11383150D02*
X6522443Y-11392674D01*
X6522443Y-11392674D02*
X6531967Y-11402198D01*
X6531967Y-11402198D02*
X6541491Y-11421246D01*
X6541491Y-11421246D02*
X6541491Y-11478388D01*
X6541491Y-11478388D02*
X6531967Y-11497436D01*
X6531967Y-11497436D02*
X6522443Y-11506960D01*
X6522443Y-11506960D02*
X6503396Y-11516484D01*
X6503396Y-11516484D02*
X6465301Y-11516484D01*
X6465301Y-11516484D02*
X6446253Y-11506960D01*
X6627205Y-11497436D02*
X6636729Y-11506960D01*
X6636729Y-11506960D02*
X6627205Y-11516484D01*
X6627205Y-11516484D02*
X6617682Y-11506960D01*
X6617682Y-11506960D02*
X6627205Y-11497436D01*
X6627205Y-11497436D02*
X6627205Y-11516484D01*
X6627205Y-11392674D02*
X6636729Y-11402198D01*
X6636729Y-11402198D02*
X6627205Y-11411722D01*
X6627205Y-11411722D02*
X6617682Y-11402198D01*
X6617682Y-11402198D02*
X6627205Y-11392674D01*
X6627205Y-11392674D02*
X6627205Y-11411722D01*
D10*
X4965000Y-11830000D02*
X4995000Y-11860000D01*
X4995000Y-11830000D02*
X4965000Y-11860000D01*
D11*
X5293872Y-11736484D02*
X5312920Y-11736484D01*
X5312920Y-11736484D02*
X5331967Y-11746008D01*
X5331967Y-11746008D02*
X5341491Y-11755531D01*
X5341491Y-11755531D02*
X5351015Y-11774579D01*
X5351015Y-11774579D02*
X5360539Y-11812674D01*
X5360539Y-11812674D02*
X5360539Y-11860293D01*
X5360539Y-11860293D02*
X5351015Y-11898388D01*
X5351015Y-11898388D02*
X5341491Y-11917436D01*
X5341491Y-11917436D02*
X5331967Y-11926960D01*
X5331967Y-11926960D02*
X5312920Y-11936484D01*
X5312920Y-11936484D02*
X5293872Y-11936484D01*
X5293872Y-11936484D02*
X5274824Y-11926960D01*
X5274824Y-11926960D02*
X5265301Y-11917436D01*
X5265301Y-11917436D02*
X5255777Y-11898388D01*
X5255777Y-11898388D02*
X5246253Y-11860293D01*
X5246253Y-11860293D02*
X5246253Y-11812674D01*
X5246253Y-11812674D02*
X5255777Y-11774579D01*
X5255777Y-11774579D02*
X5265301Y-11755531D01*
X5265301Y-11755531D02*
X5274824Y-11746008D01*
X5274824Y-11746008D02*
X5293872Y-11736484D01*
X5446253Y-11917436D02*
X5455777Y-11926960D01*
X5455777Y-11926960D02*
X5446253Y-11936484D01*
X5446253Y-11936484D02*
X5436729Y-11926960D01*
X5436729Y-11926960D02*
X5446253Y-11917436D01*
X5446253Y-11917436D02*
X5446253Y-11936484D01*
X5522444Y-11736484D02*
X5646253Y-11736484D01*
X5646253Y-11736484D02*
X5579586Y-11812674D01*
X5579586Y-11812674D02*
X5608158Y-11812674D01*
X5608158Y-11812674D02*
X5627205Y-11822198D01*
X5627205Y-11822198D02*
X5636729Y-11831722D01*
X5636729Y-11831722D02*
X5646253Y-11850769D01*
X5646253Y-11850769D02*
X5646253Y-11898388D01*
X5646253Y-11898388D02*
X5636729Y-11917436D01*
X5636729Y-11917436D02*
X5627205Y-11926960D01*
X5627205Y-11926960D02*
X5608158Y-11936484D01*
X5608158Y-11936484D02*
X5551015Y-11936484D01*
X5551015Y-11936484D02*
X5531967Y-11926960D01*
X5531967Y-11926960D02*
X5522444Y-11917436D01*
X5770062Y-11736484D02*
X5789110Y-11736484D01*
X5789110Y-11736484D02*
X5808158Y-11746008D01*
X5808158Y-11746008D02*
X5817682Y-11755531D01*
X5817682Y-11755531D02*
X5827205Y-11774579D01*
X5827205Y-11774579D02*
X5836729Y-11812674D01*
X5836729Y-11812674D02*
X5836729Y-11860293D01*
X5836729Y-11860293D02*
X5827205Y-11898388D01*
X5827205Y-11898388D02*
X5817682Y-11917436D01*
X5817682Y-11917436D02*
X5808158Y-11926960D01*
X5808158Y-11926960D02*
X5789110Y-11936484D01*
X5789110Y-11936484D02*
X5770062Y-11936484D01*
X5770062Y-11936484D02*
X5751015Y-11926960D01*
X5751015Y-11926960D02*
X5741491Y-11917436D01*
X5741491Y-11917436D02*
X5731967Y-11898388D01*
X5731967Y-11898388D02*
X5722443Y-11860293D01*
X5722443Y-11860293D02*
X5722443Y-11812674D01*
X5722443Y-11812674D02*
X5731967Y-11774579D01*
X5731967Y-11774579D02*
X5741491Y-11755531D01*
X5741491Y-11755531D02*
X5751015Y-11746008D01*
X5751015Y-11746008D02*
X5770062Y-11736484D01*
X5960539Y-11736484D02*
X5979586Y-11736484D01*
X5979586Y-11736484D02*
X5998634Y-11746008D01*
X5998634Y-11746008D02*
X6008158Y-11755531D01*
X6008158Y-11755531D02*
X6017682Y-11774579D01*
X6017682Y-11774579D02*
X6027205Y-11812674D01*
X6027205Y-11812674D02*
X6027205Y-11860293D01*
X6027205Y-11860293D02*
X6017682Y-11898388D01*
X6017682Y-11898388D02*
X6008158Y-11917436D01*
X6008158Y-11917436D02*
X5998634Y-11926960D01*
X5998634Y-11926960D02*
X5979586Y-11936484D01*
X5979586Y-11936484D02*
X5960539Y-11936484D01*
X5960539Y-11936484D02*
X5941491Y-11926960D01*
X5941491Y-11926960D02*
X5931967Y-11917436D01*
X5931967Y-11917436D02*
X5922443Y-11898388D01*
X5922443Y-11898388D02*
X5912920Y-11860293D01*
X5912920Y-11860293D02*
X5912920Y-11812674D01*
X5912920Y-11812674D02*
X5922443Y-11774579D01*
X5922443Y-11774579D02*
X5931967Y-11755531D01*
X5931967Y-11755531D02*
X5941491Y-11746008D01*
X5941491Y-11746008D02*
X5960539Y-11736484D01*
X6112920Y-11936484D02*
X6112920Y-11803150D01*
X6112920Y-11822198D02*
X6122443Y-11812674D01*
X6122443Y-11812674D02*
X6141491Y-11803150D01*
X6141491Y-11803150D02*
X6170063Y-11803150D01*
X6170063Y-11803150D02*
X6189110Y-11812674D01*
X6189110Y-11812674D02*
X6198634Y-11831722D01*
X6198634Y-11831722D02*
X6198634Y-11936484D01*
X6198634Y-11831722D02*
X6208158Y-11812674D01*
X6208158Y-11812674D02*
X6227205Y-11803150D01*
X6227205Y-11803150D02*
X6255777Y-11803150D01*
X6255777Y-11803150D02*
X6274824Y-11812674D01*
X6274824Y-11812674D02*
X6284348Y-11831722D01*
X6284348Y-11831722D02*
X6284348Y-11936484D01*
X6379586Y-11936484D02*
X6379586Y-11803150D01*
X6379586Y-11822198D02*
X6389110Y-11812674D01*
X6389110Y-11812674D02*
X6408158Y-11803150D01*
X6408158Y-11803150D02*
X6436729Y-11803150D01*
X6436729Y-11803150D02*
X6455777Y-11812674D01*
X6455777Y-11812674D02*
X6465301Y-11831722D01*
X6465301Y-11831722D02*
X6465301Y-11936484D01*
X6465301Y-11831722D02*
X6474824Y-11812674D01*
X6474824Y-11812674D02*
X6493872Y-11803150D01*
X6493872Y-11803150D02*
X6522443Y-11803150D01*
X6522443Y-11803150D02*
X6541491Y-11812674D01*
X6541491Y-11812674D02*
X6551015Y-11831722D01*
X6551015Y-11831722D02*
X6551015Y-11936484D01*
X6941491Y-11726960D02*
X6770063Y-11984103D01*
X7198634Y-11736484D02*
X7217682Y-11736484D01*
X7217682Y-11736484D02*
X7236729Y-11746008D01*
X7236729Y-11746008D02*
X7246253Y-11755531D01*
X7246253Y-11755531D02*
X7255777Y-11774579D01*
X7255777Y-11774579D02*
X7265301Y-11812674D01*
X7265301Y-11812674D02*
X7265301Y-11860293D01*
X7265301Y-11860293D02*
X7255777Y-11898388D01*
X7255777Y-11898388D02*
X7246253Y-11917436D01*
X7246253Y-11917436D02*
X7236729Y-11926960D01*
X7236729Y-11926960D02*
X7217682Y-11936484D01*
X7217682Y-11936484D02*
X7198634Y-11936484D01*
X7198634Y-11936484D02*
X7179586Y-11926960D01*
X7179586Y-11926960D02*
X7170063Y-11917436D01*
X7170063Y-11917436D02*
X7160539Y-11898388D01*
X7160539Y-11898388D02*
X7151015Y-11860293D01*
X7151015Y-11860293D02*
X7151015Y-11812674D01*
X7151015Y-11812674D02*
X7160539Y-11774579D01*
X7160539Y-11774579D02*
X7170063Y-11755531D01*
X7170063Y-11755531D02*
X7179586Y-11746008D01*
X7179586Y-11746008D02*
X7198634Y-11736484D01*
X7351015Y-11917436D02*
X7360539Y-11926960D01*
X7360539Y-11926960D02*
X7351015Y-11936484D01*
X7351015Y-11936484D02*
X7341491Y-11926960D01*
X7341491Y-11926960D02*
X7351015Y-11917436D01*
X7351015Y-11917436D02*
X7351015Y-11936484D01*
X7484348Y-11736484D02*
X7503396Y-11736484D01*
X7503396Y-11736484D02*
X7522444Y-11746008D01*
X7522444Y-11746008D02*
X7531967Y-11755531D01*
X7531967Y-11755531D02*
X7541491Y-11774579D01*
X7541491Y-11774579D02*
X7551015Y-11812674D01*
X7551015Y-11812674D02*
X7551015Y-11860293D01*
X7551015Y-11860293D02*
X7541491Y-11898388D01*
X7541491Y-11898388D02*
X7531967Y-11917436D01*
X7531967Y-11917436D02*
X7522444Y-11926960D01*
X7522444Y-11926960D02*
X7503396Y-11936484D01*
X7503396Y-11936484D02*
X7484348Y-11936484D01*
X7484348Y-11936484D02*
X7465301Y-11926960D01*
X7465301Y-11926960D02*
X7455777Y-11917436D01*
X7455777Y-11917436D02*
X7446253Y-11898388D01*
X7446253Y-11898388D02*
X7436729Y-11860293D01*
X7436729Y-11860293D02*
X7436729Y-11812674D01*
X7436729Y-11812674D02*
X7446253Y-11774579D01*
X7446253Y-11774579D02*
X7455777Y-11755531D01*
X7455777Y-11755531D02*
X7465301Y-11746008D01*
X7465301Y-11746008D02*
X7484348Y-11736484D01*
X7741491Y-11936484D02*
X7627206Y-11936484D01*
X7684348Y-11936484D02*
X7684348Y-11736484D01*
X7684348Y-11736484D02*
X7665301Y-11765055D01*
X7665301Y-11765055D02*
X7646253Y-11784103D01*
X7646253Y-11784103D02*
X7627206Y-11793627D01*
X7931967Y-11936484D02*
X7817682Y-11936484D01*
X7874825Y-11936484D02*
X7874825Y-11736484D01*
X7874825Y-11736484D02*
X7855777Y-11765055D01*
X7855777Y-11765055D02*
X7836729Y-11784103D01*
X7836729Y-11784103D02*
X7817682Y-11793627D01*
X8046253Y-11822198D02*
X8027206Y-11812674D01*
X8027206Y-11812674D02*
X8017682Y-11803150D01*
X8017682Y-11803150D02*
X8008158Y-11784103D01*
X8008158Y-11784103D02*
X8008158Y-11774579D01*
X8008158Y-11774579D02*
X8017682Y-11755531D01*
X8017682Y-11755531D02*
X8027206Y-11746008D01*
X8027206Y-11746008D02*
X8046253Y-11736484D01*
X8046253Y-11736484D02*
X8084348Y-11736484D01*
X8084348Y-11736484D02*
X8103396Y-11746008D01*
X8103396Y-11746008D02*
X8112920Y-11755531D01*
X8112920Y-11755531D02*
X8122444Y-11774579D01*
X8122444Y-11774579D02*
X8122444Y-11784103D01*
X8122444Y-11784103D02*
X8112920Y-11803150D01*
X8112920Y-11803150D02*
X8103396Y-11812674D01*
X8103396Y-11812674D02*
X8084348Y-11822198D01*
X8084348Y-11822198D02*
X8046253Y-11822198D01*
X8046253Y-11822198D02*
X8027206Y-11831722D01*
X8027206Y-11831722D02*
X8017682Y-11841246D01*
X8017682Y-11841246D02*
X8008158Y-11860293D01*
X8008158Y-11860293D02*
X8008158Y-11898388D01*
X8008158Y-11898388D02*
X8017682Y-11917436D01*
X8017682Y-11917436D02*
X8027206Y-11926960D01*
X8027206Y-11926960D02*
X8046253Y-11936484D01*
X8046253Y-11936484D02*
X8084348Y-11936484D01*
X8084348Y-11936484D02*
X8103396Y-11926960D01*
X8103396Y-11926960D02*
X8112920Y-11917436D01*
X8112920Y-11917436D02*
X8122444Y-11898388D01*
X8122444Y-11898388D02*
X8122444Y-11860293D01*
X8122444Y-11860293D02*
X8112920Y-11841246D01*
X8112920Y-11841246D02*
X8103396Y-11831722D01*
X8103396Y-11831722D02*
X8084348Y-11822198D01*
X8198634Y-11736484D02*
X8198634Y-11774579D01*
X8274825Y-11736484D02*
X8274825Y-11774579D01*
X8570063Y-12012674D02*
X8560539Y-12003150D01*
X8560539Y-12003150D02*
X8541491Y-11974579D01*
X8541491Y-11974579D02*
X8531968Y-11955531D01*
X8531968Y-11955531D02*
X8522444Y-11926960D01*
X8522444Y-11926960D02*
X8512920Y-11879341D01*
X8512920Y-11879341D02*
X8512920Y-11841246D01*
X8512920Y-11841246D02*
X8522444Y-11793627D01*
X8522444Y-11793627D02*
X8531968Y-11765055D01*
X8531968Y-11765055D02*
X8541491Y-11746008D01*
X8541491Y-11746008D02*
X8560539Y-11717436D01*
X8560539Y-11717436D02*
X8570063Y-11707912D01*
X8627206Y-11736484D02*
X8760539Y-11736484D01*
X8760539Y-11736484D02*
X8674825Y-11936484D01*
X8989111Y-11936484D02*
X8989111Y-11736484D01*
X9074825Y-11936484D02*
X9074825Y-11831722D01*
X9074825Y-11831722D02*
X9065301Y-11812674D01*
X9065301Y-11812674D02*
X9046253Y-11803150D01*
X9046253Y-11803150D02*
X9017682Y-11803150D01*
X9017682Y-11803150D02*
X8998634Y-11812674D01*
X8998634Y-11812674D02*
X8989111Y-11822198D01*
X9198634Y-11936484D02*
X9179587Y-11926960D01*
X9179587Y-11926960D02*
X9170063Y-11917436D01*
X9170063Y-11917436D02*
X9160539Y-11898388D01*
X9160539Y-11898388D02*
X9160539Y-11841246D01*
X9160539Y-11841246D02*
X9170063Y-11822198D01*
X9170063Y-11822198D02*
X9179587Y-11812674D01*
X9179587Y-11812674D02*
X9198634Y-11803150D01*
X9198634Y-11803150D02*
X9227206Y-11803150D01*
X9227206Y-11803150D02*
X9246253Y-11812674D01*
X9246253Y-11812674D02*
X9255777Y-11822198D01*
X9255777Y-11822198D02*
X9265301Y-11841246D01*
X9265301Y-11841246D02*
X9265301Y-11898388D01*
X9265301Y-11898388D02*
X9255777Y-11917436D01*
X9255777Y-11917436D02*
X9246253Y-11926960D01*
X9246253Y-11926960D02*
X9227206Y-11936484D01*
X9227206Y-11936484D02*
X9198634Y-11936484D01*
X9379587Y-11936484D02*
X9360539Y-11926960D01*
X9360539Y-11926960D02*
X9351015Y-11907912D01*
X9351015Y-11907912D02*
X9351015Y-11736484D01*
X9531968Y-11926960D02*
X9512920Y-11936484D01*
X9512920Y-11936484D02*
X9474825Y-11936484D01*
X9474825Y-11936484D02*
X9455777Y-11926960D01*
X9455777Y-11926960D02*
X9446253Y-11907912D01*
X9446253Y-11907912D02*
X9446253Y-11831722D01*
X9446253Y-11831722D02*
X9455777Y-11812674D01*
X9455777Y-11812674D02*
X9474825Y-11803150D01*
X9474825Y-11803150D02*
X9512920Y-11803150D01*
X9512920Y-11803150D02*
X9531968Y-11812674D01*
X9531968Y-11812674D02*
X9541492Y-11831722D01*
X9541492Y-11831722D02*
X9541492Y-11850769D01*
X9541492Y-11850769D02*
X9446253Y-11869817D01*
X9617682Y-11926960D02*
X9636730Y-11936484D01*
X9636730Y-11936484D02*
X9674825Y-11936484D01*
X9674825Y-11936484D02*
X9693873Y-11926960D01*
X9693873Y-11926960D02*
X9703396Y-11907912D01*
X9703396Y-11907912D02*
X9703396Y-11898388D01*
X9703396Y-11898388D02*
X9693873Y-11879341D01*
X9693873Y-11879341D02*
X9674825Y-11869817D01*
X9674825Y-11869817D02*
X9646253Y-11869817D01*
X9646253Y-11869817D02*
X9627206Y-11860293D01*
X9627206Y-11860293D02*
X9617682Y-11841246D01*
X9617682Y-11841246D02*
X9617682Y-11831722D01*
X9617682Y-11831722D02*
X9627206Y-11812674D01*
X9627206Y-11812674D02*
X9646253Y-11803150D01*
X9646253Y-11803150D02*
X9674825Y-11803150D01*
X9674825Y-11803150D02*
X9693873Y-11812674D01*
X9770063Y-12012674D02*
X9779587Y-12003150D01*
X9779587Y-12003150D02*
X9798634Y-11974579D01*
X9798634Y-11974579D02*
X9808158Y-11955531D01*
X9808158Y-11955531D02*
X9817682Y-11926960D01*
X9817682Y-11926960D02*
X9827206Y-11879341D01*
X9827206Y-11879341D02*
X9827206Y-11841246D01*
X9827206Y-11841246D02*
X9817682Y-11793627D01*
X9817682Y-11793627D02*
X9808158Y-11765055D01*
X9808158Y-11765055D02*
X9798634Y-11746008D01*
X9798634Y-11746008D02*
X9779587Y-11717436D01*
X9779587Y-11717436D02*
X9770063Y-11707912D01*
D10*
X4995000Y-12109000D02*
G75*
G02*
X4955000Y-12109000I-20000J0D01*
G01*
X4955000Y-12109000D02*
G75*
G02*
X4995000Y-12109000I20000J0D01*
G01*
D11*
X5293872Y-12000484D02*
X5312920Y-12000484D01*
X5312920Y-12000484D02*
X5331967Y-12010008D01*
X5331967Y-12010008D02*
X5341491Y-12019531D01*
X5341491Y-12019531D02*
X5351015Y-12038579D01*
X5351015Y-12038579D02*
X5360539Y-12076674D01*
X5360539Y-12076674D02*
X5360539Y-12124293D01*
X5360539Y-12124293D02*
X5351015Y-12162388D01*
X5351015Y-12162388D02*
X5341491Y-12181436D01*
X5341491Y-12181436D02*
X5331967Y-12190960D01*
X5331967Y-12190960D02*
X5312920Y-12200484D01*
X5312920Y-12200484D02*
X5293872Y-12200484D01*
X5293872Y-12200484D02*
X5274824Y-12190960D01*
X5274824Y-12190960D02*
X5265301Y-12181436D01*
X5265301Y-12181436D02*
X5255777Y-12162388D01*
X5255777Y-12162388D02*
X5246253Y-12124293D01*
X5246253Y-12124293D02*
X5246253Y-12076674D01*
X5246253Y-12076674D02*
X5255777Y-12038579D01*
X5255777Y-12038579D02*
X5265301Y-12019531D01*
X5265301Y-12019531D02*
X5274824Y-12010008D01*
X5274824Y-12010008D02*
X5293872Y-12000484D01*
X5446253Y-12181436D02*
X5455777Y-12190960D01*
X5455777Y-12190960D02*
X5446253Y-12200484D01*
X5446253Y-12200484D02*
X5436729Y-12190960D01*
X5436729Y-12190960D02*
X5446253Y-12181436D01*
X5446253Y-12181436D02*
X5446253Y-12200484D01*
X5627205Y-12067150D02*
X5627205Y-12200484D01*
X5579586Y-11990960D02*
X5531967Y-12133817D01*
X5531967Y-12133817D02*
X5655777Y-12133817D01*
X5770062Y-12000484D02*
X5789110Y-12000484D01*
X5789110Y-12000484D02*
X5808158Y-12010008D01*
X5808158Y-12010008D02*
X5817682Y-12019531D01*
X5817682Y-12019531D02*
X5827205Y-12038579D01*
X5827205Y-12038579D02*
X5836729Y-12076674D01*
X5836729Y-12076674D02*
X5836729Y-12124293D01*
X5836729Y-12124293D02*
X5827205Y-12162388D01*
X5827205Y-12162388D02*
X5817682Y-12181436D01*
X5817682Y-12181436D02*
X5808158Y-12190960D01*
X5808158Y-12190960D02*
X5789110Y-12200484D01*
X5789110Y-12200484D02*
X5770062Y-12200484D01*
X5770062Y-12200484D02*
X5751015Y-12190960D01*
X5751015Y-12190960D02*
X5741491Y-12181436D01*
X5741491Y-12181436D02*
X5731967Y-12162388D01*
X5731967Y-12162388D02*
X5722443Y-12124293D01*
X5722443Y-12124293D02*
X5722443Y-12076674D01*
X5722443Y-12076674D02*
X5731967Y-12038579D01*
X5731967Y-12038579D02*
X5741491Y-12019531D01*
X5741491Y-12019531D02*
X5751015Y-12010008D01*
X5751015Y-12010008D02*
X5770062Y-12000484D01*
X5960539Y-12000484D02*
X5979586Y-12000484D01*
X5979586Y-12000484D02*
X5998634Y-12010008D01*
X5998634Y-12010008D02*
X6008158Y-12019531D01*
X6008158Y-12019531D02*
X6017682Y-12038579D01*
X6017682Y-12038579D02*
X6027205Y-12076674D01*
X6027205Y-12076674D02*
X6027205Y-12124293D01*
X6027205Y-12124293D02*
X6017682Y-12162388D01*
X6017682Y-12162388D02*
X6008158Y-12181436D01*
X6008158Y-12181436D02*
X5998634Y-12190960D01*
X5998634Y-12190960D02*
X5979586Y-12200484D01*
X5979586Y-12200484D02*
X5960539Y-12200484D01*
X5960539Y-12200484D02*
X5941491Y-12190960D01*
X5941491Y-12190960D02*
X5931967Y-12181436D01*
X5931967Y-12181436D02*
X5922443Y-12162388D01*
X5922443Y-12162388D02*
X5912920Y-12124293D01*
X5912920Y-12124293D02*
X5912920Y-12076674D01*
X5912920Y-12076674D02*
X5922443Y-12038579D01*
X5922443Y-12038579D02*
X5931967Y-12019531D01*
X5931967Y-12019531D02*
X5941491Y-12010008D01*
X5941491Y-12010008D02*
X5960539Y-12000484D01*
X6112920Y-12200484D02*
X6112920Y-12067150D01*
X6112920Y-12086198D02*
X6122443Y-12076674D01*
X6122443Y-12076674D02*
X6141491Y-12067150D01*
X6141491Y-12067150D02*
X6170063Y-12067150D01*
X6170063Y-12067150D02*
X6189110Y-12076674D01*
X6189110Y-12076674D02*
X6198634Y-12095722D01*
X6198634Y-12095722D02*
X6198634Y-12200484D01*
X6198634Y-12095722D02*
X6208158Y-12076674D01*
X6208158Y-12076674D02*
X6227205Y-12067150D01*
X6227205Y-12067150D02*
X6255777Y-12067150D01*
X6255777Y-12067150D02*
X6274824Y-12076674D01*
X6274824Y-12076674D02*
X6284348Y-12095722D01*
X6284348Y-12095722D02*
X6284348Y-12200484D01*
X6379586Y-12200484D02*
X6379586Y-12067150D01*
X6379586Y-12086198D02*
X6389110Y-12076674D01*
X6389110Y-12076674D02*
X6408158Y-12067150D01*
X6408158Y-12067150D02*
X6436729Y-12067150D01*
X6436729Y-12067150D02*
X6455777Y-12076674D01*
X6455777Y-12076674D02*
X6465301Y-12095722D01*
X6465301Y-12095722D02*
X6465301Y-12200484D01*
X6465301Y-12095722D02*
X6474824Y-12076674D01*
X6474824Y-12076674D02*
X6493872Y-12067150D01*
X6493872Y-12067150D02*
X6522443Y-12067150D01*
X6522443Y-12067150D02*
X6541491Y-12076674D01*
X6541491Y-12076674D02*
X6551015Y-12095722D01*
X6551015Y-12095722D02*
X6551015Y-12200484D01*
X6941491Y-11990960D02*
X6770063Y-12248103D01*
X7198634Y-12000484D02*
X7217682Y-12000484D01*
X7217682Y-12000484D02*
X7236729Y-12010008D01*
X7236729Y-12010008D02*
X7246253Y-12019531D01*
X7246253Y-12019531D02*
X7255777Y-12038579D01*
X7255777Y-12038579D02*
X7265301Y-12076674D01*
X7265301Y-12076674D02*
X7265301Y-12124293D01*
X7265301Y-12124293D02*
X7255777Y-12162388D01*
X7255777Y-12162388D02*
X7246253Y-12181436D01*
X7246253Y-12181436D02*
X7236729Y-12190960D01*
X7236729Y-12190960D02*
X7217682Y-12200484D01*
X7217682Y-12200484D02*
X7198634Y-12200484D01*
X7198634Y-12200484D02*
X7179586Y-12190960D01*
X7179586Y-12190960D02*
X7170063Y-12181436D01*
X7170063Y-12181436D02*
X7160539Y-12162388D01*
X7160539Y-12162388D02*
X7151015Y-12124293D01*
X7151015Y-12124293D02*
X7151015Y-12076674D01*
X7151015Y-12076674D02*
X7160539Y-12038579D01*
X7160539Y-12038579D02*
X7170063Y-12019531D01*
X7170063Y-12019531D02*
X7179586Y-12010008D01*
X7179586Y-12010008D02*
X7198634Y-12000484D01*
X7351015Y-12181436D02*
X7360539Y-12190960D01*
X7360539Y-12190960D02*
X7351015Y-12200484D01*
X7351015Y-12200484D02*
X7341491Y-12190960D01*
X7341491Y-12190960D02*
X7351015Y-12181436D01*
X7351015Y-12181436D02*
X7351015Y-12200484D01*
X7484348Y-12000484D02*
X7503396Y-12000484D01*
X7503396Y-12000484D02*
X7522444Y-12010008D01*
X7522444Y-12010008D02*
X7531967Y-12019531D01*
X7531967Y-12019531D02*
X7541491Y-12038579D01*
X7541491Y-12038579D02*
X7551015Y-12076674D01*
X7551015Y-12076674D02*
X7551015Y-12124293D01*
X7551015Y-12124293D02*
X7541491Y-12162388D01*
X7541491Y-12162388D02*
X7531967Y-12181436D01*
X7531967Y-12181436D02*
X7522444Y-12190960D01*
X7522444Y-12190960D02*
X7503396Y-12200484D01*
X7503396Y-12200484D02*
X7484348Y-12200484D01*
X7484348Y-12200484D02*
X7465301Y-12190960D01*
X7465301Y-12190960D02*
X7455777Y-12181436D01*
X7455777Y-12181436D02*
X7446253Y-12162388D01*
X7446253Y-12162388D02*
X7436729Y-12124293D01*
X7436729Y-12124293D02*
X7436729Y-12076674D01*
X7436729Y-12076674D02*
X7446253Y-12038579D01*
X7446253Y-12038579D02*
X7455777Y-12019531D01*
X7455777Y-12019531D02*
X7465301Y-12010008D01*
X7465301Y-12010008D02*
X7484348Y-12000484D01*
X7741491Y-12200484D02*
X7627206Y-12200484D01*
X7684348Y-12200484D02*
X7684348Y-12000484D01*
X7684348Y-12000484D02*
X7665301Y-12029055D01*
X7665301Y-12029055D02*
X7646253Y-12048103D01*
X7646253Y-12048103D02*
X7627206Y-12057627D01*
X7922444Y-12000484D02*
X7827206Y-12000484D01*
X7827206Y-12000484D02*
X7817682Y-12095722D01*
X7817682Y-12095722D02*
X7827206Y-12086198D01*
X7827206Y-12086198D02*
X7846253Y-12076674D01*
X7846253Y-12076674D02*
X7893872Y-12076674D01*
X7893872Y-12076674D02*
X7912920Y-12086198D01*
X7912920Y-12086198D02*
X7922444Y-12095722D01*
X7922444Y-12095722D02*
X7931967Y-12114769D01*
X7931967Y-12114769D02*
X7931967Y-12162388D01*
X7931967Y-12162388D02*
X7922444Y-12181436D01*
X7922444Y-12181436D02*
X7912920Y-12190960D01*
X7912920Y-12190960D02*
X7893872Y-12200484D01*
X7893872Y-12200484D02*
X7846253Y-12200484D01*
X7846253Y-12200484D02*
X7827206Y-12190960D01*
X7827206Y-12190960D02*
X7817682Y-12181436D01*
X7998634Y-12000484D02*
X8131967Y-12000484D01*
X8131967Y-12000484D02*
X8046253Y-12200484D01*
X8198634Y-12000484D02*
X8198634Y-12038579D01*
X8274825Y-12000484D02*
X8274825Y-12038579D01*
X8570063Y-12276674D02*
X8560539Y-12267150D01*
X8560539Y-12267150D02*
X8541491Y-12238579D01*
X8541491Y-12238579D02*
X8531968Y-12219531D01*
X8531968Y-12219531D02*
X8522444Y-12190960D01*
X8522444Y-12190960D02*
X8512920Y-12143341D01*
X8512920Y-12143341D02*
X8512920Y-12105246D01*
X8512920Y-12105246D02*
X8522444Y-12057627D01*
X8522444Y-12057627D02*
X8531968Y-12029055D01*
X8531968Y-12029055D02*
X8541491Y-12010008D01*
X8541491Y-12010008D02*
X8560539Y-11981436D01*
X8560539Y-11981436D02*
X8570063Y-11971912D01*
X8741491Y-12000484D02*
X8646253Y-12000484D01*
X8646253Y-12000484D02*
X8636730Y-12095722D01*
X8636730Y-12095722D02*
X8646253Y-12086198D01*
X8646253Y-12086198D02*
X8665301Y-12076674D01*
X8665301Y-12076674D02*
X8712920Y-12076674D01*
X8712920Y-12076674D02*
X8731968Y-12086198D01*
X8731968Y-12086198D02*
X8741491Y-12095722D01*
X8741491Y-12095722D02*
X8751015Y-12114769D01*
X8751015Y-12114769D02*
X8751015Y-12162388D01*
X8751015Y-12162388D02*
X8741491Y-12181436D01*
X8741491Y-12181436D02*
X8731968Y-12190960D01*
X8731968Y-12190960D02*
X8712920Y-12200484D01*
X8712920Y-12200484D02*
X8665301Y-12200484D01*
X8665301Y-12200484D02*
X8646253Y-12190960D01*
X8646253Y-12190960D02*
X8636730Y-12181436D01*
X8817682Y-12000484D02*
X8951015Y-12000484D01*
X8951015Y-12000484D02*
X8865301Y-12200484D01*
X9179587Y-12200484D02*
X9179587Y-12000484D01*
X9265301Y-12200484D02*
X9265301Y-12095722D01*
X9265301Y-12095722D02*
X9255777Y-12076674D01*
X9255777Y-12076674D02*
X9236730Y-12067150D01*
X9236730Y-12067150D02*
X9208158Y-12067150D01*
X9208158Y-12067150D02*
X9189111Y-12076674D01*
X9189111Y-12076674D02*
X9179587Y-12086198D01*
X9389111Y-12200484D02*
X9370063Y-12190960D01*
X9370063Y-12190960D02*
X9360539Y-12181436D01*
X9360539Y-12181436D02*
X9351015Y-12162388D01*
X9351015Y-12162388D02*
X9351015Y-12105246D01*
X9351015Y-12105246D02*
X9360539Y-12086198D01*
X9360539Y-12086198D02*
X9370063Y-12076674D01*
X9370063Y-12076674D02*
X9389111Y-12067150D01*
X9389111Y-12067150D02*
X9417682Y-12067150D01*
X9417682Y-12067150D02*
X9436730Y-12076674D01*
X9436730Y-12076674D02*
X9446253Y-12086198D01*
X9446253Y-12086198D02*
X9455777Y-12105246D01*
X9455777Y-12105246D02*
X9455777Y-12162388D01*
X9455777Y-12162388D02*
X9446253Y-12181436D01*
X9446253Y-12181436D02*
X9436730Y-12190960D01*
X9436730Y-12190960D02*
X9417682Y-12200484D01*
X9417682Y-12200484D02*
X9389111Y-12200484D01*
X9570063Y-12200484D02*
X9551015Y-12190960D01*
X9551015Y-12190960D02*
X9541492Y-12171912D01*
X9541492Y-12171912D02*
X9541492Y-12000484D01*
X9722444Y-12190960D02*
X9703396Y-12200484D01*
X9703396Y-12200484D02*
X9665301Y-12200484D01*
X9665301Y-12200484D02*
X9646253Y-12190960D01*
X9646253Y-12190960D02*
X9636730Y-12171912D01*
X9636730Y-12171912D02*
X9636730Y-12095722D01*
X9636730Y-12095722D02*
X9646253Y-12076674D01*
X9646253Y-12076674D02*
X9665301Y-12067150D01*
X9665301Y-12067150D02*
X9703396Y-12067150D01*
X9703396Y-12067150D02*
X9722444Y-12076674D01*
X9722444Y-12076674D02*
X9731968Y-12095722D01*
X9731968Y-12095722D02*
X9731968Y-12114769D01*
X9731968Y-12114769D02*
X9636730Y-12133817D01*
X9808158Y-12190960D02*
X9827206Y-12200484D01*
X9827206Y-12200484D02*
X9865301Y-12200484D01*
X9865301Y-12200484D02*
X9884349Y-12190960D01*
X9884349Y-12190960D02*
X9893873Y-12171912D01*
X9893873Y-12171912D02*
X9893873Y-12162388D01*
X9893873Y-12162388D02*
X9884349Y-12143341D01*
X9884349Y-12143341D02*
X9865301Y-12133817D01*
X9865301Y-12133817D02*
X9836730Y-12133817D01*
X9836730Y-12133817D02*
X9817682Y-12124293D01*
X9817682Y-12124293D02*
X9808158Y-12105246D01*
X9808158Y-12105246D02*
X9808158Y-12095722D01*
X9808158Y-12095722D02*
X9817682Y-12076674D01*
X9817682Y-12076674D02*
X9836730Y-12067150D01*
X9836730Y-12067150D02*
X9865301Y-12067150D01*
X9865301Y-12067150D02*
X9884349Y-12076674D01*
X9960539Y-12276674D02*
X9970063Y-12267150D01*
X9970063Y-12267150D02*
X9989111Y-12238579D01*
X9989111Y-12238579D02*
X9998634Y-12219531D01*
X9998634Y-12219531D02*
X10008158Y-12190960D01*
X10008158Y-12190960D02*
X10017682Y-12143341D01*
X10017682Y-12143341D02*
X10017682Y-12105246D01*
X10017682Y-12105246D02*
X10008158Y-12057627D01*
X10008158Y-12057627D02*
X9998634Y-12029055D01*
X9998634Y-12029055D02*
X9989111Y-12010008D01*
X9989111Y-12010008D02*
X9970063Y-11981436D01*
X9970063Y-11981436D02*
X9960539Y-11971912D01*
D10*
X4965000Y-12343000D02*
X4965000Y-12403000D01*
X4935000Y-12373000D02*
X4995000Y-12373000D01*
D11*
X5293872Y-12264484D02*
X5312920Y-12264484D01*
X5312920Y-12264484D02*
X5331967Y-12274008D01*
X5331967Y-12274008D02*
X5341491Y-12283531D01*
X5341491Y-12283531D02*
X5351015Y-12302579D01*
X5351015Y-12302579D02*
X5360539Y-12340674D01*
X5360539Y-12340674D02*
X5360539Y-12388293D01*
X5360539Y-12388293D02*
X5351015Y-12426388D01*
X5351015Y-12426388D02*
X5341491Y-12445436D01*
X5341491Y-12445436D02*
X5331967Y-12454960D01*
X5331967Y-12454960D02*
X5312920Y-12464484D01*
X5312920Y-12464484D02*
X5293872Y-12464484D01*
X5293872Y-12464484D02*
X5274824Y-12454960D01*
X5274824Y-12454960D02*
X5265301Y-12445436D01*
X5265301Y-12445436D02*
X5255777Y-12426388D01*
X5255777Y-12426388D02*
X5246253Y-12388293D01*
X5246253Y-12388293D02*
X5246253Y-12340674D01*
X5246253Y-12340674D02*
X5255777Y-12302579D01*
X5255777Y-12302579D02*
X5265301Y-12283531D01*
X5265301Y-12283531D02*
X5274824Y-12274008D01*
X5274824Y-12274008D02*
X5293872Y-12264484D01*
X5446253Y-12445436D02*
X5455777Y-12454960D01*
X5455777Y-12454960D02*
X5446253Y-12464484D01*
X5446253Y-12464484D02*
X5436729Y-12454960D01*
X5436729Y-12454960D02*
X5446253Y-12445436D01*
X5446253Y-12445436D02*
X5446253Y-12464484D01*
X5627205Y-12264484D02*
X5589110Y-12264484D01*
X5589110Y-12264484D02*
X5570063Y-12274008D01*
X5570063Y-12274008D02*
X5560539Y-12283531D01*
X5560539Y-12283531D02*
X5541491Y-12312103D01*
X5541491Y-12312103D02*
X5531967Y-12350198D01*
X5531967Y-12350198D02*
X5531967Y-12426388D01*
X5531967Y-12426388D02*
X5541491Y-12445436D01*
X5541491Y-12445436D02*
X5551015Y-12454960D01*
X5551015Y-12454960D02*
X5570063Y-12464484D01*
X5570063Y-12464484D02*
X5608158Y-12464484D01*
X5608158Y-12464484D02*
X5627205Y-12454960D01*
X5627205Y-12454960D02*
X5636729Y-12445436D01*
X5636729Y-12445436D02*
X5646253Y-12426388D01*
X5646253Y-12426388D02*
X5646253Y-12378769D01*
X5646253Y-12378769D02*
X5636729Y-12359722D01*
X5636729Y-12359722D02*
X5627205Y-12350198D01*
X5627205Y-12350198D02*
X5608158Y-12340674D01*
X5608158Y-12340674D02*
X5570063Y-12340674D01*
X5570063Y-12340674D02*
X5551015Y-12350198D01*
X5551015Y-12350198D02*
X5541491Y-12359722D01*
X5541491Y-12359722D02*
X5531967Y-12378769D01*
X5770062Y-12264484D02*
X5789110Y-12264484D01*
X5789110Y-12264484D02*
X5808158Y-12274008D01*
X5808158Y-12274008D02*
X5817682Y-12283531D01*
X5817682Y-12283531D02*
X5827205Y-12302579D01*
X5827205Y-12302579D02*
X5836729Y-12340674D01*
X5836729Y-12340674D02*
X5836729Y-12388293D01*
X5836729Y-12388293D02*
X5827205Y-12426388D01*
X5827205Y-12426388D02*
X5817682Y-12445436D01*
X5817682Y-12445436D02*
X5808158Y-12454960D01*
X5808158Y-12454960D02*
X5789110Y-12464484D01*
X5789110Y-12464484D02*
X5770062Y-12464484D01*
X5770062Y-12464484D02*
X5751015Y-12454960D01*
X5751015Y-12454960D02*
X5741491Y-12445436D01*
X5741491Y-12445436D02*
X5731967Y-12426388D01*
X5731967Y-12426388D02*
X5722443Y-12388293D01*
X5722443Y-12388293D02*
X5722443Y-12340674D01*
X5722443Y-12340674D02*
X5731967Y-12302579D01*
X5731967Y-12302579D02*
X5741491Y-12283531D01*
X5741491Y-12283531D02*
X5751015Y-12274008D01*
X5751015Y-12274008D02*
X5770062Y-12264484D01*
X5960539Y-12264484D02*
X5979586Y-12264484D01*
X5979586Y-12264484D02*
X5998634Y-12274008D01*
X5998634Y-12274008D02*
X6008158Y-12283531D01*
X6008158Y-12283531D02*
X6017682Y-12302579D01*
X6017682Y-12302579D02*
X6027205Y-12340674D01*
X6027205Y-12340674D02*
X6027205Y-12388293D01*
X6027205Y-12388293D02*
X6017682Y-12426388D01*
X6017682Y-12426388D02*
X6008158Y-12445436D01*
X6008158Y-12445436D02*
X5998634Y-12454960D01*
X5998634Y-12454960D02*
X5979586Y-12464484D01*
X5979586Y-12464484D02*
X5960539Y-12464484D01*
X5960539Y-12464484D02*
X5941491Y-12454960D01*
X5941491Y-12454960D02*
X5931967Y-12445436D01*
X5931967Y-12445436D02*
X5922443Y-12426388D01*
X5922443Y-12426388D02*
X5912920Y-12388293D01*
X5912920Y-12388293D02*
X5912920Y-12340674D01*
X5912920Y-12340674D02*
X5922443Y-12302579D01*
X5922443Y-12302579D02*
X5931967Y-12283531D01*
X5931967Y-12283531D02*
X5941491Y-12274008D01*
X5941491Y-12274008D02*
X5960539Y-12264484D01*
X6112920Y-12464484D02*
X6112920Y-12331150D01*
X6112920Y-12350198D02*
X6122443Y-12340674D01*
X6122443Y-12340674D02*
X6141491Y-12331150D01*
X6141491Y-12331150D02*
X6170063Y-12331150D01*
X6170063Y-12331150D02*
X6189110Y-12340674D01*
X6189110Y-12340674D02*
X6198634Y-12359722D01*
X6198634Y-12359722D02*
X6198634Y-12464484D01*
X6198634Y-12359722D02*
X6208158Y-12340674D01*
X6208158Y-12340674D02*
X6227205Y-12331150D01*
X6227205Y-12331150D02*
X6255777Y-12331150D01*
X6255777Y-12331150D02*
X6274824Y-12340674D01*
X6274824Y-12340674D02*
X6284348Y-12359722D01*
X6284348Y-12359722D02*
X6284348Y-12464484D01*
X6379586Y-12464484D02*
X6379586Y-12331150D01*
X6379586Y-12350198D02*
X6389110Y-12340674D01*
X6389110Y-12340674D02*
X6408158Y-12331150D01*
X6408158Y-12331150D02*
X6436729Y-12331150D01*
X6436729Y-12331150D02*
X6455777Y-12340674D01*
X6455777Y-12340674D02*
X6465301Y-12359722D01*
X6465301Y-12359722D02*
X6465301Y-12464484D01*
X6465301Y-12359722D02*
X6474824Y-12340674D01*
X6474824Y-12340674D02*
X6493872Y-12331150D01*
X6493872Y-12331150D02*
X6522443Y-12331150D01*
X6522443Y-12331150D02*
X6541491Y-12340674D01*
X6541491Y-12340674D02*
X6551015Y-12359722D01*
X6551015Y-12359722D02*
X6551015Y-12464484D01*
X6941491Y-12254960D02*
X6770063Y-12512103D01*
X7198634Y-12264484D02*
X7217682Y-12264484D01*
X7217682Y-12264484D02*
X7236729Y-12274008D01*
X7236729Y-12274008D02*
X7246253Y-12283531D01*
X7246253Y-12283531D02*
X7255777Y-12302579D01*
X7255777Y-12302579D02*
X7265301Y-12340674D01*
X7265301Y-12340674D02*
X7265301Y-12388293D01*
X7265301Y-12388293D02*
X7255777Y-12426388D01*
X7255777Y-12426388D02*
X7246253Y-12445436D01*
X7246253Y-12445436D02*
X7236729Y-12454960D01*
X7236729Y-12454960D02*
X7217682Y-12464484D01*
X7217682Y-12464484D02*
X7198634Y-12464484D01*
X7198634Y-12464484D02*
X7179586Y-12454960D01*
X7179586Y-12454960D02*
X7170063Y-12445436D01*
X7170063Y-12445436D02*
X7160539Y-12426388D01*
X7160539Y-12426388D02*
X7151015Y-12388293D01*
X7151015Y-12388293D02*
X7151015Y-12340674D01*
X7151015Y-12340674D02*
X7160539Y-12302579D01*
X7160539Y-12302579D02*
X7170063Y-12283531D01*
X7170063Y-12283531D02*
X7179586Y-12274008D01*
X7179586Y-12274008D02*
X7198634Y-12264484D01*
X7351015Y-12445436D02*
X7360539Y-12454960D01*
X7360539Y-12454960D02*
X7351015Y-12464484D01*
X7351015Y-12464484D02*
X7341491Y-12454960D01*
X7341491Y-12454960D02*
X7351015Y-12445436D01*
X7351015Y-12445436D02*
X7351015Y-12464484D01*
X7484348Y-12264484D02*
X7503396Y-12264484D01*
X7503396Y-12264484D02*
X7522444Y-12274008D01*
X7522444Y-12274008D02*
X7531967Y-12283531D01*
X7531967Y-12283531D02*
X7541491Y-12302579D01*
X7541491Y-12302579D02*
X7551015Y-12340674D01*
X7551015Y-12340674D02*
X7551015Y-12388293D01*
X7551015Y-12388293D02*
X7541491Y-12426388D01*
X7541491Y-12426388D02*
X7531967Y-12445436D01*
X7531967Y-12445436D02*
X7522444Y-12454960D01*
X7522444Y-12454960D02*
X7503396Y-12464484D01*
X7503396Y-12464484D02*
X7484348Y-12464484D01*
X7484348Y-12464484D02*
X7465301Y-12454960D01*
X7465301Y-12454960D02*
X7455777Y-12445436D01*
X7455777Y-12445436D02*
X7446253Y-12426388D01*
X7446253Y-12426388D02*
X7436729Y-12388293D01*
X7436729Y-12388293D02*
X7436729Y-12340674D01*
X7436729Y-12340674D02*
X7446253Y-12302579D01*
X7446253Y-12302579D02*
X7455777Y-12283531D01*
X7455777Y-12283531D02*
X7465301Y-12274008D01*
X7465301Y-12274008D02*
X7484348Y-12264484D01*
X7627206Y-12283531D02*
X7636729Y-12274008D01*
X7636729Y-12274008D02*
X7655777Y-12264484D01*
X7655777Y-12264484D02*
X7703396Y-12264484D01*
X7703396Y-12264484D02*
X7722444Y-12274008D01*
X7722444Y-12274008D02*
X7731967Y-12283531D01*
X7731967Y-12283531D02*
X7741491Y-12302579D01*
X7741491Y-12302579D02*
X7741491Y-12321627D01*
X7741491Y-12321627D02*
X7731967Y-12350198D01*
X7731967Y-12350198D02*
X7617682Y-12464484D01*
X7617682Y-12464484D02*
X7741491Y-12464484D01*
X7808158Y-12264484D02*
X7931967Y-12264484D01*
X7931967Y-12264484D02*
X7865301Y-12340674D01*
X7865301Y-12340674D02*
X7893872Y-12340674D01*
X7893872Y-12340674D02*
X7912920Y-12350198D01*
X7912920Y-12350198D02*
X7922444Y-12359722D01*
X7922444Y-12359722D02*
X7931967Y-12378769D01*
X7931967Y-12378769D02*
X7931967Y-12426388D01*
X7931967Y-12426388D02*
X7922444Y-12445436D01*
X7922444Y-12445436D02*
X7912920Y-12454960D01*
X7912920Y-12454960D02*
X7893872Y-12464484D01*
X7893872Y-12464484D02*
X7836729Y-12464484D01*
X7836729Y-12464484D02*
X7817682Y-12454960D01*
X7817682Y-12454960D02*
X7808158Y-12445436D01*
X8103396Y-12264484D02*
X8065301Y-12264484D01*
X8065301Y-12264484D02*
X8046253Y-12274008D01*
X8046253Y-12274008D02*
X8036729Y-12283531D01*
X8036729Y-12283531D02*
X8017682Y-12312103D01*
X8017682Y-12312103D02*
X8008158Y-12350198D01*
X8008158Y-12350198D02*
X8008158Y-12426388D01*
X8008158Y-12426388D02*
X8017682Y-12445436D01*
X8017682Y-12445436D02*
X8027206Y-12454960D01*
X8027206Y-12454960D02*
X8046253Y-12464484D01*
X8046253Y-12464484D02*
X8084348Y-12464484D01*
X8084348Y-12464484D02*
X8103396Y-12454960D01*
X8103396Y-12454960D02*
X8112920Y-12445436D01*
X8112920Y-12445436D02*
X8122444Y-12426388D01*
X8122444Y-12426388D02*
X8122444Y-12378769D01*
X8122444Y-12378769D02*
X8112920Y-12359722D01*
X8112920Y-12359722D02*
X8103396Y-12350198D01*
X8103396Y-12350198D02*
X8084348Y-12340674D01*
X8084348Y-12340674D02*
X8046253Y-12340674D01*
X8046253Y-12340674D02*
X8027206Y-12350198D01*
X8027206Y-12350198D02*
X8017682Y-12359722D01*
X8017682Y-12359722D02*
X8008158Y-12378769D01*
X8198634Y-12264484D02*
X8198634Y-12302579D01*
X8274825Y-12264484D02*
X8274825Y-12302579D01*
X8570063Y-12540674D02*
X8560539Y-12531150D01*
X8560539Y-12531150D02*
X8541491Y-12502579D01*
X8541491Y-12502579D02*
X8531968Y-12483531D01*
X8531968Y-12483531D02*
X8522444Y-12454960D01*
X8522444Y-12454960D02*
X8512920Y-12407341D01*
X8512920Y-12407341D02*
X8512920Y-12369246D01*
X8512920Y-12369246D02*
X8522444Y-12321627D01*
X8522444Y-12321627D02*
X8531968Y-12293055D01*
X8531968Y-12293055D02*
X8541491Y-12274008D01*
X8541491Y-12274008D02*
X8560539Y-12245436D01*
X8560539Y-12245436D02*
X8570063Y-12235912D01*
X8684349Y-12264484D02*
X8703396Y-12264484D01*
X8703396Y-12264484D02*
X8722444Y-12274008D01*
X8722444Y-12274008D02*
X8731968Y-12283531D01*
X8731968Y-12283531D02*
X8741491Y-12302579D01*
X8741491Y-12302579D02*
X8751015Y-12340674D01*
X8751015Y-12340674D02*
X8751015Y-12388293D01*
X8751015Y-12388293D02*
X8741491Y-12426388D01*
X8741491Y-12426388D02*
X8731968Y-12445436D01*
X8731968Y-12445436D02*
X8722444Y-12454960D01*
X8722444Y-12454960D02*
X8703396Y-12464484D01*
X8703396Y-12464484D02*
X8684349Y-12464484D01*
X8684349Y-12464484D02*
X8665301Y-12454960D01*
X8665301Y-12454960D02*
X8655777Y-12445436D01*
X8655777Y-12445436D02*
X8646253Y-12426388D01*
X8646253Y-12426388D02*
X8636730Y-12388293D01*
X8636730Y-12388293D02*
X8636730Y-12340674D01*
X8636730Y-12340674D02*
X8646253Y-12302579D01*
X8646253Y-12302579D02*
X8655777Y-12283531D01*
X8655777Y-12283531D02*
X8665301Y-12274008D01*
X8665301Y-12274008D02*
X8684349Y-12264484D01*
X8989111Y-12464484D02*
X8989111Y-12264484D01*
X9074825Y-12464484D02*
X9074825Y-12359722D01*
X9074825Y-12359722D02*
X9065301Y-12340674D01*
X9065301Y-12340674D02*
X9046253Y-12331150D01*
X9046253Y-12331150D02*
X9017682Y-12331150D01*
X9017682Y-12331150D02*
X8998634Y-12340674D01*
X8998634Y-12340674D02*
X8989111Y-12350198D01*
X9198634Y-12464484D02*
X9179587Y-12454960D01*
X9179587Y-12454960D02*
X9170063Y-12445436D01*
X9170063Y-12445436D02*
X9160539Y-12426388D01*
X9160539Y-12426388D02*
X9160539Y-12369246D01*
X9160539Y-12369246D02*
X9170063Y-12350198D01*
X9170063Y-12350198D02*
X9179587Y-12340674D01*
X9179587Y-12340674D02*
X9198634Y-12331150D01*
X9198634Y-12331150D02*
X9227206Y-12331150D01*
X9227206Y-12331150D02*
X9246253Y-12340674D01*
X9246253Y-12340674D02*
X9255777Y-12350198D01*
X9255777Y-12350198D02*
X9265301Y-12369246D01*
X9265301Y-12369246D02*
X9265301Y-12426388D01*
X9265301Y-12426388D02*
X9255777Y-12445436D01*
X9255777Y-12445436D02*
X9246253Y-12454960D01*
X9246253Y-12454960D02*
X9227206Y-12464484D01*
X9227206Y-12464484D02*
X9198634Y-12464484D01*
X9379587Y-12464484D02*
X9360539Y-12454960D01*
X9360539Y-12454960D02*
X9351015Y-12435912D01*
X9351015Y-12435912D02*
X9351015Y-12264484D01*
X9531968Y-12454960D02*
X9512920Y-12464484D01*
X9512920Y-12464484D02*
X9474825Y-12464484D01*
X9474825Y-12464484D02*
X9455777Y-12454960D01*
X9455777Y-12454960D02*
X9446253Y-12435912D01*
X9446253Y-12435912D02*
X9446253Y-12359722D01*
X9446253Y-12359722D02*
X9455777Y-12340674D01*
X9455777Y-12340674D02*
X9474825Y-12331150D01*
X9474825Y-12331150D02*
X9512920Y-12331150D01*
X9512920Y-12331150D02*
X9531968Y-12340674D01*
X9531968Y-12340674D02*
X9541492Y-12359722D01*
X9541492Y-12359722D02*
X9541492Y-12378769D01*
X9541492Y-12378769D02*
X9446253Y-12397817D01*
X9617682Y-12454960D02*
X9636730Y-12464484D01*
X9636730Y-12464484D02*
X9674825Y-12464484D01*
X9674825Y-12464484D02*
X9693873Y-12454960D01*
X9693873Y-12454960D02*
X9703396Y-12435912D01*
X9703396Y-12435912D02*
X9703396Y-12426388D01*
X9703396Y-12426388D02*
X9693873Y-12407341D01*
X9693873Y-12407341D02*
X9674825Y-12397817D01*
X9674825Y-12397817D02*
X9646253Y-12397817D01*
X9646253Y-12397817D02*
X9627206Y-12388293D01*
X9627206Y-12388293D02*
X9617682Y-12369246D01*
X9617682Y-12369246D02*
X9617682Y-12359722D01*
X9617682Y-12359722D02*
X9627206Y-12340674D01*
X9627206Y-12340674D02*
X9646253Y-12331150D01*
X9646253Y-12331150D02*
X9674825Y-12331150D01*
X9674825Y-12331150D02*
X9693873Y-12340674D01*
X9941492Y-12388293D02*
X10093873Y-12388293D01*
X10017682Y-12464484D02*
X10017682Y-12312103D01*
X10427206Y-12331150D02*
X10427206Y-12464484D01*
X10379587Y-12254960D02*
X10331968Y-12397817D01*
X10331968Y-12397817D02*
X10455777Y-12397817D01*
X10674825Y-12454960D02*
X10693873Y-12464484D01*
X10693873Y-12464484D02*
X10731968Y-12464484D01*
X10731968Y-12464484D02*
X10751016Y-12454960D01*
X10751016Y-12454960D02*
X10760539Y-12435912D01*
X10760539Y-12435912D02*
X10760539Y-12426388D01*
X10760539Y-12426388D02*
X10751016Y-12407341D01*
X10751016Y-12407341D02*
X10731968Y-12397817D01*
X10731968Y-12397817D02*
X10703396Y-12397817D01*
X10703396Y-12397817D02*
X10684349Y-12388293D01*
X10684349Y-12388293D02*
X10674825Y-12369246D01*
X10674825Y-12369246D02*
X10674825Y-12359722D01*
X10674825Y-12359722D02*
X10684349Y-12340674D01*
X10684349Y-12340674D02*
X10703396Y-12331150D01*
X10703396Y-12331150D02*
X10731968Y-12331150D01*
X10731968Y-12331150D02*
X10751016Y-12340674D01*
X10874825Y-12464484D02*
X10855777Y-12454960D01*
X10855777Y-12454960D02*
X10846254Y-12435912D01*
X10846254Y-12435912D02*
X10846254Y-12264484D01*
X10979587Y-12464484D02*
X10960539Y-12454960D01*
X10960539Y-12454960D02*
X10951016Y-12445436D01*
X10951016Y-12445436D02*
X10941492Y-12426388D01*
X10941492Y-12426388D02*
X10941492Y-12369246D01*
X10941492Y-12369246D02*
X10951016Y-12350198D01*
X10951016Y-12350198D02*
X10960539Y-12340674D01*
X10960539Y-12340674D02*
X10979587Y-12331150D01*
X10979587Y-12331150D02*
X11008158Y-12331150D01*
X11008158Y-12331150D02*
X11027206Y-12340674D01*
X11027206Y-12340674D02*
X11036730Y-12350198D01*
X11036730Y-12350198D02*
X11046254Y-12369246D01*
X11046254Y-12369246D02*
X11046254Y-12426388D01*
X11046254Y-12426388D02*
X11036730Y-12445436D01*
X11036730Y-12445436D02*
X11027206Y-12454960D01*
X11027206Y-12454960D02*
X11008158Y-12464484D01*
X11008158Y-12464484D02*
X10979587Y-12464484D01*
X11103397Y-12331150D02*
X11179587Y-12331150D01*
X11131968Y-12264484D02*
X11131968Y-12435912D01*
X11131968Y-12435912D02*
X11141492Y-12454960D01*
X11141492Y-12454960D02*
X11160539Y-12464484D01*
X11160539Y-12464484D02*
X11179587Y-12464484D01*
X11236730Y-12454960D02*
X11255777Y-12464484D01*
X11255777Y-12464484D02*
X11293873Y-12464484D01*
X11293873Y-12464484D02*
X11312920Y-12454960D01*
X11312920Y-12454960D02*
X11322444Y-12435912D01*
X11322444Y-12435912D02*
X11322444Y-12426388D01*
X11322444Y-12426388D02*
X11312920Y-12407341D01*
X11312920Y-12407341D02*
X11293873Y-12397817D01*
X11293873Y-12397817D02*
X11265301Y-12397817D01*
X11265301Y-12397817D02*
X11246254Y-12388293D01*
X11246254Y-12388293D02*
X11236730Y-12369246D01*
X11236730Y-12369246D02*
X11236730Y-12359722D01*
X11236730Y-12359722D02*
X11246254Y-12340674D01*
X11246254Y-12340674D02*
X11265301Y-12331150D01*
X11265301Y-12331150D02*
X11293873Y-12331150D01*
X11293873Y-12331150D02*
X11312920Y-12340674D01*
X11389111Y-12540674D02*
X11398635Y-12531150D01*
X11398635Y-12531150D02*
X11417682Y-12502579D01*
X11417682Y-12502579D02*
X11427206Y-12483531D01*
X11427206Y-12483531D02*
X11436730Y-12454960D01*
X11436730Y-12454960D02*
X11446254Y-12407341D01*
X11446254Y-12407341D02*
X11446254Y-12369246D01*
X11446254Y-12369246D02*
X11436730Y-12321627D01*
X11436730Y-12321627D02*
X11427206Y-12293055D01*
X11427206Y-12293055D02*
X11417682Y-12274008D01*
X11417682Y-12274008D02*
X11398635Y-12245436D01*
X11398635Y-12245436D02*
X11389111Y-12235912D01*
D10*
X4980356Y-12672356D02*
X4980356Y-12601644D01*
X4909644Y-12601644D01*
X4909644Y-12672356D01*
X4980356Y-12672356D01*
D11*
X5360539Y-12728484D02*
X5246253Y-12728484D01*
X5303396Y-12728484D02*
X5303396Y-12528484D01*
X5303396Y-12528484D02*
X5284348Y-12557055D01*
X5284348Y-12557055D02*
X5265301Y-12576103D01*
X5265301Y-12576103D02*
X5246253Y-12585627D01*
X5446253Y-12709436D02*
X5455777Y-12718960D01*
X5455777Y-12718960D02*
X5446253Y-12728484D01*
X5446253Y-12728484D02*
X5436729Y-12718960D01*
X5436729Y-12718960D02*
X5446253Y-12709436D01*
X5446253Y-12709436D02*
X5446253Y-12728484D01*
X5579586Y-12528484D02*
X5598634Y-12528484D01*
X5598634Y-12528484D02*
X5617682Y-12538008D01*
X5617682Y-12538008D02*
X5627205Y-12547531D01*
X5627205Y-12547531D02*
X5636729Y-12566579D01*
X5636729Y-12566579D02*
X5646253Y-12604674D01*
X5646253Y-12604674D02*
X5646253Y-12652293D01*
X5646253Y-12652293D02*
X5636729Y-12690388D01*
X5636729Y-12690388D02*
X5627205Y-12709436D01*
X5627205Y-12709436D02*
X5617682Y-12718960D01*
X5617682Y-12718960D02*
X5598634Y-12728484D01*
X5598634Y-12728484D02*
X5579586Y-12728484D01*
X5579586Y-12728484D02*
X5560539Y-12718960D01*
X5560539Y-12718960D02*
X5551015Y-12709436D01*
X5551015Y-12709436D02*
X5541491Y-12690388D01*
X5541491Y-12690388D02*
X5531967Y-12652293D01*
X5531967Y-12652293D02*
X5531967Y-12604674D01*
X5531967Y-12604674D02*
X5541491Y-12566579D01*
X5541491Y-12566579D02*
X5551015Y-12547531D01*
X5551015Y-12547531D02*
X5560539Y-12538008D01*
X5560539Y-12538008D02*
X5579586Y-12528484D01*
X5770062Y-12528484D02*
X5789110Y-12528484D01*
X5789110Y-12528484D02*
X5808158Y-12538008D01*
X5808158Y-12538008D02*
X5817682Y-12547531D01*
X5817682Y-12547531D02*
X5827205Y-12566579D01*
X5827205Y-12566579D02*
X5836729Y-12604674D01*
X5836729Y-12604674D02*
X5836729Y-12652293D01*
X5836729Y-12652293D02*
X5827205Y-12690388D01*
X5827205Y-12690388D02*
X5817682Y-12709436D01*
X5817682Y-12709436D02*
X5808158Y-12718960D01*
X5808158Y-12718960D02*
X5789110Y-12728484D01*
X5789110Y-12728484D02*
X5770062Y-12728484D01*
X5770062Y-12728484D02*
X5751015Y-12718960D01*
X5751015Y-12718960D02*
X5741491Y-12709436D01*
X5741491Y-12709436D02*
X5731967Y-12690388D01*
X5731967Y-12690388D02*
X5722443Y-12652293D01*
X5722443Y-12652293D02*
X5722443Y-12604674D01*
X5722443Y-12604674D02*
X5731967Y-12566579D01*
X5731967Y-12566579D02*
X5741491Y-12547531D01*
X5741491Y-12547531D02*
X5751015Y-12538008D01*
X5751015Y-12538008D02*
X5770062Y-12528484D01*
X5960539Y-12528484D02*
X5979586Y-12528484D01*
X5979586Y-12528484D02*
X5998634Y-12538008D01*
X5998634Y-12538008D02*
X6008158Y-12547531D01*
X6008158Y-12547531D02*
X6017682Y-12566579D01*
X6017682Y-12566579D02*
X6027205Y-12604674D01*
X6027205Y-12604674D02*
X6027205Y-12652293D01*
X6027205Y-12652293D02*
X6017682Y-12690388D01*
X6017682Y-12690388D02*
X6008158Y-12709436D01*
X6008158Y-12709436D02*
X5998634Y-12718960D01*
X5998634Y-12718960D02*
X5979586Y-12728484D01*
X5979586Y-12728484D02*
X5960539Y-12728484D01*
X5960539Y-12728484D02*
X5941491Y-12718960D01*
X5941491Y-12718960D02*
X5931967Y-12709436D01*
X5931967Y-12709436D02*
X5922443Y-12690388D01*
X5922443Y-12690388D02*
X5912920Y-12652293D01*
X5912920Y-12652293D02*
X5912920Y-12604674D01*
X5912920Y-12604674D02*
X5922443Y-12566579D01*
X5922443Y-12566579D02*
X5931967Y-12547531D01*
X5931967Y-12547531D02*
X5941491Y-12538008D01*
X5941491Y-12538008D02*
X5960539Y-12528484D01*
X6112920Y-12728484D02*
X6112920Y-12595150D01*
X6112920Y-12614198D02*
X6122443Y-12604674D01*
X6122443Y-12604674D02*
X6141491Y-12595150D01*
X6141491Y-12595150D02*
X6170063Y-12595150D01*
X6170063Y-12595150D02*
X6189110Y-12604674D01*
X6189110Y-12604674D02*
X6198634Y-12623722D01*
X6198634Y-12623722D02*
X6198634Y-12728484D01*
X6198634Y-12623722D02*
X6208158Y-12604674D01*
X6208158Y-12604674D02*
X6227205Y-12595150D01*
X6227205Y-12595150D02*
X6255777Y-12595150D01*
X6255777Y-12595150D02*
X6274824Y-12604674D01*
X6274824Y-12604674D02*
X6284348Y-12623722D01*
X6284348Y-12623722D02*
X6284348Y-12728484D01*
X6379586Y-12728484D02*
X6379586Y-12595150D01*
X6379586Y-12614198D02*
X6389110Y-12604674D01*
X6389110Y-12604674D02*
X6408158Y-12595150D01*
X6408158Y-12595150D02*
X6436729Y-12595150D01*
X6436729Y-12595150D02*
X6455777Y-12604674D01*
X6455777Y-12604674D02*
X6465301Y-12623722D01*
X6465301Y-12623722D02*
X6465301Y-12728484D01*
X6465301Y-12623722D02*
X6474824Y-12604674D01*
X6474824Y-12604674D02*
X6493872Y-12595150D01*
X6493872Y-12595150D02*
X6522443Y-12595150D01*
X6522443Y-12595150D02*
X6541491Y-12604674D01*
X6541491Y-12604674D02*
X6551015Y-12623722D01*
X6551015Y-12623722D02*
X6551015Y-12728484D01*
X6941491Y-12518960D02*
X6770063Y-12776103D01*
X7198634Y-12528484D02*
X7217682Y-12528484D01*
X7217682Y-12528484D02*
X7236729Y-12538008D01*
X7236729Y-12538008D02*
X7246253Y-12547531D01*
X7246253Y-12547531D02*
X7255777Y-12566579D01*
X7255777Y-12566579D02*
X7265301Y-12604674D01*
X7265301Y-12604674D02*
X7265301Y-12652293D01*
X7265301Y-12652293D02*
X7255777Y-12690388D01*
X7255777Y-12690388D02*
X7246253Y-12709436D01*
X7246253Y-12709436D02*
X7236729Y-12718960D01*
X7236729Y-12718960D02*
X7217682Y-12728484D01*
X7217682Y-12728484D02*
X7198634Y-12728484D01*
X7198634Y-12728484D02*
X7179586Y-12718960D01*
X7179586Y-12718960D02*
X7170063Y-12709436D01*
X7170063Y-12709436D02*
X7160539Y-12690388D01*
X7160539Y-12690388D02*
X7151015Y-12652293D01*
X7151015Y-12652293D02*
X7151015Y-12604674D01*
X7151015Y-12604674D02*
X7160539Y-12566579D01*
X7160539Y-12566579D02*
X7170063Y-12547531D01*
X7170063Y-12547531D02*
X7179586Y-12538008D01*
X7179586Y-12538008D02*
X7198634Y-12528484D01*
X7351015Y-12709436D02*
X7360539Y-12718960D01*
X7360539Y-12718960D02*
X7351015Y-12728484D01*
X7351015Y-12728484D02*
X7341491Y-12718960D01*
X7341491Y-12718960D02*
X7351015Y-12709436D01*
X7351015Y-12709436D02*
X7351015Y-12728484D01*
X7484348Y-12528484D02*
X7503396Y-12528484D01*
X7503396Y-12528484D02*
X7522444Y-12538008D01*
X7522444Y-12538008D02*
X7531967Y-12547531D01*
X7531967Y-12547531D02*
X7541491Y-12566579D01*
X7541491Y-12566579D02*
X7551015Y-12604674D01*
X7551015Y-12604674D02*
X7551015Y-12652293D01*
X7551015Y-12652293D02*
X7541491Y-12690388D01*
X7541491Y-12690388D02*
X7531967Y-12709436D01*
X7531967Y-12709436D02*
X7522444Y-12718960D01*
X7522444Y-12718960D02*
X7503396Y-12728484D01*
X7503396Y-12728484D02*
X7484348Y-12728484D01*
X7484348Y-12728484D02*
X7465301Y-12718960D01*
X7465301Y-12718960D02*
X7455777Y-12709436D01*
X7455777Y-12709436D02*
X7446253Y-12690388D01*
X7446253Y-12690388D02*
X7436729Y-12652293D01*
X7436729Y-12652293D02*
X7436729Y-12604674D01*
X7436729Y-12604674D02*
X7446253Y-12566579D01*
X7446253Y-12566579D02*
X7455777Y-12547531D01*
X7455777Y-12547531D02*
X7465301Y-12538008D01*
X7465301Y-12538008D02*
X7484348Y-12528484D01*
X7617682Y-12528484D02*
X7741491Y-12528484D01*
X7741491Y-12528484D02*
X7674825Y-12604674D01*
X7674825Y-12604674D02*
X7703396Y-12604674D01*
X7703396Y-12604674D02*
X7722444Y-12614198D01*
X7722444Y-12614198D02*
X7731967Y-12623722D01*
X7731967Y-12623722D02*
X7741491Y-12642769D01*
X7741491Y-12642769D02*
X7741491Y-12690388D01*
X7741491Y-12690388D02*
X7731967Y-12709436D01*
X7731967Y-12709436D02*
X7722444Y-12718960D01*
X7722444Y-12718960D02*
X7703396Y-12728484D01*
X7703396Y-12728484D02*
X7646253Y-12728484D01*
X7646253Y-12728484D02*
X7627206Y-12718960D01*
X7627206Y-12718960D02*
X7617682Y-12709436D01*
X7836729Y-12728484D02*
X7874825Y-12728484D01*
X7874825Y-12728484D02*
X7893872Y-12718960D01*
X7893872Y-12718960D02*
X7903396Y-12709436D01*
X7903396Y-12709436D02*
X7922444Y-12680865D01*
X7922444Y-12680865D02*
X7931967Y-12642769D01*
X7931967Y-12642769D02*
X7931967Y-12566579D01*
X7931967Y-12566579D02*
X7922444Y-12547531D01*
X7922444Y-12547531D02*
X7912920Y-12538008D01*
X7912920Y-12538008D02*
X7893872Y-12528484D01*
X7893872Y-12528484D02*
X7855777Y-12528484D01*
X7855777Y-12528484D02*
X7836729Y-12538008D01*
X7836729Y-12538008D02*
X7827206Y-12547531D01*
X7827206Y-12547531D02*
X7817682Y-12566579D01*
X7817682Y-12566579D02*
X7817682Y-12614198D01*
X7817682Y-12614198D02*
X7827206Y-12633246D01*
X7827206Y-12633246D02*
X7836729Y-12642769D01*
X7836729Y-12642769D02*
X7855777Y-12652293D01*
X7855777Y-12652293D02*
X7893872Y-12652293D01*
X7893872Y-12652293D02*
X7912920Y-12642769D01*
X7912920Y-12642769D02*
X7922444Y-12633246D01*
X7922444Y-12633246D02*
X7931967Y-12614198D01*
X8103396Y-12595150D02*
X8103396Y-12728484D01*
X8055777Y-12518960D02*
X8008158Y-12661817D01*
X8008158Y-12661817D02*
X8131967Y-12661817D01*
X8198634Y-12528484D02*
X8198634Y-12566579D01*
X8274825Y-12528484D02*
X8274825Y-12566579D01*
X8570063Y-12804674D02*
X8560539Y-12795150D01*
X8560539Y-12795150D02*
X8541491Y-12766579D01*
X8541491Y-12766579D02*
X8531968Y-12747531D01*
X8531968Y-12747531D02*
X8522444Y-12718960D01*
X8522444Y-12718960D02*
X8512920Y-12671341D01*
X8512920Y-12671341D02*
X8512920Y-12633246D01*
X8512920Y-12633246D02*
X8522444Y-12585627D01*
X8522444Y-12585627D02*
X8531968Y-12557055D01*
X8531968Y-12557055D02*
X8541491Y-12538008D01*
X8541491Y-12538008D02*
X8560539Y-12509436D01*
X8560539Y-12509436D02*
X8570063Y-12499912D01*
X8627206Y-12528484D02*
X8751015Y-12528484D01*
X8751015Y-12528484D02*
X8684349Y-12604674D01*
X8684349Y-12604674D02*
X8712920Y-12604674D01*
X8712920Y-12604674D02*
X8731968Y-12614198D01*
X8731968Y-12614198D02*
X8741491Y-12623722D01*
X8741491Y-12623722D02*
X8751015Y-12642769D01*
X8751015Y-12642769D02*
X8751015Y-12690388D01*
X8751015Y-12690388D02*
X8741491Y-12709436D01*
X8741491Y-12709436D02*
X8731968Y-12718960D01*
X8731968Y-12718960D02*
X8712920Y-12728484D01*
X8712920Y-12728484D02*
X8655777Y-12728484D01*
X8655777Y-12728484D02*
X8636730Y-12718960D01*
X8636730Y-12718960D02*
X8627206Y-12709436D01*
X8865301Y-12614198D02*
X8846253Y-12604674D01*
X8846253Y-12604674D02*
X8836730Y-12595150D01*
X8836730Y-12595150D02*
X8827206Y-12576103D01*
X8827206Y-12576103D02*
X8827206Y-12566579D01*
X8827206Y-12566579D02*
X8836730Y-12547531D01*
X8836730Y-12547531D02*
X8846253Y-12538008D01*
X8846253Y-12538008D02*
X8865301Y-12528484D01*
X8865301Y-12528484D02*
X8903396Y-12528484D01*
X8903396Y-12528484D02*
X8922444Y-12538008D01*
X8922444Y-12538008D02*
X8931968Y-12547531D01*
X8931968Y-12547531D02*
X8941491Y-12566579D01*
X8941491Y-12566579D02*
X8941491Y-12576103D01*
X8941491Y-12576103D02*
X8931968Y-12595150D01*
X8931968Y-12595150D02*
X8922444Y-12604674D01*
X8922444Y-12604674D02*
X8903396Y-12614198D01*
X8903396Y-12614198D02*
X8865301Y-12614198D01*
X8865301Y-12614198D02*
X8846253Y-12623722D01*
X8846253Y-12623722D02*
X8836730Y-12633246D01*
X8836730Y-12633246D02*
X8827206Y-12652293D01*
X8827206Y-12652293D02*
X8827206Y-12690388D01*
X8827206Y-12690388D02*
X8836730Y-12709436D01*
X8836730Y-12709436D02*
X8846253Y-12718960D01*
X8846253Y-12718960D02*
X8865301Y-12728484D01*
X8865301Y-12728484D02*
X8903396Y-12728484D01*
X8903396Y-12728484D02*
X8922444Y-12718960D01*
X8922444Y-12718960D02*
X8931968Y-12709436D01*
X8931968Y-12709436D02*
X8941491Y-12690388D01*
X8941491Y-12690388D02*
X8941491Y-12652293D01*
X8941491Y-12652293D02*
X8931968Y-12633246D01*
X8931968Y-12633246D02*
X8922444Y-12623722D01*
X8922444Y-12623722D02*
X8903396Y-12614198D01*
X9179587Y-12728484D02*
X9179587Y-12528484D01*
X9265301Y-12728484D02*
X9265301Y-12623722D01*
X9265301Y-12623722D02*
X9255777Y-12604674D01*
X9255777Y-12604674D02*
X9236730Y-12595150D01*
X9236730Y-12595150D02*
X9208158Y-12595150D01*
X9208158Y-12595150D02*
X9189111Y-12604674D01*
X9189111Y-12604674D02*
X9179587Y-12614198D01*
X9389111Y-12728484D02*
X9370063Y-12718960D01*
X9370063Y-12718960D02*
X9360539Y-12709436D01*
X9360539Y-12709436D02*
X9351015Y-12690388D01*
X9351015Y-12690388D02*
X9351015Y-12633246D01*
X9351015Y-12633246D02*
X9360539Y-12614198D01*
X9360539Y-12614198D02*
X9370063Y-12604674D01*
X9370063Y-12604674D02*
X9389111Y-12595150D01*
X9389111Y-12595150D02*
X9417682Y-12595150D01*
X9417682Y-12595150D02*
X9436730Y-12604674D01*
X9436730Y-12604674D02*
X9446253Y-12614198D01*
X9446253Y-12614198D02*
X9455777Y-12633246D01*
X9455777Y-12633246D02*
X9455777Y-12690388D01*
X9455777Y-12690388D02*
X9446253Y-12709436D01*
X9446253Y-12709436D02*
X9436730Y-12718960D01*
X9436730Y-12718960D02*
X9417682Y-12728484D01*
X9417682Y-12728484D02*
X9389111Y-12728484D01*
X9570063Y-12728484D02*
X9551015Y-12718960D01*
X9551015Y-12718960D02*
X9541492Y-12699912D01*
X9541492Y-12699912D02*
X9541492Y-12528484D01*
X9722444Y-12718960D02*
X9703396Y-12728484D01*
X9703396Y-12728484D02*
X9665301Y-12728484D01*
X9665301Y-12728484D02*
X9646253Y-12718960D01*
X9646253Y-12718960D02*
X9636730Y-12699912D01*
X9636730Y-12699912D02*
X9636730Y-12623722D01*
X9636730Y-12623722D02*
X9646253Y-12604674D01*
X9646253Y-12604674D02*
X9665301Y-12595150D01*
X9665301Y-12595150D02*
X9703396Y-12595150D01*
X9703396Y-12595150D02*
X9722444Y-12604674D01*
X9722444Y-12604674D02*
X9731968Y-12623722D01*
X9731968Y-12623722D02*
X9731968Y-12642769D01*
X9731968Y-12642769D02*
X9636730Y-12661817D01*
X9808158Y-12718960D02*
X9827206Y-12728484D01*
X9827206Y-12728484D02*
X9865301Y-12728484D01*
X9865301Y-12728484D02*
X9884349Y-12718960D01*
X9884349Y-12718960D02*
X9893873Y-12699912D01*
X9893873Y-12699912D02*
X9893873Y-12690388D01*
X9893873Y-12690388D02*
X9884349Y-12671341D01*
X9884349Y-12671341D02*
X9865301Y-12661817D01*
X9865301Y-12661817D02*
X9836730Y-12661817D01*
X9836730Y-12661817D02*
X9817682Y-12652293D01*
X9817682Y-12652293D02*
X9808158Y-12633246D01*
X9808158Y-12633246D02*
X9808158Y-12623722D01*
X9808158Y-12623722D02*
X9817682Y-12604674D01*
X9817682Y-12604674D02*
X9836730Y-12595150D01*
X9836730Y-12595150D02*
X9865301Y-12595150D01*
X9865301Y-12595150D02*
X9884349Y-12604674D01*
X9960539Y-12804674D02*
X9970063Y-12795150D01*
X9970063Y-12795150D02*
X9989111Y-12766579D01*
X9989111Y-12766579D02*
X9998634Y-12747531D01*
X9998634Y-12747531D02*
X10008158Y-12718960D01*
X10008158Y-12718960D02*
X10017682Y-12671341D01*
X10017682Y-12671341D02*
X10017682Y-12633246D01*
X10017682Y-12633246D02*
X10008158Y-12585627D01*
X10008158Y-12585627D02*
X9998634Y-12557055D01*
X9998634Y-12557055D02*
X9989111Y-12538008D01*
X9989111Y-12538008D02*
X9970063Y-12509436D01*
X9970063Y-12509436D02*
X9960539Y-12499912D01*
M02*
