G04 #@! TF.GenerationSoftware,KiCad,Pcbnew,8.0.2*
G04 #@! TF.CreationDate,2024-05-24T09:08:15+10:00*
G04 #@! TF.ProjectId,design,64657369-676e-42e6-9b69-6361645f7063,rev?*
G04 #@! TF.SameCoordinates,Original*
G04 #@! TF.FileFunction,Copper,L1,Top*
G04 #@! TF.FilePolarity,Positive*
%FSLAX46Y46*%
G04 Gerber Fmt 4.6, Leading zero omitted, Abs format (unit mm)*
G04 Created by KiCad (PCBNEW 8.0.2) date 2024-05-24 09:08:15*
%MOMM*%
%LPD*%
G01*
G04 APERTURE LIST*
G04 Aperture macros list*
%AMRoundRect*
0 Rectangle with rounded corners*
0 $1 Rounding radius*
0 $2 $3 $4 $5 $6 $7 $8 $9 X,Y pos of 4 corners*
0 Add a 4 corners polygon primitive as box body*
4,1,4,$2,$3,$4,$5,$6,$7,$8,$9,$2,$3,0*
0 Add four circle primitives for the rounded corners*
1,1,$1+$1,$2,$3*
1,1,$1+$1,$4,$5*
1,1,$1+$1,$6,$7*
1,1,$1+$1,$8,$9*
0 Add four rect primitives between the rounded corners*
20,1,$1+$1,$2,$3,$4,$5,0*
20,1,$1+$1,$4,$5,$6,$7,0*
20,1,$1+$1,$6,$7,$8,$9,0*
20,1,$1+$1,$8,$9,$2,$3,0*%
G04 Aperture macros list end*
G04 #@! TA.AperFunction,SMDPad,CuDef*
%ADD10RoundRect,0.140000X0.170000X-0.140000X0.170000X0.140000X-0.170000X0.140000X-0.170000X-0.140000X0*%
G04 #@! TD*
G04 #@! TA.AperFunction,SMDPad,CuDef*
%ADD11RoundRect,0.135000X-0.135000X-0.185000X0.135000X-0.185000X0.135000X0.185000X-0.135000X0.185000X0*%
G04 #@! TD*
G04 #@! TA.AperFunction,SMDPad,CuDef*
%ADD12RoundRect,0.225000X0.225000X0.250000X-0.225000X0.250000X-0.225000X-0.250000X0.225000X-0.250000X0*%
G04 #@! TD*
G04 #@! TA.AperFunction,SMDPad,CuDef*
%ADD13RoundRect,0.150000X0.150000X-0.587500X0.150000X0.587500X-0.150000X0.587500X-0.150000X-0.587500X0*%
G04 #@! TD*
G04 #@! TA.AperFunction,SMDPad,CuDef*
%ADD14R,0.900000X1.000000*%
G04 #@! TD*
G04 #@! TA.AperFunction,SMDPad,CuDef*
%ADD15RoundRect,0.135000X0.185000X-0.135000X0.185000X0.135000X-0.185000X0.135000X-0.185000X-0.135000X0*%
G04 #@! TD*
G04 #@! TA.AperFunction,SMDPad,CuDef*
%ADD16RoundRect,0.225000X-0.225000X-0.250000X0.225000X-0.250000X0.225000X0.250000X-0.225000X0.250000X0*%
G04 #@! TD*
G04 #@! TA.AperFunction,SMDPad,CuDef*
%ADD17R,1.500000X0.900000*%
G04 #@! TD*
G04 #@! TA.AperFunction,SMDPad,CuDef*
%ADD18R,0.900000X1.500000*%
G04 #@! TD*
G04 #@! TA.AperFunction,SMDPad,CuDef*
%ADD19R,1.050000X1.050000*%
G04 #@! TD*
G04 #@! TA.AperFunction,HeatsinkPad*
%ADD20C,0.600000*%
G04 #@! TD*
G04 #@! TA.AperFunction,SMDPad,CuDef*
%ADD21R,4.200000X4.200000*%
G04 #@! TD*
G04 #@! TA.AperFunction,SMDPad,CuDef*
%ADD22RoundRect,0.100000X0.100000X-0.225000X0.100000X0.225000X-0.100000X0.225000X-0.100000X-0.225000X0*%
G04 #@! TD*
G04 #@! TA.AperFunction,SMDPad,CuDef*
%ADD23RoundRect,0.150000X0.150000X-0.825000X0.150000X0.825000X-0.150000X0.825000X-0.150000X-0.825000X0*%
G04 #@! TD*
G04 #@! TA.AperFunction,SMDPad,CuDef*
%ADD24RoundRect,0.218750X-0.256250X0.218750X-0.256250X-0.218750X0.256250X-0.218750X0.256250X0.218750X0*%
G04 #@! TD*
G04 #@! TA.AperFunction,SMDPad,CuDef*
%ADD25RoundRect,0.225000X0.250000X-0.225000X0.250000X0.225000X-0.250000X0.225000X-0.250000X-0.225000X0*%
G04 #@! TD*
G04 #@! TA.AperFunction,SMDPad,CuDef*
%ADD26RoundRect,0.150000X-0.825000X-0.150000X0.825000X-0.150000X0.825000X0.150000X-0.825000X0.150000X0*%
G04 #@! TD*
G04 #@! TA.AperFunction,HeatsinkPad*
%ADD27R,2.290000X3.000000*%
G04 #@! TD*
G04 #@! TA.AperFunction,SMDPad,CuDef*
%ADD28RoundRect,0.140000X0.140000X0.170000X-0.140000X0.170000X-0.140000X-0.170000X0.140000X-0.170000X0*%
G04 #@! TD*
G04 #@! TA.AperFunction,SMDPad,CuDef*
%ADD29RoundRect,0.140000X-0.140000X-0.170000X0.140000X-0.170000X0.140000X0.170000X-0.140000X0.170000X0*%
G04 #@! TD*
G04 #@! TA.AperFunction,SMDPad,CuDef*
%ADD30RoundRect,0.225000X-0.250000X0.225000X-0.250000X-0.225000X0.250000X-0.225000X0.250000X0.225000X0*%
G04 #@! TD*
G04 #@! TA.AperFunction,ComponentPad*
%ADD31RoundRect,0.250000X0.600000X0.750000X-0.600000X0.750000X-0.600000X-0.750000X0.600000X-0.750000X0*%
G04 #@! TD*
G04 #@! TA.AperFunction,ComponentPad*
%ADD32O,1.700000X2.000000*%
G04 #@! TD*
G04 #@! TA.AperFunction,SMDPad,CuDef*
%ADD33RoundRect,0.150000X-0.150000X-0.500000X0.150000X-0.500000X0.150000X0.500000X-0.150000X0.500000X0*%
G04 #@! TD*
G04 #@! TA.AperFunction,SMDPad,CuDef*
%ADD34RoundRect,0.075000X-0.075000X-0.575000X0.075000X-0.575000X0.075000X0.575000X-0.075000X0.575000X0*%
G04 #@! TD*
G04 #@! TA.AperFunction,ComponentPad*
%ADD35O,1.000000X2.100000*%
G04 #@! TD*
G04 #@! TA.AperFunction,ComponentPad*
%ADD36O,1.000000X1.600000*%
G04 #@! TD*
G04 #@! TA.AperFunction,SMDPad,CuDef*
%ADD37RoundRect,0.150000X0.512500X0.150000X-0.512500X0.150000X-0.512500X-0.150000X0.512500X-0.150000X0*%
G04 #@! TD*
G04 #@! TA.AperFunction,SMDPad,CuDef*
%ADD38RoundRect,0.225000X-0.375000X0.225000X-0.375000X-0.225000X0.375000X-0.225000X0.375000X0.225000X0*%
G04 #@! TD*
G04 #@! TA.AperFunction,SMDPad,CuDef*
%ADD39RoundRect,0.135000X0.135000X0.185000X-0.135000X0.185000X-0.135000X-0.185000X0.135000X-0.185000X0*%
G04 #@! TD*
G04 #@! TA.AperFunction,ComponentPad*
%ADD40R,1.700000X1.700000*%
G04 #@! TD*
G04 #@! TA.AperFunction,ComponentPad*
%ADD41O,1.700000X1.700000*%
G04 #@! TD*
G04 #@! TA.AperFunction,ViaPad*
%ADD42C,0.600000*%
G04 #@! TD*
G04 #@! TA.AperFunction,Conductor*
%ADD43C,0.812800*%
G04 #@! TD*
G04 #@! TA.AperFunction,Conductor*
%ADD44C,0.406400*%
G04 #@! TD*
G04 #@! TA.AperFunction,Conductor*
%ADD45C,0.609600*%
G04 #@! TD*
G04 #@! TA.AperFunction,Conductor*
%ADD46C,0.304800*%
G04 #@! TD*
G04 #@! TA.AperFunction,Conductor*
%ADD47C,0.152400*%
G04 #@! TD*
G04 #@! TA.AperFunction,Conductor*
%ADD48C,0.200000*%
G04 #@! TD*
G04 #@! TA.AperFunction,Profile*
%ADD49C,0.100000*%
G04 #@! TD*
G04 APERTURE END LIST*
D10*
G04 #@! TO.P,C14,1*
G04 #@! TO.N,VBUS*
X89000000Y-105380000D03*
G04 #@! TO.P,C14,2*
G04 #@! TO.N,GND*
X89000000Y-104420000D03*
G04 #@! TD*
D11*
G04 #@! TO.P,R2,1*
G04 #@! TO.N,Net-(J1-CC2)*
X107090000Y-106600000D03*
G04 #@! TO.P,R2,2*
G04 #@! TO.N,GND*
X108110000Y-106600000D03*
G04 #@! TD*
D12*
G04 #@! TO.P,C16,1*
G04 #@! TO.N,/VIN*
X94575000Y-95900000D03*
G04 #@! TO.P,C16,2*
G04 #@! TO.N,GND*
X93025000Y-95900000D03*
G04 #@! TD*
D13*
G04 #@! TO.P,Q3,1,G*
G04 #@! TO.N,VBUS*
X94250000Y-99637500D03*
G04 #@! TO.P,Q3,2,D*
G04 #@! TO.N,+BATT*
X96150000Y-99637500D03*
G04 #@! TO.P,Q3,3,S*
G04 #@! TO.N,/VIN*
X95200000Y-97762500D03*
G04 #@! TD*
D14*
G04 #@! TO.P,SW1,1,1*
G04 #@! TO.N,/IO0*
X109050000Y-94100000D03*
X104950000Y-94100000D03*
G04 #@! TO.P,SW1,2,2*
G04 #@! TO.N,GND*
X109050000Y-92500000D03*
X104950000Y-92500000D03*
G04 #@! TD*
D15*
G04 #@! TO.P,R13,1*
G04 #@! TO.N,Net-(D2-K)*
X97500000Y-111410000D03*
G04 #@! TO.P,R13,2*
G04 #@! TO.N,Net-(U4-~{STDBY})*
X97500000Y-110390000D03*
G04 #@! TD*
D10*
G04 #@! TO.P,C5,1*
G04 #@! TO.N,+3.3V*
X101500000Y-98080000D03*
G04 #@! TO.P,C5,2*
G04 #@! TO.N,GND*
X101500000Y-97120000D03*
G04 #@! TD*
D16*
G04 #@! TO.P,C17,1*
G04 #@! TO.N,+3.3V*
X89925000Y-95900000D03*
G04 #@! TO.P,C17,2*
G04 #@! TO.N,GND*
X91475000Y-95900000D03*
G04 #@! TD*
D15*
G04 #@! TO.P,R10,1*
G04 #@! TO.N,Net-(D1-K)*
X99100000Y-111410000D03*
G04 #@! TO.P,R10,2*
G04 #@! TO.N,Net-(U4-~{CHRG})*
X99100000Y-110390000D03*
G04 #@! TD*
D17*
G04 #@! TO.P,U3,1,GND*
G04 #@! TO.N,GND*
X91250000Y-72600000D03*
G04 #@! TO.P,U3,2,VDD*
G04 #@! TO.N,+3.3V*
X91250000Y-73870000D03*
G04 #@! TO.P,U3,3,EN*
G04 #@! TO.N,/RESET*
X91250000Y-75140000D03*
G04 #@! TO.P,U3,4,SENSOR_VP*
G04 #@! TO.N,/IO36*
X91250000Y-76410000D03*
G04 #@! TO.P,U3,5,SENSOR_VN*
G04 #@! TO.N,/IO39*
X91250000Y-77680000D03*
G04 #@! TO.P,U3,6,IO34*
G04 #@! TO.N,/IO34*
X91250000Y-78950000D03*
G04 #@! TO.P,U3,7,IO35*
G04 #@! TO.N,/IO35*
X91250000Y-80220000D03*
G04 #@! TO.P,U3,8,IO32*
G04 #@! TO.N,/IO32*
X91250000Y-81490000D03*
G04 #@! TO.P,U3,9,IO33*
G04 #@! TO.N,/IO33*
X91250000Y-82760000D03*
G04 #@! TO.P,U3,10,IO25*
G04 #@! TO.N,/IO25*
X91250000Y-84030000D03*
G04 #@! TO.P,U3,11,IO26*
G04 #@! TO.N,/IO26*
X91250000Y-85300000D03*
G04 #@! TO.P,U3,12,IO27*
G04 #@! TO.N,/IO27*
X91250000Y-86570000D03*
G04 #@! TO.P,U3,13,IO14*
G04 #@! TO.N,/IO14*
X91250000Y-87840000D03*
G04 #@! TO.P,U3,14,IO12*
G04 #@! TO.N,/IO12*
X91250000Y-89110000D03*
D18*
G04 #@! TO.P,U3,15,GND*
G04 #@! TO.N,GND*
X94290000Y-90360000D03*
G04 #@! TO.P,U3,16,IO13*
G04 #@! TO.N,/IO13*
X95560000Y-90360000D03*
G04 #@! TO.P,U3,17,SHD/SD2*
G04 #@! TO.N,unconnected-(U3-SHD{slash}SD2-Pad17)*
X96830000Y-90360000D03*
G04 #@! TO.P,U3,18,SWP/SD3*
G04 #@! TO.N,unconnected-(U3-SWP{slash}SD3-Pad18)*
X98100000Y-90360000D03*
G04 #@! TO.P,U3,19,SCS/CMD*
G04 #@! TO.N,unconnected-(U3-SCS{slash}CMD-Pad19)*
X99370000Y-90360000D03*
G04 #@! TO.P,U3,20,SCK/CLK*
G04 #@! TO.N,unconnected-(U3-SCK{slash}CLK-Pad20)*
X100640000Y-90360000D03*
G04 #@! TO.P,U3,21,SDO/SD0*
G04 #@! TO.N,unconnected-(U3-SDO{slash}SD0-Pad21)*
X101910000Y-90360000D03*
G04 #@! TO.P,U3,22,SDI/SD1*
G04 #@! TO.N,unconnected-(U3-SDI{slash}SD1-Pad22)*
X103180000Y-90360000D03*
G04 #@! TO.P,U3,23,IO15*
G04 #@! TO.N,/IO15*
X104450000Y-90360000D03*
G04 #@! TO.P,U3,24,IO2*
G04 #@! TO.N,/IO2*
X105720000Y-90360000D03*
D17*
G04 #@! TO.P,U3,25,IO0*
G04 #@! TO.N,/IO0*
X108750000Y-89110000D03*
G04 #@! TO.P,U3,26,IO4*
G04 #@! TO.N,/IO4*
X108750000Y-87840000D03*
G04 #@! TO.P,U3,27,IO16*
G04 #@! TO.N,/IO16*
X108750000Y-86570000D03*
G04 #@! TO.P,U3,28,IO17*
G04 #@! TO.N,/IO17*
X108750000Y-85300000D03*
G04 #@! TO.P,U3,29,IO5*
G04 #@! TO.N,/IO5*
X108750000Y-84030000D03*
G04 #@! TO.P,U3,30,IO18*
G04 #@! TO.N,/IO18*
X108750000Y-82760000D03*
G04 #@! TO.P,U3,31,IO19*
G04 #@! TO.N,/IO19*
X108750000Y-81490000D03*
G04 #@! TO.P,U3,32,NC*
G04 #@! TO.N,unconnected-(U3-NC-Pad32)*
X108750000Y-80220000D03*
G04 #@! TO.P,U3,33,IO21*
G04 #@! TO.N,/IO21*
X108750000Y-78950000D03*
G04 #@! TO.P,U3,34,RXD0/IO3*
G04 #@! TO.N,/RXD0*
X108750000Y-77680000D03*
G04 #@! TO.P,U3,35,TXD0/IO1*
G04 #@! TO.N,/TXD0*
X108750000Y-76410000D03*
G04 #@! TO.P,U3,36,IO22*
G04 #@! TO.N,/IO22*
X108750000Y-75140000D03*
G04 #@! TO.P,U3,37,IO23*
G04 #@! TO.N,/IO23*
X108750000Y-73870000D03*
G04 #@! TO.P,U3,38,GND*
G04 #@! TO.N,GND*
X108750000Y-72600000D03*
D19*
G04 #@! TO.P,U3,39,GND*
X97795000Y-78415000D03*
D20*
X97795000Y-79177500D03*
D19*
X97795000Y-79940000D03*
D20*
X97795000Y-80702500D03*
D19*
X97795000Y-81465000D03*
D20*
X98557500Y-78415000D03*
X98557500Y-79940000D03*
X98557500Y-81465000D03*
D19*
X99320000Y-78415000D03*
D20*
X99320000Y-79177500D03*
D19*
X99320000Y-79940000D03*
D21*
X99320000Y-79940000D03*
D20*
X99320000Y-80702500D03*
D19*
X99320000Y-81465000D03*
D20*
X100082500Y-78415000D03*
X100082500Y-79940000D03*
X100082500Y-81465000D03*
D19*
X100845000Y-78415000D03*
D20*
X100845000Y-79177500D03*
D19*
X100845000Y-79940000D03*
D20*
X100845000Y-80702500D03*
D19*
X100845000Y-81465000D03*
G04 #@! TD*
D15*
G04 #@! TO.P,R3,1*
G04 #@! TO.N,+3.3V*
X105500000Y-98110000D03*
G04 #@! TO.P,R3,2*
G04 #@! TO.N,/IO0*
X105500000Y-97090000D03*
G04 #@! TD*
D14*
G04 #@! TO.P,SW2,1,1*
G04 #@! TO.N,GND*
X91000000Y-92500000D03*
X95100000Y-92500000D03*
G04 #@! TO.P,SW2,2,2*
G04 #@! TO.N,/RESET*
X91000000Y-94100000D03*
X95100000Y-94100000D03*
G04 #@! TD*
D22*
G04 #@! TO.P,Q1,1,E1*
G04 #@! TO.N,Net-(Q1A-E1)*
X102850000Y-97850000D03*
G04 #@! TO.P,Q1,2,B1*
G04 #@! TO.N,Net-(Q1A-B1)*
X103500000Y-97850000D03*
G04 #@! TO.P,Q1,3,C2*
G04 #@! TO.N,/IO0*
X104150000Y-97850000D03*
G04 #@! TO.P,Q1,4,E2*
G04 #@! TO.N,Net-(Q1A-B1)*
X104150000Y-95950000D03*
G04 #@! TO.P,Q1,5,B2*
G04 #@! TO.N,Net-(Q1A-E1)*
X103500000Y-95950000D03*
G04 #@! TO.P,Q1,6,C1*
G04 #@! TO.N,/RESET*
X102850000Y-95950000D03*
G04 #@! TD*
D23*
G04 #@! TO.P,U1,1,GND*
G04 #@! TO.N,GND*
X100155000Y-104775000D03*
G04 #@! TO.P,U1,2,TXD*
G04 #@! TO.N,/RXD0*
X101425000Y-104775000D03*
G04 #@! TO.P,U1,3,RXD*
G04 #@! TO.N,/TXD0*
X102695000Y-104775000D03*
G04 #@! TO.P,U1,4,V3*
G04 #@! TO.N,+3.3V*
X103965000Y-104775000D03*
G04 #@! TO.P,U1,5,UD+*
G04 #@! TO.N,/D+*
X105235000Y-104775000D03*
G04 #@! TO.P,U1,6,UD-*
G04 #@! TO.N,/D-*
X106505000Y-104775000D03*
G04 #@! TO.P,U1,7,NC*
G04 #@! TO.N,unconnected-(U1-NC-Pad7)*
X107775000Y-104775000D03*
G04 #@! TO.P,U1,8,NC*
G04 #@! TO.N,unconnected-(U1-NC-Pad8)*
X109045000Y-104775000D03*
G04 #@! TO.P,U1,9,~{CTS}*
G04 #@! TO.N,unconnected-(U1-~{CTS}-Pad9)*
X109045000Y-99825000D03*
G04 #@! TO.P,U1,10,~{DSR}*
G04 #@! TO.N,unconnected-(U1-~{DSR}-Pad10)*
X107775000Y-99825000D03*
G04 #@! TO.P,U1,11,~{RI}*
G04 #@! TO.N,unconnected-(U1-~{RI}-Pad11)*
X106505000Y-99825000D03*
G04 #@! TO.P,U1,12,~{DCD}*
G04 #@! TO.N,unconnected-(U1-~{DCD}-Pad12)*
X105235000Y-99825000D03*
G04 #@! TO.P,U1,13,~{DTR}*
G04 #@! TO.N,Net-(Q1A-B1)*
X103965000Y-99825000D03*
G04 #@! TO.P,U1,14,~{RTS}*
G04 #@! TO.N,Net-(Q1A-E1)*
X102695000Y-99825000D03*
G04 #@! TO.P,U1,15,R232*
G04 #@! TO.N,unconnected-(U1-R232-Pad15)*
X101425000Y-99825000D03*
G04 #@! TO.P,U1,16,VCC*
G04 #@! TO.N,+3.3V*
X100155000Y-99825000D03*
G04 #@! TD*
D24*
G04 #@! TO.P,D2,1,K*
G04 #@! TO.N,Net-(D2-K)*
X97500000Y-112612500D03*
G04 #@! TO.P,D2,2,A*
G04 #@! TO.N,VBUS*
X97500000Y-114187500D03*
G04 #@! TD*
D25*
G04 #@! TO.P,C4,1*
G04 #@! TO.N,+3.3V*
X100200000Y-97775000D03*
G04 #@! TO.P,C4,2*
G04 #@! TO.N,GND*
X100200000Y-96225000D03*
G04 #@! TD*
D26*
G04 #@! TO.P,U4,1,TEMP*
G04 #@! TO.N,GND*
X90755000Y-101545000D03*
G04 #@! TO.P,U4,2,PROG*
G04 #@! TO.N,Net-(U4-PROG)*
X90755000Y-102815000D03*
G04 #@! TO.P,U4,3,GND*
G04 #@! TO.N,GND*
X90755000Y-104085000D03*
G04 #@! TO.P,U4,4,VCC*
G04 #@! TO.N,VBUS*
X90755000Y-105355000D03*
G04 #@! TO.P,U4,5,BAT*
G04 #@! TO.N,+BATT*
X95705000Y-105355000D03*
G04 #@! TO.P,U4,6,~{STDBY}*
G04 #@! TO.N,Net-(U4-~{STDBY})*
X95705000Y-104085000D03*
G04 #@! TO.P,U4,7,~{CHRG}*
G04 #@! TO.N,Net-(U4-~{CHRG})*
X95705000Y-102815000D03*
G04 #@! TO.P,U4,8,CE*
G04 #@! TO.N,VBUS*
X95705000Y-101545000D03*
D27*
G04 #@! TO.P,U4,9,PP*
X93230000Y-103450000D03*
G04 #@! TD*
D28*
G04 #@! TO.P,C1,1*
G04 #@! TO.N,+3.3V*
X89680000Y-74600000D03*
G04 #@! TO.P,C1,2*
G04 #@! TO.N,GND*
X88720000Y-74600000D03*
G04 #@! TD*
D29*
G04 #@! TO.P,C2,1*
G04 #@! TO.N,GND*
X88710000Y-76600000D03*
G04 #@! TO.P,C2,2*
G04 #@! TO.N,/RESET*
X89670000Y-76600000D03*
G04 #@! TD*
D30*
G04 #@! TO.P,C13,1*
G04 #@! TO.N,+BATT*
X97800000Y-105325000D03*
G04 #@! TO.P,C13,2*
G04 #@! TO.N,GND*
X97800000Y-106875000D03*
G04 #@! TD*
D11*
G04 #@! TO.P,R15,1*
G04 #@! TO.N,VBUS*
X97890000Y-101550000D03*
G04 #@! TO.P,R15,2*
G04 #@! TO.N,GND*
X98910000Y-101550000D03*
G04 #@! TD*
D31*
G04 #@! TO.P,J4,1,Pin_1*
G04 #@! TO.N,+BATT*
X93650000Y-109167500D03*
D32*
G04 #@! TO.P,J4,2,Pin_2*
G04 #@! TO.N,GND*
X91150000Y-109167500D03*
G04 #@! TD*
D33*
G04 #@! TO.P,J1,A1,GND*
G04 #@! TO.N,GND*
X102100000Y-108360000D03*
G04 #@! TO.P,J1,A4,VBUS*
G04 #@! TO.N,VBUS*
X102900000Y-108360000D03*
D34*
G04 #@! TO.P,J1,A5,CC1*
G04 #@! TO.N,Net-(J1-CC1)*
X104050000Y-108360000D03*
G04 #@! TO.P,J1,A6,D+*
G04 #@! TO.N,/D+*
X105050000Y-108360000D03*
G04 #@! TO.P,J1,A7,D-*
G04 #@! TO.N,/D-*
X105550000Y-108360000D03*
G04 #@! TO.P,J1,A8,SBU1*
G04 #@! TO.N,unconnected-(J1-SBU1-PadA8)*
X106550000Y-108360000D03*
D33*
G04 #@! TO.P,J1,A9,VBUS*
G04 #@! TO.N,VBUS*
X107700000Y-108360000D03*
G04 #@! TO.P,J1,A12,GND*
G04 #@! TO.N,GND*
X108500000Y-108360000D03*
G04 #@! TO.P,J1,B1,GND*
X108500000Y-108360000D03*
G04 #@! TO.P,J1,B4,VBUS*
G04 #@! TO.N,VBUS*
X107700000Y-108360000D03*
D34*
G04 #@! TO.P,J1,B5,CC2*
G04 #@! TO.N,Net-(J1-CC2)*
X107050000Y-108360000D03*
G04 #@! TO.P,J1,B6,D+*
G04 #@! TO.N,/D+*
X106050000Y-108360000D03*
G04 #@! TO.P,J1,B7,D-*
G04 #@! TO.N,/D-*
X104550000Y-108360000D03*
G04 #@! TO.P,J1,B8,SBU2*
G04 #@! TO.N,unconnected-(J1-SBU2-PadB8)*
X103550000Y-108360000D03*
D33*
G04 #@! TO.P,J1,B9,VBUS*
G04 #@! TO.N,VBUS*
X102900000Y-108360000D03*
G04 #@! TO.P,J1,B12,GND*
G04 #@! TO.N,GND*
X102100000Y-108360000D03*
D35*
G04 #@! TO.P,J1,S1,SHIELD*
X100980000Y-109000000D03*
D36*
X100980000Y-113180000D03*
D35*
X109620000Y-109000000D03*
D36*
X109620000Y-113180000D03*
G04 #@! TD*
D24*
G04 #@! TO.P,D1,1,K*
G04 #@! TO.N,Net-(D1-K)*
X99100000Y-112625000D03*
G04 #@! TO.P,D1,2,A*
G04 #@! TO.N,VBUS*
X99100000Y-114200000D03*
G04 #@! TD*
D37*
G04 #@! TO.P,U5,1,VIN*
G04 #@! TO.N,/VIN*
X92037500Y-99500000D03*
G04 #@! TO.P,U5,2,GND*
G04 #@! TO.N,GND*
X92037500Y-98550000D03*
G04 #@! TO.P,U5,3,EN*
G04 #@! TO.N,/VIN*
X92037500Y-97600000D03*
G04 #@! TO.P,U5,4,NC*
G04 #@! TO.N,unconnected-(U5-NC-Pad4)*
X89762500Y-97600000D03*
G04 #@! TO.P,U5,5,VOUT*
G04 #@! TO.N,+3.3V*
X89762500Y-99500000D03*
G04 #@! TD*
D38*
G04 #@! TO.P,D4,1,K*
G04 #@! TO.N,/VIN*
X98200000Y-96950000D03*
G04 #@! TO.P,D4,2,A*
G04 #@! TO.N,VBUS*
X98200000Y-100250000D03*
G04 #@! TD*
D39*
G04 #@! TO.P,R1,1*
G04 #@! TO.N,Net-(J1-CC1)*
X103810000Y-106600000D03*
G04 #@! TO.P,R1,2*
G04 #@! TO.N,GND*
X102790000Y-106600000D03*
G04 #@! TD*
D25*
G04 #@! TO.P,C6,1*
G04 #@! TO.N,+3.3V*
X89400000Y-73375000D03*
G04 #@! TO.P,C6,2*
G04 #@! TO.N,GND*
X89400000Y-71825000D03*
G04 #@! TD*
D15*
G04 #@! TO.P,R12,1*
G04 #@! TO.N,Net-(U4-PROG)*
X89000000Y-102610000D03*
G04 #@! TO.P,R12,2*
G04 #@! TO.N,GND*
X89000000Y-101590000D03*
G04 #@! TD*
D11*
G04 #@! TO.P,R4,1*
G04 #@! TO.N,+3.3V*
X88680000Y-75600000D03*
G04 #@! TO.P,R4,2*
G04 #@! TO.N,/RESET*
X89700000Y-75600000D03*
G04 #@! TD*
D40*
G04 #@! TO.P,J2,1,Pin_1*
G04 #@! TO.N,/IO36*
X84500000Y-72000000D03*
D41*
G04 #@! TO.P,J2,2,Pin_2*
G04 #@! TO.N,/IO39*
X84500000Y-74540000D03*
G04 #@! TO.P,J2,3,Pin_3*
G04 #@! TO.N,/IO34*
X84500000Y-77080000D03*
G04 #@! TO.P,J2,4,Pin_4*
G04 #@! TO.N,/IO35*
X84500000Y-79620000D03*
G04 #@! TO.P,J2,5,Pin_5*
G04 #@! TO.N,/IO32*
X84500000Y-82160000D03*
G04 #@! TO.P,J2,6,Pin_6*
G04 #@! TO.N,/IO33*
X84500000Y-84700000D03*
G04 #@! TO.P,J2,7,Pin_7*
G04 #@! TO.N,/IO25*
X84500000Y-87240000D03*
G04 #@! TO.P,J2,8,Pin_8*
G04 #@! TO.N,/IO26*
X84500000Y-89780000D03*
G04 #@! TO.P,J2,9,Pin_9*
G04 #@! TO.N,/IO27*
X84500000Y-92320000D03*
G04 #@! TO.P,J2,10,Pin_10*
G04 #@! TO.N,/IO14*
X84500000Y-94860000D03*
G04 #@! TO.P,J2,11,Pin_11*
G04 #@! TO.N,/IO12*
X84500000Y-97400000D03*
G04 #@! TO.P,J2,12,Pin_12*
G04 #@! TO.N,/IO13*
X84500000Y-99940000D03*
G04 #@! TO.P,J2,13,Pin_13*
G04 #@! TO.N,+3.3V*
X84500000Y-102480000D03*
G04 #@! TO.P,J2,14,Pin_14*
G04 #@! TO.N,GND*
X84500000Y-105020000D03*
G04 #@! TO.P,J2,15,Pin_15*
G04 #@! TO.N,/VIN*
X84500000Y-107560000D03*
G04 #@! TD*
D40*
G04 #@! TO.P,J3,1,Pin_1*
G04 #@! TO.N,/IO23*
X115500000Y-72000000D03*
D41*
G04 #@! TO.P,J3,2,Pin_2*
G04 #@! TO.N,/IO22*
X115500000Y-74540000D03*
G04 #@! TO.P,J3,3,Pin_3*
G04 #@! TO.N,/TXD0*
X115500000Y-77080000D03*
G04 #@! TO.P,J3,4,Pin_4*
G04 #@! TO.N,/RXD0*
X115500000Y-79620000D03*
G04 #@! TO.P,J3,5,Pin_5*
G04 #@! TO.N,/IO21*
X115500000Y-82160000D03*
G04 #@! TO.P,J3,6,Pin_6*
G04 #@! TO.N,/IO19*
X115500000Y-84700000D03*
G04 #@! TO.P,J3,7,Pin_7*
G04 #@! TO.N,/IO18*
X115500000Y-87240000D03*
G04 #@! TO.P,J3,8,Pin_8*
G04 #@! TO.N,/IO5*
X115500000Y-89780000D03*
G04 #@! TO.P,J3,9,Pin_9*
G04 #@! TO.N,/IO17*
X115500000Y-92320000D03*
G04 #@! TO.P,J3,10,Pin_10*
G04 #@! TO.N,/IO16*
X115500000Y-94860000D03*
G04 #@! TO.P,J3,11,Pin_11*
G04 #@! TO.N,/IO4*
X115500000Y-97400000D03*
G04 #@! TO.P,J3,12,Pin_12*
G04 #@! TO.N,/IO0*
X115500000Y-99940000D03*
G04 #@! TO.P,J3,13,Pin_13*
G04 #@! TO.N,/IO2*
X115500000Y-102480000D03*
G04 #@! TO.P,J3,14,Pin_14*
G04 #@! TO.N,/IO15*
X115500000Y-105020000D03*
G04 #@! TO.P,J3,15,Pin_15*
G04 #@! TO.N,GND*
X115500000Y-107560000D03*
G04 #@! TD*
D42*
G04 #@! TO.N,+BATT*
X96900000Y-99600000D03*
X95705000Y-106295000D03*
G04 #@! TO.N,GND*
X87900000Y-71800000D03*
X105000000Y-71500000D03*
X102000000Y-71500000D03*
X109000000Y-91400000D03*
X87900000Y-74600000D03*
X98900000Y-102400000D03*
X93980000Y-96901000D03*
X97500000Y-71500000D03*
X89916000Y-98552000D03*
X93000000Y-71500000D03*
X92964000Y-100584000D03*
X109200000Y-101400000D03*
X110500000Y-71500000D03*
X106500000Y-71500000D03*
X110500000Y-91948000D03*
X109200000Y-103100000D03*
X97800000Y-107900000D03*
X103600000Y-101600000D03*
X100200000Y-106300000D03*
X99000000Y-71500000D03*
X96000000Y-71500000D03*
X101500000Y-96100000D03*
X100500000Y-71500000D03*
X112000000Y-71500000D03*
X87900000Y-76500000D03*
X88000000Y-102489000D03*
X88200000Y-104400000D03*
X99300000Y-92500000D03*
X103500000Y-71500000D03*
X93000000Y-94900000D03*
X107600000Y-97000000D03*
X99300000Y-94900000D03*
X93100000Y-92500000D03*
X110998000Y-104775000D03*
X104000000Y-92500000D03*
X90900000Y-96800000D03*
X110300000Y-88600000D03*
X94500000Y-71500000D03*
G04 #@! TO.N,+3.3V*
X88600000Y-95300000D03*
X106200000Y-98100000D03*
X103650000Y-103150000D03*
X99200000Y-97900000D03*
X90900000Y-99500000D03*
X88400000Y-73400000D03*
G04 #@! TO.N,/RESET*
X89342220Y-77213620D03*
X89400000Y-94100000D03*
G04 #@! TO.N,/TXD0*
X102700000Y-103300000D03*
X107400000Y-76400000D03*
G04 #@! TO.N,/RXD0*
X101500000Y-103300000D03*
X106773800Y-77600000D03*
G04 #@! TO.N,/IO0*
X105900000Y-94100000D03*
X108226200Y-94100000D03*
G04 #@! TO.N,/D+*
X104947600Y-107100000D03*
X106200000Y-107200000D03*
G04 #@! TD*
D43*
G04 #@! TO.N,+BATT*
X95705000Y-106295000D02*
X94900000Y-107100000D01*
X95705000Y-105355000D02*
X95705000Y-106295000D01*
X93650000Y-107950000D02*
X93650000Y-109167500D01*
X95705000Y-105355000D02*
X97770000Y-105355000D01*
D44*
X96862500Y-99637500D02*
X96900000Y-99600000D01*
D43*
X94500000Y-107100000D02*
X93650000Y-107950000D01*
D44*
X96150000Y-99637500D02*
X96862500Y-99637500D01*
D43*
X94900000Y-107100000D02*
X94500000Y-107100000D01*
D44*
G04 #@! TO.N,GND*
X89400000Y-71825000D02*
X87925000Y-71825000D01*
X87925000Y-71825000D02*
X87900000Y-71800000D01*
X90900000Y-96475000D02*
X91475000Y-95900000D01*
X88710000Y-76600000D02*
X88000000Y-76600000D01*
X88656000Y-101590000D02*
X88000000Y-102246000D01*
X91150000Y-98550000D02*
X90900000Y-98300000D01*
X93025000Y-94925000D02*
X93000000Y-94900000D01*
X89335000Y-104085000D02*
X89000000Y-104420000D01*
X98910000Y-101550000D02*
X98910000Y-102390000D01*
X104950000Y-92500000D02*
X104000000Y-92500000D01*
X98910000Y-102390000D02*
X98900000Y-102400000D01*
X89000000Y-104420000D02*
X88220000Y-104420000D01*
D43*
X97800000Y-106875000D02*
X97800000Y-107900000D01*
D44*
X101620000Y-108360000D02*
X100980000Y-109000000D01*
X91250000Y-72600000D02*
X90175000Y-72600000D01*
X90900000Y-96800000D02*
X90900000Y-96475000D01*
X108500000Y-108360000D02*
X108980000Y-108360000D01*
X89000000Y-101590000D02*
X88656000Y-101590000D01*
X102100000Y-108360000D02*
X101620000Y-108360000D01*
X109050000Y-91450000D02*
X109000000Y-91400000D01*
X108980000Y-108360000D02*
X109620000Y-109000000D01*
X90900000Y-98300000D02*
X90900000Y-96800000D01*
X93025000Y-95900000D02*
X93025000Y-94925000D01*
X100155000Y-106255000D02*
X100200000Y-106300000D01*
X100155000Y-104775000D02*
X100155000Y-106255000D01*
X88220000Y-104420000D02*
X88200000Y-104400000D01*
X90755000Y-101545000D02*
X89045000Y-101545000D01*
X88000000Y-76600000D02*
X87900000Y-76500000D01*
X88720000Y-74600000D02*
X87900000Y-74600000D01*
X93025000Y-95900000D02*
X91475000Y-95900000D01*
X88000000Y-102246000D02*
X88000000Y-102489000D01*
X90755000Y-104085000D02*
X89335000Y-104085000D01*
X109050000Y-92500000D02*
X109050000Y-91450000D01*
X92037500Y-98550000D02*
X91150000Y-98550000D01*
X90175000Y-72600000D02*
X89400000Y-71825000D01*
D43*
G04 #@! TO.N,VBUS*
X97885000Y-101545000D02*
X97890000Y-101550000D01*
D45*
X90730000Y-105380000D02*
X90755000Y-105355000D01*
X99100000Y-114200000D02*
X97512500Y-114200000D01*
D43*
X98200000Y-100250000D02*
X97885000Y-100565000D01*
X94200000Y-101545000D02*
X93855000Y-101545000D01*
D46*
X107400000Y-109309999D02*
X107400000Y-110200000D01*
D43*
X93230000Y-102170000D02*
X93230000Y-103450000D01*
X94250000Y-99637500D02*
X94250000Y-101495000D01*
D45*
X100209600Y-114200000D02*
X99100000Y-114200000D01*
D43*
X97885000Y-100565000D02*
X97885000Y-101545000D01*
D45*
X103400000Y-110200000D02*
X103400000Y-113300000D01*
D46*
X107700000Y-108360000D02*
X107700000Y-109009999D01*
D45*
X89803500Y-114187500D02*
X89000000Y-113384000D01*
D43*
X95705000Y-101545000D02*
X94200000Y-101545000D01*
D45*
X89000000Y-113384000D02*
X89000000Y-105380000D01*
X103400000Y-113300000D02*
X102204800Y-114495200D01*
D46*
X107700000Y-109009999D02*
X107400000Y-109309999D01*
D45*
X97500000Y-114187500D02*
X89803500Y-114187500D01*
D43*
X93230000Y-105170000D02*
X93230000Y-103450000D01*
X93855000Y-101545000D02*
X93230000Y-102170000D01*
D45*
X103400000Y-110200000D02*
X107400000Y-110200000D01*
X102204800Y-114495200D02*
X100504800Y-114495200D01*
D43*
X90755000Y-105355000D02*
X93045000Y-105355000D01*
X95705000Y-101545000D02*
X97885000Y-101545000D01*
X93045000Y-105355000D02*
X93230000Y-105170000D01*
D45*
X100504800Y-114495200D02*
X100209600Y-114200000D01*
D46*
X102900000Y-109032012D02*
X103400000Y-109532012D01*
D45*
X89000000Y-105380000D02*
X90730000Y-105380000D01*
D46*
X103400000Y-109532012D02*
X103400000Y-110200000D01*
X102900000Y-108360000D02*
X102900000Y-109032012D01*
D43*
X94250000Y-101495000D02*
X94200000Y-101545000D01*
D44*
G04 #@! TO.N,+3.3V*
X88400000Y-73400000D02*
X89375000Y-73400000D01*
X91250000Y-73870000D02*
X89895000Y-73870000D01*
D46*
X100155000Y-101055000D02*
X100155000Y-99825000D01*
D44*
X84500000Y-102480000D02*
X85820000Y-102480000D01*
X89100000Y-95900000D02*
X89925000Y-95900000D01*
D46*
X106190000Y-98110000D02*
X106200000Y-98100000D01*
X100675000Y-97775000D02*
X100980000Y-98080000D01*
X101000000Y-101900000D02*
X100155000Y-101055000D01*
D44*
X88800000Y-99500000D02*
X88600000Y-99300000D01*
D46*
X100155000Y-99825000D02*
X100155000Y-97820000D01*
D44*
X89895000Y-74385000D02*
X89680000Y-74600000D01*
D46*
X100200000Y-97775000D02*
X99325000Y-97775000D01*
D44*
X89762500Y-99500000D02*
X88800000Y-99500000D01*
D46*
X102400000Y-101900000D02*
X101000000Y-101900000D01*
X99325000Y-97775000D02*
X99200000Y-97900000D01*
D44*
X89895000Y-73870000D02*
X89895000Y-74385000D01*
X88600000Y-95400000D02*
X88600000Y-95300000D01*
D46*
X100980000Y-98080000D02*
X101500000Y-98080000D01*
X103650000Y-103150000D02*
X102400000Y-101900000D01*
D44*
X88600000Y-96400000D02*
X89100000Y-95900000D01*
X89895000Y-73870000D02*
X89400000Y-73375000D01*
D46*
X103965000Y-104775000D02*
X103965000Y-103465000D01*
X90900000Y-99500000D02*
X89762500Y-99500000D01*
D47*
X88680000Y-75600000D02*
X89680000Y-74600000D01*
D44*
X89100000Y-95900000D02*
X88600000Y-95400000D01*
D46*
X105500000Y-98110000D02*
X106190000Y-98110000D01*
X103965000Y-103465000D02*
X103650000Y-103150000D01*
D44*
X88600000Y-99300000D02*
X88600000Y-96400000D01*
D46*
X100200000Y-97775000D02*
X100675000Y-97775000D01*
D44*
X85820000Y-102480000D02*
X88800000Y-99500000D01*
D48*
G04 #@! TO.N,Net-(D2-K)*
X97500000Y-112612500D02*
X97500000Y-111410000D01*
D47*
G04 #@! TO.N,/RESET*
X95100000Y-94100000D02*
X102200000Y-94100000D01*
X89670000Y-76885840D02*
X89342220Y-77213620D01*
X91000000Y-94100000D02*
X95100000Y-94100000D01*
X102200000Y-94100000D02*
X102850000Y-94750000D01*
X90460000Y-75140000D02*
X90000000Y-75600000D01*
X89670000Y-76600000D02*
X89670000Y-76885840D01*
X102850000Y-94750000D02*
X102850000Y-95950000D01*
X89700000Y-75600000D02*
X89700000Y-76570000D01*
X91250000Y-75140000D02*
X90460000Y-75140000D01*
X90000000Y-75600000D02*
X89700000Y-75600000D01*
X89400000Y-94100000D02*
X91000000Y-94100000D01*
D48*
G04 #@! TO.N,Net-(D1-K)*
X99100000Y-111410000D02*
X99100000Y-112625000D01*
D47*
G04 #@! TO.N,/IO23*
X113200000Y-72000000D02*
X115500000Y-72000000D01*
X111330000Y-73870000D02*
X113200000Y-72000000D01*
X108750000Y-73870000D02*
X111330000Y-73870000D01*
G04 #@! TO.N,/IO22*
X114900000Y-75140000D02*
X115500000Y-74540000D01*
X108750000Y-75140000D02*
X114900000Y-75140000D01*
G04 #@! TO.N,/TXD0*
X107410000Y-76410000D02*
X107400000Y-76400000D01*
X108750000Y-76410000D02*
X114830000Y-76410000D01*
X114830000Y-76410000D02*
X115500000Y-77080000D01*
X102695000Y-103305000D02*
X102700000Y-103300000D01*
X108750000Y-76410000D02*
X107410000Y-76410000D01*
X102695000Y-104775000D02*
X102695000Y-103305000D01*
G04 #@! TO.N,/RXD0*
X108750000Y-77680000D02*
X106853800Y-77680000D01*
X108750000Y-77680000D02*
X113560000Y-77680000D01*
X101500000Y-103300000D02*
X101500000Y-104700000D01*
X113560000Y-77680000D02*
X115500000Y-79620000D01*
X106853800Y-77680000D02*
X106773800Y-77600000D01*
G04 #@! TO.N,/IO21*
X112290000Y-78950000D02*
X115500000Y-82160000D01*
X108750000Y-78950000D02*
X112290000Y-78950000D01*
G04 #@! TO.N,/IO19*
X112290000Y-81490000D02*
X115500000Y-84700000D01*
X108750000Y-81490000D02*
X112290000Y-81490000D01*
G04 #@! TO.N,/IO18*
X108750000Y-82760000D02*
X112260000Y-82760000D01*
X112260000Y-82760000D02*
X114000000Y-84500000D01*
X114000000Y-85740000D02*
X115500000Y-87240000D01*
X114000000Y-84500000D02*
X114000000Y-85740000D01*
G04 #@! TO.N,/IO5*
X113500000Y-87780000D02*
X115500000Y-89780000D01*
X108750000Y-84030000D02*
X112530000Y-84030000D01*
X112530000Y-84030000D02*
X113500000Y-85000000D01*
X113500000Y-85000000D02*
X113500000Y-87780000D01*
G04 #@! TO.N,/IO17*
X108750000Y-85300000D02*
X111800000Y-85300000D01*
X112900000Y-89720000D02*
X115500000Y-92320000D01*
X112900000Y-86400000D02*
X112900000Y-89720000D01*
X111800000Y-85300000D02*
X112900000Y-86400000D01*
G04 #@! TO.N,/IO16*
X113700000Y-93060000D02*
X115500000Y-94860000D01*
X112300000Y-90000000D02*
X113700000Y-91400000D01*
X113700000Y-91400000D02*
X113700000Y-93060000D01*
X112300000Y-87700000D02*
X112300000Y-90000000D01*
X108750000Y-86570000D02*
X111170000Y-86570000D01*
X111170000Y-86570000D02*
X112300000Y-87700000D01*
G04 #@! TO.N,/IO4*
X113900000Y-94300000D02*
X113900000Y-95800000D01*
X108750000Y-87840000D02*
X110740000Y-87840000D01*
X110740000Y-87840000D02*
X111800000Y-88900000D01*
X113100000Y-91800000D02*
X113100000Y-93500000D01*
X111800000Y-90500000D02*
X113100000Y-91800000D01*
X111800000Y-88900000D02*
X111800000Y-90500000D01*
X113900000Y-95800000D02*
X115500000Y-97400000D01*
X113100000Y-93500000D02*
X113900000Y-94300000D01*
G04 #@! TO.N,/IO0*
X115500000Y-99940000D02*
X109660000Y-94100000D01*
X108750000Y-89110000D02*
X108750000Y-90250000D01*
X105500000Y-95700000D02*
X105500000Y-97090000D01*
X108100000Y-90900000D02*
X108100000Y-93973800D01*
X108100000Y-93973800D02*
X108226200Y-94100000D01*
X104950000Y-95150000D02*
X105500000Y-95700000D01*
X104310000Y-97090000D02*
X105500000Y-97090000D01*
X104150000Y-97850000D02*
X104150000Y-97250000D01*
X104950000Y-94100000D02*
X104950000Y-95150000D01*
X109660000Y-94100000D02*
X109050000Y-94100000D01*
X108750000Y-90250000D02*
X108100000Y-90900000D01*
X108226200Y-94100000D02*
X109050000Y-94100000D01*
X104950000Y-94100000D02*
X105900000Y-94100000D01*
X104150000Y-97250000D02*
X104310000Y-97090000D01*
D46*
G04 #@! TO.N,/D+*
X105050000Y-108360000D02*
X105050000Y-106650000D01*
X105235000Y-106465000D02*
X105235000Y-104775000D01*
X106050000Y-108360000D02*
X106050000Y-107350000D01*
X105050000Y-106650000D02*
X105235000Y-106465000D01*
X106050000Y-107350000D02*
X106200000Y-107200000D01*
G04 #@! TO.N,/D-*
X104550000Y-109250000D02*
X104800000Y-109500000D01*
X105400000Y-109500000D02*
X105550000Y-109350000D01*
X106505000Y-105895000D02*
X106505000Y-104775000D01*
X104800000Y-109500000D02*
X105400000Y-109500000D01*
X104550000Y-108360000D02*
X104550000Y-109250000D01*
X105550000Y-109350000D02*
X105550000Y-108360000D01*
X105550000Y-106850000D02*
X106505000Y-105895000D01*
X105550000Y-108360000D02*
X105550000Y-106850000D01*
D47*
G04 #@! TO.N,/IO34*
X91250000Y-78950000D02*
X86370000Y-78950000D01*
X86370000Y-78950000D02*
X84500000Y-77080000D01*
G04 #@! TO.N,/IO32*
X91250000Y-81490000D02*
X85170000Y-81490000D01*
X85170000Y-81490000D02*
X84500000Y-82160000D01*
G04 #@! TO.N,/IO33*
X91250000Y-82760000D02*
X86440000Y-82760000D01*
X86440000Y-82760000D02*
X84500000Y-84700000D01*
G04 #@! TO.N,/IO25*
X91250000Y-84030000D02*
X87710000Y-84030000D01*
X87710000Y-84030000D02*
X84500000Y-87240000D01*
G04 #@! TO.N,/IO26*
X91250000Y-85300000D02*
X88980000Y-85300000D01*
X88980000Y-85300000D02*
X84500000Y-89780000D01*
G04 #@! TO.N,/IO27*
X90250000Y-86570000D02*
X84500000Y-92320000D01*
X91250000Y-86570000D02*
X90250000Y-86570000D01*
G04 #@! TO.N,/IO14*
X91250000Y-87840000D02*
X89860000Y-87840000D01*
X89860000Y-87840000D02*
X86100000Y-91600000D01*
X86100000Y-91600000D02*
X86100000Y-93260000D01*
X86100000Y-93260000D02*
X84500000Y-94860000D01*
G04 #@! TO.N,/IO12*
X86100000Y-95800000D02*
X84500000Y-97400000D01*
X86100000Y-94600000D02*
X86100000Y-95800000D01*
X91250000Y-89110000D02*
X89290000Y-89110000D01*
X86800000Y-91600000D02*
X86800000Y-93900000D01*
X89290000Y-89110000D02*
X86800000Y-91600000D01*
X86800000Y-93900000D02*
X86100000Y-94600000D01*
G04 #@! TO.N,/IO13*
X87500000Y-94200000D02*
X86700000Y-95000000D01*
X86000000Y-98440000D02*
X84500000Y-99940000D01*
X95560000Y-90360000D02*
X95560000Y-89360000D01*
X89100000Y-90200000D02*
X87500000Y-91800000D01*
X87500000Y-91800000D02*
X87500000Y-94200000D01*
X86000000Y-97000000D02*
X86000000Y-98440000D01*
X93400000Y-89100000D02*
X92300000Y-90200000D01*
X95560000Y-89360000D02*
X95300000Y-89100000D01*
X95300000Y-89100000D02*
X93400000Y-89100000D01*
X86700000Y-96300000D02*
X86000000Y-97000000D01*
X86700000Y-95000000D02*
X86700000Y-96300000D01*
X92300000Y-90200000D02*
X89100000Y-90200000D01*
G04 #@! TO.N,/IO15*
X112400000Y-101920000D02*
X115500000Y-105020000D01*
X104450000Y-91150000D02*
X104900000Y-91600000D01*
X107300000Y-95600000D02*
X109200000Y-97500000D01*
X110800000Y-97500000D02*
X112400000Y-99100000D01*
X104450000Y-90360000D02*
X104450000Y-91150000D01*
X107300000Y-93000000D02*
X107300000Y-95600000D01*
X109200000Y-97500000D02*
X110800000Y-97500000D01*
X105900000Y-91600000D02*
X107300000Y-93000000D01*
X112400000Y-99100000D02*
X112400000Y-101920000D01*
X104900000Y-91600000D02*
X105900000Y-91600000D01*
G04 #@! TO.N,Net-(Q1A-E1)*
X102850000Y-97850000D02*
X102850000Y-97350000D01*
X102850000Y-98445000D02*
X102695000Y-98600000D01*
X102850000Y-97350000D02*
X103500000Y-96700000D01*
X102850000Y-97850000D02*
X102850000Y-98445000D01*
X103500000Y-96700000D02*
X103500000Y-95950000D01*
X102695000Y-99825000D02*
X102695000Y-98600000D01*
G04 #@! TO.N,Net-(Q1A-B1)*
X103500000Y-98500000D02*
X103500000Y-97850000D01*
X103500000Y-97850000D02*
X103500000Y-97200000D01*
X104150000Y-96550000D02*
X104150000Y-95950000D01*
X103965000Y-98965000D02*
X103500000Y-98500000D01*
X103500000Y-97200000D02*
X104150000Y-96550000D01*
G04 #@! TO.N,Net-(J1-CC1)*
X104050000Y-108360000D02*
X104050000Y-106840000D01*
X104050000Y-106840000D02*
X103810000Y-106600000D01*
G04 #@! TO.N,Net-(J1-CC2)*
X107050000Y-108360000D02*
X107050000Y-106640000D01*
G04 #@! TO.N,Net-(U4-~{CHRG})*
X99100000Y-104200000D02*
X97715000Y-102815000D01*
X97715000Y-102815000D02*
X95705000Y-102815000D01*
X99100000Y-110390000D02*
X99100000Y-104200000D01*
G04 #@! TO.N,Net-(U4-PROG)*
X90755000Y-102815000D02*
X89205000Y-102815000D01*
X89205000Y-102815000D02*
X89000000Y-102610000D01*
G04 #@! TO.N,Net-(U4-~{STDBY})*
X98797600Y-109802400D02*
X98210000Y-110390000D01*
X98797600Y-104500000D02*
X98797600Y-109802400D01*
X98382600Y-104085000D02*
X98797600Y-104500000D01*
X98210000Y-110390000D02*
X97500000Y-110390000D01*
X95705000Y-104085000D02*
X98382600Y-104085000D01*
G04 #@! TO.N,/IO36*
X86100000Y-72200000D02*
X85900000Y-72000000D01*
X88197600Y-77797600D02*
X86100000Y-75700000D01*
X86100000Y-75700000D02*
X86100000Y-72200000D01*
X90890000Y-76410000D02*
X89502400Y-77797600D01*
X89502400Y-77797600D02*
X88197600Y-77797600D01*
X85900000Y-72000000D02*
X84500000Y-72000000D01*
G04 #@! TO.N,/IO35*
X91250000Y-80220000D02*
X85100000Y-80220000D01*
X85100000Y-80220000D02*
X84500000Y-79620000D01*
G04 #@! TO.N,/IO2*
X107700000Y-92972342D02*
X107700000Y-95400000D01*
X112900000Y-98900000D02*
X112900000Y-99880000D01*
X107700000Y-95400000D02*
X109400000Y-97100000D01*
X112900000Y-99880000D02*
X115500000Y-102480000D01*
X105720000Y-90992342D02*
X107700000Y-92972342D01*
X109400000Y-97100000D02*
X111100000Y-97100000D01*
X111100000Y-97100000D02*
X112900000Y-98900000D01*
G04 #@! TO.N,/IO39*
X85830000Y-75870000D02*
X84500000Y-74540000D01*
X86800000Y-78100000D02*
X85830000Y-77130000D01*
X90620000Y-77680000D02*
X90200000Y-78100000D01*
X85830000Y-77130000D02*
X85830000Y-75870000D01*
X90200000Y-78100000D02*
X86800000Y-78100000D01*
D44*
G04 #@! TO.N,/VIN*
X97050000Y-96950000D02*
X98200000Y-96950000D01*
X92037500Y-99500000D02*
X92900000Y-99500000D01*
X95200000Y-96525000D02*
X94575000Y-95900000D01*
X86360000Y-106807000D02*
X85607000Y-107560000D01*
X92037500Y-99500000D02*
X92037500Y-99986500D01*
X95200000Y-97762500D02*
X95200000Y-96525000D01*
X92900000Y-97600000D02*
X93300000Y-98000000D01*
X93537500Y-97762500D02*
X95200000Y-97762500D01*
X92037500Y-97600000D02*
X92900000Y-97600000D01*
X91567000Y-100457000D02*
X88773000Y-100457000D01*
X88773000Y-100457000D02*
X86360000Y-102870000D01*
X86360000Y-102870000D02*
X86360000Y-106807000D01*
X96237500Y-97762500D02*
X97050000Y-96950000D01*
X93300000Y-98000000D02*
X93537500Y-97762500D01*
X95200000Y-97762500D02*
X96237500Y-97762500D01*
X85607000Y-107560000D02*
X84500000Y-107560000D01*
X92900000Y-99500000D02*
X93300000Y-99100000D01*
X93300000Y-99100000D02*
X93300000Y-98000000D01*
X92037500Y-99986500D02*
X91567000Y-100457000D01*
G04 #@! TD*
G04 #@! TA.AperFunction,Conductor*
G04 #@! TO.N,GND*
G36*
X88232144Y-101736226D02*
G01*
X88275409Y-101779491D01*
X88285492Y-101812629D01*
X88290323Y-101852855D01*
X88344279Y-101989676D01*
X88433138Y-102106855D01*
X88433144Y-102106861D01*
X88465088Y-102131085D01*
X88500031Y-102181312D01*
X88498777Y-102242484D01*
X88494210Y-102253449D01*
X88453389Y-102336950D01*
X88440418Y-102363482D01*
X88429500Y-102438418D01*
X88429500Y-102781582D01*
X88440418Y-102856518D01*
X88496924Y-102972102D01*
X88587898Y-103063076D01*
X88703482Y-103119582D01*
X88778418Y-103130500D01*
X89107156Y-103130500D01*
X89132778Y-103133873D01*
X89161989Y-103141700D01*
X89248011Y-103141700D01*
X89509875Y-103141700D01*
X89568066Y-103160607D01*
X89598083Y-103195753D01*
X89601950Y-103203342D01*
X89688720Y-103290112D01*
X89716496Y-103344627D01*
X89706925Y-103405059D01*
X89663660Y-103448324D01*
X89659353Y-103450264D01*
X89657907Y-103451077D01*
X89537435Y-103542435D01*
X89446078Y-103662906D01*
X89432743Y-103696722D01*
X89393806Y-103743919D01*
X89334563Y-103759215D01*
X89304335Y-103752502D01*
X89299060Y-103750422D01*
X89299055Y-103750421D01*
X89250000Y-103744530D01*
X89250000Y-104571000D01*
X89231093Y-104629191D01*
X89181593Y-104665155D01*
X89151000Y-104670000D01*
X88298133Y-104670000D01*
X88300420Y-104689052D01*
X88354880Y-104827150D01*
X88444569Y-104945424D01*
X88444574Y-104945429D01*
X88448733Y-104948583D01*
X88483674Y-104998810D01*
X88482420Y-105059983D01*
X88477122Y-105072410D01*
X88453983Y-105117823D01*
X88439500Y-105209263D01*
X88439500Y-105550735D01*
X88443481Y-105575863D01*
X88444700Y-105591351D01*
X88444700Y-113310893D01*
X88444700Y-113457107D01*
X88461019Y-113518010D01*
X88482543Y-113598342D01*
X88555645Y-113724957D01*
X88555646Y-113724958D01*
X88555647Y-113724959D01*
X88555649Y-113724962D01*
X89359149Y-114528462D01*
X89359148Y-114528462D01*
X89461183Y-114630496D01*
X89488961Y-114685013D01*
X89479390Y-114745445D01*
X89436125Y-114788709D01*
X89391180Y-114799500D01*
X85003241Y-114799500D01*
X84996766Y-114799288D01*
X84771594Y-114784529D01*
X84758755Y-114782839D01*
X84540617Y-114739449D01*
X84528108Y-114736097D01*
X84317499Y-114664604D01*
X84305536Y-114659648D01*
X84106073Y-114561284D01*
X84094857Y-114554809D01*
X83909927Y-114431242D01*
X83899654Y-114423359D01*
X83732439Y-114276717D01*
X83723282Y-114267560D01*
X83576640Y-114100345D01*
X83568757Y-114090072D01*
X83445190Y-113905142D01*
X83438715Y-113893926D01*
X83340351Y-113694463D01*
X83335395Y-113682500D01*
X83322638Y-113644920D01*
X83263900Y-113471886D01*
X83260550Y-113459382D01*
X83217159Y-113241237D01*
X83215470Y-113228405D01*
X83212230Y-113178974D01*
X83200712Y-113003234D01*
X83200500Y-112996759D01*
X83200500Y-112903154D01*
X83769500Y-112903154D01*
X83769500Y-113096845D01*
X83799797Y-113288138D01*
X83859651Y-113472348D01*
X83945563Y-113640962D01*
X83947582Y-113644923D01*
X84061427Y-113801617D01*
X84198383Y-113938573D01*
X84355077Y-114052418D01*
X84527652Y-114140349D01*
X84711857Y-114200201D01*
X84711858Y-114200201D01*
X84711861Y-114200202D01*
X84903155Y-114230500D01*
X84903158Y-114230500D01*
X85096845Y-114230500D01*
X85288138Y-114200202D01*
X85288139Y-114200201D01*
X85288143Y-114200201D01*
X85472348Y-114140349D01*
X85644923Y-114052418D01*
X85801617Y-113938573D01*
X85938573Y-113801617D01*
X86052418Y-113644923D01*
X86140349Y-113472348D01*
X86200201Y-113288143D01*
X86204684Y-113259837D01*
X86230500Y-113096845D01*
X86230500Y-112903154D01*
X86200202Y-112711861D01*
X86194982Y-112695795D01*
X86140349Y-112527652D01*
X86052418Y-112355077D01*
X85938573Y-112198383D01*
X85801617Y-112061427D01*
X85644923Y-111947582D01*
X85644922Y-111947581D01*
X85644920Y-111947580D01*
X85472348Y-111859651D01*
X85288138Y-111799797D01*
X85096845Y-111769500D01*
X85096842Y-111769500D01*
X84903158Y-111769500D01*
X84903155Y-111769500D01*
X84711861Y-111799797D01*
X84527651Y-111859651D01*
X84355079Y-111947580D01*
X84198384Y-112061426D01*
X84061426Y-112198384D01*
X83947580Y-112355079D01*
X83859651Y-112527651D01*
X83799797Y-112711861D01*
X83769500Y-112903154D01*
X83200500Y-112903154D01*
X83200500Y-107604668D01*
X83213794Y-107563750D01*
X83200500Y-107515331D01*
X83200500Y-105637526D01*
X83219407Y-105579335D01*
X83268907Y-105543371D01*
X83330093Y-105543371D01*
X83379593Y-105579335D01*
X83389225Y-105595688D01*
X83413330Y-105647383D01*
X83413331Y-105647385D01*
X83538783Y-105826549D01*
X83693450Y-105981216D01*
X83872613Y-106106667D01*
X84070842Y-106199102D01*
X84282118Y-106255713D01*
X84383162Y-106264553D01*
X84439483Y-106288459D01*
X84470997Y-106340905D01*
X84465664Y-106401858D01*
X84425523Y-106448035D01*
X84392725Y-106460490D01*
X84197546Y-106496975D01*
X84175254Y-106505611D01*
X84007363Y-106570652D01*
X83853178Y-106666119D01*
X83833959Y-106678019D01*
X83766722Y-106739314D01*
X83683236Y-106815421D01*
X83677985Y-106822375D01*
X83560328Y-106978177D01*
X83560323Y-106978186D01*
X83469419Y-107160747D01*
X83469418Y-107160750D01*
X83413603Y-107356917D01*
X83399507Y-107509048D01*
X83398078Y-107524466D01*
X83383797Y-107557634D01*
X83398077Y-107595531D01*
X83413603Y-107763083D01*
X83459220Y-107923409D01*
X83469419Y-107959252D01*
X83529177Y-108079264D01*
X83560327Y-108141821D01*
X83683236Y-108304579D01*
X83833959Y-108441981D01*
X84007363Y-108549348D01*
X84197544Y-108623024D01*
X84398024Y-108660500D01*
X84601976Y-108660500D01*
X84802456Y-108623024D01*
X84992637Y-108549348D01*
X85166041Y-108441981D01*
X85316764Y-108304579D01*
X85439673Y-108141821D01*
X85476146Y-108068571D01*
X85519008Y-108024910D01*
X85564767Y-108013700D01*
X85666729Y-108013700D01*
X85666731Y-108013700D01*
X85782122Y-107982781D01*
X85819989Y-107960918D01*
X85885578Y-107923051D01*
X86723051Y-107085578D01*
X86751312Y-107036628D01*
X86769248Y-107005563D01*
X86769262Y-107005535D01*
X86769276Y-107005513D01*
X86782781Y-106982122D01*
X86813700Y-106866731D01*
X86813700Y-104170000D01*
X88298133Y-104170000D01*
X88749999Y-104170000D01*
X88750000Y-104169999D01*
X88750000Y-103744530D01*
X88700943Y-103750421D01*
X88562851Y-103804878D01*
X88444575Y-103894569D01*
X88444569Y-103894575D01*
X88354880Y-104012849D01*
X88300420Y-104150947D01*
X88298133Y-104170000D01*
X86813700Y-104170000D01*
X86813700Y-103098936D01*
X86832607Y-103040745D01*
X86842696Y-103028932D01*
X87444970Y-102426658D01*
X88117197Y-101754430D01*
X88171712Y-101726655D01*
X88232144Y-101736226D01*
G37*
G04 #@! TD.AperFunction*
G04 #@! TA.AperFunction,Conductor*
G36*
X83358691Y-71068907D02*
G01*
X83394655Y-71118407D01*
X83399500Y-71149000D01*
X83399500Y-72874672D01*
X83399501Y-72874684D01*
X83414033Y-72947736D01*
X83414035Y-72947742D01*
X83469397Y-73030599D01*
X83469399Y-73030601D01*
X83552260Y-73085966D01*
X83607808Y-73097015D01*
X83625315Y-73100498D01*
X83625320Y-73100498D01*
X83625326Y-73100500D01*
X83625327Y-73100500D01*
X85374673Y-73100500D01*
X85374674Y-73100500D01*
X85447740Y-73085966D01*
X85530601Y-73030601D01*
X85585966Y-72947740D01*
X85585965Y-72947740D01*
X85591383Y-72939633D01*
X85594461Y-72941689D01*
X85622551Y-72908784D01*
X85682042Y-72894485D01*
X85738576Y-72917885D01*
X85770559Y-72970046D01*
X85773300Y-72993182D01*
X85773300Y-74284106D01*
X85754393Y-74342297D01*
X85704893Y-74378261D01*
X85643707Y-74378261D01*
X85594207Y-74342297D01*
X85579080Y-74311201D01*
X85530582Y-74140750D01*
X85439673Y-73958179D01*
X85316764Y-73795421D01*
X85166041Y-73658019D01*
X84992637Y-73550652D01*
X84802456Y-73476976D01*
X84802455Y-73476975D01*
X84802453Y-73476975D01*
X84601976Y-73439500D01*
X84398024Y-73439500D01*
X84197546Y-73476975D01*
X84127632Y-73504059D01*
X84007363Y-73550652D01*
X83833959Y-73658019D01*
X83683237Y-73795420D01*
X83560328Y-73958177D01*
X83560323Y-73958186D01*
X83469419Y-74140747D01*
X83469418Y-74140750D01*
X83413603Y-74336917D01*
X83398389Y-74501114D01*
X83398078Y-74504466D01*
X83383797Y-74537634D01*
X83398077Y-74575531D01*
X83413603Y-74743083D01*
X83469418Y-74939250D01*
X83560327Y-75121821D01*
X83683236Y-75284579D01*
X83833959Y-75421981D01*
X84007363Y-75529348D01*
X84197544Y-75603024D01*
X84398024Y-75640500D01*
X84601976Y-75640500D01*
X84802456Y-75603024D01*
X84957490Y-75542963D01*
X85018576Y-75539574D01*
X85063252Y-75565275D01*
X85474304Y-75976327D01*
X85502081Y-76030844D01*
X85503300Y-76046331D01*
X85503300Y-76287059D01*
X85484393Y-76345250D01*
X85434893Y-76381214D01*
X85373707Y-76381214D01*
X85325298Y-76346722D01*
X85316764Y-76335421D01*
X85166041Y-76198019D01*
X84992637Y-76090652D01*
X84802456Y-76016976D01*
X84802455Y-76016975D01*
X84802453Y-76016975D01*
X84601976Y-75979500D01*
X84398024Y-75979500D01*
X84197546Y-76016975D01*
X84161746Y-76030844D01*
X84007363Y-76090652D01*
X83833959Y-76198019D01*
X83683236Y-76335421D01*
X83661974Y-76363576D01*
X83560328Y-76498177D01*
X83560323Y-76498186D01*
X83515364Y-76588477D01*
X83469418Y-76680750D01*
X83413603Y-76876917D01*
X83398389Y-77041114D01*
X83398078Y-77044466D01*
X83383797Y-77077634D01*
X83398077Y-77115531D01*
X83413603Y-77283083D01*
X83469418Y-77479250D01*
X83560327Y-77661821D01*
X83683236Y-77824579D01*
X83833959Y-77961981D01*
X84007363Y-78069348D01*
X84197544Y-78143024D01*
X84398024Y-78180500D01*
X84601976Y-78180500D01*
X84802456Y-78143024D01*
X84957490Y-78082963D01*
X85018576Y-78079574D01*
X85063251Y-78105274D01*
X86169401Y-79211425D01*
X86185548Y-79220747D01*
X86185550Y-79220748D01*
X86185552Y-79220750D01*
X86231892Y-79247504D01*
X86243899Y-79254436D01*
X86326989Y-79276700D01*
X90150500Y-79276700D01*
X90208691Y-79295607D01*
X90244655Y-79345107D01*
X90249500Y-79375700D01*
X90249500Y-79424672D01*
X90249501Y-79424684D01*
X90264033Y-79497736D01*
X90264036Y-79497745D01*
X90285588Y-79530000D01*
X90302196Y-79588888D01*
X90285588Y-79640000D01*
X90264036Y-79672254D01*
X90264033Y-79672263D01*
X90249501Y-79745315D01*
X90249500Y-79745327D01*
X90249500Y-79794300D01*
X90230593Y-79852491D01*
X90181093Y-79888455D01*
X90150500Y-79893300D01*
X85688488Y-79893300D01*
X85630297Y-79874393D01*
X85594333Y-79824893D01*
X85589910Y-79785166D01*
X85605215Y-79620000D01*
X85586397Y-79416917D01*
X85530582Y-79220750D01*
X85439673Y-79038179D01*
X85316764Y-78875421D01*
X85166041Y-78738019D01*
X84992637Y-78630652D01*
X84802456Y-78556976D01*
X84802455Y-78556975D01*
X84802453Y-78556975D01*
X84601976Y-78519500D01*
X84398024Y-78519500D01*
X84197546Y-78556975D01*
X84127632Y-78584059D01*
X84007363Y-78630652D01*
X83913814Y-78688575D01*
X83833959Y-78738019D01*
X83683237Y-78875420D01*
X83560328Y-79038177D01*
X83560323Y-79038186D01*
X83474061Y-79211425D01*
X83469418Y-79220750D01*
X83413603Y-79416917D01*
X83398389Y-79581114D01*
X83398078Y-79584466D01*
X83383797Y-79617634D01*
X83398077Y-79655531D01*
X83413603Y-79823083D01*
X83469418Y-80019250D01*
X83560327Y-80201821D01*
X83683236Y-80364579D01*
X83833959Y-80501981D01*
X84007363Y-80609348D01*
X84197544Y-80683024D01*
X84398024Y-80720500D01*
X84601976Y-80720500D01*
X84802456Y-80683024D01*
X84992637Y-80609348D01*
X85069867Y-80561528D01*
X85121984Y-80546700D01*
X90150500Y-80546700D01*
X90208691Y-80565607D01*
X90244655Y-80615107D01*
X90249500Y-80645700D01*
X90249500Y-80694672D01*
X90249501Y-80694684D01*
X90264033Y-80767736D01*
X90264036Y-80767745D01*
X90285588Y-80800000D01*
X90302196Y-80858888D01*
X90285588Y-80910000D01*
X90264036Y-80942254D01*
X90264033Y-80942263D01*
X90249501Y-81015315D01*
X90249500Y-81015327D01*
X90249500Y-81064300D01*
X90230593Y-81122491D01*
X90181093Y-81158455D01*
X90150500Y-81163300D01*
X85126986Y-81163300D01*
X85066239Y-81179576D01*
X85005137Y-81176373D01*
X84996496Y-81172573D01*
X84992644Y-81170655D01*
X84992638Y-81170652D01*
X84992637Y-81170652D01*
X84802456Y-81096976D01*
X84802455Y-81096975D01*
X84802453Y-81096975D01*
X84601976Y-81059500D01*
X84398024Y-81059500D01*
X84197546Y-81096975D01*
X84160190Y-81111447D01*
X84007363Y-81170652D01*
X83913814Y-81228575D01*
X83833959Y-81278019D01*
X83683237Y-81415420D01*
X83560328Y-81578177D01*
X83560323Y-81578186D01*
X83469419Y-81760747D01*
X83469418Y-81760750D01*
X83413603Y-81956917D01*
X83398389Y-82121114D01*
X83398078Y-82124466D01*
X83383797Y-82157634D01*
X83398077Y-82195531D01*
X83413603Y-82363083D01*
X83469418Y-82559250D01*
X83560327Y-82741821D01*
X83683236Y-82904579D01*
X83833959Y-83041981D01*
X84007363Y-83149348D01*
X84197544Y-83223024D01*
X84398024Y-83260500D01*
X84601976Y-83260500D01*
X84802456Y-83223024D01*
X84992637Y-83149348D01*
X85166041Y-83041981D01*
X85316764Y-82904579D01*
X85439673Y-82741821D01*
X85530582Y-82559250D01*
X85586397Y-82363083D01*
X85605215Y-82160000D01*
X85586397Y-81956917D01*
X85582378Y-81942791D01*
X85584639Y-81881649D01*
X85622408Y-81833512D01*
X85677599Y-81816700D01*
X90150500Y-81816700D01*
X90208691Y-81835607D01*
X90244655Y-81885107D01*
X90249500Y-81915700D01*
X90249500Y-81964672D01*
X90249501Y-81964684D01*
X90264033Y-82037736D01*
X90264036Y-82037745D01*
X90285588Y-82070000D01*
X90302196Y-82128888D01*
X90285588Y-82180000D01*
X90264036Y-82212254D01*
X90264033Y-82212263D01*
X90249501Y-82285315D01*
X90249500Y-82285327D01*
X90249500Y-82334300D01*
X90230593Y-82392491D01*
X90181093Y-82428455D01*
X90150500Y-82433300D01*
X86396989Y-82433300D01*
X86355444Y-82444432D01*
X86313897Y-82455564D01*
X86282412Y-82473743D01*
X86282411Y-82473742D01*
X86239402Y-82498574D01*
X85063252Y-83674723D01*
X85008735Y-83702500D01*
X84957486Y-83697034D01*
X84802455Y-83636975D01*
X84601976Y-83599500D01*
X84398024Y-83599500D01*
X84197546Y-83636975D01*
X84165874Y-83649245D01*
X84007363Y-83710652D01*
X83913814Y-83768575D01*
X83833959Y-83818019D01*
X83683237Y-83955420D01*
X83560328Y-84118177D01*
X83560323Y-84118186D01*
X83470089Y-84299402D01*
X83469418Y-84300750D01*
X83413603Y-84496917D01*
X83398389Y-84661114D01*
X83398078Y-84664466D01*
X83383797Y-84697634D01*
X83398077Y-84735531D01*
X83413603Y-84903083D01*
X83469418Y-85099250D01*
X83560327Y-85281821D01*
X83683236Y-85444579D01*
X83833959Y-85581981D01*
X84007363Y-85689348D01*
X84197544Y-85763024D01*
X84398024Y-85800500D01*
X84601976Y-85800500D01*
X84802456Y-85763024D01*
X84992637Y-85689348D01*
X85166041Y-85581981D01*
X85316764Y-85444579D01*
X85439673Y-85281821D01*
X85530582Y-85099250D01*
X85586397Y-84903083D01*
X85605215Y-84700000D01*
X85586397Y-84496917D01*
X85530582Y-84300750D01*
X85506050Y-84251483D01*
X85497038Y-84190969D01*
X85524666Y-84137356D01*
X86546328Y-83115696D01*
X86600845Y-83087919D01*
X86616332Y-83086700D01*
X90150500Y-83086700D01*
X90208691Y-83105607D01*
X90244655Y-83155107D01*
X90249500Y-83185700D01*
X90249500Y-83234672D01*
X90249501Y-83234684D01*
X90264033Y-83307736D01*
X90264036Y-83307745D01*
X90285588Y-83340000D01*
X90302196Y-83398888D01*
X90285588Y-83450000D01*
X90264036Y-83482254D01*
X90264033Y-83482263D01*
X90249501Y-83555315D01*
X90249500Y-83555327D01*
X90249500Y-83604300D01*
X90230593Y-83662491D01*
X90181093Y-83698455D01*
X90150500Y-83703300D01*
X87753012Y-83703300D01*
X87666989Y-83703300D01*
X87583898Y-83725564D01*
X87583897Y-83725564D01*
X87583895Y-83725565D01*
X87509404Y-83768573D01*
X85063252Y-86214723D01*
X85008735Y-86242500D01*
X84957486Y-86237034D01*
X84802455Y-86176975D01*
X84601976Y-86139500D01*
X84398024Y-86139500D01*
X84197546Y-86176975D01*
X84139655Y-86199402D01*
X84007363Y-86250652D01*
X83833959Y-86358019D01*
X83683236Y-86495421D01*
X83643388Y-86548188D01*
X83560328Y-86658177D01*
X83560323Y-86658186D01*
X83469419Y-86840747D01*
X83469418Y-86840750D01*
X83413603Y-87036917D01*
X83398389Y-87201114D01*
X83398078Y-87204466D01*
X83383797Y-87237634D01*
X83398077Y-87275531D01*
X83413603Y-87443083D01*
X83469418Y-87639250D01*
X83560327Y-87821821D01*
X83683236Y-87984579D01*
X83833959Y-88121981D01*
X84007363Y-88229348D01*
X84197544Y-88303024D01*
X84398024Y-88340500D01*
X84601976Y-88340500D01*
X84802456Y-88303024D01*
X84992637Y-88229348D01*
X85166041Y-88121981D01*
X85316764Y-87984579D01*
X85439673Y-87821821D01*
X85530582Y-87639250D01*
X85586397Y-87443083D01*
X85605215Y-87240000D01*
X85586397Y-87036917D01*
X85530582Y-86840750D01*
X85506050Y-86791484D01*
X85497038Y-86730967D01*
X85524666Y-86677355D01*
X87816327Y-84385696D01*
X87870844Y-84357919D01*
X87886331Y-84356700D01*
X90150500Y-84356700D01*
X90208691Y-84375607D01*
X90244655Y-84425107D01*
X90249500Y-84455700D01*
X90249500Y-84504672D01*
X90249501Y-84504684D01*
X90264033Y-84577736D01*
X90264036Y-84577745D01*
X90285588Y-84610000D01*
X90302196Y-84668888D01*
X90285588Y-84720000D01*
X90264036Y-84752254D01*
X90264033Y-84752263D01*
X90249501Y-84825315D01*
X90249500Y-84825327D01*
X90249500Y-84874300D01*
X90230593Y-84932491D01*
X90181093Y-84968455D01*
X90150500Y-84973300D01*
X89023011Y-84973300D01*
X88936989Y-84973300D01*
X88853898Y-84995564D01*
X88853897Y-84995564D01*
X88853895Y-84995565D01*
X88779404Y-85038573D01*
X85063252Y-88754723D01*
X85008735Y-88782500D01*
X84957486Y-88777034D01*
X84802455Y-88716975D01*
X84601976Y-88679500D01*
X84398024Y-88679500D01*
X84197546Y-88716975D01*
X84131682Y-88742491D01*
X84007363Y-88790652D01*
X83929968Y-88838573D01*
X83833959Y-88898019D01*
X83683344Y-89035323D01*
X83683236Y-89035421D01*
X83652342Y-89076331D01*
X83560328Y-89198177D01*
X83560323Y-89198186D01*
X83472761Y-89374036D01*
X83469418Y-89380750D01*
X83413603Y-89576917D01*
X83400708Y-89716085D01*
X83398078Y-89744466D01*
X83383797Y-89777634D01*
X83398077Y-89815531D01*
X83413603Y-89983083D01*
X83469418Y-90179250D01*
X83560327Y-90361821D01*
X83683236Y-90524579D01*
X83833959Y-90661981D01*
X84007363Y-90769348D01*
X84197544Y-90843024D01*
X84398024Y-90880500D01*
X84601976Y-90880500D01*
X84802456Y-90843024D01*
X84992637Y-90769348D01*
X85166041Y-90661981D01*
X85316764Y-90524579D01*
X85439673Y-90361821D01*
X85530582Y-90179250D01*
X85586397Y-89983083D01*
X85605215Y-89780000D01*
X85586397Y-89576917D01*
X85530582Y-89380750D01*
X85506050Y-89331484D01*
X85497038Y-89270967D01*
X85524666Y-89217355D01*
X89086327Y-85655696D01*
X89140844Y-85627919D01*
X89156331Y-85626700D01*
X90150500Y-85626700D01*
X90208691Y-85645607D01*
X90244655Y-85695107D01*
X90249500Y-85725700D01*
X90249500Y-85774672D01*
X90249501Y-85774684D01*
X90264033Y-85847736D01*
X90264036Y-85847745D01*
X90285588Y-85880000D01*
X90302196Y-85938888D01*
X90285588Y-85990000D01*
X90264036Y-86022254D01*
X90264033Y-86022263D01*
X90249501Y-86095315D01*
X90249500Y-86095327D01*
X90249500Y-86155943D01*
X90230593Y-86214134D01*
X90181093Y-86250098D01*
X90176124Y-86251569D01*
X90123898Y-86265563D01*
X90049404Y-86308573D01*
X85063252Y-91294723D01*
X85008735Y-91322500D01*
X84957486Y-91317034D01*
X84802455Y-91256975D01*
X84601976Y-91219500D01*
X84398024Y-91219500D01*
X84197546Y-91256975D01*
X84127743Y-91284017D01*
X84007363Y-91330652D01*
X83833959Y-91438019D01*
X83683236Y-91575421D01*
X83653472Y-91614835D01*
X83560328Y-91738177D01*
X83560323Y-91738186D01*
X83469419Y-91920747D01*
X83469418Y-91920750D01*
X83413603Y-92116917D01*
X83401272Y-92250000D01*
X83398078Y-92284466D01*
X83383797Y-92317634D01*
X83398077Y-92355531D01*
X83413603Y-92523083D01*
X83469418Y-92719250D01*
X83560327Y-92901821D01*
X83683236Y-93064579D01*
X83833959Y-93201981D01*
X84007363Y-93309348D01*
X84197544Y-93383024D01*
X84398024Y-93420500D01*
X84601976Y-93420500D01*
X84802456Y-93383024D01*
X84992637Y-93309348D01*
X85166041Y-93201981D01*
X85316764Y-93064579D01*
X85439673Y-92901821D01*
X85530582Y-92719250D01*
X85579080Y-92548797D01*
X85613190Y-92498005D01*
X85670642Y-92476961D01*
X85729492Y-92493705D01*
X85767260Y-92541842D01*
X85773300Y-92575893D01*
X85773300Y-93083668D01*
X85754393Y-93141859D01*
X85744304Y-93153672D01*
X85063252Y-93834723D01*
X85008735Y-93862500D01*
X84957486Y-93857034D01*
X84802455Y-93796975D01*
X84601976Y-93759500D01*
X84398024Y-93759500D01*
X84197546Y-93796975D01*
X84131984Y-93822374D01*
X84007363Y-93870652D01*
X83890499Y-93943011D01*
X83833959Y-93978019D01*
X83683237Y-94115420D01*
X83560328Y-94278177D01*
X83560323Y-94278186D01*
X83469419Y-94460747D01*
X83469418Y-94460750D01*
X83413603Y-94656917D01*
X83398495Y-94819969D01*
X83398078Y-94824466D01*
X83383797Y-94857634D01*
X83398077Y-94895531D01*
X83413603Y-95063083D01*
X83469418Y-95259250D01*
X83560327Y-95441821D01*
X83683236Y-95604579D01*
X83833959Y-95741981D01*
X84007363Y-95849348D01*
X84197544Y-95923024D01*
X84398024Y-95960500D01*
X84601976Y-95960500D01*
X84802456Y-95923024D01*
X84992637Y-95849348D01*
X85166041Y-95741981D01*
X85316764Y-95604579D01*
X85439673Y-95441821D01*
X85530582Y-95259250D01*
X85579080Y-95088797D01*
X85613190Y-95038005D01*
X85670642Y-95016961D01*
X85729492Y-95033705D01*
X85767260Y-95081842D01*
X85773300Y-95115893D01*
X85773300Y-95623668D01*
X85754393Y-95681859D01*
X85744304Y-95693672D01*
X85063252Y-96374723D01*
X85008735Y-96402500D01*
X84957486Y-96397034D01*
X84802455Y-96336975D01*
X84601976Y-96299500D01*
X84398024Y-96299500D01*
X84197546Y-96336975D01*
X84164240Y-96349878D01*
X84007363Y-96410652D01*
X83851773Y-96506989D01*
X83833959Y-96518019D01*
X83691627Y-96647772D01*
X83683236Y-96655421D01*
X83665041Y-96679515D01*
X83560328Y-96818177D01*
X83560323Y-96818186D01*
X83469419Y-97000747D01*
X83469418Y-97000750D01*
X83413603Y-97196917D01*
X83398152Y-97363670D01*
X83398078Y-97364466D01*
X83383797Y-97397634D01*
X83398077Y-97435531D01*
X83413603Y-97603083D01*
X83469418Y-97799250D01*
X83560327Y-97981821D01*
X83683236Y-98144579D01*
X83833959Y-98281981D01*
X84007363Y-98389348D01*
X84197544Y-98463024D01*
X84398024Y-98500500D01*
X84601976Y-98500500D01*
X84802456Y-98463024D01*
X84992637Y-98389348D01*
X85166041Y-98281981D01*
X85316764Y-98144579D01*
X85439673Y-97981821D01*
X85485679Y-97889426D01*
X85528541Y-97845765D01*
X85588882Y-97835635D01*
X85643653Y-97862907D01*
X85671934Y-97917165D01*
X85673300Y-97933555D01*
X85673300Y-98263667D01*
X85654393Y-98321858D01*
X85644304Y-98333671D01*
X85063251Y-98914723D01*
X85008734Y-98942500D01*
X84957484Y-98937034D01*
X84802456Y-98876976D01*
X84802455Y-98876975D01*
X84802453Y-98876975D01*
X84601976Y-98839500D01*
X84398024Y-98839500D01*
X84197546Y-98876975D01*
X84127632Y-98904059D01*
X84007363Y-98950652D01*
X83833959Y-99058019D01*
X83683236Y-99195421D01*
X83643388Y-99248188D01*
X83560328Y-99358177D01*
X83560323Y-99358186D01*
X83469419Y-99540747D01*
X83469418Y-99540750D01*
X83413603Y-99736917D01*
X83399176Y-99892621D01*
X83398078Y-99904466D01*
X83383797Y-99937634D01*
X83398077Y-99975531D01*
X83413603Y-100143083D01*
X83469418Y-100339250D01*
X83560327Y-100521821D01*
X83683236Y-100684579D01*
X83833959Y-100821981D01*
X84007363Y-100929348D01*
X84197544Y-101003024D01*
X84398024Y-101040500D01*
X84601976Y-101040500D01*
X84802456Y-101003024D01*
X84992637Y-100929348D01*
X85166041Y-100821981D01*
X85316764Y-100684579D01*
X85439673Y-100521821D01*
X85530582Y-100339250D01*
X85586397Y-100143083D01*
X85605215Y-99940000D01*
X85586397Y-99736917D01*
X85530582Y-99540750D01*
X85506050Y-99491483D01*
X85497038Y-99430969D01*
X85524666Y-99377356D01*
X86261425Y-98640599D01*
X86295914Y-98580861D01*
X86304436Y-98566101D01*
X86326700Y-98483011D01*
X86326700Y-97176331D01*
X86345607Y-97118140D01*
X86355696Y-97106327D01*
X86643846Y-96818177D01*
X86961425Y-96500599D01*
X87004435Y-96426102D01*
X87004436Y-96426101D01*
X87026700Y-96343011D01*
X87026700Y-95176330D01*
X87045607Y-95118139D01*
X87055690Y-95106332D01*
X87761425Y-94400598D01*
X87804436Y-94326102D01*
X87826700Y-94243011D01*
X87826700Y-94156989D01*
X87826700Y-91976330D01*
X87829239Y-91968515D01*
X90150000Y-91968515D01*
X90150000Y-92249999D01*
X90150001Y-92250000D01*
X90749999Y-92250000D01*
X90750000Y-92249999D01*
X90750000Y-91600001D01*
X91250000Y-91600001D01*
X91250000Y-92249999D01*
X91250001Y-92250000D01*
X91849998Y-92250000D01*
X91849999Y-92249999D01*
X91849999Y-91968516D01*
X91849998Y-91968514D01*
X91835166Y-91874858D01*
X91835163Y-91874848D01*
X91777641Y-91761956D01*
X91688043Y-91672358D01*
X91575151Y-91614836D01*
X91575147Y-91614835D01*
X91481484Y-91600000D01*
X91250001Y-91600000D01*
X91250000Y-91600001D01*
X90750000Y-91600001D01*
X90749999Y-91600000D01*
X90518517Y-91600000D01*
X90518514Y-91600001D01*
X90424858Y-91614833D01*
X90424848Y-91614836D01*
X90311956Y-91672358D01*
X90222358Y-91761956D01*
X90164836Y-91874848D01*
X90164835Y-91874852D01*
X90150000Y-91968515D01*
X87829239Y-91968515D01*
X87845607Y-91918140D01*
X87855696Y-91906327D01*
X89152022Y-90610001D01*
X93440001Y-90610001D01*
X93440001Y-91141485D01*
X93454833Y-91235141D01*
X93454836Y-91235151D01*
X93512358Y-91348043D01*
X93601956Y-91437641D01*
X93714848Y-91495163D01*
X93714852Y-91495164D01*
X93808515Y-91509999D01*
X94039998Y-91509999D01*
X94040000Y-91509998D01*
X94040000Y-90610001D01*
X94039999Y-90610000D01*
X93440002Y-90610000D01*
X93440001Y-90610001D01*
X89152022Y-90610001D01*
X89206327Y-90555696D01*
X89260844Y-90527919D01*
X89276331Y-90526700D01*
X92343009Y-90526700D01*
X92343011Y-90526700D01*
X92426102Y-90504436D01*
X92500598Y-90461425D01*
X93270998Y-89691024D01*
X93325513Y-89663249D01*
X93385945Y-89672820D01*
X93429210Y-89716085D01*
X93440000Y-89761030D01*
X93440000Y-90109999D01*
X93440001Y-90110000D01*
X94441000Y-90110000D01*
X94499191Y-90128907D01*
X94535155Y-90178407D01*
X94540000Y-90209000D01*
X94540000Y-91546449D01*
X94521093Y-91604640D01*
X94485946Y-91634658D01*
X94411956Y-91672358D01*
X94322358Y-91761956D01*
X94264836Y-91874848D01*
X94264835Y-91874852D01*
X94250000Y-91968515D01*
X94250000Y-92249999D01*
X94250001Y-92250000D01*
X94849999Y-92250000D01*
X94850000Y-92249999D01*
X94850000Y-91600001D01*
X95350000Y-91600001D01*
X95350000Y-92249999D01*
X95350001Y-92250000D01*
X95949998Y-92250000D01*
X95949999Y-92249999D01*
X95949999Y-91968516D01*
X95949998Y-91968514D01*
X95935166Y-91874858D01*
X95935163Y-91874848D01*
X95877641Y-91761956D01*
X95788043Y-91672358D01*
X95675151Y-91614836D01*
X95675147Y-91614835D01*
X95581484Y-91600000D01*
X95350001Y-91600000D01*
X95350000Y-91600001D01*
X94850000Y-91600001D01*
X94850000Y-91563550D01*
X94868907Y-91505359D01*
X94904055Y-91475340D01*
X94978048Y-91437638D01*
X95026189Y-91389497D01*
X95080705Y-91361719D01*
X95096193Y-91360500D01*
X96034673Y-91360500D01*
X96034674Y-91360500D01*
X96107740Y-91345966D01*
X96139998Y-91324411D01*
X96198886Y-91307803D01*
X96250001Y-91324411D01*
X96282260Y-91345966D01*
X96337675Y-91356989D01*
X96355315Y-91360498D01*
X96355320Y-91360498D01*
X96355326Y-91360500D01*
X96355327Y-91360500D01*
X97304673Y-91360500D01*
X97304674Y-91360500D01*
X97377740Y-91345966D01*
X97409998Y-91324411D01*
X97468886Y-91307803D01*
X97520001Y-91324411D01*
X97552260Y-91345966D01*
X97607675Y-91356989D01*
X97625315Y-91360498D01*
X97625320Y-91360498D01*
X97625326Y-91360500D01*
X97625327Y-91360500D01*
X98574673Y-91360500D01*
X98574674Y-91360500D01*
X98647740Y-91345966D01*
X98679998Y-91324411D01*
X98738886Y-91307803D01*
X98790001Y-91324411D01*
X98822260Y-91345966D01*
X98877675Y-91356989D01*
X98895315Y-91360498D01*
X98895320Y-91360498D01*
X98895326Y-91360500D01*
X98895327Y-91360500D01*
X99844673Y-91360500D01*
X99844674Y-91360500D01*
X99917740Y-91345966D01*
X99949998Y-91324411D01*
X100008886Y-91307803D01*
X100060001Y-91324411D01*
X100092260Y-91345966D01*
X100147675Y-91356989D01*
X100165315Y-91360498D01*
X100165320Y-91360498D01*
X100165326Y-91360500D01*
X100165327Y-91360500D01*
X101114673Y-91360500D01*
X101114674Y-91360500D01*
X101187740Y-91345966D01*
X101219998Y-91324411D01*
X101278886Y-91307803D01*
X101330001Y-91324411D01*
X101362260Y-91345966D01*
X101417675Y-91356989D01*
X101435315Y-91360498D01*
X101435320Y-91360498D01*
X101435326Y-91360500D01*
X101435327Y-91360500D01*
X102384673Y-91360500D01*
X102384674Y-91360500D01*
X102457740Y-91345966D01*
X102489998Y-91324411D01*
X102548886Y-91307803D01*
X102600001Y-91324411D01*
X102632260Y-91345966D01*
X102687675Y-91356989D01*
X102705315Y-91360498D01*
X102705320Y-91360498D01*
X102705326Y-91360500D01*
X102705327Y-91360500D01*
X103654673Y-91360500D01*
X103654674Y-91360500D01*
X103727740Y-91345966D01*
X103759998Y-91324411D01*
X103818886Y-91307803D01*
X103870001Y-91324411D01*
X103902260Y-91345966D01*
X103957675Y-91356989D01*
X103975315Y-91360498D01*
X103975320Y-91360498D01*
X103975326Y-91360500D01*
X104157469Y-91360500D01*
X104215660Y-91379407D01*
X104227473Y-91389496D01*
X104330145Y-91492168D01*
X104357922Y-91546685D01*
X104348351Y-91607117D01*
X104305088Y-91650381D01*
X104261955Y-91672359D01*
X104172358Y-91761956D01*
X104114836Y-91874848D01*
X104114835Y-91874852D01*
X104100000Y-91968515D01*
X104100000Y-92249999D01*
X104100001Y-92250000D01*
X105799998Y-92250000D01*
X105799999Y-92249999D01*
X105799999Y-92201030D01*
X105818906Y-92142839D01*
X105868406Y-92106875D01*
X105929592Y-92106875D01*
X105969003Y-92131026D01*
X106944304Y-93106327D01*
X106972081Y-93160844D01*
X106973300Y-93176331D01*
X106973300Y-95556989D01*
X106973300Y-95643011D01*
X106986875Y-95693673D01*
X106995565Y-95726104D01*
X107027179Y-95780861D01*
X107038575Y-95800598D01*
X108999402Y-97761425D01*
X109073898Y-97804436D01*
X109156989Y-97826700D01*
X110623669Y-97826700D01*
X110681860Y-97845607D01*
X110693673Y-97855696D01*
X112044304Y-99206327D01*
X112072081Y-99260844D01*
X112073300Y-99276331D01*
X112073300Y-101876989D01*
X112073300Y-101963011D01*
X112095564Y-102046102D01*
X112095565Y-102046104D01*
X112136414Y-102116856D01*
X112138575Y-102120598D01*
X113308087Y-103290110D01*
X114475330Y-104457353D01*
X114503107Y-104511870D01*
X114493948Y-104571483D01*
X114469419Y-104620744D01*
X114417136Y-104804500D01*
X114413603Y-104816917D01*
X114394785Y-105020000D01*
X114413603Y-105223083D01*
X114469418Y-105419250D01*
X114560327Y-105601821D01*
X114683236Y-105764579D01*
X114833959Y-105901981D01*
X115007363Y-106009348D01*
X115197544Y-106083024D01*
X115392726Y-106119509D01*
X115446451Y-106148786D01*
X115472707Y-106204052D01*
X115461464Y-106264195D01*
X115417017Y-106306244D01*
X115383163Y-106315446D01*
X115282118Y-106324286D01*
X115070842Y-106380897D01*
X114872614Y-106473332D01*
X114693450Y-106598783D01*
X114538783Y-106753450D01*
X114413332Y-106932614D01*
X114320897Y-107130843D01*
X114272892Y-107310000D01*
X115066988Y-107310000D01*
X115034075Y-107367007D01*
X115000000Y-107494174D01*
X115000000Y-107625826D01*
X115034075Y-107752993D01*
X115066988Y-107810000D01*
X114272892Y-107810000D01*
X114320897Y-107989156D01*
X114413332Y-108187386D01*
X114538783Y-108366549D01*
X114693450Y-108521216D01*
X114872613Y-108646667D01*
X115070844Y-108739103D01*
X115250000Y-108787106D01*
X115250000Y-107993012D01*
X115307007Y-108025925D01*
X115434174Y-108060000D01*
X115565826Y-108060000D01*
X115692993Y-108025925D01*
X115750000Y-107993012D01*
X115750000Y-108787105D01*
X115929155Y-108739103D01*
X116127386Y-108646667D01*
X116306549Y-108521216D01*
X116461216Y-108366549D01*
X116586668Y-108187385D01*
X116586669Y-108187383D01*
X116610775Y-108135688D01*
X116652503Y-108090939D01*
X116712564Y-108079264D01*
X116768017Y-108105121D01*
X116797681Y-108158635D01*
X116799500Y-108177526D01*
X116799500Y-112996759D01*
X116799288Y-113003234D01*
X116784529Y-113228405D01*
X116782839Y-113241244D01*
X116739449Y-113459382D01*
X116736097Y-113471891D01*
X116664604Y-113682500D01*
X116659648Y-113694463D01*
X116561284Y-113893926D01*
X116554809Y-113905142D01*
X116431242Y-114090072D01*
X116423359Y-114100345D01*
X116276717Y-114267560D01*
X116267560Y-114276717D01*
X116100345Y-114423359D01*
X116090072Y-114431242D01*
X115905142Y-114554809D01*
X115893926Y-114561284D01*
X115694463Y-114659648D01*
X115682500Y-114664604D01*
X115471891Y-114736097D01*
X115459382Y-114739449D01*
X115241244Y-114782839D01*
X115228405Y-114784529D01*
X115003234Y-114799288D01*
X114996759Y-114799500D01*
X102924821Y-114799500D01*
X102866630Y-114780593D01*
X102830666Y-114731093D01*
X102830666Y-114669907D01*
X102854817Y-114630496D01*
X103061954Y-114423359D01*
X103844351Y-113640962D01*
X103886106Y-113568641D01*
X103917456Y-113514342D01*
X103917456Y-113514340D01*
X103917458Y-113514338D01*
X103955300Y-113373107D01*
X103955300Y-113226893D01*
X103955300Y-112791355D01*
X108720000Y-112791355D01*
X108720000Y-112929999D01*
X108720001Y-112930000D01*
X109320000Y-112930000D01*
X109320000Y-113430000D01*
X108720001Y-113430000D01*
X108720000Y-113430001D01*
X108720000Y-113568644D01*
X108754586Y-113742519D01*
X108754586Y-113742521D01*
X108822429Y-113906308D01*
X108920923Y-114053715D01*
X109046284Y-114179076D01*
X109193689Y-114277569D01*
X109357476Y-114345413D01*
X109370000Y-114347903D01*
X109370000Y-113646988D01*
X109379940Y-113664205D01*
X109435795Y-113720060D01*
X109504204Y-113759556D01*
X109580504Y-113780000D01*
X109659496Y-113780000D01*
X109735796Y-113759556D01*
X109804205Y-113720060D01*
X109860060Y-113664205D01*
X109870000Y-113646988D01*
X109870000Y-114347903D01*
X109882523Y-114345413D01*
X110046310Y-114277569D01*
X110193715Y-114179076D01*
X110319076Y-114053715D01*
X110417570Y-113906308D01*
X110485413Y-113742521D01*
X110485413Y-113742519D01*
X110519999Y-113568644D01*
X110520000Y-113568641D01*
X110520000Y-113430001D01*
X110519999Y-113430000D01*
X109920000Y-113430000D01*
X109920000Y-112930000D01*
X110519999Y-112930000D01*
X110520000Y-112929999D01*
X110520000Y-112903154D01*
X113769500Y-112903154D01*
X113769500Y-113096845D01*
X113799797Y-113288138D01*
X113859651Y-113472348D01*
X113945563Y-113640962D01*
X113947582Y-113644923D01*
X114061427Y-113801617D01*
X114198383Y-113938573D01*
X114355077Y-114052418D01*
X114527652Y-114140349D01*
X114711857Y-114200201D01*
X114711858Y-114200201D01*
X114711861Y-114200202D01*
X114903155Y-114230500D01*
X114903158Y-114230500D01*
X115096845Y-114230500D01*
X115288138Y-114200202D01*
X115288139Y-114200201D01*
X115288143Y-114200201D01*
X115472348Y-114140349D01*
X115644923Y-114052418D01*
X115801617Y-113938573D01*
X115938573Y-113801617D01*
X116052418Y-113644923D01*
X116140349Y-113472348D01*
X116200201Y-113288143D01*
X116204684Y-113259837D01*
X116230500Y-113096845D01*
X116230500Y-112903154D01*
X116200202Y-112711861D01*
X116194982Y-112695795D01*
X116140349Y-112527652D01*
X116052418Y-112355077D01*
X115938573Y-112198383D01*
X115801617Y-112061427D01*
X115644923Y-111947582D01*
X115644922Y-111947581D01*
X115644920Y-111947580D01*
X115472348Y-111859651D01*
X115288138Y-111799797D01*
X115096845Y-111769500D01*
X115096842Y-111769500D01*
X114903158Y-111769500D01*
X114903155Y-111769500D01*
X114711861Y-111799797D01*
X114527651Y-111859651D01*
X114355079Y-111947580D01*
X114198384Y-112061426D01*
X114061426Y-112198384D01*
X113947580Y-112355079D01*
X113859651Y-112527651D01*
X113799797Y-112711861D01*
X113769500Y-112903154D01*
X110520000Y-112903154D01*
X110520000Y-112791358D01*
X110519999Y-112791355D01*
X110485413Y-112617480D01*
X110485413Y-112617478D01*
X110417570Y-112453691D01*
X110319076Y-112306284D01*
X110193715Y-112180923D01*
X110046310Y-112082430D01*
X109882521Y-112014586D01*
X109870000Y-112012095D01*
X109870000Y-112713011D01*
X109860060Y-112695795D01*
X109804205Y-112639940D01*
X109735796Y-112600444D01*
X109659496Y-112580000D01*
X109580504Y-112580000D01*
X109504204Y-112600444D01*
X109435795Y-112639940D01*
X109379940Y-112695795D01*
X109370000Y-112713011D01*
X109370000Y-112012095D01*
X109369999Y-112012095D01*
X109357478Y-112014586D01*
X109193689Y-112082430D01*
X109046284Y-112180923D01*
X108920923Y-112306284D01*
X108822429Y-112453691D01*
X108754586Y-112617478D01*
X108754586Y-112617480D01*
X108720000Y-112791355D01*
X103955300Y-112791355D01*
X103955300Y-110854300D01*
X103974207Y-110796109D01*
X104023707Y-110760145D01*
X104054300Y-110755300D01*
X107473105Y-110755300D01*
X107473107Y-110755300D01*
X107614338Y-110717458D01*
X107614340Y-110717456D01*
X107614342Y-110717456D01*
X107740957Y-110644354D01*
X107740957Y-110644353D01*
X107740962Y-110644351D01*
X107844351Y-110540962D01*
X107915344Y-110418000D01*
X107917456Y-110414342D01*
X107917456Y-110414340D01*
X107917458Y-110414338D01*
X107955300Y-110273107D01*
X107955300Y-110126893D01*
X107951631Y-110113199D01*
X107954832Y-110052098D01*
X107993337Y-110004548D01*
X108052437Y-109988712D01*
X108072870Y-109991947D01*
X108123450Y-110005500D01*
X108123453Y-110005500D01*
X108256548Y-110005500D01*
X108256550Y-110005500D01*
X108385116Y-109971051D01*
X108385118Y-109971049D01*
X108385120Y-109971049D01*
X108421775Y-109949886D01*
X108500384Y-109904501D01*
X108594501Y-109810384D01*
X108594502Y-109810381D01*
X108599089Y-109805795D01*
X108600304Y-109807010D01*
X108643922Y-109777029D01*
X108705086Y-109778626D01*
X108753630Y-109815870D01*
X108763510Y-109834064D01*
X108822430Y-109976310D01*
X108920923Y-110123715D01*
X109046284Y-110249076D01*
X109193689Y-110347569D01*
X109357476Y-110415413D01*
X109370000Y-110417903D01*
X109370000Y-109716988D01*
X109379940Y-109734205D01*
X109435795Y-109790060D01*
X109504204Y-109829556D01*
X109580504Y-109850000D01*
X109659496Y-109850000D01*
X109735796Y-109829556D01*
X109804205Y-109790060D01*
X109860060Y-109734205D01*
X109870000Y-109716988D01*
X109870000Y-110417903D01*
X109882523Y-110415413D01*
X110046310Y-110347569D01*
X110193715Y-110249076D01*
X110319076Y-110123715D01*
X110417570Y-109976308D01*
X110485413Y-109812521D01*
X110485413Y-109812519D01*
X110519999Y-109638644D01*
X110520000Y-109638641D01*
X110520000Y-109250001D01*
X110519999Y-109250000D01*
X109920000Y-109250000D01*
X109920000Y-108750000D01*
X110519999Y-108750000D01*
X110520000Y-108749999D01*
X110520000Y-108361358D01*
X110519999Y-108361355D01*
X110485413Y-108187480D01*
X110485413Y-108187478D01*
X110417570Y-108023691D01*
X110319076Y-107876284D01*
X110193715Y-107750923D01*
X110046310Y-107652430D01*
X109882521Y-107584586D01*
X109870000Y-107582095D01*
X109870000Y-108283011D01*
X109860060Y-108265795D01*
X109804205Y-108209940D01*
X109735796Y-108170444D01*
X109659496Y-108150000D01*
X109580504Y-108150000D01*
X109504204Y-108170444D01*
X109435795Y-108209940D01*
X109379940Y-108265795D01*
X109370000Y-108283011D01*
X109370000Y-107582095D01*
X109369999Y-107582095D01*
X109357478Y-107584586D01*
X109357474Y-107584587D01*
X109255775Y-107626713D01*
X109194779Y-107631514D01*
X109142610Y-107599544D01*
X109138168Y-107593182D01*
X109138012Y-107593301D01*
X109042564Y-107467435D01*
X108922095Y-107376080D01*
X108781439Y-107320612D01*
X108750000Y-107316836D01*
X108750000Y-108511000D01*
X108731093Y-108569191D01*
X108681593Y-108605155D01*
X108651000Y-108610000D01*
X108349500Y-108610000D01*
X108291309Y-108591093D01*
X108255345Y-108541593D01*
X108250500Y-108511000D01*
X108250499Y-107828478D01*
X108250305Y-107826012D01*
X108250000Y-107818249D01*
X108250000Y-107366000D01*
X108268907Y-107307809D01*
X108318407Y-107271845D01*
X108349000Y-107267000D01*
X108481075Y-107267000D01*
X108481081Y-107266998D01*
X108509669Y-107255725D01*
X108591180Y-107193914D01*
X108621943Y-107183217D01*
X108633625Y-107157935D01*
X108715721Y-107049674D01*
X108769674Y-106912858D01*
X108777224Y-106850000D01*
X107959000Y-106850000D01*
X107900809Y-106831093D01*
X107864845Y-106781593D01*
X107860000Y-106751000D01*
X107860000Y-106449000D01*
X107878907Y-106390809D01*
X107928407Y-106354845D01*
X107959000Y-106350000D01*
X108777223Y-106350000D01*
X108769674Y-106287141D01*
X108715721Y-106150324D01*
X108715138Y-106149555D01*
X108714891Y-106148846D01*
X108712403Y-106144420D01*
X108713196Y-106143973D01*
X108695040Y-106091764D01*
X108712749Y-106033198D01*
X108761500Y-105996225D01*
X108809505Y-105991951D01*
X108863481Y-106000500D01*
X109226518Y-106000499D01*
X109226520Y-106000499D01*
X109226521Y-106000498D01*
X109276653Y-105992559D01*
X109320299Y-105985647D01*
X109320299Y-105985646D01*
X109320304Y-105985646D01*
X109433342Y-105928050D01*
X109523050Y-105838342D01*
X109580646Y-105725304D01*
X109595500Y-105631519D01*
X109595499Y-103918482D01*
X109595499Y-103918481D01*
X109595499Y-103918478D01*
X109595498Y-103918476D01*
X109580647Y-103824700D01*
X109580646Y-103824698D01*
X109580646Y-103824696D01*
X109523050Y-103711658D01*
X109433342Y-103621950D01*
X109320304Y-103564354D01*
X109320305Y-103564354D01*
X109226522Y-103549500D01*
X108863479Y-103549500D01*
X108863476Y-103549501D01*
X108769700Y-103564352D01*
X108769695Y-103564354D01*
X108656659Y-103621949D01*
X108566949Y-103711659D01*
X108509354Y-103824694D01*
X108507781Y-103834628D01*
X108480002Y-103889143D01*
X108425484Y-103916920D01*
X108365053Y-103907346D01*
X108321789Y-103864081D01*
X108312219Y-103834623D01*
X108310647Y-103824700D01*
X108310646Y-103824698D01*
X108310646Y-103824696D01*
X108253050Y-103711658D01*
X108163342Y-103621950D01*
X108050304Y-103564354D01*
X108050305Y-103564354D01*
X107956522Y-103549500D01*
X107593479Y-103549500D01*
X107593476Y-103549501D01*
X107499700Y-103564352D01*
X107499695Y-103564354D01*
X107386659Y-103621949D01*
X107296949Y-103711659D01*
X107239354Y-103824694D01*
X107237781Y-103834628D01*
X107210002Y-103889143D01*
X107155484Y-103916920D01*
X107095053Y-103907346D01*
X107051789Y-103864081D01*
X107042219Y-103834623D01*
X107040647Y-103824700D01*
X107040646Y-103824698D01*
X107040646Y-103824696D01*
X106983050Y-103711658D01*
X106893342Y-103621950D01*
X106780304Y-103564354D01*
X106780305Y-103564354D01*
X106686522Y-103549500D01*
X106323479Y-103549500D01*
X106323476Y-103549501D01*
X106229700Y-103564352D01*
X106229695Y-103564354D01*
X106116659Y-103621949D01*
X106026949Y-103711659D01*
X105969354Y-103824694D01*
X105967781Y-103834628D01*
X105940002Y-103889143D01*
X105885484Y-103916920D01*
X105825053Y-103907346D01*
X105781789Y-103864081D01*
X105772219Y-103834623D01*
X105770647Y-103824700D01*
X105770646Y-103824698D01*
X105770646Y-103824696D01*
X105713050Y-103711658D01*
X105623342Y-103621950D01*
X105510304Y-103564354D01*
X105510305Y-103564354D01*
X105416522Y-103549500D01*
X105053479Y-103549500D01*
X105053476Y-103549501D01*
X104959700Y-103564352D01*
X104959695Y-103564354D01*
X104846659Y-103621949D01*
X104756949Y-103711659D01*
X104699354Y-103824694D01*
X104697781Y-103834628D01*
X104670002Y-103889143D01*
X104615484Y-103916920D01*
X104555053Y-103907346D01*
X104511789Y-103864081D01*
X104502219Y-103834623D01*
X104500647Y-103824700D01*
X104500646Y-103824698D01*
X104500646Y-103824696D01*
X104443050Y-103711658D01*
X104424013Y-103692621D01*
X104396896Y-103665503D01*
X104369119Y-103610986D01*
X104367900Y-103595500D01*
X104367900Y-103526030D01*
X104367901Y-103526017D01*
X104367901Y-103411956D01*
X104367900Y-103411954D01*
X104367540Y-103410612D01*
X104340443Y-103309487D01*
X104340443Y-103309486D01*
X104287401Y-103217613D01*
X104226806Y-103157018D01*
X104199031Y-103102504D01*
X104198659Y-103099939D01*
X104188447Y-103022375D01*
X104186330Y-103006291D01*
X104130861Y-102872375D01*
X104042621Y-102757379D01*
X103927625Y-102669139D01*
X103927621Y-102669137D01*
X103793709Y-102613670D01*
X103793710Y-102613670D01*
X103700056Y-102601339D01*
X103644832Y-102574997D01*
X103642976Y-102573190D01*
X102728046Y-101658260D01*
X102728044Y-101658257D01*
X102722402Y-101652615D01*
X102722401Y-101652613D01*
X102647387Y-101577599D01*
X102555514Y-101524557D01*
X102533858Y-101518754D01*
X102453045Y-101497099D01*
X102453043Y-101497099D01*
X102346957Y-101497099D01*
X102340894Y-101497099D01*
X102340878Y-101497100D01*
X101207895Y-101497100D01*
X101149704Y-101478193D01*
X101137891Y-101468104D01*
X100658621Y-100988834D01*
X100630844Y-100934317D01*
X100640414Y-100873888D01*
X100690646Y-100775304D01*
X100692218Y-100765374D01*
X100719993Y-100710860D01*
X100774508Y-100683080D01*
X100834941Y-100692650D01*
X100878207Y-100735913D01*
X100887780Y-100765371D01*
X100889353Y-100775302D01*
X100889354Y-100775304D01*
X100946950Y-100888342D01*
X101036658Y-100978050D01*
X101149696Y-101035646D01*
X101243481Y-101050500D01*
X101606518Y-101050499D01*
X101606520Y-101050499D01*
X101606521Y-101050498D01*
X101653411Y-101043072D01*
X101700299Y-101035647D01*
X101700299Y-101035646D01*
X101700304Y-101035646D01*
X101813342Y-100978050D01*
X101903050Y-100888342D01*
X101960646Y-100775304D01*
X101962218Y-100765374D01*
X101989993Y-100710860D01*
X102044508Y-100683080D01*
X102104941Y-100692650D01*
X102148207Y-100735913D01*
X102157780Y-100765371D01*
X102159353Y-100775302D01*
X102159354Y-100775304D01*
X102216950Y-100888342D01*
X102306658Y-100978050D01*
X102419696Y-101035646D01*
X102513481Y-101050500D01*
X102876518Y-101050499D01*
X102876520Y-101050499D01*
X102876521Y-101050498D01*
X102923411Y-101043072D01*
X102970299Y-101035647D01*
X102970299Y-101035646D01*
X102970304Y-101035646D01*
X103083342Y-100978050D01*
X103173050Y-100888342D01*
X103230646Y-100775304D01*
X103232218Y-100765374D01*
X103259993Y-100710860D01*
X103314508Y-100683080D01*
X103374941Y-100692650D01*
X103418207Y-100735913D01*
X103427780Y-100765371D01*
X103429353Y-100775302D01*
X103429354Y-100775304D01*
X103486950Y-100888342D01*
X103576658Y-100978050D01*
X103689696Y-101035646D01*
X103783481Y-101050500D01*
X104146518Y-101050499D01*
X104146520Y-101050499D01*
X104146521Y-101050498D01*
X104193411Y-101043072D01*
X104240299Y-101035647D01*
X104240299Y-101035646D01*
X104240304Y-101035646D01*
X104353342Y-100978050D01*
X104443050Y-100888342D01*
X104500646Y-100775304D01*
X104502218Y-100765374D01*
X104529993Y-100710860D01*
X104584508Y-100683080D01*
X104644941Y-100692650D01*
X104688207Y-100735913D01*
X104697780Y-100765371D01*
X104699353Y-100775302D01*
X104699354Y-100775304D01*
X104756950Y-100888342D01*
X104846658Y-100978050D01*
X104959696Y-101035646D01*
X105053481Y-101050500D01*
X105416518Y-101050499D01*
X105416520Y-101050499D01*
X105416521Y-101050498D01*
X105463411Y-101043072D01*
X105510299Y-101035647D01*
X105510299Y-101035646D01*
X105510304Y-101035646D01*
X105623342Y-100978050D01*
X105713050Y-100888342D01*
X105770646Y-100775304D01*
X105772218Y-100765374D01*
X105799993Y-100710860D01*
X105854508Y-100683080D01*
X105914941Y-100692650D01*
X105958207Y-100735913D01*
X105967780Y-100765371D01*
X105969353Y-100775302D01*
X105969354Y-100775304D01*
X106026950Y-100888342D01*
X106116658Y-100978050D01*
X106229696Y-101035646D01*
X106323481Y-101050500D01*
X106686518Y-101050499D01*
X106686520Y-101050499D01*
X106686521Y-101050498D01*
X106733411Y-101043072D01*
X106780299Y-101035647D01*
X106780299Y-101035646D01*
X106780304Y-101035646D01*
X106893342Y-100978050D01*
X106983050Y-100888342D01*
X107040646Y-100775304D01*
X107042218Y-100765374D01*
X107069993Y-100710860D01*
X107124508Y-100683080D01*
X107184941Y-100692650D01*
X107228207Y-100735913D01*
X107237780Y-100765371D01*
X107239353Y-100775302D01*
X107239354Y-100775304D01*
X107296950Y-100888342D01*
X107386658Y-100978050D01*
X107499696Y-101035646D01*
X107593481Y-101050500D01*
X107956518Y-101050499D01*
X107956520Y-101050499D01*
X107956521Y-101050498D01*
X108003411Y-101043072D01*
X108050299Y-101035647D01*
X108050299Y-101035646D01*
X108050304Y-101035646D01*
X108163342Y-100978050D01*
X108253050Y-100888342D01*
X108310646Y-100775304D01*
X108312218Y-100765374D01*
X108339993Y-100710860D01*
X108394508Y-100683080D01*
X108454941Y-100692650D01*
X108498207Y-100735913D01*
X108507780Y-100765371D01*
X108509353Y-100775302D01*
X108509354Y-100775304D01*
X108566950Y-100888342D01*
X108656658Y-100978050D01*
X108769696Y-101035646D01*
X108863481Y-101050500D01*
X109226518Y-101050499D01*
X109226520Y-101050499D01*
X109226521Y-101050498D01*
X109273411Y-101043072D01*
X109320299Y-101035647D01*
X109320299Y-101035646D01*
X109320304Y-101035646D01*
X109433342Y-100978050D01*
X109523050Y-100888342D01*
X109580646Y-100775304D01*
X109595500Y-100681519D01*
X109595499Y-98968482D01*
X109595499Y-98968481D01*
X109595499Y-98968478D01*
X109595498Y-98968476D01*
X109580647Y-98874700D01*
X109580646Y-98874698D01*
X109580646Y-98874696D01*
X109523050Y-98761658D01*
X109433342Y-98671950D01*
X109320304Y-98614354D01*
X109320305Y-98614354D01*
X109226522Y-98599500D01*
X108863479Y-98599500D01*
X108863476Y-98599501D01*
X108769700Y-98614352D01*
X108769695Y-98614354D01*
X108656659Y-98671949D01*
X108566949Y-98761659D01*
X108509354Y-98874694D01*
X108507781Y-98884628D01*
X108480002Y-98939143D01*
X108425484Y-98966920D01*
X108365053Y-98957346D01*
X108321789Y-98914081D01*
X108312219Y-98884623D01*
X108310647Y-98874700D01*
X108310646Y-98874698D01*
X108310646Y-98874696D01*
X108253050Y-98761658D01*
X108163342Y-98671950D01*
X108050304Y-98614354D01*
X108050305Y-98614354D01*
X107956522Y-98599500D01*
X107593479Y-98599500D01*
X107593476Y-98599501D01*
X107499700Y-98614352D01*
X107499695Y-98614354D01*
X107386659Y-98671949D01*
X107296949Y-98761659D01*
X107239354Y-98874694D01*
X107237781Y-98884628D01*
X107210002Y-98939143D01*
X107155484Y-98966920D01*
X107095053Y-98957346D01*
X107051789Y-98914081D01*
X107042219Y-98884623D01*
X107040647Y-98874700D01*
X107040646Y-98874698D01*
X107040646Y-98874696D01*
X106983050Y-98761658D01*
X106893342Y-98671950D01*
X106780304Y-98614354D01*
X106780305Y-98614354D01*
X106694026Y-98600688D01*
X106639510Y-98572910D01*
X106611733Y-98518393D01*
X106621305Y-98457961D01*
X106630966Y-98442649D01*
X106680861Y-98377625D01*
X106736330Y-98243709D01*
X106755250Y-98100000D01*
X106754667Y-98095575D01*
X106736330Y-97956291D01*
X106680861Y-97822375D01*
X106592621Y-97707379D01*
X106477625Y-97619139D01*
X106477621Y-97619137D01*
X106343709Y-97563670D01*
X106343708Y-97563669D01*
X106200000Y-97544750D01*
X106199999Y-97544750D01*
X106123994Y-97554756D01*
X106063833Y-97543606D01*
X106021716Y-97499223D01*
X106013730Y-97438561D01*
X106022128Y-97413130D01*
X106059582Y-97336518D01*
X106070500Y-97261582D01*
X106070500Y-96918418D01*
X106059582Y-96843482D01*
X106003076Y-96727898D01*
X105912102Y-96636924D01*
X105882218Y-96622314D01*
X105838245Y-96579771D01*
X105826700Y-96533374D01*
X105826700Y-95656990D01*
X105826700Y-95656989D01*
X105804436Y-95573899D01*
X105783103Y-95536949D01*
X105761425Y-95499401D01*
X105535915Y-95273891D01*
X105305696Y-95043671D01*
X105277919Y-94989155D01*
X105276700Y-94973668D01*
X105276700Y-94949500D01*
X105295607Y-94891309D01*
X105345107Y-94855345D01*
X105375700Y-94850500D01*
X105424673Y-94850500D01*
X105424674Y-94850500D01*
X105497740Y-94835966D01*
X105580601Y-94780601D01*
X105635966Y-94697740D01*
X105635966Y-94697735D01*
X105637655Y-94693662D01*
X105677389Y-94647134D01*
X105736883Y-94632847D01*
X105754747Y-94635916D01*
X105756287Y-94636328D01*
X105756291Y-94636330D01*
X105852097Y-94648943D01*
X105899999Y-94655250D01*
X105899999Y-94655249D01*
X105900000Y-94655250D01*
X106043709Y-94636330D01*
X106177625Y-94580861D01*
X106292621Y-94492621D01*
X106380861Y-94377625D01*
X106436330Y-94243709D01*
X106455250Y-94100000D01*
X106436330Y-93956291D01*
X106380861Y-93822375D01*
X106292621Y-93707379D01*
X106177625Y-93619139D01*
X106177621Y-93619137D01*
X106043709Y-93563670D01*
X106043708Y-93563669D01*
X105900000Y-93544750D01*
X105756294Y-93563669D01*
X105754744Y-93564085D01*
X105753596Y-93564024D01*
X105749858Y-93564517D01*
X105749766Y-93563824D01*
X105693642Y-93560882D01*
X105646092Y-93522377D01*
X105637655Y-93506338D01*
X105635966Y-93502259D01*
X105610982Y-93464868D01*
X105594374Y-93405980D01*
X105615552Y-93348576D01*
X105635113Y-93329770D01*
X105638044Y-93327640D01*
X105727641Y-93238043D01*
X105785163Y-93125151D01*
X105785164Y-93125147D01*
X105800000Y-93031484D01*
X105800000Y-92750001D01*
X105799999Y-92750000D01*
X104100002Y-92750000D01*
X104100001Y-92750001D01*
X104100001Y-93031485D01*
X104114833Y-93125141D01*
X104114836Y-93125151D01*
X104172358Y-93238043D01*
X104261957Y-93327642D01*
X104264890Y-93329773D01*
X104267021Y-93332706D01*
X104267465Y-93333150D01*
X104267394Y-93333220D01*
X104300855Y-93379273D01*
X104300856Y-93440458D01*
X104289018Y-93464867D01*
X104264035Y-93502257D01*
X104264033Y-93502263D01*
X104249501Y-93575315D01*
X104249500Y-93575327D01*
X104249500Y-94624672D01*
X104249501Y-94624684D01*
X104264033Y-94697736D01*
X104264035Y-94697742D01*
X104319397Y-94780599D01*
X104319399Y-94780601D01*
X104402260Y-94835966D01*
X104452236Y-94845907D01*
X104475315Y-94850498D01*
X104475320Y-94850498D01*
X104475326Y-94850500D01*
X104524300Y-94850500D01*
X104582491Y-94869407D01*
X104618455Y-94918907D01*
X104623300Y-94949500D01*
X104623300Y-95106989D01*
X104623300Y-95193011D01*
X104642503Y-95264677D01*
X104645565Y-95276104D01*
X104652367Y-95287886D01*
X104688575Y-95350598D01*
X105144305Y-95806328D01*
X105172081Y-95860843D01*
X105173300Y-95876330D01*
X105173300Y-96533374D01*
X105154393Y-96591565D01*
X105117781Y-96622315D01*
X105087899Y-96636923D01*
X105087898Y-96636923D01*
X105087898Y-96636924D01*
X104996924Y-96727898D01*
X104996923Y-96727899D01*
X104991124Y-96733699D01*
X104988606Y-96731181D01*
X104952054Y-96758200D01*
X104920688Y-96763300D01*
X104560090Y-96763300D01*
X104501899Y-96744393D01*
X104465935Y-96694893D01*
X104464463Y-96638680D01*
X104476700Y-96593011D01*
X104476700Y-96506989D01*
X104476700Y-96484988D01*
X104495607Y-96426797D01*
X104505690Y-96414990D01*
X104539198Y-96381483D01*
X104590573Y-96276393D01*
X104600500Y-96208260D01*
X104600500Y-95691740D01*
X104590573Y-95623607D01*
X104581242Y-95604521D01*
X104558006Y-95556989D01*
X104539198Y-95518517D01*
X104456483Y-95435802D01*
X104448978Y-95432133D01*
X104351395Y-95384427D01*
X104324139Y-95380456D01*
X104283260Y-95374500D01*
X104016740Y-95374500D01*
X103982673Y-95379463D01*
X103948604Y-95384427D01*
X103868480Y-95423598D01*
X103807898Y-95432169D01*
X103781520Y-95423598D01*
X103701395Y-95384427D01*
X103674139Y-95380456D01*
X103633260Y-95374500D01*
X103366740Y-95374500D01*
X103298607Y-95384427D01*
X103298605Y-95384427D01*
X103290999Y-95385536D01*
X103290523Y-95382275D01*
X103243688Y-95381568D01*
X103194737Y-95344860D01*
X103176700Y-95287886D01*
X103176700Y-94706990D01*
X103174221Y-94697740D01*
X103154436Y-94623899D01*
X103154436Y-94623898D01*
X103154436Y-94623897D01*
X103111428Y-94549406D01*
X103111426Y-94549404D01*
X103111425Y-94549402D01*
X102400598Y-93838575D01*
X102393926Y-93834723D01*
X102326104Y-93795565D01*
X102326103Y-93795564D01*
X102326102Y-93795564D01*
X102243011Y-93773300D01*
X102243009Y-93773300D01*
X95899500Y-93773300D01*
X95841309Y-93754393D01*
X95805345Y-93704893D01*
X95800500Y-93674300D01*
X95800500Y-93575327D01*
X95800498Y-93575315D01*
X95794072Y-93543011D01*
X95785966Y-93502260D01*
X95760982Y-93464868D01*
X95744374Y-93405980D01*
X95765552Y-93348576D01*
X95785113Y-93329770D01*
X95788044Y-93327640D01*
X95877641Y-93238043D01*
X95935163Y-93125151D01*
X95935164Y-93125147D01*
X95950000Y-93031484D01*
X95950000Y-92750001D01*
X95949999Y-92750000D01*
X94250002Y-92750000D01*
X94250001Y-92750001D01*
X94250001Y-93031485D01*
X94264833Y-93125141D01*
X94264836Y-93125151D01*
X94322358Y-93238043D01*
X94411957Y-93327642D01*
X94414890Y-93329773D01*
X94417021Y-93332706D01*
X94417465Y-93333150D01*
X94417394Y-93333220D01*
X94450855Y-93379273D01*
X94450856Y-93440458D01*
X94439018Y-93464867D01*
X94414035Y-93502257D01*
X94414033Y-93502263D01*
X94399501Y-93575315D01*
X94399500Y-93575327D01*
X94399500Y-93674300D01*
X94380593Y-93732491D01*
X94331093Y-93768455D01*
X94300500Y-93773300D01*
X91799500Y-93773300D01*
X91741309Y-93754393D01*
X91705345Y-93704893D01*
X91700500Y-93674300D01*
X91700500Y-93575327D01*
X91700498Y-93575315D01*
X91694072Y-93543011D01*
X91685966Y-93502260D01*
X91660982Y-93464868D01*
X91644374Y-93405980D01*
X91665552Y-93348576D01*
X91685113Y-93329770D01*
X91688044Y-93327640D01*
X91777641Y-93238043D01*
X91835163Y-93125151D01*
X91835164Y-93125147D01*
X91850000Y-93031484D01*
X91850000Y-92750001D01*
X91849999Y-92750000D01*
X90150002Y-92750000D01*
X90150001Y-92750001D01*
X90150001Y-93031485D01*
X90164833Y-93125141D01*
X90164836Y-93125151D01*
X90222358Y-93238043D01*
X90311957Y-93327642D01*
X90314890Y-93329773D01*
X90317021Y-93332706D01*
X90317465Y-93333150D01*
X90317394Y-93333220D01*
X90350855Y-93379273D01*
X90350856Y-93440458D01*
X90339018Y-93464867D01*
X90314035Y-93502257D01*
X90314033Y-93502263D01*
X90299501Y-93575315D01*
X90299500Y-93575327D01*
X90299500Y-93674300D01*
X90280593Y-93732491D01*
X90231093Y-93768455D01*
X90200500Y-93773300D01*
X89892025Y-93773300D01*
X89833834Y-93754393D01*
X89813483Y-93734567D01*
X89792624Y-93707383D01*
X89792621Y-93707379D01*
X89677625Y-93619139D01*
X89677621Y-93619137D01*
X89543709Y-93563670D01*
X89543708Y-93563669D01*
X89400000Y-93544750D01*
X89256291Y-93563669D01*
X89256290Y-93563670D01*
X89122378Y-93619137D01*
X89122374Y-93619139D01*
X89007381Y-93707377D01*
X89007377Y-93707381D01*
X88919139Y-93822374D01*
X88919137Y-93822378D01*
X88863670Y-93956290D01*
X88863669Y-93956291D01*
X88844750Y-94099999D01*
X88844750Y-94100000D01*
X88863669Y-94243708D01*
X88863670Y-94243709D01*
X88906752Y-94347721D01*
X88919139Y-94377625D01*
X89007379Y-94492621D01*
X89122375Y-94580861D01*
X89256291Y-94636330D01*
X89400000Y-94655250D01*
X89543709Y-94636330D01*
X89677625Y-94580861D01*
X89792621Y-94492621D01*
X89813483Y-94465432D01*
X89863907Y-94430777D01*
X89892025Y-94426700D01*
X90200500Y-94426700D01*
X90258691Y-94445607D01*
X90294655Y-94495107D01*
X90299500Y-94525700D01*
X90299500Y-94624672D01*
X90299501Y-94624684D01*
X90314033Y-94697736D01*
X90314035Y-94697742D01*
X90369397Y-94780599D01*
X90369399Y-94780601D01*
X90452260Y-94835966D01*
X90502236Y-94845907D01*
X90525315Y-94850498D01*
X90525320Y-94850498D01*
X90525326Y-94850500D01*
X90525327Y-94850500D01*
X91066075Y-94850500D01*
X91124266Y-94869407D01*
X91160230Y-94918907D01*
X91160230Y-94980093D01*
X91124266Y-95029593D01*
X91093695Y-95044569D01*
X90999810Y-95071845D01*
X90863890Y-95152227D01*
X90752226Y-95263891D01*
X90696556Y-95358024D01*
X90650660Y-95398486D01*
X90589746Y-95404244D01*
X90537082Y-95373097D01*
X90532089Y-95366956D01*
X90519844Y-95350598D01*
X90489687Y-95310313D01*
X90421477Y-95259252D01*
X90380228Y-95228373D01*
X90380226Y-95228372D01*
X90252114Y-95180588D01*
X90252113Y-95180587D01*
X90212507Y-95176330D01*
X90195485Y-95174500D01*
X90195481Y-95174500D01*
X89654521Y-95174500D01*
X89654515Y-95174501D01*
X89597888Y-95180587D01*
X89597886Y-95180588D01*
X89469774Y-95228372D01*
X89469773Y-95228372D01*
X89469772Y-95228373D01*
X89360315Y-95310311D01*
X89360308Y-95310318D01*
X89339574Y-95338015D01*
X89289565Y-95373268D01*
X89228386Y-95372392D01*
X89190318Y-95348689D01*
X89181077Y-95339448D01*
X89153300Y-95284931D01*
X89152928Y-95282366D01*
X89152103Y-95276102D01*
X89136330Y-95156291D01*
X89080861Y-95022375D01*
X88992621Y-94907379D01*
X88877625Y-94819139D01*
X88877621Y-94819137D01*
X88743709Y-94763670D01*
X88743708Y-94763669D01*
X88600000Y-94744750D01*
X88456291Y-94763669D01*
X88456290Y-94763670D01*
X88322378Y-94819137D01*
X88322374Y-94819139D01*
X88207381Y-94907377D01*
X88207377Y-94907381D01*
X88119139Y-95022374D01*
X88119137Y-95022378D01*
X88063670Y-95156290D01*
X88063669Y-95156291D01*
X88044750Y-95299999D01*
X88044750Y-95300000D01*
X88063669Y-95443708D01*
X88063670Y-95443709D01*
X88117595Y-95573899D01*
X88119139Y-95577625D01*
X88207379Y-95692621D01*
X88207383Y-95692624D01*
X88207384Y-95692625D01*
X88322374Y-95780860D01*
X88322375Y-95780861D01*
X88332957Y-95785244D01*
X88365075Y-95806704D01*
X88388367Y-95829996D01*
X88416144Y-95884513D01*
X88406573Y-95944945D01*
X88388367Y-95970003D01*
X88236949Y-96121421D01*
X88236945Y-96121426D01*
X88199080Y-96187009D01*
X88199081Y-96187010D01*
X88177220Y-96224874D01*
X88177219Y-96224878D01*
X88146300Y-96340269D01*
X88146300Y-99359731D01*
X88163699Y-99424668D01*
X88160498Y-99485767D01*
X88138077Y-99520293D01*
X85661067Y-101997304D01*
X85606550Y-102025081D01*
X85591063Y-102026300D01*
X85564767Y-102026300D01*
X85506576Y-102007393D01*
X85476146Y-101971429D01*
X85439673Y-101898179D01*
X85316764Y-101735421D01*
X85166041Y-101598019D01*
X84992637Y-101490652D01*
X84802456Y-101416976D01*
X84802455Y-101416975D01*
X84802453Y-101416975D01*
X84601976Y-101379500D01*
X84398024Y-101379500D01*
X84197546Y-101416975D01*
X84140693Y-101439000D01*
X84007363Y-101490652D01*
X83833959Y-101598019D01*
X83706698Y-101714033D01*
X83683236Y-101735421D01*
X83668880Y-101754432D01*
X83560328Y-101898177D01*
X83560323Y-101898186D01*
X83479627Y-102060247D01*
X83469418Y-102080750D01*
X83413603Y-102276917D01*
X83409444Y-102321807D01*
X83398078Y-102444466D01*
X83383797Y-102477634D01*
X83398077Y-102515531D01*
X83413603Y-102683083D01*
X83469418Y-102879250D01*
X83560327Y-103061821D01*
X83683236Y-103224579D01*
X83833959Y-103361981D01*
X84007363Y-103469348D01*
X84197544Y-103543024D01*
X84392726Y-103579509D01*
X84446451Y-103608786D01*
X84472707Y-103664052D01*
X84461464Y-103724195D01*
X84417017Y-103766244D01*
X84383163Y-103775446D01*
X84282118Y-103784286D01*
X84070842Y-103840897D01*
X83872614Y-103933332D01*
X83693450Y-104058783D01*
X83538783Y-104213450D01*
X83413331Y-104392615D01*
X83413329Y-104392619D01*
X83389224Y-104444313D01*
X83347496Y-104489061D01*
X83287434Y-104500735D01*
X83231982Y-104474877D01*
X83202319Y-104421363D01*
X83200500Y-104402473D01*
X83200500Y-102524668D01*
X83213794Y-102483750D01*
X83200500Y-102435331D01*
X83200500Y-99984668D01*
X83213794Y-99943750D01*
X83200500Y-99895331D01*
X83200500Y-97444668D01*
X83213794Y-97403750D01*
X83200500Y-97355331D01*
X83200500Y-94904668D01*
X83213794Y-94863750D01*
X83200500Y-94815331D01*
X83200500Y-92364668D01*
X83213794Y-92323750D01*
X83200500Y-92275331D01*
X83200500Y-89824668D01*
X83213794Y-89783750D01*
X83200500Y-89735331D01*
X83200500Y-87284668D01*
X83213794Y-87243750D01*
X83200500Y-87195331D01*
X83200500Y-84744668D01*
X83213794Y-84703750D01*
X83200500Y-84655331D01*
X83200500Y-82204668D01*
X83213794Y-82163750D01*
X83200500Y-82115331D01*
X83200500Y-79664668D01*
X83213794Y-79623750D01*
X83200500Y-79575331D01*
X83200500Y-77124668D01*
X83213794Y-77083750D01*
X83200500Y-77035331D01*
X83200500Y-74584668D01*
X83213794Y-74543750D01*
X83200500Y-74495331D01*
X83200500Y-71149000D01*
X83219407Y-71090809D01*
X83268907Y-71054845D01*
X83299500Y-71050000D01*
X83300500Y-71050000D01*
X83358691Y-71068907D01*
G37*
G04 #@! TD.AperFunction*
G04 #@! TA.AperFunction,Conductor*
G36*
X97410865Y-97422607D02*
G01*
X97431926Y-97443370D01*
X97485313Y-97514687D01*
X97594774Y-97596628D01*
X97722886Y-97644412D01*
X97779515Y-97650500D01*
X98564709Y-97650499D01*
X98622900Y-97669406D01*
X98658864Y-97718906D01*
X98662862Y-97762421D01*
X98644750Y-97899999D01*
X98644750Y-97900000D01*
X98663669Y-98043708D01*
X98663670Y-98043709D01*
X98718629Y-98176395D01*
X98719139Y-98177625D01*
X98807379Y-98292621D01*
X98922375Y-98380861D01*
X99056291Y-98436330D01*
X99200000Y-98455250D01*
X99343709Y-98436330D01*
X99477625Y-98380861D01*
X99510782Y-98355418D01*
X99568455Y-98334994D01*
X99627121Y-98352370D01*
X99630356Y-98354691D01*
X99712429Y-98416129D01*
X99747682Y-98466136D01*
X99752100Y-98495382D01*
X99752100Y-98645500D01*
X99733193Y-98703691D01*
X99723104Y-98715503D01*
X99676951Y-98761656D01*
X99676950Y-98761658D01*
X99619354Y-98874695D01*
X99604500Y-98968478D01*
X99604500Y-100681521D01*
X99604501Y-100681523D01*
X99619352Y-100775299D01*
X99619354Y-100775304D01*
X99676950Y-100888342D01*
X99723104Y-100934496D01*
X99750880Y-100989011D01*
X99752099Y-101004498D01*
X99752099Y-101108044D01*
X99762574Y-101147134D01*
X99762574Y-101147136D01*
X99779555Y-101210510D01*
X99779556Y-101210511D01*
X99779557Y-101210514D01*
X99832599Y-101302387D01*
X99907613Y-101377401D01*
X99907615Y-101377402D01*
X99913254Y-101383041D01*
X99913259Y-101383045D01*
X100677597Y-102147384D01*
X100677599Y-102147387D01*
X100752613Y-102222401D01*
X100825532Y-102264500D01*
X100844486Y-102275443D01*
X100844489Y-102275444D01*
X100895721Y-102289172D01*
X100946954Y-102302900D01*
X100946956Y-102302901D01*
X100946957Y-102302901D01*
X101059106Y-102302901D01*
X101059122Y-102302900D01*
X102192106Y-102302900D01*
X102250297Y-102321807D01*
X102262110Y-102331896D01*
X102548815Y-102618601D01*
X102576592Y-102673118D01*
X102567021Y-102733550D01*
X102523756Y-102776815D01*
X102516697Y-102780069D01*
X102422376Y-102819138D01*
X102422374Y-102819139D01*
X102307381Y-102907377D01*
X102307377Y-102907381D01*
X102219139Y-103022374D01*
X102219137Y-103022378D01*
X102191464Y-103089189D01*
X102151728Y-103135715D01*
X102092233Y-103149999D01*
X102035705Y-103126585D01*
X102008536Y-103089189D01*
X101997199Y-103061818D01*
X101980861Y-103022375D01*
X101892621Y-102907379D01*
X101777625Y-102819139D01*
X101777623Y-102819138D01*
X101777621Y-102819137D01*
X101643709Y-102763670D01*
X101643708Y-102763669D01*
X101500000Y-102744750D01*
X101356291Y-102763669D01*
X101356290Y-102763670D01*
X101222378Y-102819137D01*
X101222374Y-102819139D01*
X101107381Y-102907377D01*
X101107377Y-102907381D01*
X101019139Y-103022374D01*
X101019137Y-103022378D01*
X100963670Y-103156290D01*
X100963669Y-103156291D01*
X100944750Y-103299999D01*
X100944750Y-103300000D01*
X100963669Y-103443708D01*
X100963670Y-103443709D01*
X101011938Y-103560241D01*
X101016738Y-103621238D01*
X100990478Y-103668130D01*
X100949889Y-103708719D01*
X100895372Y-103736496D01*
X100834940Y-103726925D01*
X100791675Y-103683660D01*
X100789734Y-103679352D01*
X100788922Y-103677907D01*
X100697564Y-103557435D01*
X100577095Y-103466080D01*
X100436439Y-103410612D01*
X100405000Y-103406836D01*
X100405000Y-106143161D01*
X100436443Y-106139386D01*
X100577095Y-106083919D01*
X100697564Y-105992564D01*
X100788922Y-105872092D01*
X100792239Y-105866193D01*
X100794147Y-105867265D01*
X100826698Y-105827784D01*
X100885936Y-105812469D01*
X100942862Y-105834898D01*
X100949878Y-105841270D01*
X101036658Y-105928050D01*
X101149696Y-105985646D01*
X101243481Y-106000500D01*
X101606518Y-106000499D01*
X101606520Y-106000499D01*
X101606521Y-106000498D01*
X101656653Y-105992559D01*
X101700299Y-105985647D01*
X101700299Y-105985646D01*
X101700304Y-105985646D01*
X101813342Y-105928050D01*
X101903050Y-105838342D01*
X101960646Y-105725304D01*
X101962218Y-105715374D01*
X101989993Y-105660860D01*
X102044508Y-105633080D01*
X102104941Y-105642650D01*
X102148207Y-105685913D01*
X102157780Y-105715371D01*
X102159353Y-105725302D01*
X102159354Y-105725304D01*
X102216950Y-105838342D01*
X102272443Y-105893835D01*
X102300219Y-105948350D01*
X102290648Y-106008782D01*
X102276999Y-106027567D01*
X102277233Y-106027745D01*
X102184279Y-106150323D01*
X102130325Y-106287141D01*
X102122776Y-106350000D01*
X102941000Y-106350000D01*
X102999191Y-106368907D01*
X103035155Y-106418407D01*
X103040000Y-106449000D01*
X103040000Y-106751000D01*
X103021093Y-106809191D01*
X102971593Y-106845155D01*
X102941000Y-106850000D01*
X102122776Y-106850000D01*
X102130325Y-106912858D01*
X102184279Y-107049676D01*
X102273138Y-107166855D01*
X102273144Y-107166861D01*
X102310819Y-107195431D01*
X102345762Y-107245658D01*
X102350000Y-107274315D01*
X102350000Y-107818234D01*
X102349695Y-107825996D01*
X102349500Y-107828475D01*
X102349500Y-107828478D01*
X102349500Y-107828481D01*
X102349500Y-108334204D01*
X102349501Y-108511000D01*
X102330594Y-108569191D01*
X102281094Y-108605155D01*
X102250501Y-108610000D01*
X101456000Y-108610000D01*
X101397809Y-108591093D01*
X101361845Y-108541593D01*
X101357000Y-108511000D01*
X101357000Y-108209000D01*
X101375907Y-108150809D01*
X101425407Y-108114845D01*
X101456000Y-108110000D01*
X101849999Y-108110000D01*
X101850000Y-108109999D01*
X101850000Y-107316836D01*
X101849999Y-107316836D01*
X101818560Y-107320612D01*
X101677904Y-107376080D01*
X101557435Y-107467435D01*
X101461988Y-107593301D01*
X101459838Y-107591670D01*
X101423368Y-107625242D01*
X101362592Y-107632306D01*
X101344223Y-107626713D01*
X101242521Y-107584586D01*
X101230000Y-107582095D01*
X101230000Y-108283011D01*
X101220060Y-108265795D01*
X101164205Y-108209940D01*
X101095796Y-108170444D01*
X101019496Y-108150000D01*
X100940504Y-108150000D01*
X100864204Y-108170444D01*
X100795795Y-108209940D01*
X100739940Y-108265795D01*
X100730000Y-108283011D01*
X100730000Y-107582095D01*
X100729999Y-107582095D01*
X100717478Y-107584586D01*
X100553689Y-107652430D01*
X100406284Y-107750923D01*
X100280923Y-107876284D01*
X100182429Y-108023691D01*
X100114586Y-108187478D01*
X100114586Y-108187480D01*
X100080000Y-108361355D01*
X100080000Y-108749999D01*
X100080001Y-108750000D01*
X100680000Y-108750000D01*
X100680000Y-109250000D01*
X100080001Y-109250000D01*
X100080000Y-109250001D01*
X100080000Y-109638644D01*
X100114586Y-109812519D01*
X100114586Y-109812521D01*
X100182429Y-109976308D01*
X100280923Y-110123715D01*
X100406284Y-110249076D01*
X100553689Y-110347569D01*
X100717476Y-110415413D01*
X100730000Y-110417903D01*
X100730000Y-109716988D01*
X100739940Y-109734205D01*
X100795795Y-109790060D01*
X100864204Y-109829556D01*
X100940504Y-109850000D01*
X101019496Y-109850000D01*
X101095796Y-109829556D01*
X101164205Y-109790060D01*
X101220060Y-109734205D01*
X101230000Y-109716988D01*
X101230000Y-110417903D01*
X101242523Y-110415413D01*
X101406310Y-110347569D01*
X101553715Y-110249076D01*
X101679076Y-110123715D01*
X101777570Y-109976309D01*
X101836489Y-109834065D01*
X101876225Y-109787539D01*
X101935720Y-109773255D01*
X101992248Y-109796669D01*
X102000909Y-109805796D01*
X102000911Y-109805795D01*
X102005497Y-109810381D01*
X102005499Y-109810384D01*
X102099616Y-109904501D01*
X102099618Y-109904502D01*
X102214880Y-109971049D01*
X102214878Y-109971049D01*
X102214882Y-109971050D01*
X102214884Y-109971051D01*
X102343450Y-110005500D01*
X102343452Y-110005500D01*
X102476548Y-110005500D01*
X102476550Y-110005500D01*
X102605116Y-109971051D01*
X102605118Y-109971049D01*
X102605120Y-109971049D01*
X102641775Y-109949886D01*
X102720384Y-109904501D01*
X102720394Y-109904490D01*
X102720499Y-109904411D01*
X102720605Y-109904373D01*
X102726003Y-109901257D01*
X102726580Y-109902256D01*
X102778172Y-109883979D01*
X102836840Y-109901349D01*
X102874094Y-109949886D01*
X102876404Y-110008567D01*
X102844700Y-110126893D01*
X102844700Y-113028979D01*
X102825793Y-113087170D01*
X102815704Y-113098983D01*
X102003783Y-113910904D01*
X101949266Y-113938681D01*
X101933779Y-113939900D01*
X101911820Y-113939900D01*
X101853629Y-113920993D01*
X101817665Y-113871493D01*
X101817665Y-113810307D01*
X101820356Y-113803014D01*
X101845414Y-113742518D01*
X101879999Y-113568644D01*
X101880000Y-113568641D01*
X101880000Y-113430001D01*
X101879999Y-113430000D01*
X101280000Y-113430000D01*
X101280000Y-112930000D01*
X101879999Y-112930000D01*
X101880000Y-112929999D01*
X101880000Y-112791358D01*
X101879999Y-112791355D01*
X101845413Y-112617480D01*
X101845413Y-112617478D01*
X101777570Y-112453691D01*
X101679076Y-112306284D01*
X101553715Y-112180923D01*
X101406310Y-112082430D01*
X101242521Y-112014586D01*
X101230000Y-112012095D01*
X101230000Y-112713011D01*
X101220060Y-112695795D01*
X101164205Y-112639940D01*
X101095796Y-112600444D01*
X101019496Y-112580000D01*
X100940504Y-112580000D01*
X100864204Y-112600444D01*
X100795795Y-112639940D01*
X100739940Y-112695795D01*
X100730000Y-112713011D01*
X100730000Y-112012095D01*
X100729999Y-112012095D01*
X100717478Y-112014586D01*
X100553689Y-112082430D01*
X100406284Y-112180923D01*
X100280923Y-112306284D01*
X100182429Y-112453691D01*
X100114586Y-112617478D01*
X100114586Y-112617480D01*
X100080000Y-112791355D01*
X100080000Y-112929999D01*
X100080001Y-112930000D01*
X100680000Y-112930000D01*
X100680000Y-113430000D01*
X100080001Y-113430000D01*
X100080000Y-113430001D01*
X100080000Y-113545700D01*
X100061093Y-113603891D01*
X100011593Y-113639855D01*
X99981000Y-113644700D01*
X99722648Y-113644700D01*
X99664457Y-113625793D01*
X99663408Y-113625019D01*
X99583450Y-113565164D01*
X99583446Y-113565161D01*
X99457027Y-113518010D01*
X99457022Y-113518009D01*
X99457020Y-113518008D01*
X99457016Y-113518008D01*
X99431744Y-113515291D01*
X99401130Y-113512000D01*
X98798870Y-113512000D01*
X98771943Y-113514894D01*
X98742983Y-113518008D01*
X98742972Y-113518010D01*
X98616553Y-113565161D01*
X98582374Y-113590747D01*
X98536678Y-113624954D01*
X98478766Y-113644690D01*
X98477352Y-113644700D01*
X98139346Y-113644700D01*
X98081155Y-113625793D01*
X98080112Y-113625024D01*
X97983450Y-113552664D01*
X97983446Y-113552661D01*
X97857027Y-113505510D01*
X97857022Y-113505509D01*
X97857020Y-113505508D01*
X97857016Y-113505508D01*
X97831744Y-113502791D01*
X97801130Y-113499500D01*
X97198870Y-113499500D01*
X97171943Y-113502394D01*
X97142983Y-113505508D01*
X97142972Y-113505510D01*
X97016553Y-113552661D01*
X96995207Y-113568641D01*
X96936678Y-113612454D01*
X96878766Y-113632190D01*
X96877352Y-113632200D01*
X90074521Y-113632200D01*
X90016330Y-113613293D01*
X90004517Y-113603204D01*
X89584296Y-113182983D01*
X89556519Y-113128466D01*
X89555300Y-113112979D01*
X89555300Y-106034300D01*
X89574207Y-105976109D01*
X89623707Y-105940145D01*
X89654300Y-105935300D01*
X90419713Y-105935300D01*
X90457598Y-105942836D01*
X90536325Y-105975445D01*
X90563389Y-105986655D01*
X90690301Y-106011900D01*
X90690302Y-106011900D01*
X93109694Y-106011900D01*
X93109699Y-106011900D01*
X93180162Y-105997883D01*
X93236610Y-105986656D01*
X93329829Y-105948043D01*
X93356159Y-105937137D01*
X93356159Y-105937136D01*
X93356161Y-105937136D01*
X93356162Y-105937135D01*
X93408773Y-105901982D01*
X93408773Y-105901981D01*
X93411877Y-105899907D01*
X93463749Y-105865248D01*
X93740248Y-105588749D01*
X93804827Y-105492099D01*
X93812137Y-105481159D01*
X93837780Y-105419250D01*
X93861656Y-105361610D01*
X93877852Y-105280185D01*
X93907749Y-105226802D01*
X93963314Y-105201186D01*
X93974950Y-105200500D01*
X94380500Y-105200500D01*
X94438691Y-105219407D01*
X94474655Y-105268907D01*
X94479500Y-105299500D01*
X94479500Y-105536520D01*
X94479501Y-105536523D01*
X94494352Y-105630299D01*
X94494354Y-105630304D01*
X94551950Y-105743342D01*
X94641658Y-105833050D01*
X94754696Y-105890646D01*
X94848481Y-105905500D01*
X94926495Y-105905499D01*
X94984685Y-105924406D01*
X95020649Y-105973905D01*
X95020650Y-106035091D01*
X94996499Y-106074502D01*
X94656899Y-106414103D01*
X94602382Y-106441881D01*
X94586895Y-106443100D01*
X94435298Y-106443100D01*
X94308392Y-106468343D01*
X94308386Y-106468345D01*
X94245276Y-106494487D01*
X94245275Y-106494487D01*
X94188844Y-106517861D01*
X94162350Y-106535564D01*
X94081254Y-106589749D01*
X93139747Y-107531256D01*
X93096877Y-107595419D01*
X93096876Y-107595421D01*
X93067864Y-107638838D01*
X93067863Y-107638840D01*
X93067863Y-107638841D01*
X93060913Y-107655620D01*
X93053963Y-107672399D01*
X93053963Y-107672400D01*
X93018344Y-107758388D01*
X93017413Y-107763074D01*
X93017410Y-107763084D01*
X92999735Y-107851936D01*
X92969838Y-107905320D01*
X92937234Y-107925379D01*
X92807670Y-107973702D01*
X92692458Y-108059950D01*
X92692450Y-108059958D01*
X92606202Y-108175170D01*
X92555910Y-108310011D01*
X92555908Y-108310022D01*
X92549500Y-108369629D01*
X92549500Y-108654570D01*
X92530593Y-108712761D01*
X92481093Y-108748725D01*
X92419907Y-108748725D01*
X92370407Y-108712761D01*
X92356346Y-108685163D01*
X92308423Y-108537673D01*
X92308421Y-108537670D01*
X92219096Y-108362357D01*
X92219092Y-108362351D01*
X92103450Y-108203185D01*
X91964314Y-108064049D01*
X91805148Y-107948407D01*
X91805142Y-107948403D01*
X91629833Y-107859080D01*
X91442706Y-107798279D01*
X91400000Y-107791514D01*
X91400000Y-108734488D01*
X91342993Y-108701575D01*
X91215826Y-108667500D01*
X91084174Y-108667500D01*
X90957007Y-108701575D01*
X90900000Y-108734488D01*
X90900000Y-107791514D01*
X90899999Y-107791514D01*
X90857293Y-107798279D01*
X90670166Y-107859080D01*
X90494857Y-107948403D01*
X90494851Y-107948407D01*
X90335685Y-108064049D01*
X90196549Y-108203185D01*
X90080907Y-108362351D01*
X90080903Y-108362357D01*
X89991578Y-108537670D01*
X89991576Y-108537673D01*
X89930779Y-108724785D01*
X89930778Y-108724789D01*
X89900257Y-108917500D01*
X90716988Y-108917500D01*
X90684075Y-108974507D01*
X90650000Y-109101674D01*
X90650000Y-109233326D01*
X90684075Y-109360493D01*
X90716988Y-109417500D01*
X89900257Y-109417500D01*
X89930778Y-109610210D01*
X89930779Y-109610214D01*
X89991576Y-109797326D01*
X89991578Y-109797329D01*
X90080903Y-109972642D01*
X90080907Y-109972648D01*
X90196549Y-110131814D01*
X90335685Y-110270950D01*
X90494851Y-110386592D01*
X90494857Y-110386596D01*
X90670166Y-110475919D01*
X90857295Y-110536722D01*
X90899999Y-110543485D01*
X90900000Y-110543484D01*
X90900000Y-109600512D01*
X90957007Y-109633425D01*
X91084174Y-109667500D01*
X91215826Y-109667500D01*
X91342993Y-109633425D01*
X91400000Y-109600512D01*
X91400000Y-110543485D01*
X91442704Y-110536722D01*
X91629833Y-110475919D01*
X91805142Y-110386596D01*
X91805148Y-110386592D01*
X91964314Y-110270950D01*
X92103450Y-110131814D01*
X92219092Y-109972648D01*
X92219096Y-109972642D01*
X92308419Y-109797333D01*
X92356345Y-109649834D01*
X92392309Y-109600334D01*
X92450500Y-109581427D01*
X92508691Y-109600334D01*
X92544655Y-109649834D01*
X92549500Y-109680427D01*
X92549500Y-109965366D01*
X92549500Y-109965369D01*
X92549501Y-109965372D01*
X92550283Y-109972642D01*
X92555908Y-110024980D01*
X92555909Y-110024985D01*
X92606202Y-110159829D01*
X92691001Y-110273105D01*
X92692454Y-110275046D01*
X92692457Y-110275048D01*
X92692458Y-110275049D01*
X92807670Y-110361297D01*
X92942511Y-110411589D01*
X92942512Y-110411589D01*
X92942517Y-110411591D01*
X93002127Y-110418000D01*
X94297872Y-110417999D01*
X94357483Y-110411591D01*
X94424907Y-110386443D01*
X94492329Y-110361297D01*
X94492329Y-110361296D01*
X94492331Y-110361296D01*
X94607546Y-110275046D01*
X94693796Y-110159831D01*
X94707267Y-110123715D01*
X94744089Y-110024988D01*
X94744090Y-110024985D01*
X94744091Y-110024983D01*
X94750500Y-109965373D01*
X94750499Y-108369628D01*
X94744091Y-108310017D01*
X94742063Y-108304579D01*
X94693797Y-108175170D01*
X94603303Y-108054286D01*
X94604550Y-108053352D01*
X94580520Y-108006189D01*
X94590091Y-107945757D01*
X94608298Y-107920698D01*
X94652713Y-107876284D01*
X94743101Y-107785896D01*
X94797617Y-107758119D01*
X94813104Y-107756900D01*
X94964694Y-107756900D01*
X94964699Y-107756900D01*
X95035162Y-107742883D01*
X95091610Y-107731656D01*
X95169349Y-107699455D01*
X95211159Y-107682137D01*
X95275954Y-107638842D01*
X95275955Y-107638842D01*
X95318743Y-107610252D01*
X95318742Y-107610252D01*
X95318749Y-107610248D01*
X95803996Y-107125001D01*
X96925000Y-107125001D01*
X96925000Y-107163105D01*
X96927788Y-107198546D01*
X96927790Y-107198552D01*
X96971845Y-107350189D01*
X97052227Y-107486109D01*
X97163890Y-107597772D01*
X97299810Y-107678154D01*
X97451447Y-107722209D01*
X97451453Y-107722211D01*
X97486894Y-107725000D01*
X97549999Y-107725000D01*
X97550000Y-107724999D01*
X97550000Y-107125001D01*
X97549999Y-107125000D01*
X96925001Y-107125000D01*
X96925000Y-107125001D01*
X95803996Y-107125001D01*
X96215248Y-106713749D01*
X96262513Y-106643011D01*
X96287137Y-106606159D01*
X96317299Y-106533342D01*
X96336656Y-106486610D01*
X96347883Y-106430162D01*
X96361900Y-106359699D01*
X96361900Y-106110900D01*
X96380807Y-106052709D01*
X96430307Y-106016745D01*
X96460900Y-106011900D01*
X97065210Y-106011900D01*
X97123401Y-106030807D01*
X97159365Y-106080307D01*
X97159365Y-106141493D01*
X97135214Y-106180904D01*
X97052227Y-106263890D01*
X96971845Y-106399810D01*
X96927790Y-106551447D01*
X96927788Y-106551453D01*
X96925000Y-106586894D01*
X96925000Y-106624999D01*
X96925001Y-106625000D01*
X97951000Y-106625000D01*
X98009191Y-106643907D01*
X98045155Y-106693407D01*
X98050000Y-106724000D01*
X98050000Y-107724999D01*
X98050001Y-107725000D01*
X98113106Y-107725000D01*
X98148546Y-107722211D01*
X98148552Y-107722209D01*
X98300191Y-107678154D01*
X98321503Y-107665550D01*
X98381214Y-107652201D01*
X98437368Y-107676499D01*
X98468515Y-107729164D01*
X98470900Y-107750762D01*
X98470900Y-109626069D01*
X98451993Y-109684260D01*
X98441904Y-109696073D01*
X98126581Y-110011396D01*
X98072064Y-110039173D01*
X98011632Y-110029602D01*
X97986576Y-110011398D01*
X97912102Y-109936924D01*
X97796518Y-109880418D01*
X97721582Y-109869500D01*
X97278418Y-109869500D01*
X97207923Y-109879771D01*
X97203482Y-109880418D01*
X97087899Y-109936923D01*
X96996923Y-110027899D01*
X96948529Y-110126890D01*
X96940418Y-110143482D01*
X96929500Y-110218418D01*
X96929500Y-110561582D01*
X96940418Y-110636518D01*
X96996924Y-110752102D01*
X97074820Y-110829998D01*
X97102596Y-110884513D01*
X97093025Y-110944945D01*
X97074821Y-110970000D01*
X96996924Y-111047898D01*
X96996923Y-111047899D01*
X96940418Y-111163482D01*
X96929500Y-111238418D01*
X96929500Y-111581582D01*
X96940418Y-111656518D01*
X96996924Y-111772102D01*
X97043303Y-111818481D01*
X97071079Y-111872996D01*
X97061508Y-111933428D01*
X97020749Y-111975370D01*
X97016554Y-111977660D01*
X96908531Y-112058525D01*
X96908525Y-112058531D01*
X96827662Y-112166551D01*
X96780510Y-112292972D01*
X96780508Y-112292983D01*
X96774500Y-112348873D01*
X96774500Y-112876126D01*
X96774499Y-112876126D01*
X96780508Y-112932016D01*
X96780510Y-112932027D01*
X96827662Y-113058448D01*
X96899182Y-113153987D01*
X96908528Y-113166472D01*
X96908531Y-113166474D01*
X97016551Y-113247337D01*
X97142972Y-113294489D01*
X97142973Y-113294489D01*
X97142978Y-113294491D01*
X97198870Y-113300500D01*
X97198874Y-113300500D01*
X97801126Y-113300500D01*
X97801130Y-113300500D01*
X97857022Y-113294491D01*
X97900918Y-113278118D01*
X97983448Y-113247337D01*
X97983448Y-113247336D01*
X97983450Y-113247336D01*
X98091472Y-113166472D01*
X98172336Y-113058450D01*
X98204911Y-112971110D01*
X98242959Y-112923199D01*
X98301906Y-112906800D01*
X98359234Y-112928181D01*
X98390426Y-112971112D01*
X98427663Y-113070949D01*
X98499168Y-113166468D01*
X98508528Y-113178972D01*
X98508531Y-113178974D01*
X98616551Y-113259837D01*
X98742972Y-113306989D01*
X98742973Y-113306989D01*
X98742978Y-113306991D01*
X98798870Y-113313000D01*
X98798874Y-113313000D01*
X99401126Y-113313000D01*
X99401130Y-113313000D01*
X99457022Y-113306991D01*
X99507569Y-113288138D01*
X99583448Y-113259837D01*
X99583448Y-113259836D01*
X99583450Y-113259836D01*
X99691472Y-113178972D01*
X99772336Y-113070950D01*
X99819491Y-112944522D01*
X99825500Y-112888630D01*
X99825500Y-112361370D01*
X99819491Y-112305478D01*
X99804911Y-112266386D01*
X99772337Y-112179051D01*
X99691474Y-112071031D01*
X99691472Y-112071028D01*
X99583450Y-111990164D01*
X99583446Y-111990161D01*
X99583447Y-111990161D01*
X99583244Y-111990086D01*
X99583102Y-111989973D01*
X99577234Y-111986769D01*
X99577788Y-111985752D01*
X99535334Y-111952030D01*
X99518943Y-111893081D01*
X99540332Y-111835755D01*
X99547840Y-111827337D01*
X99603076Y-111772102D01*
X99659582Y-111656518D01*
X99670500Y-111581582D01*
X99670500Y-111238418D01*
X99659582Y-111163482D01*
X99603076Y-111047898D01*
X99525179Y-110970001D01*
X99497404Y-110915487D01*
X99506975Y-110855055D01*
X99525178Y-110829999D01*
X99603076Y-110752102D01*
X99659582Y-110636518D01*
X99670500Y-110561582D01*
X99670500Y-110218418D01*
X99659582Y-110143482D01*
X99603076Y-110027898D01*
X99512102Y-109936924D01*
X99482218Y-109922314D01*
X99438245Y-109879771D01*
X99426700Y-109833374D01*
X99426700Y-106042030D01*
X99445607Y-105983839D01*
X99495107Y-105947875D01*
X99556293Y-105947875D01*
X99604585Y-105982213D01*
X99612430Y-105992559D01*
X99612435Y-105992564D01*
X99732904Y-106083919D01*
X99873556Y-106139386D01*
X99905000Y-106143161D01*
X99905000Y-103406836D01*
X99904999Y-103406836D01*
X99873560Y-103410612D01*
X99732904Y-103466080D01*
X99612435Y-103557435D01*
X99521080Y-103677904D01*
X99465614Y-103818556D01*
X99459337Y-103870819D01*
X99433625Y-103926340D01*
X99380189Y-103956144D01*
X99319441Y-103948848D01*
X99291042Y-103929019D01*
X97915598Y-102553575D01*
X97865530Y-102524668D01*
X97841104Y-102510565D01*
X97841103Y-102510564D01*
X97841102Y-102510564D01*
X97758011Y-102488300D01*
X97758009Y-102488300D01*
X96950125Y-102488300D01*
X96891934Y-102469393D01*
X96861916Y-102434246D01*
X96858050Y-102426658D01*
X96802293Y-102370901D01*
X96774518Y-102316387D01*
X96784089Y-102255955D01*
X96827354Y-102212690D01*
X96872299Y-102201900D01*
X97790417Y-102201900D01*
X97809730Y-102203801D01*
X97825301Y-102206899D01*
X97825303Y-102206899D01*
X97954697Y-102206899D01*
X97954699Y-102206899D01*
X98081610Y-102181656D01*
X98201158Y-102132137D01*
X98258729Y-102093668D01*
X98317618Y-102077060D01*
X98375021Y-102098238D01*
X98392616Y-102116166D01*
X98393139Y-102116856D01*
X98393144Y-102116861D01*
X98510324Y-102205721D01*
X98647141Y-102259674D01*
X98660000Y-102261218D01*
X98660000Y-101800001D01*
X99160000Y-101800001D01*
X99160000Y-102261218D01*
X99172857Y-102259674D01*
X99172860Y-102259674D01*
X99309675Y-102205721D01*
X99426855Y-102116861D01*
X99426861Y-102116855D01*
X99515720Y-101999676D01*
X99569674Y-101862858D01*
X99577224Y-101800000D01*
X99160001Y-101800000D01*
X99160000Y-101800001D01*
X98660000Y-101800001D01*
X98660000Y-101399000D01*
X98678907Y-101340809D01*
X98728407Y-101304845D01*
X98759000Y-101300000D01*
X99577223Y-101300000D01*
X99569674Y-101237141D01*
X99515720Y-101100323D01*
X99426861Y-100983144D01*
X99426855Y-100983138D01*
X99309676Y-100894279D01*
X99172858Y-100840325D01*
X99086878Y-100829999D01*
X99086690Y-100829988D01*
X99086648Y-100829971D01*
X99083945Y-100829647D01*
X99084029Y-100828943D01*
X99029735Y-100807632D01*
X98996797Y-100756069D01*
X98999855Y-100696572D01*
X99044412Y-100577114D01*
X99050500Y-100520485D01*
X99050499Y-99979516D01*
X99044412Y-99922886D01*
X98996628Y-99794774D01*
X98914687Y-99685313D01*
X98857614Y-99642589D01*
X98805228Y-99603373D01*
X98805226Y-99603372D01*
X98677114Y-99555588D01*
X98677113Y-99555587D01*
X98638895Y-99551479D01*
X98620485Y-99549500D01*
X98620481Y-99549500D01*
X97779521Y-99549500D01*
X97779515Y-99549501D01*
X97722888Y-99555587D01*
X97722886Y-99555588D01*
X97594771Y-99603373D01*
X97591763Y-99605016D01*
X97588954Y-99605543D01*
X97588140Y-99605847D01*
X97588087Y-99605706D01*
X97531628Y-99616305D01*
X97476342Y-99590091D01*
X97447024Y-99536387D01*
X97446174Y-99531065D01*
X97436330Y-99456291D01*
X97380861Y-99322375D01*
X97292621Y-99207379D01*
X97177625Y-99119139D01*
X97177621Y-99119137D01*
X97043709Y-99063670D01*
X97043708Y-99063669D01*
X96900000Y-99044750D01*
X96899999Y-99044750D01*
X96804266Y-99057353D01*
X96744105Y-99046203D01*
X96701988Y-99001820D01*
X96693563Y-98974688D01*
X96685646Y-98924696D01*
X96628050Y-98811658D01*
X96538342Y-98721950D01*
X96425304Y-98664354D01*
X96425305Y-98664354D01*
X96331522Y-98649500D01*
X95968479Y-98649500D01*
X95968476Y-98649501D01*
X95874700Y-98664352D01*
X95874697Y-98664353D01*
X95828266Y-98688011D01*
X95767833Y-98697582D01*
X95713317Y-98669804D01*
X95685540Y-98615287D01*
X95695111Y-98554856D01*
X95735646Y-98475304D01*
X95747193Y-98402401D01*
X95750500Y-98381521D01*
X95750500Y-98315200D01*
X95769407Y-98257009D01*
X95818907Y-98221045D01*
X95849500Y-98216200D01*
X96297229Y-98216200D01*
X96297231Y-98216200D01*
X96412622Y-98185281D01*
X96466047Y-98154436D01*
X96516078Y-98125551D01*
X97208933Y-97432696D01*
X97263450Y-97404919D01*
X97278937Y-97403700D01*
X97352674Y-97403700D01*
X97410865Y-97422607D01*
G37*
G04 #@! TD.AperFunction*
G04 #@! TA.AperFunction,Conductor*
G36*
X116758691Y-71068907D02*
G01*
X116794655Y-71118407D01*
X116799500Y-71149000D01*
X116799500Y-74495331D01*
X116786205Y-74536247D01*
X116799500Y-74584668D01*
X116799500Y-77035331D01*
X116786205Y-77076247D01*
X116799500Y-77124668D01*
X116799500Y-79575331D01*
X116786205Y-79616247D01*
X116799500Y-79664668D01*
X116799500Y-82115331D01*
X116786205Y-82156247D01*
X116799500Y-82204668D01*
X116799500Y-84655331D01*
X116786205Y-84696247D01*
X116799500Y-84744668D01*
X116799500Y-87195331D01*
X116786205Y-87236247D01*
X116799500Y-87284668D01*
X116799500Y-89735331D01*
X116786205Y-89776247D01*
X116799500Y-89824668D01*
X116799500Y-92275331D01*
X116786205Y-92316247D01*
X116799500Y-92364668D01*
X116799500Y-94815331D01*
X116786205Y-94856247D01*
X116799500Y-94904668D01*
X116799500Y-97355331D01*
X116786205Y-97396247D01*
X116799500Y-97444668D01*
X116799500Y-99895331D01*
X116786205Y-99936247D01*
X116799500Y-99984668D01*
X116799500Y-102435331D01*
X116786205Y-102476247D01*
X116799500Y-102524668D01*
X116799500Y-104975331D01*
X116786205Y-105016247D01*
X116799500Y-105064668D01*
X116799500Y-106942473D01*
X116780593Y-107000664D01*
X116731093Y-107036628D01*
X116669907Y-107036628D01*
X116620407Y-107000664D01*
X116610776Y-106984313D01*
X116586670Y-106932619D01*
X116586668Y-106932615D01*
X116461216Y-106753450D01*
X116306549Y-106598783D01*
X116127386Y-106473332D01*
X115929157Y-106380897D01*
X115717881Y-106324286D01*
X115616836Y-106315446D01*
X115560515Y-106291539D01*
X115529002Y-106239093D01*
X115534335Y-106178140D01*
X115574477Y-106131963D01*
X115607270Y-106119510D01*
X115802456Y-106083024D01*
X115992637Y-106009348D01*
X116166041Y-105901981D01*
X116316764Y-105764579D01*
X116439673Y-105601821D01*
X116530582Y-105419250D01*
X116586397Y-105223083D01*
X116601922Y-105055531D01*
X116616202Y-105022364D01*
X116601922Y-104984466D01*
X116598305Y-104945429D01*
X116586397Y-104816917D01*
X116530582Y-104620750D01*
X116439673Y-104438179D01*
X116316764Y-104275421D01*
X116166041Y-104138019D01*
X115992637Y-104030652D01*
X115802456Y-103956976D01*
X115802455Y-103956975D01*
X115802453Y-103956975D01*
X115601976Y-103919500D01*
X115398024Y-103919500D01*
X115197544Y-103956975D01*
X115042512Y-104017034D01*
X114981421Y-104020424D01*
X114936746Y-103994723D01*
X112755696Y-101813673D01*
X112727919Y-101759156D01*
X112726700Y-101743669D01*
X112726700Y-100407731D01*
X112745607Y-100349540D01*
X112795107Y-100313576D01*
X112856293Y-100313576D01*
X112895703Y-100337726D01*
X113705110Y-101147134D01*
X114475330Y-101917354D01*
X114503107Y-101971871D01*
X114493948Y-102031485D01*
X114486670Y-102046102D01*
X114469418Y-102080750D01*
X114413603Y-102276917D01*
X114394785Y-102480000D01*
X114413603Y-102683083D01*
X114469418Y-102879250D01*
X114560327Y-103061821D01*
X114683236Y-103224579D01*
X114833959Y-103361981D01*
X115007363Y-103469348D01*
X115197544Y-103543024D01*
X115398024Y-103580500D01*
X115601976Y-103580500D01*
X115802456Y-103543024D01*
X115992637Y-103469348D01*
X116166041Y-103361981D01*
X116316764Y-103224579D01*
X116439673Y-103061821D01*
X116530582Y-102879250D01*
X116586397Y-102683083D01*
X116601922Y-102515531D01*
X116616202Y-102482364D01*
X116601922Y-102444466D01*
X116600272Y-102426658D01*
X116586397Y-102276917D01*
X116530582Y-102080750D01*
X116439673Y-101898179D01*
X116316764Y-101735421D01*
X116166041Y-101598019D01*
X115992637Y-101490652D01*
X115802456Y-101416976D01*
X115802455Y-101416975D01*
X115802453Y-101416975D01*
X115601976Y-101379500D01*
X115398024Y-101379500D01*
X115197544Y-101416975D01*
X115042513Y-101477034D01*
X114981422Y-101480424D01*
X114936747Y-101454723D01*
X113255696Y-99773672D01*
X113227919Y-99719155D01*
X113226700Y-99703668D01*
X113226700Y-98856990D01*
X113226700Y-98856989D01*
X113204436Y-98773899D01*
X113202185Y-98770001D01*
X113182352Y-98735646D01*
X113182352Y-98735647D01*
X113169383Y-98713185D01*
X113161425Y-98699401D01*
X111300598Y-96838575D01*
X111298481Y-96837353D01*
X111226104Y-96795565D01*
X111226103Y-96795564D01*
X111226102Y-96795564D01*
X111143011Y-96773300D01*
X111143009Y-96773300D01*
X109576331Y-96773300D01*
X109518140Y-96754393D01*
X109506327Y-96744304D01*
X108055696Y-95293673D01*
X108027919Y-95239156D01*
X108026700Y-95223669D01*
X108026700Y-94741872D01*
X108045607Y-94683681D01*
X108095107Y-94647717D01*
X108138618Y-94643719D01*
X108226200Y-94655250D01*
X108265758Y-94650041D01*
X108325917Y-94661190D01*
X108360996Y-94693194D01*
X108419395Y-94780597D01*
X108419399Y-94780601D01*
X108502260Y-94835966D01*
X108552236Y-94845907D01*
X108575315Y-94850498D01*
X108575320Y-94850498D01*
X108575326Y-94850500D01*
X108575327Y-94850500D01*
X109524673Y-94850500D01*
X109524674Y-94850500D01*
X109597740Y-94835966D01*
X109680601Y-94780601D01*
X109692878Y-94762227D01*
X109740927Y-94724346D01*
X109802065Y-94721942D01*
X109845198Y-94747221D01*
X112162328Y-97064352D01*
X114475330Y-99377354D01*
X114503107Y-99431871D01*
X114493948Y-99491485D01*
X114471590Y-99536387D01*
X114469418Y-99540750D01*
X114413603Y-99736917D01*
X114394785Y-99940000D01*
X114413603Y-100143083D01*
X114469418Y-100339250D01*
X114560327Y-100521821D01*
X114683236Y-100684579D01*
X114833959Y-100821981D01*
X115007363Y-100929348D01*
X115197544Y-101003024D01*
X115398024Y-101040500D01*
X115601976Y-101040500D01*
X115802456Y-101003024D01*
X115992637Y-100929348D01*
X116166041Y-100821981D01*
X116316764Y-100684579D01*
X116439673Y-100521821D01*
X116530582Y-100339250D01*
X116586397Y-100143083D01*
X116601922Y-99975531D01*
X116616202Y-99942364D01*
X116601922Y-99904466D01*
X116601076Y-99895331D01*
X116586397Y-99736917D01*
X116530582Y-99540750D01*
X116439673Y-99358179D01*
X116316764Y-99195421D01*
X116166041Y-99058019D01*
X115992637Y-98950652D01*
X115802456Y-98876976D01*
X115802455Y-98876975D01*
X115802453Y-98876975D01*
X115601976Y-98839500D01*
X115398024Y-98839500D01*
X115197544Y-98876975D01*
X115042513Y-98937034D01*
X114981422Y-98940424D01*
X114936747Y-98914723D01*
X113670604Y-97648580D01*
X109860598Y-93838575D01*
X109860595Y-93838573D01*
X109799999Y-93803587D01*
X109759059Y-93758117D01*
X109750500Y-93717851D01*
X109750500Y-93575327D01*
X109750498Y-93575315D01*
X109744072Y-93543011D01*
X109735966Y-93502260D01*
X109710982Y-93464868D01*
X109694374Y-93405980D01*
X109715552Y-93348576D01*
X109735113Y-93329770D01*
X109738044Y-93327640D01*
X109827641Y-93238043D01*
X109885163Y-93125151D01*
X109885164Y-93125147D01*
X109900000Y-93031484D01*
X109900000Y-92750001D01*
X109899999Y-92750000D01*
X108899000Y-92750000D01*
X108840809Y-92731093D01*
X108804845Y-92681593D01*
X108800000Y-92651000D01*
X108800000Y-91600001D01*
X109300000Y-91600001D01*
X109300000Y-92249999D01*
X109300001Y-92250000D01*
X109899998Y-92250000D01*
X109899999Y-92249999D01*
X109899999Y-91968516D01*
X109899998Y-91968514D01*
X109885166Y-91874858D01*
X109885163Y-91874848D01*
X109827641Y-91761956D01*
X109738043Y-91672358D01*
X109625151Y-91614836D01*
X109625147Y-91614835D01*
X109531484Y-91600000D01*
X109300001Y-91600000D01*
X109300000Y-91600001D01*
X108800000Y-91600001D01*
X108799999Y-91600000D01*
X108568521Y-91600000D01*
X108541185Y-91604330D01*
X108480753Y-91594757D01*
X108437489Y-91551491D01*
X108426700Y-91506548D01*
X108426700Y-91076330D01*
X108445607Y-91018139D01*
X108455690Y-91006332D01*
X109011425Y-90450598D01*
X109054436Y-90376102D01*
X109076700Y-90293011D01*
X109076700Y-90206989D01*
X109076700Y-89909500D01*
X109095607Y-89851309D01*
X109145107Y-89815345D01*
X109175700Y-89810500D01*
X109524673Y-89810500D01*
X109524674Y-89810500D01*
X109597740Y-89795966D01*
X109680601Y-89740601D01*
X109735966Y-89657740D01*
X109750500Y-89584674D01*
X109750500Y-88635326D01*
X109735966Y-88562260D01*
X109714411Y-88530000D01*
X109697803Y-88471114D01*
X109714412Y-88419998D01*
X109735966Y-88387740D01*
X109750500Y-88314674D01*
X109750500Y-88265700D01*
X109769407Y-88207509D01*
X109818907Y-88171545D01*
X109849500Y-88166700D01*
X110563669Y-88166700D01*
X110621860Y-88185607D01*
X110633673Y-88195696D01*
X111444304Y-89006327D01*
X111472081Y-89060844D01*
X111473300Y-89076331D01*
X111473300Y-90456989D01*
X111473300Y-90543011D01*
X111476699Y-90555696D01*
X111495565Y-90626104D01*
X111537885Y-90699404D01*
X111538575Y-90700598D01*
X112744305Y-91906328D01*
X112772081Y-91960843D01*
X112773300Y-91976330D01*
X112773300Y-93456989D01*
X112773300Y-93543011D01*
X112795564Y-93626102D01*
X112795565Y-93626104D01*
X112823391Y-93674300D01*
X112838575Y-93700598D01*
X113544305Y-94406328D01*
X113572081Y-94460843D01*
X113573300Y-94476330D01*
X113573300Y-95756989D01*
X113573300Y-95843011D01*
X113595564Y-95926102D01*
X113595565Y-95926104D01*
X113631224Y-95987867D01*
X113638575Y-96000598D01*
X114061509Y-96423532D01*
X114475330Y-96837353D01*
X114503107Y-96891870D01*
X114493948Y-96951483D01*
X114469419Y-97000744D01*
X114419460Y-97176331D01*
X114413603Y-97196917D01*
X114394785Y-97400000D01*
X114413603Y-97603083D01*
X114469418Y-97799250D01*
X114560327Y-97981821D01*
X114683236Y-98144579D01*
X114833959Y-98281981D01*
X115007363Y-98389348D01*
X115197544Y-98463024D01*
X115398024Y-98500500D01*
X115601976Y-98500500D01*
X115802456Y-98463024D01*
X115992637Y-98389348D01*
X116166041Y-98281981D01*
X116316764Y-98144579D01*
X116439673Y-97981821D01*
X116530582Y-97799250D01*
X116586397Y-97603083D01*
X116601922Y-97435531D01*
X116616202Y-97402364D01*
X116601922Y-97364466D01*
X116586397Y-97196917D01*
X116530582Y-97000750D01*
X116439673Y-96818179D01*
X116316764Y-96655421D01*
X116166041Y-96518019D01*
X115992637Y-96410652D01*
X115802456Y-96336976D01*
X115802455Y-96336975D01*
X115802453Y-96336975D01*
X115601976Y-96299500D01*
X115398024Y-96299500D01*
X115197544Y-96336975D01*
X115042512Y-96397034D01*
X114981421Y-96400424D01*
X114936746Y-96374723D01*
X114255696Y-95693673D01*
X114227919Y-95639156D01*
X114226700Y-95623669D01*
X114226700Y-95115893D01*
X114245607Y-95057702D01*
X114295107Y-95021738D01*
X114356293Y-95021738D01*
X114405793Y-95057702D01*
X114420919Y-95088796D01*
X114469418Y-95259250D01*
X114560327Y-95441821D01*
X114683236Y-95604579D01*
X114833959Y-95741981D01*
X115007363Y-95849348D01*
X115197544Y-95923024D01*
X115398024Y-95960500D01*
X115601976Y-95960500D01*
X115802456Y-95923024D01*
X115992637Y-95849348D01*
X116166041Y-95741981D01*
X116316764Y-95604579D01*
X116439673Y-95441821D01*
X116530582Y-95259250D01*
X116586397Y-95063083D01*
X116601922Y-94895531D01*
X116616202Y-94862364D01*
X116601922Y-94824466D01*
X116586397Y-94656917D01*
X116530582Y-94460750D01*
X116439673Y-94278179D01*
X116316764Y-94115421D01*
X116166041Y-93978019D01*
X115992637Y-93870652D01*
X115802456Y-93796976D01*
X115802455Y-93796975D01*
X115802453Y-93796975D01*
X115601976Y-93759500D01*
X115398024Y-93759500D01*
X115197544Y-93796975D01*
X115042513Y-93857034D01*
X114981422Y-93860424D01*
X114936747Y-93834723D01*
X114055696Y-92953672D01*
X114027919Y-92899155D01*
X114026700Y-92883668D01*
X114026700Y-91547732D01*
X114045607Y-91489541D01*
X114095107Y-91453577D01*
X114156293Y-91453577D01*
X114195704Y-91477728D01*
X114475330Y-91757354D01*
X114503107Y-91811871D01*
X114493948Y-91871485D01*
X114469419Y-91920747D01*
X114469418Y-91920750D01*
X114413603Y-92116917D01*
X114394785Y-92320000D01*
X114413603Y-92523083D01*
X114469418Y-92719250D01*
X114560327Y-92901821D01*
X114683236Y-93064579D01*
X114833959Y-93201981D01*
X115007363Y-93309348D01*
X115197544Y-93383024D01*
X115398024Y-93420500D01*
X115601976Y-93420500D01*
X115802456Y-93383024D01*
X115992637Y-93309348D01*
X116166041Y-93201981D01*
X116316764Y-93064579D01*
X116439673Y-92901821D01*
X116530582Y-92719250D01*
X116586397Y-92523083D01*
X116601922Y-92355531D01*
X116616202Y-92322364D01*
X116601922Y-92284466D01*
X116601076Y-92275331D01*
X116586397Y-92116917D01*
X116530582Y-91920750D01*
X116439673Y-91738179D01*
X116316764Y-91575421D01*
X116166041Y-91438019D01*
X115992637Y-91330652D01*
X115802456Y-91256976D01*
X115802455Y-91256975D01*
X115802453Y-91256975D01*
X115601976Y-91219500D01*
X115398024Y-91219500D01*
X115197544Y-91256975D01*
X115042513Y-91317034D01*
X114981422Y-91320424D01*
X114936747Y-91294723D01*
X113255696Y-89613672D01*
X113227919Y-89559155D01*
X113226700Y-89543668D01*
X113226700Y-88207730D01*
X113245607Y-88149539D01*
X113295107Y-88113575D01*
X113356293Y-88113575D01*
X113395701Y-88137724D01*
X114264303Y-89006327D01*
X114475330Y-89217354D01*
X114503107Y-89271871D01*
X114493948Y-89331485D01*
X114472761Y-89374036D01*
X114469418Y-89380750D01*
X114413603Y-89576917D01*
X114394785Y-89780000D01*
X114413603Y-89983083D01*
X114469418Y-90179250D01*
X114560327Y-90361821D01*
X114683236Y-90524579D01*
X114833959Y-90661981D01*
X115007363Y-90769348D01*
X115197544Y-90843024D01*
X115398024Y-90880500D01*
X115601976Y-90880500D01*
X115802456Y-90843024D01*
X115992637Y-90769348D01*
X116166041Y-90661981D01*
X116316764Y-90524579D01*
X116439673Y-90361821D01*
X116530582Y-90179250D01*
X116586397Y-89983083D01*
X116601922Y-89815531D01*
X116616202Y-89782364D01*
X116601922Y-89744466D01*
X116599590Y-89719300D01*
X116586397Y-89576917D01*
X116530582Y-89380750D01*
X116439673Y-89198179D01*
X116316764Y-89035421D01*
X116166041Y-88898019D01*
X115992637Y-88790652D01*
X115802456Y-88716976D01*
X115802455Y-88716975D01*
X115802453Y-88716975D01*
X115601976Y-88679500D01*
X115398024Y-88679500D01*
X115197544Y-88716975D01*
X115042513Y-88777034D01*
X114981422Y-88780424D01*
X114936747Y-88754723D01*
X113855696Y-87673672D01*
X113827919Y-87619155D01*
X113826700Y-87603668D01*
X113826700Y-86267731D01*
X113845607Y-86209540D01*
X113895107Y-86173576D01*
X113956293Y-86173576D01*
X113995704Y-86197728D01*
X114475330Y-86677355D01*
X114503107Y-86731871D01*
X114493948Y-86791485D01*
X114469419Y-86840747D01*
X114469418Y-86840750D01*
X114413603Y-87036917D01*
X114394785Y-87240000D01*
X114413603Y-87443083D01*
X114469418Y-87639250D01*
X114560327Y-87821821D01*
X114683236Y-87984579D01*
X114833959Y-88121981D01*
X115007363Y-88229348D01*
X115197544Y-88303024D01*
X115398024Y-88340500D01*
X115601976Y-88340500D01*
X115802456Y-88303024D01*
X115992637Y-88229348D01*
X116166041Y-88121981D01*
X116316764Y-87984579D01*
X116439673Y-87821821D01*
X116530582Y-87639250D01*
X116586397Y-87443083D01*
X116601922Y-87275531D01*
X116616202Y-87242364D01*
X116601922Y-87204466D01*
X116586397Y-87036917D01*
X116530582Y-86840750D01*
X116439673Y-86658179D01*
X116316764Y-86495421D01*
X116166041Y-86358019D01*
X115992637Y-86250652D01*
X115802456Y-86176976D01*
X115802455Y-86176975D01*
X115802453Y-86176975D01*
X115601976Y-86139500D01*
X115398024Y-86139500D01*
X115197544Y-86176975D01*
X115042513Y-86237034D01*
X114981422Y-86240424D01*
X114936747Y-86214723D01*
X114355696Y-85633672D01*
X114327919Y-85579155D01*
X114326700Y-85563668D01*
X114326700Y-85233555D01*
X114345607Y-85175364D01*
X114395107Y-85139400D01*
X114456293Y-85139400D01*
X114505793Y-85175364D01*
X114514321Y-85189427D01*
X114560323Y-85281814D01*
X114560325Y-85281818D01*
X114560327Y-85281821D01*
X114683236Y-85444579D01*
X114833959Y-85581981D01*
X115007363Y-85689348D01*
X115197544Y-85763024D01*
X115398024Y-85800500D01*
X115601976Y-85800500D01*
X115802456Y-85763024D01*
X115992637Y-85689348D01*
X116166041Y-85581981D01*
X116316764Y-85444579D01*
X116439673Y-85281821D01*
X116530582Y-85099250D01*
X116586397Y-84903083D01*
X116601922Y-84735531D01*
X116616202Y-84702364D01*
X116601922Y-84664466D01*
X116586397Y-84496917D01*
X116530582Y-84300750D01*
X116439673Y-84118179D01*
X116316764Y-83955421D01*
X116166041Y-83818019D01*
X115992637Y-83710652D01*
X115802456Y-83636976D01*
X115802455Y-83636975D01*
X115802453Y-83636975D01*
X115601976Y-83599500D01*
X115398024Y-83599500D01*
X115197544Y-83636975D01*
X115042512Y-83697034D01*
X114981421Y-83700424D01*
X114936746Y-83674723D01*
X113717587Y-82455564D01*
X112490598Y-81228575D01*
X112430164Y-81193683D01*
X112416104Y-81185565D01*
X112416103Y-81185564D01*
X112416102Y-81185564D01*
X112333011Y-81163300D01*
X112333009Y-81163300D01*
X109849500Y-81163300D01*
X109791309Y-81144393D01*
X109755345Y-81094893D01*
X109750500Y-81064300D01*
X109750500Y-81015327D01*
X109750498Y-81015315D01*
X109747015Y-80997808D01*
X109735966Y-80942260D01*
X109714411Y-80910000D01*
X109697803Y-80851114D01*
X109714412Y-80799998D01*
X109722784Y-80787468D01*
X109735966Y-80767740D01*
X109750500Y-80694674D01*
X109750500Y-79745326D01*
X109735966Y-79672260D01*
X109714411Y-79640000D01*
X109697803Y-79581114D01*
X109714412Y-79529998D01*
X109735966Y-79497740D01*
X109750500Y-79424674D01*
X109750500Y-79375700D01*
X109769407Y-79317509D01*
X109818907Y-79281545D01*
X109849500Y-79276700D01*
X112113669Y-79276700D01*
X112171860Y-79295607D01*
X112183673Y-79305696D01*
X114475330Y-81597353D01*
X114503107Y-81651870D01*
X114493948Y-81711483D01*
X114469419Y-81760744D01*
X114452120Y-81821545D01*
X114413603Y-81956917D01*
X114394785Y-82160000D01*
X114413603Y-82363083D01*
X114469418Y-82559250D01*
X114560327Y-82741821D01*
X114683236Y-82904579D01*
X114833959Y-83041981D01*
X115007363Y-83149348D01*
X115197544Y-83223024D01*
X115398024Y-83260500D01*
X115601976Y-83260500D01*
X115802456Y-83223024D01*
X115992637Y-83149348D01*
X116166041Y-83041981D01*
X116316764Y-82904579D01*
X116439673Y-82741821D01*
X116530582Y-82559250D01*
X116586397Y-82363083D01*
X116601922Y-82195531D01*
X116616202Y-82162364D01*
X116601922Y-82124466D01*
X116586397Y-81956917D01*
X116530582Y-81760750D01*
X116439673Y-81578179D01*
X116316764Y-81415421D01*
X116166041Y-81278019D01*
X115992637Y-81170652D01*
X115802456Y-81096976D01*
X115802455Y-81096975D01*
X115802453Y-81096975D01*
X115601976Y-81059500D01*
X115398024Y-81059500D01*
X115197544Y-81096975D01*
X115042512Y-81157034D01*
X114981421Y-81160424D01*
X114936746Y-81134723D01*
X113771860Y-79969837D01*
X112490598Y-78688575D01*
X112416102Y-78645564D01*
X112333011Y-78623300D01*
X112333009Y-78623300D01*
X109849500Y-78623300D01*
X109791309Y-78604393D01*
X109755345Y-78554893D01*
X109750500Y-78524300D01*
X109750500Y-78475327D01*
X109750498Y-78475315D01*
X109741648Y-78430827D01*
X109735966Y-78402260D01*
X109714411Y-78370000D01*
X109697803Y-78311114D01*
X109714412Y-78259998D01*
X109732179Y-78233407D01*
X109735966Y-78227740D01*
X109750500Y-78154674D01*
X109750500Y-78105700D01*
X109769407Y-78047509D01*
X109818907Y-78011545D01*
X109849500Y-78006700D01*
X113383669Y-78006700D01*
X113441860Y-78025607D01*
X113453673Y-78035696D01*
X114475330Y-79057354D01*
X114503107Y-79111871D01*
X114493948Y-79171485D01*
X114474061Y-79211425D01*
X114469418Y-79220750D01*
X114413603Y-79416917D01*
X114394785Y-79620000D01*
X114413603Y-79823083D01*
X114469418Y-80019250D01*
X114560327Y-80201821D01*
X114683236Y-80364579D01*
X114833959Y-80501981D01*
X115007363Y-80609348D01*
X115197544Y-80683024D01*
X115398024Y-80720500D01*
X115601976Y-80720500D01*
X115802456Y-80683024D01*
X115992637Y-80609348D01*
X116166041Y-80501981D01*
X116316764Y-80364579D01*
X116439673Y-80201821D01*
X116530582Y-80019250D01*
X116586397Y-79823083D01*
X116601922Y-79655531D01*
X116616202Y-79622364D01*
X116601922Y-79584466D01*
X116586397Y-79416917D01*
X116530582Y-79220750D01*
X116439673Y-79038179D01*
X116316764Y-78875421D01*
X116166041Y-78738019D01*
X115992637Y-78630652D01*
X115802456Y-78556976D01*
X115802455Y-78556975D01*
X115802453Y-78556975D01*
X115601976Y-78519500D01*
X115398024Y-78519500D01*
X115197544Y-78556975D01*
X115042513Y-78617034D01*
X114981422Y-78620424D01*
X114936747Y-78594723D01*
X114652625Y-78310601D01*
X113760598Y-77418575D01*
X113686102Y-77375564D01*
X113603011Y-77353300D01*
X113603009Y-77353300D01*
X109849500Y-77353300D01*
X109791309Y-77334393D01*
X109755345Y-77284893D01*
X109750500Y-77254300D01*
X109750500Y-77205327D01*
X109750498Y-77205315D01*
X109747015Y-77187808D01*
X109735966Y-77132260D01*
X109714411Y-77100000D01*
X109697803Y-77041114D01*
X109714412Y-76989998D01*
X109735966Y-76957740D01*
X109750500Y-76884674D01*
X109750500Y-76835700D01*
X109769407Y-76777509D01*
X109818907Y-76741545D01*
X109849500Y-76736700D01*
X114322401Y-76736700D01*
X114380592Y-76755607D01*
X114416556Y-76805107D01*
X114417622Y-76862792D01*
X114413604Y-76876913D01*
X114413603Y-76876914D01*
X114397360Y-77052213D01*
X114394785Y-77080000D01*
X114413603Y-77283083D01*
X114469418Y-77479250D01*
X114560327Y-77661821D01*
X114683236Y-77824579D01*
X114833959Y-77961981D01*
X115007363Y-78069348D01*
X115197544Y-78143024D01*
X115398024Y-78180500D01*
X115601976Y-78180500D01*
X115802456Y-78143024D01*
X115992637Y-78069348D01*
X116166041Y-77961981D01*
X116316764Y-77824579D01*
X116439673Y-77661821D01*
X116530582Y-77479250D01*
X116586397Y-77283083D01*
X116601922Y-77115531D01*
X116616202Y-77082364D01*
X116601922Y-77044466D01*
X116586397Y-76876917D01*
X116530582Y-76680750D01*
X116439673Y-76498179D01*
X116316764Y-76335421D01*
X116166041Y-76198019D01*
X115992637Y-76090652D01*
X115802456Y-76016976D01*
X115802455Y-76016975D01*
X115802453Y-76016975D01*
X115601976Y-75979500D01*
X115398024Y-75979500D01*
X115197546Y-76016975D01*
X115007360Y-76090652D01*
X115003502Y-76092574D01*
X114942983Y-76101583D01*
X114933766Y-76099579D01*
X114873011Y-76083300D01*
X114873009Y-76083300D01*
X109849500Y-76083300D01*
X109791309Y-76064393D01*
X109755345Y-76014893D01*
X109750500Y-75984300D01*
X109750500Y-75935327D01*
X109750498Y-75935315D01*
X109736246Y-75863669D01*
X109735966Y-75862260D01*
X109714411Y-75830001D01*
X109697803Y-75771114D01*
X109714412Y-75719998D01*
X109735966Y-75687740D01*
X109750500Y-75614674D01*
X109750500Y-75565700D01*
X109769407Y-75507509D01*
X109818907Y-75471545D01*
X109849500Y-75466700D01*
X114856989Y-75466700D01*
X114878016Y-75466700D01*
X114930132Y-75481528D01*
X115007363Y-75529348D01*
X115197544Y-75603024D01*
X115398024Y-75640500D01*
X115601976Y-75640500D01*
X115802456Y-75603024D01*
X115992637Y-75529348D01*
X116166041Y-75421981D01*
X116316764Y-75284579D01*
X116439673Y-75121821D01*
X116530582Y-74939250D01*
X116586397Y-74743083D01*
X116601922Y-74575531D01*
X116616202Y-74542364D01*
X116601922Y-74504466D01*
X116586397Y-74336917D01*
X116530582Y-74140750D01*
X116439673Y-73958179D01*
X116316764Y-73795421D01*
X116166041Y-73658019D01*
X115992637Y-73550652D01*
X115802456Y-73476976D01*
X115802455Y-73476975D01*
X115802453Y-73476975D01*
X115601976Y-73439500D01*
X115398024Y-73439500D01*
X115197546Y-73476975D01*
X115127632Y-73504059D01*
X115007363Y-73550652D01*
X114833959Y-73658019D01*
X114683237Y-73795420D01*
X114560328Y-73958177D01*
X114560323Y-73958186D01*
X114469419Y-74140747D01*
X114469418Y-74140750D01*
X114413603Y-74336917D01*
X114394785Y-74540000D01*
X114409329Y-74696961D01*
X114410090Y-74705166D01*
X114396632Y-74764853D01*
X114350662Y-74805230D01*
X114311512Y-74813300D01*
X109849500Y-74813300D01*
X109791309Y-74794393D01*
X109755345Y-74744893D01*
X109750500Y-74714300D01*
X109750500Y-74665327D01*
X109750498Y-74665315D01*
X109747015Y-74647808D01*
X109735966Y-74592260D01*
X109714411Y-74560000D01*
X109697803Y-74501114D01*
X109714412Y-74449998D01*
X109715079Y-74449000D01*
X109735966Y-74417740D01*
X109750500Y-74344674D01*
X109750500Y-74295700D01*
X109769407Y-74237509D01*
X109818907Y-74201545D01*
X109849500Y-74196700D01*
X111373009Y-74196700D01*
X111373011Y-74196700D01*
X111456102Y-74174436D01*
X111530598Y-74131425D01*
X113306328Y-72355696D01*
X113360845Y-72327919D01*
X113376332Y-72326700D01*
X114300500Y-72326700D01*
X114358691Y-72345607D01*
X114394655Y-72395107D01*
X114399500Y-72425700D01*
X114399500Y-72874672D01*
X114399501Y-72874684D01*
X114414033Y-72947736D01*
X114414035Y-72947742D01*
X114469397Y-73030599D01*
X114469399Y-73030601D01*
X114552260Y-73085966D01*
X114607808Y-73097015D01*
X114625315Y-73100498D01*
X114625320Y-73100498D01*
X114625326Y-73100500D01*
X114625327Y-73100500D01*
X116374673Y-73100500D01*
X116374674Y-73100500D01*
X116447740Y-73085966D01*
X116530601Y-73030601D01*
X116585966Y-72947740D01*
X116600500Y-72874674D01*
X116600500Y-71149000D01*
X116619407Y-71090809D01*
X116668907Y-71054845D01*
X116699500Y-71050000D01*
X116700500Y-71050000D01*
X116758691Y-71068907D01*
G37*
G04 #@! TD.AperFunction*
G04 #@! TA.AperFunction,Conductor*
G36*
X93539045Y-99599324D02*
G01*
X93582309Y-99642589D01*
X93593100Y-99687534D01*
X93593100Y-100877195D01*
X93574193Y-100935386D01*
X93547103Y-100958993D01*
X93547884Y-100960162D01*
X93543842Y-100962862D01*
X93543841Y-100962863D01*
X93504973Y-100988834D01*
X93496493Y-100994500D01*
X93436251Y-101034752D01*
X92800499Y-101670504D01*
X92745982Y-101698281D01*
X92730495Y-101699500D01*
X92060326Y-101699500D01*
X92060325Y-101699500D01*
X92060315Y-101699501D01*
X91987263Y-101714033D01*
X91987257Y-101714035D01*
X91896292Y-101774816D01*
X91894820Y-101772614D01*
X91853278Y-101793781D01*
X91837791Y-101795000D01*
X89763001Y-101795000D01*
X89746997Y-101811004D01*
X89692480Y-101838781D01*
X89676993Y-101840000D01*
X88849000Y-101840000D01*
X88790809Y-101821093D01*
X88754845Y-101771593D01*
X88750000Y-101741000D01*
X88750000Y-101439000D01*
X88768907Y-101380809D01*
X88818407Y-101344845D01*
X88849000Y-101340000D01*
X89336999Y-101340000D01*
X89353003Y-101323996D01*
X89407520Y-101296219D01*
X89423007Y-101295000D01*
X92123161Y-101295000D01*
X92119386Y-101263556D01*
X92063919Y-101122904D01*
X91972564Y-101002435D01*
X91887085Y-100937614D01*
X91852143Y-100887387D01*
X91853397Y-100826215D01*
X91876897Y-100788731D01*
X92400550Y-100265078D01*
X92405491Y-100256521D01*
X92460279Y-100161625D01*
X92460278Y-100161625D01*
X92460281Y-100161622D01*
X92462940Y-100151700D01*
X92470395Y-100123875D01*
X92503719Y-100072561D01*
X92560841Y-100050635D01*
X92566022Y-100050499D01*
X92581521Y-100050499D01*
X92581522Y-100050498D01*
X92628411Y-100043072D01*
X92675299Y-100035647D01*
X92675299Y-100035646D01*
X92675304Y-100035646D01*
X92788342Y-99978050D01*
X92788348Y-99978043D01*
X92794647Y-99973469D01*
X92796580Y-99976130D01*
X92838212Y-99954919D01*
X92853699Y-99953700D01*
X92959729Y-99953700D01*
X92959731Y-99953700D01*
X93075122Y-99922781D01*
X93127360Y-99892621D01*
X93141453Y-99884484D01*
X93178573Y-99863055D01*
X93178574Y-99863053D01*
X93178578Y-99863051D01*
X93424097Y-99617530D01*
X93478613Y-99589753D01*
X93539045Y-99599324D01*
G37*
G04 #@! TD.AperFunction*
G04 #@! TA.AperFunction,Conductor*
G36*
X94358691Y-94445607D02*
G01*
X94394655Y-94495107D01*
X94399500Y-94525700D01*
X94399500Y-94624672D01*
X94399501Y-94624684D01*
X94414033Y-94697736D01*
X94414035Y-94697742D01*
X94469397Y-94780599D01*
X94469399Y-94780601D01*
X94552260Y-94835966D01*
X94602236Y-94845907D01*
X94625315Y-94850498D01*
X94625320Y-94850498D01*
X94625326Y-94850500D01*
X94625327Y-94850500D01*
X95574673Y-94850500D01*
X95574674Y-94850500D01*
X95647740Y-94835966D01*
X95730601Y-94780601D01*
X95785966Y-94697740D01*
X95800500Y-94624674D01*
X95800500Y-94525700D01*
X95819407Y-94467509D01*
X95868907Y-94431545D01*
X95899500Y-94426700D01*
X102023669Y-94426700D01*
X102081860Y-94445607D01*
X102093673Y-94455696D01*
X102494304Y-94856327D01*
X102522081Y-94910844D01*
X102523300Y-94926331D01*
X102523300Y-95415011D01*
X102504393Y-95473202D01*
X102494304Y-95485014D01*
X102460803Y-95518515D01*
X102460801Y-95518518D01*
X102409427Y-95623604D01*
X102404876Y-95654845D01*
X102399500Y-95691740D01*
X102399500Y-96208260D01*
X102405060Y-96246421D01*
X102409427Y-96276395D01*
X102440654Y-96340270D01*
X102460802Y-96381483D01*
X102543517Y-96464198D01*
X102586044Y-96484988D01*
X102648604Y-96515572D01*
X102648605Y-96515572D01*
X102648607Y-96515573D01*
X102716740Y-96525500D01*
X102716743Y-96525500D01*
X102973469Y-96525500D01*
X103031660Y-96544407D01*
X103067624Y-96593907D01*
X103067624Y-96655093D01*
X103043473Y-96694503D01*
X102588573Y-97149403D01*
X102545565Y-97223895D01*
X102545561Y-97223903D01*
X102540443Y-97243009D01*
X102540443Y-97243011D01*
X102523300Y-97306989D01*
X102523300Y-97315011D01*
X102504393Y-97373202D01*
X102494304Y-97385014D01*
X102460803Y-97418515D01*
X102460801Y-97418518D01*
X102409427Y-97523604D01*
X102408499Y-97529974D01*
X102399500Y-97591740D01*
X102399500Y-98108260D01*
X102404494Y-98142534D01*
X102409427Y-98176395D01*
X102459536Y-98278894D01*
X102468107Y-98339476D01*
X102440602Y-98392375D01*
X102433573Y-98399403D01*
X102390565Y-98473895D01*
X102390561Y-98473904D01*
X102380115Y-98512896D01*
X102380114Y-98512901D01*
X102368300Y-98556988D01*
X102368300Y-98579874D01*
X102349393Y-98638065D01*
X102314248Y-98668082D01*
X102306660Y-98671948D01*
X102216949Y-98761659D01*
X102159354Y-98874694D01*
X102157781Y-98884628D01*
X102130002Y-98939143D01*
X102075484Y-98966920D01*
X102015053Y-98957346D01*
X101971789Y-98914081D01*
X101962219Y-98884623D01*
X101960647Y-98874700D01*
X101960646Y-98874698D01*
X101960646Y-98874696D01*
X101903050Y-98761658D01*
X101852243Y-98710851D01*
X101824468Y-98656337D01*
X101834039Y-98595905D01*
X101877300Y-98552643D01*
X101902391Y-98539859D01*
X101989859Y-98452391D01*
X102046017Y-98342175D01*
X102060500Y-98250735D01*
X102060499Y-97909266D01*
X102060499Y-97909262D01*
X102050442Y-97845765D01*
X102046017Y-97817825D01*
X102046014Y-97817820D01*
X102046014Y-97817818D01*
X102022878Y-97772411D01*
X102013306Y-97711979D01*
X102041083Y-97657463D01*
X102051270Y-97648580D01*
X102055427Y-97645427D01*
X102055430Y-97645424D01*
X102145119Y-97527150D01*
X102199579Y-97389052D01*
X102201867Y-97370000D01*
X101349000Y-97370000D01*
X101290809Y-97351093D01*
X101254845Y-97301593D01*
X101250000Y-97271000D01*
X101250000Y-96869999D01*
X101750000Y-96869999D01*
X101750001Y-96870000D01*
X102201866Y-96870000D01*
X102199579Y-96850947D01*
X102145119Y-96712849D01*
X102055430Y-96594575D01*
X102055424Y-96594569D01*
X101937148Y-96504878D01*
X101799056Y-96450421D01*
X101750000Y-96444530D01*
X101750000Y-96869999D01*
X101250000Y-96869999D01*
X101250000Y-96444530D01*
X101200945Y-96450421D01*
X101153398Y-96469171D01*
X101116007Y-96471471D01*
X101116007Y-96475000D01*
X99325001Y-96475000D01*
X99325000Y-96475001D01*
X99325000Y-96513105D01*
X99327788Y-96548546D01*
X99327790Y-96548552D01*
X99371845Y-96700189D01*
X99452227Y-96836109D01*
X99563890Y-96947772D01*
X99658023Y-97003442D01*
X99698486Y-97049338D01*
X99704244Y-97110252D01*
X99673098Y-97162917D01*
X99666957Y-97167909D01*
X99610317Y-97210309D01*
X99610311Y-97210315D01*
X99528369Y-97319777D01*
X99527948Y-97320549D01*
X99527415Y-97321052D01*
X99524129Y-97325442D01*
X99523369Y-97324873D01*
X99483464Y-97362559D01*
X99441060Y-97372100D01*
X99384122Y-97372100D01*
X99384106Y-97372099D01*
X99383750Y-97372099D01*
X99383587Y-97372066D01*
X99371843Y-97371336D01*
X99371835Y-97371335D01*
X99372030Y-97369768D01*
X99345867Y-97364564D01*
X99343709Y-97363670D01*
X99343708Y-97363669D01*
X99200000Y-97344750D01*
X99199999Y-97344750D01*
X99159613Y-97350067D01*
X99099452Y-97338917D01*
X99057335Y-97294535D01*
X99048258Y-97241333D01*
X99050500Y-97220485D01*
X99050499Y-96679516D01*
X99044412Y-96622886D01*
X98996628Y-96494774D01*
X98914687Y-96385313D01*
X98867351Y-96349878D01*
X98805228Y-96303373D01*
X98805226Y-96303372D01*
X98677114Y-96255588D01*
X98677113Y-96255587D01*
X98638895Y-96251479D01*
X98620485Y-96249500D01*
X98620481Y-96249500D01*
X97779521Y-96249500D01*
X97779515Y-96249501D01*
X97722888Y-96255587D01*
X97722886Y-96255588D01*
X97594774Y-96303372D01*
X97594773Y-96303372D01*
X97594772Y-96303373D01*
X97485315Y-96385311D01*
X97485311Y-96385315D01*
X97463102Y-96414984D01*
X97435910Y-96451309D01*
X97431928Y-96456628D01*
X97381919Y-96491882D01*
X97352674Y-96496300D01*
X96990266Y-96496300D01*
X96974227Y-96500597D01*
X96974228Y-96500598D01*
X96874878Y-96527218D01*
X96771423Y-96586948D01*
X96078567Y-97279804D01*
X96024050Y-97307581D01*
X96008563Y-97308800D01*
X95849499Y-97308800D01*
X95791308Y-97289893D01*
X95755344Y-97240393D01*
X95750499Y-97209800D01*
X95750499Y-97143478D01*
X95750498Y-97143476D01*
X95735647Y-97049700D01*
X95735646Y-97049698D01*
X95735646Y-97049696D01*
X95678050Y-96936658D01*
X95678046Y-96936654D01*
X95673469Y-96930353D01*
X95676123Y-96928424D01*
X95654910Y-96886730D01*
X95653700Y-96871300D01*
X95653700Y-96465270D01*
X95652820Y-96461985D01*
X95622781Y-96349878D01*
X95622779Y-96349875D01*
X95622779Y-96349873D01*
X95563053Y-96246426D01*
X95563049Y-96246421D01*
X95478578Y-96161949D01*
X95478578Y-96161950D01*
X95304495Y-95987867D01*
X95278524Y-95936894D01*
X99325000Y-95936894D01*
X99325000Y-95974999D01*
X99325001Y-95975000D01*
X99949999Y-95975000D01*
X99950000Y-95974999D01*
X99950000Y-95375001D01*
X100450000Y-95375001D01*
X100450000Y-95974999D01*
X100450001Y-95975000D01*
X101074999Y-95975000D01*
X101075000Y-95974999D01*
X101075000Y-95936894D01*
X101072211Y-95901453D01*
X101072209Y-95901447D01*
X101028154Y-95749810D01*
X100947772Y-95613890D01*
X100836109Y-95502227D01*
X100700189Y-95421845D01*
X100548552Y-95377790D01*
X100548546Y-95377788D01*
X100513106Y-95375000D01*
X100450001Y-95375000D01*
X100450000Y-95375001D01*
X99950000Y-95375001D01*
X99949999Y-95375000D01*
X99886894Y-95375000D01*
X99851453Y-95377788D01*
X99851447Y-95377790D01*
X99699810Y-95421845D01*
X99563890Y-95502227D01*
X99452227Y-95613890D01*
X99371845Y-95749810D01*
X99327790Y-95901447D01*
X99327788Y-95901453D01*
X99325000Y-95936894D01*
X95278524Y-95936894D01*
X95276718Y-95933350D01*
X95275499Y-95917863D01*
X95275499Y-95604521D01*
X95275499Y-95604516D01*
X95269412Y-95547886D01*
X95221628Y-95419774D01*
X95139687Y-95310313D01*
X95071477Y-95259252D01*
X95030228Y-95228373D01*
X95030226Y-95228372D01*
X94902114Y-95180588D01*
X94902113Y-95180587D01*
X94862507Y-95176330D01*
X94845485Y-95174500D01*
X94845481Y-95174500D01*
X94304521Y-95174500D01*
X94304515Y-95174501D01*
X94247888Y-95180587D01*
X94247886Y-95180588D01*
X94119774Y-95228372D01*
X94119773Y-95228372D01*
X94119772Y-95228373D01*
X94010315Y-95310311D01*
X94010309Y-95310317D01*
X93967909Y-95366957D01*
X93917900Y-95402210D01*
X93856721Y-95401336D01*
X93807740Y-95364668D01*
X93803442Y-95358023D01*
X93747772Y-95263890D01*
X93636109Y-95152227D01*
X93500189Y-95071845D01*
X93348552Y-95027790D01*
X93348546Y-95027788D01*
X93313106Y-95025000D01*
X93275001Y-95025000D01*
X93275000Y-95025001D01*
X93275000Y-96774999D01*
X93275001Y-96775000D01*
X93313106Y-96775000D01*
X93348546Y-96772211D01*
X93348552Y-96772209D01*
X93500189Y-96728154D01*
X93636109Y-96647772D01*
X93747772Y-96536109D01*
X93803442Y-96441976D01*
X93849338Y-96401514D01*
X93910252Y-96395755D01*
X93962917Y-96426901D01*
X93967901Y-96433031D01*
X94010313Y-96489687D01*
X94119774Y-96571628D01*
X94247886Y-96619412D01*
X94304515Y-96625500D01*
X94617863Y-96625499D01*
X94676053Y-96644406D01*
X94687865Y-96654494D01*
X94717302Y-96683930D01*
X94745081Y-96738446D01*
X94746300Y-96753935D01*
X94746300Y-96871300D01*
X94727393Y-96929491D01*
X94725810Y-96931345D01*
X94721950Y-96936658D01*
X94664354Y-97049695D01*
X94649500Y-97143478D01*
X94649500Y-97209800D01*
X94630593Y-97267991D01*
X94581093Y-97303955D01*
X94550500Y-97308800D01*
X93477769Y-97308800D01*
X93362378Y-97339719D01*
X93362376Y-97339719D01*
X93356110Y-97341399D01*
X93355464Y-97338990D01*
X93305154Y-97342927D01*
X93258305Y-97316676D01*
X93178578Y-97236948D01*
X93112991Y-97199081D01*
X93112991Y-97199082D01*
X93075122Y-97177219D01*
X93071808Y-97176331D01*
X92959731Y-97146300D01*
X92959729Y-97146300D01*
X92853699Y-97146300D01*
X92795508Y-97127393D01*
X92793654Y-97125809D01*
X92788344Y-97121952D01*
X92788342Y-97121950D01*
X92675304Y-97064354D01*
X92675305Y-97064354D01*
X92581521Y-97049500D01*
X91493478Y-97049500D01*
X91493476Y-97049501D01*
X91399700Y-97064352D01*
X91399695Y-97064354D01*
X91286659Y-97121949D01*
X91196949Y-97211659D01*
X91139354Y-97324695D01*
X91124500Y-97418477D01*
X91124500Y-97781520D01*
X91124501Y-97781523D01*
X91139352Y-97875300D01*
X91148963Y-97894162D01*
X91158535Y-97954594D01*
X91134967Y-98000857D01*
X91136527Y-98002040D01*
X91041080Y-98127904D01*
X90985613Y-98268556D01*
X90981838Y-98300000D01*
X92188500Y-98300000D01*
X92246691Y-98318907D01*
X92282655Y-98368407D01*
X92287500Y-98399000D01*
X92287500Y-98701000D01*
X92268593Y-98759191D01*
X92219093Y-98795155D01*
X92188500Y-98800000D01*
X90981838Y-98800000D01*
X90986006Y-98834710D01*
X90974171Y-98894740D01*
X90929311Y-98936349D01*
X90900635Y-98944666D01*
X90756290Y-98963670D01*
X90622372Y-99019139D01*
X90616751Y-99022385D01*
X90615409Y-99020061D01*
X90568431Y-99036693D01*
X90521637Y-99022828D01*
X90520283Y-99025487D01*
X90513342Y-99021950D01*
X90400304Y-98964354D01*
X90400305Y-98964354D01*
X90306521Y-98949500D01*
X89218482Y-98949500D01*
X89168184Y-98957466D01*
X89107752Y-98947892D01*
X89064489Y-98904626D01*
X89053700Y-98859684D01*
X89053700Y-98240315D01*
X89072607Y-98182124D01*
X89122107Y-98146160D01*
X89168186Y-98142534D01*
X89218481Y-98150500D01*
X90306518Y-98150499D01*
X90306521Y-98150499D01*
X90306522Y-98150498D01*
X90356811Y-98142534D01*
X90400299Y-98135647D01*
X90400299Y-98135646D01*
X90400304Y-98135646D01*
X90513342Y-98078050D01*
X90603050Y-97988342D01*
X90660646Y-97875304D01*
X90675500Y-97781519D01*
X90675499Y-97418482D01*
X90668328Y-97373202D01*
X90660647Y-97324700D01*
X90660646Y-97324698D01*
X90660646Y-97324696D01*
X90603050Y-97211658D01*
X90513342Y-97121950D01*
X90400304Y-97064354D01*
X90400305Y-97064354D01*
X90306521Y-97049500D01*
X89218482Y-97049500D01*
X89168184Y-97057466D01*
X89107752Y-97047892D01*
X89064489Y-97004626D01*
X89053700Y-96959684D01*
X89053700Y-96628935D01*
X89072607Y-96570744D01*
X89082685Y-96558943D01*
X89190320Y-96451307D01*
X89244835Y-96423532D01*
X89305267Y-96433103D01*
X89339575Y-96461984D01*
X89360313Y-96489687D01*
X89469774Y-96571628D01*
X89597886Y-96619412D01*
X89654515Y-96625500D01*
X90195484Y-96625499D01*
X90252114Y-96619412D01*
X90380226Y-96571628D01*
X90489687Y-96489687D01*
X90532090Y-96433041D01*
X90582097Y-96397789D01*
X90643276Y-96398663D01*
X90692258Y-96435329D01*
X90696556Y-96441976D01*
X90752225Y-96536107D01*
X90863890Y-96647772D01*
X90999810Y-96728154D01*
X91151447Y-96772209D01*
X91151453Y-96772211D01*
X91186894Y-96775000D01*
X91224999Y-96775000D01*
X91225000Y-96774999D01*
X91225000Y-96150001D01*
X91725000Y-96150001D01*
X91725000Y-96774999D01*
X91725001Y-96775000D01*
X91763106Y-96775000D01*
X91798546Y-96772211D01*
X91798552Y-96772209D01*
X91950189Y-96728154D01*
X92086109Y-96647772D01*
X92179996Y-96553886D01*
X92234513Y-96526109D01*
X92294945Y-96535680D01*
X92320004Y-96553886D01*
X92413890Y-96647772D01*
X92549810Y-96728154D01*
X92701447Y-96772209D01*
X92701453Y-96772211D01*
X92736894Y-96775000D01*
X92774999Y-96775000D01*
X92775000Y-96774999D01*
X92775000Y-96150001D01*
X92774999Y-96150000D01*
X91725001Y-96150000D01*
X91725000Y-96150001D01*
X91225000Y-96150001D01*
X91225000Y-95749000D01*
X91243907Y-95690809D01*
X91293407Y-95654845D01*
X91324000Y-95650000D01*
X92774999Y-95650000D01*
X92775000Y-95649999D01*
X92775000Y-95025001D01*
X92774999Y-95025000D01*
X92736894Y-95025000D01*
X92701453Y-95027788D01*
X92701447Y-95027790D01*
X92549810Y-95071845D01*
X92413890Y-95152227D01*
X92320004Y-95246114D01*
X92265487Y-95273891D01*
X92205055Y-95264320D01*
X92179996Y-95246114D01*
X92086109Y-95152227D01*
X91950189Y-95071845D01*
X91798552Y-95027790D01*
X91798546Y-95027788D01*
X91763106Y-95025000D01*
X91589078Y-95025000D01*
X91530887Y-95006093D01*
X91494923Y-94956593D01*
X91494923Y-94895407D01*
X91530887Y-94845907D01*
X91543082Y-94839078D01*
X91564951Y-94824466D01*
X91630601Y-94780601D01*
X91685966Y-94697740D01*
X91700500Y-94624674D01*
X91700500Y-94525700D01*
X91719407Y-94467509D01*
X91768907Y-94431545D01*
X91799500Y-94426700D01*
X94300500Y-94426700D01*
X94358691Y-94445607D01*
G37*
G04 #@! TD.AperFunction*
G04 #@! TA.AperFunction,Conductor*
G36*
X114358691Y-71068907D02*
G01*
X114394655Y-71118407D01*
X114399500Y-71149000D01*
X114399500Y-71574300D01*
X114380593Y-71632491D01*
X114331093Y-71668455D01*
X114300500Y-71673300D01*
X113156989Y-71673300D01*
X113115444Y-71684432D01*
X113073897Y-71695564D01*
X113042412Y-71713743D01*
X113042411Y-71713742D01*
X112999402Y-71738574D01*
X111223673Y-73514304D01*
X111169156Y-73542081D01*
X111153669Y-73543300D01*
X109849500Y-73543300D01*
X109791309Y-73524393D01*
X109755345Y-73474893D01*
X109750500Y-73444300D01*
X109750500Y-73406192D01*
X109769407Y-73348001D01*
X109779498Y-73336187D01*
X109827639Y-73288047D01*
X109885163Y-73175151D01*
X109885164Y-73175147D01*
X109900000Y-73081484D01*
X109900000Y-72850001D01*
X109899999Y-72850000D01*
X107600002Y-72850000D01*
X107600001Y-72850001D01*
X107600001Y-73081485D01*
X107614833Y-73175141D01*
X107614836Y-73175151D01*
X107672358Y-73288043D01*
X107720504Y-73336189D01*
X107748281Y-73390706D01*
X107749500Y-73406193D01*
X107749500Y-74344672D01*
X107749501Y-74344684D01*
X107764033Y-74417736D01*
X107764036Y-74417745D01*
X107785588Y-74450000D01*
X107802196Y-74508888D01*
X107785588Y-74560000D01*
X107764036Y-74592254D01*
X107764033Y-74592263D01*
X107749501Y-74665315D01*
X107749500Y-74665327D01*
X107749500Y-75614672D01*
X107749501Y-75614684D01*
X107764033Y-75687736D01*
X107764036Y-75687745D01*
X107785588Y-75720000D01*
X107802196Y-75778888D01*
X107785587Y-75830002D01*
X107760673Y-75867288D01*
X107712623Y-75905167D01*
X107651485Y-75907569D01*
X107640473Y-75903750D01*
X107543709Y-75863670D01*
X107543708Y-75863669D01*
X107400000Y-75844750D01*
X107256291Y-75863669D01*
X107256290Y-75863670D01*
X107122378Y-75919137D01*
X107122374Y-75919139D01*
X107007381Y-76007377D01*
X107007377Y-76007381D01*
X106919139Y-76122374D01*
X106919137Y-76122378D01*
X106863670Y-76256290D01*
X106863669Y-76256291D01*
X106844750Y-76399999D01*
X106844750Y-76400000D01*
X106863669Y-76543708D01*
X106863670Y-76543709D01*
X106919139Y-76677625D01*
X107007379Y-76792621D01*
X107122375Y-76880861D01*
X107256291Y-76936330D01*
X107400000Y-76955250D01*
X107543709Y-76936330D01*
X107632737Y-76899453D01*
X107693731Y-76894653D01*
X107745900Y-76926623D01*
X107762085Y-76953034D01*
X107764035Y-76957744D01*
X107785588Y-76990000D01*
X107802196Y-77048888D01*
X107785588Y-77100000D01*
X107764036Y-77132254D01*
X107764033Y-77132263D01*
X107749501Y-77205315D01*
X107749500Y-77205327D01*
X107749500Y-77254300D01*
X107730593Y-77312491D01*
X107681093Y-77348455D01*
X107650500Y-77353300D01*
X107327212Y-77353300D01*
X107269021Y-77334393D01*
X107248670Y-77314568D01*
X107166421Y-77207379D01*
X107051425Y-77119139D01*
X107051421Y-77119137D01*
X106917509Y-77063670D01*
X106917508Y-77063669D01*
X106773800Y-77044750D01*
X106630091Y-77063669D01*
X106630090Y-77063670D01*
X106496178Y-77119137D01*
X106496174Y-77119139D01*
X106381181Y-77207377D01*
X106381177Y-77207381D01*
X106292939Y-77322374D01*
X106292937Y-77322378D01*
X106237470Y-77456290D01*
X106237469Y-77456291D01*
X106218550Y-77599999D01*
X106218550Y-77600000D01*
X106237469Y-77743708D01*
X106237470Y-77743709D01*
X106264313Y-77808516D01*
X106292939Y-77877625D01*
X106381179Y-77992621D01*
X106496175Y-78080861D01*
X106630091Y-78136330D01*
X106773800Y-78155250D01*
X106917509Y-78136330D01*
X107051425Y-78080861D01*
X107094890Y-78047509D01*
X107121413Y-78027158D01*
X107179089Y-78006734D01*
X107181680Y-78006700D01*
X107650500Y-78006700D01*
X107708691Y-78025607D01*
X107744655Y-78075107D01*
X107749500Y-78105700D01*
X107749500Y-78154672D01*
X107749501Y-78154684D01*
X107764033Y-78227736D01*
X107764036Y-78227745D01*
X107785588Y-78260000D01*
X107802196Y-78318888D01*
X107785588Y-78370000D01*
X107764036Y-78402254D01*
X107764033Y-78402263D01*
X107749501Y-78475315D01*
X107749500Y-78475327D01*
X107749500Y-79424672D01*
X107749501Y-79424684D01*
X107764033Y-79497736D01*
X107764036Y-79497745D01*
X107785588Y-79530000D01*
X107802196Y-79588888D01*
X107785588Y-79640000D01*
X107764036Y-79672254D01*
X107764033Y-79672263D01*
X107749501Y-79745315D01*
X107749500Y-79745327D01*
X107749500Y-80694672D01*
X107749501Y-80694684D01*
X107764033Y-80767736D01*
X107764036Y-80767745D01*
X107785588Y-80800000D01*
X107802196Y-80858888D01*
X107785588Y-80910000D01*
X107764036Y-80942254D01*
X107764033Y-80942263D01*
X107749501Y-81015315D01*
X107749500Y-81015327D01*
X107749500Y-81964672D01*
X107749501Y-81964684D01*
X107764033Y-82037736D01*
X107764036Y-82037745D01*
X107785588Y-82070000D01*
X107802196Y-82128888D01*
X107785588Y-82180000D01*
X107764036Y-82212254D01*
X107764033Y-82212263D01*
X107749501Y-82285315D01*
X107749500Y-82285327D01*
X107749500Y-83234672D01*
X107749501Y-83234684D01*
X107764033Y-83307736D01*
X107764036Y-83307745D01*
X107785588Y-83340000D01*
X107802196Y-83398888D01*
X107785588Y-83450000D01*
X107764036Y-83482254D01*
X107764033Y-83482263D01*
X107749501Y-83555315D01*
X107749500Y-83555327D01*
X107749500Y-84504672D01*
X107749501Y-84504684D01*
X107764033Y-84577736D01*
X107764036Y-84577745D01*
X107785588Y-84610000D01*
X107802196Y-84668888D01*
X107785588Y-84720000D01*
X107764036Y-84752254D01*
X107764033Y-84752263D01*
X107749501Y-84825315D01*
X107749500Y-84825327D01*
X107749500Y-85774672D01*
X107749501Y-85774684D01*
X107764033Y-85847736D01*
X107764036Y-85847745D01*
X107785588Y-85880000D01*
X107802196Y-85938888D01*
X107785588Y-85990000D01*
X107764036Y-86022254D01*
X107764033Y-86022263D01*
X107749501Y-86095315D01*
X107749500Y-86095327D01*
X107749500Y-87044672D01*
X107749501Y-87044684D01*
X107764033Y-87117736D01*
X107764036Y-87117745D01*
X107785588Y-87150000D01*
X107802196Y-87208888D01*
X107785588Y-87260000D01*
X107764036Y-87292254D01*
X107764033Y-87292263D01*
X107749501Y-87365315D01*
X107749500Y-87365327D01*
X107749500Y-88314672D01*
X107749501Y-88314684D01*
X107764033Y-88387736D01*
X107764036Y-88387745D01*
X107785588Y-88420000D01*
X107802196Y-88478888D01*
X107785588Y-88530000D01*
X107764036Y-88562254D01*
X107764033Y-88562263D01*
X107749501Y-88635315D01*
X107749500Y-88635327D01*
X107749500Y-89584672D01*
X107749501Y-89584684D01*
X107764033Y-89657736D01*
X107764035Y-89657742D01*
X107819397Y-89740599D01*
X107819400Y-89740602D01*
X107872748Y-89776247D01*
X107902260Y-89795966D01*
X107957808Y-89807015D01*
X107975315Y-89810498D01*
X107975320Y-89810498D01*
X107975326Y-89810500D01*
X108324300Y-89810500D01*
X108382491Y-89829407D01*
X108418455Y-89878907D01*
X108423300Y-89909500D01*
X108423300Y-90073669D01*
X108404393Y-90131860D01*
X108394304Y-90143673D01*
X107838573Y-90699404D01*
X107795565Y-90773894D01*
X107782327Y-90823301D01*
X107773300Y-90856989D01*
X107773300Y-92344611D01*
X107754393Y-92402802D01*
X107704893Y-92438766D01*
X107643707Y-92438766D01*
X107604296Y-92414615D01*
X106441966Y-91252285D01*
X106414189Y-91197768D01*
X106414872Y-91162966D01*
X106420500Y-91134674D01*
X106420500Y-89585326D01*
X106405966Y-89512260D01*
X106401187Y-89505107D01*
X106350602Y-89429400D01*
X106350599Y-89429397D01*
X106267742Y-89374035D01*
X106267740Y-89374034D01*
X106267737Y-89374033D01*
X106267736Y-89374033D01*
X106194684Y-89359501D01*
X106194674Y-89359500D01*
X105245326Y-89359500D01*
X105245325Y-89359500D01*
X105245315Y-89359501D01*
X105172263Y-89374033D01*
X105172254Y-89374036D01*
X105140000Y-89395588D01*
X105081112Y-89412196D01*
X105030000Y-89395588D01*
X104997745Y-89374036D01*
X104997740Y-89374034D01*
X104997737Y-89374033D01*
X104997736Y-89374033D01*
X104924684Y-89359501D01*
X104924674Y-89359500D01*
X103975326Y-89359500D01*
X103975325Y-89359500D01*
X103975315Y-89359501D01*
X103902263Y-89374033D01*
X103902254Y-89374036D01*
X103870000Y-89395588D01*
X103811112Y-89412196D01*
X103760000Y-89395588D01*
X103727745Y-89374036D01*
X103727740Y-89374034D01*
X103727737Y-89374033D01*
X103727736Y-89374033D01*
X103654684Y-89359501D01*
X103654674Y-89359500D01*
X102705326Y-89359500D01*
X102705325Y-89359500D01*
X102705315Y-89359501D01*
X102632263Y-89374033D01*
X102632254Y-89374036D01*
X102600000Y-89395588D01*
X102541112Y-89412196D01*
X102490000Y-89395588D01*
X102457745Y-89374036D01*
X102457740Y-89374034D01*
X102457737Y-89374033D01*
X102457736Y-89374033D01*
X102384684Y-89359501D01*
X102384674Y-89359500D01*
X101435326Y-89359500D01*
X101435325Y-89359500D01*
X101435315Y-89359501D01*
X101362263Y-89374033D01*
X101362254Y-89374036D01*
X101330000Y-89395588D01*
X101271112Y-89412196D01*
X101220000Y-89395588D01*
X101187745Y-89374036D01*
X101187740Y-89374034D01*
X101187737Y-89374033D01*
X101187736Y-89374033D01*
X101114684Y-89359501D01*
X101114674Y-89359500D01*
X100165326Y-89359500D01*
X100165325Y-89359500D01*
X100165315Y-89359501D01*
X100092263Y-89374033D01*
X100092254Y-89374036D01*
X100060000Y-89395588D01*
X100001112Y-89412196D01*
X99950000Y-89395588D01*
X99917745Y-89374036D01*
X99917740Y-89374034D01*
X99917737Y-89374033D01*
X99917736Y-89374033D01*
X99844684Y-89359501D01*
X99844674Y-89359500D01*
X98895326Y-89359500D01*
X98895325Y-89359500D01*
X98895315Y-89359501D01*
X98822263Y-89374033D01*
X98822254Y-89374036D01*
X98790000Y-89395588D01*
X98731112Y-89412196D01*
X98680000Y-89395588D01*
X98647745Y-89374036D01*
X98647740Y-89374034D01*
X98647737Y-89374033D01*
X98647736Y-89374033D01*
X98574684Y-89359501D01*
X98574674Y-89359500D01*
X97625326Y-89359500D01*
X97625325Y-89359500D01*
X97625315Y-89359501D01*
X97552263Y-89374033D01*
X97552254Y-89374036D01*
X97520000Y-89395588D01*
X97461112Y-89412196D01*
X97410000Y-89395588D01*
X97377745Y-89374036D01*
X97377740Y-89374034D01*
X97377737Y-89374033D01*
X97377736Y-89374033D01*
X97304684Y-89359501D01*
X97304674Y-89359500D01*
X96355326Y-89359500D01*
X96355325Y-89359500D01*
X96355315Y-89359501D01*
X96282263Y-89374033D01*
X96282254Y-89374036D01*
X96250000Y-89395588D01*
X96191112Y-89412196D01*
X96140000Y-89395588D01*
X96107745Y-89374036D01*
X96107740Y-89374034D01*
X96107737Y-89374033D01*
X96107736Y-89374033D01*
X96034684Y-89359501D01*
X96034674Y-89359500D01*
X96034673Y-89359500D01*
X95974056Y-89359500D01*
X95915865Y-89340593D01*
X95879901Y-89291093D01*
X95878429Y-89286123D01*
X95864436Y-89233898D01*
X95821425Y-89159402D01*
X95500598Y-88838575D01*
X95426102Y-88795564D01*
X95343011Y-88773300D01*
X93443011Y-88773300D01*
X93356989Y-88773300D01*
X93273898Y-88795564D01*
X93273897Y-88795564D01*
X93273895Y-88795565D01*
X93199404Y-88838573D01*
X92419504Y-89618473D01*
X92364987Y-89646250D01*
X92304555Y-89636679D01*
X92261290Y-89593414D01*
X92250500Y-89548469D01*
X92250500Y-88635327D01*
X92250498Y-88635315D01*
X92245716Y-88611276D01*
X92235966Y-88562260D01*
X92214411Y-88530000D01*
X92197803Y-88471114D01*
X92214412Y-88419998D01*
X92235966Y-88387740D01*
X92250500Y-88314674D01*
X92250500Y-87365326D01*
X92235966Y-87292260D01*
X92214411Y-87260000D01*
X92197803Y-87201114D01*
X92214412Y-87149998D01*
X92235966Y-87117740D01*
X92250500Y-87044674D01*
X92250500Y-86095326D01*
X92235966Y-86022260D01*
X92214411Y-85990000D01*
X92197803Y-85931114D01*
X92214412Y-85879998D01*
X92235966Y-85847740D01*
X92250500Y-85774674D01*
X92250500Y-84825326D01*
X92235966Y-84752260D01*
X92214411Y-84720000D01*
X92197803Y-84661114D01*
X92214412Y-84609998D01*
X92235966Y-84577740D01*
X92250500Y-84504674D01*
X92250500Y-83555326D01*
X92235966Y-83482260D01*
X92214411Y-83450000D01*
X92197803Y-83391114D01*
X92214412Y-83339998D01*
X92235966Y-83307740D01*
X92250500Y-83234674D01*
X92250500Y-82285326D01*
X92235966Y-82212260D01*
X92214411Y-82180000D01*
X92197803Y-82121114D01*
X92214412Y-82069998D01*
X92235966Y-82037740D01*
X92250500Y-81964674D01*
X92250500Y-81015326D01*
X92235966Y-80942260D01*
X92214411Y-80910000D01*
X92197803Y-80851114D01*
X92214412Y-80799998D01*
X92222784Y-80787468D01*
X92235966Y-80767740D01*
X92250500Y-80694674D01*
X92250500Y-80190001D01*
X96820001Y-80190001D01*
X96820001Y-82071485D01*
X96834833Y-82165141D01*
X96834836Y-82165151D01*
X96892358Y-82278043D01*
X96981956Y-82367641D01*
X97094848Y-82425163D01*
X97094852Y-82425164D01*
X97188515Y-82439999D01*
X99069998Y-82439999D01*
X99070000Y-82439998D01*
X99070000Y-81715001D01*
X99570000Y-81715001D01*
X99570000Y-82439998D01*
X99570001Y-82439999D01*
X101451483Y-82439999D01*
X101451485Y-82439998D01*
X101545141Y-82425166D01*
X101545151Y-82425163D01*
X101658043Y-82367641D01*
X101747641Y-82278043D01*
X101805163Y-82165151D01*
X101805164Y-82165147D01*
X101820000Y-82071484D01*
X101820000Y-80190001D01*
X101819999Y-80190000D01*
X101095001Y-80190000D01*
X101095000Y-80190001D01*
X101095000Y-80598947D01*
X101128549Y-80632497D01*
X101156326Y-80687014D01*
X101146754Y-80747446D01*
X101128549Y-80772503D01*
X101095000Y-80806052D01*
X101095000Y-81616000D01*
X101076093Y-81674191D01*
X101026593Y-81710155D01*
X100996000Y-81715000D01*
X100186052Y-81715000D01*
X100152503Y-81748549D01*
X100097986Y-81776326D01*
X100037554Y-81766754D01*
X100012497Y-81748549D01*
X99978947Y-81715000D01*
X99570001Y-81715000D01*
X99570000Y-81715001D01*
X99070000Y-81715001D01*
X99069999Y-81715000D01*
X98661052Y-81715000D01*
X98627503Y-81748549D01*
X98572986Y-81776326D01*
X98512554Y-81766754D01*
X98487497Y-81748549D01*
X98453947Y-81715000D01*
X97644000Y-81715000D01*
X97585809Y-81696093D01*
X97549845Y-81646593D01*
X97545000Y-81616000D01*
X97545000Y-81435163D01*
X98407500Y-81435163D01*
X98407500Y-81494837D01*
X98430336Y-81549968D01*
X98472532Y-81592164D01*
X98527663Y-81615000D01*
X98587337Y-81615000D01*
X98642468Y-81592164D01*
X98684664Y-81549968D01*
X98707500Y-81494837D01*
X98707500Y-81435163D01*
X99932500Y-81435163D01*
X99932500Y-81494837D01*
X99955336Y-81549968D01*
X99997532Y-81592164D01*
X100052663Y-81615000D01*
X100112337Y-81615000D01*
X100167468Y-81592164D01*
X100209664Y-81549968D01*
X100232500Y-81494837D01*
X100232500Y-81435163D01*
X100209664Y-81380032D01*
X100167468Y-81337836D01*
X100112337Y-81315000D01*
X100052663Y-81315000D01*
X99997532Y-81337836D01*
X99955336Y-81380032D01*
X99932500Y-81435163D01*
X98707500Y-81435163D01*
X98684664Y-81380032D01*
X98642468Y-81337836D01*
X98587337Y-81315000D01*
X98527663Y-81315000D01*
X98472532Y-81337836D01*
X98430336Y-81380032D01*
X98407500Y-81435163D01*
X97545000Y-81435163D01*
X97545000Y-80806054D01*
X97511450Y-80772504D01*
X97483673Y-80717987D01*
X97490851Y-80672663D01*
X97645000Y-80672663D01*
X97645000Y-80732337D01*
X97667836Y-80787468D01*
X97710032Y-80829664D01*
X97765163Y-80852500D01*
X97824837Y-80852500D01*
X97879968Y-80829664D01*
X97922164Y-80787468D01*
X97945000Y-80732337D01*
X97945000Y-80702499D01*
X98148553Y-80702499D01*
X98148553Y-80702500D01*
X98208895Y-80762843D01*
X98557500Y-81111447D01*
X98906105Y-80762843D01*
X98966447Y-80702500D01*
X98966447Y-80702499D01*
X98936611Y-80672663D01*
X99170000Y-80672663D01*
X99170000Y-80732337D01*
X99192836Y-80787468D01*
X99235032Y-80829664D01*
X99290163Y-80852500D01*
X99349837Y-80852500D01*
X99404968Y-80829664D01*
X99447164Y-80787468D01*
X99470000Y-80732337D01*
X99470000Y-80702499D01*
X99673553Y-80702499D01*
X99673553Y-80702500D01*
X99733895Y-80762843D01*
X100082500Y-81111447D01*
X100431105Y-80762843D01*
X100491447Y-80702500D01*
X100491447Y-80702499D01*
X100461611Y-80672663D01*
X100695000Y-80672663D01*
X100695000Y-80732337D01*
X100717836Y-80787468D01*
X100760032Y-80829664D01*
X100815163Y-80852500D01*
X100874837Y-80852500D01*
X100929968Y-80829664D01*
X100972164Y-80787468D01*
X100995000Y-80732337D01*
X100995000Y-80672663D01*
X100972164Y-80617532D01*
X100929968Y-80575336D01*
X100874837Y-80552500D01*
X100815163Y-80552500D01*
X100760032Y-80575336D01*
X100717836Y-80617532D01*
X100695000Y-80672663D01*
X100461611Y-80672663D01*
X100431105Y-80642157D01*
X100082500Y-80293553D01*
X99733895Y-80642157D01*
X99673553Y-80702499D01*
X99470000Y-80702499D01*
X99470000Y-80672663D01*
X99447164Y-80617532D01*
X99404968Y-80575336D01*
X99349837Y-80552500D01*
X99290163Y-80552500D01*
X99235032Y-80575336D01*
X99192836Y-80617532D01*
X99170000Y-80672663D01*
X98936611Y-80672663D01*
X98906105Y-80642157D01*
X98557500Y-80293553D01*
X98208895Y-80642157D01*
X98148553Y-80702499D01*
X97945000Y-80702499D01*
X97945000Y-80672663D01*
X97922164Y-80617532D01*
X97879968Y-80575336D01*
X97824837Y-80552500D01*
X97765163Y-80552500D01*
X97710032Y-80575336D01*
X97667836Y-80617532D01*
X97645000Y-80672663D01*
X97490851Y-80672663D01*
X97493244Y-80657555D01*
X97511450Y-80632496D01*
X97545000Y-80598946D01*
X97545000Y-80190001D01*
X97544999Y-80190000D01*
X96820002Y-80190000D01*
X96820001Y-80190001D01*
X92250500Y-80190001D01*
X92250500Y-79910163D01*
X98407500Y-79910163D01*
X98407500Y-79969837D01*
X98430336Y-80024968D01*
X98472532Y-80067164D01*
X98527663Y-80090000D01*
X98587337Y-80090000D01*
X98642468Y-80067164D01*
X98684664Y-80024968D01*
X98707500Y-79969837D01*
X98707500Y-79910163D01*
X99932500Y-79910163D01*
X99932500Y-79969837D01*
X99955336Y-80024968D01*
X99997532Y-80067164D01*
X100052663Y-80090000D01*
X100112337Y-80090000D01*
X100167468Y-80067164D01*
X100209664Y-80024968D01*
X100232500Y-79969837D01*
X100232500Y-79910163D01*
X100209664Y-79855032D01*
X100167468Y-79812836D01*
X100112337Y-79790000D01*
X100052663Y-79790000D01*
X99997532Y-79812836D01*
X99955336Y-79855032D01*
X99932500Y-79910163D01*
X98707500Y-79910163D01*
X98684664Y-79855032D01*
X98642468Y-79812836D01*
X98587337Y-79790000D01*
X98527663Y-79790000D01*
X98472532Y-79812836D01*
X98430336Y-79855032D01*
X98407500Y-79910163D01*
X92250500Y-79910163D01*
X92250500Y-79745326D01*
X92235966Y-79672260D01*
X92214411Y-79640000D01*
X92197803Y-79581114D01*
X92214412Y-79529998D01*
X92235966Y-79497740D01*
X92250500Y-79424674D01*
X92250500Y-78475326D01*
X92235966Y-78402260D01*
X92214411Y-78370000D01*
X92197803Y-78311114D01*
X92214412Y-78259998D01*
X92232179Y-78233407D01*
X92235966Y-78227740D01*
X92250500Y-78154674D01*
X92250500Y-77808515D01*
X96820000Y-77808515D01*
X96820000Y-79689999D01*
X96820001Y-79690000D01*
X97544999Y-79690000D01*
X97545000Y-79689999D01*
X97545000Y-79281054D01*
X97511450Y-79247504D01*
X97483673Y-79192987D01*
X97490851Y-79147663D01*
X97645000Y-79147663D01*
X97645000Y-79207337D01*
X97667836Y-79262468D01*
X97710032Y-79304664D01*
X97765163Y-79327500D01*
X97824837Y-79327500D01*
X97879968Y-79304664D01*
X97922164Y-79262468D01*
X97945000Y-79207337D01*
X97945000Y-79177499D01*
X98148553Y-79177499D01*
X98148553Y-79177500D01*
X98208895Y-79237843D01*
X98557500Y-79586447D01*
X98906105Y-79237843D01*
X98966447Y-79177500D01*
X98966447Y-79177499D01*
X98936611Y-79147663D01*
X99170000Y-79147663D01*
X99170000Y-79207337D01*
X99192836Y-79262468D01*
X99235032Y-79304664D01*
X99290163Y-79327500D01*
X99349837Y-79327500D01*
X99404968Y-79304664D01*
X99447164Y-79262468D01*
X99470000Y-79207337D01*
X99470000Y-79177499D01*
X99673553Y-79177499D01*
X99673553Y-79177500D01*
X99733895Y-79237843D01*
X100082500Y-79586447D01*
X100431105Y-79237843D01*
X100491447Y-79177500D01*
X100491447Y-79177499D01*
X100461611Y-79147663D01*
X100695000Y-79147663D01*
X100695000Y-79207337D01*
X100717836Y-79262468D01*
X100760032Y-79304664D01*
X100815163Y-79327500D01*
X100874837Y-79327500D01*
X100929968Y-79304664D01*
X100972164Y-79262468D01*
X100995000Y-79207337D01*
X100995000Y-79147663D01*
X100972164Y-79092532D01*
X100929968Y-79050336D01*
X100874837Y-79027500D01*
X100815163Y-79027500D01*
X100760032Y-79050336D01*
X100717836Y-79092532D01*
X100695000Y-79147663D01*
X100461611Y-79147663D01*
X100431105Y-79117157D01*
X100082500Y-78768553D01*
X99733895Y-79117157D01*
X99673553Y-79177499D01*
X99470000Y-79177499D01*
X99470000Y-79147663D01*
X99447164Y-79092532D01*
X99404968Y-79050336D01*
X99349837Y-79027500D01*
X99290163Y-79027500D01*
X99235032Y-79050336D01*
X99192836Y-79092532D01*
X99170000Y-79147663D01*
X98936611Y-79147663D01*
X98906105Y-79117157D01*
X98557500Y-78768553D01*
X98208895Y-79117157D01*
X98148553Y-79177499D01*
X97945000Y-79177499D01*
X97945000Y-79147663D01*
X97922164Y-79092532D01*
X97879968Y-79050336D01*
X97824837Y-79027500D01*
X97765163Y-79027500D01*
X97710032Y-79050336D01*
X97667836Y-79092532D01*
X97645000Y-79147663D01*
X97490851Y-79147663D01*
X97493244Y-79132555D01*
X97511450Y-79107496D01*
X97545000Y-79073946D01*
X97545000Y-78385163D01*
X98407500Y-78385163D01*
X98407500Y-78444837D01*
X98430336Y-78499968D01*
X98472532Y-78542164D01*
X98527663Y-78565000D01*
X98587337Y-78565000D01*
X98642468Y-78542164D01*
X98684664Y-78499968D01*
X98707500Y-78444837D01*
X98707500Y-78385163D01*
X99932500Y-78385163D01*
X99932500Y-78444837D01*
X99955336Y-78499968D01*
X99997532Y-78542164D01*
X100052663Y-78565000D01*
X100112337Y-78565000D01*
X100167468Y-78542164D01*
X100209664Y-78499968D01*
X100232500Y-78444837D01*
X100232500Y-78385163D01*
X100209664Y-78330032D01*
X100167468Y-78287836D01*
X100112337Y-78265000D01*
X100052663Y-78265000D01*
X99997532Y-78287836D01*
X99955336Y-78330032D01*
X99932500Y-78385163D01*
X98707500Y-78385163D01*
X98684664Y-78330032D01*
X98642468Y-78287836D01*
X98587337Y-78265000D01*
X98527663Y-78265000D01*
X98472532Y-78287836D01*
X98430336Y-78330032D01*
X98407500Y-78385163D01*
X97545000Y-78385163D01*
X97545000Y-78264000D01*
X97563907Y-78205809D01*
X97613407Y-78169845D01*
X97644000Y-78165000D01*
X98453946Y-78165000D01*
X98487496Y-78131450D01*
X98542013Y-78103673D01*
X98602445Y-78113244D01*
X98627504Y-78131450D01*
X98661054Y-78165000D01*
X99069999Y-78165000D01*
X99070000Y-78164999D01*
X99070000Y-77440001D01*
X99570000Y-77440001D01*
X99570000Y-78164999D01*
X99570001Y-78165000D01*
X99978946Y-78165000D01*
X100012496Y-78131450D01*
X100067013Y-78103673D01*
X100127445Y-78113244D01*
X100152504Y-78131450D01*
X100186054Y-78165000D01*
X100996000Y-78165000D01*
X101054191Y-78183907D01*
X101090155Y-78233407D01*
X101095000Y-78264000D01*
X101095000Y-79073947D01*
X101128549Y-79107497D01*
X101156326Y-79162014D01*
X101146754Y-79222446D01*
X101128549Y-79247503D01*
X101095000Y-79281052D01*
X101095000Y-79689999D01*
X101095001Y-79690000D01*
X101819998Y-79690000D01*
X101819999Y-79689999D01*
X101819999Y-77808516D01*
X101819998Y-77808514D01*
X101805166Y-77714858D01*
X101805163Y-77714848D01*
X101747641Y-77601956D01*
X101658043Y-77512358D01*
X101545151Y-77454836D01*
X101545147Y-77454835D01*
X101451484Y-77440000D01*
X99570001Y-77440000D01*
X99570000Y-77440001D01*
X99070000Y-77440001D01*
X99069999Y-77440000D01*
X97188516Y-77440000D01*
X97188514Y-77440001D01*
X97094858Y-77454833D01*
X97094848Y-77454836D01*
X96981956Y-77512358D01*
X96892358Y-77601956D01*
X96834836Y-77714848D01*
X96834835Y-77714852D01*
X96820000Y-77808515D01*
X92250500Y-77808515D01*
X92250500Y-77205326D01*
X92235966Y-77132260D01*
X92214411Y-77100000D01*
X92197803Y-77041114D01*
X92214412Y-76989998D01*
X92235966Y-76957740D01*
X92250500Y-76884674D01*
X92250500Y-75935326D01*
X92235966Y-75862260D01*
X92214411Y-75830001D01*
X92197803Y-75771114D01*
X92214412Y-75719998D01*
X92235966Y-75687740D01*
X92250500Y-75614674D01*
X92250500Y-74665326D01*
X92235966Y-74592260D01*
X92214411Y-74560000D01*
X92197803Y-74501114D01*
X92214412Y-74449998D01*
X92215079Y-74449000D01*
X92235966Y-74417740D01*
X92250500Y-74344674D01*
X92250500Y-73406192D01*
X92269407Y-73348001D01*
X92279498Y-73336187D01*
X92327639Y-73288047D01*
X92385163Y-73175151D01*
X92385164Y-73175147D01*
X92400000Y-73081484D01*
X92400000Y-72850001D01*
X92399999Y-72850000D01*
X91099000Y-72850000D01*
X91040809Y-72831093D01*
X91004845Y-72781593D01*
X91000000Y-72751000D01*
X91000000Y-71750001D01*
X91500000Y-71750001D01*
X91500000Y-72349999D01*
X91500001Y-72350000D01*
X92399998Y-72350000D01*
X92399999Y-72349999D01*
X92399999Y-72118516D01*
X92399998Y-72118515D01*
X107600000Y-72118515D01*
X107600000Y-72349999D01*
X107600001Y-72350000D01*
X108499999Y-72350000D01*
X108500000Y-72349999D01*
X108500000Y-71750001D01*
X109000000Y-71750001D01*
X109000000Y-72349999D01*
X109000001Y-72350000D01*
X109899998Y-72350000D01*
X109899999Y-72349999D01*
X109899999Y-72118516D01*
X109899998Y-72118514D01*
X109885166Y-72024858D01*
X109885163Y-72024848D01*
X109827641Y-71911956D01*
X109738043Y-71822358D01*
X109625151Y-71764836D01*
X109625147Y-71764835D01*
X109531484Y-71750000D01*
X109000001Y-71750000D01*
X109000000Y-71750001D01*
X108500000Y-71750001D01*
X108499999Y-71750000D01*
X107968516Y-71750000D01*
X107968514Y-71750001D01*
X107874858Y-71764833D01*
X107874848Y-71764836D01*
X107761956Y-71822358D01*
X107672358Y-71911956D01*
X107614836Y-72024848D01*
X107614835Y-72024852D01*
X107600000Y-72118515D01*
X92399998Y-72118515D01*
X92399998Y-72118514D01*
X92385166Y-72024858D01*
X92385163Y-72024848D01*
X92327641Y-71911956D01*
X92238043Y-71822358D01*
X92125151Y-71764836D01*
X92125147Y-71764835D01*
X92031484Y-71750000D01*
X91500001Y-71750000D01*
X91500000Y-71750001D01*
X91000000Y-71750001D01*
X90999999Y-71750000D01*
X90468520Y-71750000D01*
X90389484Y-71762517D01*
X90329053Y-71752943D01*
X90285789Y-71709678D01*
X90275000Y-71664735D01*
X90275000Y-71536894D01*
X90272211Y-71501453D01*
X90272209Y-71501447D01*
X90228153Y-71349807D01*
X90225680Y-71344090D01*
X90226799Y-71343605D01*
X90214859Y-71290180D01*
X90239160Y-71234028D01*
X90291826Y-71202884D01*
X90313419Y-71200500D01*
X111039883Y-71200500D01*
X111090356Y-71179593D01*
X111113574Y-71169976D01*
X111169976Y-71113574D01*
X111170994Y-71111115D01*
X111173866Y-71107753D01*
X111175395Y-71105465D01*
X111175665Y-71105645D01*
X111210730Y-71064589D01*
X111262459Y-71050000D01*
X114300500Y-71050000D01*
X114358691Y-71068907D01*
G37*
G04 #@! TD.AperFunction*
G04 #@! TA.AperFunction,Conductor*
G36*
X88635460Y-71068907D02*
G01*
X88671424Y-71118407D01*
X88671424Y-71179593D01*
X88655496Y-71209676D01*
X88652229Y-71213887D01*
X88571845Y-71349810D01*
X88527790Y-71501447D01*
X88527788Y-71501453D01*
X88525000Y-71536894D01*
X88525000Y-71574999D01*
X88525001Y-71575000D01*
X89551000Y-71575000D01*
X89609191Y-71593907D01*
X89645155Y-71643407D01*
X89650000Y-71674000D01*
X89650000Y-71976000D01*
X89631093Y-72034191D01*
X89581593Y-72070155D01*
X89551000Y-72075000D01*
X88525001Y-72075000D01*
X88525000Y-72075001D01*
X88525000Y-72113105D01*
X88527788Y-72148546D01*
X88527790Y-72148552D01*
X88571845Y-72300189D01*
X88652227Y-72436109D01*
X88763890Y-72547772D01*
X88858023Y-72603442D01*
X88898486Y-72649338D01*
X88904244Y-72710252D01*
X88873098Y-72762917D01*
X88866957Y-72767909D01*
X88810317Y-72810309D01*
X88810309Y-72810317D01*
X88762810Y-72873768D01*
X88712801Y-72909021D01*
X88651622Y-72908147D01*
X88645673Y-72905904D01*
X88617994Y-72894439D01*
X88543709Y-72863670D01*
X88543706Y-72863669D01*
X88543708Y-72863669D01*
X88400000Y-72844750D01*
X88256291Y-72863669D01*
X88256290Y-72863670D01*
X88122378Y-72919137D01*
X88122374Y-72919139D01*
X88007381Y-73007377D01*
X88007377Y-73007381D01*
X87919139Y-73122374D01*
X87919137Y-73122378D01*
X87863670Y-73256290D01*
X87863669Y-73256291D01*
X87844750Y-73399999D01*
X87844750Y-73400000D01*
X87863669Y-73543708D01*
X87863670Y-73543709D01*
X87919139Y-73677625D01*
X88007379Y-73792621D01*
X88122375Y-73880861D01*
X88150886Y-73892670D01*
X88153287Y-73893665D01*
X88199813Y-73933401D01*
X88214097Y-73992896D01*
X88194286Y-74044948D01*
X88104878Y-74162851D01*
X88050421Y-74300943D01*
X88044529Y-74350000D01*
X88871000Y-74350000D01*
X88929191Y-74368907D01*
X88965155Y-74418407D01*
X88970000Y-74449000D01*
X88970000Y-74751000D01*
X88951093Y-74809191D01*
X88901593Y-74845155D01*
X88871000Y-74850000D01*
X88044531Y-74850000D01*
X88050420Y-74899051D01*
X88104880Y-75037150D01*
X88187074Y-75145540D01*
X88207169Y-75203331D01*
X88197131Y-75248838D01*
X88170418Y-75303480D01*
X88170418Y-75303482D01*
X88159500Y-75378418D01*
X88159500Y-75821582D01*
X88170418Y-75896518D01*
X88175821Y-75907569D01*
X88193211Y-75943142D01*
X88201782Y-76003725D01*
X88183154Y-76046441D01*
X88094878Y-76162851D01*
X88040421Y-76300943D01*
X88034529Y-76350000D01*
X88861000Y-76350000D01*
X88919191Y-76368907D01*
X88955155Y-76418407D01*
X88960000Y-76449000D01*
X88960000Y-76751000D01*
X88941093Y-76809191D01*
X88891593Y-76845155D01*
X88861000Y-76850000D01*
X88034531Y-76850000D01*
X88040421Y-76899055D01*
X88047530Y-76917083D01*
X88051288Y-76978153D01*
X88018431Y-77029768D01*
X87961511Y-77052213D01*
X87902269Y-77036915D01*
X87885428Y-77023404D01*
X86455696Y-75593672D01*
X86427919Y-75539155D01*
X86426700Y-75523668D01*
X86426700Y-72156990D01*
X86424437Y-72148546D01*
X86404436Y-72073899D01*
X86404436Y-72073898D01*
X86404436Y-72073897D01*
X86361428Y-71999406D01*
X86361426Y-71999404D01*
X86361425Y-71999402D01*
X86100598Y-71738575D01*
X86057588Y-71713743D01*
X86026104Y-71695565D01*
X86026103Y-71695564D01*
X86026102Y-71695564D01*
X85943011Y-71673300D01*
X85943009Y-71673300D01*
X85699500Y-71673300D01*
X85641309Y-71654393D01*
X85605345Y-71604893D01*
X85600500Y-71574300D01*
X85600500Y-71149000D01*
X85619407Y-71090809D01*
X85668907Y-71054845D01*
X85699500Y-71050000D01*
X88577269Y-71050000D01*
X88635460Y-71068907D01*
G37*
G04 #@! TD.AperFunction*
G04 #@! TD*
D49*
X85000000Y-115000000D02*
G75*
G02*
X83000000Y-113000000I0J2000000D01*
G01*
X115000000Y-115000000D02*
X85000000Y-115000000D01*
X83000000Y-113000000D02*
X83000000Y-67000000D01*
X117000000Y-67000000D02*
X117000000Y-113000000D01*
X115000000Y-65000000D02*
X111000000Y-65000000D01*
X89000000Y-71000000D02*
X89000000Y-65000000D01*
X115000000Y-65000000D02*
G75*
G02*
X117000000Y-67000000I0J-2000000D01*
G01*
X111000000Y-71000000D02*
X89000000Y-71000000D01*
X89000000Y-65000000D02*
X85000000Y-65000000D01*
X83000000Y-67000000D02*
G75*
G02*
X85000000Y-65000000I2000000J0D01*
G01*
X111000000Y-65000000D02*
X111000000Y-71000000D01*
X117000000Y-113000000D02*
G75*
G02*
X115000000Y-115000000I-2000000J0D01*
G01*
M02*
