G04 #@! TF.GenerationSoftware,KiCad,Pcbnew,8.0.2*
G04 #@! TF.CreationDate,2024-05-24T09:08:15+10:00*
G04 #@! TF.ProjectId,design,64657369-676e-42e6-9b69-6361645f7063,rev?*
G04 #@! TF.SameCoordinates,Original*
G04 #@! TF.FileFunction,Copper,L2,Bot*
G04 #@! TF.FilePolarity,Positive*
%FSLAX46Y46*%
G04 Gerber Fmt 4.6, Leading zero omitted, Abs format (unit mm)*
G04 Created by KiCad (PCBNEW 8.0.2) date 2024-05-24 09:08:15*
%MOMM*%
%LPD*%
G01*
G04 APERTURE LIST*
G04 Aperture macros list*
%AMRoundRect*
0 Rectangle with rounded corners*
0 $1 Rounding radius*
0 $2 $3 $4 $5 $6 $7 $8 $9 X,Y pos of 4 corners*
0 Add a 4 corners polygon primitive as box body*
4,1,4,$2,$3,$4,$5,$6,$7,$8,$9,$2,$3,0*
0 Add four circle primitives for the rounded corners*
1,1,$1+$1,$2,$3*
1,1,$1+$1,$4,$5*
1,1,$1+$1,$6,$7*
1,1,$1+$1,$8,$9*
0 Add four rect primitives between the rounded corners*
20,1,$1+$1,$2,$3,$4,$5,0*
20,1,$1+$1,$4,$5,$6,$7,0*
20,1,$1+$1,$6,$7,$8,$9,0*
20,1,$1+$1,$8,$9,$2,$3,0*%
G04 Aperture macros list end*
G04 #@! TA.AperFunction,HeatsinkPad*
%ADD10C,0.600000*%
G04 #@! TD*
G04 #@! TA.AperFunction,ComponentPad*
%ADD11RoundRect,0.250000X0.600000X0.750000X-0.600000X0.750000X-0.600000X-0.750000X0.600000X-0.750000X0*%
G04 #@! TD*
G04 #@! TA.AperFunction,ComponentPad*
%ADD12O,1.700000X2.000000*%
G04 #@! TD*
G04 #@! TA.AperFunction,ComponentPad*
%ADD13O,1.000000X2.100000*%
G04 #@! TD*
G04 #@! TA.AperFunction,ComponentPad*
%ADD14O,1.000000X1.600000*%
G04 #@! TD*
G04 #@! TA.AperFunction,ComponentPad*
%ADD15R,1.700000X1.700000*%
G04 #@! TD*
G04 #@! TA.AperFunction,ComponentPad*
%ADD16O,1.700000X1.700000*%
G04 #@! TD*
G04 #@! TA.AperFunction,ViaPad*
%ADD17C,0.600000*%
G04 #@! TD*
G04 #@! TA.AperFunction,Conductor*
%ADD18C,0.406400*%
G04 #@! TD*
G04 #@! TA.AperFunction,Conductor*
%ADD19C,0.304800*%
G04 #@! TD*
G04 #@! TA.AperFunction,Conductor*
%ADD20C,0.152400*%
G04 #@! TD*
G04 #@! TA.AperFunction,Profile*
%ADD21C,0.100000*%
G04 #@! TD*
G04 APERTURE END LIST*
D10*
G04 #@! TO.P,U3,39,GND*
G04 #@! TO.N,GND*
X97795000Y-79177500D03*
X97795000Y-80702500D03*
X98557500Y-78415000D03*
X98557500Y-79940000D03*
X98557500Y-81465000D03*
X99320000Y-79177500D03*
X99320000Y-80702500D03*
X100082500Y-78415000D03*
X100082500Y-79940000D03*
X100082500Y-81465000D03*
X100845000Y-79177500D03*
X100845000Y-80702500D03*
G04 #@! TD*
D11*
G04 #@! TO.P,J4,1,Pin_1*
G04 #@! TO.N,+BATT*
X93650000Y-109167500D03*
D12*
G04 #@! TO.P,J4,2,Pin_2*
G04 #@! TO.N,GND*
X91150000Y-109167500D03*
G04 #@! TD*
D13*
G04 #@! TO.P,J1,S1,SHIELD*
G04 #@! TO.N,GND*
X100980000Y-109000000D03*
D14*
X100980000Y-113180000D03*
D13*
X109620000Y-109000000D03*
D14*
X109620000Y-113180000D03*
G04 #@! TD*
D15*
G04 #@! TO.P,J2,1,Pin_1*
G04 #@! TO.N,/IO36*
X84500000Y-72000000D03*
D16*
G04 #@! TO.P,J2,2,Pin_2*
G04 #@! TO.N,/IO39*
X84500000Y-74540000D03*
G04 #@! TO.P,J2,3,Pin_3*
G04 #@! TO.N,/IO34*
X84500000Y-77080000D03*
G04 #@! TO.P,J2,4,Pin_4*
G04 #@! TO.N,/IO35*
X84500000Y-79620000D03*
G04 #@! TO.P,J2,5,Pin_5*
G04 #@! TO.N,/IO32*
X84500000Y-82160000D03*
G04 #@! TO.P,J2,6,Pin_6*
G04 #@! TO.N,/IO33*
X84500000Y-84700000D03*
G04 #@! TO.P,J2,7,Pin_7*
G04 #@! TO.N,/IO25*
X84500000Y-87240000D03*
G04 #@! TO.P,J2,8,Pin_8*
G04 #@! TO.N,/IO26*
X84500000Y-89780000D03*
G04 #@! TO.P,J2,9,Pin_9*
G04 #@! TO.N,/IO27*
X84500000Y-92320000D03*
G04 #@! TO.P,J2,10,Pin_10*
G04 #@! TO.N,/IO14*
X84500000Y-94860000D03*
G04 #@! TO.P,J2,11,Pin_11*
G04 #@! TO.N,/IO12*
X84500000Y-97400000D03*
G04 #@! TO.P,J2,12,Pin_12*
G04 #@! TO.N,/IO13*
X84500000Y-99940000D03*
G04 #@! TO.P,J2,13,Pin_13*
G04 #@! TO.N,+3.3V*
X84500000Y-102480000D03*
G04 #@! TO.P,J2,14,Pin_14*
G04 #@! TO.N,GND*
X84500000Y-105020000D03*
G04 #@! TO.P,J2,15,Pin_15*
G04 #@! TO.N,/VIN*
X84500000Y-107560000D03*
G04 #@! TD*
D15*
G04 #@! TO.P,J3,1,Pin_1*
G04 #@! TO.N,/IO23*
X115500000Y-72000000D03*
D16*
G04 #@! TO.P,J3,2,Pin_2*
G04 #@! TO.N,/IO22*
X115500000Y-74540000D03*
G04 #@! TO.P,J3,3,Pin_3*
G04 #@! TO.N,/TXD0*
X115500000Y-77080000D03*
G04 #@! TO.P,J3,4,Pin_4*
G04 #@! TO.N,/RXD0*
X115500000Y-79620000D03*
G04 #@! TO.P,J3,5,Pin_5*
G04 #@! TO.N,/IO21*
X115500000Y-82160000D03*
G04 #@! TO.P,J3,6,Pin_6*
G04 #@! TO.N,/IO19*
X115500000Y-84700000D03*
G04 #@! TO.P,J3,7,Pin_7*
G04 #@! TO.N,/IO18*
X115500000Y-87240000D03*
G04 #@! TO.P,J3,8,Pin_8*
G04 #@! TO.N,/IO5*
X115500000Y-89780000D03*
G04 #@! TO.P,J3,9,Pin_9*
G04 #@! TO.N,/IO17*
X115500000Y-92320000D03*
G04 #@! TO.P,J3,10,Pin_10*
G04 #@! TO.N,/IO16*
X115500000Y-94860000D03*
G04 #@! TO.P,J3,11,Pin_11*
G04 #@! TO.N,/IO4*
X115500000Y-97400000D03*
G04 #@! TO.P,J3,12,Pin_12*
G04 #@! TO.N,/IO0*
X115500000Y-99940000D03*
G04 #@! TO.P,J3,13,Pin_13*
G04 #@! TO.N,/IO2*
X115500000Y-102480000D03*
G04 #@! TO.P,J3,14,Pin_14*
G04 #@! TO.N,/IO15*
X115500000Y-105020000D03*
G04 #@! TO.P,J3,15,Pin_15*
G04 #@! TO.N,GND*
X115500000Y-107560000D03*
G04 #@! TD*
D17*
G04 #@! TO.N,+BATT*
X96900000Y-99600000D03*
X95705000Y-106295000D03*
G04 #@! TO.N,GND*
X87900000Y-71800000D03*
X105000000Y-71500000D03*
X102000000Y-71500000D03*
X109000000Y-91400000D03*
X87900000Y-74600000D03*
X98900000Y-102400000D03*
X93980000Y-96901000D03*
X97500000Y-71500000D03*
X89916000Y-98552000D03*
X93000000Y-71500000D03*
X92964000Y-100584000D03*
X109200000Y-101400000D03*
X110500000Y-71500000D03*
X106500000Y-71500000D03*
X110500000Y-91948000D03*
X109200000Y-103100000D03*
X97800000Y-107900000D03*
X103600000Y-101600000D03*
X100200000Y-106300000D03*
X99000000Y-71500000D03*
X96000000Y-71500000D03*
X101500000Y-96100000D03*
X100500000Y-71500000D03*
X112000000Y-71500000D03*
X87900000Y-76500000D03*
X88000000Y-102489000D03*
X88200000Y-104400000D03*
X99300000Y-92500000D03*
X103500000Y-71500000D03*
X93000000Y-94900000D03*
X107600000Y-97000000D03*
X99300000Y-94900000D03*
X93100000Y-92500000D03*
X110998000Y-104775000D03*
X104000000Y-92500000D03*
X90900000Y-96800000D03*
X110300000Y-88600000D03*
X94500000Y-71500000D03*
G04 #@! TO.N,+3.3V*
X88600000Y-95300000D03*
X106200000Y-98100000D03*
X103650000Y-103150000D03*
X99200000Y-97900000D03*
X90900000Y-99500000D03*
X88400000Y-73400000D03*
G04 #@! TO.N,/RESET*
X89342220Y-77213620D03*
X89400000Y-94100000D03*
G04 #@! TO.N,/TXD0*
X102700000Y-103300000D03*
X107400000Y-76400000D03*
G04 #@! TO.N,/RXD0*
X101500000Y-103300000D03*
X106773800Y-77600000D03*
G04 #@! TO.N,/IO0*
X105900000Y-94100000D03*
X108226200Y-94100000D03*
G04 #@! TO.N,/D+*
X104947600Y-107100000D03*
X106200000Y-107200000D03*
G04 #@! TD*
D18*
G04 #@! TO.N,+BATT*
X96900000Y-105100000D02*
X95705000Y-106295000D01*
X96900000Y-99600000D02*
X96900000Y-105100000D01*
D19*
G04 #@! TO.N,+3.3V*
X99100000Y-98000000D02*
X99200000Y-97900000D01*
X90900000Y-99500000D02*
X94400000Y-99500000D01*
X94400000Y-99500000D02*
X95900000Y-98000000D01*
X106200000Y-98100000D02*
X106200000Y-100600000D01*
D18*
X88600000Y-95300000D02*
X88600000Y-73600000D01*
D19*
X106200000Y-100600000D02*
X103650000Y-103150000D01*
X95900000Y-98000000D02*
X99100000Y-98000000D01*
D18*
X88600000Y-73600000D02*
X88400000Y-73400000D01*
D20*
G04 #@! TO.N,/RESET*
X89342220Y-77213620D02*
X89342220Y-94042220D01*
X89342220Y-94042220D02*
X89400000Y-94100000D01*
G04 #@! TO.N,/TXD0*
X102700000Y-83900000D02*
X107300000Y-79300000D01*
X107300000Y-79300000D02*
X107300000Y-76500000D01*
X102700000Y-103300000D02*
X102700000Y-83900000D01*
X107300000Y-76500000D02*
X107400000Y-76400000D01*
G04 #@! TO.N,/RXD0*
X102300000Y-83800000D02*
X106773800Y-79326200D01*
X102300000Y-102500000D02*
X101500000Y-103300000D01*
X106773800Y-77600000D02*
X106773800Y-79326200D01*
X102300000Y-83800000D02*
X102300000Y-102500000D01*
G04 #@! TO.N,/IO0*
X105900000Y-94100000D02*
X108226200Y-94100000D01*
D19*
G04 #@! TO.N,/D+*
X105047600Y-107200000D02*
X104947600Y-107100000D01*
X106200000Y-107200000D02*
X105047600Y-107200000D01*
G04 #@! TD*
G04 #@! TA.AperFunction,Conductor*
G04 #@! TO.N,GND*
G36*
X83358691Y-71068907D02*
G01*
X83394655Y-71118407D01*
X83399500Y-71149000D01*
X83399500Y-72874672D01*
X83399501Y-72874684D01*
X83414033Y-72947736D01*
X83414035Y-72947742D01*
X83469397Y-73030599D01*
X83469399Y-73030601D01*
X83552260Y-73085966D01*
X83607808Y-73097015D01*
X83625315Y-73100498D01*
X83625320Y-73100498D01*
X83625326Y-73100500D01*
X83625327Y-73100500D01*
X85374673Y-73100500D01*
X85374674Y-73100500D01*
X85447740Y-73085966D01*
X85530601Y-73030601D01*
X85585966Y-72947740D01*
X85600500Y-72874674D01*
X85600500Y-71149000D01*
X85619407Y-71090809D01*
X85668907Y-71054845D01*
X85699500Y-71050000D01*
X88737541Y-71050000D01*
X88795732Y-71068907D01*
X88824569Y-71105488D01*
X88824605Y-71105465D01*
X88824904Y-71105912D01*
X88829005Y-71111115D01*
X88830024Y-71113574D01*
X88886426Y-71169976D01*
X88886427Y-71169976D01*
X88886428Y-71169977D01*
X88960117Y-71200500D01*
X88960118Y-71200500D01*
X111039883Y-71200500D01*
X111086351Y-71181251D01*
X111113574Y-71169976D01*
X111169976Y-71113574D01*
X111170994Y-71111115D01*
X111173866Y-71107753D01*
X111175395Y-71105465D01*
X111175665Y-71105645D01*
X111210730Y-71064589D01*
X111262459Y-71050000D01*
X114300500Y-71050000D01*
X114358691Y-71068907D01*
X114394655Y-71118407D01*
X114399500Y-71149000D01*
X114399500Y-72874672D01*
X114399501Y-72874684D01*
X114414033Y-72947736D01*
X114414035Y-72947742D01*
X114469397Y-73030599D01*
X114469399Y-73030601D01*
X114552260Y-73085966D01*
X114607808Y-73097015D01*
X114625315Y-73100498D01*
X114625320Y-73100498D01*
X114625326Y-73100500D01*
X114625327Y-73100500D01*
X116374673Y-73100500D01*
X116374674Y-73100500D01*
X116447740Y-73085966D01*
X116530601Y-73030601D01*
X116585966Y-72947740D01*
X116600500Y-72874674D01*
X116600500Y-71149000D01*
X116619407Y-71090809D01*
X116668907Y-71054845D01*
X116699500Y-71050000D01*
X116700500Y-71050000D01*
X116758691Y-71068907D01*
X116794655Y-71118407D01*
X116799500Y-71149000D01*
X116799500Y-74495331D01*
X116786205Y-74536247D01*
X116799500Y-74584668D01*
X116799500Y-77035331D01*
X116786205Y-77076247D01*
X116799500Y-77124668D01*
X116799500Y-79575331D01*
X116786205Y-79616247D01*
X116799500Y-79664668D01*
X116799500Y-82115331D01*
X116786205Y-82156247D01*
X116799500Y-82204668D01*
X116799500Y-84655331D01*
X116786205Y-84696247D01*
X116799500Y-84744668D01*
X116799500Y-87195331D01*
X116786205Y-87236247D01*
X116799500Y-87284668D01*
X116799500Y-89735331D01*
X116786205Y-89776247D01*
X116799500Y-89824668D01*
X116799500Y-92275331D01*
X116786205Y-92316247D01*
X116799500Y-92364668D01*
X116799500Y-94815331D01*
X116786205Y-94856247D01*
X116799500Y-94904668D01*
X116799500Y-97355331D01*
X116786205Y-97396247D01*
X116799500Y-97444668D01*
X116799500Y-99895331D01*
X116786205Y-99936247D01*
X116799500Y-99984668D01*
X116799500Y-102435331D01*
X116786205Y-102476247D01*
X116799500Y-102524668D01*
X116799500Y-104975331D01*
X116786205Y-105016247D01*
X116799500Y-105064668D01*
X116799500Y-106942473D01*
X116780593Y-107000664D01*
X116731093Y-107036628D01*
X116669907Y-107036628D01*
X116620407Y-107000664D01*
X116610776Y-106984313D01*
X116586670Y-106932619D01*
X116586668Y-106932615D01*
X116461216Y-106753450D01*
X116306549Y-106598783D01*
X116127386Y-106473332D01*
X115929157Y-106380897D01*
X115717881Y-106324286D01*
X115616836Y-106315446D01*
X115560515Y-106291539D01*
X115529002Y-106239093D01*
X115534335Y-106178140D01*
X115574477Y-106131963D01*
X115607270Y-106119510D01*
X115802456Y-106083024D01*
X115992637Y-106009348D01*
X116166041Y-105901981D01*
X116316764Y-105764579D01*
X116439673Y-105601821D01*
X116530582Y-105419250D01*
X116586397Y-105223083D01*
X116601922Y-105055531D01*
X116616202Y-105022364D01*
X116601922Y-104984466D01*
X116599115Y-104954174D01*
X116586397Y-104816917D01*
X116530582Y-104620750D01*
X116439673Y-104438179D01*
X116316764Y-104275421D01*
X116166041Y-104138019D01*
X115992637Y-104030652D01*
X115802456Y-103956976D01*
X115802455Y-103956975D01*
X115802453Y-103956975D01*
X115601976Y-103919500D01*
X115398024Y-103919500D01*
X115197546Y-103956975D01*
X115127632Y-103984059D01*
X115007363Y-104030652D01*
X114833959Y-104138019D01*
X114683237Y-104275420D01*
X114560328Y-104438177D01*
X114560323Y-104438186D01*
X114469419Y-104620747D01*
X114469418Y-104620750D01*
X114413603Y-104816917D01*
X114394785Y-105020000D01*
X114413603Y-105223083D01*
X114469418Y-105419250D01*
X114560327Y-105601821D01*
X114683236Y-105764579D01*
X114833959Y-105901981D01*
X115007363Y-106009348D01*
X115197544Y-106083024D01*
X115392726Y-106119509D01*
X115446451Y-106148786D01*
X115472707Y-106204052D01*
X115461464Y-106264195D01*
X115417017Y-106306244D01*
X115383163Y-106315446D01*
X115282118Y-106324286D01*
X115070842Y-106380897D01*
X114872614Y-106473332D01*
X114693450Y-106598783D01*
X114538783Y-106753450D01*
X114413332Y-106932614D01*
X114320897Y-107130843D01*
X114272892Y-107310000D01*
X115066988Y-107310000D01*
X115034075Y-107367007D01*
X115000000Y-107494174D01*
X115000000Y-107625826D01*
X115034075Y-107752993D01*
X115066988Y-107810000D01*
X114272892Y-107810000D01*
X114320897Y-107989156D01*
X114413332Y-108187386D01*
X114538783Y-108366549D01*
X114693450Y-108521216D01*
X114872613Y-108646667D01*
X115070844Y-108739103D01*
X115250000Y-108787106D01*
X115250000Y-107993012D01*
X115307007Y-108025925D01*
X115434174Y-108060000D01*
X115565826Y-108060000D01*
X115692993Y-108025925D01*
X115750000Y-107993012D01*
X115750000Y-108787105D01*
X115929155Y-108739103D01*
X116127386Y-108646667D01*
X116306549Y-108521216D01*
X116461216Y-108366549D01*
X116586668Y-108187385D01*
X116586669Y-108187383D01*
X116610775Y-108135688D01*
X116652503Y-108090939D01*
X116712564Y-108079264D01*
X116768017Y-108105121D01*
X116797681Y-108158635D01*
X116799500Y-108177526D01*
X116799500Y-112996759D01*
X116799288Y-113003234D01*
X116784529Y-113228405D01*
X116782839Y-113241244D01*
X116739449Y-113459382D01*
X116736097Y-113471891D01*
X116664604Y-113682500D01*
X116659648Y-113694463D01*
X116561284Y-113893926D01*
X116554809Y-113905142D01*
X116431242Y-114090072D01*
X116423359Y-114100345D01*
X116276717Y-114267560D01*
X116267560Y-114276717D01*
X116100345Y-114423359D01*
X116090072Y-114431242D01*
X115905142Y-114554809D01*
X115893926Y-114561284D01*
X115694463Y-114659648D01*
X115682500Y-114664604D01*
X115471891Y-114736097D01*
X115459382Y-114739449D01*
X115241244Y-114782839D01*
X115228405Y-114784529D01*
X115003234Y-114799288D01*
X114996759Y-114799500D01*
X85003241Y-114799500D01*
X84996766Y-114799288D01*
X84771594Y-114784529D01*
X84758755Y-114782839D01*
X84540617Y-114739449D01*
X84528108Y-114736097D01*
X84317499Y-114664604D01*
X84305536Y-114659648D01*
X84106073Y-114561284D01*
X84094857Y-114554809D01*
X83909927Y-114431242D01*
X83899654Y-114423359D01*
X83732439Y-114276717D01*
X83723282Y-114267560D01*
X83576640Y-114100345D01*
X83568757Y-114090072D01*
X83445190Y-113905142D01*
X83438715Y-113893926D01*
X83340351Y-113694463D01*
X83335395Y-113682500D01*
X83263902Y-113471891D01*
X83260550Y-113459382D01*
X83254706Y-113430000D01*
X83217159Y-113241237D01*
X83215470Y-113228405D01*
X83206847Y-113096845D01*
X83200712Y-113003234D01*
X83200500Y-112996759D01*
X83200500Y-112903154D01*
X83769500Y-112903154D01*
X83769500Y-113096845D01*
X83799797Y-113288138D01*
X83859651Y-113472348D01*
X83922550Y-113595796D01*
X83947582Y-113644923D01*
X84061427Y-113801617D01*
X84198383Y-113938573D01*
X84355077Y-114052418D01*
X84527652Y-114140349D01*
X84711857Y-114200201D01*
X84711858Y-114200201D01*
X84711861Y-114200202D01*
X84903155Y-114230500D01*
X84903158Y-114230500D01*
X85096845Y-114230500D01*
X85288138Y-114200202D01*
X85288139Y-114200201D01*
X85288143Y-114200201D01*
X85472348Y-114140349D01*
X85644923Y-114052418D01*
X85801617Y-113938573D01*
X85938573Y-113801617D01*
X86052418Y-113644923D01*
X86140349Y-113472348D01*
X86200201Y-113288143D01*
X86209663Y-113228405D01*
X86230500Y-113096845D01*
X86230500Y-112903154D01*
X86212793Y-112791355D01*
X100080000Y-112791355D01*
X100080000Y-112929999D01*
X100080001Y-112930000D01*
X100680000Y-112930000D01*
X100680000Y-113430000D01*
X100080001Y-113430000D01*
X100080000Y-113430001D01*
X100080000Y-113568644D01*
X100114586Y-113742519D01*
X100114586Y-113742521D01*
X100182429Y-113906308D01*
X100280923Y-114053715D01*
X100406284Y-114179076D01*
X100553689Y-114277569D01*
X100717476Y-114345413D01*
X100730000Y-114347903D01*
X100730000Y-113646988D01*
X100739940Y-113664205D01*
X100795795Y-113720060D01*
X100864204Y-113759556D01*
X100940504Y-113780000D01*
X101019496Y-113780000D01*
X101095796Y-113759556D01*
X101164205Y-113720060D01*
X101220060Y-113664205D01*
X101230000Y-113646988D01*
X101230000Y-114347903D01*
X101242523Y-114345413D01*
X101406310Y-114277569D01*
X101553715Y-114179076D01*
X101679076Y-114053715D01*
X101777570Y-113906308D01*
X101845413Y-113742521D01*
X101845413Y-113742519D01*
X101879999Y-113568644D01*
X101880000Y-113568641D01*
X101880000Y-113430001D01*
X101879999Y-113430000D01*
X101280000Y-113430000D01*
X101280000Y-112930000D01*
X101879999Y-112930000D01*
X101880000Y-112929999D01*
X101880000Y-112791358D01*
X101879999Y-112791355D01*
X108720000Y-112791355D01*
X108720000Y-112929999D01*
X108720001Y-112930000D01*
X109320000Y-112930000D01*
X109320000Y-113430000D01*
X108720001Y-113430000D01*
X108720000Y-113430001D01*
X108720000Y-113568644D01*
X108754586Y-113742519D01*
X108754586Y-113742521D01*
X108822429Y-113906308D01*
X108920923Y-114053715D01*
X109046284Y-114179076D01*
X109193689Y-114277569D01*
X109357476Y-114345413D01*
X109370000Y-114347903D01*
X109370000Y-113646988D01*
X109379940Y-113664205D01*
X109435795Y-113720060D01*
X109504204Y-113759556D01*
X109580504Y-113780000D01*
X109659496Y-113780000D01*
X109735796Y-113759556D01*
X109804205Y-113720060D01*
X109860060Y-113664205D01*
X109870000Y-113646988D01*
X109870000Y-114347903D01*
X109882523Y-114345413D01*
X110046310Y-114277569D01*
X110193715Y-114179076D01*
X110319076Y-114053715D01*
X110417570Y-113906308D01*
X110485413Y-113742521D01*
X110485413Y-113742519D01*
X110519999Y-113568644D01*
X110520000Y-113568641D01*
X110520000Y-113430001D01*
X110519999Y-113430000D01*
X109920000Y-113430000D01*
X109920000Y-112930000D01*
X110519999Y-112930000D01*
X110520000Y-112929999D01*
X110520000Y-112903154D01*
X113769500Y-112903154D01*
X113769500Y-113096845D01*
X113799797Y-113288138D01*
X113859651Y-113472348D01*
X113922550Y-113595796D01*
X113947582Y-113644923D01*
X114061427Y-113801617D01*
X114198383Y-113938573D01*
X114355077Y-114052418D01*
X114527652Y-114140349D01*
X114711857Y-114200201D01*
X114711858Y-114200201D01*
X114711861Y-114200202D01*
X114903155Y-114230500D01*
X114903158Y-114230500D01*
X115096845Y-114230500D01*
X115288138Y-114200202D01*
X115288139Y-114200201D01*
X115288143Y-114200201D01*
X115472348Y-114140349D01*
X115644923Y-114052418D01*
X115801617Y-113938573D01*
X115938573Y-113801617D01*
X116052418Y-113644923D01*
X116140349Y-113472348D01*
X116200201Y-113288143D01*
X116209663Y-113228405D01*
X116230500Y-113096845D01*
X116230500Y-112903154D01*
X116200202Y-112711861D01*
X116194982Y-112695795D01*
X116140349Y-112527652D01*
X116052418Y-112355077D01*
X115938573Y-112198383D01*
X115801617Y-112061427D01*
X115644923Y-111947582D01*
X115644922Y-111947581D01*
X115644920Y-111947580D01*
X115472348Y-111859651D01*
X115288138Y-111799797D01*
X115096845Y-111769500D01*
X115096842Y-111769500D01*
X114903158Y-111769500D01*
X114903155Y-111769500D01*
X114711861Y-111799797D01*
X114527651Y-111859651D01*
X114355079Y-111947580D01*
X114198384Y-112061426D01*
X114061426Y-112198384D01*
X113947580Y-112355079D01*
X113859651Y-112527651D01*
X113799797Y-112711861D01*
X113769500Y-112903154D01*
X110520000Y-112903154D01*
X110520000Y-112791358D01*
X110519999Y-112791355D01*
X110485413Y-112617480D01*
X110485413Y-112617478D01*
X110417570Y-112453691D01*
X110319076Y-112306284D01*
X110193715Y-112180923D01*
X110046310Y-112082430D01*
X109882521Y-112014586D01*
X109870000Y-112012095D01*
X109870000Y-112713011D01*
X109860060Y-112695795D01*
X109804205Y-112639940D01*
X109735796Y-112600444D01*
X109659496Y-112580000D01*
X109580504Y-112580000D01*
X109504204Y-112600444D01*
X109435795Y-112639940D01*
X109379940Y-112695795D01*
X109370000Y-112713011D01*
X109370000Y-112012095D01*
X109369999Y-112012095D01*
X109357478Y-112014586D01*
X109193689Y-112082430D01*
X109046284Y-112180923D01*
X108920923Y-112306284D01*
X108822429Y-112453691D01*
X108754586Y-112617478D01*
X108754586Y-112617480D01*
X108720000Y-112791355D01*
X101879999Y-112791355D01*
X101845413Y-112617480D01*
X101845413Y-112617478D01*
X101777570Y-112453691D01*
X101679076Y-112306284D01*
X101553715Y-112180923D01*
X101406310Y-112082430D01*
X101242521Y-112014586D01*
X101230000Y-112012095D01*
X101230000Y-112713011D01*
X101220060Y-112695795D01*
X101164205Y-112639940D01*
X101095796Y-112600444D01*
X101019496Y-112580000D01*
X100940504Y-112580000D01*
X100864204Y-112600444D01*
X100795795Y-112639940D01*
X100739940Y-112695795D01*
X100730000Y-112713011D01*
X100730000Y-112012095D01*
X100729999Y-112012095D01*
X100717478Y-112014586D01*
X100553689Y-112082430D01*
X100406284Y-112180923D01*
X100280923Y-112306284D01*
X100182429Y-112453691D01*
X100114586Y-112617478D01*
X100114586Y-112617480D01*
X100080000Y-112791355D01*
X86212793Y-112791355D01*
X86200202Y-112711861D01*
X86194982Y-112695795D01*
X86140349Y-112527652D01*
X86052418Y-112355077D01*
X85938573Y-112198383D01*
X85801617Y-112061427D01*
X85644923Y-111947582D01*
X85644922Y-111947581D01*
X85644920Y-111947580D01*
X85472348Y-111859651D01*
X85288138Y-111799797D01*
X85096845Y-111769500D01*
X85096842Y-111769500D01*
X84903158Y-111769500D01*
X84903155Y-111769500D01*
X84711861Y-111799797D01*
X84527651Y-111859651D01*
X84355079Y-111947580D01*
X84198384Y-112061426D01*
X84061426Y-112198384D01*
X83947580Y-112355079D01*
X83859651Y-112527651D01*
X83799797Y-112711861D01*
X83769500Y-112903154D01*
X83200500Y-112903154D01*
X83200500Y-108917500D01*
X89900257Y-108917500D01*
X90716988Y-108917500D01*
X90684075Y-108974507D01*
X90650000Y-109101674D01*
X90650000Y-109233326D01*
X90684075Y-109360493D01*
X90716988Y-109417500D01*
X89900257Y-109417500D01*
X89930778Y-109610210D01*
X89930779Y-109610214D01*
X89991576Y-109797326D01*
X89991578Y-109797329D01*
X90080903Y-109972642D01*
X90080907Y-109972648D01*
X90196549Y-110131814D01*
X90335685Y-110270950D01*
X90494851Y-110386592D01*
X90494857Y-110386596D01*
X90670166Y-110475919D01*
X90857295Y-110536722D01*
X90899999Y-110543485D01*
X90900000Y-110543484D01*
X90900000Y-109600512D01*
X90957007Y-109633425D01*
X91084174Y-109667500D01*
X91215826Y-109667500D01*
X91342993Y-109633425D01*
X91400000Y-109600512D01*
X91400000Y-110543485D01*
X91442704Y-110536722D01*
X91629833Y-110475919D01*
X91805142Y-110386596D01*
X91805148Y-110386592D01*
X91964314Y-110270950D01*
X92103450Y-110131814D01*
X92219092Y-109972648D01*
X92219096Y-109972642D01*
X92308419Y-109797333D01*
X92356345Y-109649834D01*
X92392309Y-109600334D01*
X92450500Y-109581427D01*
X92508691Y-109600334D01*
X92544655Y-109649834D01*
X92549500Y-109680427D01*
X92549500Y-109965366D01*
X92549500Y-109965369D01*
X92549501Y-109965372D01*
X92550283Y-109972642D01*
X92555908Y-110024980D01*
X92555909Y-110024985D01*
X92606202Y-110159829D01*
X92692450Y-110275041D01*
X92692454Y-110275046D01*
X92692457Y-110275048D01*
X92692458Y-110275049D01*
X92807670Y-110361297D01*
X92942511Y-110411589D01*
X92942512Y-110411589D01*
X92942517Y-110411591D01*
X93002127Y-110418000D01*
X94297872Y-110417999D01*
X94357483Y-110411591D01*
X94424907Y-110386443D01*
X94492329Y-110361297D01*
X94492329Y-110361296D01*
X94492331Y-110361296D01*
X94607546Y-110275046D01*
X94693796Y-110159831D01*
X94707267Y-110123715D01*
X94744089Y-110024988D01*
X94744090Y-110024985D01*
X94744091Y-110024983D01*
X94750500Y-109965373D01*
X94750499Y-108369628D01*
X94749610Y-108361355D01*
X100080000Y-108361355D01*
X100080000Y-108749999D01*
X100080001Y-108750000D01*
X100680000Y-108750000D01*
X100680000Y-109250000D01*
X100080001Y-109250000D01*
X100080000Y-109250001D01*
X100080000Y-109638644D01*
X100114586Y-109812519D01*
X100114586Y-109812521D01*
X100182429Y-109976308D01*
X100280923Y-110123715D01*
X100406284Y-110249076D01*
X100553689Y-110347569D01*
X100717476Y-110415413D01*
X100730000Y-110417903D01*
X100730000Y-109716988D01*
X100739940Y-109734205D01*
X100795795Y-109790060D01*
X100864204Y-109829556D01*
X100940504Y-109850000D01*
X101019496Y-109850000D01*
X101095796Y-109829556D01*
X101164205Y-109790060D01*
X101220060Y-109734205D01*
X101230000Y-109716988D01*
X101230000Y-110417903D01*
X101242523Y-110415413D01*
X101406310Y-110347569D01*
X101553715Y-110249076D01*
X101679076Y-110123715D01*
X101777570Y-109976309D01*
X101836489Y-109834065D01*
X101876225Y-109787539D01*
X101935720Y-109773255D01*
X101992248Y-109796669D01*
X102000909Y-109805796D01*
X102000911Y-109805795D01*
X102005497Y-109810381D01*
X102005499Y-109810384D01*
X102099616Y-109904501D01*
X102099618Y-109904502D01*
X102214880Y-109971049D01*
X102214878Y-109971049D01*
X102214882Y-109971050D01*
X102214884Y-109971051D01*
X102343450Y-110005500D01*
X102343452Y-110005500D01*
X102476548Y-110005500D01*
X102476550Y-110005500D01*
X102605116Y-109971051D01*
X102605118Y-109971049D01*
X102605120Y-109971049D01*
X102639362Y-109951278D01*
X102720384Y-109904501D01*
X102814501Y-109810384D01*
X102881051Y-109695116D01*
X102915500Y-109566550D01*
X102915500Y-109433450D01*
X107684500Y-109433450D01*
X107684500Y-109566550D01*
X107706816Y-109649834D01*
X107718950Y-109695120D01*
X107782850Y-109805796D01*
X107785499Y-109810384D01*
X107879616Y-109904501D01*
X107879618Y-109904502D01*
X107994880Y-109971049D01*
X107994878Y-109971049D01*
X107994882Y-109971050D01*
X107994884Y-109971051D01*
X108123450Y-110005500D01*
X108123452Y-110005500D01*
X108256548Y-110005500D01*
X108256550Y-110005500D01*
X108385116Y-109971051D01*
X108385118Y-109971049D01*
X108385120Y-109971049D01*
X108419362Y-109951278D01*
X108500384Y-109904501D01*
X108594501Y-109810384D01*
X108594502Y-109810381D01*
X108599089Y-109805795D01*
X108600304Y-109807010D01*
X108643922Y-109777029D01*
X108705086Y-109778626D01*
X108753630Y-109815870D01*
X108763510Y-109834064D01*
X108822430Y-109976310D01*
X108920923Y-110123715D01*
X109046284Y-110249076D01*
X109193689Y-110347569D01*
X109357476Y-110415413D01*
X109370000Y-110417903D01*
X109370000Y-109716988D01*
X109379940Y-109734205D01*
X109435795Y-109790060D01*
X109504204Y-109829556D01*
X109580504Y-109850000D01*
X109659496Y-109850000D01*
X109735796Y-109829556D01*
X109804205Y-109790060D01*
X109860060Y-109734205D01*
X109870000Y-109716988D01*
X109870000Y-110417903D01*
X109882523Y-110415413D01*
X110046310Y-110347569D01*
X110193715Y-110249076D01*
X110319076Y-110123715D01*
X110417570Y-109976308D01*
X110485413Y-109812521D01*
X110485413Y-109812519D01*
X110519999Y-109638644D01*
X110520000Y-109638641D01*
X110520000Y-109250001D01*
X110519999Y-109250000D01*
X109920000Y-109250000D01*
X109920000Y-108750000D01*
X110519999Y-108750000D01*
X110520000Y-108749999D01*
X110520000Y-108361358D01*
X110519999Y-108361355D01*
X110485413Y-108187480D01*
X110485413Y-108187478D01*
X110417570Y-108023691D01*
X110319076Y-107876284D01*
X110193715Y-107750923D01*
X110046310Y-107652430D01*
X109882521Y-107584586D01*
X109870000Y-107582095D01*
X109870000Y-108283011D01*
X109860060Y-108265795D01*
X109804205Y-108209940D01*
X109735796Y-108170444D01*
X109659496Y-108150000D01*
X109580504Y-108150000D01*
X109504204Y-108170444D01*
X109435795Y-108209940D01*
X109379940Y-108265795D01*
X109370000Y-108283011D01*
X109370000Y-107582095D01*
X109369999Y-107582095D01*
X109357478Y-107584586D01*
X109193689Y-107652430D01*
X109046284Y-107750923D01*
X108920923Y-107876284D01*
X108822429Y-108023691D01*
X108754586Y-108187478D01*
X108754586Y-108187480D01*
X108720000Y-108361355D01*
X108720000Y-108749999D01*
X108720001Y-108750000D01*
X109320000Y-108750000D01*
X109320000Y-109250000D01*
X108686521Y-109250000D01*
X108628330Y-109231093D01*
X108600786Y-109200502D01*
X108594501Y-109189616D01*
X108500384Y-109095499D01*
X108500381Y-109095497D01*
X108385119Y-109028950D01*
X108385121Y-109028950D01*
X108335235Y-109015583D01*
X108256550Y-108994500D01*
X108123450Y-108994500D01*
X108044764Y-109015583D01*
X107994879Y-109028950D01*
X107879618Y-109095497D01*
X107785497Y-109189618D01*
X107718950Y-109304879D01*
X107718949Y-109304884D01*
X107684500Y-109433450D01*
X102915500Y-109433450D01*
X102881051Y-109304884D01*
X102881049Y-109304881D01*
X102881049Y-109304879D01*
X102814502Y-109189618D01*
X102814501Y-109189616D01*
X102720384Y-109095499D01*
X102720381Y-109095497D01*
X102605119Y-109028950D01*
X102605121Y-109028950D01*
X102555235Y-109015583D01*
X102476550Y-108994500D01*
X102343450Y-108994500D01*
X102264764Y-109015583D01*
X102214879Y-109028950D01*
X102099618Y-109095497D01*
X102099616Y-109095499D01*
X102005499Y-109189616D01*
X101999214Y-109200501D01*
X101953746Y-109241441D01*
X101913479Y-109250000D01*
X101280000Y-109250000D01*
X101280000Y-108750000D01*
X101879999Y-108750000D01*
X101880000Y-108749999D01*
X101880000Y-108361358D01*
X101879999Y-108361355D01*
X101845413Y-108187480D01*
X101845413Y-108187478D01*
X101777570Y-108023691D01*
X101679076Y-107876284D01*
X101553715Y-107750923D01*
X101406310Y-107652430D01*
X101242521Y-107584586D01*
X101230000Y-107582095D01*
X101230000Y-108283011D01*
X101220060Y-108265795D01*
X101164205Y-108209940D01*
X101095796Y-108170444D01*
X101019496Y-108150000D01*
X100940504Y-108150000D01*
X100864204Y-108170444D01*
X100795795Y-108209940D01*
X100739940Y-108265795D01*
X100730000Y-108283011D01*
X100730000Y-107582095D01*
X100729999Y-107582095D01*
X100717478Y-107584586D01*
X100553689Y-107652430D01*
X100406284Y-107750923D01*
X100280923Y-107876284D01*
X100182429Y-108023691D01*
X100114586Y-108187478D01*
X100114586Y-108187480D01*
X100080000Y-108361355D01*
X94749610Y-108361355D01*
X94744091Y-108310017D01*
X94742063Y-108304579D01*
X94693797Y-108175170D01*
X94607549Y-108059958D01*
X94607548Y-108059957D01*
X94607546Y-108059954D01*
X94607541Y-108059950D01*
X94492329Y-107973702D01*
X94357488Y-107923410D01*
X94357483Y-107923409D01*
X94357481Y-107923408D01*
X94357477Y-107923408D01*
X94326249Y-107920050D01*
X94297873Y-107917000D01*
X94297870Y-107917000D01*
X93002133Y-107917000D01*
X93002129Y-107917000D01*
X93002128Y-107917001D01*
X92994949Y-107917772D01*
X92942519Y-107923408D01*
X92942514Y-107923409D01*
X92807670Y-107973702D01*
X92692458Y-108059950D01*
X92692450Y-108059958D01*
X92606202Y-108175170D01*
X92555910Y-108310011D01*
X92555908Y-108310022D01*
X92549500Y-108369629D01*
X92549500Y-108654570D01*
X92530593Y-108712761D01*
X92481093Y-108748725D01*
X92419907Y-108748725D01*
X92370407Y-108712761D01*
X92356346Y-108685163D01*
X92308423Y-108537673D01*
X92308421Y-108537670D01*
X92219096Y-108362357D01*
X92219092Y-108362351D01*
X92103450Y-108203185D01*
X91964314Y-108064049D01*
X91805148Y-107948407D01*
X91805142Y-107948403D01*
X91629833Y-107859080D01*
X91442706Y-107798279D01*
X91400000Y-107791514D01*
X91400000Y-108734488D01*
X91342993Y-108701575D01*
X91215826Y-108667500D01*
X91084174Y-108667500D01*
X90957007Y-108701575D01*
X90900000Y-108734488D01*
X90900000Y-107791514D01*
X90899999Y-107791514D01*
X90857293Y-107798279D01*
X90670166Y-107859080D01*
X90494857Y-107948403D01*
X90494851Y-107948407D01*
X90335685Y-108064049D01*
X90196549Y-108203185D01*
X90080907Y-108362351D01*
X90080903Y-108362357D01*
X89991578Y-108537670D01*
X89991576Y-108537673D01*
X89930779Y-108724785D01*
X89930778Y-108724789D01*
X89900257Y-108917500D01*
X83200500Y-108917500D01*
X83200500Y-107604668D01*
X83213794Y-107563750D01*
X83200500Y-107515331D01*
X83200500Y-105637526D01*
X83219407Y-105579335D01*
X83268907Y-105543371D01*
X83330093Y-105543371D01*
X83379593Y-105579335D01*
X83389225Y-105595688D01*
X83413330Y-105647383D01*
X83413331Y-105647385D01*
X83538783Y-105826549D01*
X83693450Y-105981216D01*
X83872613Y-106106667D01*
X84070842Y-106199102D01*
X84282118Y-106255713D01*
X84383162Y-106264553D01*
X84439483Y-106288459D01*
X84470997Y-106340905D01*
X84465664Y-106401858D01*
X84425523Y-106448035D01*
X84392725Y-106460490D01*
X84197546Y-106496975D01*
X84127632Y-106524059D01*
X84007363Y-106570652D01*
X83833959Y-106678019D01*
X83703371Y-106797066D01*
X83683236Y-106815421D01*
X83671223Y-106831329D01*
X83560328Y-106978177D01*
X83560323Y-106978186D01*
X83469419Y-107160747D01*
X83469418Y-107160750D01*
X83413603Y-107356917D01*
X83401029Y-107492622D01*
X83398078Y-107524466D01*
X83383797Y-107557634D01*
X83398077Y-107595531D01*
X83413603Y-107763083D01*
X83459220Y-107923409D01*
X83469419Y-107959252D01*
X83529177Y-108079264D01*
X83560327Y-108141821D01*
X83683236Y-108304579D01*
X83833959Y-108441981D01*
X84007363Y-108549348D01*
X84197544Y-108623024D01*
X84398024Y-108660500D01*
X84601976Y-108660500D01*
X84802456Y-108623024D01*
X84992637Y-108549348D01*
X85166041Y-108441981D01*
X85316764Y-108304579D01*
X85439673Y-108141821D01*
X85530582Y-107959250D01*
X85586397Y-107763083D01*
X85605215Y-107560000D01*
X85586397Y-107356917D01*
X85530582Y-107160750D01*
X85500332Y-107099999D01*
X104392350Y-107099999D01*
X104392350Y-107100000D01*
X104411269Y-107243708D01*
X104411270Y-107243709D01*
X104458161Y-107356917D01*
X104466739Y-107377625D01*
X104554979Y-107492621D01*
X104669975Y-107580861D01*
X104803891Y-107636330D01*
X104947600Y-107655250D01*
X105091309Y-107636330D01*
X105153824Y-107610435D01*
X105191708Y-107602900D01*
X105787168Y-107602900D01*
X105845359Y-107621807D01*
X105847435Y-107623358D01*
X105885323Y-107652430D01*
X105922375Y-107680861D01*
X106056291Y-107736330D01*
X106200000Y-107755250D01*
X106343709Y-107736330D01*
X106477625Y-107680861D01*
X106592621Y-107592621D01*
X106680861Y-107477625D01*
X106736330Y-107343709D01*
X106755250Y-107200000D01*
X106736330Y-107056291D01*
X106680861Y-106922375D01*
X106592621Y-106807379D01*
X106477625Y-106719139D01*
X106477621Y-106719137D01*
X106343709Y-106663670D01*
X106343708Y-106663669D01*
X106200000Y-106644750D01*
X106056291Y-106663669D01*
X106056290Y-106663670D01*
X105922378Y-106719137D01*
X105922370Y-106719142D01*
X105847435Y-106776642D01*
X105789760Y-106797066D01*
X105787168Y-106797100D01*
X105457888Y-106797100D01*
X105399697Y-106778193D01*
X105379348Y-106758370D01*
X105340221Y-106707379D01*
X105225225Y-106619139D01*
X105225221Y-106619137D01*
X105091309Y-106563670D01*
X105091308Y-106563669D01*
X104947600Y-106544750D01*
X104803891Y-106563669D01*
X104803890Y-106563670D01*
X104669978Y-106619137D01*
X104669974Y-106619139D01*
X104554981Y-106707377D01*
X104554977Y-106707381D01*
X104466739Y-106822374D01*
X104466737Y-106822378D01*
X104411270Y-106956290D01*
X104411269Y-106956291D01*
X104392350Y-107099999D01*
X85500332Y-107099999D01*
X85439673Y-106978179D01*
X85316764Y-106815421D01*
X85166041Y-106678019D01*
X84992637Y-106570652D01*
X84802456Y-106496976D01*
X84802455Y-106496975D01*
X84802453Y-106496975D01*
X84607274Y-106460490D01*
X84553548Y-106431212D01*
X84527292Y-106375947D01*
X84538535Y-106315803D01*
X84560525Y-106294999D01*
X95149750Y-106294999D01*
X95149750Y-106295000D01*
X95168669Y-106438708D01*
X95168670Y-106438709D01*
X95223321Y-106570652D01*
X95224139Y-106572625D01*
X95312379Y-106687621D01*
X95427375Y-106775861D01*
X95561291Y-106831330D01*
X95705000Y-106850250D01*
X95848709Y-106831330D01*
X95982625Y-106775861D01*
X96097621Y-106687621D01*
X96185861Y-106572625D01*
X96241330Y-106438709D01*
X96242766Y-106427794D01*
X96269104Y-106372572D01*
X96270878Y-106370749D01*
X97263050Y-105378578D01*
X97322781Y-105275122D01*
X97332483Y-105238913D01*
X97353700Y-105159731D01*
X97353700Y-103299999D01*
X100944750Y-103299999D01*
X100944750Y-103300000D01*
X100963669Y-103443708D01*
X100963670Y-103443709D01*
X101019137Y-103577621D01*
X101019139Y-103577625D01*
X101107379Y-103692621D01*
X101222375Y-103780861D01*
X101356291Y-103836330D01*
X101500000Y-103855250D01*
X101643709Y-103836330D01*
X101777625Y-103780861D01*
X101892621Y-103692621D01*
X101980861Y-103577625D01*
X102008536Y-103510809D01*
X102048272Y-103464284D01*
X102107766Y-103450000D01*
X102164295Y-103473414D01*
X102191464Y-103510810D01*
X102219137Y-103577622D01*
X102219139Y-103577625D01*
X102307379Y-103692621D01*
X102422375Y-103780861D01*
X102556291Y-103836330D01*
X102700000Y-103855250D01*
X102843709Y-103836330D01*
X102977625Y-103780861D01*
X103092621Y-103692621D01*
X103165856Y-103597178D01*
X103216279Y-103562524D01*
X103277443Y-103564125D01*
X103304664Y-103578905D01*
X103321682Y-103591963D01*
X103372375Y-103630861D01*
X103506291Y-103686330D01*
X103650000Y-103705250D01*
X103793709Y-103686330D01*
X103927625Y-103630861D01*
X104042621Y-103542621D01*
X104130861Y-103427625D01*
X104186330Y-103293709D01*
X104198659Y-103200057D01*
X104225000Y-103144834D01*
X104226771Y-103143014D01*
X104889785Y-102480000D01*
X114394785Y-102480000D01*
X114413603Y-102683083D01*
X114469418Y-102879250D01*
X114560327Y-103061821D01*
X114683236Y-103224579D01*
X114833959Y-103361981D01*
X115007363Y-103469348D01*
X115197544Y-103543024D01*
X115398024Y-103580500D01*
X115601976Y-103580500D01*
X115802456Y-103543024D01*
X115992637Y-103469348D01*
X116166041Y-103361981D01*
X116316764Y-103224579D01*
X116439673Y-103061821D01*
X116530582Y-102879250D01*
X116586397Y-102683083D01*
X116601922Y-102515531D01*
X116616202Y-102482364D01*
X116601922Y-102444466D01*
X116601076Y-102435331D01*
X116586397Y-102276917D01*
X116530582Y-102080750D01*
X116439673Y-101898179D01*
X116316764Y-101735421D01*
X116166041Y-101598019D01*
X115992637Y-101490652D01*
X115802456Y-101416976D01*
X115802455Y-101416975D01*
X115802453Y-101416975D01*
X115601976Y-101379500D01*
X115398024Y-101379500D01*
X115197546Y-101416975D01*
X115127632Y-101444059D01*
X115007363Y-101490652D01*
X114833959Y-101598019D01*
X114683237Y-101735420D01*
X114560328Y-101898177D01*
X114560323Y-101898186D01*
X114469419Y-102080747D01*
X114469418Y-102080750D01*
X114413603Y-102276917D01*
X114394785Y-102480000D01*
X104889785Y-102480000D01*
X106447384Y-100922402D01*
X106447387Y-100922401D01*
X106522401Y-100847387D01*
X106575443Y-100755514D01*
X106575444Y-100755513D01*
X106602901Y-100653043D01*
X106602901Y-100546957D01*
X106602901Y-100540895D01*
X106602900Y-100540877D01*
X106602900Y-99940000D01*
X114394785Y-99940000D01*
X114413603Y-100143082D01*
X114469419Y-100339252D01*
X114524711Y-100450295D01*
X114560327Y-100521821D01*
X114683236Y-100684579D01*
X114833959Y-100821981D01*
X115007363Y-100929348D01*
X115197544Y-101003024D01*
X115398024Y-101040500D01*
X115601976Y-101040500D01*
X115802456Y-101003024D01*
X115992637Y-100929348D01*
X116166041Y-100821981D01*
X116316764Y-100684579D01*
X116439673Y-100521821D01*
X116530582Y-100339250D01*
X116586397Y-100143083D01*
X116601922Y-99975531D01*
X116616202Y-99942364D01*
X116601922Y-99904466D01*
X116601076Y-99895331D01*
X116586397Y-99736917D01*
X116530582Y-99540750D01*
X116439673Y-99358179D01*
X116316764Y-99195421D01*
X116166041Y-99058019D01*
X115992637Y-98950652D01*
X115802456Y-98876976D01*
X115802455Y-98876975D01*
X115802453Y-98876975D01*
X115601976Y-98839500D01*
X115398024Y-98839500D01*
X115197546Y-98876975D01*
X115127632Y-98904059D01*
X115007363Y-98950652D01*
X114896748Y-99019142D01*
X114833959Y-99058019D01*
X114683237Y-99195420D01*
X114560328Y-99358177D01*
X114560323Y-99358186D01*
X114469419Y-99540747D01*
X114413603Y-99736917D01*
X114394785Y-99940000D01*
X106602900Y-99940000D01*
X106602900Y-98512831D01*
X106621807Y-98454640D01*
X106623335Y-98452593D01*
X106680861Y-98377625D01*
X106736330Y-98243709D01*
X106755250Y-98100000D01*
X106736330Y-97956291D01*
X106680861Y-97822375D01*
X106592621Y-97707379D01*
X106477625Y-97619139D01*
X106477623Y-97619138D01*
X106477621Y-97619137D01*
X106343709Y-97563670D01*
X106343708Y-97563669D01*
X106200000Y-97544750D01*
X106056291Y-97563669D01*
X106056290Y-97563670D01*
X105922378Y-97619137D01*
X105922376Y-97619138D01*
X105922375Y-97619139D01*
X105860893Y-97666316D01*
X105807381Y-97707377D01*
X105807377Y-97707381D01*
X105719139Y-97822374D01*
X105719137Y-97822378D01*
X105663670Y-97956290D01*
X105663669Y-97956291D01*
X105644750Y-98099999D01*
X105644750Y-98100000D01*
X105663669Y-98243708D01*
X105663670Y-98243709D01*
X105679522Y-98281981D01*
X105719139Y-98377625D01*
X105776642Y-98452564D01*
X105797066Y-98510239D01*
X105797100Y-98512831D01*
X105797100Y-100392104D01*
X105778193Y-100450295D01*
X105768104Y-100462108D01*
X103657021Y-102573190D01*
X103602504Y-102600967D01*
X103599941Y-102601339D01*
X103506289Y-102613670D01*
X103372378Y-102669137D01*
X103372374Y-102669139D01*
X103257381Y-102757377D01*
X103257377Y-102757381D01*
X103204242Y-102826628D01*
X103153817Y-102861283D01*
X103092652Y-102859681D01*
X103044111Y-102822434D01*
X103026700Y-102766360D01*
X103026700Y-97400000D01*
X114394785Y-97400000D01*
X114413603Y-97603083D01*
X114469418Y-97799250D01*
X114560327Y-97981821D01*
X114683236Y-98144579D01*
X114833959Y-98281981D01*
X115007363Y-98389348D01*
X115197544Y-98463024D01*
X115398024Y-98500500D01*
X115601976Y-98500500D01*
X115802456Y-98463024D01*
X115992637Y-98389348D01*
X116166041Y-98281981D01*
X116316764Y-98144579D01*
X116439673Y-97981821D01*
X116530582Y-97799250D01*
X116586397Y-97603083D01*
X116601922Y-97435531D01*
X116616202Y-97402364D01*
X116601922Y-97364466D01*
X116586397Y-97196917D01*
X116530582Y-97000750D01*
X116439673Y-96818179D01*
X116316764Y-96655421D01*
X116166041Y-96518019D01*
X115992637Y-96410652D01*
X115802456Y-96336976D01*
X115802455Y-96336975D01*
X115802453Y-96336975D01*
X115601976Y-96299500D01*
X115398024Y-96299500D01*
X115197546Y-96336975D01*
X115127632Y-96364059D01*
X115007363Y-96410652D01*
X114833959Y-96518019D01*
X114683237Y-96655420D01*
X114560328Y-96818177D01*
X114560323Y-96818186D01*
X114469419Y-97000747D01*
X114469418Y-97000750D01*
X114413603Y-97196917D01*
X114394785Y-97400000D01*
X103026700Y-97400000D01*
X103026700Y-94860000D01*
X114394785Y-94860000D01*
X114413603Y-95063083D01*
X114469418Y-95259250D01*
X114560327Y-95441821D01*
X114683236Y-95604579D01*
X114833959Y-95741981D01*
X115007363Y-95849348D01*
X115197544Y-95923024D01*
X115398024Y-95960500D01*
X115601976Y-95960500D01*
X115802456Y-95923024D01*
X115992637Y-95849348D01*
X116166041Y-95741981D01*
X116316764Y-95604579D01*
X116439673Y-95441821D01*
X116530582Y-95259250D01*
X116586397Y-95063083D01*
X116601922Y-94895531D01*
X116616202Y-94862364D01*
X116601922Y-94824466D01*
X116601076Y-94815331D01*
X116586397Y-94656917D01*
X116530582Y-94460750D01*
X116439673Y-94278179D01*
X116316764Y-94115421D01*
X116166041Y-93978019D01*
X115992637Y-93870652D01*
X115802456Y-93796976D01*
X115802455Y-93796975D01*
X115802453Y-93796975D01*
X115601976Y-93759500D01*
X115398024Y-93759500D01*
X115197546Y-93796975D01*
X115131984Y-93822374D01*
X115007363Y-93870652D01*
X114869053Y-93956290D01*
X114833959Y-93978019D01*
X114683237Y-94115420D01*
X114560328Y-94278177D01*
X114560323Y-94278186D01*
X114476958Y-94445607D01*
X114469418Y-94460750D01*
X114413603Y-94656917D01*
X114394785Y-94860000D01*
X103026700Y-94860000D01*
X103026700Y-94099999D01*
X105344750Y-94099999D01*
X105344750Y-94100000D01*
X105363669Y-94243708D01*
X105363670Y-94243709D01*
X105419139Y-94377625D01*
X105507379Y-94492621D01*
X105622375Y-94580861D01*
X105756291Y-94636330D01*
X105900000Y-94655250D01*
X106043709Y-94636330D01*
X106177625Y-94580861D01*
X106292621Y-94492621D01*
X106313483Y-94465432D01*
X106363907Y-94430777D01*
X106392025Y-94426700D01*
X107734175Y-94426700D01*
X107792366Y-94445607D01*
X107812716Y-94465432D01*
X107833579Y-94492621D01*
X107948575Y-94580861D01*
X108082491Y-94636330D01*
X108226200Y-94655250D01*
X108369909Y-94636330D01*
X108503825Y-94580861D01*
X108618821Y-94492621D01*
X108707061Y-94377625D01*
X108762530Y-94243709D01*
X108781450Y-94100000D01*
X108762530Y-93956291D01*
X108707061Y-93822375D01*
X108618821Y-93707379D01*
X108503825Y-93619139D01*
X108503821Y-93619137D01*
X108369909Y-93563670D01*
X108369908Y-93563669D01*
X108226200Y-93544750D01*
X108082491Y-93563669D01*
X108082490Y-93563670D01*
X107948578Y-93619137D01*
X107948574Y-93619139D01*
X107833581Y-93707377D01*
X107833575Y-93707383D01*
X107812717Y-93734567D01*
X107762293Y-93769223D01*
X107734175Y-93773300D01*
X106392025Y-93773300D01*
X106333834Y-93754393D01*
X106313483Y-93734567D01*
X106292624Y-93707383D01*
X106292621Y-93707379D01*
X106177625Y-93619139D01*
X106177621Y-93619137D01*
X106043709Y-93563670D01*
X106043708Y-93563669D01*
X105900000Y-93544750D01*
X105756291Y-93563669D01*
X105756290Y-93563670D01*
X105622378Y-93619137D01*
X105622374Y-93619139D01*
X105507381Y-93707377D01*
X105507377Y-93707381D01*
X105419139Y-93822374D01*
X105419137Y-93822378D01*
X105363670Y-93956290D01*
X105363669Y-93956291D01*
X105344750Y-94099999D01*
X103026700Y-94099999D01*
X103026700Y-92320000D01*
X114394785Y-92320000D01*
X114413603Y-92523083D01*
X114469418Y-92719250D01*
X114560327Y-92901821D01*
X114683236Y-93064579D01*
X114833959Y-93201981D01*
X115007363Y-93309348D01*
X115197544Y-93383024D01*
X115398024Y-93420500D01*
X115601976Y-93420500D01*
X115802456Y-93383024D01*
X115992637Y-93309348D01*
X116166041Y-93201981D01*
X116316764Y-93064579D01*
X116439673Y-92901821D01*
X116530582Y-92719250D01*
X116586397Y-92523083D01*
X116601922Y-92355531D01*
X116616202Y-92322364D01*
X116601922Y-92284466D01*
X116601076Y-92275331D01*
X116586397Y-92116917D01*
X116530582Y-91920750D01*
X116439673Y-91738179D01*
X116316764Y-91575421D01*
X116166041Y-91438019D01*
X115992637Y-91330652D01*
X115802456Y-91256976D01*
X115802455Y-91256975D01*
X115802453Y-91256975D01*
X115601976Y-91219500D01*
X115398024Y-91219500D01*
X115197546Y-91256975D01*
X115127632Y-91284059D01*
X115007363Y-91330652D01*
X114833959Y-91438019D01*
X114683237Y-91575420D01*
X114560328Y-91738177D01*
X114560323Y-91738186D01*
X114469419Y-91920747D01*
X114469418Y-91920750D01*
X114413603Y-92116917D01*
X114394785Y-92320000D01*
X103026700Y-92320000D01*
X103026700Y-89780000D01*
X114394785Y-89780000D01*
X114413603Y-89983083D01*
X114469418Y-90179250D01*
X114560327Y-90361821D01*
X114683236Y-90524579D01*
X114833959Y-90661981D01*
X115007363Y-90769348D01*
X115197544Y-90843024D01*
X115398024Y-90880500D01*
X115601976Y-90880500D01*
X115802456Y-90843024D01*
X115992637Y-90769348D01*
X116166041Y-90661981D01*
X116316764Y-90524579D01*
X116439673Y-90361821D01*
X116530582Y-90179250D01*
X116586397Y-89983083D01*
X116601922Y-89815531D01*
X116616202Y-89782364D01*
X116601922Y-89744466D01*
X116601076Y-89735331D01*
X116586397Y-89576917D01*
X116530582Y-89380750D01*
X116439673Y-89198179D01*
X116316764Y-89035421D01*
X116166041Y-88898019D01*
X115992637Y-88790652D01*
X115802456Y-88716976D01*
X115802455Y-88716975D01*
X115802453Y-88716975D01*
X115601976Y-88679500D01*
X115398024Y-88679500D01*
X115197546Y-88716975D01*
X115127632Y-88744059D01*
X115007363Y-88790652D01*
X114833959Y-88898019D01*
X114683237Y-89035420D01*
X114560328Y-89198177D01*
X114560323Y-89198186D01*
X114469419Y-89380747D01*
X114469418Y-89380750D01*
X114413603Y-89576917D01*
X114394785Y-89780000D01*
X103026700Y-89780000D01*
X103026700Y-87240000D01*
X114394785Y-87240000D01*
X114413603Y-87443083D01*
X114469418Y-87639250D01*
X114560327Y-87821821D01*
X114683236Y-87984579D01*
X114833959Y-88121981D01*
X115007363Y-88229348D01*
X115197544Y-88303024D01*
X115398024Y-88340500D01*
X115601976Y-88340500D01*
X115802456Y-88303024D01*
X115992637Y-88229348D01*
X116166041Y-88121981D01*
X116316764Y-87984579D01*
X116439673Y-87821821D01*
X116530582Y-87639250D01*
X116586397Y-87443083D01*
X116601922Y-87275531D01*
X116616202Y-87242364D01*
X116601922Y-87204466D01*
X116601076Y-87195331D01*
X116586397Y-87036917D01*
X116530582Y-86840750D01*
X116439673Y-86658179D01*
X116316764Y-86495421D01*
X116166041Y-86358019D01*
X115992637Y-86250652D01*
X115802456Y-86176976D01*
X115802455Y-86176975D01*
X115802453Y-86176975D01*
X115601976Y-86139500D01*
X115398024Y-86139500D01*
X115197546Y-86176975D01*
X115127632Y-86204059D01*
X115007363Y-86250652D01*
X114833959Y-86358019D01*
X114683237Y-86495420D01*
X114560328Y-86658177D01*
X114560323Y-86658186D01*
X114469419Y-86840747D01*
X114469418Y-86840750D01*
X114413603Y-87036917D01*
X114394785Y-87240000D01*
X103026700Y-87240000D01*
X103026700Y-84700000D01*
X114394785Y-84700000D01*
X114413603Y-84903083D01*
X114469418Y-85099250D01*
X114560327Y-85281821D01*
X114683236Y-85444579D01*
X114833959Y-85581981D01*
X115007363Y-85689348D01*
X115197544Y-85763024D01*
X115398024Y-85800500D01*
X115601976Y-85800500D01*
X115802456Y-85763024D01*
X115992637Y-85689348D01*
X116166041Y-85581981D01*
X116316764Y-85444579D01*
X116439673Y-85281821D01*
X116530582Y-85099250D01*
X116586397Y-84903083D01*
X116601922Y-84735531D01*
X116616202Y-84702364D01*
X116601922Y-84664466D01*
X116601076Y-84655331D01*
X116586397Y-84496917D01*
X116530582Y-84300750D01*
X116439673Y-84118179D01*
X116316764Y-83955421D01*
X116166041Y-83818019D01*
X115992637Y-83710652D01*
X115802456Y-83636976D01*
X115802455Y-83636975D01*
X115802453Y-83636975D01*
X115601976Y-83599500D01*
X115398024Y-83599500D01*
X115197546Y-83636975D01*
X115127632Y-83664059D01*
X115007363Y-83710652D01*
X114833959Y-83818019D01*
X114683237Y-83955420D01*
X114560328Y-84118177D01*
X114560323Y-84118186D01*
X114469419Y-84300747D01*
X114469418Y-84300750D01*
X114413603Y-84496917D01*
X114394785Y-84700000D01*
X103026700Y-84700000D01*
X103026700Y-84076331D01*
X103045607Y-84018140D01*
X103055696Y-84006327D01*
X104902023Y-82160000D01*
X114394785Y-82160000D01*
X114413603Y-82363083D01*
X114469418Y-82559250D01*
X114560327Y-82741821D01*
X114683236Y-82904579D01*
X114833959Y-83041981D01*
X115007363Y-83149348D01*
X115197544Y-83223024D01*
X115398024Y-83260500D01*
X115601976Y-83260500D01*
X115802456Y-83223024D01*
X115992637Y-83149348D01*
X116166041Y-83041981D01*
X116316764Y-82904579D01*
X116439673Y-82741821D01*
X116530582Y-82559250D01*
X116586397Y-82363083D01*
X116601922Y-82195531D01*
X116616202Y-82162364D01*
X116601922Y-82124466D01*
X116586397Y-81956917D01*
X116530582Y-81760750D01*
X116439673Y-81578179D01*
X116316764Y-81415421D01*
X116166041Y-81278019D01*
X115992637Y-81170652D01*
X115802456Y-81096976D01*
X115802455Y-81096975D01*
X115802453Y-81096975D01*
X115601976Y-81059500D01*
X115398024Y-81059500D01*
X115197546Y-81096975D01*
X115160190Y-81111447D01*
X115007363Y-81170652D01*
X114833959Y-81278019D01*
X114683237Y-81415420D01*
X114560328Y-81578177D01*
X114560323Y-81578186D01*
X114474045Y-81751457D01*
X114469418Y-81760750D01*
X114413603Y-81956917D01*
X114394785Y-82160000D01*
X104902023Y-82160000D01*
X105243470Y-81818553D01*
X107442024Y-79620000D01*
X114394785Y-79620000D01*
X114413603Y-79823083D01*
X114469418Y-80019250D01*
X114560327Y-80201821D01*
X114683236Y-80364579D01*
X114833959Y-80501981D01*
X115007363Y-80609348D01*
X115197544Y-80683024D01*
X115398024Y-80720500D01*
X115601976Y-80720500D01*
X115802456Y-80683024D01*
X115992637Y-80609348D01*
X116166041Y-80501981D01*
X116316764Y-80364579D01*
X116439673Y-80201821D01*
X116530582Y-80019250D01*
X116586397Y-79823083D01*
X116601922Y-79655531D01*
X116616202Y-79622364D01*
X116601922Y-79584466D01*
X116601076Y-79575331D01*
X116586397Y-79416917D01*
X116530582Y-79220750D01*
X116439673Y-79038179D01*
X116316764Y-78875421D01*
X116166041Y-78738019D01*
X115992637Y-78630652D01*
X115802456Y-78556976D01*
X115802455Y-78556975D01*
X115802453Y-78556975D01*
X115601976Y-78519500D01*
X115398024Y-78519500D01*
X115197546Y-78556975D01*
X115127632Y-78584059D01*
X115007363Y-78630652D01*
X114833959Y-78738019D01*
X114683237Y-78875420D01*
X114560328Y-79038177D01*
X114560323Y-79038186D01*
X114469419Y-79220747D01*
X114469418Y-79220750D01*
X114413603Y-79416917D01*
X114394785Y-79620000D01*
X107442024Y-79620000D01*
X107561425Y-79500599D01*
X107604435Y-79426102D01*
X107604436Y-79426101D01*
X107626700Y-79343011D01*
X107626700Y-77080000D01*
X114394785Y-77080000D01*
X114413603Y-77283083D01*
X114469418Y-77479250D01*
X114560327Y-77661821D01*
X114683236Y-77824579D01*
X114833959Y-77961981D01*
X115007363Y-78069348D01*
X115197544Y-78143024D01*
X115398024Y-78180500D01*
X115601976Y-78180500D01*
X115802456Y-78143024D01*
X115992637Y-78069348D01*
X116166041Y-77961981D01*
X116316764Y-77824579D01*
X116439673Y-77661821D01*
X116530582Y-77479250D01*
X116586397Y-77283083D01*
X116601922Y-77115531D01*
X116616202Y-77082364D01*
X116601922Y-77044466D01*
X116599314Y-77016318D01*
X116586397Y-76876917D01*
X116530582Y-76680750D01*
X116439673Y-76498179D01*
X116316764Y-76335421D01*
X116166041Y-76198019D01*
X115992637Y-76090652D01*
X115802456Y-76016976D01*
X115802455Y-76016975D01*
X115802453Y-76016975D01*
X115601976Y-75979500D01*
X115398024Y-75979500D01*
X115197546Y-76016975D01*
X115127632Y-76044059D01*
X115007363Y-76090652D01*
X114956124Y-76122378D01*
X114833959Y-76198019D01*
X114683237Y-76335420D01*
X114560328Y-76498177D01*
X114560323Y-76498186D01*
X114469419Y-76680747D01*
X114469418Y-76680750D01*
X114413603Y-76876917D01*
X114394785Y-77080000D01*
X107626700Y-77080000D01*
X107626700Y-76967419D01*
X107645607Y-76909228D01*
X107672579Y-76884944D01*
X107672477Y-76884811D01*
X107674176Y-76883506D01*
X107676208Y-76881678D01*
X107677611Y-76880866D01*
X107677625Y-76880861D01*
X107792621Y-76792621D01*
X107880861Y-76677625D01*
X107936330Y-76543709D01*
X107955250Y-76400000D01*
X107936330Y-76256291D01*
X107880861Y-76122375D01*
X107792621Y-76007379D01*
X107677625Y-75919139D01*
X107677621Y-75919137D01*
X107543709Y-75863670D01*
X107543708Y-75863669D01*
X107400000Y-75844750D01*
X107256291Y-75863669D01*
X107256290Y-75863670D01*
X107122378Y-75919137D01*
X107122374Y-75919139D01*
X107007381Y-76007377D01*
X107007377Y-76007381D01*
X106919139Y-76122374D01*
X106919137Y-76122378D01*
X106863670Y-76256290D01*
X106863669Y-76256291D01*
X106844750Y-76399999D01*
X106844750Y-76400000D01*
X106863669Y-76543708D01*
X106863670Y-76543709D01*
X106919137Y-76677621D01*
X106919142Y-76677630D01*
X106952841Y-76721546D01*
X106973266Y-76779221D01*
X106973300Y-76781814D01*
X106973300Y-76958127D01*
X106954393Y-77016318D01*
X106904893Y-77052282D01*
X106861378Y-77056280D01*
X106773800Y-77044750D01*
X106630091Y-77063669D01*
X106630090Y-77063670D01*
X106496178Y-77119137D01*
X106496174Y-77119139D01*
X106381181Y-77207377D01*
X106381177Y-77207381D01*
X106292939Y-77322374D01*
X106292937Y-77322378D01*
X106237470Y-77456290D01*
X106237469Y-77456291D01*
X106218550Y-77599999D01*
X106218550Y-77600000D01*
X106237469Y-77743708D01*
X106237470Y-77743709D01*
X106250372Y-77774859D01*
X106292939Y-77877625D01*
X106381179Y-77992621D01*
X106381183Y-77992624D01*
X106408367Y-78013483D01*
X106443023Y-78063907D01*
X106447100Y-78092025D01*
X106447100Y-79149869D01*
X106428193Y-79208060D01*
X106418104Y-79219873D01*
X102038571Y-83599406D01*
X101995563Y-83673897D01*
X101995563Y-83673898D01*
X101995564Y-83673899D01*
X101973300Y-83756990D01*
X101973300Y-102323669D01*
X101954393Y-102381860D01*
X101944303Y-102393673D01*
X101616902Y-102721073D01*
X101562386Y-102748850D01*
X101533980Y-102749222D01*
X101500004Y-102744750D01*
X101500000Y-102744750D01*
X101356291Y-102763669D01*
X101356290Y-102763670D01*
X101222378Y-102819137D01*
X101222374Y-102819139D01*
X101107381Y-102907377D01*
X101107377Y-102907381D01*
X101019139Y-103022374D01*
X101019137Y-103022378D01*
X100963670Y-103156290D01*
X100963669Y-103156291D01*
X100944750Y-103299999D01*
X97353700Y-103299999D01*
X97353700Y-99946627D01*
X97372607Y-99888436D01*
X97374161Y-99886356D01*
X97378083Y-99881245D01*
X97380861Y-99877625D01*
X97436330Y-99743709D01*
X97455250Y-99600000D01*
X97447449Y-99540750D01*
X97436330Y-99456291D01*
X97380861Y-99322375D01*
X97292621Y-99207379D01*
X97177625Y-99119139D01*
X97177621Y-99119137D01*
X97043709Y-99063670D01*
X97043708Y-99063669D01*
X96900000Y-99044750D01*
X96756291Y-99063669D01*
X96756290Y-99063670D01*
X96622378Y-99119137D01*
X96622374Y-99119139D01*
X96507381Y-99207377D01*
X96507377Y-99207381D01*
X96419139Y-99322374D01*
X96419137Y-99322378D01*
X96363670Y-99456290D01*
X96363669Y-99456291D01*
X96344750Y-99599999D01*
X96344750Y-99600000D01*
X96363669Y-99743708D01*
X96363670Y-99743709D01*
X96419137Y-99877621D01*
X96419140Y-99877627D01*
X96425839Y-99886356D01*
X96446266Y-99944031D01*
X96446300Y-99946627D01*
X96446300Y-104871062D01*
X96427393Y-104929253D01*
X96417304Y-104941066D01*
X95629286Y-105729083D01*
X95574769Y-105756860D01*
X95572211Y-105757231D01*
X95561294Y-105758668D01*
X95561290Y-105758670D01*
X95427378Y-105814137D01*
X95427374Y-105814139D01*
X95312381Y-105902377D01*
X95312377Y-105902381D01*
X95224139Y-106017374D01*
X95224137Y-106017378D01*
X95168670Y-106151290D01*
X95168669Y-106151291D01*
X95149750Y-106294999D01*
X84560525Y-106294999D01*
X84582982Y-106273754D01*
X84616837Y-106264553D01*
X84717881Y-106255713D01*
X84929157Y-106199102D01*
X85127386Y-106106667D01*
X85306549Y-105981216D01*
X85461216Y-105826549D01*
X85586667Y-105647386D01*
X85679102Y-105449156D01*
X85727108Y-105270000D01*
X84933012Y-105270000D01*
X84965925Y-105212993D01*
X85000000Y-105085826D01*
X85000000Y-104954174D01*
X84965925Y-104827007D01*
X84933012Y-104770000D01*
X85727108Y-104770000D01*
X85679102Y-104590843D01*
X85586667Y-104392614D01*
X85461216Y-104213450D01*
X85306549Y-104058783D01*
X85127386Y-103933332D01*
X84929157Y-103840897D01*
X84717881Y-103784286D01*
X84616836Y-103775446D01*
X84560515Y-103751539D01*
X84529002Y-103699093D01*
X84534335Y-103638140D01*
X84574477Y-103591963D01*
X84607270Y-103579510D01*
X84802456Y-103543024D01*
X84992637Y-103469348D01*
X85166041Y-103361981D01*
X85316764Y-103224579D01*
X85439673Y-103061821D01*
X85530582Y-102879250D01*
X85586397Y-102683083D01*
X85605215Y-102480000D01*
X85586397Y-102276917D01*
X85530582Y-102080750D01*
X85439673Y-101898179D01*
X85316764Y-101735421D01*
X85166041Y-101598019D01*
X84992637Y-101490652D01*
X84802456Y-101416976D01*
X84802455Y-101416975D01*
X84802453Y-101416975D01*
X84601976Y-101379500D01*
X84398024Y-101379500D01*
X84197546Y-101416975D01*
X84127632Y-101444059D01*
X84007363Y-101490652D01*
X83833959Y-101598019D01*
X83683237Y-101735420D01*
X83560328Y-101898177D01*
X83560323Y-101898186D01*
X83469419Y-102080747D01*
X83413603Y-102276917D01*
X83398078Y-102444466D01*
X83383797Y-102477634D01*
X83398077Y-102515531D01*
X83413603Y-102683083D01*
X83469418Y-102879250D01*
X83560327Y-103061821D01*
X83683236Y-103224579D01*
X83833959Y-103361981D01*
X84007363Y-103469348D01*
X84197544Y-103543024D01*
X84392726Y-103579509D01*
X84446451Y-103608786D01*
X84472707Y-103664052D01*
X84461464Y-103724195D01*
X84417017Y-103766244D01*
X84383163Y-103775446D01*
X84282118Y-103784286D01*
X84070842Y-103840897D01*
X83872614Y-103933332D01*
X83693450Y-104058783D01*
X83538783Y-104213450D01*
X83413331Y-104392615D01*
X83413329Y-104392619D01*
X83389224Y-104444313D01*
X83347496Y-104489061D01*
X83287434Y-104500735D01*
X83231982Y-104474877D01*
X83202319Y-104421363D01*
X83200500Y-104402473D01*
X83200500Y-102524668D01*
X83213794Y-102483750D01*
X83200500Y-102435331D01*
X83200500Y-99984668D01*
X83213794Y-99943750D01*
X83212115Y-99937634D01*
X83383797Y-99937634D01*
X83398077Y-99975531D01*
X83413603Y-100143082D01*
X83469419Y-100339252D01*
X83524711Y-100450295D01*
X83560327Y-100521821D01*
X83683236Y-100684579D01*
X83833959Y-100821981D01*
X84007363Y-100929348D01*
X84197544Y-101003024D01*
X84398024Y-101040500D01*
X84601976Y-101040500D01*
X84802456Y-101003024D01*
X84992637Y-100929348D01*
X85166041Y-100821981D01*
X85316764Y-100684579D01*
X85439673Y-100521821D01*
X85530582Y-100339250D01*
X85586397Y-100143083D01*
X85605215Y-99940000D01*
X85586397Y-99736917D01*
X85530582Y-99540750D01*
X85510291Y-99499999D01*
X90344750Y-99499999D01*
X90344750Y-99500000D01*
X90363669Y-99643708D01*
X90363670Y-99643709D01*
X90405090Y-99743709D01*
X90419139Y-99777625D01*
X90507379Y-99892621D01*
X90622375Y-99980861D01*
X90756291Y-100036330D01*
X90900000Y-100055250D01*
X91043709Y-100036330D01*
X91177625Y-99980861D01*
X91215500Y-99951797D01*
X91252565Y-99923358D01*
X91310240Y-99902934D01*
X91312832Y-99902900D01*
X94340878Y-99902900D01*
X94340894Y-99902901D01*
X94346957Y-99902901D01*
X94453044Y-99902901D01*
X94533858Y-99881245D01*
X94555514Y-99875443D01*
X94647387Y-99822401D01*
X94722401Y-99747387D01*
X94722401Y-99747385D01*
X94729511Y-99740276D01*
X94729515Y-99740270D01*
X96037892Y-98431896D01*
X96092408Y-98404119D01*
X96107895Y-98402900D01*
X98955892Y-98402900D01*
X98993775Y-98410435D01*
X99056291Y-98436330D01*
X99200000Y-98455250D01*
X99343709Y-98436330D01*
X99477625Y-98380861D01*
X99592621Y-98292621D01*
X99680861Y-98177625D01*
X99736330Y-98043709D01*
X99755250Y-97900000D01*
X99736330Y-97756291D01*
X99680861Y-97622375D01*
X99592621Y-97507379D01*
X99477625Y-97419139D01*
X99477621Y-97419137D01*
X99343709Y-97363670D01*
X99343708Y-97363669D01*
X99200000Y-97344750D01*
X99056291Y-97363669D01*
X99056290Y-97363670D01*
X98922378Y-97419137D01*
X98922374Y-97419139D01*
X98807381Y-97507377D01*
X98807379Y-97507379D01*
X98768252Y-97558368D01*
X98717829Y-97593023D01*
X98689712Y-97597100D01*
X95959122Y-97597100D01*
X95959106Y-97597099D01*
X95953043Y-97597099D01*
X95846957Y-97597099D01*
X95846954Y-97597099D01*
X95764707Y-97619137D01*
X95764708Y-97619138D01*
X95744488Y-97624556D01*
X95652610Y-97677601D01*
X95577598Y-97752612D01*
X95577599Y-97752613D01*
X95577597Y-97752615D01*
X94262110Y-99068104D01*
X94207593Y-99095881D01*
X94192106Y-99097100D01*
X91312832Y-99097100D01*
X91254641Y-99078193D01*
X91252565Y-99076642D01*
X91177629Y-99019142D01*
X91177628Y-99019141D01*
X91177625Y-99019139D01*
X91177622Y-99019138D01*
X91177621Y-99019137D01*
X91043709Y-98963670D01*
X91043708Y-98963669D01*
X90900000Y-98944750D01*
X90756291Y-98963669D01*
X90756290Y-98963670D01*
X90622378Y-99019137D01*
X90622374Y-99019139D01*
X90507381Y-99107377D01*
X90507377Y-99107381D01*
X90419139Y-99222374D01*
X90419137Y-99222378D01*
X90363670Y-99356290D01*
X90363669Y-99356291D01*
X90344750Y-99499999D01*
X85510291Y-99499999D01*
X85439673Y-99358179D01*
X85316764Y-99195421D01*
X85166041Y-99058019D01*
X84992637Y-98950652D01*
X84802456Y-98876976D01*
X84802455Y-98876975D01*
X84802453Y-98876975D01*
X84601976Y-98839500D01*
X84398024Y-98839500D01*
X84197546Y-98876975D01*
X84127632Y-98904059D01*
X84007363Y-98950652D01*
X83896748Y-99019142D01*
X83833959Y-99058019D01*
X83683237Y-99195420D01*
X83560328Y-99358177D01*
X83560323Y-99358186D01*
X83469419Y-99540747D01*
X83469418Y-99540750D01*
X83413603Y-99736917D01*
X83399176Y-99892621D01*
X83398078Y-99904466D01*
X83383797Y-99937634D01*
X83212115Y-99937634D01*
X83200500Y-99895331D01*
X83200500Y-97444668D01*
X83213794Y-97403750D01*
X83212115Y-97397634D01*
X83383797Y-97397634D01*
X83398077Y-97435531D01*
X83413603Y-97603083D01*
X83469418Y-97799250D01*
X83560327Y-97981821D01*
X83683236Y-98144579D01*
X83833959Y-98281981D01*
X84007363Y-98389348D01*
X84197544Y-98463024D01*
X84398024Y-98500500D01*
X84601976Y-98500500D01*
X84802456Y-98463024D01*
X84992637Y-98389348D01*
X85166041Y-98281981D01*
X85316764Y-98144579D01*
X85439673Y-97981821D01*
X85530582Y-97799250D01*
X85586397Y-97603083D01*
X85605215Y-97400000D01*
X85586397Y-97196917D01*
X85530582Y-97000750D01*
X85439673Y-96818179D01*
X85316764Y-96655421D01*
X85166041Y-96518019D01*
X84992637Y-96410652D01*
X84802456Y-96336976D01*
X84802455Y-96336975D01*
X84802453Y-96336975D01*
X84601976Y-96299500D01*
X84398024Y-96299500D01*
X84197546Y-96336975D01*
X84127632Y-96364059D01*
X84007363Y-96410652D01*
X83833959Y-96518019D01*
X83683237Y-96655420D01*
X83560328Y-96818177D01*
X83560323Y-96818186D01*
X83469419Y-97000747D01*
X83469418Y-97000750D01*
X83413603Y-97196917D01*
X83398152Y-97363670D01*
X83398078Y-97364466D01*
X83383797Y-97397634D01*
X83212115Y-97397634D01*
X83200500Y-97355331D01*
X83200500Y-94904668D01*
X83213794Y-94863750D01*
X83212115Y-94857634D01*
X83383797Y-94857634D01*
X83398077Y-94895531D01*
X83413603Y-95063083D01*
X83469418Y-95259250D01*
X83560327Y-95441821D01*
X83683236Y-95604579D01*
X83833959Y-95741981D01*
X84007363Y-95849348D01*
X84197544Y-95923024D01*
X84398024Y-95960500D01*
X84601976Y-95960500D01*
X84802456Y-95923024D01*
X84992637Y-95849348D01*
X85166041Y-95741981D01*
X85316764Y-95604579D01*
X85439673Y-95441821D01*
X85530582Y-95259250D01*
X85586397Y-95063083D01*
X85605215Y-94860000D01*
X85586397Y-94656917D01*
X85530582Y-94460750D01*
X85439673Y-94278179D01*
X85316764Y-94115421D01*
X85166041Y-93978019D01*
X84992637Y-93870652D01*
X84802456Y-93796976D01*
X84802455Y-93796975D01*
X84802453Y-93796975D01*
X84601976Y-93759500D01*
X84398024Y-93759500D01*
X84197546Y-93796975D01*
X84131984Y-93822374D01*
X84007363Y-93870652D01*
X83869053Y-93956290D01*
X83833959Y-93978019D01*
X83683237Y-94115420D01*
X83560328Y-94278177D01*
X83560323Y-94278186D01*
X83469419Y-94460747D01*
X83413603Y-94656917D01*
X83398078Y-94824466D01*
X83383797Y-94857634D01*
X83212115Y-94857634D01*
X83200500Y-94815331D01*
X83200500Y-92364668D01*
X83213794Y-92323750D01*
X83212115Y-92317634D01*
X83383797Y-92317634D01*
X83398077Y-92355531D01*
X83413603Y-92523083D01*
X83469418Y-92719250D01*
X83560327Y-92901821D01*
X83683236Y-93064579D01*
X83833959Y-93201981D01*
X84007363Y-93309348D01*
X84197544Y-93383024D01*
X84398024Y-93420500D01*
X84601976Y-93420500D01*
X84802456Y-93383024D01*
X84992637Y-93309348D01*
X85166041Y-93201981D01*
X85316764Y-93064579D01*
X85439673Y-92901821D01*
X85530582Y-92719250D01*
X85586397Y-92523083D01*
X85605215Y-92320000D01*
X85586397Y-92116917D01*
X85530582Y-91920750D01*
X85439673Y-91738179D01*
X85316764Y-91575421D01*
X85166041Y-91438019D01*
X84992637Y-91330652D01*
X84802456Y-91256976D01*
X84802455Y-91256975D01*
X84802453Y-91256975D01*
X84601976Y-91219500D01*
X84398024Y-91219500D01*
X84197546Y-91256975D01*
X84127632Y-91284059D01*
X84007363Y-91330652D01*
X83833959Y-91438019D01*
X83683237Y-91575420D01*
X83560328Y-91738177D01*
X83560323Y-91738186D01*
X83469419Y-91920747D01*
X83413603Y-92116917D01*
X83398078Y-92284466D01*
X83383797Y-92317634D01*
X83212115Y-92317634D01*
X83200500Y-92275331D01*
X83200500Y-89824668D01*
X83213794Y-89783750D01*
X83212115Y-89777634D01*
X83383797Y-89777634D01*
X83398077Y-89815531D01*
X83413603Y-89983083D01*
X83469418Y-90179250D01*
X83560327Y-90361821D01*
X83683236Y-90524579D01*
X83833959Y-90661981D01*
X84007363Y-90769348D01*
X84197544Y-90843024D01*
X84398024Y-90880500D01*
X84601976Y-90880500D01*
X84802456Y-90843024D01*
X84992637Y-90769348D01*
X85166041Y-90661981D01*
X85316764Y-90524579D01*
X85439673Y-90361821D01*
X85530582Y-90179250D01*
X85586397Y-89983083D01*
X85605215Y-89780000D01*
X85586397Y-89576917D01*
X85530582Y-89380750D01*
X85439673Y-89198179D01*
X85316764Y-89035421D01*
X85166041Y-88898019D01*
X84992637Y-88790652D01*
X84802456Y-88716976D01*
X84802455Y-88716975D01*
X84802453Y-88716975D01*
X84601976Y-88679500D01*
X84398024Y-88679500D01*
X84197546Y-88716975D01*
X84127632Y-88744059D01*
X84007363Y-88790652D01*
X83833959Y-88898019D01*
X83683237Y-89035420D01*
X83560328Y-89198177D01*
X83560323Y-89198186D01*
X83469419Y-89380747D01*
X83413603Y-89576917D01*
X83398078Y-89744466D01*
X83383797Y-89777634D01*
X83212115Y-89777634D01*
X83200500Y-89735331D01*
X83200500Y-87284668D01*
X83213794Y-87243750D01*
X83212115Y-87237634D01*
X83383797Y-87237634D01*
X83398077Y-87275531D01*
X83413603Y-87443083D01*
X83469418Y-87639250D01*
X83560327Y-87821821D01*
X83683236Y-87984579D01*
X83833959Y-88121981D01*
X84007363Y-88229348D01*
X84197544Y-88303024D01*
X84398024Y-88340500D01*
X84601976Y-88340500D01*
X84802456Y-88303024D01*
X84992637Y-88229348D01*
X85166041Y-88121981D01*
X85316764Y-87984579D01*
X85439673Y-87821821D01*
X85530582Y-87639250D01*
X85586397Y-87443083D01*
X85605215Y-87240000D01*
X85586397Y-87036917D01*
X85530582Y-86840750D01*
X85439673Y-86658179D01*
X85316764Y-86495421D01*
X85166041Y-86358019D01*
X84992637Y-86250652D01*
X84802456Y-86176976D01*
X84802455Y-86176975D01*
X84802453Y-86176975D01*
X84601976Y-86139500D01*
X84398024Y-86139500D01*
X84197546Y-86176975D01*
X84127632Y-86204059D01*
X84007363Y-86250652D01*
X83833959Y-86358019D01*
X83683237Y-86495420D01*
X83560328Y-86658177D01*
X83560323Y-86658186D01*
X83469419Y-86840747D01*
X83413603Y-87036917D01*
X83398078Y-87204466D01*
X83383797Y-87237634D01*
X83212115Y-87237634D01*
X83200500Y-87195331D01*
X83200500Y-84744668D01*
X83213794Y-84703750D01*
X83212115Y-84697634D01*
X83383797Y-84697634D01*
X83398077Y-84735531D01*
X83413603Y-84903083D01*
X83469418Y-85099250D01*
X83560327Y-85281821D01*
X83683236Y-85444579D01*
X83833959Y-85581981D01*
X84007363Y-85689348D01*
X84197544Y-85763024D01*
X84398024Y-85800500D01*
X84601976Y-85800500D01*
X84802456Y-85763024D01*
X84992637Y-85689348D01*
X85166041Y-85581981D01*
X85316764Y-85444579D01*
X85439673Y-85281821D01*
X85530582Y-85099250D01*
X85586397Y-84903083D01*
X85605215Y-84700000D01*
X85586397Y-84496917D01*
X85530582Y-84300750D01*
X85439673Y-84118179D01*
X85316764Y-83955421D01*
X85166041Y-83818019D01*
X84992637Y-83710652D01*
X84802456Y-83636976D01*
X84802455Y-83636975D01*
X84802453Y-83636975D01*
X84601976Y-83599500D01*
X84398024Y-83599500D01*
X84197546Y-83636975D01*
X84127632Y-83664059D01*
X84007363Y-83710652D01*
X83833959Y-83818019D01*
X83683237Y-83955420D01*
X83560328Y-84118177D01*
X83560323Y-84118186D01*
X83469419Y-84300747D01*
X83413603Y-84496917D01*
X83398078Y-84664466D01*
X83383797Y-84697634D01*
X83212115Y-84697634D01*
X83200500Y-84655331D01*
X83200500Y-82204668D01*
X83213794Y-82163750D01*
X83212115Y-82157634D01*
X83383797Y-82157634D01*
X83398077Y-82195531D01*
X83413603Y-82363083D01*
X83469418Y-82559250D01*
X83560327Y-82741821D01*
X83683236Y-82904579D01*
X83833959Y-83041981D01*
X84007363Y-83149348D01*
X84197544Y-83223024D01*
X84398024Y-83260500D01*
X84601976Y-83260500D01*
X84802456Y-83223024D01*
X84992637Y-83149348D01*
X85166041Y-83041981D01*
X85316764Y-82904579D01*
X85439673Y-82741821D01*
X85530582Y-82559250D01*
X85586397Y-82363083D01*
X85605215Y-82160000D01*
X85586397Y-81956917D01*
X85530582Y-81760750D01*
X85439673Y-81578179D01*
X85316764Y-81415421D01*
X85166041Y-81278019D01*
X84992637Y-81170652D01*
X84802456Y-81096976D01*
X84802455Y-81096975D01*
X84802453Y-81096975D01*
X84601976Y-81059500D01*
X84398024Y-81059500D01*
X84197546Y-81096975D01*
X84160190Y-81111447D01*
X84007363Y-81170652D01*
X83833959Y-81278019D01*
X83683237Y-81415420D01*
X83560328Y-81578177D01*
X83560323Y-81578186D01*
X83474045Y-81751457D01*
X83469418Y-81760750D01*
X83413603Y-81956917D01*
X83398092Y-82124318D01*
X83398078Y-82124466D01*
X83383797Y-82157634D01*
X83212115Y-82157634D01*
X83200500Y-82115331D01*
X83200500Y-79664668D01*
X83213794Y-79623750D01*
X83212115Y-79617634D01*
X83383797Y-79617634D01*
X83398077Y-79655531D01*
X83413603Y-79823083D01*
X83469418Y-80019250D01*
X83560327Y-80201821D01*
X83683236Y-80364579D01*
X83833959Y-80501981D01*
X84007363Y-80609348D01*
X84197544Y-80683024D01*
X84398024Y-80720500D01*
X84601976Y-80720500D01*
X84802456Y-80683024D01*
X84992637Y-80609348D01*
X85166041Y-80501981D01*
X85316764Y-80364579D01*
X85439673Y-80201821D01*
X85530582Y-80019250D01*
X85586397Y-79823083D01*
X85605215Y-79620000D01*
X85586397Y-79416917D01*
X85530582Y-79220750D01*
X85439673Y-79038179D01*
X85316764Y-78875421D01*
X85166041Y-78738019D01*
X84992637Y-78630652D01*
X84802456Y-78556976D01*
X84802455Y-78556975D01*
X84802453Y-78556975D01*
X84601976Y-78519500D01*
X84398024Y-78519500D01*
X84197546Y-78556975D01*
X84127632Y-78584059D01*
X84007363Y-78630652D01*
X83833959Y-78738019D01*
X83683237Y-78875420D01*
X83560328Y-79038177D01*
X83560323Y-79038186D01*
X83469419Y-79220747D01*
X83413603Y-79416917D01*
X83398078Y-79584466D01*
X83383797Y-79617634D01*
X83212115Y-79617634D01*
X83200500Y-79575331D01*
X83200500Y-77124668D01*
X83213794Y-77083750D01*
X83212115Y-77077634D01*
X83383797Y-77077634D01*
X83398077Y-77115531D01*
X83413603Y-77283083D01*
X83469418Y-77479250D01*
X83560327Y-77661821D01*
X83683236Y-77824579D01*
X83833959Y-77961981D01*
X84007363Y-78069348D01*
X84197544Y-78143024D01*
X84398024Y-78180500D01*
X84601976Y-78180500D01*
X84802456Y-78143024D01*
X84992637Y-78069348D01*
X85166041Y-77961981D01*
X85316764Y-77824579D01*
X85439673Y-77661821D01*
X85530582Y-77479250D01*
X85586397Y-77283083D01*
X85605215Y-77080000D01*
X85586397Y-76876917D01*
X85530582Y-76680750D01*
X85439673Y-76498179D01*
X85316764Y-76335421D01*
X85166041Y-76198019D01*
X84992637Y-76090652D01*
X84802456Y-76016976D01*
X84802455Y-76016975D01*
X84802453Y-76016975D01*
X84601976Y-75979500D01*
X84398024Y-75979500D01*
X84197546Y-76016975D01*
X84127632Y-76044059D01*
X84007363Y-76090652D01*
X83956124Y-76122378D01*
X83833959Y-76198019D01*
X83683237Y-76335420D01*
X83560328Y-76498177D01*
X83560323Y-76498186D01*
X83469419Y-76680747D01*
X83469418Y-76680750D01*
X83413603Y-76876917D01*
X83408129Y-76935998D01*
X83398078Y-77044466D01*
X83383797Y-77077634D01*
X83212115Y-77077634D01*
X83200500Y-77035331D01*
X83200500Y-74584668D01*
X83213794Y-74543750D01*
X83212115Y-74537634D01*
X83383797Y-74537634D01*
X83398077Y-74575531D01*
X83413603Y-74743083D01*
X83469418Y-74939250D01*
X83560327Y-75121821D01*
X83683236Y-75284579D01*
X83833959Y-75421981D01*
X84007363Y-75529348D01*
X84197544Y-75603024D01*
X84398024Y-75640500D01*
X84601976Y-75640500D01*
X84802456Y-75603024D01*
X84992637Y-75529348D01*
X85166041Y-75421981D01*
X85316764Y-75284579D01*
X85439673Y-75121821D01*
X85530582Y-74939250D01*
X85586397Y-74743083D01*
X85605215Y-74540000D01*
X85586397Y-74336917D01*
X85530582Y-74140750D01*
X85439673Y-73958179D01*
X85316764Y-73795421D01*
X85166041Y-73658019D01*
X84992637Y-73550652D01*
X84802456Y-73476976D01*
X84802455Y-73476975D01*
X84802453Y-73476975D01*
X84601976Y-73439500D01*
X84398024Y-73439500D01*
X84197546Y-73476975D01*
X84127632Y-73504059D01*
X84007363Y-73550652D01*
X83833959Y-73658019D01*
X83683237Y-73795420D01*
X83560328Y-73958177D01*
X83560323Y-73958186D01*
X83469419Y-74140747D01*
X83413603Y-74336917D01*
X83398078Y-74504466D01*
X83383797Y-74537634D01*
X83212115Y-74537634D01*
X83200500Y-74495331D01*
X83200500Y-73399999D01*
X87844750Y-73399999D01*
X87844750Y-73400000D01*
X87863669Y-73543708D01*
X87863670Y-73543709D01*
X87919139Y-73677625D01*
X88007379Y-73792621D01*
X88107568Y-73869499D01*
X88142223Y-73919924D01*
X88146300Y-73948041D01*
X88146300Y-94953372D01*
X88127393Y-95011563D01*
X88125844Y-95013637D01*
X88119139Y-95022375D01*
X88119137Y-95022378D01*
X88063670Y-95156290D01*
X88063669Y-95156291D01*
X88044750Y-95299999D01*
X88044750Y-95300000D01*
X88063669Y-95443708D01*
X88063670Y-95443709D01*
X88119139Y-95577625D01*
X88207379Y-95692621D01*
X88322375Y-95780861D01*
X88456291Y-95836330D01*
X88600000Y-95855250D01*
X88743709Y-95836330D01*
X88877625Y-95780861D01*
X88992621Y-95692621D01*
X89080861Y-95577625D01*
X89136330Y-95443709D01*
X89155250Y-95300000D01*
X89136330Y-95156291D01*
X89080861Y-95022375D01*
X89074155Y-95013636D01*
X89053734Y-94955961D01*
X89053700Y-94953372D01*
X89053700Y-94700578D01*
X89072607Y-94642387D01*
X89122107Y-94606423D01*
X89183293Y-94606423D01*
X89190583Y-94609113D01*
X89256291Y-94636330D01*
X89400000Y-94655250D01*
X89543709Y-94636330D01*
X89677625Y-94580861D01*
X89792621Y-94492621D01*
X89880861Y-94377625D01*
X89936330Y-94243709D01*
X89955250Y-94100000D01*
X89936330Y-93956291D01*
X89880861Y-93822375D01*
X89792621Y-93707379D01*
X89792616Y-93707375D01*
X89792614Y-93707373D01*
X89707652Y-93642178D01*
X89672997Y-93591753D01*
X89668920Y-93563637D01*
X89668920Y-82105139D01*
X98270911Y-82105139D01*
X98307453Y-82124317D01*
X98472504Y-82164999D01*
X98472508Y-82165000D01*
X98642492Y-82165000D01*
X98642497Y-82164999D01*
X98807544Y-82124318D01*
X98807547Y-82124317D01*
X98844086Y-82105140D01*
X98844085Y-82105139D01*
X99795911Y-82105139D01*
X99832453Y-82124317D01*
X99997504Y-82164999D01*
X99997508Y-82165000D01*
X100167492Y-82165000D01*
X100167497Y-82164999D01*
X100332544Y-82124318D01*
X100332547Y-82124317D01*
X100369086Y-82105140D01*
X100082499Y-81818553D01*
X99795911Y-82105139D01*
X98844085Y-82105139D01*
X98557499Y-81818553D01*
X98270911Y-82105139D01*
X89668920Y-82105139D01*
X89668920Y-81342639D01*
X97508411Y-81342639D01*
X97544953Y-81361817D01*
X97710004Y-81402499D01*
X97710008Y-81402500D01*
X97757064Y-81402500D01*
X97815255Y-81421407D01*
X97851219Y-81470907D01*
X97855342Y-81489567D01*
X97872848Y-81633749D01*
X97872849Y-81633750D01*
X97917489Y-81751456D01*
X98203947Y-81464999D01*
X98174111Y-81435163D01*
X98407500Y-81435163D01*
X98407500Y-81494837D01*
X98430336Y-81549968D01*
X98472532Y-81592164D01*
X98527663Y-81615000D01*
X98587337Y-81615000D01*
X98642468Y-81592164D01*
X98684664Y-81549968D01*
X98707500Y-81494837D01*
X98707500Y-81464999D01*
X98911053Y-81464999D01*
X98911053Y-81465000D01*
X99197509Y-81751456D01*
X99227432Y-81672557D01*
X99265746Y-81624852D01*
X99324782Y-81608779D01*
X99381991Y-81630475D01*
X99412565Y-81672557D01*
X99442488Y-81751456D01*
X99442489Y-81751456D01*
X99728947Y-81464999D01*
X99699111Y-81435163D01*
X99932500Y-81435163D01*
X99932500Y-81494837D01*
X99955336Y-81549968D01*
X99997532Y-81592164D01*
X100052663Y-81615000D01*
X100112337Y-81615000D01*
X100167468Y-81592164D01*
X100209664Y-81549968D01*
X100232500Y-81494837D01*
X100232500Y-81464999D01*
X100436053Y-81464999D01*
X100436053Y-81465000D01*
X100722509Y-81751457D01*
X100767149Y-81633755D01*
X100767151Y-81633749D01*
X100784658Y-81489567D01*
X100810441Y-81434079D01*
X100863915Y-81404344D01*
X100882936Y-81402500D01*
X100929992Y-81402500D01*
X100929997Y-81402499D01*
X101095044Y-81361818D01*
X101095047Y-81361817D01*
X101131586Y-81342640D01*
X100844999Y-81056053D01*
X100436053Y-81464999D01*
X100232500Y-81464999D01*
X100232500Y-81435163D01*
X100209664Y-81380032D01*
X100167468Y-81337836D01*
X100112337Y-81315000D01*
X100052663Y-81315000D01*
X99997532Y-81337836D01*
X99955336Y-81380032D01*
X99932500Y-81435163D01*
X99699111Y-81435163D01*
X99668605Y-81404657D01*
X99320000Y-81056053D01*
X98971395Y-81404657D01*
X98911053Y-81464999D01*
X98707500Y-81464999D01*
X98707500Y-81435163D01*
X98684664Y-81380032D01*
X98642468Y-81337836D01*
X98587337Y-81315000D01*
X98527663Y-81315000D01*
X98472532Y-81337836D01*
X98430336Y-81380032D01*
X98407500Y-81435163D01*
X98174111Y-81435163D01*
X98143605Y-81404657D01*
X97795000Y-81056053D01*
X97508411Y-81342639D01*
X89668920Y-81342639D01*
X89668920Y-80702498D01*
X97089859Y-80702498D01*
X97089859Y-80702501D01*
X97110348Y-80871249D01*
X97110349Y-80871250D01*
X97154989Y-80988956D01*
X97441446Y-80702500D01*
X97411609Y-80672663D01*
X97645000Y-80672663D01*
X97645000Y-80732337D01*
X97667836Y-80787468D01*
X97710032Y-80829664D01*
X97765163Y-80852500D01*
X97824837Y-80852500D01*
X97879968Y-80829664D01*
X97922164Y-80787468D01*
X97945000Y-80732337D01*
X97945000Y-80702499D01*
X98148553Y-80702499D01*
X98148553Y-80702500D01*
X98208895Y-80762843D01*
X98557500Y-81111447D01*
X98906105Y-80762843D01*
X98966447Y-80702500D01*
X98966447Y-80702499D01*
X98936611Y-80672663D01*
X99170000Y-80672663D01*
X99170000Y-80732337D01*
X99192836Y-80787468D01*
X99235032Y-80829664D01*
X99290163Y-80852500D01*
X99349837Y-80852500D01*
X99404968Y-80829664D01*
X99447164Y-80787468D01*
X99470000Y-80732337D01*
X99470000Y-80702499D01*
X99673553Y-80702499D01*
X99673553Y-80702500D01*
X99733895Y-80762843D01*
X100082500Y-81111447D01*
X100431105Y-80762843D01*
X100491447Y-80702500D01*
X100491447Y-80702499D01*
X100461611Y-80672663D01*
X100695000Y-80672663D01*
X100695000Y-80732337D01*
X100717836Y-80787468D01*
X100760032Y-80829664D01*
X100815163Y-80852500D01*
X100874837Y-80852500D01*
X100929968Y-80829664D01*
X100972164Y-80787468D01*
X100995000Y-80732337D01*
X100995000Y-80702499D01*
X101198553Y-80702499D01*
X101198553Y-80702500D01*
X101485009Y-80988957D01*
X101529649Y-80871255D01*
X101529651Y-80871249D01*
X101550141Y-80702501D01*
X101550141Y-80702498D01*
X101529651Y-80533750D01*
X101529650Y-80533749D01*
X101485009Y-80416042D01*
X101198553Y-80702499D01*
X100995000Y-80702499D01*
X100995000Y-80672663D01*
X100972164Y-80617532D01*
X100929968Y-80575336D01*
X100874837Y-80552500D01*
X100815163Y-80552500D01*
X100760032Y-80575336D01*
X100717836Y-80617532D01*
X100695000Y-80672663D01*
X100461611Y-80672663D01*
X100431105Y-80642157D01*
X100082500Y-80293553D01*
X99733895Y-80642157D01*
X99673553Y-80702499D01*
X99470000Y-80702499D01*
X99470000Y-80672663D01*
X99447164Y-80617532D01*
X99404968Y-80575336D01*
X99349837Y-80552500D01*
X99290163Y-80552500D01*
X99235032Y-80575336D01*
X99192836Y-80617532D01*
X99170000Y-80672663D01*
X98936611Y-80672663D01*
X98906105Y-80642157D01*
X98557500Y-80293553D01*
X98208895Y-80642157D01*
X98148553Y-80702499D01*
X97945000Y-80702499D01*
X97945000Y-80672663D01*
X97922164Y-80617532D01*
X97879968Y-80575336D01*
X97824837Y-80552500D01*
X97765163Y-80552500D01*
X97710032Y-80575336D01*
X97667836Y-80617532D01*
X97645000Y-80672663D01*
X97411609Y-80672663D01*
X97154989Y-80416043D01*
X97110348Y-80533751D01*
X97089859Y-80702498D01*
X89668920Y-80702498D01*
X89668920Y-79817639D01*
X97508411Y-79817639D01*
X97544953Y-79836817D01*
X97573593Y-79843877D01*
X97625568Y-79876161D01*
X97648640Y-79932830D01*
X97633997Y-79992237D01*
X97587232Y-80031692D01*
X97573593Y-80036123D01*
X97544955Y-80043181D01*
X97544950Y-80043183D01*
X97508412Y-80062358D01*
X97795000Y-80348946D01*
X98143605Y-80000343D01*
X98203947Y-79940000D01*
X98203947Y-79939999D01*
X98174111Y-79910163D01*
X98407500Y-79910163D01*
X98407500Y-79969837D01*
X98430336Y-80024968D01*
X98472532Y-80067164D01*
X98527663Y-80090000D01*
X98587337Y-80090000D01*
X98642468Y-80067164D01*
X98684664Y-80024968D01*
X98707500Y-79969837D01*
X98707500Y-79939999D01*
X98911053Y-79939999D01*
X98911053Y-79940000D01*
X98971395Y-80000343D01*
X99320000Y-80348947D01*
X99668605Y-80000343D01*
X99728947Y-79940000D01*
X99728947Y-79939999D01*
X99699111Y-79910163D01*
X99932500Y-79910163D01*
X99932500Y-79969837D01*
X99955336Y-80024968D01*
X99997532Y-80067164D01*
X100052663Y-80090000D01*
X100112337Y-80090000D01*
X100167468Y-80067164D01*
X100209664Y-80024968D01*
X100232500Y-79969837D01*
X100232500Y-79939999D01*
X100436053Y-79939999D01*
X100436053Y-79940000D01*
X100496395Y-80000343D01*
X100844999Y-80348946D01*
X101131587Y-80062359D01*
X101131586Y-80062358D01*
X101095052Y-80043184D01*
X101095044Y-80043181D01*
X101066406Y-80036123D01*
X101014432Y-80003839D01*
X100991359Y-79947171D01*
X101006002Y-79887763D01*
X101052767Y-79848309D01*
X101066407Y-79843877D01*
X101095045Y-79836818D01*
X101095047Y-79836817D01*
X101131586Y-79817640D01*
X100844999Y-79531053D01*
X100436053Y-79939999D01*
X100232500Y-79939999D01*
X100232500Y-79910163D01*
X100209664Y-79855032D01*
X100167468Y-79812836D01*
X100112337Y-79790000D01*
X100052663Y-79790000D01*
X99997532Y-79812836D01*
X99955336Y-79855032D01*
X99932500Y-79910163D01*
X99699111Y-79910163D01*
X99668605Y-79879657D01*
X99320000Y-79531053D01*
X98971395Y-79879657D01*
X98911053Y-79939999D01*
X98707500Y-79939999D01*
X98707500Y-79910163D01*
X98684664Y-79855032D01*
X98642468Y-79812836D01*
X98587337Y-79790000D01*
X98527663Y-79790000D01*
X98472532Y-79812836D01*
X98430336Y-79855032D01*
X98407500Y-79910163D01*
X98174111Y-79910163D01*
X98143605Y-79879657D01*
X97795000Y-79531053D01*
X97508411Y-79817639D01*
X89668920Y-79817639D01*
X89668920Y-79177498D01*
X97089859Y-79177498D01*
X97089859Y-79177501D01*
X97110348Y-79346249D01*
X97110349Y-79346250D01*
X97154989Y-79463956D01*
X97441446Y-79177500D01*
X97411609Y-79147663D01*
X97645000Y-79147663D01*
X97645000Y-79207337D01*
X97667836Y-79262468D01*
X97710032Y-79304664D01*
X97765163Y-79327500D01*
X97824837Y-79327500D01*
X97879968Y-79304664D01*
X97922164Y-79262468D01*
X97945000Y-79207337D01*
X97945000Y-79177499D01*
X98148553Y-79177499D01*
X98148553Y-79177500D01*
X98208895Y-79237843D01*
X98557500Y-79586447D01*
X98906105Y-79237843D01*
X98966447Y-79177500D01*
X98966447Y-79177499D01*
X98936611Y-79147663D01*
X99170000Y-79147663D01*
X99170000Y-79207337D01*
X99192836Y-79262468D01*
X99235032Y-79304664D01*
X99290163Y-79327500D01*
X99349837Y-79327500D01*
X99404968Y-79304664D01*
X99447164Y-79262468D01*
X99470000Y-79207337D01*
X99470000Y-79177499D01*
X99673553Y-79177499D01*
X99673553Y-79177500D01*
X99733895Y-79237843D01*
X100082500Y-79586447D01*
X100431105Y-79237843D01*
X100491447Y-79177500D01*
X100491447Y-79177499D01*
X100461611Y-79147663D01*
X100695000Y-79147663D01*
X100695000Y-79207337D01*
X100717836Y-79262468D01*
X100760032Y-79304664D01*
X100815163Y-79327500D01*
X100874837Y-79327500D01*
X100929968Y-79304664D01*
X100972164Y-79262468D01*
X100995000Y-79207337D01*
X100995000Y-79177499D01*
X101198553Y-79177499D01*
X101198553Y-79177500D01*
X101485009Y-79463957D01*
X101529649Y-79346255D01*
X101529651Y-79346249D01*
X101550141Y-79177501D01*
X101550141Y-79177498D01*
X101529651Y-79008750D01*
X101529650Y-79008749D01*
X101485009Y-78891042D01*
X101198553Y-79177499D01*
X100995000Y-79177499D01*
X100995000Y-79147663D01*
X100972164Y-79092532D01*
X100929968Y-79050336D01*
X100874837Y-79027500D01*
X100815163Y-79027500D01*
X100760032Y-79050336D01*
X100717836Y-79092532D01*
X100695000Y-79147663D01*
X100461611Y-79147663D01*
X100431105Y-79117157D01*
X100082500Y-78768553D01*
X99733895Y-79117157D01*
X99673553Y-79177499D01*
X99470000Y-79177499D01*
X99470000Y-79147663D01*
X99447164Y-79092532D01*
X99404968Y-79050336D01*
X99349837Y-79027500D01*
X99290163Y-79027500D01*
X99235032Y-79050336D01*
X99192836Y-79092532D01*
X99170000Y-79147663D01*
X98936611Y-79147663D01*
X98906105Y-79117157D01*
X98557500Y-78768553D01*
X98208895Y-79117157D01*
X98148553Y-79177499D01*
X97945000Y-79177499D01*
X97945000Y-79147663D01*
X97922164Y-79092532D01*
X97879968Y-79050336D01*
X97824837Y-79027500D01*
X97765163Y-79027500D01*
X97710032Y-79050336D01*
X97667836Y-79092532D01*
X97645000Y-79147663D01*
X97411609Y-79147663D01*
X97154989Y-78891043D01*
X97110348Y-79008751D01*
X97089859Y-79177498D01*
X89668920Y-79177498D01*
X89668920Y-78537358D01*
X97508412Y-78537358D01*
X97795000Y-78823946D01*
X98143605Y-78475343D01*
X98203946Y-78415000D01*
X98174109Y-78385163D01*
X98407500Y-78385163D01*
X98407500Y-78444837D01*
X98430336Y-78499968D01*
X98472532Y-78542164D01*
X98527663Y-78565000D01*
X98587337Y-78565000D01*
X98642468Y-78542164D01*
X98684664Y-78499968D01*
X98707500Y-78444837D01*
X98707500Y-78414999D01*
X98911053Y-78414999D01*
X98911053Y-78415000D01*
X98971395Y-78475343D01*
X99320000Y-78823947D01*
X99668605Y-78475343D01*
X99728946Y-78415000D01*
X99699109Y-78385163D01*
X99932500Y-78385163D01*
X99932500Y-78444837D01*
X99955336Y-78499968D01*
X99997532Y-78542164D01*
X100052663Y-78565000D01*
X100112337Y-78565000D01*
X100167468Y-78542164D01*
X100209664Y-78499968D01*
X100232500Y-78444837D01*
X100232500Y-78414999D01*
X100436053Y-78414999D01*
X100436053Y-78415000D01*
X100496395Y-78475343D01*
X100844999Y-78823946D01*
X101131587Y-78537359D01*
X101131586Y-78537358D01*
X101095052Y-78518184D01*
X101095044Y-78518181D01*
X100929995Y-78477500D01*
X100882936Y-78477500D01*
X100824745Y-78458593D01*
X100788781Y-78409093D01*
X100784658Y-78390433D01*
X100767151Y-78246250D01*
X100767150Y-78246249D01*
X100722509Y-78128542D01*
X100436053Y-78414999D01*
X100232500Y-78414999D01*
X100232500Y-78385163D01*
X100209664Y-78330032D01*
X100167468Y-78287836D01*
X100112337Y-78265000D01*
X100052663Y-78265000D01*
X99997532Y-78287836D01*
X99955336Y-78330032D01*
X99932500Y-78385163D01*
X99699109Y-78385163D01*
X99442489Y-78128543D01*
X99412567Y-78207442D01*
X99374253Y-78255146D01*
X99315217Y-78271220D01*
X99258008Y-78249524D01*
X99227434Y-78207442D01*
X99197510Y-78128542D01*
X99197509Y-78128542D01*
X98911053Y-78414999D01*
X98707500Y-78414999D01*
X98707500Y-78385163D01*
X98684664Y-78330032D01*
X98642468Y-78287836D01*
X98587337Y-78265000D01*
X98527663Y-78265000D01*
X98472532Y-78287836D01*
X98430336Y-78330032D01*
X98407500Y-78385163D01*
X98174109Y-78385163D01*
X97917489Y-78128543D01*
X97872848Y-78246251D01*
X97855342Y-78390433D01*
X97829559Y-78445921D01*
X97776085Y-78475656D01*
X97757064Y-78477500D01*
X97710004Y-78477500D01*
X97544955Y-78518181D01*
X97544950Y-78518183D01*
X97508412Y-78537358D01*
X89668920Y-78537358D01*
X89668920Y-77774858D01*
X98270912Y-77774858D01*
X98557500Y-78061446D01*
X98844087Y-77774859D01*
X98844086Y-77774858D01*
X99795912Y-77774858D01*
X100082500Y-78061446D01*
X100369087Y-77774859D01*
X100369086Y-77774858D01*
X100332552Y-77755684D01*
X100332544Y-77755681D01*
X100167495Y-77715000D01*
X99997504Y-77715000D01*
X99832455Y-77755681D01*
X99832450Y-77755683D01*
X99795912Y-77774858D01*
X98844086Y-77774858D01*
X98807552Y-77755684D01*
X98807544Y-77755681D01*
X98642495Y-77715000D01*
X98472504Y-77715000D01*
X98307455Y-77755681D01*
X98307450Y-77755683D01*
X98270912Y-77774858D01*
X89668920Y-77774858D01*
X89668920Y-77705645D01*
X89687827Y-77647454D01*
X89707653Y-77627103D01*
X89734841Y-77606241D01*
X89823081Y-77491245D01*
X89878550Y-77357329D01*
X89897470Y-77213620D01*
X89880189Y-77082364D01*
X89878550Y-77069911D01*
X89823081Y-76935995D01*
X89734841Y-76820999D01*
X89619845Y-76732759D01*
X89619841Y-76732757D01*
X89485929Y-76677290D01*
X89485928Y-76677289D01*
X89342220Y-76658370D01*
X89198513Y-76677289D01*
X89198511Y-76677290D01*
X89190582Y-76680574D01*
X89129587Y-76685373D01*
X89077419Y-76653403D01*
X89054005Y-76596875D01*
X89053700Y-76589109D01*
X89053700Y-74540000D01*
X114394785Y-74540000D01*
X114413603Y-74743083D01*
X114469418Y-74939250D01*
X114560327Y-75121821D01*
X114683236Y-75284579D01*
X114833959Y-75421981D01*
X115007363Y-75529348D01*
X115197544Y-75603024D01*
X115398024Y-75640500D01*
X115601976Y-75640500D01*
X115802456Y-75603024D01*
X115992637Y-75529348D01*
X116166041Y-75421981D01*
X116316764Y-75284579D01*
X116439673Y-75121821D01*
X116530582Y-74939250D01*
X116586397Y-74743083D01*
X116601922Y-74575531D01*
X116616202Y-74542364D01*
X116601922Y-74504466D01*
X116601076Y-74495331D01*
X116586397Y-74336917D01*
X116530582Y-74140750D01*
X116439673Y-73958179D01*
X116316764Y-73795421D01*
X116166041Y-73658019D01*
X115992637Y-73550652D01*
X115802456Y-73476976D01*
X115802455Y-73476975D01*
X115802453Y-73476975D01*
X115601976Y-73439500D01*
X115398024Y-73439500D01*
X115197546Y-73476975D01*
X115127632Y-73504059D01*
X115007363Y-73550652D01*
X114833959Y-73658019D01*
X114683237Y-73795420D01*
X114560328Y-73958177D01*
X114560323Y-73958186D01*
X114469419Y-74140747D01*
X114469418Y-74140750D01*
X114413603Y-74336917D01*
X114394785Y-74540000D01*
X89053700Y-74540000D01*
X89053700Y-73540270D01*
X89053700Y-73540269D01*
X89022781Y-73424878D01*
X89000918Y-73387010D01*
X88963051Y-73321422D01*
X88963048Y-73321419D01*
X88963047Y-73321417D01*
X88959100Y-73316272D01*
X88961063Y-73314765D01*
X88938138Y-73269770D01*
X88937778Y-73267292D01*
X88936330Y-73256291D01*
X88880861Y-73122375D01*
X88792621Y-73007379D01*
X88677625Y-72919139D01*
X88677621Y-72919137D01*
X88543709Y-72863670D01*
X88543708Y-72863669D01*
X88400000Y-72844750D01*
X88256291Y-72863669D01*
X88256290Y-72863670D01*
X88122378Y-72919137D01*
X88122374Y-72919139D01*
X88007381Y-73007377D01*
X88007377Y-73007381D01*
X87919139Y-73122374D01*
X87919137Y-73122378D01*
X87863670Y-73256290D01*
X87863669Y-73256291D01*
X87844750Y-73399999D01*
X83200500Y-73399999D01*
X83200500Y-71149000D01*
X83219407Y-71090809D01*
X83268907Y-71054845D01*
X83299500Y-71050000D01*
X83300500Y-71050000D01*
X83358691Y-71068907D01*
G37*
G04 #@! TD.AperFunction*
G04 #@! TD*
D21*
X85000000Y-115000000D02*
G75*
G02*
X83000000Y-113000000I0J2000000D01*
G01*
X115000000Y-115000000D02*
X85000000Y-115000000D01*
X83000000Y-113000000D02*
X83000000Y-67000000D01*
X117000000Y-67000000D02*
X117000000Y-113000000D01*
X115000000Y-65000000D02*
X111000000Y-65000000D01*
X89000000Y-71000000D02*
X89000000Y-65000000D01*
X115000000Y-65000000D02*
G75*
G02*
X117000000Y-67000000I0J-2000000D01*
G01*
X111000000Y-71000000D02*
X89000000Y-71000000D01*
X89000000Y-65000000D02*
X85000000Y-65000000D01*
X83000000Y-67000000D02*
G75*
G02*
X85000000Y-65000000I2000000J0D01*
G01*
X111000000Y-65000000D02*
X111000000Y-71000000D01*
X117000000Y-113000000D02*
G75*
G02*
X115000000Y-115000000I-2000000J0D01*
G01*
M02*
