M48
; DRILL file {KiCad 8.0.2} date 2024-05-24T09:08:17+1000
; FORMAT={-:-/ absolute / inch / decimal}
; #@! TF.CreationDate,2024-05-24T09:08:17+10:00
; #@! TF.GenerationSoftware,Kicad,Pcbnew,8.0.2
; #@! TF.FileFunction,Plated,1,2,PTH
FMAT,2
INCH
; #@! TA.AperFunction,Plated,PTH,ViaDrill
T1C0.0118
; #@! TA.AperFunction,Plated,PTH,ComponentDrill
T2C0.0118
; #@! TA.AperFunction,Plated,PTH,ComponentDrill
T3C0.0236
; #@! TA.AperFunction,Plated,PTH,ComponentDrill
T4C0.0394
%
G90
G05
T1
X3.4606Y-2.8268
X3.4606Y-2.937
X3.4606Y-3.0118
X3.4646Y-4.035
X3.4724Y-4.1102
X3.4803Y-2.8898
X3.4882Y-3.752
X3.5174Y-3.0399
X3.5197Y-3.7047
X3.54Y-3.88
X3.5787Y-3.811
X3.5787Y-3.9173
X3.66Y-3.96
X3.6614Y-2.815
X3.6614Y-3.7362
X3.6654Y-3.6417
X3.7Y-3.815
X3.7205Y-2.815
X3.7679Y-4.1848
X3.7795Y-2.815
X3.815Y-3.9213
X3.8386Y-2.815
X3.8504Y-4.248
X3.8937Y-4.0315
X3.8976Y-2.815
X3.9055Y-3.8543
X3.9094Y-3.6417
X3.9094Y-3.7362
X3.9449Y-4.185
X3.9567Y-2.815
X3.9961Y-3.7835
X3.9961Y-4.0669
X4.0157Y-2.815
X4.0433Y-4.0669
X4.0748Y-2.815
X4.0787Y-4.0
X4.0807Y-4.061
X4.0945Y-3.6417
X4.1318Y-4.2165
X4.1339Y-2.815
X4.1693Y-3.7047
X4.1811Y-3.8622
X4.1811Y-4.2205
X4.1929Y-2.815
X4.2037Y-3.0551
X4.2283Y-3.0079
X4.2362Y-3.8189
X4.2609Y-3.7047
X4.2913Y-3.5984
X4.2992Y-3.9921
X4.2992Y-4.0591
X4.3425Y-3.4882
X4.3504Y-2.815
X4.3504Y-3.62
X4.37Y-4.125
X4.4094Y-2.815
T2
X3.8502Y-3.1172
X3.8502Y-3.1773
X3.8802Y-3.0872
X3.8802Y-3.1472
X3.8802Y-3.2073
X3.9102Y-3.1172
X3.9102Y-3.1773
X3.9403Y-3.0872
X3.9403Y-3.1472
X3.9403Y-3.2073
X3.9703Y-3.1172
X3.9703Y-3.1773
T4
X3.3268Y-2.8346
X3.3268Y-2.9346
X3.3268Y-3.0346
X3.3268Y-3.1346
X3.3268Y-3.2346
X3.3268Y-3.3346
X3.3268Y-3.4346
X3.3268Y-3.5346
X3.3268Y-3.6346
X3.3268Y-3.7346
X3.3268Y-3.8346
X3.3268Y-3.9346
X3.3268Y-4.0346
X3.3268Y-4.1346
X3.3268Y-4.2346
X3.5886Y-4.2979
X3.687Y-4.2979
X4.5472Y-2.8346
X4.5472Y-2.9346
X4.5472Y-3.0346
X4.5472Y-3.1346
X4.5472Y-3.2346
X4.5472Y-3.3346
X4.5472Y-3.4346
X4.5472Y-3.5346
X4.5472Y-3.6346
X4.5472Y-3.7346
X4.5472Y-3.8346
X4.5472Y-3.9346
X4.5472Y-4.0346
X4.5472Y-4.1346
X4.5472Y-4.2346
T3
G00X3.9756Y-4.2697
M15
G01X3.9756Y-4.313
M16
G05
G00X3.9756Y-4.4441
M15
G01X3.9756Y-4.4677
M16
G05
G00X4.3157Y-4.2697
M15
G01X4.3157Y-4.313
M16
G05
G00X4.3157Y-4.4441
M15
G01X4.3157Y-4.4677
M16
G05
M30
