G04 #@! TF.GenerationSoftware,KiCad,Pcbnew,8.0.2*
G04 #@! TF.CreationDate,2024-05-24T09:08:15+10:00*
G04 #@! TF.ProjectId,design,64657369-676e-42e6-9b69-6361645f7063,rev?*
G04 #@! TF.SameCoordinates,Original*
G04 #@! TF.FileFunction,Soldermask,Bot*
G04 #@! TF.FilePolarity,Negative*
%FSLAX46Y46*%
G04 Gerber Fmt 4.6, Leading zero omitted, Abs format (unit mm)*
G04 Created by KiCad (PCBNEW 8.0.2) date 2024-05-24 09:08:15*
%MOMM*%
%LPD*%
G01*
G04 APERTURE LIST*
G04 Aperture macros list*
%AMRoundRect*
0 Rectangle with rounded corners*
0 $1 Rounding radius*
0 $2 $3 $4 $5 $6 $7 $8 $9 X,Y pos of 4 corners*
0 Add a 4 corners polygon primitive as box body*
4,1,4,$2,$3,$4,$5,$6,$7,$8,$9,$2,$3,0*
0 Add four circle primitives for the rounded corners*
1,1,$1+$1,$2,$3*
1,1,$1+$1,$4,$5*
1,1,$1+$1,$6,$7*
1,1,$1+$1,$8,$9*
0 Add four rect primitives between the rounded corners*
20,1,$1+$1,$2,$3,$4,$5,0*
20,1,$1+$1,$4,$5,$6,$7,0*
20,1,$1+$1,$6,$7,$8,$9,0*
20,1,$1+$1,$8,$9,$2,$3,0*%
G04 Aperture macros list end*
%ADD10C,2.100000*%
%ADD11RoundRect,0.250000X0.600000X0.750000X-0.600000X0.750000X-0.600000X-0.750000X0.600000X-0.750000X0*%
%ADD12O,1.700000X2.000000*%
%ADD13C,0.650000*%
%ADD14O,1.000000X2.100000*%
%ADD15O,1.000000X1.600000*%
%ADD16R,1.700000X1.700000*%
%ADD17O,1.700000X1.700000*%
G04 #@! TA.AperFunction,Profile*
%ADD18C,0.100000*%
G04 #@! TD*
G04 APERTURE END LIST*
D10*
G04 #@! TO.C,H1*
X85000000Y-67000000D03*
G04 #@! TD*
G04 #@! TO.C,H4*
X85000000Y-113000000D03*
G04 #@! TD*
G04 #@! TO.C,H2*
X115000000Y-67000000D03*
G04 #@! TD*
D11*
G04 #@! TO.C,J4*
X93650000Y-109167500D03*
D12*
X91150000Y-109167500D03*
G04 #@! TD*
D10*
G04 #@! TO.C,H3*
X115000000Y-113000000D03*
G04 #@! TD*
D13*
G04 #@! TO.C,J1*
X102410000Y-109500000D03*
X108190000Y-109500000D03*
D14*
X100980000Y-109000000D03*
D15*
X100980000Y-113180000D03*
D14*
X109620000Y-109000000D03*
D15*
X109620000Y-113180000D03*
G04 #@! TD*
D16*
G04 #@! TO.C,J2*
X84500000Y-72000000D03*
D17*
X84500000Y-74540000D03*
X84500000Y-77080000D03*
X84500000Y-79620000D03*
X84500000Y-82160000D03*
X84500000Y-84700000D03*
X84500000Y-87240000D03*
X84500000Y-89780000D03*
X84500000Y-92320000D03*
X84500000Y-94860000D03*
X84500000Y-97400000D03*
X84500000Y-99940000D03*
X84500000Y-102480000D03*
X84500000Y-105020000D03*
X84500000Y-107560000D03*
G04 #@! TD*
D16*
G04 #@! TO.C,J3*
X115500000Y-72000000D03*
D17*
X115500000Y-74540000D03*
X115500000Y-77080000D03*
X115500000Y-79620000D03*
X115500000Y-82160000D03*
X115500000Y-84700000D03*
X115500000Y-87240000D03*
X115500000Y-89780000D03*
X115500000Y-92320000D03*
X115500000Y-94860000D03*
X115500000Y-97400000D03*
X115500000Y-99940000D03*
X115500000Y-102480000D03*
X115500000Y-105020000D03*
X115500000Y-107560000D03*
G04 #@! TD*
D18*
X85000000Y-115000000D02*
G75*
G02*
X83000000Y-113000000I0J2000000D01*
G01*
X115000000Y-115000000D02*
X85000000Y-115000000D01*
X83000000Y-113000000D02*
X83000000Y-67000000D01*
X117000000Y-67000000D02*
X117000000Y-113000000D01*
X115000000Y-65000000D02*
X111000000Y-65000000D01*
X89000000Y-71000000D02*
X89000000Y-65000000D01*
X115000000Y-65000000D02*
G75*
G02*
X117000000Y-67000000I0J-2000000D01*
G01*
X111000000Y-71000000D02*
X89000000Y-71000000D01*
X89000000Y-65000000D02*
X85000000Y-65000000D01*
X83000000Y-67000000D02*
G75*
G02*
X85000000Y-65000000I2000000J0D01*
G01*
X111000000Y-65000000D02*
X111000000Y-71000000D01*
X117000000Y-113000000D02*
G75*
G02*
X115000000Y-115000000I-2000000J0D01*
G01*
M02*
