G04 #@! TF.GenerationSoftware,KiCad,Pcbnew,8.0.2*
G04 #@! TF.CreationDate,2024-05-24T09:08:15+10:00*
G04 #@! TF.ProjectId,design,64657369-676e-42e6-9b69-6361645f7063,rev?*
G04 #@! TF.SameCoordinates,Original*
G04 #@! TF.FileFunction,AssemblyDrawing,Top*
%FSLAX46Y46*%
G04 Gerber Fmt 4.6, Leading zero omitted, Abs format (unit mm)*
G04 Created by KiCad (PCBNEW 8.0.2) date 2024-05-24 09:08:15*
%MOMM*%
%LPD*%
G01*
G04 APERTURE LIST*
%ADD10C,0.150000*%
%ADD11C,0.040000*%
%ADD12C,0.060000*%
%ADD13C,0.050000*%
%ADD14C,0.075000*%
%ADD15C,0.100000*%
G04 #@! TA.AperFunction,Profile*
%ADD16C,0.100000*%
G04 #@! TD*
G04 APERTURE END LIST*
D10*
X89614819Y-106542856D02*
X89614819Y-106447618D01*
X89614819Y-106447618D02*
X89662438Y-106352380D01*
X89662438Y-106352380D02*
X89710057Y-106304761D01*
X89710057Y-106304761D02*
X89805295Y-106257142D01*
X89805295Y-106257142D02*
X89995771Y-106209523D01*
X89995771Y-106209523D02*
X90233866Y-106209523D01*
X90233866Y-106209523D02*
X90424342Y-106257142D01*
X90424342Y-106257142D02*
X90519580Y-106304761D01*
X90519580Y-106304761D02*
X90567200Y-106352380D01*
X90567200Y-106352380D02*
X90614819Y-106447618D01*
X90614819Y-106447618D02*
X90614819Y-106542856D01*
X90614819Y-106542856D02*
X90567200Y-106638094D01*
X90567200Y-106638094D02*
X90519580Y-106685713D01*
X90519580Y-106685713D02*
X90424342Y-106733332D01*
X90424342Y-106733332D02*
X90233866Y-106780951D01*
X90233866Y-106780951D02*
X89995771Y-106780951D01*
X89995771Y-106780951D02*
X89805295Y-106733332D01*
X89805295Y-106733332D02*
X89710057Y-106685713D01*
X89710057Y-106685713D02*
X89662438Y-106638094D01*
X89662438Y-106638094D02*
X89614819Y-106542856D01*
X90519580Y-105780951D02*
X90567200Y-105733332D01*
X90567200Y-105733332D02*
X90614819Y-105780951D01*
X90614819Y-105780951D02*
X90567200Y-105828570D01*
X90567200Y-105828570D02*
X90519580Y-105780951D01*
X90519580Y-105780951D02*
X90614819Y-105780951D01*
X90614819Y-104780952D02*
X90614819Y-105352380D01*
X90614819Y-105066666D02*
X89614819Y-105066666D01*
X89614819Y-105066666D02*
X89757676Y-105161904D01*
X89757676Y-105161904D02*
X89852914Y-105257142D01*
X89852914Y-105257142D02*
X89900533Y-105352380D01*
X89948152Y-103923809D02*
X90614819Y-103923809D01*
X89948152Y-104352380D02*
X90471961Y-104352380D01*
X90471961Y-104352380D02*
X90567200Y-104304761D01*
X90567200Y-104304761D02*
X90614819Y-104209523D01*
X90614819Y-104209523D02*
X90614819Y-104066666D01*
X90614819Y-104066666D02*
X90567200Y-103971428D01*
X90567200Y-103971428D02*
X90519580Y-103923809D01*
X90091009Y-103114285D02*
X90091009Y-103447618D01*
X90614819Y-103447618D02*
X89614819Y-103447618D01*
X89614819Y-103447618D02*
X89614819Y-102971428D01*
D11*
X89089765Y-105060714D02*
X89101670Y-105072618D01*
X89101670Y-105072618D02*
X89113574Y-105108333D01*
X89113574Y-105108333D02*
X89113574Y-105132142D01*
X89113574Y-105132142D02*
X89101670Y-105167856D01*
X89101670Y-105167856D02*
X89077860Y-105191666D01*
X89077860Y-105191666D02*
X89054050Y-105203571D01*
X89054050Y-105203571D02*
X89006431Y-105215475D01*
X89006431Y-105215475D02*
X88970717Y-105215475D01*
X88970717Y-105215475D02*
X88923098Y-105203571D01*
X88923098Y-105203571D02*
X88899289Y-105191666D01*
X88899289Y-105191666D02*
X88875479Y-105167856D01*
X88875479Y-105167856D02*
X88863574Y-105132142D01*
X88863574Y-105132142D02*
X88863574Y-105108333D01*
X88863574Y-105108333D02*
X88875479Y-105072618D01*
X88875479Y-105072618D02*
X88887384Y-105060714D01*
X89113574Y-104822618D02*
X89113574Y-104965475D01*
X89113574Y-104894047D02*
X88863574Y-104894047D01*
X88863574Y-104894047D02*
X88899289Y-104917856D01*
X88899289Y-104917856D02*
X88923098Y-104941666D01*
X88923098Y-104941666D02*
X88935003Y-104965475D01*
X88946908Y-104608333D02*
X89113574Y-104608333D01*
X88851670Y-104667857D02*
X89030241Y-104727380D01*
X89030241Y-104727380D02*
X89030241Y-104572619D01*
D10*
X80214285Y-70654819D02*
X80214285Y-69654819D01*
X80214285Y-69654819D02*
X80547618Y-70369104D01*
X80547618Y-70369104D02*
X80880951Y-69654819D01*
X80880951Y-69654819D02*
X80880951Y-70654819D01*
X81499999Y-70654819D02*
X81404761Y-70607200D01*
X81404761Y-70607200D02*
X81357142Y-70559580D01*
X81357142Y-70559580D02*
X81309523Y-70464342D01*
X81309523Y-70464342D02*
X81309523Y-70178628D01*
X81309523Y-70178628D02*
X81357142Y-70083390D01*
X81357142Y-70083390D02*
X81404761Y-70035771D01*
X81404761Y-70035771D02*
X81499999Y-69988152D01*
X81499999Y-69988152D02*
X81642856Y-69988152D01*
X81642856Y-69988152D02*
X81738094Y-70035771D01*
X81738094Y-70035771D02*
X81785713Y-70083390D01*
X81785713Y-70083390D02*
X81833332Y-70178628D01*
X81833332Y-70178628D02*
X81833332Y-70464342D01*
X81833332Y-70464342D02*
X81785713Y-70559580D01*
X81785713Y-70559580D02*
X81738094Y-70607200D01*
X81738094Y-70607200D02*
X81642856Y-70654819D01*
X81642856Y-70654819D02*
X81499999Y-70654819D01*
X82690475Y-69988152D02*
X82690475Y-70654819D01*
X82261904Y-69988152D02*
X82261904Y-70511961D01*
X82261904Y-70511961D02*
X82309523Y-70607200D01*
X82309523Y-70607200D02*
X82404761Y-70654819D01*
X82404761Y-70654819D02*
X82547618Y-70654819D01*
X82547618Y-70654819D02*
X82642856Y-70607200D01*
X82642856Y-70607200D02*
X82690475Y-70559580D01*
X83166666Y-69988152D02*
X83166666Y-70654819D01*
X83166666Y-70083390D02*
X83214285Y-70035771D01*
X83214285Y-70035771D02*
X83309523Y-69988152D01*
X83309523Y-69988152D02*
X83452380Y-69988152D01*
X83452380Y-69988152D02*
X83547618Y-70035771D01*
X83547618Y-70035771D02*
X83595237Y-70131009D01*
X83595237Y-70131009D02*
X83595237Y-70654819D01*
X83928571Y-69988152D02*
X84309523Y-69988152D01*
X84071428Y-69654819D02*
X84071428Y-70511961D01*
X84071428Y-70511961D02*
X84119047Y-70607200D01*
X84119047Y-70607200D02*
X84214285Y-70654819D01*
X84214285Y-70654819D02*
X84309523Y-70654819D01*
X84642857Y-70654819D02*
X84642857Y-69988152D01*
X84642857Y-69654819D02*
X84595238Y-69702438D01*
X84595238Y-69702438D02*
X84642857Y-69750057D01*
X84642857Y-69750057D02*
X84690476Y-69702438D01*
X84690476Y-69702438D02*
X84642857Y-69654819D01*
X84642857Y-69654819D02*
X84642857Y-69750057D01*
X85119047Y-69988152D02*
X85119047Y-70654819D01*
X85119047Y-70083390D02*
X85166666Y-70035771D01*
X85166666Y-70035771D02*
X85261904Y-69988152D01*
X85261904Y-69988152D02*
X85404761Y-69988152D01*
X85404761Y-69988152D02*
X85499999Y-70035771D01*
X85499999Y-70035771D02*
X85547618Y-70131009D01*
X85547618Y-70131009D02*
X85547618Y-70654819D01*
X86452380Y-69988152D02*
X86452380Y-70797676D01*
X86452380Y-70797676D02*
X86404761Y-70892914D01*
X86404761Y-70892914D02*
X86357142Y-70940533D01*
X86357142Y-70940533D02*
X86261904Y-70988152D01*
X86261904Y-70988152D02*
X86119047Y-70988152D01*
X86119047Y-70988152D02*
X86023809Y-70940533D01*
X86452380Y-70607200D02*
X86357142Y-70654819D01*
X86357142Y-70654819D02*
X86166666Y-70654819D01*
X86166666Y-70654819D02*
X86071428Y-70607200D01*
X86071428Y-70607200D02*
X86023809Y-70559580D01*
X86023809Y-70559580D02*
X85976190Y-70464342D01*
X85976190Y-70464342D02*
X85976190Y-70178628D01*
X85976190Y-70178628D02*
X86023809Y-70083390D01*
X86023809Y-70083390D02*
X86071428Y-70035771D01*
X86071428Y-70035771D02*
X86166666Y-69988152D01*
X86166666Y-69988152D02*
X86357142Y-69988152D01*
X86357142Y-69988152D02*
X86452380Y-70035771D01*
X86928571Y-70654819D02*
X86928571Y-69654819D01*
X86928571Y-70131009D02*
X87499999Y-70131009D01*
X87499999Y-70654819D02*
X87499999Y-69654819D01*
X88119047Y-70654819D02*
X88023809Y-70607200D01*
X88023809Y-70607200D02*
X87976190Y-70559580D01*
X87976190Y-70559580D02*
X87928571Y-70464342D01*
X87928571Y-70464342D02*
X87928571Y-70178628D01*
X87928571Y-70178628D02*
X87976190Y-70083390D01*
X87976190Y-70083390D02*
X88023809Y-70035771D01*
X88023809Y-70035771D02*
X88119047Y-69988152D01*
X88119047Y-69988152D02*
X88261904Y-69988152D01*
X88261904Y-69988152D02*
X88357142Y-70035771D01*
X88357142Y-70035771D02*
X88404761Y-70083390D01*
X88404761Y-70083390D02*
X88452380Y-70178628D01*
X88452380Y-70178628D02*
X88452380Y-70464342D01*
X88452380Y-70464342D02*
X88404761Y-70559580D01*
X88404761Y-70559580D02*
X88357142Y-70607200D01*
X88357142Y-70607200D02*
X88261904Y-70654819D01*
X88261904Y-70654819D02*
X88119047Y-70654819D01*
X89023809Y-70654819D02*
X88928571Y-70607200D01*
X88928571Y-70607200D02*
X88880952Y-70511961D01*
X88880952Y-70511961D02*
X88880952Y-69654819D01*
X89785714Y-70607200D02*
X89690476Y-70654819D01*
X89690476Y-70654819D02*
X89500000Y-70654819D01*
X89500000Y-70654819D02*
X89404762Y-70607200D01*
X89404762Y-70607200D02*
X89357143Y-70511961D01*
X89357143Y-70511961D02*
X89357143Y-70131009D01*
X89357143Y-70131009D02*
X89404762Y-70035771D01*
X89404762Y-70035771D02*
X89500000Y-69988152D01*
X89500000Y-69988152D02*
X89690476Y-69988152D01*
X89690476Y-69988152D02*
X89785714Y-70035771D01*
X89785714Y-70035771D02*
X89833333Y-70131009D01*
X89833333Y-70131009D02*
X89833333Y-70226247D01*
X89833333Y-70226247D02*
X89357143Y-70321485D01*
X84238095Y-67454819D02*
X84238095Y-66454819D01*
X84238095Y-66931009D02*
X84809523Y-66931009D01*
X84809523Y-67454819D02*
X84809523Y-66454819D01*
X85809523Y-67454819D02*
X85238095Y-67454819D01*
X85523809Y-67454819D02*
X85523809Y-66454819D01*
X85523809Y-66454819D02*
X85428571Y-66597676D01*
X85428571Y-66597676D02*
X85333333Y-66692914D01*
X85333333Y-66692914D02*
X85238095Y-66740533D01*
X106719047Y-107224819D02*
X106242857Y-107224819D01*
X106242857Y-107224819D02*
X106195238Y-107701009D01*
X106195238Y-107701009D02*
X106242857Y-107653390D01*
X106242857Y-107653390D02*
X106338095Y-107605771D01*
X106338095Y-107605771D02*
X106576190Y-107605771D01*
X106576190Y-107605771D02*
X106671428Y-107653390D01*
X106671428Y-107653390D02*
X106719047Y-107701009D01*
X106719047Y-107701009D02*
X106766666Y-107796247D01*
X106766666Y-107796247D02*
X106766666Y-108034342D01*
X106766666Y-108034342D02*
X106719047Y-108129580D01*
X106719047Y-108129580D02*
X106671428Y-108177200D01*
X106671428Y-108177200D02*
X106576190Y-108224819D01*
X106576190Y-108224819D02*
X106338095Y-108224819D01*
X106338095Y-108224819D02*
X106242857Y-108177200D01*
X106242857Y-108177200D02*
X106195238Y-108129580D01*
X107195238Y-108129580D02*
X107242857Y-108177200D01*
X107242857Y-108177200D02*
X107195238Y-108224819D01*
X107195238Y-108224819D02*
X107147619Y-108177200D01*
X107147619Y-108177200D02*
X107195238Y-108129580D01*
X107195238Y-108129580D02*
X107195238Y-108224819D01*
X108195237Y-108224819D02*
X107623809Y-108224819D01*
X107909523Y-108224819D02*
X107909523Y-107224819D01*
X107909523Y-107224819D02*
X107814285Y-107367676D01*
X107814285Y-107367676D02*
X107719047Y-107462914D01*
X107719047Y-107462914D02*
X107623809Y-107510533D01*
X108623809Y-108224819D02*
X108623809Y-107224819D01*
X108719047Y-107843866D02*
X109004761Y-108224819D01*
X109004761Y-107558152D02*
X108623809Y-107939104D01*
D11*
X107556667Y-106718200D02*
X107470000Y-106594391D01*
X107408095Y-106718200D02*
X107408095Y-106458200D01*
X107408095Y-106458200D02*
X107507143Y-106458200D01*
X107507143Y-106458200D02*
X107531905Y-106470581D01*
X107531905Y-106470581D02*
X107544286Y-106482962D01*
X107544286Y-106482962D02*
X107556667Y-106507724D01*
X107556667Y-106507724D02*
X107556667Y-106544867D01*
X107556667Y-106544867D02*
X107544286Y-106569629D01*
X107544286Y-106569629D02*
X107531905Y-106582010D01*
X107531905Y-106582010D02*
X107507143Y-106594391D01*
X107507143Y-106594391D02*
X107408095Y-106594391D01*
X107655714Y-106482962D02*
X107668095Y-106470581D01*
X107668095Y-106470581D02*
X107692857Y-106458200D01*
X107692857Y-106458200D02*
X107754762Y-106458200D01*
X107754762Y-106458200D02*
X107779524Y-106470581D01*
X107779524Y-106470581D02*
X107791905Y-106482962D01*
X107791905Y-106482962D02*
X107804286Y-106507724D01*
X107804286Y-106507724D02*
X107804286Y-106532486D01*
X107804286Y-106532486D02*
X107791905Y-106569629D01*
X107791905Y-106569629D02*
X107643333Y-106718200D01*
X107643333Y-106718200D02*
X107804286Y-106718200D01*
D10*
X92728571Y-94924819D02*
X92157143Y-94924819D01*
X92442857Y-94924819D02*
X92442857Y-93924819D01*
X92442857Y-93924819D02*
X92347619Y-94067676D01*
X92347619Y-94067676D02*
X92252381Y-94162914D01*
X92252381Y-94162914D02*
X92157143Y-94210533D01*
X93347619Y-93924819D02*
X93442857Y-93924819D01*
X93442857Y-93924819D02*
X93538095Y-93972438D01*
X93538095Y-93972438D02*
X93585714Y-94020057D01*
X93585714Y-94020057D02*
X93633333Y-94115295D01*
X93633333Y-94115295D02*
X93680952Y-94305771D01*
X93680952Y-94305771D02*
X93680952Y-94543866D01*
X93680952Y-94543866D02*
X93633333Y-94734342D01*
X93633333Y-94734342D02*
X93585714Y-94829580D01*
X93585714Y-94829580D02*
X93538095Y-94877200D01*
X93538095Y-94877200D02*
X93442857Y-94924819D01*
X93442857Y-94924819D02*
X93347619Y-94924819D01*
X93347619Y-94924819D02*
X93252381Y-94877200D01*
X93252381Y-94877200D02*
X93204762Y-94829580D01*
X93204762Y-94829580D02*
X93157143Y-94734342D01*
X93157143Y-94734342D02*
X93109524Y-94543866D01*
X93109524Y-94543866D02*
X93109524Y-94305771D01*
X93109524Y-94305771D02*
X93157143Y-94115295D01*
X93157143Y-94115295D02*
X93204762Y-94020057D01*
X93204762Y-94020057D02*
X93252381Y-93972438D01*
X93252381Y-93972438D02*
X93347619Y-93924819D01*
X94538095Y-94258152D02*
X94538095Y-94924819D01*
X94109524Y-94258152D02*
X94109524Y-94781961D01*
X94109524Y-94781961D02*
X94157143Y-94877200D01*
X94157143Y-94877200D02*
X94252381Y-94924819D01*
X94252381Y-94924819D02*
X94395238Y-94924819D01*
X94395238Y-94924819D02*
X94490476Y-94877200D01*
X94490476Y-94877200D02*
X94538095Y-94829580D01*
X95347619Y-94401009D02*
X95014286Y-94401009D01*
X95014286Y-94924819D02*
X95014286Y-93924819D01*
X95014286Y-93924819D02*
X95490476Y-93924819D01*
D12*
X93542857Y-96043832D02*
X93523809Y-96062880D01*
X93523809Y-96062880D02*
X93466667Y-96081927D01*
X93466667Y-96081927D02*
X93428571Y-96081927D01*
X93428571Y-96081927D02*
X93371428Y-96062880D01*
X93371428Y-96062880D02*
X93333333Y-96024784D01*
X93333333Y-96024784D02*
X93314286Y-95986689D01*
X93314286Y-95986689D02*
X93295238Y-95910499D01*
X93295238Y-95910499D02*
X93295238Y-95853356D01*
X93295238Y-95853356D02*
X93314286Y-95777165D01*
X93314286Y-95777165D02*
X93333333Y-95739070D01*
X93333333Y-95739070D02*
X93371428Y-95700975D01*
X93371428Y-95700975D02*
X93428571Y-95681927D01*
X93428571Y-95681927D02*
X93466667Y-95681927D01*
X93466667Y-95681927D02*
X93523809Y-95700975D01*
X93523809Y-95700975D02*
X93542857Y-95720022D01*
X93923809Y-96081927D02*
X93695238Y-96081927D01*
X93809524Y-96081927D02*
X93809524Y-95681927D01*
X93809524Y-95681927D02*
X93771428Y-95739070D01*
X93771428Y-95739070D02*
X93733333Y-95777165D01*
X93733333Y-95777165D02*
X93695238Y-95796213D01*
X94266666Y-95681927D02*
X94190476Y-95681927D01*
X94190476Y-95681927D02*
X94152380Y-95700975D01*
X94152380Y-95700975D02*
X94133333Y-95720022D01*
X94133333Y-95720022D02*
X94095238Y-95777165D01*
X94095238Y-95777165D02*
X94076190Y-95853356D01*
X94076190Y-95853356D02*
X94076190Y-96005737D01*
X94076190Y-96005737D02*
X94095238Y-96043832D01*
X94095238Y-96043832D02*
X94114285Y-96062880D01*
X94114285Y-96062880D02*
X94152380Y-96081927D01*
X94152380Y-96081927D02*
X94228571Y-96081927D01*
X94228571Y-96081927D02*
X94266666Y-96062880D01*
X94266666Y-96062880D02*
X94285714Y-96043832D01*
X94285714Y-96043832D02*
X94304761Y-96005737D01*
X94304761Y-96005737D02*
X94304761Y-95910499D01*
X94304761Y-95910499D02*
X94285714Y-95872403D01*
X94285714Y-95872403D02*
X94266666Y-95853356D01*
X94266666Y-95853356D02*
X94228571Y-95834308D01*
X94228571Y-95834308D02*
X94152380Y-95834308D01*
X94152380Y-95834308D02*
X94114285Y-95853356D01*
X94114285Y-95853356D02*
X94095238Y-95872403D01*
X94095238Y-95872403D02*
X94076190Y-95910499D01*
D10*
X98054819Y-103557142D02*
X97054819Y-103557142D01*
X97054819Y-103557142D02*
X97054819Y-103319047D01*
X97054819Y-103319047D02*
X97102438Y-103176190D01*
X97102438Y-103176190D02*
X97197676Y-103080952D01*
X97197676Y-103080952D02*
X97292914Y-103033333D01*
X97292914Y-103033333D02*
X97483390Y-102985714D01*
X97483390Y-102985714D02*
X97626247Y-102985714D01*
X97626247Y-102985714D02*
X97816723Y-103033333D01*
X97816723Y-103033333D02*
X97911961Y-103080952D01*
X97911961Y-103080952D02*
X98007200Y-103176190D01*
X98007200Y-103176190D02*
X98054819Y-103319047D01*
X98054819Y-103319047D02*
X98054819Y-103557142D01*
X98054819Y-102557142D02*
X97054819Y-102557142D01*
X97054819Y-102557142D02*
X97769104Y-102223809D01*
X97769104Y-102223809D02*
X97054819Y-101890476D01*
X97054819Y-101890476D02*
X98054819Y-101890476D01*
X97102438Y-100890476D02*
X97054819Y-100985714D01*
X97054819Y-100985714D02*
X97054819Y-101128571D01*
X97054819Y-101128571D02*
X97102438Y-101271428D01*
X97102438Y-101271428D02*
X97197676Y-101366666D01*
X97197676Y-101366666D02*
X97292914Y-101414285D01*
X97292914Y-101414285D02*
X97483390Y-101461904D01*
X97483390Y-101461904D02*
X97626247Y-101461904D01*
X97626247Y-101461904D02*
X97816723Y-101414285D01*
X97816723Y-101414285D02*
X97911961Y-101366666D01*
X97911961Y-101366666D02*
X98007200Y-101271428D01*
X98007200Y-101271428D02*
X98054819Y-101128571D01*
X98054819Y-101128571D02*
X98054819Y-101033333D01*
X98054819Y-101033333D02*
X98007200Y-100890476D01*
X98007200Y-100890476D02*
X97959580Y-100842857D01*
X97959580Y-100842857D02*
X97626247Y-100842857D01*
X97626247Y-100842857D02*
X97626247Y-101033333D01*
X97054819Y-100509523D02*
X97054819Y-99890476D01*
X97054819Y-99890476D02*
X97435771Y-100223809D01*
X97435771Y-100223809D02*
X97435771Y-100080952D01*
X97435771Y-100080952D02*
X97483390Y-99985714D01*
X97483390Y-99985714D02*
X97531009Y-99938095D01*
X97531009Y-99938095D02*
X97626247Y-99890476D01*
X97626247Y-99890476D02*
X97864342Y-99890476D01*
X97864342Y-99890476D02*
X97959580Y-99938095D01*
X97959580Y-99938095D02*
X98007200Y-99985714D01*
X98007200Y-99985714D02*
X98054819Y-100080952D01*
X98054819Y-100080952D02*
X98054819Y-100366666D01*
X98054819Y-100366666D02*
X98007200Y-100461904D01*
X98007200Y-100461904D02*
X97959580Y-100509523D01*
X97388152Y-99033333D02*
X98054819Y-99033333D01*
X97007200Y-99271428D02*
X97721485Y-99509523D01*
X97721485Y-99509523D02*
X97721485Y-98890476D01*
X98054819Y-97985714D02*
X98054819Y-98557142D01*
X98054819Y-98271428D02*
X97054819Y-98271428D01*
X97054819Y-98271428D02*
X97197676Y-98366666D01*
X97197676Y-98366666D02*
X97292914Y-98461904D01*
X97292914Y-98461904D02*
X97340533Y-98557142D01*
X97054819Y-97080952D02*
X97054819Y-97557142D01*
X97054819Y-97557142D02*
X97531009Y-97604761D01*
X97531009Y-97604761D02*
X97483390Y-97557142D01*
X97483390Y-97557142D02*
X97435771Y-97461904D01*
X97435771Y-97461904D02*
X97435771Y-97223809D01*
X97435771Y-97223809D02*
X97483390Y-97128571D01*
X97483390Y-97128571D02*
X97531009Y-97080952D01*
X97531009Y-97080952D02*
X97626247Y-97033333D01*
X97626247Y-97033333D02*
X97864342Y-97033333D01*
X97864342Y-97033333D02*
X97959580Y-97080952D01*
X97959580Y-97080952D02*
X98007200Y-97128571D01*
X98007200Y-97128571D02*
X98054819Y-97223809D01*
X98054819Y-97223809D02*
X98054819Y-97461904D01*
X98054819Y-97461904D02*
X98007200Y-97557142D01*
X98007200Y-97557142D02*
X97959580Y-97604761D01*
X97054819Y-96604761D02*
X97864342Y-96604761D01*
X97864342Y-96604761D02*
X97959580Y-96557142D01*
X97959580Y-96557142D02*
X98007200Y-96509523D01*
X98007200Y-96509523D02*
X98054819Y-96414285D01*
X98054819Y-96414285D02*
X98054819Y-96223809D01*
X98054819Y-96223809D02*
X98007200Y-96128571D01*
X98007200Y-96128571D02*
X97959580Y-96080952D01*
X97959580Y-96080952D02*
X97864342Y-96033333D01*
X97864342Y-96033333D02*
X97054819Y-96033333D01*
X97673866Y-95557142D02*
X97673866Y-94795238D01*
X97054819Y-94414285D02*
X97054819Y-93747619D01*
X97054819Y-93747619D02*
X98054819Y-94176190D01*
D13*
X95375914Y-98730476D02*
X95360676Y-98760952D01*
X95360676Y-98760952D02*
X95330200Y-98791428D01*
X95330200Y-98791428D02*
X95284485Y-98837142D01*
X95284485Y-98837142D02*
X95269247Y-98867619D01*
X95269247Y-98867619D02*
X95269247Y-98898095D01*
X95345438Y-98882857D02*
X95330200Y-98913333D01*
X95330200Y-98913333D02*
X95299723Y-98943809D01*
X95299723Y-98943809D02*
X95238771Y-98959047D01*
X95238771Y-98959047D02*
X95132104Y-98959047D01*
X95132104Y-98959047D02*
X95071152Y-98943809D01*
X95071152Y-98943809D02*
X95040676Y-98913333D01*
X95040676Y-98913333D02*
X95025438Y-98882857D01*
X95025438Y-98882857D02*
X95025438Y-98821904D01*
X95025438Y-98821904D02*
X95040676Y-98791428D01*
X95040676Y-98791428D02*
X95071152Y-98760952D01*
X95071152Y-98760952D02*
X95132104Y-98745714D01*
X95132104Y-98745714D02*
X95238771Y-98745714D01*
X95238771Y-98745714D02*
X95299723Y-98760952D01*
X95299723Y-98760952D02*
X95330200Y-98791428D01*
X95330200Y-98791428D02*
X95345438Y-98821904D01*
X95345438Y-98821904D02*
X95345438Y-98882857D01*
X95025438Y-98639047D02*
X95025438Y-98440952D01*
X95025438Y-98440952D02*
X95147342Y-98547619D01*
X95147342Y-98547619D02*
X95147342Y-98501904D01*
X95147342Y-98501904D02*
X95162580Y-98471428D01*
X95162580Y-98471428D02*
X95177819Y-98456190D01*
X95177819Y-98456190D02*
X95208295Y-98440952D01*
X95208295Y-98440952D02*
X95284485Y-98440952D01*
X95284485Y-98440952D02*
X95314961Y-98456190D01*
X95314961Y-98456190D02*
X95330200Y-98471428D01*
X95330200Y-98471428D02*
X95345438Y-98501904D01*
X95345438Y-98501904D02*
X95345438Y-98593333D01*
X95345438Y-98593333D02*
X95330200Y-98623809D01*
X95330200Y-98623809D02*
X95314961Y-98639047D01*
D10*
X103952381Y-91157200D02*
X104095238Y-91204819D01*
X104095238Y-91204819D02*
X104333333Y-91204819D01*
X104333333Y-91204819D02*
X104428571Y-91157200D01*
X104428571Y-91157200D02*
X104476190Y-91109580D01*
X104476190Y-91109580D02*
X104523809Y-91014342D01*
X104523809Y-91014342D02*
X104523809Y-90919104D01*
X104523809Y-90919104D02*
X104476190Y-90823866D01*
X104476190Y-90823866D02*
X104428571Y-90776247D01*
X104428571Y-90776247D02*
X104333333Y-90728628D01*
X104333333Y-90728628D02*
X104142857Y-90681009D01*
X104142857Y-90681009D02*
X104047619Y-90633390D01*
X104047619Y-90633390D02*
X104000000Y-90585771D01*
X104000000Y-90585771D02*
X103952381Y-90490533D01*
X103952381Y-90490533D02*
X103952381Y-90395295D01*
X103952381Y-90395295D02*
X104000000Y-90300057D01*
X104000000Y-90300057D02*
X104047619Y-90252438D01*
X104047619Y-90252438D02*
X104142857Y-90204819D01*
X104142857Y-90204819D02*
X104380952Y-90204819D01*
X104380952Y-90204819D02*
X104523809Y-90252438D01*
X104857143Y-90204819D02*
X105095238Y-91204819D01*
X105095238Y-91204819D02*
X105285714Y-90490533D01*
X105285714Y-90490533D02*
X105476190Y-91204819D01*
X105476190Y-91204819D02*
X105714286Y-90204819D01*
X105857143Y-91300057D02*
X106619047Y-91300057D01*
X106857143Y-91204819D02*
X106857143Y-90204819D01*
X106857143Y-90204819D02*
X107238095Y-90204819D01*
X107238095Y-90204819D02*
X107333333Y-90252438D01*
X107333333Y-90252438D02*
X107380952Y-90300057D01*
X107380952Y-90300057D02*
X107428571Y-90395295D01*
X107428571Y-90395295D02*
X107428571Y-90538152D01*
X107428571Y-90538152D02*
X107380952Y-90633390D01*
X107380952Y-90633390D02*
X107333333Y-90681009D01*
X107333333Y-90681009D02*
X107238095Y-90728628D01*
X107238095Y-90728628D02*
X106857143Y-90728628D01*
X108285714Y-90538152D02*
X108285714Y-91204819D01*
X107857143Y-90538152D02*
X107857143Y-91061961D01*
X107857143Y-91061961D02*
X107904762Y-91157200D01*
X107904762Y-91157200D02*
X108000000Y-91204819D01*
X108000000Y-91204819D02*
X108142857Y-91204819D01*
X108142857Y-91204819D02*
X108238095Y-91157200D01*
X108238095Y-91157200D02*
X108285714Y-91109580D01*
X108714286Y-91157200D02*
X108809524Y-91204819D01*
X108809524Y-91204819D02*
X109000000Y-91204819D01*
X109000000Y-91204819D02*
X109095238Y-91157200D01*
X109095238Y-91157200D02*
X109142857Y-91061961D01*
X109142857Y-91061961D02*
X109142857Y-91014342D01*
X109142857Y-91014342D02*
X109095238Y-90919104D01*
X109095238Y-90919104D02*
X109000000Y-90871485D01*
X109000000Y-90871485D02*
X108857143Y-90871485D01*
X108857143Y-90871485D02*
X108761905Y-90823866D01*
X108761905Y-90823866D02*
X108714286Y-90728628D01*
X108714286Y-90728628D02*
X108714286Y-90681009D01*
X108714286Y-90681009D02*
X108761905Y-90585771D01*
X108761905Y-90585771D02*
X108857143Y-90538152D01*
X108857143Y-90538152D02*
X109000000Y-90538152D01*
X109000000Y-90538152D02*
X109095238Y-90585771D01*
X109571429Y-91204819D02*
X109571429Y-90204819D01*
X110000000Y-91204819D02*
X110000000Y-90681009D01*
X110000000Y-90681009D02*
X109952381Y-90585771D01*
X109952381Y-90585771D02*
X109857143Y-90538152D01*
X109857143Y-90538152D02*
X109714286Y-90538152D01*
X109714286Y-90538152D02*
X109619048Y-90585771D01*
X109619048Y-90585771D02*
X109571429Y-90633390D01*
X105666667Y-96157200D02*
X105809524Y-96204819D01*
X105809524Y-96204819D02*
X106047619Y-96204819D01*
X106047619Y-96204819D02*
X106142857Y-96157200D01*
X106142857Y-96157200D02*
X106190476Y-96109580D01*
X106190476Y-96109580D02*
X106238095Y-96014342D01*
X106238095Y-96014342D02*
X106238095Y-95919104D01*
X106238095Y-95919104D02*
X106190476Y-95823866D01*
X106190476Y-95823866D02*
X106142857Y-95776247D01*
X106142857Y-95776247D02*
X106047619Y-95728628D01*
X106047619Y-95728628D02*
X105857143Y-95681009D01*
X105857143Y-95681009D02*
X105761905Y-95633390D01*
X105761905Y-95633390D02*
X105714286Y-95585771D01*
X105714286Y-95585771D02*
X105666667Y-95490533D01*
X105666667Y-95490533D02*
X105666667Y-95395295D01*
X105666667Y-95395295D02*
X105714286Y-95300057D01*
X105714286Y-95300057D02*
X105761905Y-95252438D01*
X105761905Y-95252438D02*
X105857143Y-95204819D01*
X105857143Y-95204819D02*
X106095238Y-95204819D01*
X106095238Y-95204819D02*
X106238095Y-95252438D01*
X106571429Y-95204819D02*
X106809524Y-96204819D01*
X106809524Y-96204819D02*
X107000000Y-95490533D01*
X107000000Y-95490533D02*
X107190476Y-96204819D01*
X107190476Y-96204819D02*
X107428572Y-95204819D01*
X108333333Y-96204819D02*
X107761905Y-96204819D01*
X108047619Y-96204819D02*
X108047619Y-95204819D01*
X108047619Y-95204819D02*
X107952381Y-95347676D01*
X107952381Y-95347676D02*
X107857143Y-95442914D01*
X107857143Y-95442914D02*
X107761905Y-95490533D01*
X99124819Y-111019047D02*
X99124819Y-111590475D01*
X99124819Y-111304761D02*
X98124819Y-111304761D01*
X98124819Y-111304761D02*
X98267676Y-111399999D01*
X98267676Y-111399999D02*
X98362914Y-111495237D01*
X98362914Y-111495237D02*
X98410533Y-111590475D01*
X99124819Y-110590475D02*
X98124819Y-110590475D01*
X98743866Y-110495237D02*
X99124819Y-110209523D01*
X98458152Y-110209523D02*
X98839104Y-110590475D01*
D11*
X97618200Y-111067142D02*
X97494391Y-111153809D01*
X97618200Y-111215714D02*
X97358200Y-111215714D01*
X97358200Y-111215714D02*
X97358200Y-111116666D01*
X97358200Y-111116666D02*
X97370581Y-111091904D01*
X97370581Y-111091904D02*
X97382962Y-111079523D01*
X97382962Y-111079523D02*
X97407724Y-111067142D01*
X97407724Y-111067142D02*
X97444867Y-111067142D01*
X97444867Y-111067142D02*
X97469629Y-111079523D01*
X97469629Y-111079523D02*
X97482010Y-111091904D01*
X97482010Y-111091904D02*
X97494391Y-111116666D01*
X97494391Y-111116666D02*
X97494391Y-111215714D01*
X97618200Y-110819523D02*
X97618200Y-110968095D01*
X97618200Y-110893809D02*
X97358200Y-110893809D01*
X97358200Y-110893809D02*
X97395343Y-110918571D01*
X97395343Y-110918571D02*
X97420105Y-110943333D01*
X97420105Y-110943333D02*
X97432486Y-110968095D01*
X97358200Y-110732857D02*
X97358200Y-110571904D01*
X97358200Y-110571904D02*
X97457248Y-110658571D01*
X97457248Y-110658571D02*
X97457248Y-110621428D01*
X97457248Y-110621428D02*
X97469629Y-110596666D01*
X97469629Y-110596666D02*
X97482010Y-110584285D01*
X97482010Y-110584285D02*
X97506772Y-110571904D01*
X97506772Y-110571904D02*
X97568677Y-110571904D01*
X97568677Y-110571904D02*
X97593439Y-110584285D01*
X97593439Y-110584285D02*
X97605820Y-110596666D01*
X97605820Y-110596666D02*
X97618200Y-110621428D01*
X97618200Y-110621428D02*
X97618200Y-110695714D01*
X97618200Y-110695714D02*
X97605820Y-110720476D01*
X97605820Y-110720476D02*
X97593439Y-110732857D01*
D10*
X102114819Y-99242856D02*
X102114819Y-99147618D01*
X102114819Y-99147618D02*
X102162438Y-99052380D01*
X102162438Y-99052380D02*
X102210057Y-99004761D01*
X102210057Y-99004761D02*
X102305295Y-98957142D01*
X102305295Y-98957142D02*
X102495771Y-98909523D01*
X102495771Y-98909523D02*
X102733866Y-98909523D01*
X102733866Y-98909523D02*
X102924342Y-98957142D01*
X102924342Y-98957142D02*
X103019580Y-99004761D01*
X103019580Y-99004761D02*
X103067200Y-99052380D01*
X103067200Y-99052380D02*
X103114819Y-99147618D01*
X103114819Y-99147618D02*
X103114819Y-99242856D01*
X103114819Y-99242856D02*
X103067200Y-99338094D01*
X103067200Y-99338094D02*
X103019580Y-99385713D01*
X103019580Y-99385713D02*
X102924342Y-99433332D01*
X102924342Y-99433332D02*
X102733866Y-99480951D01*
X102733866Y-99480951D02*
X102495771Y-99480951D01*
X102495771Y-99480951D02*
X102305295Y-99433332D01*
X102305295Y-99433332D02*
X102210057Y-99385713D01*
X102210057Y-99385713D02*
X102162438Y-99338094D01*
X102162438Y-99338094D02*
X102114819Y-99242856D01*
X103019580Y-98480951D02*
X103067200Y-98433332D01*
X103067200Y-98433332D02*
X103114819Y-98480951D01*
X103114819Y-98480951D02*
X103067200Y-98528570D01*
X103067200Y-98528570D02*
X103019580Y-98480951D01*
X103019580Y-98480951D02*
X103114819Y-98480951D01*
X103114819Y-97480952D02*
X103114819Y-98052380D01*
X103114819Y-97766666D02*
X102114819Y-97766666D01*
X102114819Y-97766666D02*
X102257676Y-97861904D01*
X102257676Y-97861904D02*
X102352914Y-97957142D01*
X102352914Y-97957142D02*
X102400533Y-98052380D01*
X102448152Y-96623809D02*
X103114819Y-96623809D01*
X102448152Y-97052380D02*
X102971961Y-97052380D01*
X102971961Y-97052380D02*
X103067200Y-97004761D01*
X103067200Y-97004761D02*
X103114819Y-96909523D01*
X103114819Y-96909523D02*
X103114819Y-96766666D01*
X103114819Y-96766666D02*
X103067200Y-96671428D01*
X103067200Y-96671428D02*
X103019580Y-96623809D01*
X102591009Y-95814285D02*
X102591009Y-96147618D01*
X103114819Y-96147618D02*
X102114819Y-96147618D01*
X102114819Y-96147618D02*
X102114819Y-95671428D01*
D11*
X101589765Y-97641666D02*
X101601670Y-97653570D01*
X101601670Y-97653570D02*
X101613574Y-97689285D01*
X101613574Y-97689285D02*
X101613574Y-97713094D01*
X101613574Y-97713094D02*
X101601670Y-97748808D01*
X101601670Y-97748808D02*
X101577860Y-97772618D01*
X101577860Y-97772618D02*
X101554050Y-97784523D01*
X101554050Y-97784523D02*
X101506431Y-97796427D01*
X101506431Y-97796427D02*
X101470717Y-97796427D01*
X101470717Y-97796427D02*
X101423098Y-97784523D01*
X101423098Y-97784523D02*
X101399289Y-97772618D01*
X101399289Y-97772618D02*
X101375479Y-97748808D01*
X101375479Y-97748808D02*
X101363574Y-97713094D01*
X101363574Y-97713094D02*
X101363574Y-97689285D01*
X101363574Y-97689285D02*
X101375479Y-97653570D01*
X101375479Y-97653570D02*
X101387384Y-97641666D01*
X101363574Y-97415475D02*
X101363574Y-97534523D01*
X101363574Y-97534523D02*
X101482622Y-97546427D01*
X101482622Y-97546427D02*
X101470717Y-97534523D01*
X101470717Y-97534523D02*
X101458812Y-97510713D01*
X101458812Y-97510713D02*
X101458812Y-97451189D01*
X101458812Y-97451189D02*
X101470717Y-97427380D01*
X101470717Y-97427380D02*
X101482622Y-97415475D01*
X101482622Y-97415475D02*
X101506431Y-97403570D01*
X101506431Y-97403570D02*
X101565955Y-97403570D01*
X101565955Y-97403570D02*
X101589765Y-97415475D01*
X101589765Y-97415475D02*
X101601670Y-97427380D01*
X101601670Y-97427380D02*
X101613574Y-97451189D01*
X101613574Y-97451189D02*
X101613574Y-97510713D01*
X101613574Y-97510713D02*
X101601670Y-97534523D01*
X101601670Y-97534523D02*
X101589765Y-97546427D01*
D10*
X88654819Y-117785714D02*
X87654819Y-117785714D01*
X87654819Y-117785714D02*
X88369104Y-117452381D01*
X88369104Y-117452381D02*
X87654819Y-117119048D01*
X87654819Y-117119048D02*
X88654819Y-117119048D01*
X88654819Y-116500000D02*
X88607200Y-116595238D01*
X88607200Y-116595238D02*
X88559580Y-116642857D01*
X88559580Y-116642857D02*
X88464342Y-116690476D01*
X88464342Y-116690476D02*
X88178628Y-116690476D01*
X88178628Y-116690476D02*
X88083390Y-116642857D01*
X88083390Y-116642857D02*
X88035771Y-116595238D01*
X88035771Y-116595238D02*
X87988152Y-116500000D01*
X87988152Y-116500000D02*
X87988152Y-116357143D01*
X87988152Y-116357143D02*
X88035771Y-116261905D01*
X88035771Y-116261905D02*
X88083390Y-116214286D01*
X88083390Y-116214286D02*
X88178628Y-116166667D01*
X88178628Y-116166667D02*
X88464342Y-116166667D01*
X88464342Y-116166667D02*
X88559580Y-116214286D01*
X88559580Y-116214286D02*
X88607200Y-116261905D01*
X88607200Y-116261905D02*
X88654819Y-116357143D01*
X88654819Y-116357143D02*
X88654819Y-116500000D01*
X87988152Y-115309524D02*
X88654819Y-115309524D01*
X87988152Y-115738095D02*
X88511961Y-115738095D01*
X88511961Y-115738095D02*
X88607200Y-115690476D01*
X88607200Y-115690476D02*
X88654819Y-115595238D01*
X88654819Y-115595238D02*
X88654819Y-115452381D01*
X88654819Y-115452381D02*
X88607200Y-115357143D01*
X88607200Y-115357143D02*
X88559580Y-115309524D01*
X87988152Y-114833333D02*
X88654819Y-114833333D01*
X88083390Y-114833333D02*
X88035771Y-114785714D01*
X88035771Y-114785714D02*
X87988152Y-114690476D01*
X87988152Y-114690476D02*
X87988152Y-114547619D01*
X87988152Y-114547619D02*
X88035771Y-114452381D01*
X88035771Y-114452381D02*
X88131009Y-114404762D01*
X88131009Y-114404762D02*
X88654819Y-114404762D01*
X87988152Y-114071428D02*
X87988152Y-113690476D01*
X87654819Y-113928571D02*
X88511961Y-113928571D01*
X88511961Y-113928571D02*
X88607200Y-113880952D01*
X88607200Y-113880952D02*
X88654819Y-113785714D01*
X88654819Y-113785714D02*
X88654819Y-113690476D01*
X88654819Y-113357142D02*
X87988152Y-113357142D01*
X87654819Y-113357142D02*
X87702438Y-113404761D01*
X87702438Y-113404761D02*
X87750057Y-113357142D01*
X87750057Y-113357142D02*
X87702438Y-113309523D01*
X87702438Y-113309523D02*
X87654819Y-113357142D01*
X87654819Y-113357142D02*
X87750057Y-113357142D01*
X87988152Y-112880952D02*
X88654819Y-112880952D01*
X88083390Y-112880952D02*
X88035771Y-112833333D01*
X88035771Y-112833333D02*
X87988152Y-112738095D01*
X87988152Y-112738095D02*
X87988152Y-112595238D01*
X87988152Y-112595238D02*
X88035771Y-112500000D01*
X88035771Y-112500000D02*
X88131009Y-112452381D01*
X88131009Y-112452381D02*
X88654819Y-112452381D01*
X87988152Y-111547619D02*
X88797676Y-111547619D01*
X88797676Y-111547619D02*
X88892914Y-111595238D01*
X88892914Y-111595238D02*
X88940533Y-111642857D01*
X88940533Y-111642857D02*
X88988152Y-111738095D01*
X88988152Y-111738095D02*
X88988152Y-111880952D01*
X88988152Y-111880952D02*
X88940533Y-111976190D01*
X88607200Y-111547619D02*
X88654819Y-111642857D01*
X88654819Y-111642857D02*
X88654819Y-111833333D01*
X88654819Y-111833333D02*
X88607200Y-111928571D01*
X88607200Y-111928571D02*
X88559580Y-111976190D01*
X88559580Y-111976190D02*
X88464342Y-112023809D01*
X88464342Y-112023809D02*
X88178628Y-112023809D01*
X88178628Y-112023809D02*
X88083390Y-111976190D01*
X88083390Y-111976190D02*
X88035771Y-111928571D01*
X88035771Y-111928571D02*
X87988152Y-111833333D01*
X87988152Y-111833333D02*
X87988152Y-111642857D01*
X87988152Y-111642857D02*
X88035771Y-111547619D01*
X88654819Y-111071428D02*
X87654819Y-111071428D01*
X88131009Y-111071428D02*
X88131009Y-110500000D01*
X88654819Y-110500000D02*
X87654819Y-110500000D01*
X88654819Y-109880952D02*
X88607200Y-109976190D01*
X88607200Y-109976190D02*
X88559580Y-110023809D01*
X88559580Y-110023809D02*
X88464342Y-110071428D01*
X88464342Y-110071428D02*
X88178628Y-110071428D01*
X88178628Y-110071428D02*
X88083390Y-110023809D01*
X88083390Y-110023809D02*
X88035771Y-109976190D01*
X88035771Y-109976190D02*
X87988152Y-109880952D01*
X87988152Y-109880952D02*
X87988152Y-109738095D01*
X87988152Y-109738095D02*
X88035771Y-109642857D01*
X88035771Y-109642857D02*
X88083390Y-109595238D01*
X88083390Y-109595238D02*
X88178628Y-109547619D01*
X88178628Y-109547619D02*
X88464342Y-109547619D01*
X88464342Y-109547619D02*
X88559580Y-109595238D01*
X88559580Y-109595238D02*
X88607200Y-109642857D01*
X88607200Y-109642857D02*
X88654819Y-109738095D01*
X88654819Y-109738095D02*
X88654819Y-109880952D01*
X88654819Y-108976190D02*
X88607200Y-109071428D01*
X88607200Y-109071428D02*
X88511961Y-109119047D01*
X88511961Y-109119047D02*
X87654819Y-109119047D01*
X88607200Y-108214285D02*
X88654819Y-108309523D01*
X88654819Y-108309523D02*
X88654819Y-108499999D01*
X88654819Y-108499999D02*
X88607200Y-108595237D01*
X88607200Y-108595237D02*
X88511961Y-108642856D01*
X88511961Y-108642856D02*
X88131009Y-108642856D01*
X88131009Y-108642856D02*
X88035771Y-108595237D01*
X88035771Y-108595237D02*
X87988152Y-108499999D01*
X87988152Y-108499999D02*
X87988152Y-108309523D01*
X87988152Y-108309523D02*
X88035771Y-108214285D01*
X88035771Y-108214285D02*
X88131009Y-108166666D01*
X88131009Y-108166666D02*
X88226247Y-108166666D01*
X88226247Y-108166666D02*
X88321485Y-108642856D01*
X85454819Y-113761904D02*
X84454819Y-113761904D01*
X84931009Y-113761904D02*
X84931009Y-113190476D01*
X85454819Y-113190476D02*
X84454819Y-113190476D01*
X84788152Y-112285714D02*
X85454819Y-112285714D01*
X84407200Y-112523809D02*
X85121485Y-112761904D01*
X85121485Y-112761904D02*
X85121485Y-112142857D01*
X89628571Y-97784819D02*
X89057143Y-97784819D01*
X89342857Y-97784819D02*
X89342857Y-96784819D01*
X89342857Y-96784819D02*
X89247619Y-96927676D01*
X89247619Y-96927676D02*
X89152381Y-97022914D01*
X89152381Y-97022914D02*
X89057143Y-97070533D01*
X90247619Y-96784819D02*
X90342857Y-96784819D01*
X90342857Y-96784819D02*
X90438095Y-96832438D01*
X90438095Y-96832438D02*
X90485714Y-96880057D01*
X90485714Y-96880057D02*
X90533333Y-96975295D01*
X90533333Y-96975295D02*
X90580952Y-97165771D01*
X90580952Y-97165771D02*
X90580952Y-97403866D01*
X90580952Y-97403866D02*
X90533333Y-97594342D01*
X90533333Y-97594342D02*
X90485714Y-97689580D01*
X90485714Y-97689580D02*
X90438095Y-97737200D01*
X90438095Y-97737200D02*
X90342857Y-97784819D01*
X90342857Y-97784819D02*
X90247619Y-97784819D01*
X90247619Y-97784819D02*
X90152381Y-97737200D01*
X90152381Y-97737200D02*
X90104762Y-97689580D01*
X90104762Y-97689580D02*
X90057143Y-97594342D01*
X90057143Y-97594342D02*
X90009524Y-97403866D01*
X90009524Y-97403866D02*
X90009524Y-97165771D01*
X90009524Y-97165771D02*
X90057143Y-96975295D01*
X90057143Y-96975295D02*
X90104762Y-96880057D01*
X90104762Y-96880057D02*
X90152381Y-96832438D01*
X90152381Y-96832438D02*
X90247619Y-96784819D01*
X91438095Y-97118152D02*
X91438095Y-97784819D01*
X91009524Y-97118152D02*
X91009524Y-97641961D01*
X91009524Y-97641961D02*
X91057143Y-97737200D01*
X91057143Y-97737200D02*
X91152381Y-97784819D01*
X91152381Y-97784819D02*
X91295238Y-97784819D01*
X91295238Y-97784819D02*
X91390476Y-97737200D01*
X91390476Y-97737200D02*
X91438095Y-97689580D01*
X92247619Y-97261009D02*
X91914286Y-97261009D01*
X91914286Y-97784819D02*
X91914286Y-96784819D01*
X91914286Y-96784819D02*
X92390476Y-96784819D01*
D12*
X90442857Y-96043832D02*
X90423809Y-96062880D01*
X90423809Y-96062880D02*
X90366667Y-96081927D01*
X90366667Y-96081927D02*
X90328571Y-96081927D01*
X90328571Y-96081927D02*
X90271428Y-96062880D01*
X90271428Y-96062880D02*
X90233333Y-96024784D01*
X90233333Y-96024784D02*
X90214286Y-95986689D01*
X90214286Y-95986689D02*
X90195238Y-95910499D01*
X90195238Y-95910499D02*
X90195238Y-95853356D01*
X90195238Y-95853356D02*
X90214286Y-95777165D01*
X90214286Y-95777165D02*
X90233333Y-95739070D01*
X90233333Y-95739070D02*
X90271428Y-95700975D01*
X90271428Y-95700975D02*
X90328571Y-95681927D01*
X90328571Y-95681927D02*
X90366667Y-95681927D01*
X90366667Y-95681927D02*
X90423809Y-95700975D01*
X90423809Y-95700975D02*
X90442857Y-95720022D01*
X90823809Y-96081927D02*
X90595238Y-96081927D01*
X90709524Y-96081927D02*
X90709524Y-95681927D01*
X90709524Y-95681927D02*
X90671428Y-95739070D01*
X90671428Y-95739070D02*
X90633333Y-95777165D01*
X90633333Y-95777165D02*
X90595238Y-95796213D01*
X90957142Y-95681927D02*
X91223809Y-95681927D01*
X91223809Y-95681927D02*
X91052380Y-96081927D01*
D10*
X100724819Y-111019047D02*
X100724819Y-111590475D01*
X100724819Y-111304761D02*
X99724819Y-111304761D01*
X99724819Y-111304761D02*
X99867676Y-111399999D01*
X99867676Y-111399999D02*
X99962914Y-111495237D01*
X99962914Y-111495237D02*
X100010533Y-111590475D01*
X100724819Y-110590475D02*
X99724819Y-110590475D01*
X100343866Y-110495237D02*
X100724819Y-110209523D01*
X100058152Y-110209523D02*
X100439104Y-110590475D01*
D11*
X99218200Y-111067142D02*
X99094391Y-111153809D01*
X99218200Y-111215714D02*
X98958200Y-111215714D01*
X98958200Y-111215714D02*
X98958200Y-111116666D01*
X98958200Y-111116666D02*
X98970581Y-111091904D01*
X98970581Y-111091904D02*
X98982962Y-111079523D01*
X98982962Y-111079523D02*
X99007724Y-111067142D01*
X99007724Y-111067142D02*
X99044867Y-111067142D01*
X99044867Y-111067142D02*
X99069629Y-111079523D01*
X99069629Y-111079523D02*
X99082010Y-111091904D01*
X99082010Y-111091904D02*
X99094391Y-111116666D01*
X99094391Y-111116666D02*
X99094391Y-111215714D01*
X99218200Y-110819523D02*
X99218200Y-110968095D01*
X99218200Y-110893809D02*
X98958200Y-110893809D01*
X98958200Y-110893809D02*
X98995343Y-110918571D01*
X98995343Y-110918571D02*
X99020105Y-110943333D01*
X99020105Y-110943333D02*
X99032486Y-110968095D01*
X98958200Y-110658571D02*
X98958200Y-110633809D01*
X98958200Y-110633809D02*
X98970581Y-110609047D01*
X98970581Y-110609047D02*
X98982962Y-110596666D01*
X98982962Y-110596666D02*
X99007724Y-110584285D01*
X99007724Y-110584285D02*
X99057248Y-110571904D01*
X99057248Y-110571904D02*
X99119153Y-110571904D01*
X99119153Y-110571904D02*
X99168677Y-110584285D01*
X99168677Y-110584285D02*
X99193439Y-110596666D01*
X99193439Y-110596666D02*
X99205820Y-110609047D01*
X99205820Y-110609047D02*
X99218200Y-110633809D01*
X99218200Y-110633809D02*
X99218200Y-110658571D01*
X99218200Y-110658571D02*
X99205820Y-110683333D01*
X99205820Y-110683333D02*
X99193439Y-110695714D01*
X99193439Y-110695714D02*
X99168677Y-110708095D01*
X99168677Y-110708095D02*
X99119153Y-110720476D01*
X99119153Y-110720476D02*
X99057248Y-110720476D01*
X99057248Y-110720476D02*
X99007724Y-110708095D01*
X99007724Y-110708095D02*
X98982962Y-110695714D01*
X98982962Y-110695714D02*
X98970581Y-110683333D01*
X98970581Y-110683333D02*
X98958200Y-110658571D01*
D10*
X92976191Y-92281009D02*
X93309524Y-92281009D01*
X93452381Y-92804819D02*
X92976191Y-92804819D01*
X92976191Y-92804819D02*
X92976191Y-91804819D01*
X92976191Y-91804819D02*
X93452381Y-91804819D01*
X93833334Y-92757200D02*
X93976191Y-92804819D01*
X93976191Y-92804819D02*
X94214286Y-92804819D01*
X94214286Y-92804819D02*
X94309524Y-92757200D01*
X94309524Y-92757200D02*
X94357143Y-92709580D01*
X94357143Y-92709580D02*
X94404762Y-92614342D01*
X94404762Y-92614342D02*
X94404762Y-92519104D01*
X94404762Y-92519104D02*
X94357143Y-92423866D01*
X94357143Y-92423866D02*
X94309524Y-92376247D01*
X94309524Y-92376247D02*
X94214286Y-92328628D01*
X94214286Y-92328628D02*
X94023810Y-92281009D01*
X94023810Y-92281009D02*
X93928572Y-92233390D01*
X93928572Y-92233390D02*
X93880953Y-92185771D01*
X93880953Y-92185771D02*
X93833334Y-92090533D01*
X93833334Y-92090533D02*
X93833334Y-91995295D01*
X93833334Y-91995295D02*
X93880953Y-91900057D01*
X93880953Y-91900057D02*
X93928572Y-91852438D01*
X93928572Y-91852438D02*
X94023810Y-91804819D01*
X94023810Y-91804819D02*
X94261905Y-91804819D01*
X94261905Y-91804819D02*
X94404762Y-91852438D01*
X94833334Y-92804819D02*
X94833334Y-91804819D01*
X94833334Y-91804819D02*
X95214286Y-91804819D01*
X95214286Y-91804819D02*
X95309524Y-91852438D01*
X95309524Y-91852438D02*
X95357143Y-91900057D01*
X95357143Y-91900057D02*
X95404762Y-91995295D01*
X95404762Y-91995295D02*
X95404762Y-92138152D01*
X95404762Y-92138152D02*
X95357143Y-92233390D01*
X95357143Y-92233390D02*
X95309524Y-92281009D01*
X95309524Y-92281009D02*
X95214286Y-92328628D01*
X95214286Y-92328628D02*
X94833334Y-92328628D01*
X95738096Y-91804819D02*
X96357143Y-91804819D01*
X96357143Y-91804819D02*
X96023810Y-92185771D01*
X96023810Y-92185771D02*
X96166667Y-92185771D01*
X96166667Y-92185771D02*
X96261905Y-92233390D01*
X96261905Y-92233390D02*
X96309524Y-92281009D01*
X96309524Y-92281009D02*
X96357143Y-92376247D01*
X96357143Y-92376247D02*
X96357143Y-92614342D01*
X96357143Y-92614342D02*
X96309524Y-92709580D01*
X96309524Y-92709580D02*
X96261905Y-92757200D01*
X96261905Y-92757200D02*
X96166667Y-92804819D01*
X96166667Y-92804819D02*
X95880953Y-92804819D01*
X95880953Y-92804819D02*
X95785715Y-92757200D01*
X95785715Y-92757200D02*
X95738096Y-92709580D01*
X96738096Y-91900057D02*
X96785715Y-91852438D01*
X96785715Y-91852438D02*
X96880953Y-91804819D01*
X96880953Y-91804819D02*
X97119048Y-91804819D01*
X97119048Y-91804819D02*
X97214286Y-91852438D01*
X97214286Y-91852438D02*
X97261905Y-91900057D01*
X97261905Y-91900057D02*
X97309524Y-91995295D01*
X97309524Y-91995295D02*
X97309524Y-92090533D01*
X97309524Y-92090533D02*
X97261905Y-92233390D01*
X97261905Y-92233390D02*
X96690477Y-92804819D01*
X96690477Y-92804819D02*
X97309524Y-92804819D01*
X97738096Y-92423866D02*
X98500001Y-92423866D01*
X98880953Y-91804819D02*
X99119048Y-92804819D01*
X99119048Y-92804819D02*
X99309524Y-92090533D01*
X99309524Y-92090533D02*
X99500000Y-92804819D01*
X99500000Y-92804819D02*
X99738096Y-91804819D01*
X100690476Y-92804819D02*
X100357143Y-92328628D01*
X100119048Y-92804819D02*
X100119048Y-91804819D01*
X100119048Y-91804819D02*
X100500000Y-91804819D01*
X100500000Y-91804819D02*
X100595238Y-91852438D01*
X100595238Y-91852438D02*
X100642857Y-91900057D01*
X100642857Y-91900057D02*
X100690476Y-91995295D01*
X100690476Y-91995295D02*
X100690476Y-92138152D01*
X100690476Y-92138152D02*
X100642857Y-92233390D01*
X100642857Y-92233390D02*
X100595238Y-92281009D01*
X100595238Y-92281009D02*
X100500000Y-92328628D01*
X100500000Y-92328628D02*
X100119048Y-92328628D01*
X101309524Y-91804819D02*
X101500000Y-91804819D01*
X101500000Y-91804819D02*
X101595238Y-91852438D01*
X101595238Y-91852438D02*
X101690476Y-91947676D01*
X101690476Y-91947676D02*
X101738095Y-92138152D01*
X101738095Y-92138152D02*
X101738095Y-92471485D01*
X101738095Y-92471485D02*
X101690476Y-92661961D01*
X101690476Y-92661961D02*
X101595238Y-92757200D01*
X101595238Y-92757200D02*
X101500000Y-92804819D01*
X101500000Y-92804819D02*
X101309524Y-92804819D01*
X101309524Y-92804819D02*
X101214286Y-92757200D01*
X101214286Y-92757200D02*
X101119048Y-92661961D01*
X101119048Y-92661961D02*
X101071429Y-92471485D01*
X101071429Y-92471485D02*
X101071429Y-92138152D01*
X101071429Y-92138152D02*
X101119048Y-91947676D01*
X101119048Y-91947676D02*
X101214286Y-91852438D01*
X101214286Y-91852438D02*
X101309524Y-91804819D01*
X102357143Y-91804819D02*
X102547619Y-91804819D01*
X102547619Y-91804819D02*
X102642857Y-91852438D01*
X102642857Y-91852438D02*
X102738095Y-91947676D01*
X102738095Y-91947676D02*
X102785714Y-92138152D01*
X102785714Y-92138152D02*
X102785714Y-92471485D01*
X102785714Y-92471485D02*
X102738095Y-92661961D01*
X102738095Y-92661961D02*
X102642857Y-92757200D01*
X102642857Y-92757200D02*
X102547619Y-92804819D01*
X102547619Y-92804819D02*
X102357143Y-92804819D01*
X102357143Y-92804819D02*
X102261905Y-92757200D01*
X102261905Y-92757200D02*
X102166667Y-92661961D01*
X102166667Y-92661961D02*
X102119048Y-92471485D01*
X102119048Y-92471485D02*
X102119048Y-92138152D01*
X102119048Y-92138152D02*
X102166667Y-91947676D01*
X102166667Y-91947676D02*
X102261905Y-91852438D01*
X102261905Y-91852438D02*
X102357143Y-91804819D01*
X103214286Y-92804819D02*
X103214286Y-91804819D01*
X103214286Y-91804819D02*
X103547619Y-92519104D01*
X103547619Y-92519104D02*
X103880952Y-91804819D01*
X103880952Y-91804819D02*
X103880952Y-92804819D01*
X104357143Y-92423866D02*
X105119048Y-92423866D01*
X105500000Y-91804819D02*
X106119047Y-91804819D01*
X106119047Y-91804819D02*
X105785714Y-92185771D01*
X105785714Y-92185771D02*
X105928571Y-92185771D01*
X105928571Y-92185771D02*
X106023809Y-92233390D01*
X106023809Y-92233390D02*
X106071428Y-92281009D01*
X106071428Y-92281009D02*
X106119047Y-92376247D01*
X106119047Y-92376247D02*
X106119047Y-92614342D01*
X106119047Y-92614342D02*
X106071428Y-92709580D01*
X106071428Y-92709580D02*
X106023809Y-92757200D01*
X106023809Y-92757200D02*
X105928571Y-92804819D01*
X105928571Y-92804819D02*
X105642857Y-92804819D01*
X105642857Y-92804819D02*
X105547619Y-92757200D01*
X105547619Y-92757200D02*
X105500000Y-92709580D01*
X106500000Y-91900057D02*
X106547619Y-91852438D01*
X106547619Y-91852438D02*
X106642857Y-91804819D01*
X106642857Y-91804819D02*
X106880952Y-91804819D01*
X106880952Y-91804819D02*
X106976190Y-91852438D01*
X106976190Y-91852438D02*
X107023809Y-91900057D01*
X107023809Y-91900057D02*
X107071428Y-91995295D01*
X107071428Y-91995295D02*
X107071428Y-92090533D01*
X107071428Y-92090533D02*
X107023809Y-92233390D01*
X107023809Y-92233390D02*
X106452381Y-92804819D01*
X106452381Y-92804819D02*
X107071428Y-92804819D01*
X99238095Y-80304819D02*
X99238095Y-81114342D01*
X99238095Y-81114342D02*
X99285714Y-81209580D01*
X99285714Y-81209580D02*
X99333333Y-81257200D01*
X99333333Y-81257200D02*
X99428571Y-81304819D01*
X99428571Y-81304819D02*
X99619047Y-81304819D01*
X99619047Y-81304819D02*
X99714285Y-81257200D01*
X99714285Y-81257200D02*
X99761904Y-81209580D01*
X99761904Y-81209580D02*
X99809523Y-81114342D01*
X99809523Y-81114342D02*
X99809523Y-80304819D01*
X100190476Y-80304819D02*
X100809523Y-80304819D01*
X100809523Y-80304819D02*
X100476190Y-80685771D01*
X100476190Y-80685771D02*
X100619047Y-80685771D01*
X100619047Y-80685771D02*
X100714285Y-80733390D01*
X100714285Y-80733390D02*
X100761904Y-80781009D01*
X100761904Y-80781009D02*
X100809523Y-80876247D01*
X100809523Y-80876247D02*
X100809523Y-81114342D01*
X100809523Y-81114342D02*
X100761904Y-81209580D01*
X100761904Y-81209580D02*
X100714285Y-81257200D01*
X100714285Y-81257200D02*
X100619047Y-81304819D01*
X100619047Y-81304819D02*
X100333333Y-81304819D01*
X100333333Y-81304819D02*
X100238095Y-81257200D01*
X100238095Y-81257200D02*
X100190476Y-81209580D01*
X107124819Y-98671428D02*
X107124819Y-99242856D01*
X107124819Y-98957142D02*
X106124819Y-98957142D01*
X106124819Y-98957142D02*
X106267676Y-99052380D01*
X106267676Y-99052380D02*
X106362914Y-99147618D01*
X106362914Y-99147618D02*
X106410533Y-99242856D01*
X106124819Y-98052380D02*
X106124819Y-97957142D01*
X106124819Y-97957142D02*
X106172438Y-97861904D01*
X106172438Y-97861904D02*
X106220057Y-97814285D01*
X106220057Y-97814285D02*
X106315295Y-97766666D01*
X106315295Y-97766666D02*
X106505771Y-97719047D01*
X106505771Y-97719047D02*
X106743866Y-97719047D01*
X106743866Y-97719047D02*
X106934342Y-97766666D01*
X106934342Y-97766666D02*
X107029580Y-97814285D01*
X107029580Y-97814285D02*
X107077200Y-97861904D01*
X107077200Y-97861904D02*
X107124819Y-97957142D01*
X107124819Y-97957142D02*
X107124819Y-98052380D01*
X107124819Y-98052380D02*
X107077200Y-98147618D01*
X107077200Y-98147618D02*
X107029580Y-98195237D01*
X107029580Y-98195237D02*
X106934342Y-98242856D01*
X106934342Y-98242856D02*
X106743866Y-98290475D01*
X106743866Y-98290475D02*
X106505771Y-98290475D01*
X106505771Y-98290475D02*
X106315295Y-98242856D01*
X106315295Y-98242856D02*
X106220057Y-98195237D01*
X106220057Y-98195237D02*
X106172438Y-98147618D01*
X106172438Y-98147618D02*
X106124819Y-98052380D01*
X106124819Y-97099999D02*
X106124819Y-97004761D01*
X106124819Y-97004761D02*
X106172438Y-96909523D01*
X106172438Y-96909523D02*
X106220057Y-96861904D01*
X106220057Y-96861904D02*
X106315295Y-96814285D01*
X106315295Y-96814285D02*
X106505771Y-96766666D01*
X106505771Y-96766666D02*
X106743866Y-96766666D01*
X106743866Y-96766666D02*
X106934342Y-96814285D01*
X106934342Y-96814285D02*
X107029580Y-96861904D01*
X107029580Y-96861904D02*
X107077200Y-96909523D01*
X107077200Y-96909523D02*
X107124819Y-97004761D01*
X107124819Y-97004761D02*
X107124819Y-97099999D01*
X107124819Y-97099999D02*
X107077200Y-97195237D01*
X107077200Y-97195237D02*
X107029580Y-97242856D01*
X107029580Y-97242856D02*
X106934342Y-97290475D01*
X106934342Y-97290475D02*
X106743866Y-97338094D01*
X106743866Y-97338094D02*
X106505771Y-97338094D01*
X106505771Y-97338094D02*
X106315295Y-97290475D01*
X106315295Y-97290475D02*
X106220057Y-97242856D01*
X106220057Y-97242856D02*
X106172438Y-97195237D01*
X106172438Y-97195237D02*
X106124819Y-97099999D01*
X107124819Y-96338094D02*
X106124819Y-96338094D01*
X106743866Y-96242856D02*
X107124819Y-95957142D01*
X106458152Y-95957142D02*
X106839104Y-96338094D01*
D11*
X105618200Y-97643332D02*
X105494391Y-97729999D01*
X105618200Y-97791904D02*
X105358200Y-97791904D01*
X105358200Y-97791904D02*
X105358200Y-97692856D01*
X105358200Y-97692856D02*
X105370581Y-97668094D01*
X105370581Y-97668094D02*
X105382962Y-97655713D01*
X105382962Y-97655713D02*
X105407724Y-97643332D01*
X105407724Y-97643332D02*
X105444867Y-97643332D01*
X105444867Y-97643332D02*
X105469629Y-97655713D01*
X105469629Y-97655713D02*
X105482010Y-97668094D01*
X105482010Y-97668094D02*
X105494391Y-97692856D01*
X105494391Y-97692856D02*
X105494391Y-97791904D01*
X105358200Y-97556666D02*
X105358200Y-97395713D01*
X105358200Y-97395713D02*
X105457248Y-97482380D01*
X105457248Y-97482380D02*
X105457248Y-97445237D01*
X105457248Y-97445237D02*
X105469629Y-97420475D01*
X105469629Y-97420475D02*
X105482010Y-97408094D01*
X105482010Y-97408094D02*
X105506772Y-97395713D01*
X105506772Y-97395713D02*
X105568677Y-97395713D01*
X105568677Y-97395713D02*
X105593439Y-97408094D01*
X105593439Y-97408094D02*
X105605820Y-97420475D01*
X105605820Y-97420475D02*
X105618200Y-97445237D01*
X105618200Y-97445237D02*
X105618200Y-97519523D01*
X105618200Y-97519523D02*
X105605820Y-97544285D01*
X105605820Y-97544285D02*
X105593439Y-97556666D01*
D10*
X90002381Y-96257200D02*
X90145238Y-96304819D01*
X90145238Y-96304819D02*
X90383333Y-96304819D01*
X90383333Y-96304819D02*
X90478571Y-96257200D01*
X90478571Y-96257200D02*
X90526190Y-96209580D01*
X90526190Y-96209580D02*
X90573809Y-96114342D01*
X90573809Y-96114342D02*
X90573809Y-96019104D01*
X90573809Y-96019104D02*
X90526190Y-95923866D01*
X90526190Y-95923866D02*
X90478571Y-95876247D01*
X90478571Y-95876247D02*
X90383333Y-95828628D01*
X90383333Y-95828628D02*
X90192857Y-95781009D01*
X90192857Y-95781009D02*
X90097619Y-95733390D01*
X90097619Y-95733390D02*
X90050000Y-95685771D01*
X90050000Y-95685771D02*
X90002381Y-95590533D01*
X90002381Y-95590533D02*
X90002381Y-95495295D01*
X90002381Y-95495295D02*
X90050000Y-95400057D01*
X90050000Y-95400057D02*
X90097619Y-95352438D01*
X90097619Y-95352438D02*
X90192857Y-95304819D01*
X90192857Y-95304819D02*
X90430952Y-95304819D01*
X90430952Y-95304819D02*
X90573809Y-95352438D01*
X90907143Y-95304819D02*
X91145238Y-96304819D01*
X91145238Y-96304819D02*
X91335714Y-95590533D01*
X91335714Y-95590533D02*
X91526190Y-96304819D01*
X91526190Y-96304819D02*
X91764286Y-95304819D01*
X91907143Y-96400057D02*
X92669047Y-96400057D01*
X92907143Y-96304819D02*
X92907143Y-95304819D01*
X92907143Y-95304819D02*
X93288095Y-95304819D01*
X93288095Y-95304819D02*
X93383333Y-95352438D01*
X93383333Y-95352438D02*
X93430952Y-95400057D01*
X93430952Y-95400057D02*
X93478571Y-95495295D01*
X93478571Y-95495295D02*
X93478571Y-95638152D01*
X93478571Y-95638152D02*
X93430952Y-95733390D01*
X93430952Y-95733390D02*
X93383333Y-95781009D01*
X93383333Y-95781009D02*
X93288095Y-95828628D01*
X93288095Y-95828628D02*
X92907143Y-95828628D01*
X94335714Y-95638152D02*
X94335714Y-96304819D01*
X93907143Y-95638152D02*
X93907143Y-96161961D01*
X93907143Y-96161961D02*
X93954762Y-96257200D01*
X93954762Y-96257200D02*
X94050000Y-96304819D01*
X94050000Y-96304819D02*
X94192857Y-96304819D01*
X94192857Y-96304819D02*
X94288095Y-96257200D01*
X94288095Y-96257200D02*
X94335714Y-96209580D01*
X94764286Y-96257200D02*
X94859524Y-96304819D01*
X94859524Y-96304819D02*
X95050000Y-96304819D01*
X95050000Y-96304819D02*
X95145238Y-96257200D01*
X95145238Y-96257200D02*
X95192857Y-96161961D01*
X95192857Y-96161961D02*
X95192857Y-96114342D01*
X95192857Y-96114342D02*
X95145238Y-96019104D01*
X95145238Y-96019104D02*
X95050000Y-95971485D01*
X95050000Y-95971485D02*
X94907143Y-95971485D01*
X94907143Y-95971485D02*
X94811905Y-95923866D01*
X94811905Y-95923866D02*
X94764286Y-95828628D01*
X94764286Y-95828628D02*
X94764286Y-95781009D01*
X94764286Y-95781009D02*
X94811905Y-95685771D01*
X94811905Y-95685771D02*
X94907143Y-95638152D01*
X94907143Y-95638152D02*
X95050000Y-95638152D01*
X95050000Y-95638152D02*
X95145238Y-95685771D01*
X95621429Y-96304819D02*
X95621429Y-95304819D01*
X96050000Y-96304819D02*
X96050000Y-95781009D01*
X96050000Y-95781009D02*
X96002381Y-95685771D01*
X96002381Y-95685771D02*
X95907143Y-95638152D01*
X95907143Y-95638152D02*
X95764286Y-95638152D01*
X95764286Y-95638152D02*
X95669048Y-95685771D01*
X95669048Y-95685771D02*
X95621429Y-95733390D01*
X91716667Y-91257200D02*
X91859524Y-91304819D01*
X91859524Y-91304819D02*
X92097619Y-91304819D01*
X92097619Y-91304819D02*
X92192857Y-91257200D01*
X92192857Y-91257200D02*
X92240476Y-91209580D01*
X92240476Y-91209580D02*
X92288095Y-91114342D01*
X92288095Y-91114342D02*
X92288095Y-91019104D01*
X92288095Y-91019104D02*
X92240476Y-90923866D01*
X92240476Y-90923866D02*
X92192857Y-90876247D01*
X92192857Y-90876247D02*
X92097619Y-90828628D01*
X92097619Y-90828628D02*
X91907143Y-90781009D01*
X91907143Y-90781009D02*
X91811905Y-90733390D01*
X91811905Y-90733390D02*
X91764286Y-90685771D01*
X91764286Y-90685771D02*
X91716667Y-90590533D01*
X91716667Y-90590533D02*
X91716667Y-90495295D01*
X91716667Y-90495295D02*
X91764286Y-90400057D01*
X91764286Y-90400057D02*
X91811905Y-90352438D01*
X91811905Y-90352438D02*
X91907143Y-90304819D01*
X91907143Y-90304819D02*
X92145238Y-90304819D01*
X92145238Y-90304819D02*
X92288095Y-90352438D01*
X92621429Y-90304819D02*
X92859524Y-91304819D01*
X92859524Y-91304819D02*
X93050000Y-90590533D01*
X93050000Y-90590533D02*
X93240476Y-91304819D01*
X93240476Y-91304819D02*
X93478572Y-90304819D01*
X93811905Y-90400057D02*
X93859524Y-90352438D01*
X93859524Y-90352438D02*
X93954762Y-90304819D01*
X93954762Y-90304819D02*
X94192857Y-90304819D01*
X94192857Y-90304819D02*
X94288095Y-90352438D01*
X94288095Y-90352438D02*
X94335714Y-90400057D01*
X94335714Y-90400057D02*
X94383333Y-90495295D01*
X94383333Y-90495295D02*
X94383333Y-90590533D01*
X94383333Y-90590533D02*
X94335714Y-90733390D01*
X94335714Y-90733390D02*
X93764286Y-91304819D01*
X93764286Y-91304819D02*
X94383333Y-91304819D01*
X104954819Y-99280951D02*
X105764342Y-99280951D01*
X105764342Y-99280951D02*
X105859580Y-99233332D01*
X105859580Y-99233332D02*
X105907200Y-99185713D01*
X105907200Y-99185713D02*
X105954819Y-99090475D01*
X105954819Y-99090475D02*
X105954819Y-98899999D01*
X105954819Y-98899999D02*
X105907200Y-98804761D01*
X105907200Y-98804761D02*
X105859580Y-98757142D01*
X105859580Y-98757142D02*
X105764342Y-98709523D01*
X105764342Y-98709523D02*
X104954819Y-98709523D01*
X105954819Y-98233332D02*
X104954819Y-98233332D01*
X104954819Y-98233332D02*
X105669104Y-97899999D01*
X105669104Y-97899999D02*
X104954819Y-97566666D01*
X104954819Y-97566666D02*
X105954819Y-97566666D01*
X105954819Y-97090475D02*
X104954819Y-97090475D01*
X105431009Y-97090475D02*
X105431009Y-96519047D01*
X105954819Y-96519047D02*
X104954819Y-96519047D01*
X104954819Y-96138094D02*
X104954819Y-95519047D01*
X104954819Y-95519047D02*
X105335771Y-95852380D01*
X105335771Y-95852380D02*
X105335771Y-95709523D01*
X105335771Y-95709523D02*
X105383390Y-95614285D01*
X105383390Y-95614285D02*
X105431009Y-95566666D01*
X105431009Y-95566666D02*
X105526247Y-95519047D01*
X105526247Y-95519047D02*
X105764342Y-95519047D01*
X105764342Y-95519047D02*
X105859580Y-95566666D01*
X105859580Y-95566666D02*
X105907200Y-95614285D01*
X105907200Y-95614285D02*
X105954819Y-95709523D01*
X105954819Y-95709523D02*
X105954819Y-95995237D01*
X105954819Y-95995237D02*
X105907200Y-96090475D01*
X105907200Y-96090475D02*
X105859580Y-96138094D01*
X105954819Y-95090475D02*
X104954819Y-95090475D01*
X104954819Y-95090475D02*
X105954819Y-94519047D01*
X105954819Y-94519047D02*
X104954819Y-94519047D01*
D14*
X103452380Y-97175028D02*
X103404761Y-97151219D01*
X103404761Y-97151219D02*
X103357142Y-97103600D01*
X103357142Y-97103600D02*
X103285714Y-97032171D01*
X103285714Y-97032171D02*
X103238095Y-97008361D01*
X103238095Y-97008361D02*
X103190476Y-97008361D01*
X103214285Y-97127409D02*
X103166666Y-97103600D01*
X103166666Y-97103600D02*
X103119047Y-97055980D01*
X103119047Y-97055980D02*
X103095238Y-96960742D01*
X103095238Y-96960742D02*
X103095238Y-96794076D01*
X103095238Y-96794076D02*
X103119047Y-96698838D01*
X103119047Y-96698838D02*
X103166666Y-96651219D01*
X103166666Y-96651219D02*
X103214285Y-96627409D01*
X103214285Y-96627409D02*
X103309523Y-96627409D01*
X103309523Y-96627409D02*
X103357142Y-96651219D01*
X103357142Y-96651219D02*
X103404761Y-96698838D01*
X103404761Y-96698838D02*
X103428571Y-96794076D01*
X103428571Y-96794076D02*
X103428571Y-96960742D01*
X103428571Y-96960742D02*
X103404761Y-97055980D01*
X103404761Y-97055980D02*
X103357142Y-97103600D01*
X103357142Y-97103600D02*
X103309523Y-97127409D01*
X103309523Y-97127409D02*
X103214285Y-97127409D01*
X103904762Y-97127409D02*
X103619048Y-97127409D01*
X103761905Y-97127409D02*
X103761905Y-96627409D01*
X103761905Y-96627409D02*
X103714286Y-96698838D01*
X103714286Y-96698838D02*
X103666667Y-96746457D01*
X103666667Y-96746457D02*
X103619048Y-96770266D01*
D10*
X110859580Y-104442857D02*
X110907200Y-104490476D01*
X110907200Y-104490476D02*
X110954819Y-104633333D01*
X110954819Y-104633333D02*
X110954819Y-104728571D01*
X110954819Y-104728571D02*
X110907200Y-104871428D01*
X110907200Y-104871428D02*
X110811961Y-104966666D01*
X110811961Y-104966666D02*
X110716723Y-105014285D01*
X110716723Y-105014285D02*
X110526247Y-105061904D01*
X110526247Y-105061904D02*
X110383390Y-105061904D01*
X110383390Y-105061904D02*
X110192914Y-105014285D01*
X110192914Y-105014285D02*
X110097676Y-104966666D01*
X110097676Y-104966666D02*
X110002438Y-104871428D01*
X110002438Y-104871428D02*
X109954819Y-104728571D01*
X109954819Y-104728571D02*
X109954819Y-104633333D01*
X109954819Y-104633333D02*
X110002438Y-104490476D01*
X110002438Y-104490476D02*
X110050057Y-104442857D01*
X110954819Y-104014285D02*
X109954819Y-104014285D01*
X110431009Y-104014285D02*
X110431009Y-103442857D01*
X110954819Y-103442857D02*
X109954819Y-103442857D01*
X109954819Y-103061904D02*
X109954819Y-102442857D01*
X109954819Y-102442857D02*
X110335771Y-102776190D01*
X110335771Y-102776190D02*
X110335771Y-102633333D01*
X110335771Y-102633333D02*
X110383390Y-102538095D01*
X110383390Y-102538095D02*
X110431009Y-102490476D01*
X110431009Y-102490476D02*
X110526247Y-102442857D01*
X110526247Y-102442857D02*
X110764342Y-102442857D01*
X110764342Y-102442857D02*
X110859580Y-102490476D01*
X110859580Y-102490476D02*
X110907200Y-102538095D01*
X110907200Y-102538095D02*
X110954819Y-102633333D01*
X110954819Y-102633333D02*
X110954819Y-102919047D01*
X110954819Y-102919047D02*
X110907200Y-103014285D01*
X110907200Y-103014285D02*
X110859580Y-103061904D01*
X110288152Y-101585714D02*
X110954819Y-101585714D01*
X109907200Y-101823809D02*
X110621485Y-102061904D01*
X110621485Y-102061904D02*
X110621485Y-101442857D01*
X109954819Y-100871428D02*
X109954819Y-100776190D01*
X109954819Y-100776190D02*
X110002438Y-100680952D01*
X110002438Y-100680952D02*
X110050057Y-100633333D01*
X110050057Y-100633333D02*
X110145295Y-100585714D01*
X110145295Y-100585714D02*
X110335771Y-100538095D01*
X110335771Y-100538095D02*
X110573866Y-100538095D01*
X110573866Y-100538095D02*
X110764342Y-100585714D01*
X110764342Y-100585714D02*
X110859580Y-100633333D01*
X110859580Y-100633333D02*
X110907200Y-100680952D01*
X110907200Y-100680952D02*
X110954819Y-100776190D01*
X110954819Y-100776190D02*
X110954819Y-100871428D01*
X110954819Y-100871428D02*
X110907200Y-100966666D01*
X110907200Y-100966666D02*
X110859580Y-101014285D01*
X110859580Y-101014285D02*
X110764342Y-101061904D01*
X110764342Y-101061904D02*
X110573866Y-101109523D01*
X110573866Y-101109523D02*
X110335771Y-101109523D01*
X110335771Y-101109523D02*
X110145295Y-101061904D01*
X110145295Y-101061904D02*
X110050057Y-101014285D01*
X110050057Y-101014285D02*
X110002438Y-100966666D01*
X110002438Y-100966666D02*
X109954819Y-100871428D01*
X110859580Y-99538095D02*
X110907200Y-99585714D01*
X110907200Y-99585714D02*
X110954819Y-99728571D01*
X110954819Y-99728571D02*
X110954819Y-99823809D01*
X110954819Y-99823809D02*
X110907200Y-99966666D01*
X110907200Y-99966666D02*
X110811961Y-100061904D01*
X110811961Y-100061904D02*
X110716723Y-100109523D01*
X110716723Y-100109523D02*
X110526247Y-100157142D01*
X110526247Y-100157142D02*
X110383390Y-100157142D01*
X110383390Y-100157142D02*
X110192914Y-100109523D01*
X110192914Y-100109523D02*
X110097676Y-100061904D01*
X110097676Y-100061904D02*
X110002438Y-99966666D01*
X110002438Y-99966666D02*
X109954819Y-99823809D01*
X109954819Y-99823809D02*
X109954819Y-99728571D01*
X109954819Y-99728571D02*
X110002438Y-99585714D01*
X110002438Y-99585714D02*
X110050057Y-99538095D01*
X104065566Y-103046666D02*
X104858900Y-103046666D01*
X104858900Y-103046666D02*
X104952233Y-103000000D01*
X104952233Y-103000000D02*
X104998900Y-102953333D01*
X104998900Y-102953333D02*
X105045566Y-102860000D01*
X105045566Y-102860000D02*
X105045566Y-102673333D01*
X105045566Y-102673333D02*
X104998900Y-102580000D01*
X104998900Y-102580000D02*
X104952233Y-102533333D01*
X104952233Y-102533333D02*
X104858900Y-102486666D01*
X104858900Y-102486666D02*
X104065566Y-102486666D01*
X105045566Y-101506666D02*
X105045566Y-102066666D01*
X105045566Y-101786666D02*
X104065566Y-101786666D01*
X104065566Y-101786666D02*
X104205566Y-101879999D01*
X104205566Y-101879999D02*
X104298900Y-101973333D01*
X104298900Y-101973333D02*
X104345566Y-102066666D01*
X110214285Y-70654819D02*
X110214285Y-69654819D01*
X110214285Y-69654819D02*
X110547618Y-70369104D01*
X110547618Y-70369104D02*
X110880951Y-69654819D01*
X110880951Y-69654819D02*
X110880951Y-70654819D01*
X111499999Y-70654819D02*
X111404761Y-70607200D01*
X111404761Y-70607200D02*
X111357142Y-70559580D01*
X111357142Y-70559580D02*
X111309523Y-70464342D01*
X111309523Y-70464342D02*
X111309523Y-70178628D01*
X111309523Y-70178628D02*
X111357142Y-70083390D01*
X111357142Y-70083390D02*
X111404761Y-70035771D01*
X111404761Y-70035771D02*
X111499999Y-69988152D01*
X111499999Y-69988152D02*
X111642856Y-69988152D01*
X111642856Y-69988152D02*
X111738094Y-70035771D01*
X111738094Y-70035771D02*
X111785713Y-70083390D01*
X111785713Y-70083390D02*
X111833332Y-70178628D01*
X111833332Y-70178628D02*
X111833332Y-70464342D01*
X111833332Y-70464342D02*
X111785713Y-70559580D01*
X111785713Y-70559580D02*
X111738094Y-70607200D01*
X111738094Y-70607200D02*
X111642856Y-70654819D01*
X111642856Y-70654819D02*
X111499999Y-70654819D01*
X112690475Y-69988152D02*
X112690475Y-70654819D01*
X112261904Y-69988152D02*
X112261904Y-70511961D01*
X112261904Y-70511961D02*
X112309523Y-70607200D01*
X112309523Y-70607200D02*
X112404761Y-70654819D01*
X112404761Y-70654819D02*
X112547618Y-70654819D01*
X112547618Y-70654819D02*
X112642856Y-70607200D01*
X112642856Y-70607200D02*
X112690475Y-70559580D01*
X113166666Y-69988152D02*
X113166666Y-70654819D01*
X113166666Y-70083390D02*
X113214285Y-70035771D01*
X113214285Y-70035771D02*
X113309523Y-69988152D01*
X113309523Y-69988152D02*
X113452380Y-69988152D01*
X113452380Y-69988152D02*
X113547618Y-70035771D01*
X113547618Y-70035771D02*
X113595237Y-70131009D01*
X113595237Y-70131009D02*
X113595237Y-70654819D01*
X113928571Y-69988152D02*
X114309523Y-69988152D01*
X114071428Y-69654819D02*
X114071428Y-70511961D01*
X114071428Y-70511961D02*
X114119047Y-70607200D01*
X114119047Y-70607200D02*
X114214285Y-70654819D01*
X114214285Y-70654819D02*
X114309523Y-70654819D01*
X114642857Y-70654819D02*
X114642857Y-69988152D01*
X114642857Y-69654819D02*
X114595238Y-69702438D01*
X114595238Y-69702438D02*
X114642857Y-69750057D01*
X114642857Y-69750057D02*
X114690476Y-69702438D01*
X114690476Y-69702438D02*
X114642857Y-69654819D01*
X114642857Y-69654819D02*
X114642857Y-69750057D01*
X115119047Y-69988152D02*
X115119047Y-70654819D01*
X115119047Y-70083390D02*
X115166666Y-70035771D01*
X115166666Y-70035771D02*
X115261904Y-69988152D01*
X115261904Y-69988152D02*
X115404761Y-69988152D01*
X115404761Y-69988152D02*
X115499999Y-70035771D01*
X115499999Y-70035771D02*
X115547618Y-70131009D01*
X115547618Y-70131009D02*
X115547618Y-70654819D01*
X116452380Y-69988152D02*
X116452380Y-70797676D01*
X116452380Y-70797676D02*
X116404761Y-70892914D01*
X116404761Y-70892914D02*
X116357142Y-70940533D01*
X116357142Y-70940533D02*
X116261904Y-70988152D01*
X116261904Y-70988152D02*
X116119047Y-70988152D01*
X116119047Y-70988152D02*
X116023809Y-70940533D01*
X116452380Y-70607200D02*
X116357142Y-70654819D01*
X116357142Y-70654819D02*
X116166666Y-70654819D01*
X116166666Y-70654819D02*
X116071428Y-70607200D01*
X116071428Y-70607200D02*
X116023809Y-70559580D01*
X116023809Y-70559580D02*
X115976190Y-70464342D01*
X115976190Y-70464342D02*
X115976190Y-70178628D01*
X115976190Y-70178628D02*
X116023809Y-70083390D01*
X116023809Y-70083390D02*
X116071428Y-70035771D01*
X116071428Y-70035771D02*
X116166666Y-69988152D01*
X116166666Y-69988152D02*
X116357142Y-69988152D01*
X116357142Y-69988152D02*
X116452380Y-70035771D01*
X116928571Y-70654819D02*
X116928571Y-69654819D01*
X116928571Y-70131009D02*
X117499999Y-70131009D01*
X117499999Y-70654819D02*
X117499999Y-69654819D01*
X118119047Y-70654819D02*
X118023809Y-70607200D01*
X118023809Y-70607200D02*
X117976190Y-70559580D01*
X117976190Y-70559580D02*
X117928571Y-70464342D01*
X117928571Y-70464342D02*
X117928571Y-70178628D01*
X117928571Y-70178628D02*
X117976190Y-70083390D01*
X117976190Y-70083390D02*
X118023809Y-70035771D01*
X118023809Y-70035771D02*
X118119047Y-69988152D01*
X118119047Y-69988152D02*
X118261904Y-69988152D01*
X118261904Y-69988152D02*
X118357142Y-70035771D01*
X118357142Y-70035771D02*
X118404761Y-70083390D01*
X118404761Y-70083390D02*
X118452380Y-70178628D01*
X118452380Y-70178628D02*
X118452380Y-70464342D01*
X118452380Y-70464342D02*
X118404761Y-70559580D01*
X118404761Y-70559580D02*
X118357142Y-70607200D01*
X118357142Y-70607200D02*
X118261904Y-70654819D01*
X118261904Y-70654819D02*
X118119047Y-70654819D01*
X119023809Y-70654819D02*
X118928571Y-70607200D01*
X118928571Y-70607200D02*
X118880952Y-70511961D01*
X118880952Y-70511961D02*
X118880952Y-69654819D01*
X119785714Y-70607200D02*
X119690476Y-70654819D01*
X119690476Y-70654819D02*
X119500000Y-70654819D01*
X119500000Y-70654819D02*
X119404762Y-70607200D01*
X119404762Y-70607200D02*
X119357143Y-70511961D01*
X119357143Y-70511961D02*
X119357143Y-70131009D01*
X119357143Y-70131009D02*
X119404762Y-70035771D01*
X119404762Y-70035771D02*
X119500000Y-69988152D01*
X119500000Y-69988152D02*
X119690476Y-69988152D01*
X119690476Y-69988152D02*
X119785714Y-70035771D01*
X119785714Y-70035771D02*
X119833333Y-70131009D01*
X119833333Y-70131009D02*
X119833333Y-70226247D01*
X119833333Y-70226247D02*
X119357143Y-70321485D01*
X114238095Y-67454819D02*
X114238095Y-66454819D01*
X114238095Y-66931009D02*
X114809523Y-66931009D01*
X114809523Y-67454819D02*
X114809523Y-66454819D01*
X115238095Y-66550057D02*
X115285714Y-66502438D01*
X115285714Y-66502438D02*
X115380952Y-66454819D01*
X115380952Y-66454819D02*
X115619047Y-66454819D01*
X115619047Y-66454819D02*
X115714285Y-66502438D01*
X115714285Y-66502438D02*
X115761904Y-66550057D01*
X115761904Y-66550057D02*
X115809523Y-66645295D01*
X115809523Y-66645295D02*
X115809523Y-66740533D01*
X115809523Y-66740533D02*
X115761904Y-66883390D01*
X115761904Y-66883390D02*
X115190476Y-67454819D01*
X115190476Y-67454819D02*
X115809523Y-67454819D01*
X95572438Y-115066666D02*
X95524819Y-115161904D01*
X95524819Y-115161904D02*
X95524819Y-115304761D01*
X95524819Y-115304761D02*
X95572438Y-115447618D01*
X95572438Y-115447618D02*
X95667676Y-115542856D01*
X95667676Y-115542856D02*
X95762914Y-115590475D01*
X95762914Y-115590475D02*
X95953390Y-115638094D01*
X95953390Y-115638094D02*
X96096247Y-115638094D01*
X96096247Y-115638094D02*
X96286723Y-115590475D01*
X96286723Y-115590475D02*
X96381961Y-115542856D01*
X96381961Y-115542856D02*
X96477200Y-115447618D01*
X96477200Y-115447618D02*
X96524819Y-115304761D01*
X96524819Y-115304761D02*
X96524819Y-115209523D01*
X96524819Y-115209523D02*
X96477200Y-115066666D01*
X96477200Y-115066666D02*
X96429580Y-115019047D01*
X96429580Y-115019047D02*
X96096247Y-115019047D01*
X96096247Y-115019047D02*
X96096247Y-115209523D01*
X96524819Y-114019047D02*
X96048628Y-114352380D01*
X96524819Y-114590475D02*
X95524819Y-114590475D01*
X95524819Y-114590475D02*
X95524819Y-114209523D01*
X95524819Y-114209523D02*
X95572438Y-114114285D01*
X95572438Y-114114285D02*
X95620057Y-114066666D01*
X95620057Y-114066666D02*
X95715295Y-114019047D01*
X95715295Y-114019047D02*
X95858152Y-114019047D01*
X95858152Y-114019047D02*
X95953390Y-114066666D01*
X95953390Y-114066666D02*
X96001009Y-114114285D01*
X96001009Y-114114285D02*
X96048628Y-114209523D01*
X96048628Y-114209523D02*
X96048628Y-114590475D01*
X96001009Y-113590475D02*
X96001009Y-113257142D01*
X96524819Y-113114285D02*
X96524819Y-113590475D01*
X96524819Y-113590475D02*
X95524819Y-113590475D01*
X95524819Y-113590475D02*
X95524819Y-113114285D01*
X96001009Y-112685713D02*
X96001009Y-112352380D01*
X96524819Y-112209523D02*
X96524819Y-112685713D01*
X96524819Y-112685713D02*
X95524819Y-112685713D01*
X95524819Y-112685713D02*
X95524819Y-112209523D01*
X96524819Y-111780951D02*
X95524819Y-111780951D01*
X95524819Y-111780951D02*
X96524819Y-111209523D01*
X96524819Y-111209523D02*
X95524819Y-111209523D01*
D12*
X97681927Y-113695237D02*
X97281927Y-113695237D01*
X97281927Y-113695237D02*
X97281927Y-113599999D01*
X97281927Y-113599999D02*
X97300975Y-113542856D01*
X97300975Y-113542856D02*
X97339070Y-113504761D01*
X97339070Y-113504761D02*
X97377165Y-113485714D01*
X97377165Y-113485714D02*
X97453356Y-113466666D01*
X97453356Y-113466666D02*
X97510499Y-113466666D01*
X97510499Y-113466666D02*
X97586689Y-113485714D01*
X97586689Y-113485714D02*
X97624784Y-113504761D01*
X97624784Y-113504761D02*
X97662880Y-113542856D01*
X97662880Y-113542856D02*
X97681927Y-113599999D01*
X97681927Y-113599999D02*
X97681927Y-113695237D01*
X97320022Y-113314285D02*
X97300975Y-113295237D01*
X97300975Y-113295237D02*
X97281927Y-113257142D01*
X97281927Y-113257142D02*
X97281927Y-113161904D01*
X97281927Y-113161904D02*
X97300975Y-113123809D01*
X97300975Y-113123809D02*
X97320022Y-113104761D01*
X97320022Y-113104761D02*
X97358118Y-113085714D01*
X97358118Y-113085714D02*
X97396213Y-113085714D01*
X97396213Y-113085714D02*
X97453356Y-113104761D01*
X97453356Y-113104761D02*
X97681927Y-113333333D01*
X97681927Y-113333333D02*
X97681927Y-113085714D01*
D10*
X102084819Y-98071428D02*
X102084819Y-98642856D01*
X102084819Y-98357142D02*
X101084819Y-98357142D01*
X101084819Y-98357142D02*
X101227676Y-98452380D01*
X101227676Y-98452380D02*
X101322914Y-98547618D01*
X101322914Y-98547618D02*
X101370533Y-98642856D01*
X101084819Y-97452380D02*
X101084819Y-97357142D01*
X101084819Y-97357142D02*
X101132438Y-97261904D01*
X101132438Y-97261904D02*
X101180057Y-97214285D01*
X101180057Y-97214285D02*
X101275295Y-97166666D01*
X101275295Y-97166666D02*
X101465771Y-97119047D01*
X101465771Y-97119047D02*
X101703866Y-97119047D01*
X101703866Y-97119047D02*
X101894342Y-97166666D01*
X101894342Y-97166666D02*
X101989580Y-97214285D01*
X101989580Y-97214285D02*
X102037200Y-97261904D01*
X102037200Y-97261904D02*
X102084819Y-97357142D01*
X102084819Y-97357142D02*
X102084819Y-97452380D01*
X102084819Y-97452380D02*
X102037200Y-97547618D01*
X102037200Y-97547618D02*
X101989580Y-97595237D01*
X101989580Y-97595237D02*
X101894342Y-97642856D01*
X101894342Y-97642856D02*
X101703866Y-97690475D01*
X101703866Y-97690475D02*
X101465771Y-97690475D01*
X101465771Y-97690475D02*
X101275295Y-97642856D01*
X101275295Y-97642856D02*
X101180057Y-97595237D01*
X101180057Y-97595237D02*
X101132438Y-97547618D01*
X101132438Y-97547618D02*
X101084819Y-97452380D01*
X101418152Y-96261904D02*
X102084819Y-96261904D01*
X101418152Y-96690475D02*
X101941961Y-96690475D01*
X101941961Y-96690475D02*
X102037200Y-96642856D01*
X102037200Y-96642856D02*
X102084819Y-96547618D01*
X102084819Y-96547618D02*
X102084819Y-96404761D01*
X102084819Y-96404761D02*
X102037200Y-96309523D01*
X102037200Y-96309523D02*
X101989580Y-96261904D01*
X101561009Y-95452380D02*
X101561009Y-95785713D01*
X102084819Y-95785713D02*
X101084819Y-95785713D01*
X101084819Y-95785713D02*
X101084819Y-95309523D01*
D12*
X100343832Y-97066666D02*
X100362880Y-97085714D01*
X100362880Y-97085714D02*
X100381927Y-97142856D01*
X100381927Y-97142856D02*
X100381927Y-97180952D01*
X100381927Y-97180952D02*
X100362880Y-97238095D01*
X100362880Y-97238095D02*
X100324784Y-97276190D01*
X100324784Y-97276190D02*
X100286689Y-97295237D01*
X100286689Y-97295237D02*
X100210499Y-97314285D01*
X100210499Y-97314285D02*
X100153356Y-97314285D01*
X100153356Y-97314285D02*
X100077165Y-97295237D01*
X100077165Y-97295237D02*
X100039070Y-97276190D01*
X100039070Y-97276190D02*
X100000975Y-97238095D01*
X100000975Y-97238095D02*
X99981927Y-97180952D01*
X99981927Y-97180952D02*
X99981927Y-97142856D01*
X99981927Y-97142856D02*
X100000975Y-97085714D01*
X100000975Y-97085714D02*
X100020022Y-97066666D01*
X100115260Y-96723809D02*
X100381927Y-96723809D01*
X99962880Y-96819047D02*
X100248594Y-96914285D01*
X100248594Y-96914285D02*
X100248594Y-96666666D01*
D10*
X90539524Y-106304819D02*
X91110952Y-106304819D01*
X90825238Y-107304819D02*
X90825238Y-106304819D01*
X91444286Y-107304819D02*
X91444286Y-106304819D01*
X91444286Y-106304819D02*
X91825238Y-106304819D01*
X91825238Y-106304819D02*
X91920476Y-106352438D01*
X91920476Y-106352438D02*
X91968095Y-106400057D01*
X91968095Y-106400057D02*
X92015714Y-106495295D01*
X92015714Y-106495295D02*
X92015714Y-106638152D01*
X92015714Y-106638152D02*
X91968095Y-106733390D01*
X91968095Y-106733390D02*
X91920476Y-106781009D01*
X91920476Y-106781009D02*
X91825238Y-106828628D01*
X91825238Y-106828628D02*
X91444286Y-106828628D01*
X92872857Y-106638152D02*
X92872857Y-107304819D01*
X92634762Y-106257200D02*
X92396667Y-106971485D01*
X92396667Y-106971485D02*
X93015714Y-106971485D01*
X93587143Y-106304819D02*
X93682381Y-106304819D01*
X93682381Y-106304819D02*
X93777619Y-106352438D01*
X93777619Y-106352438D02*
X93825238Y-106400057D01*
X93825238Y-106400057D02*
X93872857Y-106495295D01*
X93872857Y-106495295D02*
X93920476Y-106685771D01*
X93920476Y-106685771D02*
X93920476Y-106923866D01*
X93920476Y-106923866D02*
X93872857Y-107114342D01*
X93872857Y-107114342D02*
X93825238Y-107209580D01*
X93825238Y-107209580D02*
X93777619Y-107257200D01*
X93777619Y-107257200D02*
X93682381Y-107304819D01*
X93682381Y-107304819D02*
X93587143Y-107304819D01*
X93587143Y-107304819D02*
X93491905Y-107257200D01*
X93491905Y-107257200D02*
X93444286Y-107209580D01*
X93444286Y-107209580D02*
X93396667Y-107114342D01*
X93396667Y-107114342D02*
X93349048Y-106923866D01*
X93349048Y-106923866D02*
X93349048Y-106685771D01*
X93349048Y-106685771D02*
X93396667Y-106495295D01*
X93396667Y-106495295D02*
X93444286Y-106400057D01*
X93444286Y-106400057D02*
X93491905Y-106352438D01*
X93491905Y-106352438D02*
X93587143Y-106304819D01*
X94825238Y-106304819D02*
X94349048Y-106304819D01*
X94349048Y-106304819D02*
X94301429Y-106781009D01*
X94301429Y-106781009D02*
X94349048Y-106733390D01*
X94349048Y-106733390D02*
X94444286Y-106685771D01*
X94444286Y-106685771D02*
X94682381Y-106685771D01*
X94682381Y-106685771D02*
X94777619Y-106733390D01*
X94777619Y-106733390D02*
X94825238Y-106781009D01*
X94825238Y-106781009D02*
X94872857Y-106876247D01*
X94872857Y-106876247D02*
X94872857Y-107114342D01*
X94872857Y-107114342D02*
X94825238Y-107209580D01*
X94825238Y-107209580D02*
X94777619Y-107257200D01*
X94777619Y-107257200D02*
X94682381Y-107304819D01*
X94682381Y-107304819D02*
X94444286Y-107304819D01*
X94444286Y-107304819D02*
X94349048Y-107257200D01*
X94349048Y-107257200D02*
X94301429Y-107209580D01*
X95730000Y-106304819D02*
X95539524Y-106304819D01*
X95539524Y-106304819D02*
X95444286Y-106352438D01*
X95444286Y-106352438D02*
X95396667Y-106400057D01*
X95396667Y-106400057D02*
X95301429Y-106542914D01*
X95301429Y-106542914D02*
X95253810Y-106733390D01*
X95253810Y-106733390D02*
X95253810Y-107114342D01*
X95253810Y-107114342D02*
X95301429Y-107209580D01*
X95301429Y-107209580D02*
X95349048Y-107257200D01*
X95349048Y-107257200D02*
X95444286Y-107304819D01*
X95444286Y-107304819D02*
X95634762Y-107304819D01*
X95634762Y-107304819D02*
X95730000Y-107257200D01*
X95730000Y-107257200D02*
X95777619Y-107209580D01*
X95777619Y-107209580D02*
X95825238Y-107114342D01*
X95825238Y-107114342D02*
X95825238Y-106876247D01*
X95825238Y-106876247D02*
X95777619Y-106781009D01*
X95777619Y-106781009D02*
X95730000Y-106733390D01*
X95730000Y-106733390D02*
X95634762Y-106685771D01*
X95634762Y-106685771D02*
X95444286Y-106685771D01*
X95444286Y-106685771D02*
X95349048Y-106733390D01*
X95349048Y-106733390D02*
X95301429Y-106781009D01*
X95301429Y-106781009D02*
X95253810Y-106876247D01*
X92483333Y-102915566D02*
X92483333Y-103708900D01*
X92483333Y-103708900D02*
X92530000Y-103802233D01*
X92530000Y-103802233D02*
X92576666Y-103848900D01*
X92576666Y-103848900D02*
X92670000Y-103895566D01*
X92670000Y-103895566D02*
X92856666Y-103895566D01*
X92856666Y-103895566D02*
X92950000Y-103848900D01*
X92950000Y-103848900D02*
X92996666Y-103802233D01*
X92996666Y-103802233D02*
X93043333Y-103708900D01*
X93043333Y-103708900D02*
X93043333Y-102915566D01*
X93930000Y-103242233D02*
X93930000Y-103895566D01*
X93696667Y-102868900D02*
X93463333Y-103568900D01*
X93463333Y-103568900D02*
X94070000Y-103568900D01*
X87557143Y-72894819D02*
X87652381Y-72894819D01*
X87652381Y-72894819D02*
X87747619Y-72942438D01*
X87747619Y-72942438D02*
X87795238Y-72990057D01*
X87795238Y-72990057D02*
X87842857Y-73085295D01*
X87842857Y-73085295D02*
X87890476Y-73275771D01*
X87890476Y-73275771D02*
X87890476Y-73513866D01*
X87890476Y-73513866D02*
X87842857Y-73704342D01*
X87842857Y-73704342D02*
X87795238Y-73799580D01*
X87795238Y-73799580D02*
X87747619Y-73847200D01*
X87747619Y-73847200D02*
X87652381Y-73894819D01*
X87652381Y-73894819D02*
X87557143Y-73894819D01*
X87557143Y-73894819D02*
X87461905Y-73847200D01*
X87461905Y-73847200D02*
X87414286Y-73799580D01*
X87414286Y-73799580D02*
X87366667Y-73704342D01*
X87366667Y-73704342D02*
X87319048Y-73513866D01*
X87319048Y-73513866D02*
X87319048Y-73275771D01*
X87319048Y-73275771D02*
X87366667Y-73085295D01*
X87366667Y-73085295D02*
X87414286Y-72990057D01*
X87414286Y-72990057D02*
X87461905Y-72942438D01*
X87461905Y-72942438D02*
X87557143Y-72894819D01*
X88319048Y-73799580D02*
X88366667Y-73847200D01*
X88366667Y-73847200D02*
X88319048Y-73894819D01*
X88319048Y-73894819D02*
X88271429Y-73847200D01*
X88271429Y-73847200D02*
X88319048Y-73799580D01*
X88319048Y-73799580D02*
X88319048Y-73894819D01*
X89319047Y-73894819D02*
X88747619Y-73894819D01*
X89033333Y-73894819D02*
X89033333Y-72894819D01*
X89033333Y-72894819D02*
X88938095Y-73037676D01*
X88938095Y-73037676D02*
X88842857Y-73132914D01*
X88842857Y-73132914D02*
X88747619Y-73180533D01*
X90176190Y-73228152D02*
X90176190Y-73894819D01*
X89747619Y-73228152D02*
X89747619Y-73751961D01*
X89747619Y-73751961D02*
X89795238Y-73847200D01*
X89795238Y-73847200D02*
X89890476Y-73894819D01*
X89890476Y-73894819D02*
X90033333Y-73894819D01*
X90033333Y-73894819D02*
X90128571Y-73847200D01*
X90128571Y-73847200D02*
X90176190Y-73799580D01*
X90985714Y-73371009D02*
X90652381Y-73371009D01*
X90652381Y-73894819D02*
X90652381Y-72894819D01*
X90652381Y-72894819D02*
X91128571Y-72894819D01*
D11*
X89158333Y-74689765D02*
X89146429Y-74701670D01*
X89146429Y-74701670D02*
X89110714Y-74713574D01*
X89110714Y-74713574D02*
X89086905Y-74713574D01*
X89086905Y-74713574D02*
X89051191Y-74701670D01*
X89051191Y-74701670D02*
X89027381Y-74677860D01*
X89027381Y-74677860D02*
X89015476Y-74654050D01*
X89015476Y-74654050D02*
X89003572Y-74606431D01*
X89003572Y-74606431D02*
X89003572Y-74570717D01*
X89003572Y-74570717D02*
X89015476Y-74523098D01*
X89015476Y-74523098D02*
X89027381Y-74499289D01*
X89027381Y-74499289D02*
X89051191Y-74475479D01*
X89051191Y-74475479D02*
X89086905Y-74463574D01*
X89086905Y-74463574D02*
X89110714Y-74463574D01*
X89110714Y-74463574D02*
X89146429Y-74475479D01*
X89146429Y-74475479D02*
X89158333Y-74487384D01*
X89396429Y-74713574D02*
X89253572Y-74713574D01*
X89325000Y-74713574D02*
X89325000Y-74463574D01*
X89325000Y-74463574D02*
X89301191Y-74499289D01*
X89301191Y-74499289D02*
X89277381Y-74523098D01*
X89277381Y-74523098D02*
X89253572Y-74535003D01*
D10*
X87547143Y-77214819D02*
X87642381Y-77214819D01*
X87642381Y-77214819D02*
X87737619Y-77262438D01*
X87737619Y-77262438D02*
X87785238Y-77310057D01*
X87785238Y-77310057D02*
X87832857Y-77405295D01*
X87832857Y-77405295D02*
X87880476Y-77595771D01*
X87880476Y-77595771D02*
X87880476Y-77833866D01*
X87880476Y-77833866D02*
X87832857Y-78024342D01*
X87832857Y-78024342D02*
X87785238Y-78119580D01*
X87785238Y-78119580D02*
X87737619Y-78167200D01*
X87737619Y-78167200D02*
X87642381Y-78214819D01*
X87642381Y-78214819D02*
X87547143Y-78214819D01*
X87547143Y-78214819D02*
X87451905Y-78167200D01*
X87451905Y-78167200D02*
X87404286Y-78119580D01*
X87404286Y-78119580D02*
X87356667Y-78024342D01*
X87356667Y-78024342D02*
X87309048Y-77833866D01*
X87309048Y-77833866D02*
X87309048Y-77595771D01*
X87309048Y-77595771D02*
X87356667Y-77405295D01*
X87356667Y-77405295D02*
X87404286Y-77310057D01*
X87404286Y-77310057D02*
X87451905Y-77262438D01*
X87451905Y-77262438D02*
X87547143Y-77214819D01*
X88309048Y-78119580D02*
X88356667Y-78167200D01*
X88356667Y-78167200D02*
X88309048Y-78214819D01*
X88309048Y-78214819D02*
X88261429Y-78167200D01*
X88261429Y-78167200D02*
X88309048Y-78119580D01*
X88309048Y-78119580D02*
X88309048Y-78214819D01*
X89309047Y-78214819D02*
X88737619Y-78214819D01*
X89023333Y-78214819D02*
X89023333Y-77214819D01*
X89023333Y-77214819D02*
X88928095Y-77357676D01*
X88928095Y-77357676D02*
X88832857Y-77452914D01*
X88832857Y-77452914D02*
X88737619Y-77500533D01*
X90166190Y-77548152D02*
X90166190Y-78214819D01*
X89737619Y-77548152D02*
X89737619Y-78071961D01*
X89737619Y-78071961D02*
X89785238Y-78167200D01*
X89785238Y-78167200D02*
X89880476Y-78214819D01*
X89880476Y-78214819D02*
X90023333Y-78214819D01*
X90023333Y-78214819D02*
X90118571Y-78167200D01*
X90118571Y-78167200D02*
X90166190Y-78119580D01*
X90975714Y-77691009D02*
X90642381Y-77691009D01*
X90642381Y-78214819D02*
X90642381Y-77214819D01*
X90642381Y-77214819D02*
X91118571Y-77214819D01*
D11*
X89148333Y-76689765D02*
X89136429Y-76701670D01*
X89136429Y-76701670D02*
X89100714Y-76713574D01*
X89100714Y-76713574D02*
X89076905Y-76713574D01*
X89076905Y-76713574D02*
X89041191Y-76701670D01*
X89041191Y-76701670D02*
X89017381Y-76677860D01*
X89017381Y-76677860D02*
X89005476Y-76654050D01*
X89005476Y-76654050D02*
X88993572Y-76606431D01*
X88993572Y-76606431D02*
X88993572Y-76570717D01*
X88993572Y-76570717D02*
X89005476Y-76523098D01*
X89005476Y-76523098D02*
X89017381Y-76499289D01*
X89017381Y-76499289D02*
X89041191Y-76475479D01*
X89041191Y-76475479D02*
X89076905Y-76463574D01*
X89076905Y-76463574D02*
X89100714Y-76463574D01*
X89100714Y-76463574D02*
X89136429Y-76475479D01*
X89136429Y-76475479D02*
X89148333Y-76487384D01*
X89243572Y-76487384D02*
X89255476Y-76475479D01*
X89255476Y-76475479D02*
X89279286Y-76463574D01*
X89279286Y-76463574D02*
X89338810Y-76463574D01*
X89338810Y-76463574D02*
X89362619Y-76475479D01*
X89362619Y-76475479D02*
X89374524Y-76487384D01*
X89374524Y-76487384D02*
X89386429Y-76511193D01*
X89386429Y-76511193D02*
X89386429Y-76535003D01*
X89386429Y-76535003D02*
X89374524Y-76570717D01*
X89374524Y-76570717D02*
X89231667Y-76713574D01*
X89231667Y-76713574D02*
X89386429Y-76713574D01*
D10*
X96824819Y-107171428D02*
X96824819Y-107742856D01*
X96824819Y-107457142D02*
X95824819Y-107457142D01*
X95824819Y-107457142D02*
X95967676Y-107552380D01*
X95967676Y-107552380D02*
X96062914Y-107647618D01*
X96062914Y-107647618D02*
X96110533Y-107742856D01*
X95824819Y-106552380D02*
X95824819Y-106457142D01*
X95824819Y-106457142D02*
X95872438Y-106361904D01*
X95872438Y-106361904D02*
X95920057Y-106314285D01*
X95920057Y-106314285D02*
X96015295Y-106266666D01*
X96015295Y-106266666D02*
X96205771Y-106219047D01*
X96205771Y-106219047D02*
X96443866Y-106219047D01*
X96443866Y-106219047D02*
X96634342Y-106266666D01*
X96634342Y-106266666D02*
X96729580Y-106314285D01*
X96729580Y-106314285D02*
X96777200Y-106361904D01*
X96777200Y-106361904D02*
X96824819Y-106457142D01*
X96824819Y-106457142D02*
X96824819Y-106552380D01*
X96824819Y-106552380D02*
X96777200Y-106647618D01*
X96777200Y-106647618D02*
X96729580Y-106695237D01*
X96729580Y-106695237D02*
X96634342Y-106742856D01*
X96634342Y-106742856D02*
X96443866Y-106790475D01*
X96443866Y-106790475D02*
X96205771Y-106790475D01*
X96205771Y-106790475D02*
X96015295Y-106742856D01*
X96015295Y-106742856D02*
X95920057Y-106695237D01*
X95920057Y-106695237D02*
X95872438Y-106647618D01*
X95872438Y-106647618D02*
X95824819Y-106552380D01*
X96158152Y-105361904D02*
X96824819Y-105361904D01*
X96158152Y-105790475D02*
X96681961Y-105790475D01*
X96681961Y-105790475D02*
X96777200Y-105742856D01*
X96777200Y-105742856D02*
X96824819Y-105647618D01*
X96824819Y-105647618D02*
X96824819Y-105504761D01*
X96824819Y-105504761D02*
X96777200Y-105409523D01*
X96777200Y-105409523D02*
X96729580Y-105361904D01*
X96301009Y-104552380D02*
X96301009Y-104885713D01*
X96824819Y-104885713D02*
X95824819Y-104885713D01*
X95824819Y-104885713D02*
X95824819Y-104409523D01*
D12*
X97943832Y-106357142D02*
X97962880Y-106376190D01*
X97962880Y-106376190D02*
X97981927Y-106433332D01*
X97981927Y-106433332D02*
X97981927Y-106471428D01*
X97981927Y-106471428D02*
X97962880Y-106528571D01*
X97962880Y-106528571D02*
X97924784Y-106566666D01*
X97924784Y-106566666D02*
X97886689Y-106585713D01*
X97886689Y-106585713D02*
X97810499Y-106604761D01*
X97810499Y-106604761D02*
X97753356Y-106604761D01*
X97753356Y-106604761D02*
X97677165Y-106585713D01*
X97677165Y-106585713D02*
X97639070Y-106566666D01*
X97639070Y-106566666D02*
X97600975Y-106528571D01*
X97600975Y-106528571D02*
X97581927Y-106471428D01*
X97581927Y-106471428D02*
X97581927Y-106433332D01*
X97581927Y-106433332D02*
X97600975Y-106376190D01*
X97600975Y-106376190D02*
X97620022Y-106357142D01*
X97981927Y-105976190D02*
X97981927Y-106204761D01*
X97981927Y-106090475D02*
X97581927Y-106090475D01*
X97581927Y-106090475D02*
X97639070Y-106128571D01*
X97639070Y-106128571D02*
X97677165Y-106166666D01*
X97677165Y-106166666D02*
X97696213Y-106204761D01*
X97581927Y-105842857D02*
X97581927Y-105595238D01*
X97581927Y-105595238D02*
X97734308Y-105728571D01*
X97734308Y-105728571D02*
X97734308Y-105671428D01*
X97734308Y-105671428D02*
X97753356Y-105633333D01*
X97753356Y-105633333D02*
X97772403Y-105614285D01*
X97772403Y-105614285D02*
X97810499Y-105595238D01*
X97810499Y-105595238D02*
X97905737Y-105595238D01*
X97905737Y-105595238D02*
X97943832Y-105614285D01*
X97943832Y-105614285D02*
X97962880Y-105633333D01*
X97962880Y-105633333D02*
X97981927Y-105671428D01*
X97981927Y-105671428D02*
X97981927Y-105785714D01*
X97981927Y-105785714D02*
X97962880Y-105823809D01*
X97962880Y-105823809D02*
X97943832Y-105842857D01*
D10*
X97328571Y-103174819D02*
X96757143Y-103174819D01*
X97042857Y-103174819D02*
X97042857Y-102174819D01*
X97042857Y-102174819D02*
X96947619Y-102317676D01*
X96947619Y-102317676D02*
X96852381Y-102412914D01*
X96852381Y-102412914D02*
X96757143Y-102460533D01*
X97947619Y-102174819D02*
X98042857Y-102174819D01*
X98042857Y-102174819D02*
X98138095Y-102222438D01*
X98138095Y-102222438D02*
X98185714Y-102270057D01*
X98185714Y-102270057D02*
X98233333Y-102365295D01*
X98233333Y-102365295D02*
X98280952Y-102555771D01*
X98280952Y-102555771D02*
X98280952Y-102793866D01*
X98280952Y-102793866D02*
X98233333Y-102984342D01*
X98233333Y-102984342D02*
X98185714Y-103079580D01*
X98185714Y-103079580D02*
X98138095Y-103127200D01*
X98138095Y-103127200D02*
X98042857Y-103174819D01*
X98042857Y-103174819D02*
X97947619Y-103174819D01*
X97947619Y-103174819D02*
X97852381Y-103127200D01*
X97852381Y-103127200D02*
X97804762Y-103079580D01*
X97804762Y-103079580D02*
X97757143Y-102984342D01*
X97757143Y-102984342D02*
X97709524Y-102793866D01*
X97709524Y-102793866D02*
X97709524Y-102555771D01*
X97709524Y-102555771D02*
X97757143Y-102365295D01*
X97757143Y-102365295D02*
X97804762Y-102270057D01*
X97804762Y-102270057D02*
X97852381Y-102222438D01*
X97852381Y-102222438D02*
X97947619Y-102174819D01*
X98900000Y-102174819D02*
X98995238Y-102174819D01*
X98995238Y-102174819D02*
X99090476Y-102222438D01*
X99090476Y-102222438D02*
X99138095Y-102270057D01*
X99138095Y-102270057D02*
X99185714Y-102365295D01*
X99185714Y-102365295D02*
X99233333Y-102555771D01*
X99233333Y-102555771D02*
X99233333Y-102793866D01*
X99233333Y-102793866D02*
X99185714Y-102984342D01*
X99185714Y-102984342D02*
X99138095Y-103079580D01*
X99138095Y-103079580D02*
X99090476Y-103127200D01*
X99090476Y-103127200D02*
X98995238Y-103174819D01*
X98995238Y-103174819D02*
X98900000Y-103174819D01*
X98900000Y-103174819D02*
X98804762Y-103127200D01*
X98804762Y-103127200D02*
X98757143Y-103079580D01*
X98757143Y-103079580D02*
X98709524Y-102984342D01*
X98709524Y-102984342D02*
X98661905Y-102793866D01*
X98661905Y-102793866D02*
X98661905Y-102555771D01*
X98661905Y-102555771D02*
X98709524Y-102365295D01*
X98709524Y-102365295D02*
X98757143Y-102270057D01*
X98757143Y-102270057D02*
X98804762Y-102222438D01*
X98804762Y-102222438D02*
X98900000Y-102174819D01*
X99661905Y-103174819D02*
X99661905Y-102174819D01*
X99757143Y-102793866D02*
X100042857Y-103174819D01*
X100042857Y-102508152D02*
X99661905Y-102889104D01*
D11*
X98232857Y-101668200D02*
X98146190Y-101544391D01*
X98084285Y-101668200D02*
X98084285Y-101408200D01*
X98084285Y-101408200D02*
X98183333Y-101408200D01*
X98183333Y-101408200D02*
X98208095Y-101420581D01*
X98208095Y-101420581D02*
X98220476Y-101432962D01*
X98220476Y-101432962D02*
X98232857Y-101457724D01*
X98232857Y-101457724D02*
X98232857Y-101494867D01*
X98232857Y-101494867D02*
X98220476Y-101519629D01*
X98220476Y-101519629D02*
X98208095Y-101532010D01*
X98208095Y-101532010D02*
X98183333Y-101544391D01*
X98183333Y-101544391D02*
X98084285Y-101544391D01*
X98480476Y-101668200D02*
X98331904Y-101668200D01*
X98406190Y-101668200D02*
X98406190Y-101408200D01*
X98406190Y-101408200D02*
X98381428Y-101445343D01*
X98381428Y-101445343D02*
X98356666Y-101470105D01*
X98356666Y-101470105D02*
X98331904Y-101482486D01*
X98715714Y-101408200D02*
X98591904Y-101408200D01*
X98591904Y-101408200D02*
X98579523Y-101532010D01*
X98579523Y-101532010D02*
X98591904Y-101519629D01*
X98591904Y-101519629D02*
X98616666Y-101507248D01*
X98616666Y-101507248D02*
X98678571Y-101507248D01*
X98678571Y-101507248D02*
X98703333Y-101519629D01*
X98703333Y-101519629D02*
X98715714Y-101532010D01*
X98715714Y-101532010D02*
X98728095Y-101556772D01*
X98728095Y-101556772D02*
X98728095Y-101618677D01*
X98728095Y-101618677D02*
X98715714Y-101643439D01*
X98715714Y-101643439D02*
X98703333Y-101655820D01*
X98703333Y-101655820D02*
X98678571Y-101668200D01*
X98678571Y-101668200D02*
X98616666Y-101668200D01*
X98616666Y-101668200D02*
X98591904Y-101655820D01*
X98591904Y-101655820D02*
X98579523Y-101643439D01*
D10*
X88661904Y-106827080D02*
X88614285Y-106874700D01*
X88614285Y-106874700D02*
X88471428Y-106922319D01*
X88471428Y-106922319D02*
X88376190Y-106922319D01*
X88376190Y-106922319D02*
X88233333Y-106874700D01*
X88233333Y-106874700D02*
X88138095Y-106779461D01*
X88138095Y-106779461D02*
X88090476Y-106684223D01*
X88090476Y-106684223D02*
X88042857Y-106493747D01*
X88042857Y-106493747D02*
X88042857Y-106350890D01*
X88042857Y-106350890D02*
X88090476Y-106160414D01*
X88090476Y-106160414D02*
X88138095Y-106065176D01*
X88138095Y-106065176D02*
X88233333Y-105969938D01*
X88233333Y-105969938D02*
X88376190Y-105922319D01*
X88376190Y-105922319D02*
X88471428Y-105922319D01*
X88471428Y-105922319D02*
X88614285Y-105969938D01*
X88614285Y-105969938D02*
X88661904Y-106017557D01*
X89233333Y-106922319D02*
X89138095Y-106874700D01*
X89138095Y-106874700D02*
X89090476Y-106827080D01*
X89090476Y-106827080D02*
X89042857Y-106731842D01*
X89042857Y-106731842D02*
X89042857Y-106446128D01*
X89042857Y-106446128D02*
X89090476Y-106350890D01*
X89090476Y-106350890D02*
X89138095Y-106303271D01*
X89138095Y-106303271D02*
X89233333Y-106255652D01*
X89233333Y-106255652D02*
X89376190Y-106255652D01*
X89376190Y-106255652D02*
X89471428Y-106303271D01*
X89471428Y-106303271D02*
X89519047Y-106350890D01*
X89519047Y-106350890D02*
X89566666Y-106446128D01*
X89566666Y-106446128D02*
X89566666Y-106731842D01*
X89566666Y-106731842D02*
X89519047Y-106827080D01*
X89519047Y-106827080D02*
X89471428Y-106874700D01*
X89471428Y-106874700D02*
X89376190Y-106922319D01*
X89376190Y-106922319D02*
X89233333Y-106922319D01*
X89995238Y-106255652D02*
X89995238Y-106922319D01*
X89995238Y-106350890D02*
X90042857Y-106303271D01*
X90042857Y-106303271D02*
X90138095Y-106255652D01*
X90138095Y-106255652D02*
X90280952Y-106255652D01*
X90280952Y-106255652D02*
X90376190Y-106303271D01*
X90376190Y-106303271D02*
X90423809Y-106398509D01*
X90423809Y-106398509D02*
X90423809Y-106922319D01*
X90900000Y-106255652D02*
X90900000Y-106922319D01*
X90900000Y-106350890D02*
X90947619Y-106303271D01*
X90947619Y-106303271D02*
X91042857Y-106255652D01*
X91042857Y-106255652D02*
X91185714Y-106255652D01*
X91185714Y-106255652D02*
X91280952Y-106303271D01*
X91280952Y-106303271D02*
X91328571Y-106398509D01*
X91328571Y-106398509D02*
X91328571Y-106922319D01*
X91566667Y-107017557D02*
X92328571Y-107017557D01*
X92757143Y-105922319D02*
X92852381Y-105922319D01*
X92852381Y-105922319D02*
X92947619Y-105969938D01*
X92947619Y-105969938D02*
X92995238Y-106017557D01*
X92995238Y-106017557D02*
X93042857Y-106112795D01*
X93042857Y-106112795D02*
X93090476Y-106303271D01*
X93090476Y-106303271D02*
X93090476Y-106541366D01*
X93090476Y-106541366D02*
X93042857Y-106731842D01*
X93042857Y-106731842D02*
X92995238Y-106827080D01*
X92995238Y-106827080D02*
X92947619Y-106874700D01*
X92947619Y-106874700D02*
X92852381Y-106922319D01*
X92852381Y-106922319D02*
X92757143Y-106922319D01*
X92757143Y-106922319D02*
X92661905Y-106874700D01*
X92661905Y-106874700D02*
X92614286Y-106827080D01*
X92614286Y-106827080D02*
X92566667Y-106731842D01*
X92566667Y-106731842D02*
X92519048Y-106541366D01*
X92519048Y-106541366D02*
X92519048Y-106303271D01*
X92519048Y-106303271D02*
X92566667Y-106112795D01*
X92566667Y-106112795D02*
X92614286Y-106017557D01*
X92614286Y-106017557D02*
X92661905Y-105969938D01*
X92661905Y-105969938D02*
X92757143Y-105922319D01*
X94042857Y-106922319D02*
X93471429Y-106922319D01*
X93757143Y-106922319D02*
X93757143Y-105922319D01*
X93757143Y-105922319D02*
X93661905Y-106065176D01*
X93661905Y-106065176D02*
X93566667Y-106160414D01*
X93566667Y-106160414D02*
X93471429Y-106208033D01*
X94376191Y-106922319D02*
X94900000Y-106255652D01*
X94376191Y-106255652D02*
X94900000Y-106922319D01*
X95471429Y-105922319D02*
X95566667Y-105922319D01*
X95566667Y-105922319D02*
X95661905Y-105969938D01*
X95661905Y-105969938D02*
X95709524Y-106017557D01*
X95709524Y-106017557D02*
X95757143Y-106112795D01*
X95757143Y-106112795D02*
X95804762Y-106303271D01*
X95804762Y-106303271D02*
X95804762Y-106541366D01*
X95804762Y-106541366D02*
X95757143Y-106731842D01*
X95757143Y-106731842D02*
X95709524Y-106827080D01*
X95709524Y-106827080D02*
X95661905Y-106874700D01*
X95661905Y-106874700D02*
X95566667Y-106922319D01*
X95566667Y-106922319D02*
X95471429Y-106922319D01*
X95471429Y-106922319D02*
X95376191Y-106874700D01*
X95376191Y-106874700D02*
X95328572Y-106827080D01*
X95328572Y-106827080D02*
X95280953Y-106731842D01*
X95280953Y-106731842D02*
X95233334Y-106541366D01*
X95233334Y-106541366D02*
X95233334Y-106303271D01*
X95233334Y-106303271D02*
X95280953Y-106112795D01*
X95280953Y-106112795D02*
X95328572Y-106017557D01*
X95328572Y-106017557D02*
X95376191Y-105969938D01*
X95376191Y-105969938D02*
X95471429Y-105922319D01*
X96185715Y-106017557D02*
X96233334Y-105969938D01*
X96233334Y-105969938D02*
X96328572Y-105922319D01*
X96328572Y-105922319D02*
X96566667Y-105922319D01*
X96566667Y-105922319D02*
X96661905Y-105969938D01*
X96661905Y-105969938D02*
X96709524Y-106017557D01*
X96709524Y-106017557D02*
X96757143Y-106112795D01*
X96757143Y-106112795D02*
X96757143Y-106208033D01*
X96757143Y-106208033D02*
X96709524Y-106350890D01*
X96709524Y-106350890D02*
X96138096Y-106922319D01*
X96138096Y-106922319D02*
X96757143Y-106922319D01*
X92066666Y-111222319D02*
X92066666Y-111936604D01*
X92066666Y-111936604D02*
X92019047Y-112079461D01*
X92019047Y-112079461D02*
X91923809Y-112174700D01*
X91923809Y-112174700D02*
X91780952Y-112222319D01*
X91780952Y-112222319D02*
X91685714Y-112222319D01*
X92971428Y-111555652D02*
X92971428Y-112222319D01*
X92733333Y-111174700D02*
X92495238Y-111888985D01*
X92495238Y-111888985D02*
X93114285Y-111888985D01*
X112254819Y-117785714D02*
X111254819Y-117785714D01*
X111254819Y-117785714D02*
X111969104Y-117452381D01*
X111969104Y-117452381D02*
X111254819Y-117119048D01*
X111254819Y-117119048D02*
X112254819Y-117119048D01*
X112254819Y-116500000D02*
X112207200Y-116595238D01*
X112207200Y-116595238D02*
X112159580Y-116642857D01*
X112159580Y-116642857D02*
X112064342Y-116690476D01*
X112064342Y-116690476D02*
X111778628Y-116690476D01*
X111778628Y-116690476D02*
X111683390Y-116642857D01*
X111683390Y-116642857D02*
X111635771Y-116595238D01*
X111635771Y-116595238D02*
X111588152Y-116500000D01*
X111588152Y-116500000D02*
X111588152Y-116357143D01*
X111588152Y-116357143D02*
X111635771Y-116261905D01*
X111635771Y-116261905D02*
X111683390Y-116214286D01*
X111683390Y-116214286D02*
X111778628Y-116166667D01*
X111778628Y-116166667D02*
X112064342Y-116166667D01*
X112064342Y-116166667D02*
X112159580Y-116214286D01*
X112159580Y-116214286D02*
X112207200Y-116261905D01*
X112207200Y-116261905D02*
X112254819Y-116357143D01*
X112254819Y-116357143D02*
X112254819Y-116500000D01*
X111588152Y-115309524D02*
X112254819Y-115309524D01*
X111588152Y-115738095D02*
X112111961Y-115738095D01*
X112111961Y-115738095D02*
X112207200Y-115690476D01*
X112207200Y-115690476D02*
X112254819Y-115595238D01*
X112254819Y-115595238D02*
X112254819Y-115452381D01*
X112254819Y-115452381D02*
X112207200Y-115357143D01*
X112207200Y-115357143D02*
X112159580Y-115309524D01*
X111588152Y-114833333D02*
X112254819Y-114833333D01*
X111683390Y-114833333D02*
X111635771Y-114785714D01*
X111635771Y-114785714D02*
X111588152Y-114690476D01*
X111588152Y-114690476D02*
X111588152Y-114547619D01*
X111588152Y-114547619D02*
X111635771Y-114452381D01*
X111635771Y-114452381D02*
X111731009Y-114404762D01*
X111731009Y-114404762D02*
X112254819Y-114404762D01*
X111588152Y-114071428D02*
X111588152Y-113690476D01*
X111254819Y-113928571D02*
X112111961Y-113928571D01*
X112111961Y-113928571D02*
X112207200Y-113880952D01*
X112207200Y-113880952D02*
X112254819Y-113785714D01*
X112254819Y-113785714D02*
X112254819Y-113690476D01*
X112254819Y-113357142D02*
X111588152Y-113357142D01*
X111254819Y-113357142D02*
X111302438Y-113404761D01*
X111302438Y-113404761D02*
X111350057Y-113357142D01*
X111350057Y-113357142D02*
X111302438Y-113309523D01*
X111302438Y-113309523D02*
X111254819Y-113357142D01*
X111254819Y-113357142D02*
X111350057Y-113357142D01*
X111588152Y-112880952D02*
X112254819Y-112880952D01*
X111683390Y-112880952D02*
X111635771Y-112833333D01*
X111635771Y-112833333D02*
X111588152Y-112738095D01*
X111588152Y-112738095D02*
X111588152Y-112595238D01*
X111588152Y-112595238D02*
X111635771Y-112500000D01*
X111635771Y-112500000D02*
X111731009Y-112452381D01*
X111731009Y-112452381D02*
X112254819Y-112452381D01*
X111588152Y-111547619D02*
X112397676Y-111547619D01*
X112397676Y-111547619D02*
X112492914Y-111595238D01*
X112492914Y-111595238D02*
X112540533Y-111642857D01*
X112540533Y-111642857D02*
X112588152Y-111738095D01*
X112588152Y-111738095D02*
X112588152Y-111880952D01*
X112588152Y-111880952D02*
X112540533Y-111976190D01*
X112207200Y-111547619D02*
X112254819Y-111642857D01*
X112254819Y-111642857D02*
X112254819Y-111833333D01*
X112254819Y-111833333D02*
X112207200Y-111928571D01*
X112207200Y-111928571D02*
X112159580Y-111976190D01*
X112159580Y-111976190D02*
X112064342Y-112023809D01*
X112064342Y-112023809D02*
X111778628Y-112023809D01*
X111778628Y-112023809D02*
X111683390Y-111976190D01*
X111683390Y-111976190D02*
X111635771Y-111928571D01*
X111635771Y-111928571D02*
X111588152Y-111833333D01*
X111588152Y-111833333D02*
X111588152Y-111642857D01*
X111588152Y-111642857D02*
X111635771Y-111547619D01*
X112254819Y-111071428D02*
X111254819Y-111071428D01*
X111731009Y-111071428D02*
X111731009Y-110500000D01*
X112254819Y-110500000D02*
X111254819Y-110500000D01*
X112254819Y-109880952D02*
X112207200Y-109976190D01*
X112207200Y-109976190D02*
X112159580Y-110023809D01*
X112159580Y-110023809D02*
X112064342Y-110071428D01*
X112064342Y-110071428D02*
X111778628Y-110071428D01*
X111778628Y-110071428D02*
X111683390Y-110023809D01*
X111683390Y-110023809D02*
X111635771Y-109976190D01*
X111635771Y-109976190D02*
X111588152Y-109880952D01*
X111588152Y-109880952D02*
X111588152Y-109738095D01*
X111588152Y-109738095D02*
X111635771Y-109642857D01*
X111635771Y-109642857D02*
X111683390Y-109595238D01*
X111683390Y-109595238D02*
X111778628Y-109547619D01*
X111778628Y-109547619D02*
X112064342Y-109547619D01*
X112064342Y-109547619D02*
X112159580Y-109595238D01*
X112159580Y-109595238D02*
X112207200Y-109642857D01*
X112207200Y-109642857D02*
X112254819Y-109738095D01*
X112254819Y-109738095D02*
X112254819Y-109880952D01*
X112254819Y-108976190D02*
X112207200Y-109071428D01*
X112207200Y-109071428D02*
X112111961Y-109119047D01*
X112111961Y-109119047D02*
X111254819Y-109119047D01*
X112207200Y-108214285D02*
X112254819Y-108309523D01*
X112254819Y-108309523D02*
X112254819Y-108499999D01*
X112254819Y-108499999D02*
X112207200Y-108595237D01*
X112207200Y-108595237D02*
X112111961Y-108642856D01*
X112111961Y-108642856D02*
X111731009Y-108642856D01*
X111731009Y-108642856D02*
X111635771Y-108595237D01*
X111635771Y-108595237D02*
X111588152Y-108499999D01*
X111588152Y-108499999D02*
X111588152Y-108309523D01*
X111588152Y-108309523D02*
X111635771Y-108214285D01*
X111635771Y-108214285D02*
X111731009Y-108166666D01*
X111731009Y-108166666D02*
X111826247Y-108166666D01*
X111826247Y-108166666D02*
X111921485Y-108642856D01*
X115454819Y-113761904D02*
X114454819Y-113761904D01*
X114931009Y-113761904D02*
X114931009Y-113190476D01*
X115454819Y-113190476D02*
X114454819Y-113190476D01*
X114454819Y-112809523D02*
X114454819Y-112190476D01*
X114454819Y-112190476D02*
X114835771Y-112523809D01*
X114835771Y-112523809D02*
X114835771Y-112380952D01*
X114835771Y-112380952D02*
X114883390Y-112285714D01*
X114883390Y-112285714D02*
X114931009Y-112238095D01*
X114931009Y-112238095D02*
X115026247Y-112190476D01*
X115026247Y-112190476D02*
X115264342Y-112190476D01*
X115264342Y-112190476D02*
X115359580Y-112238095D01*
X115359580Y-112238095D02*
X115407200Y-112285714D01*
X115407200Y-112285714D02*
X115454819Y-112380952D01*
X115454819Y-112380952D02*
X115454819Y-112666666D01*
X115454819Y-112666666D02*
X115407200Y-112761904D01*
X115407200Y-112761904D02*
X115359580Y-112809523D01*
X95609523Y-116559819D02*
X95609523Y-117369342D01*
X95609523Y-117369342D02*
X95657142Y-117464580D01*
X95657142Y-117464580D02*
X95704761Y-117512200D01*
X95704761Y-117512200D02*
X95799999Y-117559819D01*
X95799999Y-117559819D02*
X95990475Y-117559819D01*
X95990475Y-117559819D02*
X96085713Y-117512200D01*
X96085713Y-117512200D02*
X96133332Y-117464580D01*
X96133332Y-117464580D02*
X96180951Y-117369342D01*
X96180951Y-117369342D02*
X96180951Y-116559819D01*
X96609523Y-117512200D02*
X96752380Y-117559819D01*
X96752380Y-117559819D02*
X96990475Y-117559819D01*
X96990475Y-117559819D02*
X97085713Y-117512200D01*
X97085713Y-117512200D02*
X97133332Y-117464580D01*
X97133332Y-117464580D02*
X97180951Y-117369342D01*
X97180951Y-117369342D02*
X97180951Y-117274104D01*
X97180951Y-117274104D02*
X97133332Y-117178866D01*
X97133332Y-117178866D02*
X97085713Y-117131247D01*
X97085713Y-117131247D02*
X96990475Y-117083628D01*
X96990475Y-117083628D02*
X96799999Y-117036009D01*
X96799999Y-117036009D02*
X96704761Y-116988390D01*
X96704761Y-116988390D02*
X96657142Y-116940771D01*
X96657142Y-116940771D02*
X96609523Y-116845533D01*
X96609523Y-116845533D02*
X96609523Y-116750295D01*
X96609523Y-116750295D02*
X96657142Y-116655057D01*
X96657142Y-116655057D02*
X96704761Y-116607438D01*
X96704761Y-116607438D02*
X96799999Y-116559819D01*
X96799999Y-116559819D02*
X97038094Y-116559819D01*
X97038094Y-116559819D02*
X97180951Y-116607438D01*
X97942856Y-117036009D02*
X98085713Y-117083628D01*
X98085713Y-117083628D02*
X98133332Y-117131247D01*
X98133332Y-117131247D02*
X98180951Y-117226485D01*
X98180951Y-117226485D02*
X98180951Y-117369342D01*
X98180951Y-117369342D02*
X98133332Y-117464580D01*
X98133332Y-117464580D02*
X98085713Y-117512200D01*
X98085713Y-117512200D02*
X97990475Y-117559819D01*
X97990475Y-117559819D02*
X97609523Y-117559819D01*
X97609523Y-117559819D02*
X97609523Y-116559819D01*
X97609523Y-116559819D02*
X97942856Y-116559819D01*
X97942856Y-116559819D02*
X98038094Y-116607438D01*
X98038094Y-116607438D02*
X98085713Y-116655057D01*
X98085713Y-116655057D02*
X98133332Y-116750295D01*
X98133332Y-116750295D02*
X98133332Y-116845533D01*
X98133332Y-116845533D02*
X98085713Y-116940771D01*
X98085713Y-116940771D02*
X98038094Y-116988390D01*
X98038094Y-116988390D02*
X97942856Y-117036009D01*
X97942856Y-117036009D02*
X97609523Y-117036009D01*
X98371428Y-117655057D02*
X99133332Y-117655057D01*
X99942856Y-117464580D02*
X99895237Y-117512200D01*
X99895237Y-117512200D02*
X99752380Y-117559819D01*
X99752380Y-117559819D02*
X99657142Y-117559819D01*
X99657142Y-117559819D02*
X99514285Y-117512200D01*
X99514285Y-117512200D02*
X99419047Y-117416961D01*
X99419047Y-117416961D02*
X99371428Y-117321723D01*
X99371428Y-117321723D02*
X99323809Y-117131247D01*
X99323809Y-117131247D02*
X99323809Y-116988390D01*
X99323809Y-116988390D02*
X99371428Y-116797914D01*
X99371428Y-116797914D02*
X99419047Y-116702676D01*
X99419047Y-116702676D02*
X99514285Y-116607438D01*
X99514285Y-116607438D02*
X99657142Y-116559819D01*
X99657142Y-116559819D02*
X99752380Y-116559819D01*
X99752380Y-116559819D02*
X99895237Y-116607438D01*
X99895237Y-116607438D02*
X99942856Y-116655057D01*
X100133333Y-117655057D02*
X100895237Y-117655057D01*
X101704761Y-117559819D02*
X101371428Y-117083628D01*
X101133333Y-117559819D02*
X101133333Y-116559819D01*
X101133333Y-116559819D02*
X101514285Y-116559819D01*
X101514285Y-116559819D02*
X101609523Y-116607438D01*
X101609523Y-116607438D02*
X101657142Y-116655057D01*
X101657142Y-116655057D02*
X101704761Y-116750295D01*
X101704761Y-116750295D02*
X101704761Y-116893152D01*
X101704761Y-116893152D02*
X101657142Y-116988390D01*
X101657142Y-116988390D02*
X101609523Y-117036009D01*
X101609523Y-117036009D02*
X101514285Y-117083628D01*
X101514285Y-117083628D02*
X101133333Y-117083628D01*
X102514285Y-117512200D02*
X102419047Y-117559819D01*
X102419047Y-117559819D02*
X102228571Y-117559819D01*
X102228571Y-117559819D02*
X102133333Y-117512200D01*
X102133333Y-117512200D02*
X102085714Y-117416961D01*
X102085714Y-117416961D02*
X102085714Y-117036009D01*
X102085714Y-117036009D02*
X102133333Y-116940771D01*
X102133333Y-116940771D02*
X102228571Y-116893152D01*
X102228571Y-116893152D02*
X102419047Y-116893152D01*
X102419047Y-116893152D02*
X102514285Y-116940771D01*
X102514285Y-116940771D02*
X102561904Y-117036009D01*
X102561904Y-117036009D02*
X102561904Y-117131247D01*
X102561904Y-117131247D02*
X102085714Y-117226485D01*
X103419047Y-117512200D02*
X103323809Y-117559819D01*
X103323809Y-117559819D02*
X103133333Y-117559819D01*
X103133333Y-117559819D02*
X103038095Y-117512200D01*
X103038095Y-117512200D02*
X102990476Y-117464580D01*
X102990476Y-117464580D02*
X102942857Y-117369342D01*
X102942857Y-117369342D02*
X102942857Y-117083628D01*
X102942857Y-117083628D02*
X102990476Y-116988390D01*
X102990476Y-116988390D02*
X103038095Y-116940771D01*
X103038095Y-116940771D02*
X103133333Y-116893152D01*
X103133333Y-116893152D02*
X103323809Y-116893152D01*
X103323809Y-116893152D02*
X103419047Y-116940771D01*
X104228571Y-117512200D02*
X104133333Y-117559819D01*
X104133333Y-117559819D02*
X103942857Y-117559819D01*
X103942857Y-117559819D02*
X103847619Y-117512200D01*
X103847619Y-117512200D02*
X103800000Y-117416961D01*
X103800000Y-117416961D02*
X103800000Y-117036009D01*
X103800000Y-117036009D02*
X103847619Y-116940771D01*
X103847619Y-116940771D02*
X103942857Y-116893152D01*
X103942857Y-116893152D02*
X104133333Y-116893152D01*
X104133333Y-116893152D02*
X104228571Y-116940771D01*
X104228571Y-116940771D02*
X104276190Y-117036009D01*
X104276190Y-117036009D02*
X104276190Y-117131247D01*
X104276190Y-117131247D02*
X103800000Y-117226485D01*
X104704762Y-116893152D02*
X104704762Y-117893152D01*
X104704762Y-116940771D02*
X104800000Y-116893152D01*
X104800000Y-116893152D02*
X104990476Y-116893152D01*
X104990476Y-116893152D02*
X105085714Y-116940771D01*
X105085714Y-116940771D02*
X105133333Y-116988390D01*
X105133333Y-116988390D02*
X105180952Y-117083628D01*
X105180952Y-117083628D02*
X105180952Y-117369342D01*
X105180952Y-117369342D02*
X105133333Y-117464580D01*
X105133333Y-117464580D02*
X105085714Y-117512200D01*
X105085714Y-117512200D02*
X104990476Y-117559819D01*
X104990476Y-117559819D02*
X104800000Y-117559819D01*
X104800000Y-117559819D02*
X104704762Y-117512200D01*
X105466667Y-116893152D02*
X105847619Y-116893152D01*
X105609524Y-116559819D02*
X105609524Y-117416961D01*
X105609524Y-117416961D02*
X105657143Y-117512200D01*
X105657143Y-117512200D02*
X105752381Y-117559819D01*
X105752381Y-117559819D02*
X105847619Y-117559819D01*
X106609524Y-117559819D02*
X106609524Y-117036009D01*
X106609524Y-117036009D02*
X106561905Y-116940771D01*
X106561905Y-116940771D02*
X106466667Y-116893152D01*
X106466667Y-116893152D02*
X106276191Y-116893152D01*
X106276191Y-116893152D02*
X106180953Y-116940771D01*
X106609524Y-117512200D02*
X106514286Y-117559819D01*
X106514286Y-117559819D02*
X106276191Y-117559819D01*
X106276191Y-117559819D02*
X106180953Y-117512200D01*
X106180953Y-117512200D02*
X106133334Y-117416961D01*
X106133334Y-117416961D02*
X106133334Y-117321723D01*
X106133334Y-117321723D02*
X106180953Y-117226485D01*
X106180953Y-117226485D02*
X106276191Y-117178866D01*
X106276191Y-117178866D02*
X106514286Y-117178866D01*
X106514286Y-117178866D02*
X106609524Y-117131247D01*
X107514286Y-117512200D02*
X107419048Y-117559819D01*
X107419048Y-117559819D02*
X107228572Y-117559819D01*
X107228572Y-117559819D02*
X107133334Y-117512200D01*
X107133334Y-117512200D02*
X107085715Y-117464580D01*
X107085715Y-117464580D02*
X107038096Y-117369342D01*
X107038096Y-117369342D02*
X107038096Y-117083628D01*
X107038096Y-117083628D02*
X107085715Y-116988390D01*
X107085715Y-116988390D02*
X107133334Y-116940771D01*
X107133334Y-116940771D02*
X107228572Y-116893152D01*
X107228572Y-116893152D02*
X107419048Y-116893152D01*
X107419048Y-116893152D02*
X107514286Y-116940771D01*
X108085715Y-117559819D02*
X107990477Y-117512200D01*
X107990477Y-117512200D02*
X107942858Y-117416961D01*
X107942858Y-117416961D02*
X107942858Y-116559819D01*
X108847620Y-117512200D02*
X108752382Y-117559819D01*
X108752382Y-117559819D02*
X108561906Y-117559819D01*
X108561906Y-117559819D02*
X108466668Y-117512200D01*
X108466668Y-117512200D02*
X108419049Y-117416961D01*
X108419049Y-117416961D02*
X108419049Y-117036009D01*
X108419049Y-117036009D02*
X108466668Y-116940771D01*
X108466668Y-116940771D02*
X108561906Y-116893152D01*
X108561906Y-116893152D02*
X108752382Y-116893152D01*
X108752382Y-116893152D02*
X108847620Y-116940771D01*
X108847620Y-116940771D02*
X108895239Y-117036009D01*
X108895239Y-117036009D02*
X108895239Y-117131247D01*
X108895239Y-117131247D02*
X108419049Y-117226485D01*
X109085716Y-117655057D02*
X109847620Y-117655057D01*
X110085716Y-116559819D02*
X110085716Y-117369342D01*
X110085716Y-117369342D02*
X110133335Y-117464580D01*
X110133335Y-117464580D02*
X110180954Y-117512200D01*
X110180954Y-117512200D02*
X110276192Y-117559819D01*
X110276192Y-117559819D02*
X110466668Y-117559819D01*
X110466668Y-117559819D02*
X110561906Y-117512200D01*
X110561906Y-117512200D02*
X110609525Y-117464580D01*
X110609525Y-117464580D02*
X110657144Y-117369342D01*
X110657144Y-117369342D02*
X110657144Y-116559819D01*
X111085716Y-117512200D02*
X111228573Y-117559819D01*
X111228573Y-117559819D02*
X111466668Y-117559819D01*
X111466668Y-117559819D02*
X111561906Y-117512200D01*
X111561906Y-117512200D02*
X111609525Y-117464580D01*
X111609525Y-117464580D02*
X111657144Y-117369342D01*
X111657144Y-117369342D02*
X111657144Y-117274104D01*
X111657144Y-117274104D02*
X111609525Y-117178866D01*
X111609525Y-117178866D02*
X111561906Y-117131247D01*
X111561906Y-117131247D02*
X111466668Y-117083628D01*
X111466668Y-117083628D02*
X111276192Y-117036009D01*
X111276192Y-117036009D02*
X111180954Y-116988390D01*
X111180954Y-116988390D02*
X111133335Y-116940771D01*
X111133335Y-116940771D02*
X111085716Y-116845533D01*
X111085716Y-116845533D02*
X111085716Y-116750295D01*
X111085716Y-116750295D02*
X111133335Y-116655057D01*
X111133335Y-116655057D02*
X111180954Y-116607438D01*
X111180954Y-116607438D02*
X111276192Y-116559819D01*
X111276192Y-116559819D02*
X111514287Y-116559819D01*
X111514287Y-116559819D02*
X111657144Y-116607438D01*
X112419049Y-117036009D02*
X112561906Y-117083628D01*
X112561906Y-117083628D02*
X112609525Y-117131247D01*
X112609525Y-117131247D02*
X112657144Y-117226485D01*
X112657144Y-117226485D02*
X112657144Y-117369342D01*
X112657144Y-117369342D02*
X112609525Y-117464580D01*
X112609525Y-117464580D02*
X112561906Y-117512200D01*
X112561906Y-117512200D02*
X112466668Y-117559819D01*
X112466668Y-117559819D02*
X112085716Y-117559819D01*
X112085716Y-117559819D02*
X112085716Y-116559819D01*
X112085716Y-116559819D02*
X112419049Y-116559819D01*
X112419049Y-116559819D02*
X112514287Y-116607438D01*
X112514287Y-116607438D02*
X112561906Y-116655057D01*
X112561906Y-116655057D02*
X112609525Y-116750295D01*
X112609525Y-116750295D02*
X112609525Y-116845533D01*
X112609525Y-116845533D02*
X112561906Y-116940771D01*
X112561906Y-116940771D02*
X112514287Y-116988390D01*
X112514287Y-116988390D02*
X112419049Y-117036009D01*
X112419049Y-117036009D02*
X112085716Y-117036009D01*
X113038097Y-116655057D02*
X113085716Y-116607438D01*
X113085716Y-116607438D02*
X113180954Y-116559819D01*
X113180954Y-116559819D02*
X113419049Y-116559819D01*
X113419049Y-116559819D02*
X113514287Y-116607438D01*
X113514287Y-116607438D02*
X113561906Y-116655057D01*
X113561906Y-116655057D02*
X113609525Y-116750295D01*
X113609525Y-116750295D02*
X113609525Y-116845533D01*
X113609525Y-116845533D02*
X113561906Y-116988390D01*
X113561906Y-116988390D02*
X112990478Y-117559819D01*
X112990478Y-117559819D02*
X113609525Y-117559819D01*
X114038097Y-117464580D02*
X114085716Y-117512200D01*
X114085716Y-117512200D02*
X114038097Y-117559819D01*
X114038097Y-117559819D02*
X113990478Y-117512200D01*
X113990478Y-117512200D02*
X114038097Y-117464580D01*
X114038097Y-117464580D02*
X114038097Y-117559819D01*
X114704763Y-116559819D02*
X114800001Y-116559819D01*
X114800001Y-116559819D02*
X114895239Y-116607438D01*
X114895239Y-116607438D02*
X114942858Y-116655057D01*
X114942858Y-116655057D02*
X114990477Y-116750295D01*
X114990477Y-116750295D02*
X115038096Y-116940771D01*
X115038096Y-116940771D02*
X115038096Y-117178866D01*
X115038096Y-117178866D02*
X114990477Y-117369342D01*
X114990477Y-117369342D02*
X114942858Y-117464580D01*
X114942858Y-117464580D02*
X114895239Y-117512200D01*
X114895239Y-117512200D02*
X114800001Y-117559819D01*
X114800001Y-117559819D02*
X114704763Y-117559819D01*
X114704763Y-117559819D02*
X114609525Y-117512200D01*
X114609525Y-117512200D02*
X114561906Y-117464580D01*
X114561906Y-117464580D02*
X114514287Y-117369342D01*
X114514287Y-117369342D02*
X114466668Y-117178866D01*
X114466668Y-117178866D02*
X114466668Y-116940771D01*
X114466668Y-116940771D02*
X114514287Y-116750295D01*
X114514287Y-116750295D02*
X114561906Y-116655057D01*
X114561906Y-116655057D02*
X114609525Y-116607438D01*
X114609525Y-116607438D02*
X114704763Y-116559819D01*
X104966666Y-111124819D02*
X104966666Y-111839104D01*
X104966666Y-111839104D02*
X104919047Y-111981961D01*
X104919047Y-111981961D02*
X104823809Y-112077200D01*
X104823809Y-112077200D02*
X104680952Y-112124819D01*
X104680952Y-112124819D02*
X104585714Y-112124819D01*
X105966666Y-112124819D02*
X105395238Y-112124819D01*
X105680952Y-112124819D02*
X105680952Y-111124819D01*
X105680952Y-111124819D02*
X105585714Y-111267676D01*
X105585714Y-111267676D02*
X105490476Y-111362914D01*
X105490476Y-111362914D02*
X105395238Y-111410533D01*
X98124819Y-114055357D02*
X97648628Y-114388690D01*
X98124819Y-114626785D02*
X97124819Y-114626785D01*
X97124819Y-114626785D02*
X97124819Y-114245833D01*
X97124819Y-114245833D02*
X97172438Y-114150595D01*
X97172438Y-114150595D02*
X97220057Y-114102976D01*
X97220057Y-114102976D02*
X97315295Y-114055357D01*
X97315295Y-114055357D02*
X97458152Y-114055357D01*
X97458152Y-114055357D02*
X97553390Y-114102976D01*
X97553390Y-114102976D02*
X97601009Y-114150595D01*
X97601009Y-114150595D02*
X97648628Y-114245833D01*
X97648628Y-114245833D02*
X97648628Y-114626785D01*
X97601009Y-113626785D02*
X97601009Y-113293452D01*
X98124819Y-113150595D02*
X98124819Y-113626785D01*
X98124819Y-113626785D02*
X97124819Y-113626785D01*
X97124819Y-113626785D02*
X97124819Y-113150595D01*
X98124819Y-112722023D02*
X97124819Y-112722023D01*
X97124819Y-112722023D02*
X97124819Y-112483928D01*
X97124819Y-112483928D02*
X97172438Y-112341071D01*
X97172438Y-112341071D02*
X97267676Y-112245833D01*
X97267676Y-112245833D02*
X97362914Y-112198214D01*
X97362914Y-112198214D02*
X97553390Y-112150595D01*
X97553390Y-112150595D02*
X97696247Y-112150595D01*
X97696247Y-112150595D02*
X97886723Y-112198214D01*
X97886723Y-112198214D02*
X97981961Y-112245833D01*
X97981961Y-112245833D02*
X98077200Y-112341071D01*
X98077200Y-112341071D02*
X98124819Y-112483928D01*
X98124819Y-112483928D02*
X98124819Y-112722023D01*
D12*
X99281927Y-113707737D02*
X98881927Y-113707737D01*
X98881927Y-113707737D02*
X98881927Y-113612499D01*
X98881927Y-113612499D02*
X98900975Y-113555356D01*
X98900975Y-113555356D02*
X98939070Y-113517261D01*
X98939070Y-113517261D02*
X98977165Y-113498214D01*
X98977165Y-113498214D02*
X99053356Y-113479166D01*
X99053356Y-113479166D02*
X99110499Y-113479166D01*
X99110499Y-113479166D02*
X99186689Y-113498214D01*
X99186689Y-113498214D02*
X99224784Y-113517261D01*
X99224784Y-113517261D02*
X99262880Y-113555356D01*
X99262880Y-113555356D02*
X99281927Y-113612499D01*
X99281927Y-113612499D02*
X99281927Y-113707737D01*
X99281927Y-113098214D02*
X99281927Y-113326785D01*
X99281927Y-113212499D02*
X98881927Y-113212499D01*
X98881927Y-113212499D02*
X98939070Y-113250595D01*
X98939070Y-113250595D02*
X98977165Y-113288690D01*
X98977165Y-113288690D02*
X98996213Y-113326785D01*
D10*
X85947619Y-96319104D02*
X86423809Y-96319104D01*
X85852381Y-96604819D02*
X86185714Y-95604819D01*
X86185714Y-95604819D02*
X86519047Y-96604819D01*
X86852381Y-96604819D02*
X86852381Y-95604819D01*
X86852381Y-95604819D02*
X87233333Y-95604819D01*
X87233333Y-95604819D02*
X87328571Y-95652438D01*
X87328571Y-95652438D02*
X87376190Y-95700057D01*
X87376190Y-95700057D02*
X87423809Y-95795295D01*
X87423809Y-95795295D02*
X87423809Y-95938152D01*
X87423809Y-95938152D02*
X87376190Y-96033390D01*
X87376190Y-96033390D02*
X87328571Y-96081009D01*
X87328571Y-96081009D02*
X87233333Y-96128628D01*
X87233333Y-96128628D02*
X86852381Y-96128628D01*
X87804762Y-95700057D02*
X87852381Y-95652438D01*
X87852381Y-95652438D02*
X87947619Y-95604819D01*
X87947619Y-95604819D02*
X88185714Y-95604819D01*
X88185714Y-95604819D02*
X88280952Y-95652438D01*
X88280952Y-95652438D02*
X88328571Y-95700057D01*
X88328571Y-95700057D02*
X88376190Y-95795295D01*
X88376190Y-95795295D02*
X88376190Y-95890533D01*
X88376190Y-95890533D02*
X88328571Y-96033390D01*
X88328571Y-96033390D02*
X87757143Y-96604819D01*
X87757143Y-96604819D02*
X88376190Y-96604819D01*
X89328571Y-96604819D02*
X88757143Y-96604819D01*
X89042857Y-96604819D02*
X89042857Y-95604819D01*
X89042857Y-95604819D02*
X88947619Y-95747676D01*
X88947619Y-95747676D02*
X88852381Y-95842914D01*
X88852381Y-95842914D02*
X88757143Y-95890533D01*
X89709524Y-95700057D02*
X89757143Y-95652438D01*
X89757143Y-95652438D02*
X89852381Y-95604819D01*
X89852381Y-95604819D02*
X90090476Y-95604819D01*
X90090476Y-95604819D02*
X90185714Y-95652438D01*
X90185714Y-95652438D02*
X90233333Y-95700057D01*
X90233333Y-95700057D02*
X90280952Y-95795295D01*
X90280952Y-95795295D02*
X90280952Y-95890533D01*
X90280952Y-95890533D02*
X90233333Y-96033390D01*
X90233333Y-96033390D02*
X89661905Y-96604819D01*
X89661905Y-96604819D02*
X90280952Y-96604819D01*
X90614286Y-95604819D02*
X91280952Y-95604819D01*
X91280952Y-95604819D02*
X90852381Y-96604819D01*
X91661905Y-96604819D02*
X91661905Y-95604819D01*
X92233333Y-96604819D02*
X91804762Y-96033390D01*
X92233333Y-95604819D02*
X91661905Y-96176247D01*
X92661905Y-96223866D02*
X93423810Y-96223866D01*
X93804762Y-95604819D02*
X94423809Y-95604819D01*
X94423809Y-95604819D02*
X94090476Y-95985771D01*
X94090476Y-95985771D02*
X94233333Y-95985771D01*
X94233333Y-95985771D02*
X94328571Y-96033390D01*
X94328571Y-96033390D02*
X94376190Y-96081009D01*
X94376190Y-96081009D02*
X94423809Y-96176247D01*
X94423809Y-96176247D02*
X94423809Y-96414342D01*
X94423809Y-96414342D02*
X94376190Y-96509580D01*
X94376190Y-96509580D02*
X94328571Y-96557200D01*
X94328571Y-96557200D02*
X94233333Y-96604819D01*
X94233333Y-96604819D02*
X93947619Y-96604819D01*
X93947619Y-96604819D02*
X93852381Y-96557200D01*
X93852381Y-96557200D02*
X93804762Y-96509580D01*
X94852381Y-96509580D02*
X94900000Y-96557200D01*
X94900000Y-96557200D02*
X94852381Y-96604819D01*
X94852381Y-96604819D02*
X94804762Y-96557200D01*
X94804762Y-96557200D02*
X94852381Y-96509580D01*
X94852381Y-96509580D02*
X94852381Y-96604819D01*
X95233333Y-95604819D02*
X95852380Y-95604819D01*
X95852380Y-95604819D02*
X95519047Y-95985771D01*
X95519047Y-95985771D02*
X95661904Y-95985771D01*
X95661904Y-95985771D02*
X95757142Y-96033390D01*
X95757142Y-96033390D02*
X95804761Y-96081009D01*
X95804761Y-96081009D02*
X95852380Y-96176247D01*
X95852380Y-96176247D02*
X95852380Y-96414342D01*
X95852380Y-96414342D02*
X95804761Y-96509580D01*
X95804761Y-96509580D02*
X95757142Y-96557200D01*
X95757142Y-96557200D02*
X95661904Y-96604819D01*
X95661904Y-96604819D02*
X95376190Y-96604819D01*
X95376190Y-96604819D02*
X95280952Y-96557200D01*
X95280952Y-96557200D02*
X95233333Y-96509580D01*
D12*
X90595238Y-98331927D02*
X90595238Y-98655737D01*
X90595238Y-98655737D02*
X90614285Y-98693832D01*
X90614285Y-98693832D02*
X90633333Y-98712880D01*
X90633333Y-98712880D02*
X90671428Y-98731927D01*
X90671428Y-98731927D02*
X90747619Y-98731927D01*
X90747619Y-98731927D02*
X90785714Y-98712880D01*
X90785714Y-98712880D02*
X90804761Y-98693832D01*
X90804761Y-98693832D02*
X90823809Y-98655737D01*
X90823809Y-98655737D02*
X90823809Y-98331927D01*
X91204762Y-98331927D02*
X91014286Y-98331927D01*
X91014286Y-98331927D02*
X90995238Y-98522403D01*
X90995238Y-98522403D02*
X91014286Y-98503356D01*
X91014286Y-98503356D02*
X91052381Y-98484308D01*
X91052381Y-98484308D02*
X91147619Y-98484308D01*
X91147619Y-98484308D02*
X91185714Y-98503356D01*
X91185714Y-98503356D02*
X91204762Y-98522403D01*
X91204762Y-98522403D02*
X91223809Y-98560499D01*
X91223809Y-98560499D02*
X91223809Y-98655737D01*
X91223809Y-98655737D02*
X91204762Y-98693832D01*
X91204762Y-98693832D02*
X91185714Y-98712880D01*
X91185714Y-98712880D02*
X91147619Y-98731927D01*
X91147619Y-98731927D02*
X91052381Y-98731927D01*
X91052381Y-98731927D02*
X91014286Y-98712880D01*
X91014286Y-98712880D02*
X90995238Y-98693832D01*
D10*
X96554819Y-102671428D02*
X95554819Y-102671428D01*
X95554819Y-102671428D02*
X96269104Y-102338095D01*
X96269104Y-102338095D02*
X95554819Y-102004762D01*
X95554819Y-102004762D02*
X96554819Y-102004762D01*
X96031009Y-101195238D02*
X96078628Y-101052381D01*
X96078628Y-101052381D02*
X96126247Y-101004762D01*
X96126247Y-101004762D02*
X96221485Y-100957143D01*
X96221485Y-100957143D02*
X96364342Y-100957143D01*
X96364342Y-100957143D02*
X96459580Y-101004762D01*
X96459580Y-101004762D02*
X96507200Y-101052381D01*
X96507200Y-101052381D02*
X96554819Y-101147619D01*
X96554819Y-101147619D02*
X96554819Y-101528571D01*
X96554819Y-101528571D02*
X95554819Y-101528571D01*
X95554819Y-101528571D02*
X95554819Y-101195238D01*
X95554819Y-101195238D02*
X95602438Y-101100000D01*
X95602438Y-101100000D02*
X95650057Y-101052381D01*
X95650057Y-101052381D02*
X95745295Y-101004762D01*
X95745295Y-101004762D02*
X95840533Y-101004762D01*
X95840533Y-101004762D02*
X95935771Y-101052381D01*
X95935771Y-101052381D02*
X95983390Y-101100000D01*
X95983390Y-101100000D02*
X96031009Y-101195238D01*
X96031009Y-101195238D02*
X96031009Y-101528571D01*
X96554819Y-99957143D02*
X96078628Y-100290476D01*
X96554819Y-100528571D02*
X95554819Y-100528571D01*
X95554819Y-100528571D02*
X95554819Y-100147619D01*
X95554819Y-100147619D02*
X95602438Y-100052381D01*
X95602438Y-100052381D02*
X95650057Y-100004762D01*
X95650057Y-100004762D02*
X95745295Y-99957143D01*
X95745295Y-99957143D02*
X95888152Y-99957143D01*
X95888152Y-99957143D02*
X95983390Y-100004762D01*
X95983390Y-100004762D02*
X96031009Y-100052381D01*
X96031009Y-100052381D02*
X96078628Y-100147619D01*
X96078628Y-100147619D02*
X96078628Y-100528571D01*
X96554819Y-99004762D02*
X96554819Y-99576190D01*
X96554819Y-99290476D02*
X95554819Y-99290476D01*
X95554819Y-99290476D02*
X95697676Y-99385714D01*
X95697676Y-99385714D02*
X95792914Y-99480952D01*
X95792914Y-99480952D02*
X95840533Y-99576190D01*
X95650057Y-98623809D02*
X95602438Y-98576190D01*
X95602438Y-98576190D02*
X95554819Y-98480952D01*
X95554819Y-98480952D02*
X95554819Y-98242857D01*
X95554819Y-98242857D02*
X95602438Y-98147619D01*
X95602438Y-98147619D02*
X95650057Y-98100000D01*
X95650057Y-98100000D02*
X95745295Y-98052381D01*
X95745295Y-98052381D02*
X95840533Y-98052381D01*
X95840533Y-98052381D02*
X95983390Y-98100000D01*
X95983390Y-98100000D02*
X96554819Y-98671428D01*
X96554819Y-98671428D02*
X96554819Y-98052381D01*
X95554819Y-97433333D02*
X95554819Y-97338095D01*
X95554819Y-97338095D02*
X95602438Y-97242857D01*
X95602438Y-97242857D02*
X95650057Y-97195238D01*
X95650057Y-97195238D02*
X95745295Y-97147619D01*
X95745295Y-97147619D02*
X95935771Y-97100000D01*
X95935771Y-97100000D02*
X96173866Y-97100000D01*
X96173866Y-97100000D02*
X96364342Y-97147619D01*
X96364342Y-97147619D02*
X96459580Y-97195238D01*
X96459580Y-97195238D02*
X96507200Y-97242857D01*
X96507200Y-97242857D02*
X96554819Y-97338095D01*
X96554819Y-97338095D02*
X96554819Y-97433333D01*
X96554819Y-97433333D02*
X96507200Y-97528571D01*
X96507200Y-97528571D02*
X96459580Y-97576190D01*
X96459580Y-97576190D02*
X96364342Y-97623809D01*
X96364342Y-97623809D02*
X96173866Y-97671428D01*
X96173866Y-97671428D02*
X95935771Y-97671428D01*
X95935771Y-97671428D02*
X95745295Y-97623809D01*
X95745295Y-97623809D02*
X95650057Y-97576190D01*
X95650057Y-97576190D02*
X95602438Y-97528571D01*
X95602438Y-97528571D02*
X95554819Y-97433333D01*
X96554819Y-96195238D02*
X96554819Y-96671428D01*
X96554819Y-96671428D02*
X95554819Y-96671428D01*
X96507200Y-95909523D02*
X96554819Y-95766666D01*
X96554819Y-95766666D02*
X96554819Y-95528571D01*
X96554819Y-95528571D02*
X96507200Y-95433333D01*
X96507200Y-95433333D02*
X96459580Y-95385714D01*
X96459580Y-95385714D02*
X96364342Y-95338095D01*
X96364342Y-95338095D02*
X96269104Y-95338095D01*
X96269104Y-95338095D02*
X96173866Y-95385714D01*
X96173866Y-95385714D02*
X96126247Y-95433333D01*
X96126247Y-95433333D02*
X96078628Y-95528571D01*
X96078628Y-95528571D02*
X96031009Y-95719047D01*
X96031009Y-95719047D02*
X95983390Y-95814285D01*
X95983390Y-95814285D02*
X95935771Y-95861904D01*
X95935771Y-95861904D02*
X95840533Y-95909523D01*
X95840533Y-95909523D02*
X95745295Y-95909523D01*
X95745295Y-95909523D02*
X95650057Y-95861904D01*
X95650057Y-95861904D02*
X95602438Y-95814285D01*
X95602438Y-95814285D02*
X95554819Y-95719047D01*
X95554819Y-95719047D02*
X95554819Y-95480952D01*
X95554819Y-95480952D02*
X95602438Y-95338095D01*
X96031009Y-94576190D02*
X96031009Y-94909523D01*
X96554819Y-94909523D02*
X95554819Y-94909523D01*
X95554819Y-94909523D02*
X95554819Y-94433333D01*
X100654819Y-99338094D02*
X99654819Y-99338094D01*
X99654819Y-99338094D02*
X99654819Y-99099999D01*
X99654819Y-99099999D02*
X99702438Y-98957142D01*
X99702438Y-98957142D02*
X99797676Y-98861904D01*
X99797676Y-98861904D02*
X99892914Y-98814285D01*
X99892914Y-98814285D02*
X100083390Y-98766666D01*
X100083390Y-98766666D02*
X100226247Y-98766666D01*
X100226247Y-98766666D02*
X100416723Y-98814285D01*
X100416723Y-98814285D02*
X100511961Y-98861904D01*
X100511961Y-98861904D02*
X100607200Y-98957142D01*
X100607200Y-98957142D02*
X100654819Y-99099999D01*
X100654819Y-99099999D02*
X100654819Y-99338094D01*
X99988152Y-97909523D02*
X100654819Y-97909523D01*
X99607200Y-98147618D02*
X100321485Y-98385713D01*
X100321485Y-98385713D02*
X100321485Y-97766666D01*
X102419047Y-104884819D02*
X101942857Y-104884819D01*
X101942857Y-104884819D02*
X101895238Y-105361009D01*
X101895238Y-105361009D02*
X101942857Y-105313390D01*
X101942857Y-105313390D02*
X102038095Y-105265771D01*
X102038095Y-105265771D02*
X102276190Y-105265771D01*
X102276190Y-105265771D02*
X102371428Y-105313390D01*
X102371428Y-105313390D02*
X102419047Y-105361009D01*
X102419047Y-105361009D02*
X102466666Y-105456247D01*
X102466666Y-105456247D02*
X102466666Y-105694342D01*
X102466666Y-105694342D02*
X102419047Y-105789580D01*
X102419047Y-105789580D02*
X102371428Y-105837200D01*
X102371428Y-105837200D02*
X102276190Y-105884819D01*
X102276190Y-105884819D02*
X102038095Y-105884819D01*
X102038095Y-105884819D02*
X101942857Y-105837200D01*
X101942857Y-105837200D02*
X101895238Y-105789580D01*
X102895238Y-105789580D02*
X102942857Y-105837200D01*
X102942857Y-105837200D02*
X102895238Y-105884819D01*
X102895238Y-105884819D02*
X102847619Y-105837200D01*
X102847619Y-105837200D02*
X102895238Y-105789580D01*
X102895238Y-105789580D02*
X102895238Y-105884819D01*
X103895237Y-105884819D02*
X103323809Y-105884819D01*
X103609523Y-105884819D02*
X103609523Y-104884819D01*
X103609523Y-104884819D02*
X103514285Y-105027676D01*
X103514285Y-105027676D02*
X103419047Y-105122914D01*
X103419047Y-105122914D02*
X103323809Y-105170533D01*
X104323809Y-105884819D02*
X104323809Y-104884819D01*
X104419047Y-105503866D02*
X104704761Y-105884819D01*
X104704761Y-105218152D02*
X104323809Y-105599104D01*
D11*
X103256667Y-106718200D02*
X103170000Y-106594391D01*
X103108095Y-106718200D02*
X103108095Y-106458200D01*
X103108095Y-106458200D02*
X103207143Y-106458200D01*
X103207143Y-106458200D02*
X103231905Y-106470581D01*
X103231905Y-106470581D02*
X103244286Y-106482962D01*
X103244286Y-106482962D02*
X103256667Y-106507724D01*
X103256667Y-106507724D02*
X103256667Y-106544867D01*
X103256667Y-106544867D02*
X103244286Y-106569629D01*
X103244286Y-106569629D02*
X103231905Y-106582010D01*
X103231905Y-106582010D02*
X103207143Y-106594391D01*
X103207143Y-106594391D02*
X103108095Y-106594391D01*
X103504286Y-106718200D02*
X103355714Y-106718200D01*
X103430000Y-106718200D02*
X103430000Y-106458200D01*
X103430000Y-106458200D02*
X103405238Y-106495343D01*
X103405238Y-106495343D02*
X103380476Y-106520105D01*
X103380476Y-106520105D02*
X103355714Y-106532486D01*
D10*
X91284819Y-73671428D02*
X91284819Y-74242856D01*
X91284819Y-73957142D02*
X90284819Y-73957142D01*
X90284819Y-73957142D02*
X90427676Y-74052380D01*
X90427676Y-74052380D02*
X90522914Y-74147618D01*
X90522914Y-74147618D02*
X90570533Y-74242856D01*
X90284819Y-73052380D02*
X90284819Y-72957142D01*
X90284819Y-72957142D02*
X90332438Y-72861904D01*
X90332438Y-72861904D02*
X90380057Y-72814285D01*
X90380057Y-72814285D02*
X90475295Y-72766666D01*
X90475295Y-72766666D02*
X90665771Y-72719047D01*
X90665771Y-72719047D02*
X90903866Y-72719047D01*
X90903866Y-72719047D02*
X91094342Y-72766666D01*
X91094342Y-72766666D02*
X91189580Y-72814285D01*
X91189580Y-72814285D02*
X91237200Y-72861904D01*
X91237200Y-72861904D02*
X91284819Y-72957142D01*
X91284819Y-72957142D02*
X91284819Y-73052380D01*
X91284819Y-73052380D02*
X91237200Y-73147618D01*
X91237200Y-73147618D02*
X91189580Y-73195237D01*
X91189580Y-73195237D02*
X91094342Y-73242856D01*
X91094342Y-73242856D02*
X90903866Y-73290475D01*
X90903866Y-73290475D02*
X90665771Y-73290475D01*
X90665771Y-73290475D02*
X90475295Y-73242856D01*
X90475295Y-73242856D02*
X90380057Y-73195237D01*
X90380057Y-73195237D02*
X90332438Y-73147618D01*
X90332438Y-73147618D02*
X90284819Y-73052380D01*
X90618152Y-71861904D02*
X91284819Y-71861904D01*
X90618152Y-72290475D02*
X91141961Y-72290475D01*
X91141961Y-72290475D02*
X91237200Y-72242856D01*
X91237200Y-72242856D02*
X91284819Y-72147618D01*
X91284819Y-72147618D02*
X91284819Y-72004761D01*
X91284819Y-72004761D02*
X91237200Y-71909523D01*
X91237200Y-71909523D02*
X91189580Y-71861904D01*
X90761009Y-71052380D02*
X90761009Y-71385713D01*
X91284819Y-71385713D02*
X90284819Y-71385713D01*
X90284819Y-71385713D02*
X90284819Y-70909523D01*
D12*
X89543832Y-72666666D02*
X89562880Y-72685714D01*
X89562880Y-72685714D02*
X89581927Y-72742856D01*
X89581927Y-72742856D02*
X89581927Y-72780952D01*
X89581927Y-72780952D02*
X89562880Y-72838095D01*
X89562880Y-72838095D02*
X89524784Y-72876190D01*
X89524784Y-72876190D02*
X89486689Y-72895237D01*
X89486689Y-72895237D02*
X89410499Y-72914285D01*
X89410499Y-72914285D02*
X89353356Y-72914285D01*
X89353356Y-72914285D02*
X89277165Y-72895237D01*
X89277165Y-72895237D02*
X89239070Y-72876190D01*
X89239070Y-72876190D02*
X89200975Y-72838095D01*
X89200975Y-72838095D02*
X89181927Y-72780952D01*
X89181927Y-72780952D02*
X89181927Y-72742856D01*
X89181927Y-72742856D02*
X89200975Y-72685714D01*
X89200975Y-72685714D02*
X89220022Y-72666666D01*
X89181927Y-72323809D02*
X89181927Y-72399999D01*
X89181927Y-72399999D02*
X89200975Y-72438095D01*
X89200975Y-72438095D02*
X89220022Y-72457142D01*
X89220022Y-72457142D02*
X89277165Y-72495237D01*
X89277165Y-72495237D02*
X89353356Y-72514285D01*
X89353356Y-72514285D02*
X89505737Y-72514285D01*
X89505737Y-72514285D02*
X89543832Y-72495237D01*
X89543832Y-72495237D02*
X89562880Y-72476190D01*
X89562880Y-72476190D02*
X89581927Y-72438095D01*
X89581927Y-72438095D02*
X89581927Y-72361904D01*
X89581927Y-72361904D02*
X89562880Y-72323809D01*
X89562880Y-72323809D02*
X89543832Y-72304761D01*
X89543832Y-72304761D02*
X89505737Y-72285714D01*
X89505737Y-72285714D02*
X89410499Y-72285714D01*
X89410499Y-72285714D02*
X89372403Y-72304761D01*
X89372403Y-72304761D02*
X89353356Y-72323809D01*
X89353356Y-72323809D02*
X89334308Y-72361904D01*
X89334308Y-72361904D02*
X89334308Y-72438095D01*
X89334308Y-72438095D02*
X89353356Y-72476190D01*
X89353356Y-72476190D02*
X89372403Y-72495237D01*
X89372403Y-72495237D02*
X89410499Y-72514285D01*
D10*
X90624819Y-102933333D02*
X90624819Y-103504761D01*
X90624819Y-103219047D02*
X89624819Y-103219047D01*
X89624819Y-103219047D02*
X89767676Y-103314285D01*
X89767676Y-103314285D02*
X89862914Y-103409523D01*
X89862914Y-103409523D02*
X89910533Y-103504761D01*
X90529580Y-102504761D02*
X90577200Y-102457142D01*
X90577200Y-102457142D02*
X90624819Y-102504761D01*
X90624819Y-102504761D02*
X90577200Y-102552380D01*
X90577200Y-102552380D02*
X90529580Y-102504761D01*
X90529580Y-102504761D02*
X90624819Y-102504761D01*
X89720057Y-102076190D02*
X89672438Y-102028571D01*
X89672438Y-102028571D02*
X89624819Y-101933333D01*
X89624819Y-101933333D02*
X89624819Y-101695238D01*
X89624819Y-101695238D02*
X89672438Y-101600000D01*
X89672438Y-101600000D02*
X89720057Y-101552381D01*
X89720057Y-101552381D02*
X89815295Y-101504762D01*
X89815295Y-101504762D02*
X89910533Y-101504762D01*
X89910533Y-101504762D02*
X90053390Y-101552381D01*
X90053390Y-101552381D02*
X90624819Y-102123809D01*
X90624819Y-102123809D02*
X90624819Y-101504762D01*
X90624819Y-101076190D02*
X89624819Y-101076190D01*
X90243866Y-100980952D02*
X90624819Y-100695238D01*
X89958152Y-100695238D02*
X90339104Y-101076190D01*
D11*
X89118200Y-102267142D02*
X88994391Y-102353809D01*
X89118200Y-102415714D02*
X88858200Y-102415714D01*
X88858200Y-102415714D02*
X88858200Y-102316666D01*
X88858200Y-102316666D02*
X88870581Y-102291904D01*
X88870581Y-102291904D02*
X88882962Y-102279523D01*
X88882962Y-102279523D02*
X88907724Y-102267142D01*
X88907724Y-102267142D02*
X88944867Y-102267142D01*
X88944867Y-102267142D02*
X88969629Y-102279523D01*
X88969629Y-102279523D02*
X88982010Y-102291904D01*
X88982010Y-102291904D02*
X88994391Y-102316666D01*
X88994391Y-102316666D02*
X88994391Y-102415714D01*
X89118200Y-102019523D02*
X89118200Y-102168095D01*
X89118200Y-102093809D02*
X88858200Y-102093809D01*
X88858200Y-102093809D02*
X88895343Y-102118571D01*
X88895343Y-102118571D02*
X88920105Y-102143333D01*
X88920105Y-102143333D02*
X88932486Y-102168095D01*
X88882962Y-101920476D02*
X88870581Y-101908095D01*
X88870581Y-101908095D02*
X88858200Y-101883333D01*
X88858200Y-101883333D02*
X88858200Y-101821428D01*
X88858200Y-101821428D02*
X88870581Y-101796666D01*
X88870581Y-101796666D02*
X88882962Y-101784285D01*
X88882962Y-101784285D02*
X88907724Y-101771904D01*
X88907724Y-101771904D02*
X88932486Y-101771904D01*
X88932486Y-101771904D02*
X88969629Y-101784285D01*
X88969629Y-101784285D02*
X89118200Y-101932857D01*
X89118200Y-101932857D02*
X89118200Y-101771904D01*
D10*
X88118571Y-77224819D02*
X87547143Y-77224819D01*
X87832857Y-77224819D02*
X87832857Y-76224819D01*
X87832857Y-76224819D02*
X87737619Y-76367676D01*
X87737619Y-76367676D02*
X87642381Y-76462914D01*
X87642381Y-76462914D02*
X87547143Y-76510533D01*
X88737619Y-76224819D02*
X88832857Y-76224819D01*
X88832857Y-76224819D02*
X88928095Y-76272438D01*
X88928095Y-76272438D02*
X88975714Y-76320057D01*
X88975714Y-76320057D02*
X89023333Y-76415295D01*
X89023333Y-76415295D02*
X89070952Y-76605771D01*
X89070952Y-76605771D02*
X89070952Y-76843866D01*
X89070952Y-76843866D02*
X89023333Y-77034342D01*
X89023333Y-77034342D02*
X88975714Y-77129580D01*
X88975714Y-77129580D02*
X88928095Y-77177200D01*
X88928095Y-77177200D02*
X88832857Y-77224819D01*
X88832857Y-77224819D02*
X88737619Y-77224819D01*
X88737619Y-77224819D02*
X88642381Y-77177200D01*
X88642381Y-77177200D02*
X88594762Y-77129580D01*
X88594762Y-77129580D02*
X88547143Y-77034342D01*
X88547143Y-77034342D02*
X88499524Y-76843866D01*
X88499524Y-76843866D02*
X88499524Y-76605771D01*
X88499524Y-76605771D02*
X88547143Y-76415295D01*
X88547143Y-76415295D02*
X88594762Y-76320057D01*
X88594762Y-76320057D02*
X88642381Y-76272438D01*
X88642381Y-76272438D02*
X88737619Y-76224819D01*
X89690000Y-76224819D02*
X89785238Y-76224819D01*
X89785238Y-76224819D02*
X89880476Y-76272438D01*
X89880476Y-76272438D02*
X89928095Y-76320057D01*
X89928095Y-76320057D02*
X89975714Y-76415295D01*
X89975714Y-76415295D02*
X90023333Y-76605771D01*
X90023333Y-76605771D02*
X90023333Y-76843866D01*
X90023333Y-76843866D02*
X89975714Y-77034342D01*
X89975714Y-77034342D02*
X89928095Y-77129580D01*
X89928095Y-77129580D02*
X89880476Y-77177200D01*
X89880476Y-77177200D02*
X89785238Y-77224819D01*
X89785238Y-77224819D02*
X89690000Y-77224819D01*
X89690000Y-77224819D02*
X89594762Y-77177200D01*
X89594762Y-77177200D02*
X89547143Y-77129580D01*
X89547143Y-77129580D02*
X89499524Y-77034342D01*
X89499524Y-77034342D02*
X89451905Y-76843866D01*
X89451905Y-76843866D02*
X89451905Y-76605771D01*
X89451905Y-76605771D02*
X89499524Y-76415295D01*
X89499524Y-76415295D02*
X89547143Y-76320057D01*
X89547143Y-76320057D02*
X89594762Y-76272438D01*
X89594762Y-76272438D02*
X89690000Y-76224819D01*
X90451905Y-77224819D02*
X90451905Y-76224819D01*
X90547143Y-76843866D02*
X90832857Y-77224819D01*
X90832857Y-76558152D02*
X90451905Y-76939104D01*
D11*
X89146667Y-75718200D02*
X89060000Y-75594391D01*
X88998095Y-75718200D02*
X88998095Y-75458200D01*
X88998095Y-75458200D02*
X89097143Y-75458200D01*
X89097143Y-75458200D02*
X89121905Y-75470581D01*
X89121905Y-75470581D02*
X89134286Y-75482962D01*
X89134286Y-75482962D02*
X89146667Y-75507724D01*
X89146667Y-75507724D02*
X89146667Y-75544867D01*
X89146667Y-75544867D02*
X89134286Y-75569629D01*
X89134286Y-75569629D02*
X89121905Y-75582010D01*
X89121905Y-75582010D02*
X89097143Y-75594391D01*
X89097143Y-75594391D02*
X88998095Y-75594391D01*
X89369524Y-75544867D02*
X89369524Y-75718200D01*
X89307619Y-75445820D02*
X89245714Y-75631534D01*
X89245714Y-75631534D02*
X89406667Y-75631534D01*
D15*
G04 #@! TO.C,C14*
X88750000Y-104400000D02*
X89250000Y-104400000D01*
X88750000Y-105400000D02*
X88750000Y-104400000D01*
X89250000Y-104400000D02*
X89250000Y-105400000D01*
X89250000Y-105400000D02*
X88750000Y-105400000D01*
G04 #@! TO.C,R2*
X107075000Y-106330000D02*
X108125000Y-106330000D01*
X107075000Y-106870000D02*
X107075000Y-106330000D01*
X108125000Y-106330000D02*
X108125000Y-106870000D01*
X108125000Y-106870000D02*
X107075000Y-106870000D01*
G04 #@! TO.C,C16*
X93000000Y-95500000D02*
X94600000Y-95500000D01*
X93000000Y-96300000D02*
X93000000Y-95500000D01*
X94600000Y-95500000D02*
X94600000Y-96300000D01*
X94600000Y-96300000D02*
X93000000Y-96300000D01*
G04 #@! TO.C,Q3*
X93750000Y-98050000D02*
X96650000Y-98050000D01*
X93750000Y-99025000D02*
X93750000Y-98050000D01*
X94075000Y-99350000D02*
X93750000Y-99025000D01*
X96650000Y-98050000D02*
X96650000Y-99350000D01*
X96650000Y-99350000D02*
X94075000Y-99350000D01*
G04 #@! TO.C,SW1*
X104900000Y-91900000D02*
X109100000Y-91900000D01*
X104900000Y-94700000D02*
X104900000Y-91900000D01*
X109100000Y-91900000D02*
X109100000Y-94700000D01*
X109100000Y-94700000D02*
X104900000Y-94700000D01*
X107800000Y-93300000D02*
G75*
G02*
X106200000Y-93300000I-800000J0D01*
G01*
X106200000Y-93300000D02*
G75*
G02*
X107800000Y-93300000I800000J0D01*
G01*
G04 #@! TO.C,R13*
X97230000Y-110375000D02*
X97770000Y-110375000D01*
X97230000Y-111425000D02*
X97230000Y-110375000D01*
X97770000Y-110375000D02*
X97770000Y-111425000D01*
X97770000Y-111425000D02*
X97230000Y-111425000D01*
G04 #@! TO.C,C5*
X101250000Y-97100000D02*
X101750000Y-97100000D01*
X101250000Y-98100000D02*
X101250000Y-97100000D01*
X101750000Y-97100000D02*
X101750000Y-98100000D01*
X101750000Y-98100000D02*
X101250000Y-98100000D01*
G04 #@! TO.C,C17*
X89900000Y-95500000D02*
X91500000Y-95500000D01*
X89900000Y-96300000D02*
X89900000Y-95500000D01*
X91500000Y-95500000D02*
X91500000Y-96300000D01*
X91500000Y-96300000D02*
X89900000Y-96300000D01*
G04 #@! TO.C,R10*
X98830000Y-110375000D02*
X99370000Y-110375000D01*
X98830000Y-111425000D02*
X98830000Y-110375000D01*
X99370000Y-110375000D02*
X99370000Y-111425000D01*
X99370000Y-111425000D02*
X98830000Y-111425000D01*
G04 #@! TO.C,U3*
X91000000Y-65110000D02*
X91000000Y-70830000D01*
X91000000Y-65110000D02*
X109000000Y-65110000D01*
X91000000Y-71830000D02*
X91000000Y-90610000D01*
X91000000Y-71830000D02*
X91500000Y-71330000D01*
X91000000Y-90610000D02*
X109000000Y-90610000D01*
X91500000Y-71330000D02*
X91000000Y-70830000D01*
X109000000Y-90610000D02*
X109000000Y-65110000D01*
G04 #@! TO.C,R3*
X105230000Y-97075000D02*
X105770000Y-97075000D01*
X105230000Y-98125000D02*
X105230000Y-97075000D01*
X105770000Y-97075000D02*
X105770000Y-98125000D01*
X105770000Y-98125000D02*
X105230000Y-98125000D01*
G04 #@! TO.C,SW2*
X90950000Y-91900000D02*
X95150000Y-91900000D01*
X90950000Y-94700000D02*
X90950000Y-91900000D01*
X95150000Y-91900000D02*
X95150000Y-94700000D01*
X95150000Y-94700000D02*
X90950000Y-94700000D01*
X93850000Y-93300000D02*
G75*
G02*
X92250000Y-93300000I-800000J0D01*
G01*
X92250000Y-93300000D02*
G75*
G02*
X93850000Y-93300000I800000J0D01*
G01*
G04 #@! TO.C,Q1*
X102400000Y-96225000D02*
X102400000Y-97075000D01*
X102400000Y-96225000D02*
X104600000Y-96225000D01*
X102400000Y-97075000D02*
X102900000Y-97575000D01*
X102900000Y-97575000D02*
X104600000Y-97575000D01*
X104600000Y-96225000D02*
X104600000Y-97575000D01*
G04 #@! TO.C,U1*
X99650000Y-100350000D02*
X109550000Y-100350000D01*
X99650000Y-103275000D02*
X99650000Y-100350000D01*
X100625000Y-104250000D02*
X99650000Y-103275000D01*
X109550000Y-100350000D02*
X109550000Y-104250000D01*
X109550000Y-104250000D02*
X100625000Y-104250000D01*
G04 #@! TO.C,D2*
X97100000Y-112600000D02*
X97100000Y-114200000D01*
X97100000Y-114200000D02*
X97900000Y-114200000D01*
X97600000Y-112600000D02*
X97100000Y-112600000D01*
X97900000Y-112900000D02*
X97600000Y-112600000D01*
X97900000Y-114200000D02*
X97900000Y-112900000D01*
G04 #@! TO.C,C4*
X99800000Y-96200000D02*
X100600000Y-96200000D01*
X99800000Y-97800000D02*
X99800000Y-96200000D01*
X100600000Y-96200000D02*
X100600000Y-97800000D01*
X100600000Y-97800000D02*
X99800000Y-97800000D01*
G04 #@! TO.C,U4*
X91280000Y-101975000D02*
X92255000Y-101000000D01*
X91280000Y-105900000D02*
X91280000Y-101975000D01*
X92255000Y-101000000D02*
X95180000Y-101000000D01*
X95180000Y-101000000D02*
X95180000Y-105900000D01*
X95180000Y-105900000D02*
X91280000Y-105900000D01*
G04 #@! TO.C,C1*
X88700000Y-74350000D02*
X89700000Y-74350000D01*
X88700000Y-74850000D02*
X88700000Y-74350000D01*
X89700000Y-74350000D02*
X89700000Y-74850000D01*
X89700000Y-74850000D02*
X88700000Y-74850000D01*
G04 #@! TO.C,C2*
X88690000Y-76350000D02*
X89690000Y-76350000D01*
X88690000Y-76850000D02*
X88690000Y-76350000D01*
X89690000Y-76350000D02*
X89690000Y-76850000D01*
X89690000Y-76850000D02*
X88690000Y-76850000D01*
G04 #@! TO.C,C13*
X97400000Y-105300000D02*
X98200000Y-105300000D01*
X97400000Y-106900000D02*
X97400000Y-105300000D01*
X98200000Y-105300000D02*
X98200000Y-106900000D01*
X98200000Y-106900000D02*
X97400000Y-106900000D01*
G04 #@! TO.C,R15*
X97875000Y-101280000D02*
X98925000Y-101280000D01*
X97875000Y-101820000D02*
X97875000Y-101280000D01*
X98925000Y-101280000D02*
X98925000Y-101820000D01*
X98925000Y-101820000D02*
X97875000Y-101820000D01*
G04 #@! TO.C,J4*
X88650000Y-107667500D02*
X89650000Y-107667500D01*
X88650000Y-115867500D02*
X88650000Y-107667500D01*
X89650000Y-107667500D02*
X89650000Y-109867500D01*
X89650000Y-109867500D02*
X95150000Y-109867500D01*
X93650000Y-110574607D02*
X93150000Y-109867500D01*
X94150000Y-109867500D02*
X93650000Y-110574607D01*
X95150000Y-107667500D02*
X96150000Y-107667500D01*
X95150000Y-109867500D02*
X95150000Y-107667500D01*
X96150000Y-107667500D02*
X96150000Y-115867500D01*
X96150000Y-115867500D02*
X88650000Y-115867500D01*
G04 #@! TO.C,J1*
X100830000Y-108430000D02*
X100830000Y-115780000D01*
X100830000Y-108430000D02*
X109770000Y-108430000D01*
X100830000Y-115780000D02*
X109770000Y-115780000D01*
X102100000Y-109430000D02*
X101100000Y-108430000D01*
X102100000Y-109430000D02*
X103100000Y-108430000D01*
X109770000Y-108430000D02*
X109770000Y-115780000D01*
G04 #@! TO.C,D1*
X98700000Y-112612500D02*
X98700000Y-114212500D01*
X98700000Y-114212500D02*
X99500000Y-114212500D01*
X99200000Y-112612500D02*
X98700000Y-112612500D01*
X99500000Y-112912500D02*
X99200000Y-112612500D01*
X99500000Y-114212500D02*
X99500000Y-112912500D01*
G04 #@! TO.C,U5*
X90100000Y-97100000D02*
X91700000Y-97100000D01*
X90100000Y-100000000D02*
X90100000Y-97100000D01*
X91300000Y-100000000D02*
X90100000Y-100000000D01*
X91700000Y-97100000D02*
X91700000Y-99600000D01*
X91700000Y-99600000D02*
X91300000Y-100000000D01*
G04 #@! TO.C,D4*
X97300000Y-97200000D02*
X99100000Y-97200000D01*
X97300000Y-100000000D02*
X97300000Y-97200000D01*
X97800000Y-98850000D02*
X98200000Y-98250000D01*
X98200000Y-97850000D02*
X98200000Y-98250000D01*
X98200000Y-98250000D02*
X97650000Y-98250000D01*
X98200000Y-98250000D02*
X98600000Y-98850000D01*
X98200000Y-98250000D02*
X98750000Y-98250000D01*
X98200000Y-98850000D02*
X98200000Y-99350000D01*
X98600000Y-98850000D02*
X97800000Y-98850000D01*
X99100000Y-97200000D02*
X99100000Y-100000000D01*
X99100000Y-100000000D02*
X97300000Y-100000000D01*
G04 #@! TO.C,R1*
X102775000Y-106330000D02*
X103825000Y-106330000D01*
X102775000Y-106870000D02*
X102775000Y-106330000D01*
X103825000Y-106330000D02*
X103825000Y-106870000D01*
X103825000Y-106870000D02*
X102775000Y-106870000D01*
G04 #@! TO.C,C6*
X89000000Y-71800000D02*
X89800000Y-71800000D01*
X89000000Y-73400000D02*
X89000000Y-71800000D01*
X89800000Y-71800000D02*
X89800000Y-73400000D01*
X89800000Y-73400000D02*
X89000000Y-73400000D01*
G04 #@! TO.C,R12*
X88730000Y-101575000D02*
X89270000Y-101575000D01*
X88730000Y-102625000D02*
X88730000Y-101575000D01*
X89270000Y-101575000D02*
X89270000Y-102625000D01*
X89270000Y-102625000D02*
X88730000Y-102625000D01*
G04 #@! TO.C,R4*
X88665000Y-75330000D02*
X89715000Y-75330000D01*
X88665000Y-75870000D02*
X88665000Y-75330000D01*
X89715000Y-75330000D02*
X89715000Y-75870000D01*
X89715000Y-75870000D02*
X88665000Y-75870000D01*
G04 #@! TD*
D16*
X85000000Y-115000000D02*
G75*
G02*
X83000000Y-113000000I0J2000000D01*
G01*
X115000000Y-115000000D02*
X85000000Y-115000000D01*
X83000000Y-113000000D02*
X83000000Y-67000000D01*
X117000000Y-67000000D02*
X117000000Y-113000000D01*
X115000000Y-65000000D02*
X111000000Y-65000000D01*
X89000000Y-71000000D02*
X89000000Y-65000000D01*
X115000000Y-65000000D02*
G75*
G02*
X117000000Y-67000000I0J-2000000D01*
G01*
X111000000Y-71000000D02*
X89000000Y-71000000D01*
X89000000Y-65000000D02*
X85000000Y-65000000D01*
X83000000Y-67000000D02*
G75*
G02*
X85000000Y-65000000I2000000J0D01*
G01*
X111000000Y-65000000D02*
X111000000Y-71000000D01*
X117000000Y-113000000D02*
G75*
G02*
X115000000Y-115000000I-2000000J0D01*
G01*
M02*
