%TF.GenerationSoftware,KiCad,Pcbnew,8.0.2*%
%TF.CreationDate,2024-05-24T09:08:18+10:00*%
%TF.ProjectId,design,64657369-676e-42e6-9b69-6361645f7063,rev?*%
%TF.SameCoordinates,Original*%
%TF.FileFunction,Drillmap*%
%TF.FilePolarity,Positive*%
%FSLAX45Y45*%
G04 Gerber Fmt 4.5, Leading zero omitted, Abs format (unit mm)*
G04 Created by KiCad (PCBNEW 8.0.2) date 2024-05-24 09:08:18*
%MOMM*%
%LPD*%
G01*
G04 APERTURE LIST*
%ADD10C,0.100000*%
%ADD11C,0.200000*%
G04 APERTURE END LIST*
D10*
X8500000Y-11500000D02*
G75*
G02*
X8300000Y-11300000I0J200000D01*
G01*
X11500000Y-11500000D02*
X8500000Y-11500000D01*
X8300000Y-11300000D02*
X8300000Y-6700000D01*
X11700000Y-6700000D02*
X11700000Y-11300000D01*
X11500000Y-6500000D02*
X11100000Y-6500000D01*
X8900000Y-7100000D02*
X8900000Y-6500000D01*
X11500000Y-6500000D02*
G75*
G02*
X11700000Y-6700000I0J-200000D01*
G01*
X11100000Y-7100000D02*
X8900000Y-7100000D01*
X8900000Y-6500000D02*
X8500000Y-6500000D01*
X8300000Y-6700000D02*
G75*
G02*
X8500000Y-6500000I200000J0D01*
G01*
X11100000Y-6500000D02*
X11100000Y-7100000D01*
X11700000Y-11300000D02*
G75*
G02*
X11500000Y-11500000I-200000J0D01*
G01*
D11*
D10*
X8775000Y-7165000D02*
X8805000Y-7195000D01*
X8805000Y-7165000D02*
X8775000Y-7195000D01*
X8775000Y-7445000D02*
X8805000Y-7475000D01*
X8805000Y-7445000D02*
X8775000Y-7475000D01*
X8775000Y-7635000D02*
X8805000Y-7665000D01*
X8805000Y-7635000D02*
X8775000Y-7665000D01*
X8785000Y-10233900D02*
X8815000Y-10263900D01*
X8815000Y-10233900D02*
X8785000Y-10263900D01*
X8805000Y-10425000D02*
X8835000Y-10455000D01*
X8835000Y-10425000D02*
X8805000Y-10455000D01*
X8825000Y-7325000D02*
X8855000Y-7355000D01*
X8855000Y-7325000D02*
X8825000Y-7355000D01*
X8845000Y-9515000D02*
X8875000Y-9545000D01*
X8875000Y-9515000D02*
X8845000Y-9545000D01*
X8919222Y-7706362D02*
X8949222Y-7736362D01*
X8949222Y-7706362D02*
X8919222Y-7736362D01*
X8925000Y-9395000D02*
X8955000Y-9425000D01*
X8955000Y-9395000D02*
X8925000Y-9425000D01*
X8976600Y-9840200D02*
X9006600Y-9870200D01*
X9006600Y-9840200D02*
X8976600Y-9870200D01*
X9075000Y-9665000D02*
X9105000Y-9695000D01*
X9105000Y-9665000D02*
X9075000Y-9695000D01*
X9075000Y-9935000D02*
X9105000Y-9965000D01*
X9105000Y-9935000D02*
X9075000Y-9965000D01*
X9281400Y-10043400D02*
X9311400Y-10073400D01*
X9311400Y-10043400D02*
X9281400Y-10073400D01*
X9285000Y-7135000D02*
X9315000Y-7165000D01*
X9315000Y-7135000D02*
X9285000Y-7165000D01*
X9285000Y-9475000D02*
X9315000Y-9505000D01*
X9315000Y-9475000D02*
X9285000Y-9505000D01*
X9295000Y-9235000D02*
X9325000Y-9265000D01*
X9325000Y-9235000D02*
X9295000Y-9265000D01*
X9383000Y-9675100D02*
X9413000Y-9705100D01*
X9413000Y-9675100D02*
X9383000Y-9705100D01*
X9435000Y-7135000D02*
X9465000Y-7165000D01*
X9465000Y-7135000D02*
X9435000Y-7165000D01*
X9555500Y-10614500D02*
X9585500Y-10644500D01*
X9585500Y-10614500D02*
X9555500Y-10644500D01*
X9585000Y-7135000D02*
X9615000Y-7165000D01*
X9615000Y-7135000D02*
X9585000Y-7165000D01*
X9675000Y-9945000D02*
X9705000Y-9975000D01*
X9705000Y-9945000D02*
X9675000Y-9975000D01*
X9735000Y-7135000D02*
X9765000Y-7165000D01*
X9765000Y-7135000D02*
X9735000Y-7165000D01*
X9765000Y-10775000D02*
X9795000Y-10805000D01*
X9795000Y-10775000D02*
X9765000Y-10805000D01*
X9875000Y-10225000D02*
X9905000Y-10255000D01*
X9905000Y-10225000D02*
X9875000Y-10255000D01*
X9885000Y-7135000D02*
X9915000Y-7165000D01*
X9915000Y-7135000D02*
X9885000Y-7165000D01*
X9905000Y-9775000D02*
X9935000Y-9805000D01*
X9935000Y-9775000D02*
X9905000Y-9805000D01*
X9915000Y-9235000D02*
X9945000Y-9265000D01*
X9945000Y-9235000D02*
X9915000Y-9265000D01*
X9915000Y-9475000D02*
X9945000Y-9505000D01*
X9945000Y-9475000D02*
X9915000Y-9505000D01*
X10005000Y-10615000D02*
X10035000Y-10645000D01*
X10035000Y-10615000D02*
X10005000Y-10645000D01*
X10035000Y-7135000D02*
X10065000Y-7165000D01*
X10065000Y-7135000D02*
X10035000Y-7165000D01*
X10135000Y-9595000D02*
X10165000Y-9625000D01*
X10165000Y-9595000D02*
X10135000Y-9625000D01*
X10135000Y-10315000D02*
X10165000Y-10345000D01*
X10165000Y-10315000D02*
X10135000Y-10345000D01*
X10185000Y-7135000D02*
X10215000Y-7165000D01*
X10215000Y-7135000D02*
X10185000Y-7165000D01*
X10255000Y-10315000D02*
X10285000Y-10345000D01*
X10285000Y-10315000D02*
X10255000Y-10345000D01*
X10335000Y-7135000D02*
X10365000Y-7165000D01*
X10365000Y-7135000D02*
X10335000Y-7165000D01*
X10345000Y-10145000D02*
X10375000Y-10175000D01*
X10375000Y-10145000D02*
X10345000Y-10175000D01*
X10350000Y-10300000D02*
X10380000Y-10330000D01*
X10380000Y-10300000D02*
X10350000Y-10330000D01*
X10385000Y-9235000D02*
X10415000Y-9265000D01*
X10415000Y-9235000D02*
X10385000Y-9265000D01*
X10479760Y-10695000D02*
X10509760Y-10725000D01*
X10509760Y-10695000D02*
X10479760Y-10725000D01*
X10485000Y-7135000D02*
X10515000Y-7165000D01*
X10515000Y-7135000D02*
X10485000Y-7165000D01*
X10575000Y-9395000D02*
X10605000Y-9425000D01*
X10605000Y-9395000D02*
X10575000Y-9425000D01*
X10605000Y-9795000D02*
X10635000Y-9825000D01*
X10635000Y-9795000D02*
X10605000Y-9825000D01*
X10605000Y-10705000D02*
X10635000Y-10735000D01*
X10635000Y-10705000D02*
X10605000Y-10735000D01*
X10635000Y-7135000D02*
X10665000Y-7165000D01*
X10665000Y-7135000D02*
X10635000Y-7165000D01*
X10662380Y-7745000D02*
X10692380Y-7775000D01*
X10692380Y-7745000D02*
X10662380Y-7775000D01*
X10725000Y-7625000D02*
X10755000Y-7655000D01*
X10755000Y-7625000D02*
X10725000Y-7655000D01*
X10745000Y-9685000D02*
X10775000Y-9715000D01*
X10775000Y-9685000D02*
X10745000Y-9715000D01*
X10807620Y-9395000D02*
X10837620Y-9425000D01*
X10837620Y-9395000D02*
X10807620Y-9425000D01*
X10885000Y-9125000D02*
X10915000Y-9155000D01*
X10915000Y-9125000D02*
X10885000Y-9155000D01*
X10905000Y-10125000D02*
X10935000Y-10155000D01*
X10935000Y-10125000D02*
X10905000Y-10155000D01*
X10905000Y-10295000D02*
X10935000Y-10325000D01*
X10935000Y-10295000D02*
X10905000Y-10325000D01*
X11015000Y-8845000D02*
X11045000Y-8875000D01*
X11045000Y-8845000D02*
X11015000Y-8875000D01*
X11035000Y-7135000D02*
X11065000Y-7165000D01*
X11065000Y-7135000D02*
X11035000Y-7165000D01*
X11035000Y-9179800D02*
X11065000Y-9209800D01*
X11065000Y-9179800D02*
X11035000Y-9209800D01*
X11084800Y-10462500D02*
X11114800Y-10492500D01*
X11114800Y-10462500D02*
X11084800Y-10492500D01*
X11185000Y-7135000D02*
X11215000Y-7165000D01*
X11215000Y-7135000D02*
X11185000Y-7165000D01*
X9794500Y-7917750D02*
G75*
G02*
X9764500Y-7917750I-15000J0D01*
G01*
X9764500Y-7917750D02*
G75*
G02*
X9794500Y-7917750I15000J0D01*
G01*
X9794500Y-8070250D02*
G75*
G02*
X9764500Y-8070250I-15000J0D01*
G01*
X9764500Y-8070250D02*
G75*
G02*
X9794500Y-8070250I15000J0D01*
G01*
X9870750Y-7841500D02*
G75*
G02*
X9840750Y-7841500I-15000J0D01*
G01*
X9840750Y-7841500D02*
G75*
G02*
X9870750Y-7841500I15000J0D01*
G01*
X9870750Y-7994000D02*
G75*
G02*
X9840750Y-7994000I-15000J0D01*
G01*
X9840750Y-7994000D02*
G75*
G02*
X9870750Y-7994000I15000J0D01*
G01*
X9870750Y-8146500D02*
G75*
G02*
X9840750Y-8146500I-15000J0D01*
G01*
X9840750Y-8146500D02*
G75*
G02*
X9870750Y-8146500I15000J0D01*
G01*
X9947000Y-7917750D02*
G75*
G02*
X9917000Y-7917750I-15000J0D01*
G01*
X9917000Y-7917750D02*
G75*
G02*
X9947000Y-7917750I15000J0D01*
G01*
X9947000Y-8070250D02*
G75*
G02*
X9917000Y-8070250I-15000J0D01*
G01*
X9917000Y-8070250D02*
G75*
G02*
X9947000Y-8070250I15000J0D01*
G01*
X10023250Y-7841500D02*
G75*
G02*
X9993250Y-7841500I-15000J0D01*
G01*
X9993250Y-7841500D02*
G75*
G02*
X10023250Y-7841500I15000J0D01*
G01*
X10023250Y-7994000D02*
G75*
G02*
X9993250Y-7994000I-15000J0D01*
G01*
X9993250Y-7994000D02*
G75*
G02*
X10023250Y-7994000I15000J0D01*
G01*
X10023250Y-8146500D02*
G75*
G02*
X9993250Y-8146500I-15000J0D01*
G01*
X9993250Y-8146500D02*
G75*
G02*
X10023250Y-8146500I15000J0D01*
G01*
X10099500Y-7917750D02*
G75*
G02*
X10069500Y-7917750I-15000J0D01*
G01*
X10069500Y-7917750D02*
G75*
G02*
X10099500Y-7917750I15000J0D01*
G01*
X10099500Y-8070250D02*
G75*
G02*
X10069500Y-8070250I-15000J0D01*
G01*
X10069500Y-8070250D02*
G75*
G02*
X10099500Y-8070250I15000J0D01*
G01*
X10098000Y-10870000D02*
X10098000Y-10930000D01*
X10068000Y-10900000D02*
X10128000Y-10900000D01*
X10068000Y-10845000D02*
X10068000Y-10955000D01*
X10128000Y-10955000D02*
G75*
G02*
X10068000Y-10955000I-30000J0D01*
G01*
X10128000Y-10955000D02*
X10128000Y-10845000D01*
X10128000Y-10845000D02*
G75*
G03*
X10068000Y-10845000I-30000J0D01*
G01*
X10098000Y-11288000D02*
X10098000Y-11348000D01*
X10068000Y-11318000D02*
X10128000Y-11318000D01*
X10068000Y-11288000D02*
X10068000Y-11348000D01*
X10128000Y-11348000D02*
G75*
G02*
X10068000Y-11348000I-30000J0D01*
G01*
X10128000Y-11348000D02*
X10128000Y-11288000D01*
X10128000Y-11288000D02*
G75*
G03*
X10068000Y-11288000I-30000J0D01*
G01*
X10962000Y-10870000D02*
X10962000Y-10930000D01*
X10932000Y-10900000D02*
X10992000Y-10900000D01*
X10932000Y-10845000D02*
X10932000Y-10955000D01*
X10992000Y-10955000D02*
G75*
G02*
X10932000Y-10955000I-30000J0D01*
G01*
X10992000Y-10955000D02*
X10992000Y-10845000D01*
X10992000Y-10845000D02*
G75*
G03*
X10932000Y-10845000I-30000J0D01*
G01*
X10962000Y-11288000D02*
X10962000Y-11348000D01*
X10932000Y-11318000D02*
X10992000Y-11318000D01*
X10932000Y-11288000D02*
X10932000Y-11348000D01*
X10992000Y-11348000D02*
G75*
G02*
X10932000Y-11348000I-30000J0D01*
G01*
X10992000Y-11348000D02*
X10992000Y-11288000D01*
X10992000Y-11288000D02*
G75*
G03*
X10932000Y-11288000I-30000J0D01*
G01*
X8485356Y-7235356D02*
X8485356Y-7164644D01*
X8414644Y-7164644D01*
X8414644Y-7235356D01*
X8485356Y-7235356D01*
X8485356Y-7489356D02*
X8485356Y-7418644D01*
X8414644Y-7418644D01*
X8414644Y-7489356D01*
X8485356Y-7489356D01*
X8485356Y-7743356D02*
X8485356Y-7672644D01*
X8414644Y-7672644D01*
X8414644Y-7743356D01*
X8485356Y-7743356D01*
X8485356Y-7997356D02*
X8485356Y-7926644D01*
X8414644Y-7926644D01*
X8414644Y-7997356D01*
X8485356Y-7997356D01*
X8485356Y-8251356D02*
X8485356Y-8180644D01*
X8414644Y-8180644D01*
X8414644Y-8251356D01*
X8485356Y-8251356D01*
X8485356Y-8505356D02*
X8485356Y-8434644D01*
X8414644Y-8434644D01*
X8414644Y-8505356D01*
X8485356Y-8505356D01*
X8485356Y-8759356D02*
X8485356Y-8688644D01*
X8414644Y-8688644D01*
X8414644Y-8759356D01*
X8485356Y-8759356D01*
X8485356Y-9013356D02*
X8485356Y-8942644D01*
X8414644Y-8942644D01*
X8414644Y-9013356D01*
X8485356Y-9013356D01*
X8485356Y-9267356D02*
X8485356Y-9196644D01*
X8414644Y-9196644D01*
X8414644Y-9267356D01*
X8485356Y-9267356D01*
X8485356Y-9521356D02*
X8485356Y-9450644D01*
X8414644Y-9450644D01*
X8414644Y-9521356D01*
X8485356Y-9521356D01*
X8485356Y-9775356D02*
X8485356Y-9704644D01*
X8414644Y-9704644D01*
X8414644Y-9775356D01*
X8485356Y-9775356D01*
X8485356Y-10029356D02*
X8485356Y-9958644D01*
X8414644Y-9958644D01*
X8414644Y-10029356D01*
X8485356Y-10029356D01*
X8485356Y-10283356D02*
X8485356Y-10212644D01*
X8414644Y-10212644D01*
X8414644Y-10283356D01*
X8485356Y-10283356D01*
X8485356Y-10537356D02*
X8485356Y-10466644D01*
X8414644Y-10466644D01*
X8414644Y-10537356D01*
X8485356Y-10537356D01*
X8485356Y-10791356D02*
X8485356Y-10720644D01*
X8414644Y-10720644D01*
X8414644Y-10791356D01*
X8485356Y-10791356D01*
X9150356Y-10952106D02*
X9150356Y-10881394D01*
X9079644Y-10881394D01*
X9079644Y-10952106D01*
X9150356Y-10952106D01*
X9400356Y-10952106D02*
X9400356Y-10881394D01*
X9329644Y-10881394D01*
X9329644Y-10952106D01*
X9400356Y-10952106D01*
X11585356Y-7235356D02*
X11585356Y-7164644D01*
X11514644Y-7164644D01*
X11514644Y-7235356D01*
X11585356Y-7235356D01*
X11585356Y-7489356D02*
X11585356Y-7418644D01*
X11514644Y-7418644D01*
X11514644Y-7489356D01*
X11585356Y-7489356D01*
X11585356Y-7743356D02*
X11585356Y-7672644D01*
X11514644Y-7672644D01*
X11514644Y-7743356D01*
X11585356Y-7743356D01*
X11585356Y-7997356D02*
X11585356Y-7926644D01*
X11514644Y-7926644D01*
X11514644Y-7997356D01*
X11585356Y-7997356D01*
X11585356Y-8251356D02*
X11585356Y-8180644D01*
X11514644Y-8180644D01*
X11514644Y-8251356D01*
X11585356Y-8251356D01*
X11585356Y-8505356D02*
X11585356Y-8434644D01*
X11514644Y-8434644D01*
X11514644Y-8505356D01*
X11585356Y-8505356D01*
X11585356Y-8759356D02*
X11585356Y-8688644D01*
X11514644Y-8688644D01*
X11514644Y-8759356D01*
X11585356Y-8759356D01*
X11585356Y-9013356D02*
X11585356Y-8942644D01*
X11514644Y-8942644D01*
X11514644Y-9013356D01*
X11585356Y-9013356D01*
X11585356Y-9267356D02*
X11585356Y-9196644D01*
X11514644Y-9196644D01*
X11514644Y-9267356D01*
X11585356Y-9267356D01*
X11585356Y-9521356D02*
X11585356Y-9450644D01*
X11514644Y-9450644D01*
X11514644Y-9521356D01*
X11585356Y-9521356D01*
X11585356Y-9775356D02*
X11585356Y-9704644D01*
X11514644Y-9704644D01*
X11514644Y-9775356D01*
X11585356Y-9775356D01*
X11585356Y-10029356D02*
X11585356Y-9958644D01*
X11514644Y-9958644D01*
X11514644Y-10029356D01*
X11585356Y-10029356D01*
X11585356Y-10283356D02*
X11585356Y-10212644D01*
X11514644Y-10212644D01*
X11514644Y-10283356D01*
X11585356Y-10283356D01*
X11585356Y-10537356D02*
X11585356Y-10466644D01*
X11514644Y-10466644D01*
X11514644Y-10537356D01*
X11585356Y-10537356D01*
X11585356Y-10791356D02*
X11585356Y-10720644D01*
X11514644Y-10720644D01*
X11514644Y-10791356D01*
X11585356Y-10791356D01*
D11*
X8555777Y-11816484D02*
X8555777Y-11616484D01*
X8555777Y-11616484D02*
X8603396Y-11616484D01*
X8603396Y-11616484D02*
X8631967Y-11626008D01*
X8631967Y-11626008D02*
X8651015Y-11645055D01*
X8651015Y-11645055D02*
X8660539Y-11664103D01*
X8660539Y-11664103D02*
X8670063Y-11702198D01*
X8670063Y-11702198D02*
X8670063Y-11730769D01*
X8670063Y-11730769D02*
X8660539Y-11768865D01*
X8660539Y-11768865D02*
X8651015Y-11787912D01*
X8651015Y-11787912D02*
X8631967Y-11806960D01*
X8631967Y-11806960D02*
X8603396Y-11816484D01*
X8603396Y-11816484D02*
X8555777Y-11816484D01*
X8755777Y-11816484D02*
X8755777Y-11683150D01*
X8755777Y-11721246D02*
X8765301Y-11702198D01*
X8765301Y-11702198D02*
X8774824Y-11692674D01*
X8774824Y-11692674D02*
X8793872Y-11683150D01*
X8793872Y-11683150D02*
X8812920Y-11683150D01*
X8879586Y-11816484D02*
X8879586Y-11683150D01*
X8879586Y-11616484D02*
X8870063Y-11626008D01*
X8870063Y-11626008D02*
X8879586Y-11635531D01*
X8879586Y-11635531D02*
X8889110Y-11626008D01*
X8889110Y-11626008D02*
X8879586Y-11616484D01*
X8879586Y-11616484D02*
X8879586Y-11635531D01*
X9003396Y-11816484D02*
X8984348Y-11806960D01*
X8984348Y-11806960D02*
X8974824Y-11787912D01*
X8974824Y-11787912D02*
X8974824Y-11616484D01*
X9108158Y-11816484D02*
X9089110Y-11806960D01*
X9089110Y-11806960D02*
X9079586Y-11787912D01*
X9079586Y-11787912D02*
X9079586Y-11616484D01*
X9336729Y-11816484D02*
X9336729Y-11616484D01*
X9336729Y-11616484D02*
X9403396Y-11759341D01*
X9403396Y-11759341D02*
X9470063Y-11616484D01*
X9470063Y-11616484D02*
X9470063Y-11816484D01*
X9651015Y-11816484D02*
X9651015Y-11711722D01*
X9651015Y-11711722D02*
X9641491Y-11692674D01*
X9641491Y-11692674D02*
X9622444Y-11683150D01*
X9622444Y-11683150D02*
X9584348Y-11683150D01*
X9584348Y-11683150D02*
X9565301Y-11692674D01*
X9651015Y-11806960D02*
X9631967Y-11816484D01*
X9631967Y-11816484D02*
X9584348Y-11816484D01*
X9584348Y-11816484D02*
X9565301Y-11806960D01*
X9565301Y-11806960D02*
X9555777Y-11787912D01*
X9555777Y-11787912D02*
X9555777Y-11768865D01*
X9555777Y-11768865D02*
X9565301Y-11749817D01*
X9565301Y-11749817D02*
X9584348Y-11740293D01*
X9584348Y-11740293D02*
X9631967Y-11740293D01*
X9631967Y-11740293D02*
X9651015Y-11730769D01*
X9746253Y-11683150D02*
X9746253Y-11883150D01*
X9746253Y-11692674D02*
X9765301Y-11683150D01*
X9765301Y-11683150D02*
X9803396Y-11683150D01*
X9803396Y-11683150D02*
X9822444Y-11692674D01*
X9822444Y-11692674D02*
X9831967Y-11702198D01*
X9831967Y-11702198D02*
X9841491Y-11721246D01*
X9841491Y-11721246D02*
X9841491Y-11778388D01*
X9841491Y-11778388D02*
X9831967Y-11797436D01*
X9831967Y-11797436D02*
X9822444Y-11806960D01*
X9822444Y-11806960D02*
X9803396Y-11816484D01*
X9803396Y-11816484D02*
X9765301Y-11816484D01*
X9765301Y-11816484D02*
X9746253Y-11806960D01*
X9927205Y-11797436D02*
X9936729Y-11806960D01*
X9936729Y-11806960D02*
X9927205Y-11816484D01*
X9927205Y-11816484D02*
X9917682Y-11806960D01*
X9917682Y-11806960D02*
X9927205Y-11797436D01*
X9927205Y-11797436D02*
X9927205Y-11816484D01*
X9927205Y-11692674D02*
X9936729Y-11702198D01*
X9936729Y-11702198D02*
X9927205Y-11711722D01*
X9927205Y-11711722D02*
X9917682Y-11702198D01*
X9917682Y-11702198D02*
X9927205Y-11692674D01*
X9927205Y-11692674D02*
X9927205Y-11711722D01*
D10*
X8265000Y-12130000D02*
X8295000Y-12160000D01*
X8295000Y-12130000D02*
X8265000Y-12160000D01*
D11*
X8593872Y-12036484D02*
X8612920Y-12036484D01*
X8612920Y-12036484D02*
X8631967Y-12046008D01*
X8631967Y-12046008D02*
X8641491Y-12055531D01*
X8641491Y-12055531D02*
X8651015Y-12074579D01*
X8651015Y-12074579D02*
X8660539Y-12112674D01*
X8660539Y-12112674D02*
X8660539Y-12160293D01*
X8660539Y-12160293D02*
X8651015Y-12198388D01*
X8651015Y-12198388D02*
X8641491Y-12217436D01*
X8641491Y-12217436D02*
X8631967Y-12226960D01*
X8631967Y-12226960D02*
X8612920Y-12236484D01*
X8612920Y-12236484D02*
X8593872Y-12236484D01*
X8593872Y-12236484D02*
X8574824Y-12226960D01*
X8574824Y-12226960D02*
X8565301Y-12217436D01*
X8565301Y-12217436D02*
X8555777Y-12198388D01*
X8555777Y-12198388D02*
X8546253Y-12160293D01*
X8546253Y-12160293D02*
X8546253Y-12112674D01*
X8546253Y-12112674D02*
X8555777Y-12074579D01*
X8555777Y-12074579D02*
X8565301Y-12055531D01*
X8565301Y-12055531D02*
X8574824Y-12046008D01*
X8574824Y-12046008D02*
X8593872Y-12036484D01*
X8746253Y-12217436D02*
X8755777Y-12226960D01*
X8755777Y-12226960D02*
X8746253Y-12236484D01*
X8746253Y-12236484D02*
X8736729Y-12226960D01*
X8736729Y-12226960D02*
X8746253Y-12217436D01*
X8746253Y-12217436D02*
X8746253Y-12236484D01*
X8822444Y-12036484D02*
X8946253Y-12036484D01*
X8946253Y-12036484D02*
X8879586Y-12112674D01*
X8879586Y-12112674D02*
X8908158Y-12112674D01*
X8908158Y-12112674D02*
X8927205Y-12122198D01*
X8927205Y-12122198D02*
X8936729Y-12131722D01*
X8936729Y-12131722D02*
X8946253Y-12150769D01*
X8946253Y-12150769D02*
X8946253Y-12198388D01*
X8946253Y-12198388D02*
X8936729Y-12217436D01*
X8936729Y-12217436D02*
X8927205Y-12226960D01*
X8927205Y-12226960D02*
X8908158Y-12236484D01*
X8908158Y-12236484D02*
X8851015Y-12236484D01*
X8851015Y-12236484D02*
X8831967Y-12226960D01*
X8831967Y-12226960D02*
X8822444Y-12217436D01*
X9070063Y-12036484D02*
X9089110Y-12036484D01*
X9089110Y-12036484D02*
X9108158Y-12046008D01*
X9108158Y-12046008D02*
X9117682Y-12055531D01*
X9117682Y-12055531D02*
X9127205Y-12074579D01*
X9127205Y-12074579D02*
X9136729Y-12112674D01*
X9136729Y-12112674D02*
X9136729Y-12160293D01*
X9136729Y-12160293D02*
X9127205Y-12198388D01*
X9127205Y-12198388D02*
X9117682Y-12217436D01*
X9117682Y-12217436D02*
X9108158Y-12226960D01*
X9108158Y-12226960D02*
X9089110Y-12236484D01*
X9089110Y-12236484D02*
X9070063Y-12236484D01*
X9070063Y-12236484D02*
X9051015Y-12226960D01*
X9051015Y-12226960D02*
X9041491Y-12217436D01*
X9041491Y-12217436D02*
X9031967Y-12198388D01*
X9031967Y-12198388D02*
X9022444Y-12160293D01*
X9022444Y-12160293D02*
X9022444Y-12112674D01*
X9022444Y-12112674D02*
X9031967Y-12074579D01*
X9031967Y-12074579D02*
X9041491Y-12055531D01*
X9041491Y-12055531D02*
X9051015Y-12046008D01*
X9051015Y-12046008D02*
X9070063Y-12036484D01*
X9260539Y-12036484D02*
X9279586Y-12036484D01*
X9279586Y-12036484D02*
X9298634Y-12046008D01*
X9298634Y-12046008D02*
X9308158Y-12055531D01*
X9308158Y-12055531D02*
X9317682Y-12074579D01*
X9317682Y-12074579D02*
X9327205Y-12112674D01*
X9327205Y-12112674D02*
X9327205Y-12160293D01*
X9327205Y-12160293D02*
X9317682Y-12198388D01*
X9317682Y-12198388D02*
X9308158Y-12217436D01*
X9308158Y-12217436D02*
X9298634Y-12226960D01*
X9298634Y-12226960D02*
X9279586Y-12236484D01*
X9279586Y-12236484D02*
X9260539Y-12236484D01*
X9260539Y-12236484D02*
X9241491Y-12226960D01*
X9241491Y-12226960D02*
X9231967Y-12217436D01*
X9231967Y-12217436D02*
X9222444Y-12198388D01*
X9222444Y-12198388D02*
X9212920Y-12160293D01*
X9212920Y-12160293D02*
X9212920Y-12112674D01*
X9212920Y-12112674D02*
X9222444Y-12074579D01*
X9222444Y-12074579D02*
X9231967Y-12055531D01*
X9231967Y-12055531D02*
X9241491Y-12046008D01*
X9241491Y-12046008D02*
X9260539Y-12036484D01*
X9412920Y-12236484D02*
X9412920Y-12103150D01*
X9412920Y-12122198D02*
X9422444Y-12112674D01*
X9422444Y-12112674D02*
X9441491Y-12103150D01*
X9441491Y-12103150D02*
X9470063Y-12103150D01*
X9470063Y-12103150D02*
X9489110Y-12112674D01*
X9489110Y-12112674D02*
X9498634Y-12131722D01*
X9498634Y-12131722D02*
X9498634Y-12236484D01*
X9498634Y-12131722D02*
X9508158Y-12112674D01*
X9508158Y-12112674D02*
X9527205Y-12103150D01*
X9527205Y-12103150D02*
X9555777Y-12103150D01*
X9555777Y-12103150D02*
X9574825Y-12112674D01*
X9574825Y-12112674D02*
X9584348Y-12131722D01*
X9584348Y-12131722D02*
X9584348Y-12236484D01*
X9679586Y-12236484D02*
X9679586Y-12103150D01*
X9679586Y-12122198D02*
X9689110Y-12112674D01*
X9689110Y-12112674D02*
X9708158Y-12103150D01*
X9708158Y-12103150D02*
X9736729Y-12103150D01*
X9736729Y-12103150D02*
X9755777Y-12112674D01*
X9755777Y-12112674D02*
X9765301Y-12131722D01*
X9765301Y-12131722D02*
X9765301Y-12236484D01*
X9765301Y-12131722D02*
X9774825Y-12112674D01*
X9774825Y-12112674D02*
X9793872Y-12103150D01*
X9793872Y-12103150D02*
X9822444Y-12103150D01*
X9822444Y-12103150D02*
X9841491Y-12112674D01*
X9841491Y-12112674D02*
X9851015Y-12131722D01*
X9851015Y-12131722D02*
X9851015Y-12236484D01*
X10241491Y-12026960D02*
X10070063Y-12284103D01*
X10498634Y-12036484D02*
X10517682Y-12036484D01*
X10517682Y-12036484D02*
X10536729Y-12046008D01*
X10536729Y-12046008D02*
X10546253Y-12055531D01*
X10546253Y-12055531D02*
X10555777Y-12074579D01*
X10555777Y-12074579D02*
X10565301Y-12112674D01*
X10565301Y-12112674D02*
X10565301Y-12160293D01*
X10565301Y-12160293D02*
X10555777Y-12198388D01*
X10555777Y-12198388D02*
X10546253Y-12217436D01*
X10546253Y-12217436D02*
X10536729Y-12226960D01*
X10536729Y-12226960D02*
X10517682Y-12236484D01*
X10517682Y-12236484D02*
X10498634Y-12236484D01*
X10498634Y-12236484D02*
X10479587Y-12226960D01*
X10479587Y-12226960D02*
X10470063Y-12217436D01*
X10470063Y-12217436D02*
X10460539Y-12198388D01*
X10460539Y-12198388D02*
X10451015Y-12160293D01*
X10451015Y-12160293D02*
X10451015Y-12112674D01*
X10451015Y-12112674D02*
X10460539Y-12074579D01*
X10460539Y-12074579D02*
X10470063Y-12055531D01*
X10470063Y-12055531D02*
X10479587Y-12046008D01*
X10479587Y-12046008D02*
X10498634Y-12036484D01*
X10651015Y-12217436D02*
X10660539Y-12226960D01*
X10660539Y-12226960D02*
X10651015Y-12236484D01*
X10651015Y-12236484D02*
X10641491Y-12226960D01*
X10641491Y-12226960D02*
X10651015Y-12217436D01*
X10651015Y-12217436D02*
X10651015Y-12236484D01*
X10784348Y-12036484D02*
X10803396Y-12036484D01*
X10803396Y-12036484D02*
X10822444Y-12046008D01*
X10822444Y-12046008D02*
X10831968Y-12055531D01*
X10831968Y-12055531D02*
X10841491Y-12074579D01*
X10841491Y-12074579D02*
X10851015Y-12112674D01*
X10851015Y-12112674D02*
X10851015Y-12160293D01*
X10851015Y-12160293D02*
X10841491Y-12198388D01*
X10841491Y-12198388D02*
X10831968Y-12217436D01*
X10831968Y-12217436D02*
X10822444Y-12226960D01*
X10822444Y-12226960D02*
X10803396Y-12236484D01*
X10803396Y-12236484D02*
X10784348Y-12236484D01*
X10784348Y-12236484D02*
X10765301Y-12226960D01*
X10765301Y-12226960D02*
X10755777Y-12217436D01*
X10755777Y-12217436D02*
X10746253Y-12198388D01*
X10746253Y-12198388D02*
X10736729Y-12160293D01*
X10736729Y-12160293D02*
X10736729Y-12112674D01*
X10736729Y-12112674D02*
X10746253Y-12074579D01*
X10746253Y-12074579D02*
X10755777Y-12055531D01*
X10755777Y-12055531D02*
X10765301Y-12046008D01*
X10765301Y-12046008D02*
X10784348Y-12036484D01*
X11041491Y-12236484D02*
X10927206Y-12236484D01*
X10984348Y-12236484D02*
X10984348Y-12036484D01*
X10984348Y-12036484D02*
X10965301Y-12065055D01*
X10965301Y-12065055D02*
X10946253Y-12084103D01*
X10946253Y-12084103D02*
X10927206Y-12093627D01*
X11231967Y-12236484D02*
X11117682Y-12236484D01*
X11174825Y-12236484D02*
X11174825Y-12036484D01*
X11174825Y-12036484D02*
X11155777Y-12065055D01*
X11155777Y-12065055D02*
X11136729Y-12084103D01*
X11136729Y-12084103D02*
X11117682Y-12093627D01*
X11346253Y-12122198D02*
X11327206Y-12112674D01*
X11327206Y-12112674D02*
X11317682Y-12103150D01*
X11317682Y-12103150D02*
X11308158Y-12084103D01*
X11308158Y-12084103D02*
X11308158Y-12074579D01*
X11308158Y-12074579D02*
X11317682Y-12055531D01*
X11317682Y-12055531D02*
X11327206Y-12046008D01*
X11327206Y-12046008D02*
X11346253Y-12036484D01*
X11346253Y-12036484D02*
X11384348Y-12036484D01*
X11384348Y-12036484D02*
X11403396Y-12046008D01*
X11403396Y-12046008D02*
X11412920Y-12055531D01*
X11412920Y-12055531D02*
X11422444Y-12074579D01*
X11422444Y-12074579D02*
X11422444Y-12084103D01*
X11422444Y-12084103D02*
X11412920Y-12103150D01*
X11412920Y-12103150D02*
X11403396Y-12112674D01*
X11403396Y-12112674D02*
X11384348Y-12122198D01*
X11384348Y-12122198D02*
X11346253Y-12122198D01*
X11346253Y-12122198D02*
X11327206Y-12131722D01*
X11327206Y-12131722D02*
X11317682Y-12141246D01*
X11317682Y-12141246D02*
X11308158Y-12160293D01*
X11308158Y-12160293D02*
X11308158Y-12198388D01*
X11308158Y-12198388D02*
X11317682Y-12217436D01*
X11317682Y-12217436D02*
X11327206Y-12226960D01*
X11327206Y-12226960D02*
X11346253Y-12236484D01*
X11346253Y-12236484D02*
X11384348Y-12236484D01*
X11384348Y-12236484D02*
X11403396Y-12226960D01*
X11403396Y-12226960D02*
X11412920Y-12217436D01*
X11412920Y-12217436D02*
X11422444Y-12198388D01*
X11422444Y-12198388D02*
X11422444Y-12160293D01*
X11422444Y-12160293D02*
X11412920Y-12141246D01*
X11412920Y-12141246D02*
X11403396Y-12131722D01*
X11403396Y-12131722D02*
X11384348Y-12122198D01*
X11498634Y-12036484D02*
X11498634Y-12074579D01*
X11574825Y-12036484D02*
X11574825Y-12074579D01*
X11870063Y-12312674D02*
X11860539Y-12303150D01*
X11860539Y-12303150D02*
X11841491Y-12274579D01*
X11841491Y-12274579D02*
X11831968Y-12255531D01*
X11831968Y-12255531D02*
X11822444Y-12226960D01*
X11822444Y-12226960D02*
X11812920Y-12179341D01*
X11812920Y-12179341D02*
X11812920Y-12141246D01*
X11812920Y-12141246D02*
X11822444Y-12093627D01*
X11822444Y-12093627D02*
X11831968Y-12065055D01*
X11831968Y-12065055D02*
X11841491Y-12046008D01*
X11841491Y-12046008D02*
X11860539Y-12017436D01*
X11860539Y-12017436D02*
X11870063Y-12007912D01*
X12041491Y-12036484D02*
X11946253Y-12036484D01*
X11946253Y-12036484D02*
X11936729Y-12131722D01*
X11936729Y-12131722D02*
X11946253Y-12122198D01*
X11946253Y-12122198D02*
X11965301Y-12112674D01*
X11965301Y-12112674D02*
X12012920Y-12112674D01*
X12012920Y-12112674D02*
X12031968Y-12122198D01*
X12031968Y-12122198D02*
X12041491Y-12131722D01*
X12041491Y-12131722D02*
X12051015Y-12150769D01*
X12051015Y-12150769D02*
X12051015Y-12198388D01*
X12051015Y-12198388D02*
X12041491Y-12217436D01*
X12041491Y-12217436D02*
X12031968Y-12226960D01*
X12031968Y-12226960D02*
X12012920Y-12236484D01*
X12012920Y-12236484D02*
X11965301Y-12236484D01*
X11965301Y-12236484D02*
X11946253Y-12226960D01*
X11946253Y-12226960D02*
X11936729Y-12217436D01*
X12222444Y-12036484D02*
X12184348Y-12036484D01*
X12184348Y-12036484D02*
X12165301Y-12046008D01*
X12165301Y-12046008D02*
X12155777Y-12055531D01*
X12155777Y-12055531D02*
X12136729Y-12084103D01*
X12136729Y-12084103D02*
X12127206Y-12122198D01*
X12127206Y-12122198D02*
X12127206Y-12198388D01*
X12127206Y-12198388D02*
X12136729Y-12217436D01*
X12136729Y-12217436D02*
X12146253Y-12226960D01*
X12146253Y-12226960D02*
X12165301Y-12236484D01*
X12165301Y-12236484D02*
X12203396Y-12236484D01*
X12203396Y-12236484D02*
X12222444Y-12226960D01*
X12222444Y-12226960D02*
X12231968Y-12217436D01*
X12231968Y-12217436D02*
X12241491Y-12198388D01*
X12241491Y-12198388D02*
X12241491Y-12150769D01*
X12241491Y-12150769D02*
X12231968Y-12131722D01*
X12231968Y-12131722D02*
X12222444Y-12122198D01*
X12222444Y-12122198D02*
X12203396Y-12112674D01*
X12203396Y-12112674D02*
X12165301Y-12112674D01*
X12165301Y-12112674D02*
X12146253Y-12122198D01*
X12146253Y-12122198D02*
X12136729Y-12131722D01*
X12136729Y-12131722D02*
X12127206Y-12150769D01*
X12479587Y-12236484D02*
X12479587Y-12036484D01*
X12565301Y-12236484D02*
X12565301Y-12131722D01*
X12565301Y-12131722D02*
X12555777Y-12112674D01*
X12555777Y-12112674D02*
X12536730Y-12103150D01*
X12536730Y-12103150D02*
X12508158Y-12103150D01*
X12508158Y-12103150D02*
X12489110Y-12112674D01*
X12489110Y-12112674D02*
X12479587Y-12122198D01*
X12689110Y-12236484D02*
X12670063Y-12226960D01*
X12670063Y-12226960D02*
X12660539Y-12217436D01*
X12660539Y-12217436D02*
X12651015Y-12198388D01*
X12651015Y-12198388D02*
X12651015Y-12141246D01*
X12651015Y-12141246D02*
X12660539Y-12122198D01*
X12660539Y-12122198D02*
X12670063Y-12112674D01*
X12670063Y-12112674D02*
X12689110Y-12103150D01*
X12689110Y-12103150D02*
X12717682Y-12103150D01*
X12717682Y-12103150D02*
X12736730Y-12112674D01*
X12736730Y-12112674D02*
X12746253Y-12122198D01*
X12746253Y-12122198D02*
X12755777Y-12141246D01*
X12755777Y-12141246D02*
X12755777Y-12198388D01*
X12755777Y-12198388D02*
X12746253Y-12217436D01*
X12746253Y-12217436D02*
X12736730Y-12226960D01*
X12736730Y-12226960D02*
X12717682Y-12236484D01*
X12717682Y-12236484D02*
X12689110Y-12236484D01*
X12870063Y-12236484D02*
X12851015Y-12226960D01*
X12851015Y-12226960D02*
X12841491Y-12207912D01*
X12841491Y-12207912D02*
X12841491Y-12036484D01*
X13022444Y-12226960D02*
X13003396Y-12236484D01*
X13003396Y-12236484D02*
X12965301Y-12236484D01*
X12965301Y-12236484D02*
X12946253Y-12226960D01*
X12946253Y-12226960D02*
X12936730Y-12207912D01*
X12936730Y-12207912D02*
X12936730Y-12131722D01*
X12936730Y-12131722D02*
X12946253Y-12112674D01*
X12946253Y-12112674D02*
X12965301Y-12103150D01*
X12965301Y-12103150D02*
X13003396Y-12103150D01*
X13003396Y-12103150D02*
X13022444Y-12112674D01*
X13022444Y-12112674D02*
X13031968Y-12131722D01*
X13031968Y-12131722D02*
X13031968Y-12150769D01*
X13031968Y-12150769D02*
X12936730Y-12169817D01*
X13108158Y-12226960D02*
X13127206Y-12236484D01*
X13127206Y-12236484D02*
X13165301Y-12236484D01*
X13165301Y-12236484D02*
X13184349Y-12226960D01*
X13184349Y-12226960D02*
X13193872Y-12207912D01*
X13193872Y-12207912D02*
X13193872Y-12198388D01*
X13193872Y-12198388D02*
X13184349Y-12179341D01*
X13184349Y-12179341D02*
X13165301Y-12169817D01*
X13165301Y-12169817D02*
X13136730Y-12169817D01*
X13136730Y-12169817D02*
X13117682Y-12160293D01*
X13117682Y-12160293D02*
X13108158Y-12141246D01*
X13108158Y-12141246D02*
X13108158Y-12131722D01*
X13108158Y-12131722D02*
X13117682Y-12112674D01*
X13117682Y-12112674D02*
X13136730Y-12103150D01*
X13136730Y-12103150D02*
X13165301Y-12103150D01*
X13165301Y-12103150D02*
X13184349Y-12112674D01*
X13260539Y-12312674D02*
X13270063Y-12303150D01*
X13270063Y-12303150D02*
X13289111Y-12274579D01*
X13289111Y-12274579D02*
X13298634Y-12255531D01*
X13298634Y-12255531D02*
X13308158Y-12226960D01*
X13308158Y-12226960D02*
X13317682Y-12179341D01*
X13317682Y-12179341D02*
X13317682Y-12141246D01*
X13317682Y-12141246D02*
X13308158Y-12093627D01*
X13308158Y-12093627D02*
X13298634Y-12065055D01*
X13298634Y-12065055D02*
X13289111Y-12046008D01*
X13289111Y-12046008D02*
X13270063Y-12017436D01*
X13270063Y-12017436D02*
X13260539Y-12007912D01*
D10*
X8295000Y-12409000D02*
G75*
G02*
X8265000Y-12409000I-15000J0D01*
G01*
X8265000Y-12409000D02*
G75*
G02*
X8295000Y-12409000I15000J0D01*
G01*
D11*
X8593872Y-12300484D02*
X8612920Y-12300484D01*
X8612920Y-12300484D02*
X8631967Y-12310008D01*
X8631967Y-12310008D02*
X8641491Y-12319531D01*
X8641491Y-12319531D02*
X8651015Y-12338579D01*
X8651015Y-12338579D02*
X8660539Y-12376674D01*
X8660539Y-12376674D02*
X8660539Y-12424293D01*
X8660539Y-12424293D02*
X8651015Y-12462388D01*
X8651015Y-12462388D02*
X8641491Y-12481436D01*
X8641491Y-12481436D02*
X8631967Y-12490960D01*
X8631967Y-12490960D02*
X8612920Y-12500484D01*
X8612920Y-12500484D02*
X8593872Y-12500484D01*
X8593872Y-12500484D02*
X8574824Y-12490960D01*
X8574824Y-12490960D02*
X8565301Y-12481436D01*
X8565301Y-12481436D02*
X8555777Y-12462388D01*
X8555777Y-12462388D02*
X8546253Y-12424293D01*
X8546253Y-12424293D02*
X8546253Y-12376674D01*
X8546253Y-12376674D02*
X8555777Y-12338579D01*
X8555777Y-12338579D02*
X8565301Y-12319531D01*
X8565301Y-12319531D02*
X8574824Y-12310008D01*
X8574824Y-12310008D02*
X8593872Y-12300484D01*
X8746253Y-12481436D02*
X8755777Y-12490960D01*
X8755777Y-12490960D02*
X8746253Y-12500484D01*
X8746253Y-12500484D02*
X8736729Y-12490960D01*
X8736729Y-12490960D02*
X8746253Y-12481436D01*
X8746253Y-12481436D02*
X8746253Y-12500484D01*
X8822444Y-12300484D02*
X8946253Y-12300484D01*
X8946253Y-12300484D02*
X8879586Y-12376674D01*
X8879586Y-12376674D02*
X8908158Y-12376674D01*
X8908158Y-12376674D02*
X8927205Y-12386198D01*
X8927205Y-12386198D02*
X8936729Y-12395722D01*
X8936729Y-12395722D02*
X8946253Y-12414769D01*
X8946253Y-12414769D02*
X8946253Y-12462388D01*
X8946253Y-12462388D02*
X8936729Y-12481436D01*
X8936729Y-12481436D02*
X8927205Y-12490960D01*
X8927205Y-12490960D02*
X8908158Y-12500484D01*
X8908158Y-12500484D02*
X8851015Y-12500484D01*
X8851015Y-12500484D02*
X8831967Y-12490960D01*
X8831967Y-12490960D02*
X8822444Y-12481436D01*
X9070063Y-12300484D02*
X9089110Y-12300484D01*
X9089110Y-12300484D02*
X9108158Y-12310008D01*
X9108158Y-12310008D02*
X9117682Y-12319531D01*
X9117682Y-12319531D02*
X9127205Y-12338579D01*
X9127205Y-12338579D02*
X9136729Y-12376674D01*
X9136729Y-12376674D02*
X9136729Y-12424293D01*
X9136729Y-12424293D02*
X9127205Y-12462388D01*
X9127205Y-12462388D02*
X9117682Y-12481436D01*
X9117682Y-12481436D02*
X9108158Y-12490960D01*
X9108158Y-12490960D02*
X9089110Y-12500484D01*
X9089110Y-12500484D02*
X9070063Y-12500484D01*
X9070063Y-12500484D02*
X9051015Y-12490960D01*
X9051015Y-12490960D02*
X9041491Y-12481436D01*
X9041491Y-12481436D02*
X9031967Y-12462388D01*
X9031967Y-12462388D02*
X9022444Y-12424293D01*
X9022444Y-12424293D02*
X9022444Y-12376674D01*
X9022444Y-12376674D02*
X9031967Y-12338579D01*
X9031967Y-12338579D02*
X9041491Y-12319531D01*
X9041491Y-12319531D02*
X9051015Y-12310008D01*
X9051015Y-12310008D02*
X9070063Y-12300484D01*
X9260539Y-12300484D02*
X9279586Y-12300484D01*
X9279586Y-12300484D02*
X9298634Y-12310008D01*
X9298634Y-12310008D02*
X9308158Y-12319531D01*
X9308158Y-12319531D02*
X9317682Y-12338579D01*
X9317682Y-12338579D02*
X9327205Y-12376674D01*
X9327205Y-12376674D02*
X9327205Y-12424293D01*
X9327205Y-12424293D02*
X9317682Y-12462388D01*
X9317682Y-12462388D02*
X9308158Y-12481436D01*
X9308158Y-12481436D02*
X9298634Y-12490960D01*
X9298634Y-12490960D02*
X9279586Y-12500484D01*
X9279586Y-12500484D02*
X9260539Y-12500484D01*
X9260539Y-12500484D02*
X9241491Y-12490960D01*
X9241491Y-12490960D02*
X9231967Y-12481436D01*
X9231967Y-12481436D02*
X9222444Y-12462388D01*
X9222444Y-12462388D02*
X9212920Y-12424293D01*
X9212920Y-12424293D02*
X9212920Y-12376674D01*
X9212920Y-12376674D02*
X9222444Y-12338579D01*
X9222444Y-12338579D02*
X9231967Y-12319531D01*
X9231967Y-12319531D02*
X9241491Y-12310008D01*
X9241491Y-12310008D02*
X9260539Y-12300484D01*
X9412920Y-12500484D02*
X9412920Y-12367150D01*
X9412920Y-12386198D02*
X9422444Y-12376674D01*
X9422444Y-12376674D02*
X9441491Y-12367150D01*
X9441491Y-12367150D02*
X9470063Y-12367150D01*
X9470063Y-12367150D02*
X9489110Y-12376674D01*
X9489110Y-12376674D02*
X9498634Y-12395722D01*
X9498634Y-12395722D02*
X9498634Y-12500484D01*
X9498634Y-12395722D02*
X9508158Y-12376674D01*
X9508158Y-12376674D02*
X9527205Y-12367150D01*
X9527205Y-12367150D02*
X9555777Y-12367150D01*
X9555777Y-12367150D02*
X9574825Y-12376674D01*
X9574825Y-12376674D02*
X9584348Y-12395722D01*
X9584348Y-12395722D02*
X9584348Y-12500484D01*
X9679586Y-12500484D02*
X9679586Y-12367150D01*
X9679586Y-12386198D02*
X9689110Y-12376674D01*
X9689110Y-12376674D02*
X9708158Y-12367150D01*
X9708158Y-12367150D02*
X9736729Y-12367150D01*
X9736729Y-12367150D02*
X9755777Y-12376674D01*
X9755777Y-12376674D02*
X9765301Y-12395722D01*
X9765301Y-12395722D02*
X9765301Y-12500484D01*
X9765301Y-12395722D02*
X9774825Y-12376674D01*
X9774825Y-12376674D02*
X9793872Y-12367150D01*
X9793872Y-12367150D02*
X9822444Y-12367150D01*
X9822444Y-12367150D02*
X9841491Y-12376674D01*
X9841491Y-12376674D02*
X9851015Y-12395722D01*
X9851015Y-12395722D02*
X9851015Y-12500484D01*
X10241491Y-12290960D02*
X10070063Y-12548103D01*
X10498634Y-12300484D02*
X10517682Y-12300484D01*
X10517682Y-12300484D02*
X10536729Y-12310008D01*
X10536729Y-12310008D02*
X10546253Y-12319531D01*
X10546253Y-12319531D02*
X10555777Y-12338579D01*
X10555777Y-12338579D02*
X10565301Y-12376674D01*
X10565301Y-12376674D02*
X10565301Y-12424293D01*
X10565301Y-12424293D02*
X10555777Y-12462388D01*
X10555777Y-12462388D02*
X10546253Y-12481436D01*
X10546253Y-12481436D02*
X10536729Y-12490960D01*
X10536729Y-12490960D02*
X10517682Y-12500484D01*
X10517682Y-12500484D02*
X10498634Y-12500484D01*
X10498634Y-12500484D02*
X10479587Y-12490960D01*
X10479587Y-12490960D02*
X10470063Y-12481436D01*
X10470063Y-12481436D02*
X10460539Y-12462388D01*
X10460539Y-12462388D02*
X10451015Y-12424293D01*
X10451015Y-12424293D02*
X10451015Y-12376674D01*
X10451015Y-12376674D02*
X10460539Y-12338579D01*
X10460539Y-12338579D02*
X10470063Y-12319531D01*
X10470063Y-12319531D02*
X10479587Y-12310008D01*
X10479587Y-12310008D02*
X10498634Y-12300484D01*
X10651015Y-12481436D02*
X10660539Y-12490960D01*
X10660539Y-12490960D02*
X10651015Y-12500484D01*
X10651015Y-12500484D02*
X10641491Y-12490960D01*
X10641491Y-12490960D02*
X10651015Y-12481436D01*
X10651015Y-12481436D02*
X10651015Y-12500484D01*
X10784348Y-12300484D02*
X10803396Y-12300484D01*
X10803396Y-12300484D02*
X10822444Y-12310008D01*
X10822444Y-12310008D02*
X10831968Y-12319531D01*
X10831968Y-12319531D02*
X10841491Y-12338579D01*
X10841491Y-12338579D02*
X10851015Y-12376674D01*
X10851015Y-12376674D02*
X10851015Y-12424293D01*
X10851015Y-12424293D02*
X10841491Y-12462388D01*
X10841491Y-12462388D02*
X10831968Y-12481436D01*
X10831968Y-12481436D02*
X10822444Y-12490960D01*
X10822444Y-12490960D02*
X10803396Y-12500484D01*
X10803396Y-12500484D02*
X10784348Y-12500484D01*
X10784348Y-12500484D02*
X10765301Y-12490960D01*
X10765301Y-12490960D02*
X10755777Y-12481436D01*
X10755777Y-12481436D02*
X10746253Y-12462388D01*
X10746253Y-12462388D02*
X10736729Y-12424293D01*
X10736729Y-12424293D02*
X10736729Y-12376674D01*
X10736729Y-12376674D02*
X10746253Y-12338579D01*
X10746253Y-12338579D02*
X10755777Y-12319531D01*
X10755777Y-12319531D02*
X10765301Y-12310008D01*
X10765301Y-12310008D02*
X10784348Y-12300484D01*
X11041491Y-12500484D02*
X10927206Y-12500484D01*
X10984348Y-12500484D02*
X10984348Y-12300484D01*
X10984348Y-12300484D02*
X10965301Y-12329055D01*
X10965301Y-12329055D02*
X10946253Y-12348103D01*
X10946253Y-12348103D02*
X10927206Y-12357627D01*
X11231967Y-12500484D02*
X11117682Y-12500484D01*
X11174825Y-12500484D02*
X11174825Y-12300484D01*
X11174825Y-12300484D02*
X11155777Y-12329055D01*
X11155777Y-12329055D02*
X11136729Y-12348103D01*
X11136729Y-12348103D02*
X11117682Y-12357627D01*
X11346253Y-12386198D02*
X11327206Y-12376674D01*
X11327206Y-12376674D02*
X11317682Y-12367150D01*
X11317682Y-12367150D02*
X11308158Y-12348103D01*
X11308158Y-12348103D02*
X11308158Y-12338579D01*
X11308158Y-12338579D02*
X11317682Y-12319531D01*
X11317682Y-12319531D02*
X11327206Y-12310008D01*
X11327206Y-12310008D02*
X11346253Y-12300484D01*
X11346253Y-12300484D02*
X11384348Y-12300484D01*
X11384348Y-12300484D02*
X11403396Y-12310008D01*
X11403396Y-12310008D02*
X11412920Y-12319531D01*
X11412920Y-12319531D02*
X11422444Y-12338579D01*
X11422444Y-12338579D02*
X11422444Y-12348103D01*
X11422444Y-12348103D02*
X11412920Y-12367150D01*
X11412920Y-12367150D02*
X11403396Y-12376674D01*
X11403396Y-12376674D02*
X11384348Y-12386198D01*
X11384348Y-12386198D02*
X11346253Y-12386198D01*
X11346253Y-12386198D02*
X11327206Y-12395722D01*
X11327206Y-12395722D02*
X11317682Y-12405246D01*
X11317682Y-12405246D02*
X11308158Y-12424293D01*
X11308158Y-12424293D02*
X11308158Y-12462388D01*
X11308158Y-12462388D02*
X11317682Y-12481436D01*
X11317682Y-12481436D02*
X11327206Y-12490960D01*
X11327206Y-12490960D02*
X11346253Y-12500484D01*
X11346253Y-12500484D02*
X11384348Y-12500484D01*
X11384348Y-12500484D02*
X11403396Y-12490960D01*
X11403396Y-12490960D02*
X11412920Y-12481436D01*
X11412920Y-12481436D02*
X11422444Y-12462388D01*
X11422444Y-12462388D02*
X11422444Y-12424293D01*
X11422444Y-12424293D02*
X11412920Y-12405246D01*
X11412920Y-12405246D02*
X11403396Y-12395722D01*
X11403396Y-12395722D02*
X11384348Y-12386198D01*
X11498634Y-12300484D02*
X11498634Y-12338579D01*
X11574825Y-12300484D02*
X11574825Y-12338579D01*
X11870063Y-12576674D02*
X11860539Y-12567150D01*
X11860539Y-12567150D02*
X11841491Y-12538579D01*
X11841491Y-12538579D02*
X11831968Y-12519531D01*
X11831968Y-12519531D02*
X11822444Y-12490960D01*
X11822444Y-12490960D02*
X11812920Y-12443341D01*
X11812920Y-12443341D02*
X11812920Y-12405246D01*
X11812920Y-12405246D02*
X11822444Y-12357627D01*
X11822444Y-12357627D02*
X11831968Y-12329055D01*
X11831968Y-12329055D02*
X11841491Y-12310008D01*
X11841491Y-12310008D02*
X11860539Y-12281436D01*
X11860539Y-12281436D02*
X11870063Y-12271912D01*
X12051015Y-12500484D02*
X11936729Y-12500484D01*
X11993872Y-12500484D02*
X11993872Y-12300484D01*
X11993872Y-12300484D02*
X11974825Y-12329055D01*
X11974825Y-12329055D02*
X11955777Y-12348103D01*
X11955777Y-12348103D02*
X11936729Y-12357627D01*
X12127206Y-12319531D02*
X12136729Y-12310008D01*
X12136729Y-12310008D02*
X12155777Y-12300484D01*
X12155777Y-12300484D02*
X12203396Y-12300484D01*
X12203396Y-12300484D02*
X12222444Y-12310008D01*
X12222444Y-12310008D02*
X12231968Y-12319531D01*
X12231968Y-12319531D02*
X12241491Y-12338579D01*
X12241491Y-12338579D02*
X12241491Y-12357627D01*
X12241491Y-12357627D02*
X12231968Y-12386198D01*
X12231968Y-12386198D02*
X12117682Y-12500484D01*
X12117682Y-12500484D02*
X12241491Y-12500484D01*
X12479587Y-12500484D02*
X12479587Y-12300484D01*
X12565301Y-12500484D02*
X12565301Y-12395722D01*
X12565301Y-12395722D02*
X12555777Y-12376674D01*
X12555777Y-12376674D02*
X12536730Y-12367150D01*
X12536730Y-12367150D02*
X12508158Y-12367150D01*
X12508158Y-12367150D02*
X12489110Y-12376674D01*
X12489110Y-12376674D02*
X12479587Y-12386198D01*
X12689110Y-12500484D02*
X12670063Y-12490960D01*
X12670063Y-12490960D02*
X12660539Y-12481436D01*
X12660539Y-12481436D02*
X12651015Y-12462388D01*
X12651015Y-12462388D02*
X12651015Y-12405246D01*
X12651015Y-12405246D02*
X12660539Y-12386198D01*
X12660539Y-12386198D02*
X12670063Y-12376674D01*
X12670063Y-12376674D02*
X12689110Y-12367150D01*
X12689110Y-12367150D02*
X12717682Y-12367150D01*
X12717682Y-12367150D02*
X12736730Y-12376674D01*
X12736730Y-12376674D02*
X12746253Y-12386198D01*
X12746253Y-12386198D02*
X12755777Y-12405246D01*
X12755777Y-12405246D02*
X12755777Y-12462388D01*
X12755777Y-12462388D02*
X12746253Y-12481436D01*
X12746253Y-12481436D02*
X12736730Y-12490960D01*
X12736730Y-12490960D02*
X12717682Y-12500484D01*
X12717682Y-12500484D02*
X12689110Y-12500484D01*
X12870063Y-12500484D02*
X12851015Y-12490960D01*
X12851015Y-12490960D02*
X12841491Y-12471912D01*
X12841491Y-12471912D02*
X12841491Y-12300484D01*
X13022444Y-12490960D02*
X13003396Y-12500484D01*
X13003396Y-12500484D02*
X12965301Y-12500484D01*
X12965301Y-12500484D02*
X12946253Y-12490960D01*
X12946253Y-12490960D02*
X12936730Y-12471912D01*
X12936730Y-12471912D02*
X12936730Y-12395722D01*
X12936730Y-12395722D02*
X12946253Y-12376674D01*
X12946253Y-12376674D02*
X12965301Y-12367150D01*
X12965301Y-12367150D02*
X13003396Y-12367150D01*
X13003396Y-12367150D02*
X13022444Y-12376674D01*
X13022444Y-12376674D02*
X13031968Y-12395722D01*
X13031968Y-12395722D02*
X13031968Y-12414769D01*
X13031968Y-12414769D02*
X12936730Y-12433817D01*
X13108158Y-12490960D02*
X13127206Y-12500484D01*
X13127206Y-12500484D02*
X13165301Y-12500484D01*
X13165301Y-12500484D02*
X13184349Y-12490960D01*
X13184349Y-12490960D02*
X13193872Y-12471912D01*
X13193872Y-12471912D02*
X13193872Y-12462388D01*
X13193872Y-12462388D02*
X13184349Y-12443341D01*
X13184349Y-12443341D02*
X13165301Y-12433817D01*
X13165301Y-12433817D02*
X13136730Y-12433817D01*
X13136730Y-12433817D02*
X13117682Y-12424293D01*
X13117682Y-12424293D02*
X13108158Y-12405246D01*
X13108158Y-12405246D02*
X13108158Y-12395722D01*
X13108158Y-12395722D02*
X13117682Y-12376674D01*
X13117682Y-12376674D02*
X13136730Y-12367150D01*
X13136730Y-12367150D02*
X13165301Y-12367150D01*
X13165301Y-12367150D02*
X13184349Y-12376674D01*
X13260539Y-12576674D02*
X13270063Y-12567150D01*
X13270063Y-12567150D02*
X13289111Y-12538579D01*
X13289111Y-12538579D02*
X13298634Y-12519531D01*
X13298634Y-12519531D02*
X13308158Y-12490960D01*
X13308158Y-12490960D02*
X13317682Y-12443341D01*
X13317682Y-12443341D02*
X13317682Y-12405246D01*
X13317682Y-12405246D02*
X13308158Y-12357627D01*
X13308158Y-12357627D02*
X13298634Y-12329055D01*
X13298634Y-12329055D02*
X13289111Y-12310008D01*
X13289111Y-12310008D02*
X13270063Y-12281436D01*
X13270063Y-12281436D02*
X13260539Y-12271912D01*
D10*
X8265000Y-12643000D02*
X8265000Y-12703000D01*
X8235000Y-12673000D02*
X8295000Y-12673000D01*
D11*
X8593872Y-12564484D02*
X8612920Y-12564484D01*
X8612920Y-12564484D02*
X8631967Y-12574008D01*
X8631967Y-12574008D02*
X8641491Y-12583531D01*
X8641491Y-12583531D02*
X8651015Y-12602579D01*
X8651015Y-12602579D02*
X8660539Y-12640674D01*
X8660539Y-12640674D02*
X8660539Y-12688293D01*
X8660539Y-12688293D02*
X8651015Y-12726388D01*
X8651015Y-12726388D02*
X8641491Y-12745436D01*
X8641491Y-12745436D02*
X8631967Y-12754960D01*
X8631967Y-12754960D02*
X8612920Y-12764484D01*
X8612920Y-12764484D02*
X8593872Y-12764484D01*
X8593872Y-12764484D02*
X8574824Y-12754960D01*
X8574824Y-12754960D02*
X8565301Y-12745436D01*
X8565301Y-12745436D02*
X8555777Y-12726388D01*
X8555777Y-12726388D02*
X8546253Y-12688293D01*
X8546253Y-12688293D02*
X8546253Y-12640674D01*
X8546253Y-12640674D02*
X8555777Y-12602579D01*
X8555777Y-12602579D02*
X8565301Y-12583531D01*
X8565301Y-12583531D02*
X8574824Y-12574008D01*
X8574824Y-12574008D02*
X8593872Y-12564484D01*
X8746253Y-12745436D02*
X8755777Y-12754960D01*
X8755777Y-12754960D02*
X8746253Y-12764484D01*
X8746253Y-12764484D02*
X8736729Y-12754960D01*
X8736729Y-12754960D02*
X8746253Y-12745436D01*
X8746253Y-12745436D02*
X8746253Y-12764484D01*
X8927205Y-12564484D02*
X8889110Y-12564484D01*
X8889110Y-12564484D02*
X8870063Y-12574008D01*
X8870063Y-12574008D02*
X8860539Y-12583531D01*
X8860539Y-12583531D02*
X8841491Y-12612103D01*
X8841491Y-12612103D02*
X8831967Y-12650198D01*
X8831967Y-12650198D02*
X8831967Y-12726388D01*
X8831967Y-12726388D02*
X8841491Y-12745436D01*
X8841491Y-12745436D02*
X8851015Y-12754960D01*
X8851015Y-12754960D02*
X8870063Y-12764484D01*
X8870063Y-12764484D02*
X8908158Y-12764484D01*
X8908158Y-12764484D02*
X8927205Y-12754960D01*
X8927205Y-12754960D02*
X8936729Y-12745436D01*
X8936729Y-12745436D02*
X8946253Y-12726388D01*
X8946253Y-12726388D02*
X8946253Y-12678769D01*
X8946253Y-12678769D02*
X8936729Y-12659722D01*
X8936729Y-12659722D02*
X8927205Y-12650198D01*
X8927205Y-12650198D02*
X8908158Y-12640674D01*
X8908158Y-12640674D02*
X8870063Y-12640674D01*
X8870063Y-12640674D02*
X8851015Y-12650198D01*
X8851015Y-12650198D02*
X8841491Y-12659722D01*
X8841491Y-12659722D02*
X8831967Y-12678769D01*
X9070063Y-12564484D02*
X9089110Y-12564484D01*
X9089110Y-12564484D02*
X9108158Y-12574008D01*
X9108158Y-12574008D02*
X9117682Y-12583531D01*
X9117682Y-12583531D02*
X9127205Y-12602579D01*
X9127205Y-12602579D02*
X9136729Y-12640674D01*
X9136729Y-12640674D02*
X9136729Y-12688293D01*
X9136729Y-12688293D02*
X9127205Y-12726388D01*
X9127205Y-12726388D02*
X9117682Y-12745436D01*
X9117682Y-12745436D02*
X9108158Y-12754960D01*
X9108158Y-12754960D02*
X9089110Y-12764484D01*
X9089110Y-12764484D02*
X9070063Y-12764484D01*
X9070063Y-12764484D02*
X9051015Y-12754960D01*
X9051015Y-12754960D02*
X9041491Y-12745436D01*
X9041491Y-12745436D02*
X9031967Y-12726388D01*
X9031967Y-12726388D02*
X9022444Y-12688293D01*
X9022444Y-12688293D02*
X9022444Y-12640674D01*
X9022444Y-12640674D02*
X9031967Y-12602579D01*
X9031967Y-12602579D02*
X9041491Y-12583531D01*
X9041491Y-12583531D02*
X9051015Y-12574008D01*
X9051015Y-12574008D02*
X9070063Y-12564484D01*
X9260539Y-12564484D02*
X9279586Y-12564484D01*
X9279586Y-12564484D02*
X9298634Y-12574008D01*
X9298634Y-12574008D02*
X9308158Y-12583531D01*
X9308158Y-12583531D02*
X9317682Y-12602579D01*
X9317682Y-12602579D02*
X9327205Y-12640674D01*
X9327205Y-12640674D02*
X9327205Y-12688293D01*
X9327205Y-12688293D02*
X9317682Y-12726388D01*
X9317682Y-12726388D02*
X9308158Y-12745436D01*
X9308158Y-12745436D02*
X9298634Y-12754960D01*
X9298634Y-12754960D02*
X9279586Y-12764484D01*
X9279586Y-12764484D02*
X9260539Y-12764484D01*
X9260539Y-12764484D02*
X9241491Y-12754960D01*
X9241491Y-12754960D02*
X9231967Y-12745436D01*
X9231967Y-12745436D02*
X9222444Y-12726388D01*
X9222444Y-12726388D02*
X9212920Y-12688293D01*
X9212920Y-12688293D02*
X9212920Y-12640674D01*
X9212920Y-12640674D02*
X9222444Y-12602579D01*
X9222444Y-12602579D02*
X9231967Y-12583531D01*
X9231967Y-12583531D02*
X9241491Y-12574008D01*
X9241491Y-12574008D02*
X9260539Y-12564484D01*
X9412920Y-12764484D02*
X9412920Y-12631150D01*
X9412920Y-12650198D02*
X9422444Y-12640674D01*
X9422444Y-12640674D02*
X9441491Y-12631150D01*
X9441491Y-12631150D02*
X9470063Y-12631150D01*
X9470063Y-12631150D02*
X9489110Y-12640674D01*
X9489110Y-12640674D02*
X9498634Y-12659722D01*
X9498634Y-12659722D02*
X9498634Y-12764484D01*
X9498634Y-12659722D02*
X9508158Y-12640674D01*
X9508158Y-12640674D02*
X9527205Y-12631150D01*
X9527205Y-12631150D02*
X9555777Y-12631150D01*
X9555777Y-12631150D02*
X9574825Y-12640674D01*
X9574825Y-12640674D02*
X9584348Y-12659722D01*
X9584348Y-12659722D02*
X9584348Y-12764484D01*
X9679586Y-12764484D02*
X9679586Y-12631150D01*
X9679586Y-12650198D02*
X9689110Y-12640674D01*
X9689110Y-12640674D02*
X9708158Y-12631150D01*
X9708158Y-12631150D02*
X9736729Y-12631150D01*
X9736729Y-12631150D02*
X9755777Y-12640674D01*
X9755777Y-12640674D02*
X9765301Y-12659722D01*
X9765301Y-12659722D02*
X9765301Y-12764484D01*
X9765301Y-12659722D02*
X9774825Y-12640674D01*
X9774825Y-12640674D02*
X9793872Y-12631150D01*
X9793872Y-12631150D02*
X9822444Y-12631150D01*
X9822444Y-12631150D02*
X9841491Y-12640674D01*
X9841491Y-12640674D02*
X9851015Y-12659722D01*
X9851015Y-12659722D02*
X9851015Y-12764484D01*
X10241491Y-12554960D02*
X10070063Y-12812103D01*
X10498634Y-12564484D02*
X10517682Y-12564484D01*
X10517682Y-12564484D02*
X10536729Y-12574008D01*
X10536729Y-12574008D02*
X10546253Y-12583531D01*
X10546253Y-12583531D02*
X10555777Y-12602579D01*
X10555777Y-12602579D02*
X10565301Y-12640674D01*
X10565301Y-12640674D02*
X10565301Y-12688293D01*
X10565301Y-12688293D02*
X10555777Y-12726388D01*
X10555777Y-12726388D02*
X10546253Y-12745436D01*
X10546253Y-12745436D02*
X10536729Y-12754960D01*
X10536729Y-12754960D02*
X10517682Y-12764484D01*
X10517682Y-12764484D02*
X10498634Y-12764484D01*
X10498634Y-12764484D02*
X10479587Y-12754960D01*
X10479587Y-12754960D02*
X10470063Y-12745436D01*
X10470063Y-12745436D02*
X10460539Y-12726388D01*
X10460539Y-12726388D02*
X10451015Y-12688293D01*
X10451015Y-12688293D02*
X10451015Y-12640674D01*
X10451015Y-12640674D02*
X10460539Y-12602579D01*
X10460539Y-12602579D02*
X10470063Y-12583531D01*
X10470063Y-12583531D02*
X10479587Y-12574008D01*
X10479587Y-12574008D02*
X10498634Y-12564484D01*
X10651015Y-12745436D02*
X10660539Y-12754960D01*
X10660539Y-12754960D02*
X10651015Y-12764484D01*
X10651015Y-12764484D02*
X10641491Y-12754960D01*
X10641491Y-12754960D02*
X10651015Y-12745436D01*
X10651015Y-12745436D02*
X10651015Y-12764484D01*
X10784348Y-12564484D02*
X10803396Y-12564484D01*
X10803396Y-12564484D02*
X10822444Y-12574008D01*
X10822444Y-12574008D02*
X10831968Y-12583531D01*
X10831968Y-12583531D02*
X10841491Y-12602579D01*
X10841491Y-12602579D02*
X10851015Y-12640674D01*
X10851015Y-12640674D02*
X10851015Y-12688293D01*
X10851015Y-12688293D02*
X10841491Y-12726388D01*
X10841491Y-12726388D02*
X10831968Y-12745436D01*
X10831968Y-12745436D02*
X10822444Y-12754960D01*
X10822444Y-12754960D02*
X10803396Y-12764484D01*
X10803396Y-12764484D02*
X10784348Y-12764484D01*
X10784348Y-12764484D02*
X10765301Y-12754960D01*
X10765301Y-12754960D02*
X10755777Y-12745436D01*
X10755777Y-12745436D02*
X10746253Y-12726388D01*
X10746253Y-12726388D02*
X10736729Y-12688293D01*
X10736729Y-12688293D02*
X10736729Y-12640674D01*
X10736729Y-12640674D02*
X10746253Y-12602579D01*
X10746253Y-12602579D02*
X10755777Y-12583531D01*
X10755777Y-12583531D02*
X10765301Y-12574008D01*
X10765301Y-12574008D02*
X10784348Y-12564484D01*
X10927206Y-12583531D02*
X10936729Y-12574008D01*
X10936729Y-12574008D02*
X10955777Y-12564484D01*
X10955777Y-12564484D02*
X11003396Y-12564484D01*
X11003396Y-12564484D02*
X11022444Y-12574008D01*
X11022444Y-12574008D02*
X11031968Y-12583531D01*
X11031968Y-12583531D02*
X11041491Y-12602579D01*
X11041491Y-12602579D02*
X11041491Y-12621627D01*
X11041491Y-12621627D02*
X11031968Y-12650198D01*
X11031968Y-12650198D02*
X10917682Y-12764484D01*
X10917682Y-12764484D02*
X11041491Y-12764484D01*
X11108158Y-12564484D02*
X11231967Y-12564484D01*
X11231967Y-12564484D02*
X11165301Y-12640674D01*
X11165301Y-12640674D02*
X11193872Y-12640674D01*
X11193872Y-12640674D02*
X11212920Y-12650198D01*
X11212920Y-12650198D02*
X11222444Y-12659722D01*
X11222444Y-12659722D02*
X11231967Y-12678769D01*
X11231967Y-12678769D02*
X11231967Y-12726388D01*
X11231967Y-12726388D02*
X11222444Y-12745436D01*
X11222444Y-12745436D02*
X11212920Y-12754960D01*
X11212920Y-12754960D02*
X11193872Y-12764484D01*
X11193872Y-12764484D02*
X11136729Y-12764484D01*
X11136729Y-12764484D02*
X11117682Y-12754960D01*
X11117682Y-12754960D02*
X11108158Y-12745436D01*
X11403396Y-12564484D02*
X11365301Y-12564484D01*
X11365301Y-12564484D02*
X11346253Y-12574008D01*
X11346253Y-12574008D02*
X11336729Y-12583531D01*
X11336729Y-12583531D02*
X11317682Y-12612103D01*
X11317682Y-12612103D02*
X11308158Y-12650198D01*
X11308158Y-12650198D02*
X11308158Y-12726388D01*
X11308158Y-12726388D02*
X11317682Y-12745436D01*
X11317682Y-12745436D02*
X11327206Y-12754960D01*
X11327206Y-12754960D02*
X11346253Y-12764484D01*
X11346253Y-12764484D02*
X11384348Y-12764484D01*
X11384348Y-12764484D02*
X11403396Y-12754960D01*
X11403396Y-12754960D02*
X11412920Y-12745436D01*
X11412920Y-12745436D02*
X11422444Y-12726388D01*
X11422444Y-12726388D02*
X11422444Y-12678769D01*
X11422444Y-12678769D02*
X11412920Y-12659722D01*
X11412920Y-12659722D02*
X11403396Y-12650198D01*
X11403396Y-12650198D02*
X11384348Y-12640674D01*
X11384348Y-12640674D02*
X11346253Y-12640674D01*
X11346253Y-12640674D02*
X11327206Y-12650198D01*
X11327206Y-12650198D02*
X11317682Y-12659722D01*
X11317682Y-12659722D02*
X11308158Y-12678769D01*
X11498634Y-12564484D02*
X11498634Y-12602579D01*
X11574825Y-12564484D02*
X11574825Y-12602579D01*
X11870063Y-12840674D02*
X11860539Y-12831150D01*
X11860539Y-12831150D02*
X11841491Y-12802579D01*
X11841491Y-12802579D02*
X11831968Y-12783531D01*
X11831968Y-12783531D02*
X11822444Y-12754960D01*
X11822444Y-12754960D02*
X11812920Y-12707341D01*
X11812920Y-12707341D02*
X11812920Y-12669246D01*
X11812920Y-12669246D02*
X11822444Y-12621627D01*
X11822444Y-12621627D02*
X11831968Y-12593055D01*
X11831968Y-12593055D02*
X11841491Y-12574008D01*
X11841491Y-12574008D02*
X11860539Y-12545436D01*
X11860539Y-12545436D02*
X11870063Y-12535912D01*
X11984348Y-12564484D02*
X12003396Y-12564484D01*
X12003396Y-12564484D02*
X12022444Y-12574008D01*
X12022444Y-12574008D02*
X12031968Y-12583531D01*
X12031968Y-12583531D02*
X12041491Y-12602579D01*
X12041491Y-12602579D02*
X12051015Y-12640674D01*
X12051015Y-12640674D02*
X12051015Y-12688293D01*
X12051015Y-12688293D02*
X12041491Y-12726388D01*
X12041491Y-12726388D02*
X12031968Y-12745436D01*
X12031968Y-12745436D02*
X12022444Y-12754960D01*
X12022444Y-12754960D02*
X12003396Y-12764484D01*
X12003396Y-12764484D02*
X11984348Y-12764484D01*
X11984348Y-12764484D02*
X11965301Y-12754960D01*
X11965301Y-12754960D02*
X11955777Y-12745436D01*
X11955777Y-12745436D02*
X11946253Y-12726388D01*
X11946253Y-12726388D02*
X11936729Y-12688293D01*
X11936729Y-12688293D02*
X11936729Y-12640674D01*
X11936729Y-12640674D02*
X11946253Y-12602579D01*
X11946253Y-12602579D02*
X11955777Y-12583531D01*
X11955777Y-12583531D02*
X11965301Y-12574008D01*
X11965301Y-12574008D02*
X11984348Y-12564484D01*
X12289110Y-12764484D02*
X12289110Y-12564484D01*
X12374825Y-12764484D02*
X12374825Y-12659722D01*
X12374825Y-12659722D02*
X12365301Y-12640674D01*
X12365301Y-12640674D02*
X12346253Y-12631150D01*
X12346253Y-12631150D02*
X12317682Y-12631150D01*
X12317682Y-12631150D02*
X12298634Y-12640674D01*
X12298634Y-12640674D02*
X12289110Y-12650198D01*
X12498634Y-12764484D02*
X12479587Y-12754960D01*
X12479587Y-12754960D02*
X12470063Y-12745436D01*
X12470063Y-12745436D02*
X12460539Y-12726388D01*
X12460539Y-12726388D02*
X12460539Y-12669246D01*
X12460539Y-12669246D02*
X12470063Y-12650198D01*
X12470063Y-12650198D02*
X12479587Y-12640674D01*
X12479587Y-12640674D02*
X12498634Y-12631150D01*
X12498634Y-12631150D02*
X12527206Y-12631150D01*
X12527206Y-12631150D02*
X12546253Y-12640674D01*
X12546253Y-12640674D02*
X12555777Y-12650198D01*
X12555777Y-12650198D02*
X12565301Y-12669246D01*
X12565301Y-12669246D02*
X12565301Y-12726388D01*
X12565301Y-12726388D02*
X12555777Y-12745436D01*
X12555777Y-12745436D02*
X12546253Y-12754960D01*
X12546253Y-12754960D02*
X12527206Y-12764484D01*
X12527206Y-12764484D02*
X12498634Y-12764484D01*
X12679587Y-12764484D02*
X12660539Y-12754960D01*
X12660539Y-12754960D02*
X12651015Y-12735912D01*
X12651015Y-12735912D02*
X12651015Y-12564484D01*
X12831968Y-12754960D02*
X12812920Y-12764484D01*
X12812920Y-12764484D02*
X12774825Y-12764484D01*
X12774825Y-12764484D02*
X12755777Y-12754960D01*
X12755777Y-12754960D02*
X12746253Y-12735912D01*
X12746253Y-12735912D02*
X12746253Y-12659722D01*
X12746253Y-12659722D02*
X12755777Y-12640674D01*
X12755777Y-12640674D02*
X12774825Y-12631150D01*
X12774825Y-12631150D02*
X12812920Y-12631150D01*
X12812920Y-12631150D02*
X12831968Y-12640674D01*
X12831968Y-12640674D02*
X12841491Y-12659722D01*
X12841491Y-12659722D02*
X12841491Y-12678769D01*
X12841491Y-12678769D02*
X12746253Y-12697817D01*
X12917682Y-12754960D02*
X12936730Y-12764484D01*
X12936730Y-12764484D02*
X12974825Y-12764484D01*
X12974825Y-12764484D02*
X12993872Y-12754960D01*
X12993872Y-12754960D02*
X13003396Y-12735912D01*
X13003396Y-12735912D02*
X13003396Y-12726388D01*
X13003396Y-12726388D02*
X12993872Y-12707341D01*
X12993872Y-12707341D02*
X12974825Y-12697817D01*
X12974825Y-12697817D02*
X12946253Y-12697817D01*
X12946253Y-12697817D02*
X12927206Y-12688293D01*
X12927206Y-12688293D02*
X12917682Y-12669246D01*
X12917682Y-12669246D02*
X12917682Y-12659722D01*
X12917682Y-12659722D02*
X12927206Y-12640674D01*
X12927206Y-12640674D02*
X12946253Y-12631150D01*
X12946253Y-12631150D02*
X12974825Y-12631150D01*
X12974825Y-12631150D02*
X12993872Y-12640674D01*
X13241492Y-12688293D02*
X13393873Y-12688293D01*
X13317682Y-12764484D02*
X13317682Y-12612103D01*
X13727206Y-12631150D02*
X13727206Y-12764484D01*
X13679587Y-12554960D02*
X13631968Y-12697817D01*
X13631968Y-12697817D02*
X13755777Y-12697817D01*
X13974825Y-12754960D02*
X13993873Y-12764484D01*
X13993873Y-12764484D02*
X14031968Y-12764484D01*
X14031968Y-12764484D02*
X14051015Y-12754960D01*
X14051015Y-12754960D02*
X14060539Y-12735912D01*
X14060539Y-12735912D02*
X14060539Y-12726388D01*
X14060539Y-12726388D02*
X14051015Y-12707341D01*
X14051015Y-12707341D02*
X14031968Y-12697817D01*
X14031968Y-12697817D02*
X14003396Y-12697817D01*
X14003396Y-12697817D02*
X13984349Y-12688293D01*
X13984349Y-12688293D02*
X13974825Y-12669246D01*
X13974825Y-12669246D02*
X13974825Y-12659722D01*
X13974825Y-12659722D02*
X13984349Y-12640674D01*
X13984349Y-12640674D02*
X14003396Y-12631150D01*
X14003396Y-12631150D02*
X14031968Y-12631150D01*
X14031968Y-12631150D02*
X14051015Y-12640674D01*
X14174825Y-12764484D02*
X14155777Y-12754960D01*
X14155777Y-12754960D02*
X14146254Y-12735912D01*
X14146254Y-12735912D02*
X14146254Y-12564484D01*
X14279587Y-12764484D02*
X14260539Y-12754960D01*
X14260539Y-12754960D02*
X14251015Y-12745436D01*
X14251015Y-12745436D02*
X14241492Y-12726388D01*
X14241492Y-12726388D02*
X14241492Y-12669246D01*
X14241492Y-12669246D02*
X14251015Y-12650198D01*
X14251015Y-12650198D02*
X14260539Y-12640674D01*
X14260539Y-12640674D02*
X14279587Y-12631150D01*
X14279587Y-12631150D02*
X14308158Y-12631150D01*
X14308158Y-12631150D02*
X14327206Y-12640674D01*
X14327206Y-12640674D02*
X14336730Y-12650198D01*
X14336730Y-12650198D02*
X14346254Y-12669246D01*
X14346254Y-12669246D02*
X14346254Y-12726388D01*
X14346254Y-12726388D02*
X14336730Y-12745436D01*
X14336730Y-12745436D02*
X14327206Y-12754960D01*
X14327206Y-12754960D02*
X14308158Y-12764484D01*
X14308158Y-12764484D02*
X14279587Y-12764484D01*
X14403396Y-12631150D02*
X14479587Y-12631150D01*
X14431968Y-12564484D02*
X14431968Y-12735912D01*
X14431968Y-12735912D02*
X14441492Y-12754960D01*
X14441492Y-12754960D02*
X14460539Y-12764484D01*
X14460539Y-12764484D02*
X14479587Y-12764484D01*
X14536730Y-12754960D02*
X14555777Y-12764484D01*
X14555777Y-12764484D02*
X14593873Y-12764484D01*
X14593873Y-12764484D02*
X14612920Y-12754960D01*
X14612920Y-12754960D02*
X14622444Y-12735912D01*
X14622444Y-12735912D02*
X14622444Y-12726388D01*
X14622444Y-12726388D02*
X14612920Y-12707341D01*
X14612920Y-12707341D02*
X14593873Y-12697817D01*
X14593873Y-12697817D02*
X14565301Y-12697817D01*
X14565301Y-12697817D02*
X14546254Y-12688293D01*
X14546254Y-12688293D02*
X14536730Y-12669246D01*
X14536730Y-12669246D02*
X14536730Y-12659722D01*
X14536730Y-12659722D02*
X14546254Y-12640674D01*
X14546254Y-12640674D02*
X14565301Y-12631150D01*
X14565301Y-12631150D02*
X14593873Y-12631150D01*
X14593873Y-12631150D02*
X14612920Y-12640674D01*
X14689111Y-12840674D02*
X14698635Y-12831150D01*
X14698635Y-12831150D02*
X14717682Y-12802579D01*
X14717682Y-12802579D02*
X14727206Y-12783531D01*
X14727206Y-12783531D02*
X14736730Y-12754960D01*
X14736730Y-12754960D02*
X14746254Y-12707341D01*
X14746254Y-12707341D02*
X14746254Y-12669246D01*
X14746254Y-12669246D02*
X14736730Y-12621627D01*
X14736730Y-12621627D02*
X14727206Y-12593055D01*
X14727206Y-12593055D02*
X14717682Y-12574008D01*
X14717682Y-12574008D02*
X14698635Y-12545436D01*
X14698635Y-12545436D02*
X14689111Y-12535912D01*
D10*
X8280356Y-12972356D02*
X8280356Y-12901644D01*
X8209644Y-12901644D01*
X8209644Y-12972356D01*
X8280356Y-12972356D01*
D11*
X8660539Y-13028484D02*
X8546253Y-13028484D01*
X8603396Y-13028484D02*
X8603396Y-12828484D01*
X8603396Y-12828484D02*
X8584348Y-12857055D01*
X8584348Y-12857055D02*
X8565301Y-12876103D01*
X8565301Y-12876103D02*
X8546253Y-12885627D01*
X8746253Y-13009436D02*
X8755777Y-13018960D01*
X8755777Y-13018960D02*
X8746253Y-13028484D01*
X8746253Y-13028484D02*
X8736729Y-13018960D01*
X8736729Y-13018960D02*
X8746253Y-13009436D01*
X8746253Y-13009436D02*
X8746253Y-13028484D01*
X8879586Y-12828484D02*
X8898634Y-12828484D01*
X8898634Y-12828484D02*
X8917682Y-12838008D01*
X8917682Y-12838008D02*
X8927205Y-12847531D01*
X8927205Y-12847531D02*
X8936729Y-12866579D01*
X8936729Y-12866579D02*
X8946253Y-12904674D01*
X8946253Y-12904674D02*
X8946253Y-12952293D01*
X8946253Y-12952293D02*
X8936729Y-12990388D01*
X8936729Y-12990388D02*
X8927205Y-13009436D01*
X8927205Y-13009436D02*
X8917682Y-13018960D01*
X8917682Y-13018960D02*
X8898634Y-13028484D01*
X8898634Y-13028484D02*
X8879586Y-13028484D01*
X8879586Y-13028484D02*
X8860539Y-13018960D01*
X8860539Y-13018960D02*
X8851015Y-13009436D01*
X8851015Y-13009436D02*
X8841491Y-12990388D01*
X8841491Y-12990388D02*
X8831967Y-12952293D01*
X8831967Y-12952293D02*
X8831967Y-12904674D01*
X8831967Y-12904674D02*
X8841491Y-12866579D01*
X8841491Y-12866579D02*
X8851015Y-12847531D01*
X8851015Y-12847531D02*
X8860539Y-12838008D01*
X8860539Y-12838008D02*
X8879586Y-12828484D01*
X9070063Y-12828484D02*
X9089110Y-12828484D01*
X9089110Y-12828484D02*
X9108158Y-12838008D01*
X9108158Y-12838008D02*
X9117682Y-12847531D01*
X9117682Y-12847531D02*
X9127205Y-12866579D01*
X9127205Y-12866579D02*
X9136729Y-12904674D01*
X9136729Y-12904674D02*
X9136729Y-12952293D01*
X9136729Y-12952293D02*
X9127205Y-12990388D01*
X9127205Y-12990388D02*
X9117682Y-13009436D01*
X9117682Y-13009436D02*
X9108158Y-13018960D01*
X9108158Y-13018960D02*
X9089110Y-13028484D01*
X9089110Y-13028484D02*
X9070063Y-13028484D01*
X9070063Y-13028484D02*
X9051015Y-13018960D01*
X9051015Y-13018960D02*
X9041491Y-13009436D01*
X9041491Y-13009436D02*
X9031967Y-12990388D01*
X9031967Y-12990388D02*
X9022444Y-12952293D01*
X9022444Y-12952293D02*
X9022444Y-12904674D01*
X9022444Y-12904674D02*
X9031967Y-12866579D01*
X9031967Y-12866579D02*
X9041491Y-12847531D01*
X9041491Y-12847531D02*
X9051015Y-12838008D01*
X9051015Y-12838008D02*
X9070063Y-12828484D01*
X9260539Y-12828484D02*
X9279586Y-12828484D01*
X9279586Y-12828484D02*
X9298634Y-12838008D01*
X9298634Y-12838008D02*
X9308158Y-12847531D01*
X9308158Y-12847531D02*
X9317682Y-12866579D01*
X9317682Y-12866579D02*
X9327205Y-12904674D01*
X9327205Y-12904674D02*
X9327205Y-12952293D01*
X9327205Y-12952293D02*
X9317682Y-12990388D01*
X9317682Y-12990388D02*
X9308158Y-13009436D01*
X9308158Y-13009436D02*
X9298634Y-13018960D01*
X9298634Y-13018960D02*
X9279586Y-13028484D01*
X9279586Y-13028484D02*
X9260539Y-13028484D01*
X9260539Y-13028484D02*
X9241491Y-13018960D01*
X9241491Y-13018960D02*
X9231967Y-13009436D01*
X9231967Y-13009436D02*
X9222444Y-12990388D01*
X9222444Y-12990388D02*
X9212920Y-12952293D01*
X9212920Y-12952293D02*
X9212920Y-12904674D01*
X9212920Y-12904674D02*
X9222444Y-12866579D01*
X9222444Y-12866579D02*
X9231967Y-12847531D01*
X9231967Y-12847531D02*
X9241491Y-12838008D01*
X9241491Y-12838008D02*
X9260539Y-12828484D01*
X9412920Y-13028484D02*
X9412920Y-12895150D01*
X9412920Y-12914198D02*
X9422444Y-12904674D01*
X9422444Y-12904674D02*
X9441491Y-12895150D01*
X9441491Y-12895150D02*
X9470063Y-12895150D01*
X9470063Y-12895150D02*
X9489110Y-12904674D01*
X9489110Y-12904674D02*
X9498634Y-12923722D01*
X9498634Y-12923722D02*
X9498634Y-13028484D01*
X9498634Y-12923722D02*
X9508158Y-12904674D01*
X9508158Y-12904674D02*
X9527205Y-12895150D01*
X9527205Y-12895150D02*
X9555777Y-12895150D01*
X9555777Y-12895150D02*
X9574825Y-12904674D01*
X9574825Y-12904674D02*
X9584348Y-12923722D01*
X9584348Y-12923722D02*
X9584348Y-13028484D01*
X9679586Y-13028484D02*
X9679586Y-12895150D01*
X9679586Y-12914198D02*
X9689110Y-12904674D01*
X9689110Y-12904674D02*
X9708158Y-12895150D01*
X9708158Y-12895150D02*
X9736729Y-12895150D01*
X9736729Y-12895150D02*
X9755777Y-12904674D01*
X9755777Y-12904674D02*
X9765301Y-12923722D01*
X9765301Y-12923722D02*
X9765301Y-13028484D01*
X9765301Y-12923722D02*
X9774825Y-12904674D01*
X9774825Y-12904674D02*
X9793872Y-12895150D01*
X9793872Y-12895150D02*
X9822444Y-12895150D01*
X9822444Y-12895150D02*
X9841491Y-12904674D01*
X9841491Y-12904674D02*
X9851015Y-12923722D01*
X9851015Y-12923722D02*
X9851015Y-13028484D01*
X10241491Y-12818960D02*
X10070063Y-13076103D01*
X10498634Y-12828484D02*
X10517682Y-12828484D01*
X10517682Y-12828484D02*
X10536729Y-12838008D01*
X10536729Y-12838008D02*
X10546253Y-12847531D01*
X10546253Y-12847531D02*
X10555777Y-12866579D01*
X10555777Y-12866579D02*
X10565301Y-12904674D01*
X10565301Y-12904674D02*
X10565301Y-12952293D01*
X10565301Y-12952293D02*
X10555777Y-12990388D01*
X10555777Y-12990388D02*
X10546253Y-13009436D01*
X10546253Y-13009436D02*
X10536729Y-13018960D01*
X10536729Y-13018960D02*
X10517682Y-13028484D01*
X10517682Y-13028484D02*
X10498634Y-13028484D01*
X10498634Y-13028484D02*
X10479587Y-13018960D01*
X10479587Y-13018960D02*
X10470063Y-13009436D01*
X10470063Y-13009436D02*
X10460539Y-12990388D01*
X10460539Y-12990388D02*
X10451015Y-12952293D01*
X10451015Y-12952293D02*
X10451015Y-12904674D01*
X10451015Y-12904674D02*
X10460539Y-12866579D01*
X10460539Y-12866579D02*
X10470063Y-12847531D01*
X10470063Y-12847531D02*
X10479587Y-12838008D01*
X10479587Y-12838008D02*
X10498634Y-12828484D01*
X10651015Y-13009436D02*
X10660539Y-13018960D01*
X10660539Y-13018960D02*
X10651015Y-13028484D01*
X10651015Y-13028484D02*
X10641491Y-13018960D01*
X10641491Y-13018960D02*
X10651015Y-13009436D01*
X10651015Y-13009436D02*
X10651015Y-13028484D01*
X10784348Y-12828484D02*
X10803396Y-12828484D01*
X10803396Y-12828484D02*
X10822444Y-12838008D01*
X10822444Y-12838008D02*
X10831968Y-12847531D01*
X10831968Y-12847531D02*
X10841491Y-12866579D01*
X10841491Y-12866579D02*
X10851015Y-12904674D01*
X10851015Y-12904674D02*
X10851015Y-12952293D01*
X10851015Y-12952293D02*
X10841491Y-12990388D01*
X10841491Y-12990388D02*
X10831968Y-13009436D01*
X10831968Y-13009436D02*
X10822444Y-13018960D01*
X10822444Y-13018960D02*
X10803396Y-13028484D01*
X10803396Y-13028484D02*
X10784348Y-13028484D01*
X10784348Y-13028484D02*
X10765301Y-13018960D01*
X10765301Y-13018960D02*
X10755777Y-13009436D01*
X10755777Y-13009436D02*
X10746253Y-12990388D01*
X10746253Y-12990388D02*
X10736729Y-12952293D01*
X10736729Y-12952293D02*
X10736729Y-12904674D01*
X10736729Y-12904674D02*
X10746253Y-12866579D01*
X10746253Y-12866579D02*
X10755777Y-12847531D01*
X10755777Y-12847531D02*
X10765301Y-12838008D01*
X10765301Y-12838008D02*
X10784348Y-12828484D01*
X10917682Y-12828484D02*
X11041491Y-12828484D01*
X11041491Y-12828484D02*
X10974825Y-12904674D01*
X10974825Y-12904674D02*
X11003396Y-12904674D01*
X11003396Y-12904674D02*
X11022444Y-12914198D01*
X11022444Y-12914198D02*
X11031968Y-12923722D01*
X11031968Y-12923722D02*
X11041491Y-12942769D01*
X11041491Y-12942769D02*
X11041491Y-12990388D01*
X11041491Y-12990388D02*
X11031968Y-13009436D01*
X11031968Y-13009436D02*
X11022444Y-13018960D01*
X11022444Y-13018960D02*
X11003396Y-13028484D01*
X11003396Y-13028484D02*
X10946253Y-13028484D01*
X10946253Y-13028484D02*
X10927206Y-13018960D01*
X10927206Y-13018960D02*
X10917682Y-13009436D01*
X11136729Y-13028484D02*
X11174825Y-13028484D01*
X11174825Y-13028484D02*
X11193872Y-13018960D01*
X11193872Y-13018960D02*
X11203396Y-13009436D01*
X11203396Y-13009436D02*
X11222444Y-12980865D01*
X11222444Y-12980865D02*
X11231967Y-12942769D01*
X11231967Y-12942769D02*
X11231967Y-12866579D01*
X11231967Y-12866579D02*
X11222444Y-12847531D01*
X11222444Y-12847531D02*
X11212920Y-12838008D01*
X11212920Y-12838008D02*
X11193872Y-12828484D01*
X11193872Y-12828484D02*
X11155777Y-12828484D01*
X11155777Y-12828484D02*
X11136729Y-12838008D01*
X11136729Y-12838008D02*
X11127206Y-12847531D01*
X11127206Y-12847531D02*
X11117682Y-12866579D01*
X11117682Y-12866579D02*
X11117682Y-12914198D01*
X11117682Y-12914198D02*
X11127206Y-12933246D01*
X11127206Y-12933246D02*
X11136729Y-12942769D01*
X11136729Y-12942769D02*
X11155777Y-12952293D01*
X11155777Y-12952293D02*
X11193872Y-12952293D01*
X11193872Y-12952293D02*
X11212920Y-12942769D01*
X11212920Y-12942769D02*
X11222444Y-12933246D01*
X11222444Y-12933246D02*
X11231967Y-12914198D01*
X11403396Y-12895150D02*
X11403396Y-13028484D01*
X11355777Y-12818960D02*
X11308158Y-12961817D01*
X11308158Y-12961817D02*
X11431967Y-12961817D01*
X11498634Y-12828484D02*
X11498634Y-12866579D01*
X11574825Y-12828484D02*
X11574825Y-12866579D01*
X11870063Y-13104674D02*
X11860539Y-13095150D01*
X11860539Y-13095150D02*
X11841491Y-13066579D01*
X11841491Y-13066579D02*
X11831968Y-13047531D01*
X11831968Y-13047531D02*
X11822444Y-13018960D01*
X11822444Y-13018960D02*
X11812920Y-12971341D01*
X11812920Y-12971341D02*
X11812920Y-12933246D01*
X11812920Y-12933246D02*
X11822444Y-12885627D01*
X11822444Y-12885627D02*
X11831968Y-12857055D01*
X11831968Y-12857055D02*
X11841491Y-12838008D01*
X11841491Y-12838008D02*
X11860539Y-12809436D01*
X11860539Y-12809436D02*
X11870063Y-12799912D01*
X11927206Y-12828484D02*
X12051015Y-12828484D01*
X12051015Y-12828484D02*
X11984348Y-12904674D01*
X11984348Y-12904674D02*
X12012920Y-12904674D01*
X12012920Y-12904674D02*
X12031968Y-12914198D01*
X12031968Y-12914198D02*
X12041491Y-12923722D01*
X12041491Y-12923722D02*
X12051015Y-12942769D01*
X12051015Y-12942769D02*
X12051015Y-12990388D01*
X12051015Y-12990388D02*
X12041491Y-13009436D01*
X12041491Y-13009436D02*
X12031968Y-13018960D01*
X12031968Y-13018960D02*
X12012920Y-13028484D01*
X12012920Y-13028484D02*
X11955777Y-13028484D01*
X11955777Y-13028484D02*
X11936729Y-13018960D01*
X11936729Y-13018960D02*
X11927206Y-13009436D01*
X12127206Y-12847531D02*
X12136729Y-12838008D01*
X12136729Y-12838008D02*
X12155777Y-12828484D01*
X12155777Y-12828484D02*
X12203396Y-12828484D01*
X12203396Y-12828484D02*
X12222444Y-12838008D01*
X12222444Y-12838008D02*
X12231968Y-12847531D01*
X12231968Y-12847531D02*
X12241491Y-12866579D01*
X12241491Y-12866579D02*
X12241491Y-12885627D01*
X12241491Y-12885627D02*
X12231968Y-12914198D01*
X12231968Y-12914198D02*
X12117682Y-13028484D01*
X12117682Y-13028484D02*
X12241491Y-13028484D01*
X12479587Y-13028484D02*
X12479587Y-12828484D01*
X12565301Y-13028484D02*
X12565301Y-12923722D01*
X12565301Y-12923722D02*
X12555777Y-12904674D01*
X12555777Y-12904674D02*
X12536730Y-12895150D01*
X12536730Y-12895150D02*
X12508158Y-12895150D01*
X12508158Y-12895150D02*
X12489110Y-12904674D01*
X12489110Y-12904674D02*
X12479587Y-12914198D01*
X12689110Y-13028484D02*
X12670063Y-13018960D01*
X12670063Y-13018960D02*
X12660539Y-13009436D01*
X12660539Y-13009436D02*
X12651015Y-12990388D01*
X12651015Y-12990388D02*
X12651015Y-12933246D01*
X12651015Y-12933246D02*
X12660539Y-12914198D01*
X12660539Y-12914198D02*
X12670063Y-12904674D01*
X12670063Y-12904674D02*
X12689110Y-12895150D01*
X12689110Y-12895150D02*
X12717682Y-12895150D01*
X12717682Y-12895150D02*
X12736730Y-12904674D01*
X12736730Y-12904674D02*
X12746253Y-12914198D01*
X12746253Y-12914198D02*
X12755777Y-12933246D01*
X12755777Y-12933246D02*
X12755777Y-12990388D01*
X12755777Y-12990388D02*
X12746253Y-13009436D01*
X12746253Y-13009436D02*
X12736730Y-13018960D01*
X12736730Y-13018960D02*
X12717682Y-13028484D01*
X12717682Y-13028484D02*
X12689110Y-13028484D01*
X12870063Y-13028484D02*
X12851015Y-13018960D01*
X12851015Y-13018960D02*
X12841491Y-12999912D01*
X12841491Y-12999912D02*
X12841491Y-12828484D01*
X13022444Y-13018960D02*
X13003396Y-13028484D01*
X13003396Y-13028484D02*
X12965301Y-13028484D01*
X12965301Y-13028484D02*
X12946253Y-13018960D01*
X12946253Y-13018960D02*
X12936730Y-12999912D01*
X12936730Y-12999912D02*
X12936730Y-12923722D01*
X12936730Y-12923722D02*
X12946253Y-12904674D01*
X12946253Y-12904674D02*
X12965301Y-12895150D01*
X12965301Y-12895150D02*
X13003396Y-12895150D01*
X13003396Y-12895150D02*
X13022444Y-12904674D01*
X13022444Y-12904674D02*
X13031968Y-12923722D01*
X13031968Y-12923722D02*
X13031968Y-12942769D01*
X13031968Y-12942769D02*
X12936730Y-12961817D01*
X13108158Y-13018960D02*
X13127206Y-13028484D01*
X13127206Y-13028484D02*
X13165301Y-13028484D01*
X13165301Y-13028484D02*
X13184349Y-13018960D01*
X13184349Y-13018960D02*
X13193872Y-12999912D01*
X13193872Y-12999912D02*
X13193872Y-12990388D01*
X13193872Y-12990388D02*
X13184349Y-12971341D01*
X13184349Y-12971341D02*
X13165301Y-12961817D01*
X13165301Y-12961817D02*
X13136730Y-12961817D01*
X13136730Y-12961817D02*
X13117682Y-12952293D01*
X13117682Y-12952293D02*
X13108158Y-12933246D01*
X13108158Y-12933246D02*
X13108158Y-12923722D01*
X13108158Y-12923722D02*
X13117682Y-12904674D01*
X13117682Y-12904674D02*
X13136730Y-12895150D01*
X13136730Y-12895150D02*
X13165301Y-12895150D01*
X13165301Y-12895150D02*
X13184349Y-12904674D01*
X13260539Y-13104674D02*
X13270063Y-13095150D01*
X13270063Y-13095150D02*
X13289111Y-13066579D01*
X13289111Y-13066579D02*
X13298634Y-13047531D01*
X13298634Y-13047531D02*
X13308158Y-13018960D01*
X13308158Y-13018960D02*
X13317682Y-12971341D01*
X13317682Y-12971341D02*
X13317682Y-12933246D01*
X13317682Y-12933246D02*
X13308158Y-12885627D01*
X13308158Y-12885627D02*
X13298634Y-12857055D01*
X13298634Y-12857055D02*
X13289111Y-12838008D01*
X13289111Y-12838008D02*
X13270063Y-12809436D01*
X13270063Y-12809436D02*
X13260539Y-12799912D01*
M02*
