G04 #@! TF.GenerationSoftware,KiCad,Pcbnew,8.0.2*
G04 #@! TF.CreationDate,2024-05-24T09:08:15+10:00*
G04 #@! TF.ProjectId,design,64657369-676e-42e6-9b69-6361645f7063,rev?*
G04 #@! TF.SameCoordinates,Original*
G04 #@! TF.FileFunction,AssemblyDrawing,Bot*
%FSLAX46Y46*%
G04 Gerber Fmt 4.6, Leading zero omitted, Abs format (unit mm)*
G04 Created by KiCad (PCBNEW 8.0.2) date 2024-05-24 09:08:15*
%MOMM*%
%LPD*%
G01*
G04 APERTURE LIST*
%ADD10C,0.150000*%
%ADD11C,0.100000*%
G04 #@! TA.AperFunction,Profile*
%ADD12C,0.100000*%
G04 #@! TD*
G04 APERTURE END LIST*
D10*
X88238095Y-110249580D02*
X88285714Y-110297200D01*
X88285714Y-110297200D02*
X88428571Y-110344819D01*
X88428571Y-110344819D02*
X88523809Y-110344819D01*
X88523809Y-110344819D02*
X88666666Y-110297200D01*
X88666666Y-110297200D02*
X88761904Y-110201961D01*
X88761904Y-110201961D02*
X88809523Y-110106723D01*
X88809523Y-110106723D02*
X88857142Y-109916247D01*
X88857142Y-109916247D02*
X88857142Y-109773390D01*
X88857142Y-109773390D02*
X88809523Y-109582914D01*
X88809523Y-109582914D02*
X88761904Y-109487676D01*
X88761904Y-109487676D02*
X88666666Y-109392438D01*
X88666666Y-109392438D02*
X88523809Y-109344819D01*
X88523809Y-109344819D02*
X88428571Y-109344819D01*
X88428571Y-109344819D02*
X88285714Y-109392438D01*
X88285714Y-109392438D02*
X88238095Y-109440057D01*
X87666666Y-110344819D02*
X87761904Y-110297200D01*
X87761904Y-110297200D02*
X87809523Y-110249580D01*
X87809523Y-110249580D02*
X87857142Y-110154342D01*
X87857142Y-110154342D02*
X87857142Y-109868628D01*
X87857142Y-109868628D02*
X87809523Y-109773390D01*
X87809523Y-109773390D02*
X87761904Y-109725771D01*
X87761904Y-109725771D02*
X87666666Y-109678152D01*
X87666666Y-109678152D02*
X87523809Y-109678152D01*
X87523809Y-109678152D02*
X87428571Y-109725771D01*
X87428571Y-109725771D02*
X87380952Y-109773390D01*
X87380952Y-109773390D02*
X87333333Y-109868628D01*
X87333333Y-109868628D02*
X87333333Y-110154342D01*
X87333333Y-110154342D02*
X87380952Y-110249580D01*
X87380952Y-110249580D02*
X87428571Y-110297200D01*
X87428571Y-110297200D02*
X87523809Y-110344819D01*
X87523809Y-110344819D02*
X87666666Y-110344819D01*
X86904761Y-109678152D02*
X86904761Y-110344819D01*
X86904761Y-109773390D02*
X86857142Y-109725771D01*
X86857142Y-109725771D02*
X86761904Y-109678152D01*
X86761904Y-109678152D02*
X86619047Y-109678152D01*
X86619047Y-109678152D02*
X86523809Y-109725771D01*
X86523809Y-109725771D02*
X86476190Y-109821009D01*
X86476190Y-109821009D02*
X86476190Y-110344819D01*
X85999999Y-109678152D02*
X85999999Y-110344819D01*
X85999999Y-109773390D02*
X85952380Y-109725771D01*
X85952380Y-109725771D02*
X85857142Y-109678152D01*
X85857142Y-109678152D02*
X85714285Y-109678152D01*
X85714285Y-109678152D02*
X85619047Y-109725771D01*
X85619047Y-109725771D02*
X85571428Y-109821009D01*
X85571428Y-109821009D02*
X85571428Y-110344819D01*
X85333333Y-110440057D02*
X84571428Y-110440057D01*
X84142856Y-109344819D02*
X84047618Y-109344819D01*
X84047618Y-109344819D02*
X83952380Y-109392438D01*
X83952380Y-109392438D02*
X83904761Y-109440057D01*
X83904761Y-109440057D02*
X83857142Y-109535295D01*
X83857142Y-109535295D02*
X83809523Y-109725771D01*
X83809523Y-109725771D02*
X83809523Y-109963866D01*
X83809523Y-109963866D02*
X83857142Y-110154342D01*
X83857142Y-110154342D02*
X83904761Y-110249580D01*
X83904761Y-110249580D02*
X83952380Y-110297200D01*
X83952380Y-110297200D02*
X84047618Y-110344819D01*
X84047618Y-110344819D02*
X84142856Y-110344819D01*
X84142856Y-110344819D02*
X84238094Y-110297200D01*
X84238094Y-110297200D02*
X84285713Y-110249580D01*
X84285713Y-110249580D02*
X84333332Y-110154342D01*
X84333332Y-110154342D02*
X84380951Y-109963866D01*
X84380951Y-109963866D02*
X84380951Y-109725771D01*
X84380951Y-109725771D02*
X84333332Y-109535295D01*
X84333332Y-109535295D02*
X84285713Y-109440057D01*
X84285713Y-109440057D02*
X84238094Y-109392438D01*
X84238094Y-109392438D02*
X84142856Y-109344819D01*
X82857142Y-110344819D02*
X83428570Y-110344819D01*
X83142856Y-110344819D02*
X83142856Y-109344819D01*
X83142856Y-109344819D02*
X83238094Y-109487676D01*
X83238094Y-109487676D02*
X83333332Y-109582914D01*
X83333332Y-109582914D02*
X83428570Y-109630533D01*
X82523808Y-110344819D02*
X81999999Y-109678152D01*
X82523808Y-109678152D02*
X81999999Y-110344819D01*
X81095237Y-110344819D02*
X81666665Y-110344819D01*
X81380951Y-110344819D02*
X81380951Y-109344819D01*
X81380951Y-109344819D02*
X81476189Y-109487676D01*
X81476189Y-109487676D02*
X81571427Y-109582914D01*
X81571427Y-109582914D02*
X81666665Y-109630533D01*
X80190475Y-109344819D02*
X80666665Y-109344819D01*
X80666665Y-109344819D02*
X80714284Y-109821009D01*
X80714284Y-109821009D02*
X80666665Y-109773390D01*
X80666665Y-109773390D02*
X80571427Y-109725771D01*
X80571427Y-109725771D02*
X80333332Y-109725771D01*
X80333332Y-109725771D02*
X80238094Y-109773390D01*
X80238094Y-109773390D02*
X80190475Y-109821009D01*
X80190475Y-109821009D02*
X80142856Y-109916247D01*
X80142856Y-109916247D02*
X80142856Y-110154342D01*
X80142856Y-110154342D02*
X80190475Y-110249580D01*
X80190475Y-110249580D02*
X80238094Y-110297200D01*
X80238094Y-110297200D02*
X80333332Y-110344819D01*
X80333332Y-110344819D02*
X80571427Y-110344819D01*
X80571427Y-110344819D02*
X80666665Y-110297200D01*
X80666665Y-110297200D02*
X80714284Y-110249580D01*
X83954819Y-89446666D02*
X84669104Y-89446666D01*
X84669104Y-89446666D02*
X84811961Y-89399047D01*
X84811961Y-89399047D02*
X84907200Y-89303809D01*
X84907200Y-89303809D02*
X84954819Y-89160952D01*
X84954819Y-89160952D02*
X84954819Y-89065714D01*
X84050057Y-89875238D02*
X84002438Y-89922857D01*
X84002438Y-89922857D02*
X83954819Y-90018095D01*
X83954819Y-90018095D02*
X83954819Y-90256190D01*
X83954819Y-90256190D02*
X84002438Y-90351428D01*
X84002438Y-90351428D02*
X84050057Y-90399047D01*
X84050057Y-90399047D02*
X84145295Y-90446666D01*
X84145295Y-90446666D02*
X84240533Y-90446666D01*
X84240533Y-90446666D02*
X84383390Y-90399047D01*
X84383390Y-90399047D02*
X84954819Y-89827619D01*
X84954819Y-89827619D02*
X84954819Y-90446666D01*
X119238095Y-110249580D02*
X119285714Y-110297200D01*
X119285714Y-110297200D02*
X119428571Y-110344819D01*
X119428571Y-110344819D02*
X119523809Y-110344819D01*
X119523809Y-110344819D02*
X119666666Y-110297200D01*
X119666666Y-110297200D02*
X119761904Y-110201961D01*
X119761904Y-110201961D02*
X119809523Y-110106723D01*
X119809523Y-110106723D02*
X119857142Y-109916247D01*
X119857142Y-109916247D02*
X119857142Y-109773390D01*
X119857142Y-109773390D02*
X119809523Y-109582914D01*
X119809523Y-109582914D02*
X119761904Y-109487676D01*
X119761904Y-109487676D02*
X119666666Y-109392438D01*
X119666666Y-109392438D02*
X119523809Y-109344819D01*
X119523809Y-109344819D02*
X119428571Y-109344819D01*
X119428571Y-109344819D02*
X119285714Y-109392438D01*
X119285714Y-109392438D02*
X119238095Y-109440057D01*
X118666666Y-110344819D02*
X118761904Y-110297200D01*
X118761904Y-110297200D02*
X118809523Y-110249580D01*
X118809523Y-110249580D02*
X118857142Y-110154342D01*
X118857142Y-110154342D02*
X118857142Y-109868628D01*
X118857142Y-109868628D02*
X118809523Y-109773390D01*
X118809523Y-109773390D02*
X118761904Y-109725771D01*
X118761904Y-109725771D02*
X118666666Y-109678152D01*
X118666666Y-109678152D02*
X118523809Y-109678152D01*
X118523809Y-109678152D02*
X118428571Y-109725771D01*
X118428571Y-109725771D02*
X118380952Y-109773390D01*
X118380952Y-109773390D02*
X118333333Y-109868628D01*
X118333333Y-109868628D02*
X118333333Y-110154342D01*
X118333333Y-110154342D02*
X118380952Y-110249580D01*
X118380952Y-110249580D02*
X118428571Y-110297200D01*
X118428571Y-110297200D02*
X118523809Y-110344819D01*
X118523809Y-110344819D02*
X118666666Y-110344819D01*
X117904761Y-109678152D02*
X117904761Y-110344819D01*
X117904761Y-109773390D02*
X117857142Y-109725771D01*
X117857142Y-109725771D02*
X117761904Y-109678152D01*
X117761904Y-109678152D02*
X117619047Y-109678152D01*
X117619047Y-109678152D02*
X117523809Y-109725771D01*
X117523809Y-109725771D02*
X117476190Y-109821009D01*
X117476190Y-109821009D02*
X117476190Y-110344819D01*
X116999999Y-109678152D02*
X116999999Y-110344819D01*
X116999999Y-109773390D02*
X116952380Y-109725771D01*
X116952380Y-109725771D02*
X116857142Y-109678152D01*
X116857142Y-109678152D02*
X116714285Y-109678152D01*
X116714285Y-109678152D02*
X116619047Y-109725771D01*
X116619047Y-109725771D02*
X116571428Y-109821009D01*
X116571428Y-109821009D02*
X116571428Y-110344819D01*
X116333333Y-110440057D02*
X115571428Y-110440057D01*
X115142856Y-109344819D02*
X115047618Y-109344819D01*
X115047618Y-109344819D02*
X114952380Y-109392438D01*
X114952380Y-109392438D02*
X114904761Y-109440057D01*
X114904761Y-109440057D02*
X114857142Y-109535295D01*
X114857142Y-109535295D02*
X114809523Y-109725771D01*
X114809523Y-109725771D02*
X114809523Y-109963866D01*
X114809523Y-109963866D02*
X114857142Y-110154342D01*
X114857142Y-110154342D02*
X114904761Y-110249580D01*
X114904761Y-110249580D02*
X114952380Y-110297200D01*
X114952380Y-110297200D02*
X115047618Y-110344819D01*
X115047618Y-110344819D02*
X115142856Y-110344819D01*
X115142856Y-110344819D02*
X115238094Y-110297200D01*
X115238094Y-110297200D02*
X115285713Y-110249580D01*
X115285713Y-110249580D02*
X115333332Y-110154342D01*
X115333332Y-110154342D02*
X115380951Y-109963866D01*
X115380951Y-109963866D02*
X115380951Y-109725771D01*
X115380951Y-109725771D02*
X115333332Y-109535295D01*
X115333332Y-109535295D02*
X115285713Y-109440057D01*
X115285713Y-109440057D02*
X115238094Y-109392438D01*
X115238094Y-109392438D02*
X115142856Y-109344819D01*
X113857142Y-110344819D02*
X114428570Y-110344819D01*
X114142856Y-110344819D02*
X114142856Y-109344819D01*
X114142856Y-109344819D02*
X114238094Y-109487676D01*
X114238094Y-109487676D02*
X114333332Y-109582914D01*
X114333332Y-109582914D02*
X114428570Y-109630533D01*
X113523808Y-110344819D02*
X112999999Y-109678152D01*
X113523808Y-109678152D02*
X112999999Y-110344819D01*
X112095237Y-110344819D02*
X112666665Y-110344819D01*
X112380951Y-110344819D02*
X112380951Y-109344819D01*
X112380951Y-109344819D02*
X112476189Y-109487676D01*
X112476189Y-109487676D02*
X112571427Y-109582914D01*
X112571427Y-109582914D02*
X112666665Y-109630533D01*
X111190475Y-109344819D02*
X111666665Y-109344819D01*
X111666665Y-109344819D02*
X111714284Y-109821009D01*
X111714284Y-109821009D02*
X111666665Y-109773390D01*
X111666665Y-109773390D02*
X111571427Y-109725771D01*
X111571427Y-109725771D02*
X111333332Y-109725771D01*
X111333332Y-109725771D02*
X111238094Y-109773390D01*
X111238094Y-109773390D02*
X111190475Y-109821009D01*
X111190475Y-109821009D02*
X111142856Y-109916247D01*
X111142856Y-109916247D02*
X111142856Y-110154342D01*
X111142856Y-110154342D02*
X111190475Y-110249580D01*
X111190475Y-110249580D02*
X111238094Y-110297200D01*
X111238094Y-110297200D02*
X111333332Y-110344819D01*
X111333332Y-110344819D02*
X111571427Y-110344819D01*
X111571427Y-110344819D02*
X111666665Y-110297200D01*
X111666665Y-110297200D02*
X111714284Y-110249580D01*
X114954819Y-89446666D02*
X115669104Y-89446666D01*
X115669104Y-89446666D02*
X115811961Y-89399047D01*
X115811961Y-89399047D02*
X115907200Y-89303809D01*
X115907200Y-89303809D02*
X115954819Y-89160952D01*
X115954819Y-89160952D02*
X115954819Y-89065714D01*
X114954819Y-89827619D02*
X114954819Y-90446666D01*
X114954819Y-90446666D02*
X115335771Y-90113333D01*
X115335771Y-90113333D02*
X115335771Y-90256190D01*
X115335771Y-90256190D02*
X115383390Y-90351428D01*
X115383390Y-90351428D02*
X115431009Y-90399047D01*
X115431009Y-90399047D02*
X115526247Y-90446666D01*
X115526247Y-90446666D02*
X115764342Y-90446666D01*
X115764342Y-90446666D02*
X115859580Y-90399047D01*
X115859580Y-90399047D02*
X115907200Y-90351428D01*
X115907200Y-90351428D02*
X115954819Y-90256190D01*
X115954819Y-90256190D02*
X115954819Y-89970476D01*
X115954819Y-89970476D02*
X115907200Y-89875238D01*
X115907200Y-89875238D02*
X115859580Y-89827619D01*
D11*
G04 #@! TO.C,J2*
X83230000Y-70730000D02*
X85135000Y-70730000D01*
X83230000Y-108830000D02*
X83230000Y-70730000D01*
X85135000Y-70730000D02*
X85770000Y-71365000D01*
X85770000Y-71365000D02*
X85770000Y-108830000D01*
X85770000Y-108830000D02*
X83230000Y-108830000D01*
G04 #@! TO.C,J3*
X114230000Y-70730000D02*
X116135000Y-70730000D01*
X114230000Y-108830000D02*
X114230000Y-70730000D01*
X116135000Y-70730000D02*
X116770000Y-71365000D01*
X116770000Y-71365000D02*
X116770000Y-108830000D01*
X116770000Y-108830000D02*
X114230000Y-108830000D01*
G04 #@! TD*
D12*
X85000000Y-115000000D02*
G75*
G02*
X83000000Y-113000000I0J2000000D01*
G01*
X115000000Y-115000000D02*
X85000000Y-115000000D01*
X83000000Y-113000000D02*
X83000000Y-67000000D01*
X117000000Y-67000000D02*
X117000000Y-113000000D01*
X115000000Y-65000000D02*
X111000000Y-65000000D01*
X89000000Y-71000000D02*
X89000000Y-65000000D01*
X115000000Y-65000000D02*
G75*
G02*
X117000000Y-67000000I0J-2000000D01*
G01*
X111000000Y-71000000D02*
X89000000Y-71000000D01*
X89000000Y-65000000D02*
X85000000Y-65000000D01*
X83000000Y-67000000D02*
G75*
G02*
X85000000Y-65000000I2000000J0D01*
G01*
X111000000Y-65000000D02*
X111000000Y-71000000D01*
X117000000Y-113000000D02*
G75*
G02*
X115000000Y-115000000I-2000000J0D01*
G01*
M02*
